<svg xmlns="http://www.w3.org/2000/svg" xmlns:xlink="http://www.w3.org/1999/xlink" width="47" height="47" viewBox="0 0 47 47">
    <defs>
        <path id="a" d="M0 25.48V.239h31.772v25.24z"/>
        <path id="c" d="M14.475 14.756V.152H.48v14.604z"/>
    </defs>
    <g fill="none" fill-rule="evenodd">
        <path d="M0 0h47v47H0z"/>
        <path fill="#CFBD89" d="M21.724 28.448a1.226 1.226 0 0 1-.174-1.657l1.606-2.144c-2.454-1.103-5.006-.775-5.868.825-.922 1.712.44 4.232 3.042 5.628s5.46 1.14 6.382-.573c.662-1.23.146-2.875-1.16-4.222l-2.16 2.1a1.232 1.232 0 0 1-1.668.044z"/>
        <g transform="translate(5 16)">
            <mask id="b" fill="#fff">
                <use xlink:href="#a"/>
            </mask>
            <path fill="#CFBD89" d="M27.012 17.295c-2.005 3.697-8.238 4.253-13.895 1.239-5.657-3.015-8.628-8.475-6.623-12.172 2.005-3.697 8.238-4.253 13.895-1.239l.036.02 1.328-1.76c-.185-.104-.37-.209-.56-.31C12.937-1.326 3.84-.515.913 4.881c-2.926 5.396 1.41 13.365 9.666 17.764 8.256 4.4 17.354 3.588 20.28-1.808 2.448-4.514-.19-10.827-5.95-15.347L23.285 7.06c3.704 3.073 5.355 7.235 3.727 10.236" mask="url(#b)"/>
        </g>
        <g transform="translate(27 6)">
            <mask id="d" fill="#fff">
                <use xlink:href="#c"/>
            </mask>
            <path fill="#CFBD89" d="M4.786 12.619l.001-.001 4.93-.305 5.278-6.022-5.941.391-.845-.74L7.818 0 2.54 6.022l.324 4.917-.001.002L1 13.43c.606.373 1.19.765 1.746 1.174l2.04-1.986z" mask="url(#d)"/>
        </g>
        <path fill="#CFBD89" d="M22.053 27.421c-.102.194-.073.349.086.465.158.116.316.134.473.055l6.402-6.68-1.68-1.241-5.28 7.401z"/>
    </g>
</svg>
