<svg xmlns="http://www.w3.org/2000/svg" width="47" height="47" viewBox="0 0 47 47">
    <g fill="none" fill-rule="evenodd">
        <path d="M0 0h47v47H0z"/>
        <g fill-rule="nonzero">
            <path fill="#CFBD89" d="M21.316 39L21 42h7l-.317-3zM1 42h6.4L13 29H8.749zM23 32h3l-.102-2H23.1zM35 29l5.604 13H47l-7.75-13zM22 37h5l-.194-3h-4.612zM1 24h45v3H1zM27 14.274L26.978 10 25 10.728 25.023 15zM33 12.272L32.977 8 31 8.727 31.023 13zM30 13.272L29.978 9 28 9.728 28.022 14zM36 11.272L35.98 7 34 7.728 34.022 12zM39 10.274L38.977 6 37 6.727 37.022 11zM41.665 9.318c.254-.107.394-.457.311-.783l-.785-3.106c-.084-.325-.356-.504-.611-.4L40 5.27l.023 4.73 1.642-.682zM18 17.272L17.978 13 16 13.728 16.023 18zM12 19.274L11.98 15l-1.98.728.022 4.272zM4.794 19.743c.082.195.35.302.601.239L6 19.829 5.98 17l-1.65.418c-.25.063-.387.272-.307.468l.771 1.857zM23.978 11L22 11.729 22.023 16 24 15.273zM21 16.272L20.977 12 19 12.726 19.023 17zM15 18.272L14.978 14 13 14.727 13.022 19zM10 15.71c0-.945-.672-1.71-1.5-1.71S7 14.765 7 15.71V24h3v-8.29zm-1.483 2.925c-.465 0-.842-.412-.841-.918 0-.507.378-.917.843-.917.465 0 .842.412.841.919a.96.96 0 0 1-.247.648.808.808 0 0 1-.596.268z"/>
            <path fill="#D7CCA8" d="M37 19h3v5h-3z"/>
        </g>
    </g>
</svg>
