<svg xmlns="http://www.w3.org/2000/svg" xmlns:xlink="http://www.w3.org/1999/xlink" width="47" height="47" viewBox="0 0 47 47">
    <defs>
        <path id="a" d="M17.666 30.683V.433H.189v30.25h17.477z"/>
        <path id="c" d="M0 35h35V1H0z"/>
    </defs>
    <g fill="none" fill-rule="evenodd">
        <path d="M0 0h47v47H0z"/>
        <g transform="translate(6 6)">
            <g transform="translate(17)">
                <mask id="b" fill="#fff">
                    <use xlink:href="#a"/>
                </mask>
                <path fill="#CFBD89" d="M5.074 3.706c-.008-.058-.012-.115-.026-.172l.588.172h4.146V4.92l2.918.855a1.852 1.852 0 0 0-.324 2.37c.452.712 1.31 1.022 2.103.839l-2.4 7.74c-.25-1.297-1.073-2.546-2.297-3.527v8.186a5.305 5.305 0 0 0 1.113-.84l-1.113 3.59v6.55l7.884-25.427L1.205.433.189 3.706h4.885z" mask="url(#b)"/>
            </g>
            <path fill="#CFBD89" d="M12.248 4.354c.008-.059.012-.118.025-.176l-.57.176H7.668V5.6l-2.838.877c.642.617.794 1.631.314 2.429a1.866 1.866 0 0 1-2.045.859l2.334 7.931c.244-1.328 1.044-2.608 2.235-3.614v8.39a5.195 5.195 0 0 1-1.083-.862l1.083 3.68V32L0 5.944 16.012 1 17 4.354h-4.752z"/>
            <mask id="d" fill="#fff">
                <use xlink:href="#c"/>
            </mask>
            <path fill="#CFBD89" d="M10.922 32.05h13.155V5.95H10.922v26.1zM9 34h17V4H9v30z" mask="url(#d)"/>
            <path fill="#CFBD89" d="M22.673 9.497a2 2 0 1 0 2.653-2.994 2 2 0 0 0-2.653 2.994M22.673 30.503a2 2 0 1 1 2.653 2.994 2 2 0 0 1-2.653-2.994M12.327 9.497a2 2 0 1 1-2.653-2.994 2 2 0 0 1 2.653 2.994M12.327 30.503a2 2 0 1 0-2.653 2.994 2 2 0 0 0 2.653-2.994M13.616 19.007H12.49v-1.103h1.05c.033-.755.232-1.487.475-1.915l1.295.337a4.03 4.03 0 0 0-.488 1.87c0 .642.244 1.08.686 1.08.42 0 .686-.36.962-1.192.398-1.206.951-2.028 2.024-2.028.973 0 1.736.699 1.967 1.903h1.051v1.104h-.973c-.033.754-.188 1.261-.364 1.633l-1.25-.326c.122-.293.376-.812.376-1.622 0-.732-.31-.969-.62-.969-.364 0-.596.395-.95 1.351-.465 1.34-1.073 1.881-2.068 1.881-.984 0-1.825-.71-2.046-2.004M24 18.5c0-3.038-3.134-5.5-7-5.5s-7 2.462-7 5.5c0 3.037 3.134 5.5 7 5.5s7-2.463 7-5.5" mask="url(#d)"/>
        </g>
    </g>
</svg>
