<svg xmlns="http://www.w3.org/2000/svg" xmlns:xlink="http://www.w3.org/1999/xlink" width="47" height="47" viewBox="0 0 47 47">
    <defs>
        <path id="a" d="M9 10V0H0v10h9z"/>
        <path id="c" d="M37.268.419v38.935H0V.419z"/>
    </defs>
    <g fill="none" fill-rule="evenodd">
        <path d="M0 0h47v47H0z"/>
        <path fill="#CFBD89" d="M31.636 12.544l.007-.003c.225-.138.328-.185.375-.202l.202-.083.011-.005c.232-.12.325-.133.354-.133h.025l.024-.01c.803-.311 1.414-.57 1.811-.767.406-.19.82-.443 1.233-.752.693-.539 1.121-1.313 1.273-2.302.144-.931-.03-1.721-.523-2.351-.5-.621-1.266-.936-2.273-.936-1.706 0-3.003.767-3.857 2.282l-.002.006c-.09.18-.112.34-.062.478.046.128.152.229.315.295l.666.27c.214.079.523.082.773-.353.461-.758 1.077-1.126 1.882-1.126.429 0 .735.115.934.353.2.237.26.557.19.98-.09.521-.368.943-.853 1.29-.283.206-.888.484-1.798.828-.663.251-1.195.504-1.58.747-.818.502-1.35 1.28-1.583 2.315l-.17 1.016c-.029.196.004.349.094.456.09.108.23.163.418.163h5.58c.37 0 .603-.206.655-.572l.117-.654c.038-.195.014-.35-.073-.46-.088-.11-.231-.166-.426-.166h-4.172l.012-.076c.036-.224.174-.395.42-.528"/>
        <g transform="translate(36 5)">
            <mask id="b" fill="#fff">
                <use xlink:href="#a"/>
            </mask>
            <path fill="#CFBD89" d="M6.156 2.868l-.592 3.079H2.888l3.268-3.079zm2.742 3.249c-.1-.113-.26-.17-.48-.17h-.826L8.599.637C8.643.44 8.615.283 8.517.17 8.418.058 8.257 0 8.037 0h-.806c-.314 0-.608.125-.872.371L.429 5.988c-.17.158-.278.374-.322.639l-.087.485c-.044.198-.015.355.082.467.099.113.26.17.481.17h4.648l-.304 1.613c-.044.198-.017.355.081.467.1.114.26.171.48.171h.719c.398 0 .652-.2.737-.583l.315-1.668h.88c.399 0 .654-.2.738-.58l.104-.589c.042-.196.014-.352-.083-.463z" mask="url(#b)"/>
        </g>
        <g transform="translate(3 4)">
            <mask id="d" fill="#fff">
                <use xlink:href="#c"/>
            </mask>
            <path fill="#CFBD89" d="M36.619 15.6l.07.269c.044.178.11.442.182.79a19.108 19.108 0 0 1 .397 3.57c.002.178-.003.354-.005.538l-.002.279c-.003.094 0 .188-.006.284-.013.193-.025.39-.036.59-.007.101-.012.203-.02.304l-.034.31c-.023.207-.046.42-.072.635-.072.427-.129.874-.235 1.326-.087.457-.217.92-.344 1.397l-.226.717c-.036.12-.083.24-.126.361l-.136.364a19.014 19.014 0 0 1-1.427 2.95 18.727 18.727 0 0 1-8.356 7.478 18.414 18.414 0 0 1-3.99 1.257c-.086.017-.173.035-.262.05l-.13.028-.133.018-.532.076-.266.039-.269.024-.54.05-.135.013-.135.004-.272.012-.544.021-.546-.006-.268-.004h-.134l-.14-.01-.556-.035c-.093-.006-.187-.011-.28-.018l-.274-.032c-.184-.022-.368-.042-.552-.065-.092-.009-.184-.026-.275-.04l-.275-.047-.275-.046c-.092-.017-.185-.03-.276-.051l-.547-.122-.274-.06-.271-.075-.544-.149c-.091-.023-.18-.056-.27-.085l-.268-.089-.27-.089-.134-.045c-.045-.015-.088-.034-.132-.05l-.53-.206c-.088-.035-.179-.065-.265-.105l-.26-.116-.521-.234-.512-.258-.255-.129c-.086-.044-.167-.095-.25-.141l-.5-.285c-.084-.045-.164-.1-.245-.15l-.243-.155-.243-.155-.122-.076-.118-.085c-.314-.222-.634-.438-.934-.683-.151-.12-.306-.236-.455-.358l-.44-.38c-.073-.063-.148-.126-.22-.191l-.21-.2-.422-.401c-.542-.556-1.074-1.127-1.55-1.745l-.18-.23-.09-.115-.086-.118-.34-.476c-.117-.157-.218-.324-.325-.487-.105-.164-.214-.326-.315-.493a20.052 20.052 0 0 1-1.928-4.25 20.284 20.284 0 0 1-.862-4.54c-.021-.191-.022-.382-.03-.572L0 20.33c0-.021-.002-.002 0-.057V20.17l.002-.136.003-.272.003-.27c.001-.092 0-.18.007-.279l.036-.578.017-.289c.007-.095.02-.188.03-.281.042-.373.075-.746.142-1.114.23-1.474.62-2.898 1.147-4.236a19.782 19.782 0 0 1 4.49-6.773 19.297 19.297 0 0 1 5.866-3.962l.371-.155.185-.078.092-.038.092-.034.734-.264c.244-.082.486-.15.724-.225.237-.077.476-.132.71-.191.466-.127.926-.207 1.368-.294.222-.039.443-.066.657-.099.107-.014.214-.03.32-.045.106-.015.21-.021.315-.032l.61-.055c.1-.012.2-.015.297-.018.098-.004.195-.007.29-.012a269.86 269.86 0 0 0 .422-.016l.07-.003h.017l.027-.001h.032l.252-.002c.093 0 .182.002.272.003 1.392.023 2.474.186 3.208.323.367.067.646.132.834.175l.284.069c.714.172 1.157.905.987 1.635a1.327 1.327 0 0 1-1.628 1.001l-.023-.006-.245-.066c-.16-.041-.4-.104-.715-.171a16.155 16.155 0 0 0-1.919-.3 18.94 18.94 0 0 0-.852-.06l-.222-.008-.253-.007a80.001 80.001 0 0 1-.734.007c-.086.001-.173.001-.26.008l-.533.034c-.092.006-.184.008-.277.02l-.279.031c-.189.024-.38.04-.575.068-.388.068-.793.124-1.204.224-.205.046-.417.087-.625.15-.21.058-.424.112-.64.177l-.649.214-.082.027-.081.031-.165.064-.33.127a17.064 17.064 0 0 0-5.28 3.353 17.688 17.688 0 0 0-4.175 5.94 18.058 18.058 0 0 0-1.138 3.787c-.07.33-.107.667-.156 1.004-.01.084-.026.17-.034.253l-.021.248-.046.499c-.009.08-.01.174-.014.264l-.011.27-.01.273-.006.136-.003.068V20.327c.001.173.003.347.006.52.002.174-.002.349.013.522a18.57 18.57 0 0 0 .673 4.17c.395 1.37.959 2.701 1.667 3.957.088.157.185.309.278.464.095.153.183.31.288.458l.302.45.076.112.08.108.163.218c.424.586.902 1.128 1.392 1.66l.382.385.192.192c.064.062.133.121.199.183l.4.365c.135.12.277.231.415.347.274.236.567.445.855.662l.107.082.112.076.223.15.224.151c.074.05.148.103.225.148l.46.28c.077.045.153.095.231.138l.237.128.472.256.483.233.24.116c.08.04.165.07.246.106l.493.207.124.052.124.045.251.09.25.092c.084.029.168.063.252.087l.51.155.253.078.256.065.514.13c.084.023.172.037.258.054l.258.052.26.05c.086.017.172.037.259.047.173.026.346.05.52.075l.26.038c.086.01.171.017.257.025l.514.047.128.013.134.005.268.012.522.02c.173-.001.345-.003.517-.006l.26-.002.13-.002.128-.007.514-.034.257-.015.256-.03.508-.058.128-.014.125-.021.251-.042c1.34-.22 2.635-.593 3.851-1.093a17.992 17.992 0 0 0 6.162-4.28 18.25 18.25 0 0 0 2.125-2.74 18.819 18.819 0 0 0 1.478-2.85l.142-.354c.046-.117.096-.233.134-.353l.242-.697c.137-.465.279-.917.376-1.365.117-.444.185-.884.268-1.304.033-.212.059-.421.088-.625l.042-.305c.011-.101.019-.2.027-.299l.052-.582c.01-.094.01-.19.014-.283l.01-.278c.007-.183.017-.364.02-.534a19.073 19.073 0 0 0-.298-3.565c-.062-.349-.122-.615-.16-.794l-.063-.271" mask="url(#d)"/>
        </g>
        <path fill="#CFBD89" d="M36 27.315h-9.793l8.569-8.21a.643.643 0 0 0-.138-1.029.631.631 0 0 0-.633.018L19 27.315V29h17v-1.685z"/>
        <path fill="#CFBD89" d="M34.494 19.483v.884c0 .165.085.312.214.398l-.037.079a.987.987 0 0 1-.177.236l-.02.017-.026.023-.003.003-.027.022a1.021 1.021 0 0 0-.405.994l.014.066.007.027.024.079.027.065.012.029.014.026.026.048.005.008a.742.742 0 0 0 .023.037l.013.02a1.032 1.032 0 0 0 .823.456H35.062c.011 0 .03 0 .05-.003a1.033 1.033 0 0 0 .276-.058h.006a.818.818 0 0 0 .289-.164c.06-.057.171-.18.222-.246.025-.033.039-.064.048-.084l.023-.044a.247.247 0 0 0-.046-.28.25.25 0 0 0-.351-.005l-.004.005-.038.039-.005.005-.006.006a.156.156 0 0 0-.019.016l-.001.001-.009.008-.03.024a.578.578 0 0 1-.244.106h-.007l-.019.003-.143-.008a.428.428 0 0 1-.134-.057l-.008-.005a.702.702 0 0 0-.026-.02l-.014-.012-.009-.007c-.002-.004-.006-.008-.01-.011l-.01-.01a.21.21 0 0 0-.022-.027l-.015-.021-.003-.006-.011-.018-.01-.022a.055.055 0 0 1-.005-.01l-.01-.025-.007-.024-.005-.025-.003-.025-.002-.018v-.034c0-.023.004-.05.01-.072l.006-.022.002-.004.006-.018a.412.412 0 0 1 .056-.1l.015-.017.003-.002.063-.06a1.14 1.14 0 0 0 .057-.063l.019-.02.008-.009.069-.086.002-.003a1.483 1.483 0 0 0 .189-.36c.033-.097.056-.193.067-.288a.485.485 0 0 0 .319-.453v-.884a.486.486 0 0 0-.486-.483h-.175a.486.486 0 0 0-.486.483M32.5 31a1.5 1.5 0 1 0-.001 2.999A1.5 1.5 0 0 0 32.5 31M14.5 31a1.5 1.5 0 1 0-.001 2.999A1.5 1.5 0 0 0 14.5 31"/>
        <path fill="#CFBD89" d="M32.5 34.406a1.909 1.909 0 0 1-1.907-1.907 1.91 1.91 0 0 1 1.907-1.907 1.91 1.91 0 0 1 1.907 1.907 1.909 1.909 0 0 1-1.907 1.907m0-4.406a2.5 2.5 0 1 0-.001 4.999A2.5 2.5 0 0 0 32.5 30M14.5 34.406a1.909 1.909 0 0 1-1.907-1.907 1.91 1.91 0 0 1 1.907-1.907 1.91 1.91 0 0 1 1.907 1.907 1.909 1.909 0 0 1-1.907 1.907m0-4.406a2.5 2.5 0 1 0-.001 4.999A2.5 2.5 0 0 0 14.5 30"/>
        <path fill="#CFBD89" d="M15.893 25.43a.406.406 0 0 1-.412.403l-4.878-.01a.332.332 0 0 1-.309-.469l1.286-2.692c.206-.444.66-.73 1.158-.73h2.744c.227 0 .411.181.411.404v3.094zm20.281 3.218H18.146v-6.611A1.05 1.05 0 0 0 17.085 21H12.27c-.77 0-1.466.446-1.773 1.134l-1.347 3.018a5.312 5.312 0 0 0-.464 2.17v2.909h-.258a.425.425 0 0 0-.429.42v.93c0 .231.193.419.429.419H11.467a2.255 2.255 0 0 1-.003-.11c0-1.629 1.358-2.954 3.027-2.954 1.668 0 3.026 1.325 3.026 2.954 0 .037-.002.074-.004.11h11.718c-.002-.036-.003-.073-.003-.11 0-1.629 1.358-2.954 3.027-2.954s3.026 1.325 3.026 2.954c0 .037-.001.074-.003.11h.896a.816.816 0 0 0 .826-.805v-1.74a.816.816 0 0 0-.826-.807z"/>
        <path fill="#CFBD89" d="M14.5 20c-.829 0-1.5.448-1.5 1h3c0-.552-.672-1-1.5-1"/>
    </g>
</svg>
