<svg xmlns="http://www.w3.org/2000/svg" xmlns:xlink="http://www.w3.org/1999/xlink" width="47" height="47" viewBox="0 0 47 47">
    <defs>
        <path id="a" d="M.5.6h3.012v19.308H.5V.6z"/>
    </defs>
    <g fill="none" fill-rule="evenodd">
        <path d="M0 0h47v47H0z"/>
        <path fill="#CFBD89" d="M17.488 38.626c-.973 0-1.762-.833-1.762-1.86 0-1.028.789-1.86 1.762-1.86s1.763.832 1.763 1.86c0 1.027-.79 1.86-1.763 1.86m5.488-26.694c0-2.06-1.018-3.869-2.552-4.896-.142-.095-.327.01-.327.187v4.56c0 .574-.352 1.08-.87 1.254-.473.16-1.073.29-1.77.288a5.442 5.442 0 0 1-1.711-.288c-.517-.174-.867-.682-.867-1.254v-4.56c0-.178-.185-.282-.327-.187C13.006 8.07 11.984 9.9 12 11.982c.019 2.367 1.37 4.384 3.299 5.266v15.97c-1.089.75-1.811 2.042-1.822 3.514-.018 2.277 1.699 4.18 3.854 4.265 2.287.091 4.169-1.837 4.169-4.231 0-1.487-.726-2.793-1.823-3.548V17.245c1.941-.893 3.3-2.936 3.3-5.313"/>
        <g transform="translate(27.965 4)">
            <mask id="b" fill="#fff">
                <use xlink:href="#a"/>
            </mask>
            <path fill="#CFBD89" d="M1.188 8.265v11.28c0 .2.14.363.313.363h1.01c.174 0 .313-.162.313-.363V8.265c0-.87.201-1.725.581-2.477.089-.175.124-.38.1-.583L2.973.75c-.01-.086-.074-.15-.149-.15H1.188c-.075 0-.138.064-.148.15L.508 5.205c-.025.202.011.408.1.583.38.752.58 1.607.58 2.477" mask="url(#b)"/>
        </g>
        <path fill="#CFBD89" d="M34.488 26.175v-.991c0-.5-.37-.905-.827-.905h-6.378c-.457 0-.828.405-.828.905v.991c0 .24.088.47.243.64 1.148 1.256 1.148 3.292 0 4.548a.949.949 0 0 0-.243.64v8.657c0 .414.256.776.624.877a12.676 12.676 0 0 0 6.785 0c.368-.101.624-.462.624-.877v-8.657c0-.24-.087-.47-.242-.64-1.149-1.256-1.149-3.292 0-4.548a.95.95 0 0 0 .242-.64"/>
    </g>
</svg>
