<svg xmlns="http://www.w3.org/2000/svg" xmlns:xlink="http://www.w3.org/1999/xlink" width="47" height="47" viewBox="0 0 47 47">
    <defs>
        <path id="a" d="M0 .046V33h26.737V.046z"/>
        <path id="c" d="M.451.482h27.528v12.111H.451V.482z"/>
    </defs>
    <g fill="none" fill-rule="evenodd">
        <path d="M0 0h47v47H0z"/>
        <g transform="translate(6 10)">
            <mask id="b" fill="#fff">
                <use xlink:href="#a"/>
            </mask>
            <path fill="#CFBD89" d="M21.42 23.413c-1.449-.854-2.599-.17-2.599-.17-1.327 1.06-2.967 1.15-2.967 1.15-3.868.028-7.615-6.585-8.452-9.211-.837-2.625.767-3.783 1.32-4.693.554-.91 1.633-2.301 1.633-2.301C10.845 6.642 8.76 3 7.453 1.419 6.148-.16 5.166.056 5.166.056 3.107.26 1.27 3.388 1.27 3.388c-3.656 7.848 1.51 15.746 3.817 18.725 2.307 2.978 5.316 7.242 11.015 9.74 5.7 2.5 9.22.44 10.441-1.678 1.221-2.117-3.676-5.908-5.124-6.762" mask="url(#b)"/>
        </g>
        <path fill="#CFBD89" d="M22.2 22.837a5.096 5.096 0 0 1-.442.718c-.189.262-.438.552-.746.871l-1.549 1.64a2.618 2.618 0 0 0-.225.263c-.057.08-.104.162-.141.246-.037.084-.062.18-.076.287-.014.107-.021.236-.021.386 0 .16.01.29.031.39.02.1.054.176.1.228a.337.337 0 0 0 .18.106c.074.019.161.028.263.028h5.143a.212.212 0 0 0 .124-.038.263.263 0 0 0 .09-.126.993.993 0 0 0 .052-.23c.011-.092.017-.205.017-.338 0-.127-.007-.238-.02-.33a.766.766 0 0 0-.063-.226.322.322 0 0 0-.1-.127.22.22 0 0 0-.128-.04h-3.525l1.043-1.06c.526-.515.948-.967 1.265-1.356a7.1 7.1 0 0 0 .74-1.067c.175-.32.29-.62.346-.898.055-.278.083-.56.083-.847 0-.328-.057-.635-.17-.92a1.942 1.942 0 0 0-.514-.737c-.23-.208-.52-.37-.868-.486a3.847 3.847 0 0 0-1.22-.174c-.295 0-.579.028-.85.082-.273.055-.521.122-.747.201-.226.08-.416.162-.57.247-.155.084-.26.154-.318.208a.695.695 0 0 0-.12.14.542.542 0 0 0-.057.137 1.198 1.198 0 0 0-.03.185 3.847 3.847 0 0 0 .007.655c.01.107.025.193.044.257a.298.298 0 0 0 .072.136c.03.028.066.041.108.041.06 0 .143-.035.249-.105a4.58 4.58 0 0 1 .397-.233c.16-.084.343-.16.553-.229.21-.068.451-.103.723-.103.193 0 .361.03.504.086a.975.975 0 0 1 .356.236c.095.1.166.217.215.352.048.134.072.277.072.427 0 .164-.02.337-.058.52-.04.181-.113.38-.218.597M27.531 24.665l2.487-4.1h.014v4.1h-2.5zm2.541 3.18a.3.3 0 0 0 .146.086c.07.023.165.04.284.052.12.01.267.017.442.017.184 0 .335-.006.452-.017.116-.012.211-.029.284-.052a.33.33 0 0 0 .153-.086.183.183 0 0 0 .044-.12v-1.613h.839c.087 0 .157-.06.207-.183.052-.121.077-.3.077-.534 0-.261-.028-.448-.084-.561-.056-.113-.122-.17-.2-.17h-.839v-5.368c0-.05-.025-.094-.073-.13a.653.653 0 0 0-.23-.094 2.632 2.632 0 0 0-.419-.055 10.166 10.166 0 0 0-.634-.017c-.228 0-.423.004-.584.014-.16.009-.292.024-.397.045a.972.972 0 0 0-.244.075.29.29 0 0 0-.124.108l-2.932 4.885a2.15 2.15 0 0 0-.12.248c-.032.078-.056.161-.073.249a2.426 2.426 0 0 0-.036.292c-.007.108-.011.236-.011.383 0 .179.008.323.025.43a.646.646 0 0 0 .08.248.243.243 0 0 0 .135.111.633.633 0 0 0 .183.024h3.61v1.612a.19.19 0 0 0 .04.121z"/>
        <g transform="translate(14 4)">
            <mask id="d" fill="#fff">
                <use xlink:href="#c"/>
            </mask>
            <path fill="#CFBD89" d="M2.946 8.976a12.63 12.63 0 0 1 2.585-1.801c4.29-2.257 9.32-1.814 13.081.722l-3.43 4.696 12.797-.071L24.03.482l-3.086 4.223C15.986 1.323 9.33.717 3.654 3.703a16.578 16.578 0 0 0-3.203 2.2 8.82 8.82 0 0 1 2.495 3.073" mask="url(#d)"/>
        </g>
        <path fill="#CFBD89" d="M31.348 33.535c-.115.061-.232.116-.348.173A53.264 53.264 0 0 1 33.43 37 16.796 16.796 0 0 0 42 25l-5.07 2.681a12.735 12.735 0 0 1-5.582 5.854"/>
    </g>
</svg>
