<?xml version="1.0" standalone="no"?>
<!DOCTYPE svg PUBLIC "-//W3C//DTD SVG 1.1//EN" "http://www.w3.org/Graphics/SVG/1.1/DTD/svg11.dtd" >
<svg xmlns="http://www.w3.org/2000/svg" xmlns:xlink="http://www.w3.org/1999/xlink" version="1.1">
<metadata>
Created by FontForge 20170910 at Mon May 15 17:40:34 2006
 By Jimmy Wärting
Copyright (URW)++,Copyright 2006 by (URW)++ Design &#38; Development
</metadata>
<defs>
<font id="CorporateA-Regular" horiz-adv-x="230" >
  <font-face 
    font-family="Corporate A "
    font-weight="400"
    font-stretch="normal"
    units-per-em="1000"
    panose-1="2 2 5 0 0 0 0 0 0 0"
    ascent="800"
    descent="-200"
    x-height="472"
    cap-height="302"
    bbox="-187 -264 918 879"
    underline-thickness="38"
    underline-position="-107"
    stemh="27"
    stemv="79"
    unicode-range="U+0020-FB04"
  />
<missing-glyph horiz-adv-x="250" 
 />
    <glyph glyph-name="fi" unicode="fi" horiz-adv-x="565" 
d="M180 472h114v-37h-114v-364c0 -43 10 -51 71 -54v-20c-52 5 -77 6 -111 6c-33 0 -59 -1 -112 -6v20c61 3 72 11 72 54v364h-69v31c65 2 74 9 75 63c3 57 10 81 28 105c24 29 64 47 109 47c57 0 98 -31 98 -75c0 -23 -14 -37 -37 -37c-21 0 -38 14 -36 30c1 8 2 15 2 19
l1 8c0 17 -13 30 -31 30c-22 0 -44 -17 -53 -42c-5 -14 -7 -38 -7 -75v-67zM467 489v-418c0 -43 10 -51 72 -54v-20c-52 5 -78 6 -112 6c-33 0 -59 -1 -111 -6v20c61 3 71 11 71 54v316c0 52 -7 58 -70 59v17c50 4 103 14 150 26zM433 667c19 0 28 -3 38 -14s17 -28 17 -40
c0 -29 -26 -55 -55 -55s-54 25 -54 55c0 14 6 29 16 40s19 14 38 14z" />
    <glyph glyph-name="fl" unicode="fl" horiz-adv-x="559" 
d="M31 435v31c65 2 74 9 75 63c3 57 10 81 28 105c24 29 64 47 108 47c34 0 61 -9 80 -29c51 5 102 15 144 26v-607c0 -43 10 -51 71 -54v-20c-52 5 -77 6 -111 6s-59 -1 -112 -6v20c62 3 72 11 72 54v500c1 53 -5 60 -51 63c4 -11 6 -18 6 -28c0 -24 -13 -37 -37 -37
c-21 0 -36 12 -36 30c0 2 1 8 2 14c1 5 1 9 1 13c0 17 -12 29 -30 29c-23 0 -45 -17 -53 -41c-6 -15 -8 -38 -8 -75v-67h114v-37h-114v-364c0 -43 10 -51 71 -54v-20c-52 5 -77 6 -111 6c-33 0 -59 -1 -112 -6v20c61 3 72 11 72 54v364h-69z" />
    <glyph glyph-name="ff" unicode="ff" horiz-adv-x="582" 
d="M180 472h114v-37h-114v-364c0 -43 10 -51 71 -54v-20c-52 5 -77 6 -111 6c-33 0 -59 -1 -112 -6v20c61 3 72 11 72 54v364h-69v31c65 2 74 9 75 63c3 57 10 81 28 105c24 29 64 47 109 47c57 0 98 -31 98 -75c0 -23 -14 -37 -37 -37c-21 0 -38 14 -36 30c1 8 2 15 2 19
l1 8c0 17 -13 30 -31 30c-22 0 -44 -17 -53 -42c-5 -14 -7 -38 -7 -75v-67zM466 472h114v-37h-114v-364c0 -43 10 -51 71 -54v-20c-52 5 -77 6 -111 6s-60 -1 -112 -6v20c61 3 72 11 72 54v364h-69v31c65 2 73 9 75 63c4 58 10 81 28 105c24 29 64 47 109 47
c57 0 98 -31 98 -75c0 -23 -14 -37 -37 -37c-21 0 -38 14 -36 30c1 8 2 15 2 19s0 4 1 8c0 17 -14 30 -30 30c-23 0 -45 -17 -54 -42c-5 -14 -7 -38 -7 -75v-67z" />
    <glyph glyph-name="ffi" unicode="ffi" horiz-adv-x="851" 
d="M180 472h114v-37h-114v-364c0 -43 10 -51 71 -54v-20c-52 5 -77 6 -111 6c-33 0 -59 -1 -112 -6v20c61 3 72 11 72 54v364h-69v31c65 2 74 9 75 63c3 57 10 81 28 105c24 29 64 47 109 47c57 0 98 -31 98 -75c0 -23 -14 -37 -37 -37c-21 0 -38 14 -36 30c1 8 2 15 2 19
l1 8c0 17 -13 30 -31 30c-22 0 -44 -17 -53 -42c-5 -14 -7 -38 -7 -75v-67zM466 472h114v-37h-114v-364c0 -43 10 -51 71 -54v-20c-52 5 -77 6 -111 6s-60 -1 -112 -6v20c61 3 72 11 72 54v364h-69v31c65 2 73 9 75 63c4 58 10 81 28 105c24 29 64 47 109 47
c57 0 98 -31 98 -75c0 -23 -14 -37 -37 -37c-21 0 -38 14 -36 30c1 8 2 15 2 19s0 4 1 8c0 17 -14 30 -30 30c-23 0 -45 -17 -54 -42c-5 -14 -7 -38 -7 -75v-67zM753 489v-418c0 -43 10 -51 72 -54v-20c-52 5 -78 6 -112 6c-33 0 -59 -1 -111 -6v20c61 3 71 11 71 54v316
c0 52 -7 58 -70 59v17c50 4 104 14 150 26zM709 667c20 0 29 -3 38 -14c10 -11 18 -29 18 -40c0 -28 -27 -55 -56 -55s-53 25 -53 55c0 33 21 54 53 54z" />
    <glyph glyph-name="ffl" unicode="ffl" horiz-adv-x="845" 
d="M672 71v500c1 53 -5 60 -51 63c5 -11 6 -18 6 -28c0 -24 -13 -37 -37 -37c-21 0 -36 12 -36 30c0 3 1 8 2 14c1 5 1 9 1 13c0 17 -12 29 -30 29c-23 0 -45 -17 -53 -41c-6 -15 -8 -38 -8 -75v-67h114v-37h-114v-364c0 -43 10 -51 71 -54v-20c-52 5 -77 6 -111 6
c-33 0 -59 -1 -112 -6v20c62 3 72 11 72 54v364h-69v31c65 2 73 9 75 63c3 58 10 81 28 105c24 29 64 47 109 47c33 0 59 -9 79 -29c53 6 102 15 144 26v-607c0 -43 10 -51 71 -54v-20c-52 5 -77 6 -111 6s-59 -1 -112 -6v20c61 3 72 11 72 54zM180 472h114v-37h-114v-364
c0 -43 10 -51 71 -54v-20c-52 5 -77 6 -111 6c-33 0 -59 -1 -112 -6v20c61 3 72 11 72 54v364h-69v31c65 2 74 9 75 63c3 57 10 81 28 105c24 29 64 47 109 47c57 0 98 -31 98 -75c0 -23 -14 -37 -37 -37c-21 0 -38 14 -36 30c1 8 2 15 2 19l1 8c0 17 -13 30 -31 30
c-22 0 -44 -17 -53 -42c-5 -14 -7 -38 -7 -75v-67z" />
    <glyph glyph-name=".notdef" horiz-adv-x="250" 
 />
    <glyph glyph-name="space" unicode=" " horiz-adv-x="250" 
 />
    <glyph glyph-name="exclam" unicode="!" horiz-adv-x="248" 
d="M99 200l-17 454h84l-17 -454h-50zM125 109c32 0 58 -26 58 -59s-26 -59 -59 -59c-32 0 -59 27 -59 59c0 33 26 59 60 59z" />
    <glyph glyph-name="quotedbl" unicode="&#x22;" horiz-adv-x="377" 
d="M146 399h-54l-11 268h76zM285 399h-53l-11 268h76z" />
    <glyph glyph-name="numbersign" unicode="#" horiz-adv-x="607" 
d="M540 266l-9 -54h-113l-33 -212h-63l34 212h-145l-33 -212h-63l34 212h-113l9 54h112l23 147h-112l8 54h113l32 200h62l-32 -200h145l32 200h62l-31 -200h112l-8 -54h-113l-23 -147h113zM387 413h-144l-23 -147h145z" />
    <glyph glyph-name="dollar" unicode="$" horiz-adv-x="523" 
d="M245 19v286c-68 27 -75 30 -95 41c-65 34 -93 79 -93 150c0 103 75 175 188 182v79h31v-79c48 -3 86 -21 120 -54l31 56h14v-185h-21c-21 97 -68 146 -144 152v-263c65 -26 86 -35 110 -49c60 -36 89 -85 89 -153c0 -108 -80 -186 -199 -193v-79h-31v79
c-53 4 -103 25 -143 60l-39 -64h-14v217h22c15 -111 78 -177 174 -183zM276 292v-273c82 10 125 56 125 135c0 69 -28 100 -125 138zM245 396v250c-70 -8 -116 -60 -116 -128c0 -42 19 -75 54 -94c17 -9 32 -16 62 -28z" />
    <glyph glyph-name="percent" unicode="%" horiz-adv-x="607" 
d="M166 673c75 0 128 -65 128 -159s-54 -161 -131 -161c-78 0 -131 65 -131 161c0 92 56 159 134 159zM165 649c-47 0 -73 -49 -73 -135c0 -91 24 -137 71 -137s71 46 71 136c0 91 -23 136 -69 136zM87 0l391 667h42l-391 -667h-42zM446 314c76 0 129 -66 129 -159
s-55 -161 -131 -161c-78 0 -132 66 -132 161c0 92 57 159 134 159zM445 290c-46 0 -73 -50 -73 -135c0 -89 25 -137 71 -137c47 0 72 48 72 137c0 88 -24 135 -70 135z" />
    <glyph glyph-name="ampersand" unicode="&#x26;" horiz-adv-x="590" 
d="M272 358l164 -223c23 33 38 75 38 110c0 24 -13 32 -53 34v29c34 -4 52 -5 73 -5s39 1 73 5v-29c-47 -3 -52 -7 -59 -47c-10 -62 -21 -93 -47 -130l26 -38c29 -42 36 -45 85 -47v-20c-31 3 -46 4 -62 4s-30 -1 -63 -4l-37 54c-59 -46 -102 -62 -165 -62
c-122 0 -211 76 -211 180c0 75 36 125 142 198c-11 16 -18 27 -37 54c-25 38 -35 66 -35 101c0 77 62 134 146 134c77 0 130 -51 130 -125c0 -56 -26 -98 -108 -173zM233 412c66 55 90 91 90 134c0 47 -32 83 -73 83c-46 0 -80 -37 -80 -87c0 -37 5 -48 63 -130zM386 80
l-172 235c-74 -50 -102 -90 -102 -150c0 -83 57 -140 140 -140c49 0 78 12 134 55z" />
    <glyph glyph-name="quoteright" unicode="&#x2019;" horiz-adv-x="238" 
d="M104 451h-48c39 37 73 96 75 129h-4c-4 -1 -6 -1 -8 -1c-28 0 -48 20 -48 47c0 30 23 52 55 52c35 0 56 -23 56 -63c0 -49 -24 -100 -78 -164z" />
    <glyph glyph-name="parenleft" unicode="(" horiz-adv-x="309" 
d="M219 683h33c-66 -120 -100 -273 -100 -447s34 -325 100 -447h-33c-99 118 -147 263 -147 447s48 331 147 447z" />
    <glyph glyph-name="parenright" unicode=")" horiz-adv-x="309" 
d="M90 -211h-33c66 122 100 272 100 447s-34 327 -100 447h33c99 -116 147 -262 147 -447c0 -184 -48 -329 -147 -447z" />
    <glyph glyph-name="asterisk" unicode="*" horiz-adv-x="523" 
d="M240 530l-5 120h52l-4 -120l113 41l16 -49l-115 -33l73 -94l-42 -31l-67 99l-67 -99l-42 31l74 94l-115 33l16 49z" />
    <glyph glyph-name="plus" unicode="+" horiz-adv-x="523" 
d="M54 308v59h177v175h61v-175h178v-59h-178v-175h-61v175h-177z" />
    <glyph glyph-name="comma" unicode="," horiz-adv-x="234" 
d="M87 -167h-50c43 44 83 119 87 163h-4l-5 -1c-2 -1 -3 -1 -3 -1c-30 0 -51 21 -51 50c0 32 24 55 58 55c39 0 60 -24 60 -68c0 -58 -30 -122 -92 -198z" />
    <glyph glyph-name="hyphen" unicode="-" horiz-adv-x="257" 
d="M0 245v45h257v-45h-257z" />
    <glyph glyph-name="period" unicode="." 
d="M116 105c30 0 56 -26 56 -57s-26 -57 -57 -57s-57 26 -57 57c0 32 26 57 58 57z" />
    <glyph glyph-name="slash" unicode="/" horiz-adv-x="403" 
d="M-86 -194l424 861h55l-424 -861h-55z" />
    <glyph glyph-name="zero" unicode="0" horiz-adv-x="523" 
d="M263 661c64 0 118 -29 149 -82c38 -62 59 -153 59 -253c0 -90 -17 -173 -49 -236c-33 -64 -89 -99 -160 -99c-133 0 -210 123 -210 337c0 98 21 189 58 249c34 54 88 84 153 84zM261 632c-80 0 -124 -109 -124 -305c0 -199 44 -307 126 -307c81 0 123 106 123 308
c0 196 -44 304 -125 304z" />
    <glyph glyph-name="one" unicode="1" horiz-adv-x="523" 
d="M309 683v-595c0 -54 8 -61 83 -67v-24c-49 5 -70 6 -124 6s-75 -1 -123 -6v24c74 6 82 13 82 67v459h-112v24c82 5 146 48 167 112h27z" />
    <glyph glyph-name="two" unicode="2" horiz-adv-x="523" 
d="M447 70l-9 -70h-374v56c87 102 130 155 176 217c86 117 115 175 115 226c0 62 -45 106 -109 106c-46 0 -88 -22 -111 -58c-13 -23 -19 -41 -26 -81h-32c6 69 17 103 41 133c32 40 85 62 148 62c102 0 175 -63 175 -151c0 -82 -39 -139 -300 -440h306z" />
    <glyph glyph-name="three" unicode="3" horiz-adv-x="523" 
d="M56 185h34c8 -99 51 -143 137 -143c88 0 143 56 143 145c0 66 -28 114 -78 132c-18 6 -60 12 -88 12h-12v35h12c89 0 141 47 141 129c0 71 -42 115 -109 115c-73 0 -115 -39 -133 -123h-30c12 116 73 174 183 174c103 0 172 -63 172 -157c0 -74 -42 -125 -123 -149
c42 -10 62 -19 86 -35c41 -30 65 -78 65 -134c0 -112 -89 -195 -209 -195c-121 0 -187 67 -191 194z" />
    <glyph glyph-name="four" unicode="4" horiz-adv-x="523" 
d="M289 -15v188h-270l271 495h81v-432h111v-63h-111v-188h-82zM290 236l2 376l-203 -376h201z" />
    <glyph glyph-name="five" unicode="5" horiz-adv-x="523" 
d="M414 582h-256l-34 -193c37 39 79 56 135 56c117 0 196 -87 196 -218c0 -138 -89 -236 -214 -236c-105 0 -164 57 -173 166h33c10 -77 50 -115 122 -115c88 0 146 73 146 184c0 104 -53 171 -136 171c-55 0 -95 -24 -125 -75l-30 2l57 328h289z" />
    <glyph glyph-name="six" unicode="6" horiz-adv-x="523" 
d="M366 693h51c-84 -78 -170 -182 -211 -256c30 10 46 13 70 13c111 0 190 -94 190 -225c0 -136 -86 -234 -205 -234c-122 0 -207 95 -207 232c0 105 49 202 163 326c46 51 100 102 149 144zM261 417c-78 0 -120 -68 -120 -194c0 -133 40 -203 118 -203c77 0 118 70 118 199
c0 128 -41 198 -116 198z" />
    <glyph glyph-name="seven" unicode="7" horiz-adv-x="523" 
d="M98 0l289 579h-333v73h413l-294 -652h-75z" />
    <glyph glyph-name="eight" unicode="8" horiz-adv-x="523" 
d="M342 342c77 -27 115 -81 115 -161c0 -114 -79 -190 -196 -190c-119 0 -195 73 -195 188c0 79 34 128 113 163c-67 29 -98 75 -98 146c0 104 74 173 184 173c107 0 176 -67 176 -170c0 -69 -32 -118 -99 -149zM264 326c-68 0 -115 -60 -115 -149c0 -97 43 -157 112 -157
c68 0 113 63 113 155c0 91 -44 151 -110 151zM264 632c-62 0 -100 -52 -100 -136c0 -90 35 -141 97 -141c59 0 97 53 97 137c0 89 -34 140 -94 140z" />
    <glyph glyph-name="nine" unicode="9" horiz-adv-x="523" 
d="M168 -42h-51c78 75 162 184 201 258c-29 -10 -47 -14 -69 -14c-106 0 -182 95 -182 227c0 136 80 232 195 232c118 0 198 -94 198 -233c0 -105 -45 -200 -152 -325c-47 -55 -98 -108 -140 -145zM264 632c-73 0 -111 -66 -111 -194c0 -132 39 -203 111 -203
c73 0 112 66 112 191c0 136 -38 206 -112 206z" />
    <glyph glyph-name="colon" unicode=":" 
d="M116 105c30 0 56 -26 56 -57s-26 -57 -57 -57s-57 26 -57 57c0 32 26 57 58 57zM116 436c31 0 56 -25 56 -57c0 -31 -26 -57 -57 -57s-57 26 -57 57c0 32 25 57 58 57z" />
    <glyph glyph-name="semicolon" unicode=";" horiz-adv-x="234" 
d="M120 436c30 0 56 -26 56 -57s-26 -57 -57 -57s-57 26 -57 57c0 32 25 57 58 57zM87 -167h-50c43 44 83 119 87 163h-4l-5 -1c-2 -1 -3 -1 -3 -1c-30 0 -51 21 -51 50c0 32 24 55 58 55c39 0 60 -24 60 -68c0 -58 -30 -122 -92 -198z" />
    <glyph glyph-name="less" unicode="&#x3c;" horiz-adv-x="500" 
d="M457 610v-34l-320 -209l320 -214v-91l-413 276v6z" />
    <glyph glyph-name="equal" unicode="=" horiz-adv-x="523" 
d="M54 373v59h416v-59h-416zM54 242v59h416v-59h-416z" />
    <glyph glyph-name="greater" unicode="&#x3e;" horiz-adv-x="500" 
d="M44 62v35l320 209l-320 213v91l413 -275v-6z" />
    <glyph glyph-name="question" unicode="?" horiz-adv-x="383" 
d="M182 191h-42c-3 23 -4 35 -4 52c0 36 6 66 20 90c13 24 15 26 65 77c40 41 57 72 57 107c0 52 -36 87 -91 87c-69 0 -113 -43 -121 -118h-27c0 40 4 61 15 86c27 56 85 89 158 89c88 0 148 -57 148 -143c0 -59 -23 -96 -95 -153c-64 -51 -84 -87 -84 -152
c0 -6 0 -11 1 -22zM170 109c32 0 59 -27 59 -59s-27 -59 -59 -59c-33 0 -59 26 -59 59s26 59 59 59z" />
    <glyph glyph-name="at" unicode="@" horiz-adv-x="707" 
d="M631 174h46c-32 -57 -54 -83 -98 -116c-62 -46 -126 -68 -201 -68c-200 0 -352 146 -352 339c0 196 152 348 347 348c177 0 310 -120 310 -278c0 -71 -24 -135 -70 -184c-43 -47 -101 -77 -146 -77c-46 0 -67 22 -75 75c-40 -52 -67 -69 -112 -69c-73 0 -127 57 -127 137
c0 113 98 218 205 218c45 0 71 -24 83 -75l18 66h69l-71 -262c-6 -21 -6 -23 -6 -31c0 -20 14 -35 32 -35c31 0 78 34 109 80c31 44 50 105 50 157c0 131 -119 236 -268 236c-173 0 -304 -131 -304 -304c0 -172 134 -300 314 -300c101 0 184 48 247 143zM367 477
c-34 2 -73 -28 -102 -77c-26 -44 -43 -102 -43 -143c0 -53 29 -91 69 -91s74 34 102 99c18 42 31 101 31 136c0 47 -20 74 -57 76z" />
    <glyph glyph-name="A" unicode="A" horiz-adv-x="643" 
d="M413 193h-234l-33 -94c-8 -24 -12 -39 -12 -47c0 -20 17 -28 66 -31v-24c-41 4 -63 5 -95 5s-54 -1 -95 -5v24c61 4 74 13 96 71l228 596l206 -607c16 -46 30 -55 93 -60v-24c-56 6 -85 8 -122 8s-66 -2 -122 -8v24c47 4 64 12 64 30c0 6 -4 26 -6 34zM191 224h212
l-98 306z" />
    <glyph glyph-name="B" unicode="B" horiz-adv-x="572" 
d="M32 667h263c65 0 104 -10 138 -36c38 -30 59 -75 59 -127c0 -71 -36 -120 -109 -148c91 -18 141 -77 141 -165c0 -63 -32 -124 -83 -156c-40 -26 -82 -35 -157 -35h-252v24c73 6 82 13 82 66v486c0 53 -10 62 -82 66v25zM198 364h68c55 0 82 8 104 33c23 25 33 57 33 105
c0 94 -36 134 -120 134h-85v-272zM198 333v-251c0 -44 9 -51 61 -51h37c89 0 139 56 139 156c0 48 -13 89 -36 113c-22 23 -54 33 -106 33h-95z" />
    <glyph glyph-name="C" unicode="C" horiz-adv-x="600" 
d="M502 225h36c-2 -56 -11 -91 -31 -129c-36 -68 -107 -109 -190 -109c-158 0 -265 139 -265 345c0 98 25 185 71 250c45 63 115 97 197 97c66 0 112 -17 157 -59l35 57h18v-196h-23c-28 113 -84 166 -175 166c-66 0 -116 -30 -145 -89c-29 -57 -45 -135 -45 -222
c0 -193 69 -304 189 -304c100 0 164 71 171 193z" />
    <glyph glyph-name="D" unicode="D" horiz-adv-x="635" 
d="M28 642v25h245c96 0 155 -18 205 -65c69 -63 110 -163 110 -269s-43 -210 -111 -269c-51 -44 -115 -64 -205 -64h-244v24c73 6 82 13 82 67v485c0 53 -10 62 -82 66zM195 636v-555c0 -45 9 -52 65 -52c77 0 129 18 165 56c49 52 74 138 74 250c0 105 -22 185 -66 239
c-34 43 -84 62 -158 62h-80z" />
    <glyph glyph-name="E" unicode="E" horiz-adv-x="543" 
d="M496 161l-23 -161h-441v25c73 5 82 12 82 66v485c0 53 -10 62 -82 66v25h435l18 -150h-23c-25 95 -48 119 -118 119h-145v-274h143c45 0 56 15 59 82h25v-196h-25c-2 65 -16 83 -64 83h-138v-241c0 -48 13 -59 67 -59h71c79 0 110 29 136 130h23z" />
    <glyph glyph-name="F" unicode="F" horiz-adv-x="521" 
d="M203 331v-243c0 -54 8 -61 83 -67v-24c-63 6 -92 8 -125 8c-34 0 -62 -2 -125 -8v24c74 6 82 13 82 67v488c0 53 -10 62 -82 66v25h435l18 -150h-23c-25 95 -48 119 -118 119h-145v-274h144c44 0 55 15 58 82h25v-196h-25c-2 66 -16 83 -64 83h-138z" />
    <glyph glyph-name="G" unicode="G" horiz-adv-x="635" 
d="M536 679v-198h-23c-13 44 -21 64 -37 90c-30 49 -84 78 -144 78c-69 0 -126 -36 -155 -98c-25 -56 -39 -131 -39 -214c0 -81 13 -157 36 -214c27 -67 83 -105 156 -105c46 0 83 11 134 38v169c0 37 -13 46 -77 50v24c52 -5 79 -6 113 -6s62 1 114 6v-24
c-65 -5 -71 -9 -71 -52v-162c-84 -51 -148 -72 -223 -72c-166 0 -272 136 -272 348c0 208 106 341 272 341c63 0 109 -16 158 -57l40 58h18z" />
    <glyph glyph-name="H" unicode="H" horiz-adv-x="678" 
d="M198 363h281v216c0 54 -8 61 -82 67v24c55 -5 82 -7 125 -7c42 0 70 2 124 7v-24c-75 -6 -83 -13 -83 -67v-491c0 -54 8 -61 83 -67v-24c-64 6 -92 8 -124 8s-60 -2 -125 -8v24c74 6 82 13 82 67v244h-281v-244c0 -54 8 -61 83 -67v-24c-66 6 -94 8 -126 8
s-60 -2 -123 -8v24c74 6 82 13 82 67v491c0 54 -8 61 -82 67v24c54 -5 81 -7 123 -7c43 0 71 2 126 7v-24c-75 -6 -83 -13 -83 -67v-216z" />
    <glyph glyph-name="I" unicode="I" horiz-adv-x="314" 
d="M282 21v-24c-66 6 -94 8 -126 8c-31 0 -59 -2 -124 -8v24c74 6 82 13 82 67v491c0 54 -9 61 -82 67v24c55 -5 82 -7 124 -7c43 0 71 2 126 7v-24c-74 -6 -83 -13 -83 -67v-491c0 -54 8 -61 83 -67z" />
    <glyph glyph-name="J" unicode="J" horiz-adv-x="312" 
d="M-6 -69v30c9 -1 11 -1 21 -1c34 0 56 7 73 22c21 19 27 43 27 103v494c0 54 -10 61 -83 67v24c55 -5 83 -7 126 -7c42 0 69 2 124 7v-24c-72 -6 -82 -13 -82 -67v-459c0 -89 -16 -129 -63 -161c-28 -19 -65 -29 -111 -29c-15 0 -19 0 -32 1z" />
    <glyph glyph-name="K" unicode="K" horiz-adv-x="637" 
d="M197 349l227 251c10 11 14 18 14 25c0 14 -12 18 -62 21v24c48 -4 73 -5 102 -5c30 0 55 1 103 5v-24c-60 -3 -83 -14 -120 -53l-172 -190l222 -317c34 -48 57 -62 114 -65v-24c-59 6 -91 8 -130 8c-38 0 -71 -2 -131 -8v24c56 5 69 10 69 27c0 9 0 10 -17 35l-179 267
l-41 -44v-218c0 -53 10 -61 80 -67v-24c-54 6 -82 8 -117 8s-64 -2 -127 -8v24c74 6 83 13 83 67v491c0 54 -10 62 -83 67v24c56 -5 84 -7 127 -7s69 1 120 7v-24c-72 -5 -82 -13 -82 -67v-230z" />
    <glyph glyph-name="L" unicode="L" horiz-adv-x="505" 
d="M496 161l-23 -161h-441v25c73 5 82 13 82 66v488c0 54 -9 61 -82 67v24c55 -5 82 -7 124 -7c43 0 71 2 126 7v-24c-74 -6 -83 -13 -83 -67v-486c0 -48 13 -59 67 -59h71c79 0 110 29 136 127h23z" />
    <glyph glyph-name="M" unicode="M" horiz-adv-x="821" 
d="M169 608l-20 -521v-8v-10c0 -33 17 -43 82 -48v-24c-49 4 -72 5 -98 5c-27 0 -49 -1 -101 -5v24c70 5 80 13 83 66l20 492l1 6c1 7 -4 30 -6 36c-8 14 -31 22 -77 24v25c39 -3 58 -4 82 -4c34 0 55 1 95 5l186 -506l188 506c47 -4 69 -5 96 -5c22 0 40 1 79 4v-24
c-63 -4 -82 -16 -82 -49v-10v-8l10 -492c0 -52 12 -62 83 -66v-24c-56 5 -84 7 -125 7c-43 0 -70 -2 -125 -7v24c27 1 44 4 58 10c15 6 19 11 23 30c2 11 2 17 2 21l-1 5l-8 519l-166 -446c-3 -10 -8 -23 -16 -46c-6 -15 -17 -47 -34 -95h-15l-24 71l-27 74z" />
    <glyph glyph-name="N" unicode="N" horiz-adv-x="673" 
d="M561 -20h-15c-7 11 -15 23 -22 35c-20 30 -32 49 -81 124l-295 444v-495c0 -54 8 -61 83 -67v-24c-58 4 -79 5 -101 5c-24 0 -45 -1 -98 -5v24c75 6 83 13 83 67v528c-18 20 -38 27 -84 30v24c31 -2 50 -3 85 -3c33 0 45 1 72 3l339 -507v416c0 54 -10 61 -82 67v24
c57 -4 78 -5 101 -5c24 0 45 1 98 5v-24c-73 -6 -83 -13 -83 -67v-599z" />
    <glyph glyph-name="O" unicode="O" horiz-adv-x="632" 
d="M315 680c165 0 269 -135 269 -350c0 -207 -105 -342 -266 -342c-165 0 -270 135 -270 347c0 208 106 345 267 345zM318 652c-113 0 -180 -118 -180 -315c0 -202 67 -321 180 -321c112 0 176 115 176 317c0 204 -64 319 -176 319z" />
    <glyph glyph-name="P" unicode="P" horiz-adv-x="545" 
d="M199 301v-213c0 -54 8 -61 83 -67v-24c-66 6 -93 8 -125 8s-60 -2 -125 -8v24c74 6 82 13 82 67v488c0 53 -10 62 -82 66v25h264c70 0 112 -10 148 -36c45 -32 73 -89 73 -149c0 -59 -26 -111 -73 -144c-37 -26 -79 -37 -138 -37h-107zM199 332h80c48 0 80 9 105 30
c30 26 48 71 48 124c0 47 -14 89 -38 115c-23 25 -55 35 -108 35h-87v-304z" />
    <glyph glyph-name="Q" unicode="Q" horiz-adv-x="629" 
d="M644 15v-26h-33c-54 0 -78 11 -133 59c-45 -41 -96 -60 -162 -60c-164 0 -268 134 -268 348c0 208 105 344 266 344c162 0 267 -136 267 -347c0 -85 -16 -154 -51 -219c48 -74 75 -97 114 -99zM316 652c-114 0 -179 -115 -179 -314c0 -205 65 -322 180 -322
c112 0 175 114 175 316c0 205 -63 320 -176 320z" />
    <glyph glyph-name="R" unicode="R" horiz-adv-x="596" 
d="M198 317v-229c0 -54 8 -61 83 -67v-24c-64 6 -92 8 -124 8s-60 -2 -125 -8v24c74 6 82 13 82 67v488c0 53 -10 62 -82 66v25h268c63 0 104 -10 138 -33c46 -30 76 -87 76 -143c0 -60 -34 -117 -85 -143c-22 -11 -44 -18 -79 -25c42 -12 61 -31 86 -86l69 -158
c21 -48 32 -56 81 -58v-24c-30 2 -46 3 -66 3c-19 0 -35 -1 -66 -3c-11 23 -15 33 -27 61l-77 179c-28 64 -50 80 -114 80h-38zM199 348h84c95 0 146 51 146 147c0 92 -48 141 -141 141h-89v-288z" />
    <glyph glyph-name="S" unicode="S" horiz-adv-x="519" 
d="M58 202h23c20 -119 80 -180 177 -180c81 0 138 55 138 132c0 40 -15 72 -44 94c-21 15 -31 22 -96 55c-96 49 -121 64 -145 87c-29 28 -42 63 -42 110c0 106 76 176 190 176c55 0 92 -14 131 -52l30 56h18v-184h-24c-23 102 -70 150 -147 150c-71 0 -126 -54 -126 -123
c0 -39 18 -67 57 -91c23 -14 24 -15 98 -52c64 -33 88 -47 114 -66c40 -30 60 -74 60 -132c0 -114 -81 -191 -199 -191c-63 0 -110 17 -159 58l-36 -64h-18v217z" />
    <glyph glyph-name="T" unicode="T" horiz-adv-x="529" 
d="M305 636v-548c0 -54 8 -61 82 -67v-24c-62 6 -91 8 -124 8c-34 0 -62 -2 -126 -8v24c75 6 83 13 83 67v548h-54c-71 0 -94 -23 -124 -122h-24l27 153h437l28 -153h-24c-27 99 -50 122 -118 122h-63z" />
    <glyph glyph-name="U" unicode="U" horiz-adv-x="665" 
d="M439 646v24c57 -4 78 -5 101 -5c24 0 45 1 98 5v-24c-74 -6 -83 -13 -83 -67v-366c0 -67 -9 -103 -34 -140c-39 -55 -104 -84 -189 -84c-75 0 -136 23 -177 68c-34 37 -47 77 -47 148v374c0 54 -9 61 -82 67v24c55 -5 82 -7 125 -7c42 0 70 2 125 7v-24
c-74 -6 -83 -13 -83 -67v-382c0 -63 8 -91 32 -117c28 -31 72 -47 126 -47c66 0 121 25 147 66c16 26 23 60 23 109v371c0 54 -9 61 -82 67z" />
    <glyph glyph-name="V" unicode="V" horiz-adv-x="641" 
d="M330 -12h-25l-204 594c-18 51 -29 59 -91 64v24c46 -5 72 -7 120 -7c49 0 75 2 121 7v-24c-48 -4 -67 -12 -67 -31c0 -7 0 -9 8 -31l153 -456l155 445c9 25 11 33 11 42c0 20 -17 28 -67 31v24c41 -5 62 -6 90 -6s51 1 97 6v-24c-54 -5 -76 -17 -88 -51z" />
    <glyph glyph-name="W" unicode="W" horiz-adv-x="877" 
d="M281 -12h-20l-162 599c-12 43 -29 56 -81 59v24c45 -5 70 -7 116 -7s71 2 116 7v-24c-51 -5 -67 -12 -67 -32c0 -5 0 -6 6 -28l112 -415l153 511h23l150 -512l114 413c5 16 7 27 7 33c0 20 -16 27 -63 30v24c35 -4 55 -5 87 -5c33 0 53 1 88 5v-24
c-52 -3 -70 -15 -81 -53l-170 -604h-19l-152 539z" />
    <glyph glyph-name="X" unicode="X" horiz-adv-x="621" 
d="M11 -3v24c54 1 80 19 117 76l148 236l-135 252c-23 46 -40 56 -99 61v24c52 -5 82 -7 124 -7c41 0 71 2 123 7v-24c-52 -5 -67 -11 -67 -28c0 -6 5 -19 11 -30l94 -176l105 165c17 28 20 34 20 43c0 17 -15 23 -63 26v24c38 -4 60 -5 97 -5s59 1 97 5v-24
c-58 -5 -76 -15 -101 -52l-137 -216l156 -291c29 -54 42 -62 104 -66v-24c-54 5 -84 7 -127 7c-41 0 -72 -2 -127 -7v24c58 5 69 10 69 29c0 10 -5 22 -18 47l-108 202l-130 -210c-19 -29 -19 -30 -19 -41c0 -19 11 -24 63 -27v-24c-48 4 -72 5 -98 5c-27 0 -50 -1 -99 -5z
" />
    <glyph glyph-name="Y" unicode="Y" horiz-adv-x="592" 
d="M255 291l-149 295c-22 45 -38 55 -93 60v24c52 -5 81 -7 123 -7s71 2 123 7v-24c-54 -4 -70 -10 -70 -28c0 -7 3 -15 10 -30l128 -254l128 255c6 13 9 23 9 30c0 18 -15 23 -68 27v24c42 -4 65 -5 93 -5s50 1 92 5v-24c-56 -6 -70 -15 -91 -54l-150 -301v-203
c0 -54 8 -61 82 -67v-24c-65 6 -93 8 -125 8c-31 0 -59 -2 -125 -8v24c75 6 83 13 83 67v203z" />
    <glyph glyph-name="Z" unicode="Z" horiz-adv-x="538" 
d="M31 0l361 636h-167c-75 0 -105 -27 -129 -117h-25l26 148h407l-361 -636h189c63 0 83 8 110 46c14 20 26 45 40 85h24l-29 -162h-446z" />
    <glyph glyph-name="bracketleft" unicode="[" horiz-adv-x="309" 
d="M281 637h-102v-801h102v-30h-173v861h173v-30z" />
    <glyph glyph-name="backslash" unicode="\" horiz-adv-x="403" 
d="M489 -194h-55l-424 861h55z" />
    <glyph glyph-name="bracketright" unicode="]" horiz-adv-x="309" 
d="M28 -164h102v801h-102v30h173v-861h-173v30z" />
    <glyph glyph-name="asciicircum" unicode="^" horiz-adv-x="500" 
d="M524 287h-34l-210 320l-213 -320h-91l275 413h6z" />
    <glyph glyph-name="underscore" unicode="_" horiz-adv-x="500" 
d="M25 -88h451v-38h-451v38z" />
    <glyph glyph-name="quoteleft" unicode="&#x2018;" horiz-adv-x="238" 
d="M135 671h47c-36 -32 -73 -96 -75 -129h4l5 1c1 1 2 1 3 1c7 1 26 -6 32 -10c11 -9 16 -22 16 -38c0 -30 -22 -51 -55 -51c-35 0 -56 23 -56 62c0 49 29 110 79 164z" />
    <glyph glyph-name="a" unicode="a" horiz-adv-x="466" 
d="M445 26v-26c-23 -5 -40 -7 -55 -7c-48 0 -71 25 -77 85c-36 -64 -71 -87 -135 -87c-82 0 -139 53 -139 129c0 91 93 153 262 174v60c0 71 -24 100 -82 100c-49 0 -84 -24 -84 -59c0 -1 0 -4 1 -8v-16c0 -28 -14 -43 -41 -43c-21 0 -33 12 -33 34c0 64 76 119 164 119
c57 0 108 -23 133 -60c16 -23 22 -53 22 -105v-204c0 -68 9 -89 39 -89c7 0 13 1 25 3zM301 182v86c-125 -22 -181 -66 -181 -143c0 -55 32 -91 83 -91c43 0 75 23 88 63c7 18 10 48 10 85z" />
    <glyph glyph-name="b" unicode="b" horiz-adv-x="509" 
d="M82 -11v586c0 52 -8 59 -71 59v18c49 4 107 14 151 26v-275c37 59 68 78 123 78c109 0 185 -100 185 -245s-78 -245 -190 -245c-60 0 -101 27 -130 87l-43 -89h-25zM276 453c-75 0 -115 -76 -115 -220c0 -143 37 -214 111 -214c75 0 114 74 114 219s-36 215 -110 215z
" />
    <glyph glyph-name="c" unicode="c" horiz-adv-x="436" 
d="M385 493v-165h-22c-8 35 -13 51 -24 71c-19 36 -54 58 -92 58c-75 0 -119 -82 -119 -224c0 -139 40 -211 116 -211c62 0 99 44 111 132h40c-12 -107 -69 -165 -159 -165c-116 0 -195 99 -195 244c0 149 81 251 198 251c43 0 70 -11 102 -42l26 51h18z" />
    <glyph glyph-name="d" unicode="d" horiz-adv-x="512" 
d="M495 33v-17c-70 -9 -91 -13 -132 -26c-9 37 -10 43 -13 80c-30 -57 -67 -82 -124 -82c-109 0 -186 102 -186 245s76 245 183 245c53 0 81 -18 119 -78v175c0 52 -8 59 -70 59v18c49 4 107 14 150 26v-577c0 -60 7 -66 73 -68zM232 450c-72 0 -108 -73 -108 -216
c0 -142 39 -218 111 -218c71 0 108 72 108 209c0 149 -38 225 -111 225z" />
    <glyph glyph-name="e" unicode="e" horiz-adv-x="458" 
d="M380 154h39c-12 -103 -78 -164 -178 -164c-123 0 -201 95 -201 247c0 147 79 245 196 245c113 0 179 -85 182 -235h-297c2 -74 7 -110 19 -143c21 -53 59 -81 113 -81c69 0 114 47 127 131zM123 283h215c-5 117 -38 173 -103 173s-102 -58 -112 -173z" />
    <glyph glyph-name="f" unicode="f" horiz-adv-x="296" 
d="M180 472h114v-37h-114v-364c0 -43 10 -51 71 -54v-20c-52 5 -77 6 -111 6c-33 0 -59 -1 -112 -6v20c61 3 72 11 72 54v364h-69v31c65 2 74 9 75 63c3 57 10 81 28 105c24 29 64 47 109 47c57 0 98 -31 98 -75c0 -23 -14 -37 -37 -37c-21 0 -38 14 -36 30c1 8 2 15 2 19
l1 8c0 17 -13 30 -31 30c-22 0 -44 -17 -53 -42c-5 -14 -7 -38 -7 -75v-67z" />
    <glyph glyph-name="g" unicode="g" horiz-adv-x="492" 
d="M345 455h133v-40l-96 3c17 -27 25 -53 25 -84c0 -52 -25 -97 -69 -125c-22 -13 -42 -21 -104 -36c-84 -21 -102 -30 -102 -51c0 -9 6 -18 16 -23c9 -4 25 -7 75 -10c89 -6 120 -11 155 -25c47 -19 78 -61 78 -109c0 -91 -88 -153 -217 -153c-127 0 -209 54 -209 138
c0 52 29 84 96 107c-38 17 -53 33 -53 58c0 38 35 64 108 82c-74 22 -115 73 -115 144c0 93 67 150 176 150c42 0 71 -7 103 -26zM238 456c-60 0 -96 -46 -96 -124c0 -80 35 -126 95 -126c58 0 94 48 94 127c0 78 -33 123 -93 123zM225 17c-98 0 -154 -31 -154 -85
c0 -58 69 -99 165 -99c98 0 158 37 158 97c0 57 -58 87 -169 87z" />
    <glyph glyph-name="h" unicode="h" horiz-adv-x="540" 
d="M23 634v18c49 4 106 14 151 26v-264c32 45 74 67 127 67s99 -24 124 -65c15 -24 22 -59 22 -105v-240c0 -43 10 -51 72 -54v-20c-51 5 -76 6 -110 6c-33 0 -59 -1 -108 -6v20c53 2 66 12 66 52v245c0 45 -4 68 -16 87c-15 22 -41 35 -73 35c-34 0 -66 -16 -85 -43
c-14 -19 -19 -41 -19 -83v-241c0 -40 13 -50 65 -52v-20c-50 5 -75 6 -108 6s-58 -1 -109 -6v20c62 3 72 11 72 54v504c0 52 -8 59 -71 59z" />
    <glyph glyph-name="i" unicode="i" horiz-adv-x="279" 
d="M182 489v-418c0 -43 10 -51 71 -54v-20c-53 5 -79 6 -111 6s-58 -1 -112 -6v20c62 3 72 11 72 54v316c0 52 -7 58 -71 59v17c52 4 106 14 151 26zM138 667c19 0 28 -3 38 -14c9 -11 17 -28 17 -40c0 -29 -26 -55 -56 -55c-29 0 -53 25 -53 55c0 15 6 29 16 40
s18 14 38 14z" />
    <glyph glyph-name="j" unicode="j" horiz-adv-x="271" 
d="M179 489v-476c0 -87 -20 -139 -67 -176c-34 -26 -79 -39 -132 -40v26c35 6 56 14 78 31c30 25 41 55 41 118v415c0 52 -7 58 -71 59v17c52 4 106 14 151 26zM134 667c20 0 29 -3 39 -14c9 -11 17 -29 17 -40c0 -29 -27 -55 -56 -55s-53 25 -53 55c0 15 6 30 16 40
c10 11 18 14 37 14z" />
    <glyph glyph-name="k" unicode="k" horiz-adv-x="534" 
d="M173 232l161 171c12 12 16 20 16 28c0 15 -15 22 -54 24v20c40 -4 63 -5 94 -5s55 1 99 5v-20c-51 -4 -66 -12 -100 -47l-96 -101l141 -236c26 -43 41 -52 90 -54v-20c-41 3 -52 4 -68 4c-17 0 -27 -1 -66 -4l-148 262l-70 -72v-116c0 -43 11 -51 72 -54v-20
c-53 5 -78 6 -111 6s-59 -1 -111 -6v20c62 3 72 11 72 54v504c0 52 -8 59 -71 59v18c54 5 101 13 150 26v-446z" />
    <glyph glyph-name="l" unicode="l" horiz-adv-x="273" 
d="M180 678v-607c0 -43 10 -51 71 -54v-20c-53 5 -79 6 -111 6s-58 -1 -112 -6v20c62 3 72 11 72 54v505c0 51 -8 58 -71 58v18c50 4 105 14 151 26z" />
    <glyph glyph-name="m" unicode="m" horiz-adv-x="797" 
d="M30 442v18c58 8 100 17 133 30c4 -21 9 -60 9 -85c38 55 76 76 134 76c61 0 99 -24 123 -78c37 57 74 78 136 78c57 0 101 -23 121 -62c10 -21 16 -54 16 -95v-253c0 -43 10 -51 73 -54v-20c-52 5 -77 6 -110 6c-34 0 -59 -1 -108 -6v20c52 2 65 12 65 52v257
c0 80 -22 109 -81 109c-66 0 -99 -40 -99 -118v-248c0 -40 13 -50 65 -52v-20c-51 5 -75 6 -105 6c-29 0 -54 -1 -106 -6v20c53 2 66 12 66 52v256c0 79 -23 110 -80 110c-36 0 -69 -17 -85 -46c-12 -19 -16 -42 -16 -83v-237c0 -40 13 -50 66 -52v-20c-50 5 -75 6 -109 6
c-33 0 -58 -1 -109 -6v20c62 3 72 11 72 54v309c0 61 0 61 -71 62z" />
    <glyph glyph-name="n" unicode="n" horiz-adv-x="548" 
d="M31 442v18c56 8 99 17 132 30c5 -17 9 -50 11 -87c36 54 77 78 135 78c53 0 99 -24 124 -65c15 -24 22 -58 22 -105v-240c0 -43 10 -51 72 -54v-20c-51 5 -76 6 -110 6c-33 0 -59 -1 -108 -6v20c53 2 66 12 66 52v245c0 46 -4 68 -16 87c-15 22 -41 35 -73 35
c-34 0 -66 -16 -85 -43c-14 -19 -19 -41 -19 -83v-241c0 -40 13 -50 65 -52v-20c-49 5 -75 6 -108 6s-58 -1 -109 -6v20c62 3 72 11 72 54v309c0 57 -4 61 -58 62h-13z" />
    <glyph glyph-name="o" unicode="o" horiz-adv-x="469" 
d="M239 484c114 0 191 -101 191 -250c0 -141 -83 -245 -196 -245c-114 0 -194 101 -194 246c0 147 82 249 199 249zM237 458c-74 0 -113 -78 -113 -222c0 -147 37 -221 110 -221c72 0 112 77 112 218c0 149 -37 225 -109 225z" />
    <glyph glyph-name="p" unicode="p" horiz-adv-x="521" 
d="M22 447v18c61 5 85 8 131 18c7 -25 10 -40 13 -84c32 57 70 82 127 82c110 0 189 -102 189 -245c0 -144 -77 -245 -186 -245c-55 0 -85 19 -122 78v-195c0 -44 10 -51 71 -54v-20c-55 5 -80 6 -111 6s-56 -1 -112 -6v20c62 3 72 10 72 54v513c0 48 -10 58 -58 60h-14z
M284 453c-73 0 -111 -71 -111 -209c0 -149 38 -225 115 -225c73 0 110 72 110 215s-40 219 -114 219z" />
    <glyph glyph-name="q" unicode="q" horiz-adv-x="521" 
d="M499 465v-18h-13c-48 -2 -59 -13 -59 -60v-513c0 -44 10 -51 72 -54v-20c-54 5 -80 6 -111 6s-56 -1 -111 -6v20c61 3 71 10 71 54v195c-37 -59 -67 -78 -122 -78c-109 0 -186 101 -186 245c0 143 79 245 189 245c58 0 97 -25 127 -82c3 41 6 60 13 84
c47 -10 65 -13 130 -18zM238 453c-74 0 -114 -76 -114 -219s37 -215 111 -215c75 0 114 76 114 221c0 142 -37 213 -111 213z" />
    <glyph glyph-name="r" unicode="r" horiz-adv-x="379" 
d="M30 447v17c53 5 96 13 132 24c6 -39 8 -55 9 -95c23 58 65 91 116 91s87 -34 87 -81c0 -29 -16 -48 -41 -48c-24 0 -41 14 -41 33c0 6 0 6 3 21c1 3 1 6 1 9c0 14 -13 24 -30 24c-52 0 -85 -63 -85 -162v-209c0 -43 10 -51 71 -54v-20c-52 5 -77 6 -111 6s-60 -1 -112 -6
v20c61 3 72 11 72 54v311c0 62 -1 64 -71 65z" />
    <glyph glyph-name="s" unicode="s" horiz-adv-x="426" 
d="M53 -12v167h22c6 -32 12 -49 22 -70c20 -39 62 -64 108 -64c58 0 103 39 103 90c0 31 -15 51 -56 72c-1 1 -33 16 -97 45c-73 34 -95 62 -95 120c0 79 61 133 150 133c38 0 66 -9 102 -32l17 41h17v-155h-22c-9 80 -43 118 -105 118c-54 0 -94 -36 -94 -83
c0 -32 13 -49 56 -70c14 -7 21 -11 92 -41c75 -33 102 -66 102 -125c0 -83 -66 -143 -160 -143c-46 0 -83 13 -121 41l-24 -44h-17z" />
    <glyph glyph-name="t" unicode="t" horiz-adv-x="309" 
d="M297 51v-29c-35 -22 -64 -31 -98 -31c-48 0 -85 22 -100 60c-7 18 -11 46 -11 86v18l5 280h-65v31c63 2 101 49 120 149h25v-143h116v-37h-117v-291c0 -44 3 -68 10 -83c9 -20 26 -31 50 -31c18 0 36 6 65 21z" />
    <glyph glyph-name="u" unicode="u" horiz-adv-x="538" 
d="M16 446v17c51 4 103 13 151 26v-333c0 -86 25 -119 90 -119c70 0 103 42 103 133v217c0 52 -7 58 -70 59v17c50 4 103 14 150 26v-406c0 -45 5 -48 74 -49v-18c-55 -5 -100 -14 -138 -26c-2 18 -5 49 -6 91c-33 -64 -72 -89 -136 -89c-54 0 -98 21 -123 59
c-17 24 -24 57 -24 106v230c0 52 -7 58 -71 59z" />
    <glyph glyph-name="v" unicode="v" horiz-adv-x="485" 
d="M256 -12h-27c-10 26 -22 61 -39 105l-116 317c-14 36 -25 43 -75 45v20c64 -5 86 -6 107 -6c24 0 44 1 102 6v-20c-42 -2 -54 -7 -54 -23c0 -5 1 -8 6 -23l106 -304l110 301c8 22 8 22 8 29c0 14 -9 17 -50 20v20c44 -3 58 -4 77 -4s32 1 74 4v-20
c-47 -2 -60 -11 -74 -49l-115 -310c-3 -9 -6 -17 -10 -25c-11 -31 -12 -32 -19 -51c-4 -10 -7 -21 -11 -32z" />
    <glyph glyph-name="w" unicode="w" horiz-adv-x="708" 
d="M357 360l-96 -284l-28 -88h-27c-21 71 -23 79 -27 93l-101 323c-14 42 -23 49 -70 51v20c46 -4 71 -5 102 -5c30 0 55 1 101 5v-20c-42 -2 -57 -8 -57 -23c0 -6 0 -6 6 -24l85 -286l121 363h28l117 -365l87 287c4 14 5 17 5 25c0 17 -10 21 -54 23v20c40 -3 59 -4 81 -4
c23 0 40 1 73 4v-20c-44 -2 -61 -13 -73 -48l-102 -325c-10 -36 -20 -67 -27 -94h-27c-13 43 -22 72 -27 86z" />
    <glyph glyph-name="x" unicode="x" horiz-adv-x="510" 
d="M219 233l-104 180c-18 31 -37 41 -81 42v20c46 -4 72 -5 105 -5c34 0 59 1 103 5v-20c-32 -2 -46 -7 -46 -20c0 -5 2 -10 10 -24l63 -110l76 107c10 14 13 20 13 27c0 14 -13 19 -50 20v20c39 -3 58 -4 81 -4s42 1 81 4v-20c-47 -3 -62 -11 -85 -43l-99 -138l119 -205
c25 -43 39 -51 90 -52v-20c-56 5 -81 6 -110 6s-55 -1 -109 -6v20c38 2 52 7 52 21c0 6 -2 12 -11 26l-81 141l-93 -132c-14 -20 -15 -23 -16 -33c-1 -16 11 -21 53 -23v-20c-39 3 -59 4 -82 4c-24 0 -44 -1 -82 -4v20c45 3 62 13 93 58z" />
    <glyph glyph-name="y" unicode="y" horiz-adv-x="499" 
d="M233 16l-147 392c-14 37 -27 44 -76 47v20c45 -4 70 -5 102 -5s57 1 102 5v-20c-39 -3 -52 -8 -52 -21c0 -5 2 -14 7 -27l105 -289l110 286c7 19 8 21 8 28c0 16 -14 22 -57 23v20c30 -3 47 -4 74 -4s47 1 86 4v-20c-45 -5 -64 -17 -76 -49l-189 -489
c-17 -43 -42 -79 -68 -94c-17 -10 -58 -20 -77 -19c-8 1 -8 1 -14 1v50h10c60 0 96 26 121 87z" />
    <glyph glyph-name="z" unicode="z" horiz-adv-x="447" 
d="M34 0l271 446h-111c-65 0 -81 -14 -116 -104h-21l23 130h332l-272 -446h117c52 0 70 9 95 48c12 21 21 40 31 70h21l-26 -144h-344z" />
    <glyph glyph-name="braceleft" unicode="{" horiz-adv-x="309" 
d="M258 -211h-20c-87 0 -118 29 -118 113v263c0 47 -14 66 -62 83c49 17 62 35 62 83v240c0 83 30 112 118 112h20c-47 -12 -67 -38 -67 -89v-244c0 -57 -12 -77 -62 -102c50 -26 62 -46 62 -102v-268c0 -51 20 -77 67 -89z" />
    <glyph glyph-name="bar" unicode="|" horiz-adv-x="500" 
d="M226 667h47v-834h-47v834z" />
    <glyph glyph-name="braceright" unicode="}" horiz-adv-x="309" 
d="M51 683h20c88 0 118 -29 118 -112v-240c0 -48 14 -67 62 -83c-47 -16 -62 -36 -62 -83v-263c0 -84 -31 -113 -118 -113h-20c47 12 67 38 67 89v268c0 56 12 76 62 102c-50 25 -62 45 -62 102v244c0 51 -20 77 -67 89z" />
    <glyph glyph-name="asciitilde" unicode="~" horiz-adv-x="667" 
d="M532 367l13 -9c-32 -55 -88 -93 -136 -93c-19 0 -30 2 -64 14c-69 23 -91 28 -118 28c-36 0 -52 -10 -93 -59l-13 8c38 61 88 95 139 95c22 0 41 -5 91 -22c43 -14 59 -18 80 -18c38 0 70 18 101 56z" />
    <glyph glyph-name="exclamdown" unicode="&#xa1;" horiz-adv-x="248" 
d="M149 272l17 -454h-84l17 454h50zM124 481c32 0 59 -26 59 -59s-26 -59 -60 -59c-32 0 -58 27 -58 59c0 33 26 59 59 59z" />
    <glyph glyph-name="cent" unicode="&#xa2;" horiz-adv-x="523" 
d="M299 550v-428c52 9 86 55 95 129h38c-8 -89 -58 -150 -133 -161v-78h-31v76c-112 9 -185 105 -185 245c0 139 72 234 185 244v77h31v-78c32 -3 56 -16 80 -40l27 50h17v-163h-22c-14 77 -48 119 -102 127zM268 122v427c-68 -13 -101 -83 -101 -212
c0 -137 31 -204 101 -215z" />
    <glyph glyph-name="sterling" unicode="&#xa3;" horiz-adv-x="523" 
d="M210 361h127v-37h-132l-15 -114c-10 -74 -32 -129 -72 -177c49 24 71 30 106 30c18 0 28 -2 65 -10c26 -5 38 -7 58 -7c49 0 76 30 88 99h35c-14 -109 -52 -145 -157 -145h-259c29 35 41 74 53 169l19 155h-72v37h77l10 82c18 152 89 235 200 235c73 0 114 -41 123 -125
h-40c-8 64 -31 90 -79 90c-42 0 -77 -25 -98 -69c-10 -22 -18 -57 -24 -109z" />
    <glyph glyph-name="fraction" unicode="&#x2044;" horiz-adv-x="52" 
d="M-187 0l383 652h42l-383 -652h-42z" />
    <glyph glyph-name="yen" unicode="&#xa5;" horiz-adv-x="523" 
d="M207 327l-30 75h-124v37h109l-58 147c-17 42 -37 57 -84 60v24c53 -5 80 -7 112 -7c35 0 61 2 113 7v-24c-47 -5 -62 -12 -62 -28c0 -7 2 -14 8 -30l98 -251l100 252c6 14 9 26 9 31c0 16 -14 23 -60 26v24c43 -4 62 -5 84 -5c21 0 40 1 84 5v-24c-50 -6 -67 -17 -82 -54
l-61 -153h105v-37h-120l-29 -75h149v-37h-164v-202c0 -54 9 -61 82 -67v-24c-65 6 -93 8 -125 8c-31 0 -59 -2 -125 -8v24c74 6 83 13 83 67v202h-166v37h154z" />
    <glyph glyph-name="florin" unicode="&#x192;" horiz-adv-x="523" 
d="M431 472l-1 -37h-108l-57 -321c-17 -93 -34 -149 -57 -182c-29 -40 -67 -59 -116 -59c-60 0 -101 32 -101 78c0 27 16 45 41 45c21 0 34 -11 34 -29c0 -8 -1 -11 -4 -21c-3 -9 -4 -13 -4 -18c0 -15 12 -24 32 -24c43 0 64 36 82 137l70 394h-70l2 32h15c53 0 58 5 71 62
c16 71 21 86 37 111c26 44 73 68 129 68s92 -29 92 -73c0 -30 -14 -46 -38 -46c-22 0 -37 12 -37 30c0 4 1 9 6 28c1 3 2 7 2 10c0 12 -11 20 -28 20c-39 0 -64 -32 -76 -98l-19 -107h103z" />
    <glyph glyph-name="section" unicode="&#xa7;" horiz-adv-x="523" 
d="M77 14h36c11 -81 56 -121 135 -121c67 0 116 42 116 100c0 38 -20 64 -71 94l-139 81c-55 33 -79 69 -79 122c0 64 30 96 111 118c-74 48 -93 75 -93 127c0 84 69 143 166 143c104 0 170 -60 174 -160h-35c-7 75 -51 118 -124 118c-64 0 -110 -37 -110 -87
c0 -38 19 -61 78 -95l119 -68c62 -35 86 -69 86 -124c0 -60 -29 -98 -99 -129c65 -42 88 -75 88 -128c0 -88 -76 -152 -180 -152s-172 61 -179 161zM331 324l-108 63c-68 -15 -94 -38 -94 -81c0 -33 16 -54 60 -80l129 -76c55 24 76 50 76 92c0 35 -15 55 -63 82z" />
    <glyph glyph-name="currency" unicode="&#xa4;" horiz-adv-x="667" 
d="M62 112l91 94c-35 44 -51 90 -51 143s15 94 52 142l-95 93l36 36l93 -93c49 37 91 52 145 52s97 -15 144 -52l94 92l35 -35l-93 -93c37 -49 52 -91 52 -143c0 -53 -15 -94 -51 -142l94 -94l-36 -35l-94 93c-45 -35 -92 -52 -143 -52s-94 16 -145 52l-93 -93zM336 523
c-99 0 -176 -77 -176 -175c0 -95 79 -174 173 -174c95 0 174 79 174 174c0 96 -78 175 -171 175z" />
    <glyph glyph-name="quotesingle" unicode="'" horiz-adv-x="238" 
d="M146 399h-54l-11 268h76z" />
    <glyph glyph-name="quotedblleft" unicode="&#x201c;" horiz-adv-x="390" 
d="M286 671h48c-36 -31 -73 -96 -75 -129h4l5 1c1 1 2 1 2 1c8 1 27 -6 33 -10c10 -9 16 -22 16 -38c0 -30 -22 -51 -55 -51c-35 0 -56 23 -56 62c0 49 29 109 78 164zM135 671h47c-36 -32 -73 -96 -75 -129h4l5 1c1 1 2 1 3 1c7 1 26 -6 32 -10c11 -9 16 -22 16 -38
c0 -30 -22 -51 -55 -51c-35 0 -56 23 -56 62c0 49 29 110 79 164z" />
    <glyph glyph-name="guillemotleft" unicode="&#xab;" horiz-adv-x="399" 
d="M175 472h30l-83 -233l83 -239h-30l-121 239zM311 472h29l-82 -233l82 -239h-29l-121 239z" />
    <glyph glyph-name="guilsinglleft" unicode="&#x2039;" horiz-adv-x="263" 
d="M175 472h33l-83 -233l83 -239h-33l-121 239z" />
    <glyph glyph-name="guilsinglright" unicode="&#x203a;" horiz-adv-x="266" 
d="M91 472l121 -233l-121 -239h-33l83 239l-83 233h33z" />
    <glyph glyph-name="endash" unicode="&#x2013;" horiz-adv-x="523" 
d="M84 246v43h355v-43h-355z" />
    <glyph glyph-name="dagger" unicode="&#x2020;" horiz-adv-x="523" 
d="M226 -119l6 536l-162 -10v69l162 -10l-6 184h72l-6 -184l162 10v-69l-162 10l6 -536h-72z" />
    <glyph glyph-name="daggerdbl" unicode="&#x2021;" horiz-adv-x="523" 
d="M232 429l-160 -10v68l160 -10l-7 173h72l-7 -173l160 10v-68l-160 10v-319l160 10v-68l-160 10l7 -181h-72l7 181l-160 -10v68l160 -10v319z" />
    <glyph glyph-name="periodcentered" unicode="&#xb7;" 
d="M116 302c30 0 56 -27 56 -57c0 -32 -25 -57 -57 -57s-57 25 -57 56c0 32 26 58 58 58z" />
    <glyph glyph-name="paragraph" unicode="&#xb6;" horiz-adv-x="523" 
d="M491 667v-24c-72 -5 -82 -13 -82 -66v-624c0 -54 9 -61 82 -66v-25c-72 6 -113 8 -183 8s-111 -2 -183 -8v25c73 5 82 12 82 66v374c-106 15 -160 74 -160 175c0 68 27 118 78 143c32 16 73 22 142 22h224zM355 -33v602c0 58 -6 67 -45 67c-41 0 -49 -10 -49 -67v-603
c0 -55 9 -67 49 -67c38 0 45 10 45 68z" />
    <glyph glyph-name="bullet" unicode="&#x2022;" horiz-adv-x="667" 
d="M336 477c40 0 70 -12 94 -38c26 -28 43 -67 43 -99c0 -75 -65 -140 -139 -140c-76 0 -138 63 -138 140c0 37 15 73 41 99c28 28 54 38 99 38z" />
    <glyph glyph-name="quotesinglbase" unicode="&#x201a;" horiz-adv-x="238" 
d="M104 -134h-48c39 37 73 96 75 130h-4l-7 -2c-27 -1 -49 20 -49 47c0 31 23 52 55 52c36 0 56 -23 56 -62c0 -50 -24 -101 -78 -165z" />
    <glyph glyph-name="quotedblbase" unicode="&#x201e;" horiz-adv-x="390" 
d="M104 -134h-48c39 37 73 96 75 130h-4l-7 -2c-27 -1 -49 20 -49 47c0 31 23 52 55 52c36 0 56 -23 56 -62c0 -50 -24 -101 -78 -165zM256 -134h-48c39 37 73 96 75 130h-4l-5 -2h-2c-27 -1 -49 20 -49 47c0 31 22 52 55 52c35 0 56 -23 56 -62c0 -49 -24 -101 -78 -165z
" />
    <glyph glyph-name="quotedblright" unicode="&#x201d;" horiz-adv-x="390" 
d="M104 451h-48c39 37 73 96 75 129h-4c-4 -1 -6 -1 -8 -1c-28 0 -48 20 -48 47c0 30 23 52 55 52c35 0 56 -23 56 -63c0 -49 -24 -100 -78 -164zM256 451h-48c39 38 73 96 75 129h-4c-4 -1 -6 -1 -8 -1c-28 0 -48 19 -48 47c0 31 23 52 55 52c35 0 56 -23 56 -62
c0 -49 -25 -101 -78 -165z" />
    <glyph glyph-name="guillemotright" unicode="&#xbb;" horiz-adv-x="399" 
d="M223 472l121 -233l-121 -239h-29l82 239l-82 233h29zM87 472l122 -233l-122 -239h-29l83 239l-83 233h29z" />
    <glyph glyph-name="ellipsis" unicode="&#x2026;" horiz-adv-x="689" 
d="M116 105c30 0 56 -26 56 -57s-26 -57 -57 -57s-57 26 -57 57c0 32 26 57 58 57zM345 105c31 0 57 -26 57 -57s-26 -57 -57 -57c-32 0 -57 25 -57 57s25 57 57 57zM575 105c31 0 56 -25 56 -57s-25 -57 -57 -57c-31 0 -57 26 -57 57s26 57 58 57z" />
    <glyph glyph-name="perthousand" unicode="&#x2030;" horiz-adv-x="916" 
d="M166 673c75 0 128 -65 128 -159s-54 -161 -131 -161c-78 0 -131 65 -131 161c0 92 56 159 134 159zM165 649c-47 0 -73 -49 -73 -135c0 -91 24 -137 71 -137s71 46 71 136c0 91 -23 136 -69 136zM87 0l391 667h42l-391 -667h-42zM446 314c76 0 129 -66 129 -159
s-55 -161 -131 -161c-78 0 -132 66 -132 161c0 92 57 159 134 159zM445 290c-46 0 -73 -50 -73 -135c0 -89 25 -137 71 -137c47 0 72 48 72 137c0 88 -24 135 -70 135zM755 314c75 0 129 -67 129 -159c0 -93 -56 -161 -131 -161c-79 0 -132 66 -132 161c0 92 57 159 134 159
zM754 290c-47 0 -73 -49 -73 -135c0 -91 24 -137 71 -137s72 48 72 136s-25 136 -70 136z" />
    <glyph glyph-name="questiondown" unicode="&#xbf;" horiz-adv-x="383" 
d="M200 281h43c3 -25 4 -38 4 -52c0 -34 -7 -65 -20 -90c-13 -24 -15 -25 -65 -76c-42 -42 -57 -71 -57 -107c0 -54 35 -87 90 -87c70 0 114 43 122 118h27c0 -40 -4 -61 -16 -86c-25 -56 -85 -90 -157 -90c-88 0 -148 58 -148 144c0 60 21 95 94 153c64 50 85 88 85 151
c0 2 0 5 -1 9zM213 481c32 0 59 -27 59 -59c0 -33 -26 -59 -60 -59c-32 0 -58 26 -58 59s26 59 59 59z" />
    <glyph glyph-name="grave" unicode="`" horiz-adv-x="500" 
d="M311 551h-45l-164 147h111z" />
    <glyph glyph-name="acute" unicode="&#xb4;" horiz-adv-x="500" 
d="M216 551l98 147h111l-164 -147h-45z" />
    <glyph glyph-name="circumflex" unicode="&#x2c6;" horiz-adv-x="500" 
d="M95 552l131 146h49l131 -146h-48l-108 86l-107 -86h-48z" />
    <glyph glyph-name="tilde" unicode="&#x2dc;" horiz-adv-x="500" 
d="M123 577l-28 8c21 73 44 98 93 98c29 0 37 -4 89 -42c16 -11 29 -16 44 -16c29 0 44 14 57 52l28 -6c-8 -41 -16 -59 -35 -77c-18 -17 -38 -26 -60 -26c-25 0 -42 8 -82 38c-20 15 -32 20 -49 20c-27 0 -43 -14 -57 -49z" />
    <glyph glyph-name="macron" unicode="&#xaf;" horiz-adv-x="500" 
d="M97 603v51h305v-51h-305z" />
    <glyph glyph-name="breve" unicode="&#x2d8;" horiz-adv-x="500" 
d="M351 697h34c-10 -90 -61 -144 -135 -144s-126 55 -136 144h34c20 -54 55 -82 102 -82c46 0 81 28 101 82z" />
    <glyph glyph-name="dotaccent" unicode="&#x2d9;" horiz-adv-x="500" 
d="M250 677c19 0 30 -4 40 -15c10 -12 18 -29 18 -41c0 -30 -29 -59 -58 -59c-31 0 -57 27 -57 58c0 34 23 57 57 57z" />
    <glyph glyph-name="dieresis" unicode="&#xa8;" horiz-adv-x="500" 
d="M159 673c18 0 27 -4 37 -14c10 -11 17 -27 17 -38c0 -28 -27 -55 -54 -55c-29 0 -53 25 -53 54c0 32 21 53 53 53zM342 673c30 0 53 -23 53 -52s-26 -55 -54 -55s-53 26 -53 54c0 31 22 53 54 53z" />
    <glyph glyph-name="ring" unicode="&#x2da;" horiz-adv-x="500" 
d="M251 715c45 0 82 -37 82 -84s-36 -83 -83 -83s-84 37 -84 83c0 47 37 84 85 84zM250 680c-27 0 -49 -21 -49 -49c0 -27 22 -48 49 -48s48 21 48 48s-21 49 -48 49z" />
    <glyph glyph-name="cedilla" unicode="&#xb8;" horiz-adv-x="500" 
d="M244 0h43l-31 -59c29 -3 41 -6 54 -14c20 -11 31 -31 31 -53c0 -45 -37 -75 -92 -75c-26 0 -46 4 -75 16v30c27 -7 37 -9 52 -9c30 0 51 17 51 43c0 28 -23 41 -76 43z" />
    <glyph glyph-name="hungarumlaut" unicode="&#x2dd;" horiz-adv-x="500" 
d="M165 551l85 147h86l-131 -147h-40zM303 551l86 147h86l-132 -147h-40z" />
    <glyph glyph-name="ogonek" unicode="&#x2db;" horiz-adv-x="500" 
d="M306 11l30 -7c-57 -23 -86 -50 -86 -80c0 -26 22 -44 54 -44c14 0 17 0 33 5v-31c-25 -9 -41 -12 -61 -12c-52 0 -91 31 -91 74s37 72 121 95z" />
    <glyph glyph-name="caron" unicode="&#x2c7;" horiz-adv-x="500" 
d="M406 696l-131 -145h-49l-131 145h48l107 -86l108 86h48z" />
    <glyph glyph-name="emdash" unicode="&#x2014;" horiz-adv-x="587" 
d="M0 246v43h587v-43h-587z" />
    <glyph glyph-name="AE" unicode="&#xc6;" horiz-adv-x="896" 
d="M823 667l18 -150h-23c-25 95 -48 119 -118 119h-144v-274h143c44 0 55 15 58 82h25v-196h-25c-2 66 -16 83 -63 83h-138v-241c0 -48 13 -59 67 -59h70c58 0 82 11 105 50c13 22 22 46 31 80h23l-23 -161h-441v25c74 5 83 13 83 66v135h-236l-83 -149
c-8 -13 -11 -22 -11 -30c0 -18 15 -23 69 -25v-25c-63 4 -79 5 -100 5s-37 -1 -100 -5v25c60 3 79 16 111 72l330 573h372zM253 257h218v381z" />
    <glyph glyph-name="ordfeminine" unicode="&#xaa;" horiz-adv-x="349" 
d="M311 401v-23c-16 -3 -31 -5 -38 -5c-30 0 -44 13 -51 46c-21 -33 -45 -47 -83 -47c-53 0 -91 34 -91 82c0 58 57 96 165 111v33c0 23 -3 34 -9 43c-8 9 -25 16 -40 16c-24 0 -50 -16 -49 -29l1 -5l-1 -5l1 -10c1 -17 -11 -29 -29 -29c-16 0 -24 8 -24 24
c0 41 49 77 106 77c35 0 71 -16 87 -39c10 -14 14 -34 14 -66v-125c0 -39 5 -52 21 -52c4 0 6 0 20 3zM213 492v50c-74 -13 -107 -39 -107 -84c0 -33 18 -53 49 -53c40 0 58 26 58 87zM36 319h288v-38h-288v38z" />
    <glyph glyph-name="Lslash" unicode="&#x141;" horiz-adv-x="505" 
d="M114 296l-82 -50v42l82 50v241c0 54 -9 61 -82 67v24c55 -5 82 -7 124 -7c43 0 71 2 126 7v-24c-74 -6 -83 -13 -83 -67v-202l141 82v-42l-141 -82v-242c0 -48 13 -59 67 -59h71c79 0 110 29 136 127h23l-23 -161h-441v25c73 5 82 13 82 66v205z" />
    <glyph glyph-name="Oslash" unicode="&#xd8;" horiz-adv-x="632" 
d="M567 667h45l-83 -102c37 -61 55 -133 55 -224c0 -214 -105 -353 -267 -353c-77 0 -143 29 -191 83l-58 -71h-46l83 101c-39 63 -57 136 -57 226c0 212 107 353 269 353c74 0 143 -31 190 -85zM155 159l310 388c-32 69 -82 105 -144 105c-117 0 -187 -125 -187 -333
c0 -62 6 -106 21 -160zM478 508l-309 -388c30 -69 79 -104 145 -104c117 0 184 123 184 336c0 63 -5 106 -20 156z" />
    <glyph glyph-name="OE" unicode="&#x152;" horiz-adv-x="919" 
d="M495 566v101h352l18 -150h-23c-24 94 -48 119 -118 119h-153v-274h152c44 0 55 15 58 82h25v-196h-25c-3 66 -16 83 -64 83h-146v-241c0 -48 14 -59 73 -59h73c79 0 109 29 136 130h23l-23 -161h-358v101c-43 -76 -103 -112 -183 -112c-158 0 -264 139 -264 347
c0 203 106 342 261 342c80 0 144 -38 186 -112zM317 650c-114 0 -180 -115 -180 -315c0 -201 67 -318 182 -318c111 0 176 115 176 314c0 205 -64 319 -178 319z" />
    <glyph glyph-name="ordmasculine" unicode="&#xba;" horiz-adv-x="349" 
d="M177 680c73 0 124 -63 124 -155c0 -89 -53 -153 -126 -153c-75 0 -126 62 -126 153s53 155 128 155zM176 658c-44 0 -67 -45 -67 -133c0 -89 21 -131 65 -131s67 45 67 130c0 89 -22 134 -65 134zM31 319h288v-38h-288v38z" />
    <glyph glyph-name="ae" unicode="&#xe6;" horiz-adv-x="719" 
d="M640 154h40c-12 -103 -79 -163 -182 -163c-81 0 -139 37 -176 112c-26 -76 -71 -112 -143 -112c-81 0 -140 53 -140 127c0 92 84 144 262 163v73c0 70 -25 100 -83 100c-46 0 -84 -25 -84 -54c0 -2 0 -6 1 -10l1 -19c0 -28 -14 -43 -41 -43c-21 0 -33 12 -33 33
c0 64 76 120 162 120c58 0 108 -23 133 -60c36 38 86 60 139 60c59 0 116 -30 143 -75c26 -43 37 -86 40 -161h-299c0 -72 6 -111 19 -143c21 -52 59 -78 113 -78c70 0 115 46 128 130zM301 182v68c-64 -9 -104 -20 -129 -36c-35 -21 -52 -52 -52 -91c0 -54 32 -88 83 -88
c69 0 98 43 98 147zM381 283h217c-3 114 -38 172 -104 172s-104 -58 -113 -172z" />
    <glyph glyph-name="dotlessi" unicode="&#x131;" horiz-adv-x="279" 
d="M182 489v-418c0 -43 10 -51 71 -54v-20c-53 5 -79 6 -111 6s-58 -1 -112 -6v20c62 3 72 11 72 54v316c0 52 -7 58 -71 59v17c52 4 106 14 151 26z" />
    <glyph glyph-name="lslash" unicode="&#x142;" horiz-adv-x="273" 
d="M180 678v-283l71 43v-42l-71 -43v-282c0 -43 10 -51 71 -54v-20c-52 5 -77 6 -111 6s-60 -1 -112 -6v20c62 3 72 11 72 54v244l-72 -42v42l72 42v219c0 51 -8 58 -71 58v18c51 4 108 14 151 26z" />
    <glyph glyph-name="oslash" unicode="&#xf8;" horiz-adv-x="469" 
d="M61 -3h-41l61 77c-28 45 -41 95 -41 155c0 147 83 252 200 252c52 0 91 -16 125 -52l37 46h41l-57 -72c29 -47 42 -96 42 -160c0 -147 -81 -252 -196 -252c-51 0 -95 19 -130 56zM337 346l-197 -255c17 -43 54 -71 95 -71c72 0 114 79 114 214c0 57 -3 82 -12 112z
M130 130l197 256c-18 45 -47 66 -90 66c-76 0 -118 -82 -118 -228c0 -37 3 -62 11 -94z" />
    <glyph glyph-name="oe" unicode="&#x153;" horiz-adv-x="764" 
d="M685 154h40c-13 -102 -79 -163 -178 -163c-69 0 -119 25 -163 83c-41 -56 -89 -83 -150 -83c-114 0 -194 100 -194 244c0 145 81 246 199 246c60 0 106 -26 146 -82c38 53 93 82 155 82c80 0 140 -44 167 -123c12 -35 16 -70 17 -122h-300c1 -64 7 -101 19 -132
c20 -53 59 -80 113 -80c71 0 116 45 129 130zM237 455c-74 0 -113 -76 -113 -220c0 -145 37 -218 110 -218c72 0 112 76 112 216c0 147 -37 222 -109 222zM424 274h220c-5 125 -39 184 -106 184c-49 0 -84 -35 -101 -102c-6 -21 -9 -45 -13 -82z" />
    <glyph glyph-name="germandbls" unicode="&#xdf;" horiz-adv-x="515" 
d="M214 353v31c95 3 137 46 137 137c0 79 -31 123 -86 123c-32 0 -63 -18 -77 -45c-10 -19 -14 -44 -14 -82v-519c-29 2 -43 3 -68 3c-29 0 -48 -1 -84 -4v20c62 3 72 11 72 54v407c0 56 10 95 33 127c30 42 84 68 141 68c93 0 162 -66 162 -155c0 -67 -32 -109 -110 -145
c43 -11 66 -22 91 -43c41 -34 65 -89 65 -150c0 -105 -69 -187 -157 -187c-31 0 -55 9 -87 31v28c26 -14 36 -17 57 -17c64 0 105 56 105 141c0 67 -29 123 -78 152c-28 16 -55 23 -102 25z" />
    <glyph glyph-name="onesuperior" unicode="&#xb9;" horiz-adv-x="341" 
d="M204 670v-354c0 -30 4 -33 51 -36v-21c-31 3 -42 3 -80 3s-49 0 -80 -3v21c47 3 51 6 51 36v267h-70v21c53 2 92 27 105 66h23z" />
    <glyph glyph-name="logicalnot" unicode="&#xac;" horiz-adv-x="500" 
d="M378 0v230h-342v37h427v-267h-85z" />
    <glyph glyph-name="mu" unicode="&#xb5;" horiz-adv-x="440" 
d="M448 51v-15l-76 -46l-4 -1c-8 0 -26 10 -33 20c-8 11 -11 24 -17 66c-74 -72 -106 -90 -158 -90c-55 0 -91 29 -109 89v-28c0 -47 0 -47 11 -139c2 -17 4 -36 4 -43c0 -32 -13 -53 -34 -53c-20 0 -34 19 -34 48c0 9 3 34 6 56c17 102 28 249 28 368v174h63v-286
c0 -66 6 -92 27 -115c15 -16 39 -26 65 -26c51 0 87 24 128 82v345h63v-342c0 -60 8 -76 39 -76c9 0 18 4 31 12z" />
    <glyph glyph-name="trademark" unicode="&#x2122;" horiz-adv-x="870" 
d="M201 642v-320c0 -30 4 -33 51 -36v-21c-35 3 -53 4 -81 4c-27 0 -45 -1 -80 -4v21c47 3 51 6 51 36v320h-30c-42 0 -55 -12 -74 -72h-22l18 97h277l18 -97h-21c-18 61 -30 72 -71 72h-36zM461 610l-12 -288v-5v-6c-1 -18 9 -22 51 -25v-21c-39 2 -51 3 -65 3
s-17 0 -65 -3v21c45 3 49 6 51 36l13 290v4c1 11 -5 23 -14 26c-8 3 -15 4 -38 6v21c25 -2 25 -2 54 -2c26 0 41 1 62 3l113 -293l114 293c23 -2 40 -3 62 -3c28 0 28 0 52 2v-21c-42 -3 -51 -8 -51 -26v-7v-3l6 -290c0 -30 6 -34 52 -36v-22c-37 4 -56 5 -81 5
c-27 0 -44 -1 -81 -5v22c45 2 52 7 51 36l-5 288l-102 -263c-7 -18 -15 -41 -26 -69h-14c-7 21 -16 45 -26 71z" />
    <glyph glyph-name="Eth" unicode="&#xd0;" horiz-adv-x="635" 
d="M28 642v25h245c97 0 155 -18 206 -65c68 -63 109 -163 109 -269c0 -107 -43 -210 -111 -269c-51 -44 -115 -64 -205 -64h-244v24c74 6 82 13 82 67v240h-82v37h82v208c0 53 -10 62 -82 66zM195 636v-268h153v-37h-153v-250c0 -45 9 -52 65 -52c77 0 129 18 165 56
c49 52 74 137 74 249c0 106 -22 185 -65 239c-35 44 -85 63 -159 63h-80z" />
    <glyph glyph-name="onehalf" unicode="&#xbd;" horiz-adv-x="731" 
d="M204 670v-354c0 -30 4 -33 51 -36v-21c-33 3 -47 4 -79 4c-33 0 -48 -1 -81 -4v21c48 3 52 6 52 36v268h-70v20c54 4 92 27 105 66h22zM154 0l382 652h42l-382 -652h-42zM679 48l-6 -48h-238v38c132 146 180 215 180 260c0 35 -26 59 -64 59c-47 0 -73 -26 -82 -82h-26
c4 45 10 65 26 83c21 25 54 38 95 38c65 0 111 -38 111 -92c0 -50 -17 -74 -182 -256h186z" />
    <glyph glyph-name="plusminus" unicode="&#xb1;" horiz-adv-x="523" 
d="M54 308v59h177v175h61v-175h178v-59h-178v-169h-61v169h-177zM54 26v60h416v-60h-416z" />
    <glyph glyph-name="Thorn" unicode="&#xde;" horiz-adv-x="545" 
d="M199 195v-107c0 -54 8 -61 83 -67v-24c-66 6 -93 8 -125 8s-60 -2 -125 -8v24c74 6 82 13 82 67v491c0 54 -9 61 -82 67v24c55 -5 82 -7 124 -7c43 0 71 2 126 7v-24c-73 -6 -83 -13 -83 -67v-18h97c70 0 112 -10 148 -36c45 -32 73 -89 73 -149c0 -59 -26 -111 -73 -144
c-36 -26 -79 -37 -138 -37h-107zM199 226h80c48 0 80 9 105 30c31 26 48 71 48 124c0 47 -14 89 -38 115c-23 25 -55 35 -108 35h-87v-304z" />
    <glyph glyph-name="onequarter" unicode="&#xbc;" horiz-adv-x="731" 
d="M204 670v-354c0 -30 4 -33 51 -36v-21c-33 3 -47 4 -80 4c-32 0 -47 -1 -80 -4v21c48 3 52 6 52 36v268h-70v20c54 4 92 27 105 66h22zM154 0l382 652h42l-382 -652h-42zM582 -9v111h-170l172 300h56v-256h69v-44h-69v-111h-58zM583 146v205l-115 -205h115z" />
    <glyph glyph-name="divide" unicode="&#xf7;" horiz-adv-x="523" 
d="M54 308v58h416v-58h-416zM263 252c28 0 51 -24 51 -52c0 -29 -23 -52 -52 -52s-52 23 -52 52s23 52 53 52zM263 527c27 0 51 -24 51 -52c0 -29 -23 -52 -52 -52s-52 23 -52 51c0 29 24 53 53 53z" />
    <glyph glyph-name="brokenbar" unicode="&#xa6;" horiz-adv-x="500" 
d="M226 667h47v-332h-47v332zM226 153h47v-320h-47v320z" />
    <glyph glyph-name="degree" unicode="&#xb0;" horiz-adv-x="500" 
d="M250 680c77 0 141 -62 141 -138c0 -75 -64 -138 -141 -138c-78 0 -141 62 -141 140c0 74 65 136 141 136zM250 636c-51 0 -95 -43 -95 -93c0 -52 43 -95 95 -95c51 0 95 43 95 94s-44 94 -95 94z" />
    <glyph glyph-name="thorn" unicode="&#xfe;" horiz-adv-x="521" 
d="M174 678v-267c30 49 67 70 119 70c110 0 189 -102 189 -245c0 -144 -77 -245 -186 -245c-55 0 -84 19 -122 78v-195c0 -44 10 -51 71 -54v-20c-57 5 -82 6 -111 6c-28 0 -53 -1 -112 -6v20c62 3 72 10 72 54v701c0 52 -8 59 -71 59v18c50 4 108 14 151 26zM284 453
c-73 0 -111 -71 -111 -209c0 -149 38 -225 114 -225c74 0 111 72 111 215s-40 219 -114 219z" />
    <glyph glyph-name="threequarters" unicode="&#xbe;" horiz-adv-x="731" 
d="M40 376h27c6 -60 30 -85 82 -85c53 0 86 32 86 83c0 56 -31 82 -98 82h-12v27h13c51 0 81 27 81 74c0 41 -24 65 -64 65c-44 0 -69 -23 -79 -73h-25c7 73 46 109 117 109c65 0 109 -39 109 -96c0 -42 -19 -68 -67 -88c58 -18 84 -49 84 -100c0 -69 -56 -119 -132 -119
c-78 0 -118 40 -122 121zM153 0l383 652h42l-383 -652h-42zM582 -9v111h-170l172 300h56v-256h69v-44h-69v-111h-58zM583 146v205l-115 -205h115z" />
    <glyph glyph-name="twosuperior" unicode="&#xb2;" horiz-adv-x="341" 
d="M289 308l-6 -48h-238v38c130 143 180 216 180 261c0 35 -27 60 -64 60c-26 0 -52 -13 -66 -34c-8 -12 -12 -24 -16 -49h-26c4 44 10 65 26 84c20 23 56 38 94 38c64 0 112 -40 112 -93c0 -50 -21 -80 -182 -257h186z" />
    <glyph glyph-name="registered" unicode="&#xae;" horiz-adv-x="778" 
d="M332 320v-132v-10c0 -19 7 -23 51 -26v-21c-44 4 -61 5 -80 5s-37 -1 -81 -5v21c48 4 51 6 51 36v288c0 30 -4 33 -51 36v21h169c40 0 66 -6 88 -20c29 -19 48 -52 48 -87c0 -50 -34 -87 -92 -100c20 -9 29 -19 43 -49l43 -93c13 -28 19 -31 51 -32v-21
c-29 2 -34 2 -44 2c-11 0 -16 0 -43 -2c-7 13 -11 22 -18 38l-48 106c-16 37 -29 45 -67 45h-20zM332 345h49c57 0 87 29 87 83c0 53 -28 80 -84 80h-52v-163zM388 678c191 0 345 -154 345 -344c0 -193 -154 -345 -349 -345c-186 0 -340 156 -340 345c0 190 154 344 344 344
zM388 644c-170 0 -310 -140 -310 -310c0 -169 140 -311 307 -311c174 0 314 138 314 311c0 170 -141 310 -311 310z" />
    <glyph glyph-name="minus" unicode="&#x2212;" horiz-adv-x="523" 
d="M54 308v59h416v-59h-416z" />
    <glyph glyph-name="eth" unicode="&#xf0;" horiz-adv-x="469" 
d="M149 659l24 16l54 -67l78 49l18 -29l-73 -47l82 -104c74 -93 97 -150 97 -245c0 -143 -78 -241 -192 -241c-116 0 -197 102 -197 248c0 142 81 242 196 242c10 0 16 -1 30 -3l-52 80l-75 -46l-18 28l74 47zM233 455c-72 0 -109 -70 -109 -205c0 -154 38 -233 113 -233
c73 0 108 65 108 203c0 157 -37 235 -112 235z" />
    <glyph glyph-name="multiply" unicode="&#xd7;" horiz-adv-x="523" 
d="M74 482l43 43l146 -146l144 144l41 -40l-144 -145l145 -145l-43 -44l-146 146l-144 -144l-40 41l144 144z" />
    <glyph glyph-name="threesuperior" unicode="&#xb3;" horiz-adv-x="341" 
d="M40 377h28c6 -60 30 -85 82 -85s85 32 85 83c0 56 -31 81 -100 81h-10v27h10c54 0 85 27 85 73c0 40 -25 65 -65 65c-44 0 -68 -23 -79 -73h-25c7 73 46 110 117 110c65 0 110 -40 110 -97c0 -41 -21 -69 -67 -87c56 -16 84 -49 84 -100c0 -68 -56 -118 -133 -118
c-78 0 -118 40 -122 121z" />
    <glyph glyph-name="copyright" unicode="&#xa9;" horiz-adv-x="778" 
d="M503 273h29c-4 -93 -56 -147 -140 -147c-102 0 -170 83 -170 208s68 207 172 207c39 0 69 -10 96 -34l21 33h16v-123h-20c-17 68 -50 98 -107 98c-76 0 -115 -61 -115 -179c0 -115 40 -177 115 -177c62 0 99 41 103 114zM388 678c191 0 345 -154 345 -344
c0 -193 -154 -345 -349 -345c-186 0 -340 156 -340 345c0 190 154 344 344 344zM388 644c-170 0 -310 -140 -310 -310c0 -169 140 -311 307 -311c174 0 314 138 314 311c0 170 -141 310 -311 310z" />
    <glyph glyph-name="Aacute" unicode="&#xc1;" horiz-adv-x="643" 
d="M413 193h-234l-33 -94c-8 -24 -12 -39 -12 -47c0 -20 17 -28 66 -31v-24c-41 4 -63 5 -95 5s-54 -1 -95 -5v24c61 4 74 13 96 71l228 596l206 -607c16 -46 30 -55 93 -60v-24c-56 6 -85 8 -122 8s-66 -2 -122 -8v24c47 4 64 12 64 30c0 6 -4 26 -6 34zM191 224h212
l-98 306zM279 724l126 137h121l-197 -137h-50z" />
    <glyph glyph-name="Acircumflex" unicode="&#xc2;" horiz-adv-x="643" 
d="M413 193h-234l-33 -94c-8 -24 -12 -39 -12 -47c0 -20 17 -28 66 -31v-24c-41 4 -63 5 -95 5s-54 -1 -95 -5v24c61 4 74 13 96 71l228 596l206 -607c16 -46 30 -55 93 -60v-24c-56 6 -85 8 -122 8s-66 -2 -122 -8v24c47 4 64 12 64 30c0 6 -4 26 -6 34zM191 224h212
l-98 306zM163 725l143 136h55l142 -136h-49l-121 83l-120 -83h-50z" />
    <glyph glyph-name="Adieresis" unicode="&#xc4;" horiz-adv-x="643" 
d="M413 193h-234l-33 -94c-8 -24 -12 -39 -12 -47c0 -20 17 -28 66 -31v-24c-41 4 -63 5 -95 5s-54 -1 -95 -5v24c61 4 74 13 96 71l228 596l206 -607c16 -46 30 -55 93 -60v-24c-56 6 -85 8 -122 8s-66 -2 -122 -8v24c47 4 64 12 64 30c0 6 -4 26 -6 34zM191 224h212
l-98 306zM245 849c31 0 56 -25 56 -56s-25 -57 -57 -57c-31 0 -56 25 -56 57c0 33 24 56 57 56zM423 849c32 0 56 -24 56 -56s-25 -57 -56 -57c-32 0 -57 25 -57 57s24 56 57 56z" />
    <glyph glyph-name="Agrave" unicode="&#xc0;" horiz-adv-x="643" 
d="M413 193h-234l-33 -94c-8 -24 -12 -39 -12 -47c0 -20 17 -28 66 -31v-24c-41 4 -63 5 -95 5s-54 -1 -95 -5v24c61 4 74 13 96 71l228 596l206 -607c16 -46 30 -55 93 -60v-24c-56 6 -85 8 -122 8s-66 -2 -122 -8v24c47 4 64 12 64 30c0 6 -4 26 -6 34zM191 224h212
l-98 306zM391 724h-50l-197 137h121z" />
    <glyph glyph-name="Aring" unicode="&#xc5;" horiz-adv-x="643" 
d="M413 193h-234l-33 -94c-8 -24 -12 -39 -12 -47c0 -20 17 -28 66 -31v-24c-41 4 -63 5 -95 5s-54 -1 -95 -5v24c61 4 74 13 96 71l228 596l206 -607c16 -46 30 -55 93 -60v-24c-56 6 -85 8 -122 8s-66 -2 -122 -8v24c47 4 64 12 64 30c0 6 -4 26 -6 34zM191 224h212
l-98 306zM336 879c44 0 83 -39 83 -84s-39 -84 -84 -84c-46 0 -84 38 -84 84s38 84 85 84zM335 844c-26 0 -49 -23 -49 -49s23 -49 49 -49s49 23 49 49c0 25 -23 49 -49 49z" />
    <glyph glyph-name="Atilde" unicode="&#xc3;" horiz-adv-x="643" 
d="M413 193h-234l-33 -94c-8 -24 -12 -39 -12 -47c0 -20 17 -28 66 -31v-24c-41 4 -63 5 -95 5s-54 -1 -95 -5v24c61 4 74 13 96 71l228 596l206 -607c16 -46 30 -55 93 -60v-24c-56 6 -85 8 -122 8s-66 -2 -122 -8v24c47 4 64 12 64 30c0 6 -4 26 -6 34zM191 224h212
l-98 306zM201 743l-30 8c19 69 47 98 99 98c29 0 38 -4 93 -42c16 -11 30 -16 46 -16c31 0 47 14 61 52l28 -6c-7 -40 -15 -58 -36 -77c-19 -17 -40 -26 -63 -26c-27 0 -44 7 -86 38c-22 15 -34 20 -52 20c-29 0 -46 -14 -60 -49z" />
    <glyph glyph-name="Ccedilla" unicode="&#xc7;" horiz-adv-x="600" 
d="M331 -12l-24 -46c62 -5 88 -27 88 -72c0 -46 -38 -79 -92 -79c-26 0 -50 5 -80 16v33c25 -7 37 -9 52 -9c33 0 54 17 54 45c0 31 -22 43 -79 44l37 69c-145 18 -235 149 -235 343c0 212 105 347 268 347c66 0 111 -17 157 -59l35 57h18v-196h-23
c-28 113 -84 166 -175 166c-66 0 -116 -30 -146 -89c-29 -57 -44 -132 -44 -222c0 -195 68 -304 188 -304c101 0 165 71 172 193h36c-3 -138 -82 -230 -207 -237z" />
    <glyph glyph-name="Eacute" unicode="&#xc9;" horiz-adv-x="543" 
d="M496 161l-23 -161h-441v25c73 5 82 12 82 66v485c0 53 -10 62 -82 66v25h435l18 -150h-23c-25 95 -48 119 -118 119h-145v-274h143c45 0 56 15 59 82h25v-196h-25c-2 65 -16 83 -64 83h-138v-241c0 -48 13 -59 67 -59h71c79 0 110 29 136 130h23zM211 724l125 137h122
l-197 -137h-50z" />
    <glyph glyph-name="Ecircumflex" unicode="&#xca;" horiz-adv-x="543" 
d="M496 161l-23 -161h-441v25c73 5 82 12 82 66v485c0 53 -10 62 -82 66v25h435l18 -150h-23c-25 95 -48 119 -118 119h-145v-274h143c45 0 56 15 59 82h25v-196h-25c-2 65 -16 83 -64 83h-138v-241c0 -48 13 -59 67 -59h71c79 0 110 29 136 130h23zM104 725l142 135h56
l142 -135h-50l-120 83l-121 -83h-49z" />
    <glyph glyph-name="Edieresis" unicode="&#xcb;" horiz-adv-x="543" 
d="M496 161l-23 -161h-441v25c73 5 82 12 82 66v485c0 53 -10 62 -82 66v25h435l18 -150h-23c-25 95 -48 119 -118 119h-145v-274h143c45 0 56 15 59 82h25v-196h-25c-2 65 -16 83 -64 83h-138v-241c0 -48 13 -59 67 -59h71c79 0 110 29 136 130h23zM189 850
c30 0 56 -27 56 -57c0 -31 -26 -57 -57 -57s-57 26 -57 57s26 57 58 57zM367 850c29 0 57 -28 57 -57c0 -30 -27 -57 -58 -57s-56 25 -56 57s25 57 57 57z" />
    <glyph glyph-name="Egrave" unicode="&#xc8;" horiz-adv-x="543" 
d="M496 161l-23 -161h-441v25c73 5 82 12 82 66v485c0 53 -10 62 -82 66v25h435l18 -150h-23c-25 95 -48 119 -118 119h-145v-274h143c45 0 56 15 59 82h25v-196h-25c-2 65 -16 83 -64 83h-138v-241c0 -48 13 -59 67 -59h71c79 0 110 29 136 130h23zM353 724h-50l-197 137
h121z" />
    <glyph glyph-name="Iacute" unicode="&#xcd;" horiz-adv-x="314" 
d="M282 21v-24c-66 6 -94 8 -126 8c-31 0 -59 -2 -124 -8v24c74 6 82 13 82 67v491c0 54 -9 61 -82 67v24c55 -5 82 -7 124 -7c43 0 71 2 126 7v-24c-74 -6 -83 -13 -83 -67v-491c0 -54 8 -61 83 -67zM104 724l112 137h118l-180 -137h-50z" />
    <glyph glyph-name="Icircumflex" unicode="&#xce;" horiz-adv-x="314" 
d="M282 21v-24c-66 6 -94 8 -126 8c-31 0 -59 -2 -124 -8v24c74 6 82 13 82 67v491c0 54 -9 61 -82 67v24c55 -5 82 -7 124 -7c43 0 71 2 126 7v-24c-74 -6 -83 -13 -83 -67v-491c0 -54 8 -61 83 -67zM0 725l129 135h56l128 -135h-49l-107 83l-107 -83h-50z" />
    <glyph glyph-name="Idieresis" unicode="&#xcf;" horiz-adv-x="314" 
d="M281 21v-24c-65 6 -93 8 -125 8c-31 0 -59 -2 -124 -8v24c74 6 82 13 82 67v491c0 54 -9 61 -82 67v24c55 -5 82 -7 124 -7c43 0 70 2 125 7v-24c-73 -6 -82 -13 -82 -67v-491c0 -54 8 -61 82 -67zM78 849c29 0 55 -26 55 -56c0 -31 -26 -56 -56 -56c-31 0 -56 25 -56 56
s25 56 57 56zM237 849c30 0 55 -26 55 -56c0 -31 -25 -56 -56 -56c-30 0 -56 25 -56 56c0 30 26 56 57 56z" />
    <glyph glyph-name="Igrave" unicode="&#xcc;" horiz-adv-x="314" 
d="M281 21v-24c-65 6 -93 8 -125 8c-31 0 -59 -2 -124 -8v24c74 6 82 13 82 67v491c0 54 -9 61 -82 67v24c55 -5 82 -7 124 -7c43 0 70 2 125 7v-24c-73 -6 -82 -13 -82 -67v-491c0 -54 8 -61 82 -67zM212 724h-50l-180 137h118z" />
    <glyph glyph-name="Ntilde" unicode="&#xd1;" horiz-adv-x="673" 
d="M561 -20h-15c-7 11 -15 23 -22 35c-20 30 -32 49 -81 124l-295 444v-495c0 -54 8 -61 83 -67v-24c-58 4 -79 5 -101 5c-24 0 -45 -1 -98 -5v24c75 6 83 13 83 67v528c-18 20 -38 27 -84 30v24c31 -2 50 -3 85 -3c33 0 45 1 72 3l339 -507v416c0 54 -10 61 -82 67v24
c57 -4 78 -5 101 -5c24 0 45 1 98 5v-24c-73 -6 -83 -13 -83 -67v-599zM203 743l-29 8c19 70 47 98 98 98c30 0 39 -4 94 -42c16 -11 30 -16 46 -16c30 0 47 14 60 52l29 -6c-7 -40 -16 -58 -36 -77c-19 -17 -41 -26 -63 -26c-28 0 -44 7 -87 38c-21 15 -34 20 -52 20
c-29 0 -45 -14 -60 -49z" />
    <glyph glyph-name="Oacute" unicode="&#xd3;" horiz-adv-x="632" 
d="M315 680c165 0 269 -135 269 -350c0 -207 -105 -342 -266 -342c-165 0 -270 135 -270 347c0 208 106 345 267 345zM318 652c-113 0 -180 -118 -180 -315c0 -202 67 -321 180 -321c112 0 176 115 176 317c0 204 -64 319 -176 319zM256 724l126 137h121l-197 -137h-50z" />
    <glyph glyph-name="Ocircumflex" unicode="&#xd4;" horiz-adv-x="632" 
d="M315 680c165 0 269 -135 269 -350c0 -207 -105 -342 -266 -342c-165 0 -270 135 -270 347c0 208 106 345 267 345zM318 652c-113 0 -180 -118 -180 -315c0 -202 67 -321 180 -321c112 0 176 115 176 317c0 204 -64 319 -176 319zM146 725l142 135h56l142 -135h-49
l-121 83l-120 -83h-50z" />
    <glyph glyph-name="Odieresis" unicode="&#xd6;" horiz-adv-x="632" 
d="M315 680c165 0 269 -135 269 -350c0 -207 -105 -342 -266 -342c-165 0 -270 135 -270 347c0 208 106 345 267 345zM318 652c-113 0 -180 -118 -180 -315c0 -202 67 -321 180 -321c112 0 176 115 176 317c0 204 -64 319 -176 319zM228 849c32 0 55 -23 55 -56
s-24 -57 -56 -57c-31 0 -57 26 -57 57c0 32 25 56 58 56zM406 849c32 0 56 -24 56 -56s-25 -57 -57 -57c-31 0 -56 25 -56 57s24 56 57 56z" />
    <glyph glyph-name="Ograve" unicode="&#xd2;" horiz-adv-x="632" 
d="M315 680c165 0 269 -135 269 -350c0 -207 -105 -342 -266 -342c-165 0 -270 135 -270 347c0 208 106 345 267 345zM318 652c-113 0 -180 -118 -180 -315c0 -202 67 -321 180 -321c112 0 176 115 176 317c0 204 -64 319 -176 319zM386 724h-51l-197 137h122z" />
    <glyph glyph-name="Otilde" unicode="&#xd5;" horiz-adv-x="632" 
d="M315 680c165 0 269 -135 269 -350c0 -207 -105 -342 -266 -342c-165 0 -270 135 -270 347c0 208 106 345 267 345zM318 652c-113 0 -180 -118 -180 -315c0 -202 67 -321 180 -321c112 0 176 115 176 317c0 204 -64 319 -176 319zM189 743l-30 8c19 70 47 98 99 98
c29 0 39 -4 93 -42c17 -11 30 -16 46 -16c31 0 47 14 61 52l28 -6c-7 -40 -15 -58 -36 -77c-19 -17 -40 -26 -63 -26c-27 0 -43 7 -86 38c-22 15 -34 20 -52 20c-29 0 -46 -14 -60 -49z" />
    <glyph glyph-name="Scaron" unicode="&#x160;" horiz-adv-x="519" 
d="M58 202h23c20 -119 80 -180 177 -180c81 0 138 55 138 132c0 40 -15 72 -44 94c-21 15 -31 22 -96 55c-96 49 -121 64 -145 87c-29 28 -42 63 -42 110c0 106 76 176 190 176c55 0 92 -14 131 -52l30 56h18v-184h-24c-23 102 -70 150 -147 150c-71 0 -126 -54 -126 -123
c0 -39 18 -67 57 -92c24 -15 24 -15 98 -51c64 -32 88 -46 114 -66c40 -30 60 -75 60 -132c0 -114 -81 -191 -199 -191c-63 0 -110 17 -159 58l-36 -64h-18v217zM432 859l-142 -136h-55l-143 136h50l120 -83l121 83h49z" />
    <glyph glyph-name="Uacute" unicode="&#xda;" horiz-adv-x="665" 
d="M439 646v24c57 -4 78 -5 101 -5c24 0 45 1 98 5v-24c-74 -6 -83 -13 -83 -67v-366c0 -67 -9 -103 -34 -140c-39 -55 -104 -84 -189 -84c-75 0 -136 23 -177 68c-34 37 -47 77 -47 148v374c0 54 -9 61 -82 67v24c55 -5 82 -7 125 -7c42 0 70 2 125 7v-24
c-74 -6 -83 -13 -83 -67v-382c0 -63 8 -91 32 -117c28 -31 72 -47 126 -47c66 0 121 25 147 66c16 26 23 60 23 109v371c0 54 -9 61 -82 67zM294 724l126 137h121l-197 -137h-50z" />
    <glyph glyph-name="Ucircumflex" unicode="&#xdb;" horiz-adv-x="665" 
d="M439 646v24c57 -4 78 -5 101 -5c24 0 45 1 98 5v-24c-74 -6 -83 -13 -83 -67v-366c0 -67 -9 -103 -34 -140c-39 -55 -104 -84 -189 -84c-75 0 -136 23 -177 68c-34 37 -47 77 -47 148v374c0 54 -9 61 -82 67v24c55 -5 82 -7 125 -7c42 0 70 2 125 7v-24
c-74 -6 -83 -13 -83 -67v-382c0 -63 8 -91 32 -117c28 -31 72 -47 126 -47c66 0 121 25 147 66c16 26 23 60 23 109v371c0 54 -9 61 -82 67zM187 725l142 135h56l142 -135h-50l-120 83l-120 -83h-50z" />
    <glyph glyph-name="Udieresis" unicode="&#xdc;" horiz-adv-x="665" 
d="M439 646v24c57 -4 78 -5 101 -5c24 0 45 1 98 5v-24c-74 -6 -83 -13 -83 -67v-366c0 -67 -9 -103 -34 -140c-39 -55 -104 -84 -189 -84c-75 0 -136 23 -177 68c-34 37 -47 77 -47 148v374c0 54 -9 61 -82 67v24c55 -5 82 -7 125 -7c42 0 70 2 125 7v-24
c-74 -6 -83 -13 -83 -67v-382c0 -63 8 -91 32 -117c28 -31 72 -47 126 -47c66 0 121 25 147 66c16 26 23 60 23 109v371c0 54 -9 61 -82 67zM269 849c32 0 55 -24 55 -56s-25 -57 -56 -57s-57 26 -57 57c0 32 25 56 58 56zM447 849c32 0 55 -23 55 -56s-24 -57 -56 -57
c-31 0 -57 26 -57 57s25 56 58 56z" />
    <glyph glyph-name="Ugrave" unicode="&#xd9;" horiz-adv-x="665" 
d="M439 646v24c57 -4 78 -5 101 -5c24 0 45 1 98 5v-24c-74 -6 -83 -13 -83 -67v-366c0 -67 -9 -103 -34 -140c-39 -55 -104 -84 -189 -84c-75 0 -136 23 -177 68c-34 37 -47 77 -47 148v374c0 54 -9 61 -82 67v24c55 -5 82 -7 125 -7c42 0 70 2 125 7v-24
c-74 -6 -83 -13 -83 -67v-382c0 -63 8 -91 32 -117c28 -31 72 -47 126 -47c66 0 121 25 147 66c16 26 23 60 23 109v371c0 54 -9 61 -82 67zM426 724h-50l-197 137h121z" />
    <glyph glyph-name="Yacute" unicode="&#xdd;" horiz-adv-x="592" 
d="M255 291l-149 295c-22 45 -38 55 -93 60v24c52 -5 81 -7 123 -7s71 2 123 7v-24c-54 -4 -70 -10 -70 -28c0 -7 3 -15 10 -30l128 -254l128 255c6 13 9 23 9 30c0 18 -15 23 -68 27v24c42 -4 65 -5 93 -5s50 1 92 5v-24c-56 -6 -70 -15 -91 -54l-150 -301v-203
c0 -54 8 -61 82 -67v-24c-65 6 -93 8 -125 8c-31 0 -59 -2 -125 -8v24c75 6 83 13 83 67v203zM259 724l126 137h121l-196 -137h-51z" />
    <glyph glyph-name="Ydieresis" unicode="&#x178;" horiz-adv-x="592" 
d="M255 291l-149 295c-22 45 -38 55 -93 60v24c52 -5 81 -7 123 -7s71 2 123 7v-24c-54 -4 -70 -10 -70 -28c0 -7 3 -15 10 -30l128 -254l128 255c6 13 9 23 9 30c0 18 -15 23 -68 27v24c42 -4 65 -5 93 -5s50 1 92 5v-24c-56 -6 -70 -15 -91 -54l-150 -301v-203
c0 -54 8 -61 82 -67v-24c-65 6 -93 8 -125 8c-31 0 -59 -2 -125 -8v24c75 6 83 13 83 67v203zM231 849c32 0 55 -23 55 -56s-24 -57 -56 -57c-31 0 -57 26 -57 57c0 32 25 56 58 56zM409 849c32 0 56 -24 56 -56s-25 -57 -57 -57c-31 0 -56 25 -56 57s24 56 57 56z" />
    <glyph glyph-name="Zcaron" unicode="&#x17d;" horiz-adv-x="538" 
d="M31 0l361 636h-167c-75 0 -105 -27 -129 -117h-25l26 148h407l-361 -636h189c63 0 83 8 110 46c14 20 26 45 40 85h24l-29 -162h-446zM471 859l-142 -135h-56l-142 135h50l120 -83l120 83h50z" />
    <glyph glyph-name="aacute" unicode="&#xe1;" horiz-adv-x="466" 
d="M445 26v-26c-21 -5 -40 -7 -55 -7c-48 0 -71 25 -77 85c-36 -64 -71 -87 -135 -87c-81 0 -139 53 -139 129c0 90 93 153 262 174v60c0 38 -4 57 -16 72c-14 18 -38 28 -67 28c-32 0 -63 -13 -77 -32c-5 -7 -6 -13 -6 -31c0 -9 0 -10 1 -16v-5c0 -26 -15 -42 -40 -42
c-22 0 -34 12 -34 34c0 64 76 119 164 119c57 0 108 -23 133 -60c16 -23 22 -53 22 -105v-204c0 -68 9 -89 38 -89c8 0 14 1 26 3zM301 182v86c-126 -22 -181 -66 -181 -143c0 -55 32 -91 83 -91c43 0 75 22 88 63c7 18 10 47 10 85zM176 551l98 147h111l-164 -147h-45z" />
    <glyph glyph-name="acircumflex" unicode="&#xe2;" horiz-adv-x="466" 
d="M445 26v-26c-21 -5 -40 -7 -55 -7c-48 0 -71 25 -77 85c-36 -64 -71 -87 -135 -87c-81 0 -139 53 -139 129c0 90 93 153 262 174v60c0 38 -4 57 -16 72c-14 18 -38 28 -67 28c-32 0 -63 -13 -77 -32c-5 -7 -6 -13 -6 -31c0 -9 0 -10 1 -16v-5c0 -26 -15 -42 -40 -42
c-22 0 -34 12 -34 34c0 64 76 119 164 119c57 0 108 -23 133 -60c16 -23 22 -53 22 -105v-204c0 -68 9 -89 38 -89c8 0 14 1 26 3zM301 182v86c-126 -22 -181 -66 -181 -143c0 -55 32 -91 83 -91c43 0 75 22 88 63c7 18 10 47 10 85zM74 552l132 147h47l132 -147h-48
l-108 86l-107 -86h-48z" />
    <glyph glyph-name="adieresis" unicode="&#xe4;" horiz-adv-x="466" 
d="M445 26v-26c-21 -5 -40 -7 -55 -7c-48 0 -71 25 -77 85c-36 -64 -71 -87 -135 -87c-81 0 -139 53 -139 129c0 90 93 153 262 174v60c0 38 -4 57 -16 72c-14 18 -38 28 -67 28c-32 0 -63 -13 -77 -32c-5 -7 -6 -13 -6 -31c0 -9 0 -10 1 -16v-5c0 -26 -15 -42 -40 -42
c-22 0 -34 12 -34 34c0 64 76 119 164 119c57 0 108 -23 133 -60c16 -23 22 -53 22 -105v-204c0 -68 9 -89 38 -89c8 0 14 1 26 3zM301 182v86c-126 -22 -181 -66 -181 -143c0 -55 32 -91 83 -91c43 0 75 22 88 63c7 18 10 47 10 85zM135 673c18 0 27 -4 37 -14
c10 -11 17 -27 17 -38c0 -28 -27 -55 -54 -55c-29 0 -53 25 -53 54c0 32 21 53 53 53zM318 673c30 0 53 -23 53 -52c0 -28 -26 -55 -54 -55s-53 25 -53 54c0 32 22 53 54 53z" />
    <glyph glyph-name="agrave" unicode="&#xe0;" horiz-adv-x="466" 
d="M445 26v-26c-21 -5 -40 -7 -55 -7c-48 0 -71 25 -77 85c-36 -64 -71 -87 -135 -87c-81 0 -139 53 -139 129c0 90 93 153 262 174v60c0 38 -4 57 -16 72c-14 18 -38 28 -67 28c-32 0 -63 -13 -77 -32c-5 -7 -6 -13 -6 -31c0 -9 0 -10 1 -16v-5c0 -26 -15 -42 -40 -42
c-22 0 -34 12 -34 34c0 64 76 119 164 119c57 0 108 -23 133 -60c16 -23 22 -53 22 -105v-204c0 -68 9 -89 38 -89c8 0 14 1 26 3zM301 182v86c-126 -22 -181 -66 -181 -143c0 -55 32 -91 83 -91c43 0 75 22 88 63c7 18 10 47 10 85zM287 551h-45l-164 147h111z" />
    <glyph glyph-name="aring" unicode="&#xe5;" horiz-adv-x="466" 
d="M445 26v-26c-21 -5 -40 -7 -55 -7c-48 0 -71 25 -77 85c-36 -64 -71 -87 -135 -87c-81 0 -139 53 -139 129c0 90 93 153 262 174v60c0 38 -4 57 -16 72c-14 18 -38 28 -67 28c-32 0 -63 -13 -77 -32c-5 -7 -6 -13 -6 -31c0 -9 0 -10 1 -16v-5c0 -26 -15 -42 -40 -42
c-22 0 -34 12 -34 34c0 64 76 119 164 119c57 0 108 -23 133 -60c16 -23 22 -53 22 -105v-204c0 -68 9 -89 38 -89c8 0 14 1 26 3zM301 182v86c-126 -22 -181 -66 -181 -143c0 -55 32 -91 83 -91c43 0 75 22 88 63c7 18 10 47 10 85zM231 715c45 0 82 -38 82 -84
s-37 -83 -84 -83c-46 0 -83 37 -83 83c0 47 37 84 85 84zM230 680c-28 0 -49 -21 -49 -49c0 -27 21 -48 48 -48c28 0 49 21 49 48s-22 49 -48 49z" />
    <glyph glyph-name="atilde" unicode="&#xe3;" horiz-adv-x="466" 
d="M445 26v-26c-21 -5 -40 -7 -55 -7c-48 0 -71 25 -77 85c-36 -64 -71 -87 -135 -87c-81 0 -139 53 -139 129c0 90 93 153 262 174v60c0 38 -4 57 -16 72c-14 18 -38 28 -67 28c-32 0 -63 -13 -77 -32c-5 -7 -6 -13 -6 -31c0 -9 0 -10 1 -16v-5c0 -26 -15 -42 -40 -42
c-22 0 -34 12 -34 34c0 64 76 119 164 119c57 0 108 -23 133 -60c16 -23 22 -53 22 -105v-204c0 -68 9 -89 38 -89c8 0 14 1 26 3zM301 182v86c-126 -22 -181 -66 -181 -143c0 -55 32 -91 83 -91c43 0 75 22 88 63c7 18 10 47 10 85zM112 577l-28 8c13 45 19 58 34 73
c16 17 35 25 59 25c29 0 38 -4 89 -42c16 -11 29 -16 44 -16c29 0 44 14 57 52l28 -6c-7 -40 -15 -58 -34 -77c-18 -17 -39 -26 -61 -26c-25 0 -41 7 -82 38c-20 15 -32 20 -49 20c-27 0 -43 -13 -57 -49z" />
    <glyph glyph-name="ccedilla" unicode="&#xe7;" horiz-adv-x="436" 
d="M259 -9l-26 -50c58 -5 85 -27 85 -67c0 -45 -37 -75 -92 -75c-26 0 -46 4 -75 16v30c27 -7 37 -9 52 -9c30 0 51 17 51 43c0 28 -23 41 -76 43l37 68c-109 16 -174 106 -174 243c0 149 80 251 198 251c43 0 70 -11 102 -42l26 51h18v-165h-22c-8 35 -13 51 -24 71
c-19 36 -54 58 -92 58c-75 0 -119 -82 -119 -224c0 -139 40 -211 116 -211c62 0 99 44 111 132h40c-9 -94 -59 -154 -136 -163z" />
    <glyph glyph-name="eacute" unicode="&#xe9;" horiz-adv-x="458" 
d="M380 154h39c-12 -103 -78 -164 -178 -164c-123 0 -201 95 -201 247c0 147 79 245 196 245c113 0 179 -85 182 -235h-297c2 -74 7 -110 19 -143c21 -53 59 -81 113 -81c69 0 114 47 127 131zM123 283h215c-5 117 -38 173 -103 173s-102 -58 -112 -173zM186 551l98 147h111
l-164 -147h-45z" />
    <glyph glyph-name="ecircumflex" unicode="&#xea;" horiz-adv-x="458" 
d="M380 154h39c-12 -103 -78 -164 -178 -164c-123 0 -201 95 -201 247c0 147 79 245 196 245c113 0 179 -85 182 -235h-297c2 -74 7 -110 19 -143c21 -53 59 -81 113 -81c69 0 114 47 127 131zM123 283h215c-5 117 -38 173 -103 173s-102 -58 -112 -173zM81 552l131 146h48
l132 -146h-48l-108 86l-108 -86h-47z" />
    <glyph glyph-name="edieresis" unicode="&#xeb;" horiz-adv-x="458" 
d="M380 154h39c-12 -103 -78 -164 -178 -164c-123 0 -201 95 -201 247c0 147 79 245 196 245c113 0 179 -85 182 -235h-297c2 -74 7 -110 19 -143c21 -53 59 -81 113 -81c69 0 114 47 127 131zM123 283h215c-5 117 -38 173 -103 173s-102 -58 -112 -173zM146 673
c17 0 27 -4 36 -14c10 -11 17 -27 17 -38c0 -28 -26 -55 -54 -55s-53 25 -53 54c0 32 22 53 54 53zM328 673c18 0 27 -4 37 -14c9 -11 17 -28 17 -38c0 -28 -27 -55 -55 -55s-52 25 -52 54c0 33 21 53 53 53z" />
    <glyph glyph-name="egrave" unicode="&#xe8;" horiz-adv-x="458" 
d="M380 154h39c-12 -103 -78 -164 -178 -164c-123 0 -201 95 -201 247c0 147 79 245 196 245c113 0 179 -85 182 -235h-297c2 -74 7 -110 19 -143c21 -53 59 -81 113 -81c69 0 114 47 127 131zM123 283h215c-5 117 -38 173 -103 173s-102 -58 -112 -173zM294 551h-45
l-164 147h110z" />
    <glyph glyph-name="iacute" unicode="&#xed;" horiz-adv-x="279" 
d="M182 489v-418c0 -43 10 -51 71 -54v-20c-52 5 -77 6 -111 6s-60 -1 -112 -6v20c61 3 72 11 72 54v316c0 52 -7 58 -71 59v17c51 4 104 14 151 26zM86 551l92 147h110l-157 -147h-45z" />
    <glyph glyph-name="icircumflex" unicode="&#xee;" horiz-adv-x="279" 
d="M181 489v-418c0 -43 11 -51 72 -54v-20c-53 5 -78 6 -112 6s-60 -1 -112 -6v20c61 3 72 11 72 54v316c0 52 -7 58 -71 59v17c51 4 104 14 151 26zM-3 552l112 147h47l112 -147h-44l-92 86l-91 -86h-44z" />
    <glyph glyph-name="idieresis" unicode="&#xef;" horiz-adv-x="279" 
d="M181 489v-418c0 -43 11 -51 72 -54v-20c-52 5 -78 6 -112 6c-35 0 -60 -1 -111 -6v20c61 3 71 11 71 54v316c0 52 -7 58 -71 59v17c51 4 104 14 151 26zM59 685c27 0 52 -24 52 -51s-26 -53 -53 -53c-28 0 -51 24 -51 52c0 30 22 52 52 52zM205 685c27 0 52 -24 52 -51
s-26 -53 -53 -53c-28 0 -51 23 -51 52c0 31 21 52 52 52z" />
    <glyph glyph-name="igrave" unicode="&#xec;" horiz-adv-x="279" 
d="M181 489v-418c0 -43 11 -51 72 -54v-20c-53 5 -78 6 -112 6s-60 -1 -112 -6v20c61 3 72 11 72 54v316c0 52 -7 58 -71 59v17c51 4 104 14 151 26zM183 551h-44l-158 147h111z" />
    <glyph glyph-name="ntilde" unicode="&#xf1;" horiz-adv-x="548" 
d="M31 442v18c56 8 99 17 132 30c5 -17 9 -50 11 -87c36 54 77 78 135 78c53 0 99 -24 124 -65c15 -24 22 -58 22 -105v-240c0 -43 10 -51 72 -54v-20c-51 5 -76 6 -110 6c-33 0 -59 -1 -108 -6v20c53 2 66 12 66 52v245c0 46 -4 68 -16 87c-15 22 -41 35 -73 35
c-34 0 -66 -16 -85 -43c-14 -19 -19 -41 -19 -83v-241c0 -40 13 -50 65 -52v-20c-49 5 -75 6 -108 6s-58 -1 -109 -6v20c62 3 72 11 72 54v309c0 57 -4 61 -58 62h-13zM154 577l-28 8c21 73 44 98 93 98c29 0 37 -4 89 -42c16 -11 29 -16 44 -16c29 0 43 14 57 52l27 -6
c-7 -41 -15 -59 -34 -77c-18 -17 -38 -26 -60 -26c-26 0 -42 8 -82 38c-20 15 -32 20 -49 20c-28 0 -43 -14 -57 -49z" />
    <glyph glyph-name="oacute" unicode="&#xf3;" horiz-adv-x="469" 
d="M239 484c114 0 191 -101 191 -250c0 -141 -83 -245 -196 -245c-114 0 -194 101 -194 246c0 147 82 249 199 249zM237 458c-74 0 -113 -78 -113 -222c0 -147 37 -221 110 -221c72 0 112 77 112 218c0 149 -37 225 -109 225zM191 551l98 147h111l-164 -147h-45z" />
    <glyph glyph-name="ocircumflex" unicode="&#xf4;" horiz-adv-x="469" 
d="M239 484c114 0 191 -101 191 -250c0 -141 -83 -245 -196 -245c-114 0 -194 101 -194 246c0 147 82 249 199 249zM237 458c-74 0 -113 -78 -113 -222c0 -147 37 -221 110 -221c72 0 112 77 112 218c0 149 -37 225 -109 225zM79 552l132 146h48l131 -146h-47l-108 86
l-108 -86h-48z" />
    <glyph glyph-name="odieresis" unicode="&#xf6;" horiz-adv-x="469" 
d="M239 484c114 0 191 -101 191 -250c0 -141 -83 -245 -196 -245c-114 0 -194 101 -194 246c0 147 82 249 199 249zM237 458c-74 0 -113 -78 -113 -222c0 -147 37 -221 110 -221c72 0 112 77 112 218c0 149 -37 225 -109 225zM144 673c18 0 27 -4 37 -14
c10 -11 17 -27 17 -38c0 -28 -27 -55 -54 -55c-29 0 -53 25 -53 54c0 32 21 53 53 53zM327 673c29 0 53 -23 53 -52c0 -28 -26 -55 -54 -55s-53 25 -53 54c0 32 22 53 54 53z" />
    <glyph glyph-name="ograve" unicode="&#xf2;" horiz-adv-x="469" 
d="M239 484c114 0 191 -101 191 -250c0 -141 -83 -245 -196 -245c-114 0 -194 101 -194 246c0 147 82 249 199 249zM237 458c-74 0 -113 -78 -113 -222c0 -147 37 -221 110 -221c72 0 112 77 112 218c0 149 -37 225 -109 225zM309 551h-45l-164 147h111z" />
    <glyph glyph-name="otilde" unicode="&#xf5;" horiz-adv-x="469" 
d="M239 484c114 0 191 -101 191 -250c0 -141 -83 -245 -196 -245c-114 0 -194 101 -194 246c0 147 82 249 199 249zM237 458c-74 0 -113 -78 -113 -222c0 -147 37 -221 110 -221c72 0 112 77 112 218c0 149 -37 225 -109 225zM114 577l-28 8c21 73 45 98 93 98
c29 0 37 -4 89 -42c16 -11 29 -16 44 -16c29 0 44 14 57 52l28 -6c-7 -41 -15 -59 -34 -77c-18 -17 -39 -26 -61 -26c-25 0 -42 8 -82 38c-20 15 -32 20 -49 20c-27 0 -43 -14 -57 -49z" />
    <glyph glyph-name="scaron" unicode="&#x161;" horiz-adv-x="426" 
d="M53 -12v167h22c6 -32 12 -49 22 -70c20 -39 62 -64 108 -64c58 0 103 39 103 90c0 31 -15 51 -56 72c-1 1 -33 16 -97 45c-73 34 -95 62 -95 120c0 79 61 133 150 133c38 0 66 -9 102 -32l17 41h17v-155h-22c-9 80 -43 118 -105 118c-54 0 -94 -36 -94 -83
c0 -32 13 -49 56 -70c14 -7 21 -11 92 -41c75 -33 102 -66 102 -125c0 -83 -66 -143 -160 -143c-46 0 -83 13 -121 41l-24 -44h-17zM368 696l-132 -147h-47l-132 147h48l108 -86l107 86h48z" />
    <glyph glyph-name="uacute" unicode="&#xfa;" horiz-adv-x="538" 
d="M16 446v17c51 4 103 13 151 26v-333c0 -86 25 -119 90 -119c70 0 103 42 103 133v217c0 52 -7 58 -70 59v17c50 4 103 14 150 26v-406c0 -45 5 -48 74 -49v-18c-55 -5 -100 -14 -138 -26c-2 24 -3 40 -3 46c-2 17 -2 25 -3 45c-33 -64 -72 -89 -136 -89
c-54 0 -98 21 -123 59c-17 24 -24 57 -24 106v230c0 52 -7 58 -71 59zM208 551l98 147h110l-164 -147h-44z" />
    <glyph glyph-name="ucircumflex" unicode="&#xfb;" horiz-adv-x="538" 
d="M16 446v17c51 4 103 13 151 26v-333c0 -86 25 -119 90 -119c70 0 103 42 103 133v217c0 52 -7 58 -70 59v17c50 4 103 14 150 26v-406c0 -45 5 -48 74 -49v-18c-55 -5 -100 -14 -138 -26c-2 24 -3 40 -3 46c-2 17 -2 25 -3 45c-33 -64 -72 -89 -136 -89
c-54 0 -98 21 -123 59c-17 24 -24 57 -24 106v230c0 52 -7 58 -71 59zM109 552l132 147h47l132 -147h-48l-108 86l-107 -86h-48z" />
    <glyph glyph-name="udieresis" unicode="&#xfc;" horiz-adv-x="538" 
d="M16 446v17c51 4 103 13 151 26v-333c0 -86 25 -119 90 -119c70 0 103 42 103 133v217c0 52 -7 58 -70 59v17c50 4 103 14 150 26v-406c0 -45 5 -48 74 -49v-18c-55 -5 -100 -14 -138 -26c-2 24 -3 40 -3 46c-2 17 -2 25 -3 45c-33 -64 -72 -89 -136 -89
c-54 0 -98 21 -123 59c-17 24 -24 57 -24 106v230c0 52 -7 58 -71 59zM173 673c18 0 27 -4 37 -14c10 -11 17 -27 17 -38c0 -28 -27 -55 -54 -55c-29 0 -53 25 -53 54c0 32 21 53 53 53zM356 673c17 0 27 -4 36 -14c10 -11 17 -27 17 -38c0 -28 -26 -55 -54 -55
s-53 25 -53 54c0 32 22 53 54 53z" />
    <glyph glyph-name="ugrave" unicode="&#xf9;" horiz-adv-x="538" 
d="M16 446v17c51 4 103 13 151 26v-333c0 -86 25 -119 90 -119c70 0 103 42 103 133v217c0 52 -7 58 -70 59v17c50 4 103 14 150 26v-406c0 -45 5 -48 74 -49v-18c-55 -5 -100 -14 -138 -26c-2 24 -3 40 -3 46c-2 17 -2 25 -3 45c-33 -64 -72 -89 -136 -89
c-54 0 -98 21 -123 59c-17 24 -24 57 -24 106v230c0 52 -7 58 -71 59zM328 551h-44l-164 147h110z" />
    <glyph glyph-name="yacute" unicode="&#xfd;" horiz-adv-x="499" 
d="M233 16l-147 392c-14 37 -27 44 -76 47v20c45 -4 70 -5 102 -5s57 1 102 5v-20c-39 -3 -52 -8 -52 -21c0 -5 2 -14 7 -27l105 -289l110 286c7 19 8 21 8 28c0 16 -14 22 -57 23v20c30 -3 47 -4 74 -4s47 1 86 4v-20c-45 -5 -64 -17 -76 -49l-189 -489
c-17 -43 -42 -79 -68 -94c-17 -10 -58 -20 -77 -19c-8 1 -8 1 -14 1v50h10c60 0 96 26 121 87zM212 551l98 147h111l-164 -147h-45z" />
    <glyph glyph-name="ydieresis" unicode="&#xff;" horiz-adv-x="499" 
d="M233 16l-147 392c-14 37 -27 44 -76 47v20c45 -4 70 -5 102 -5s57 1 102 5v-20c-39 -3 -52 -8 -52 -21c0 -5 2 -14 7 -27l105 -289l110 286c7 19 8 21 8 28c0 16 -14 22 -57 23v20c30 -3 47 -4 74 -4s47 1 86 4v-20c-45 -5 -64 -17 -76 -49l-189 -489
c-17 -43 -42 -79 -68 -94c-17 -10 -58 -20 -77 -19c-8 1 -8 1 -14 1v50h10c60 0 96 26 121 87zM174 673c30 0 53 -23 53 -52s-26 -55 -54 -55s-53 26 -53 54c0 31 22 53 54 53zM356 673c18 0 27 -4 37 -14c10 -11 17 -28 17 -38c0 -28 -27 -55 -54 -55c-29 0 -53 25 -53 54
c0 32 21 53 53 53z" />
    <glyph glyph-name="zcaron" unicode="&#x17e;" horiz-adv-x="447" 
d="M400 696l-132 -152h-47l-132 152h48l108 -86l107 86h48zM34 0l271 446h-111c-65 0 -81 -14 -116 -104h-21l23 130h332l-272 -446h117c52 0 70 9 95 48c12 21 21 40 31 70h21l-26 -144h-344z" />
    <glyph glyph-name="parenleftsuperior" unicode="&#x207d;" horiz-adv-x="208" 
d="M143 667h28c-44 -73 -65 -157 -65 -256c0 -98 21 -182 65 -255h-28c-65 73 -93 151 -93 256c0 104 28 182 93 255z" />
    <glyph glyph-name="parenrightsuperior" unicode="&#x207e;" horiz-adv-x="208" 
d="M38 667h27c64 -61 94 -144 94 -256c0 -111 -30 -194 -94 -255h-27c45 72 65 151 65 255c0 105 -20 184 -65 256z" />
    <glyph glyph-name="zerooldstyle" unicode="&#xf730;" horiz-adv-x="495" 
d="M251 481c114 0 194 -100 194 -243c0 -144 -82 -247 -197 -247c-119 0 -198 99 -198 247c0 142 84 243 201 243zM249 452c-76 0 -116 -74 -116 -215c0 -147 37 -217 114 -217c76 0 115 73 115 217c0 142 -38 215 -113 215z" />
    <glyph glyph-name="oneoldstyle" unicode="&#xf731;" horiz-adv-x="351" 
d="M304 27v-30c-63 5 -93 6 -129 6s-65 -1 -129 -6v30c47 2 53 3 66 8c18 7 22 16 22 46v316c0 47 -8 52 -88 54v30c68 -5 97 -6 129 -6c33 0 61 1 129 6v-30c-80 -2 -88 -8 -88 -54v-316c0 -30 5 -39 22 -46c13 -5 19 -6 66 -8z" />
    <glyph glyph-name="twooldstyle" unicode="&#xf732;" horiz-adv-x="440" 
d="M390 72l-13 -72h-322v56c39 33 96 91 152 153c60 66 82 105 82 143c0 43 -37 74 -89 74c-62 0 -102 -33 -121 -100h-26c18 104 76 155 175 155c83 0 144 -49 144 -117c0 -63 -29 -99 -237 -292h255z" />
    <glyph glyph-name="threeoldstyle" unicode="&#xf733;" horiz-adv-x="420" 
d="M124 199v30c86 7 139 50 139 114c0 51 -35 85 -87 85c-61 0 -100 -33 -117 -99h-28c7 39 13 59 26 81c25 44 79 71 138 71c85 0 149 -55 149 -127c0 -56 -36 -102 -101 -130c77 -18 111 -57 111 -127c0 -97 -92 -196 -271 -293h-55c160 105 236 197 236 288
c0 44 -21 78 -58 94c-20 9 -40 12 -82 13z" />
    <glyph glyph-name="fouroldstyle" unicode="&#xf734;" horiz-adv-x="516" 
d="M298 -198v198h-273l278 472h72v-408h106v-64h-106v-198h-77zM298 64v344l-201 -344h201z" />
    <glyph glyph-name="fiveoldstyle" unicode="&#xf735;" horiz-adv-x="421" 
d="M370 472l-13 -72h-223l-19 -102c149 -10 230 -74 230 -184c0 -64 -31 -124 -101 -198c-45 -47 -87 -81 -141 -113h-49c143 105 212 198 212 287c0 55 -33 101 -90 125c-29 12 -62 19 -114 21l43 236h265z" />
    <glyph glyph-name="sixoldstyle" unicode="&#xf736;" horiz-adv-x="503" 
d="M337 665h46c-92 -100 -150 -174 -188 -243c30 10 49 13 72 13c108 0 186 -91 186 -218c0 -132 -83 -226 -200 -226c-120 0 -203 92 -203 225c0 87 34 169 109 265c42 55 51 64 178 184zM252 402c-76 0 -117 -66 -117 -186c0 -129 40 -196 115 -196s116 67 116 191
s-40 191 -114 191z" />
    <glyph glyph-name="sevenoldstyle" unicode="&#xf737;" horiz-adv-x="471" 
d="M63 -178l290 578h-324v72h407l-296 -650h-77z" />
    <glyph glyph-name="eightoldstyle" unicode="&#xf738;" horiz-adv-x="492" 
d="M326 342c77 -27 115 -81 115 -161c0 -114 -79 -190 -196 -190c-119 0 -195 73 -195 188c0 79 34 128 113 163c-67 29 -98 75 -98 146c0 104 74 173 184 173c107 0 176 -67 176 -170c0 -69 -32 -118 -99 -149zM248 326c-68 0 -115 -60 -115 -149c0 -97 43 -157 112 -157
c68 0 113 63 113 155c0 91 -44 151 -110 151zM248 632c-62 0 -100 -52 -100 -136c0 -90 35 -141 97 -141c59 0 97 53 97 137c0 89 -34 140 -94 140z" />
    <glyph glyph-name="nineoldstyle" unicode="&#xf739;" horiz-adv-x="490" 
d="M160 -192h-42c90 101 147 176 182 243c-30 -10 -45 -13 -70 -13c-105 0 -180 90 -180 217c0 132 80 226 194 226c116 0 196 -91 196 -225c0 -80 -25 -149 -86 -237c-42 -60 -70 -91 -167 -185zM246 452c-73 0 -111 -66 -111 -191s38 -190 109 -190c74 0 113 64 113 186
c0 129 -38 195 -111 195z" />
    <glyph glyph-name="commasuperior" unicode="&#xf6e2;" horiz-adv-x="165" 
d="M71 167h-41c29 28 52 65 58 95c-24 0 -38 13 -38 33c0 21 16 36 40 36c26 0 40 -15 40 -44c0 -36 -19 -74 -59 -120z" />
    <glyph glyph-name="periodsuperior" unicode="&#xf6e8;" horiz-adv-x="157" 
d="M79 331c21 0 37 -16 37 -37s-17 -39 -38 -39c-20 0 -38 18 -38 38c0 22 16 38 39 38z" />
    <glyph glyph-name="figuredash" unicode="&#x2012;" horiz-adv-x="523" 
d="M84 246v43h355v-43h-355z" />
    <glyph glyph-name="oneeighth" unicode="&#x215b;" horiz-adv-x="734" 
d="M204 670v-354c0 -30 4 -33 51 -36v-21c-31 3 -42 3 -80 3s-49 0 -80 -3v21c47 3 51 6 51 36v267h-70v21c53 2 92 27 105 66h23zM154 0l383 652h42l-383 -652h-42zM622 205c43 -16 65 -48 65 -95c0 -70 -49 -115 -124 -115c-77 0 -124 44 -124 114c0 46 21 77 64 96
c-37 18 -55 46 -55 86c0 63 48 106 117 106c67 0 113 -42 113 -104c0 -39 -19 -69 -56 -88zM564 192c-40 0 -67 -33 -67 -84c0 -56 24 -89 66 -89c41 0 66 33 66 88c0 53 -24 85 -65 85zM565 373c-36 0 -59 -30 -59 -77c0 -52 20 -80 57 -80c34 0 57 31 57 77
c0 50 -21 80 -55 80z" />
    <glyph glyph-name="threeeighths" unicode="&#x215c;" horiz-adv-x="734" 
d="M40 377h28c6 -60 30 -85 82 -85s85 32 85 83c0 56 -31 81 -100 81h-10v27h10c54 0 85 27 85 73c0 40 -25 65 -65 65c-44 0 -68 -23 -79 -73h-25c7 73 46 110 117 110c65 0 110 -40 110 -97c0 -41 -21 -69 -67 -87c56 -16 84 -49 84 -100c0 -68 -56 -118 -133 -118
c-78 0 -118 40 -122 121zM155 0l383 652h42l-383 -652h-42zM623 205c42 -16 65 -49 65 -95c0 -69 -49 -115 -125 -115s-124 44 -124 114c0 45 22 78 65 96c-38 18 -55 45 -55 86c0 63 47 106 117 106c68 0 112 -41 112 -104c0 -40 -18 -69 -55 -88zM565 192
c-40 0 -68 -34 -68 -84c0 -55 25 -89 67 -89c40 0 66 34 66 88c0 52 -25 85 -65 85zM565 373c-36 0 -58 -29 -58 -78c0 -52 19 -79 56 -79c35 0 57 29 57 77c0 51 -20 80 -55 80z" />
    <glyph glyph-name="fiveeighths" unicode="&#x215d;" horiz-adv-x="731" 
d="M268 605h-159l-19 -102c27 20 47 27 79 27c74 0 125 -53 125 -131c0 -84 -57 -143 -136 -143c-69 0 -106 35 -111 104h27c6 -47 28 -68 72 -68c53 0 88 42 88 105c0 61 -31 98 -81 98c-35 0 -57 -13 -76 -44l-24 1l36 200h185zM153 0l383 652h41l-382 -652h-42zM619 205
c44 -17 65 -48 65 -95c0 -70 -49 -115 -124 -115c-76 0 -124 44 -124 114c0 45 22 77 65 96c-37 17 -56 47 -56 86c0 62 49 106 117 106s112 -41 112 -104c0 -41 -18 -69 -55 -88zM562 193c-41 0 -68 -34 -68 -85c0 -57 25 -90 66 -90s66 33 66 88c0 54 -24 87 -64 87z
M562 374c-36 0 -59 -30 -59 -79c0 -51 20 -79 57 -79c36 0 56 27 56 78c0 53 -19 80 -54 80z" />
    <glyph glyph-name="seveneighths" unicode="&#x215e;" horiz-adv-x="734" 
d="M64 261l180 341h-205v50h265l-186 -391h-54zM155 0l383 652h42l-383 -652h-42zM623 205c42 -16 65 -49 65 -95c0 -69 -50 -115 -125 -115c-76 0 -124 44 -124 114c0 45 22 78 65 96c-37 18 -56 47 -56 86c0 62 49 106 118 106c67 0 112 -42 112 -104
c0 -40 -18 -69 -55 -88zM565 192c-40 0 -68 -34 -68 -84c0 -55 25 -89 66 -89s67 35 67 88c0 52 -25 85 -65 85zM565 373c-35 0 -59 -31 -59 -78c0 -50 21 -79 57 -79c35 0 57 30 57 77c0 51 -20 80 -55 80z" />
    <glyph glyph-name="onethird" unicode="&#x2153;" horiz-adv-x="734" 
d="M204 670v-354c0 -30 4 -33 51 -36v-21c-31 3 -42 3 -80 3s-49 0 -80 -3v21c47 3 51 6 51 36v267h-70v21c53 2 92 27 105 66h23zM154 0l383 652h42l-383 -652h-42zM432 116h28c6 -61 28 -84 82 -84s85 30 85 82c0 56 -31 81 -100 81h-10v27h10c54 0 85 27 85 73
c0 40 -24 64 -65 64c-45 0 -68 -22 -79 -72h-25c7 73 46 109 117 109c66 0 110 -39 110 -96c0 -41 -21 -69 -67 -87c56 -16 84 -49 84 -100c0 -69 -55 -118 -133 -118s-118 40 -122 121z" />
    <glyph glyph-name="twothirds" unicode="&#x2154;" horiz-adv-x="731" 
d="M289 308l-6 -48h-238v38c130 143 180 216 180 261c0 35 -27 60 -64 60c-26 0 -52 -13 -66 -34c-8 -12 -12 -24 -16 -49h-26c4 44 10 65 26 84c20 23 56 38 94 38c64 0 112 -40 112 -93c0 -49 -22 -80 -182 -257h186zM153 0l383 652h42l-383 -652h-42zM430 115h27
c6 -60 29 -84 82 -84s87 32 87 82c0 36 -18 65 -47 75c-10 3 -38 7 -52 7h-12v27h13c51 0 81 27 81 74c0 41 -24 65 -64 65c-44 0 -68 -23 -79 -73h-25c7 73 46 109 117 109c65 0 109 -39 109 -96c0 -42 -19 -68 -67 -88c58 -18 85 -50 85 -100c0 -68 -57 -118 -133 -118
c-78 0 -118 39 -122 120z" />
    <glyph glyph-name="zerosuperior" unicode="&#x2070;" horiz-adv-x="341" 
d="M171 658c83 0 132 -75 132 -201c0 -127 -49 -201 -132 -201c-85 0 -134 74 -134 202c0 123 51 200 134 200zM171 634c-49 0 -74 -61 -74 -177c0 -117 25 -177 75 -177c48 0 71 57 71 177c0 117 -24 177 -72 177z" />
    <glyph glyph-name="foursuperior" unicode="&#x2074;" horiz-adv-x="336" 
d="M188 255v111h-170l172 300h56v-256h69v-44h-69v-111h-58zM189 410v205l-115 -205h115z" />
    <glyph glyph-name="fivesuperior" unicode="&#x2075;" horiz-adv-x="341" 
d="M268 605h-159l-19 -102c27 20 47 27 79 27c74 0 125 -53 125 -131c0 -84 -56 -143 -137 -143c-68 0 -105 35 -110 104h27c6 -47 29 -68 72 -68c53 0 88 42 88 106c0 60 -31 97 -82 97c-34 0 -56 -13 -75 -44l-24 1l36 200h185z" />
    <glyph glyph-name="sixsuperior" unicode="&#x2076;" horiz-adv-x="341" 
d="M234 676h41c-41 -33 -107 -106 -132 -148c13 4 21 5 37 5c70 0 120 -56 120 -136c0 -82 -54 -141 -130 -141c-78 0 -132 58 -132 140c0 63 31 121 102 195c32 33 70 68 94 85zM169 507c-46 0 -70 -37 -70 -111c0 -78 23 -116 69 -116c47 0 70 38 70 114
c0 75 -23 113 -69 113z" />
    <glyph glyph-name="sevensuperior" unicode="&#x2077;" horiz-adv-x="341" 
d="M64 261l180 341h-205v50h265l-186 -391h-54z" />
    <glyph glyph-name="eightsuperior" unicode="&#x2078;" horiz-adv-x="341" 
d="M229 466c43 -16 66 -49 66 -95c0 -69 -51 -116 -125 -116c-75 0 -124 45 -124 115c0 45 21 76 65 95c-37 17 -56 47 -56 87c0 62 49 106 118 106c67 0 112 -42 112 -105c0 -39 -19 -69 -56 -87zM172 453c-40 0 -68 -35 -68 -85c0 -54 26 -89 66 -89s67 36 67 88
s-26 86 -65 86zM172 634c-36 0 -59 -31 -59 -78c0 -50 20 -79 57 -79c35 0 57 29 57 77c0 51 -20 80 -55 80z" />
    <glyph glyph-name="ninesuperior" unicode="&#x2079;" horiz-adv-x="341" 
d="M114 236h-41c53 49 109 116 125 149c-16 -4 -23 -5 -35 -5c-68 0 -116 57 -116 137c0 82 52 141 124 141c75 0 126 -58 126 -142c0 -63 -27 -119 -95 -193c-31 -35 -61 -65 -88 -87zM172 634c-43 0 -65 -38 -65 -111c0 -76 23 -117 65 -117c44 0 66 36 66 110
c0 79 -22 118 -66 118z" />
    <glyph glyph-name="zeroinferior" unicode="&#x2080;" horiz-adv-x="341" 
d="M171 397c83 0 132 -75 132 -201c0 -127 -49 -201 -133 -201s-133 74 -133 202c0 123 52 200 134 200zM171 373c-49 0 -74 -61 -74 -177c0 -118 25 -177 75 -177c48 0 71 57 71 177c0 117 -25 177 -72 177z" />
    <glyph glyph-name="oneinferior" unicode="&#x2081;" horiz-adv-x="341" 
d="M204 410v-355c0 -30 3 -32 51 -36v-21c-33 3 -49 4 -80 4s-47 -1 -80 -4v21c48 4 51 6 51 36v267h-70v21c53 3 93 28 105 67h23z" />
    <glyph glyph-name="twoinferior" unicode="&#x2082;" horiz-adv-x="341" 
d="M289 48l-6 -48h-238v38c132 146 180 215 180 260c0 35 -26 59 -64 59c-47 0 -73 -26 -82 -82h-26c4 44 10 65 26 83c21 25 54 38 95 38c65 0 111 -38 111 -92c0 -38 -18 -70 -80 -142c-19 -22 -53 -60 -102 -114h186z" />
    <glyph glyph-name="threeinferior" unicode="&#x2083;" horiz-adv-x="341" 
d="M40 116h28c6 -61 28 -84 82 -84s85 30 85 82c0 56 -31 81 -100 81h-10v27h10c54 0 85 27 85 73c0 40 -24 64 -65 64c-45 0 -68 -22 -79 -72h-25c7 73 46 109 117 109c66 0 110 -39 110 -96c0 -41 -21 -69 -67 -87c56 -16 84 -49 84 -100c0 -69 -55 -118 -133 -118
s-118 40 -122 121z" />
    <glyph glyph-name="fourinferior" unicode="&#x2084;" horiz-adv-x="341" 
d="M192 -9v111h-170l172 300h56v-256h69v-44h-69v-111h-58zM193 146v205l-115 -205h115z" />
    <glyph glyph-name="fiveinferior" unicode="&#x2085;" horiz-adv-x="341" 
d="M268 345h-159l-19 -102c27 19 48 27 79 27c74 0 125 -54 125 -132c0 -83 -57 -143 -136 -143c-69 0 -106 35 -111 104h27c6 -47 29 -68 72 -68c53 0 88 42 88 105c0 61 -32 99 -81 99c-34 0 -58 -14 -76 -45l-24 2l36 200h185z" />
    <glyph glyph-name="sixinferior" unicode="&#x2086;" horiz-adv-x="341" 
d="M234 416h41c-53 -46 -103 -103 -132 -149c11 3 27 6 37 6c69 0 120 -59 120 -137c0 -83 -54 -141 -130 -141c-78 0 -132 57 -132 140c0 63 31 121 102 195c30 31 62 61 94 86zM169 247c-45 0 -70 -39 -70 -112c0 -78 23 -116 69 -116c47 0 70 38 70 114
c0 74 -24 114 -69 114z" />
    <glyph glyph-name="seveninferior" unicode="&#x2087;" horiz-adv-x="341" 
d="M64 0l180 341h-205v50h265l-186 -391h-54z" />
    <glyph glyph-name="eightinferior" unicode="&#x2088;" horiz-adv-x="341" 
d="M229 205c43 -15 66 -49 66 -95c0 -69 -50 -115 -125 -115c-76 0 -124 44 -124 114c0 45 22 78 65 96c-37 18 -56 46 -56 86c0 62 49 106 118 106c67 0 112 -42 112 -104c0 -40 -18 -69 -56 -88zM172 192c-41 0 -68 -34 -68 -84c0 -56 25 -89 66 -89s67 35 67 88
c0 52 -26 85 -65 85zM172 373c-36 0 -59 -31 -59 -77c0 -51 21 -80 57 -80c35 0 57 30 57 78c0 50 -20 79 -55 79z" />
    <glyph glyph-name="nineinferior" unicode="&#x2089;" horiz-adv-x="341" 
d="M114 -25h-41c52 48 110 116 125 149c-18 -4 -22 -5 -34 -5c-69 0 -117 57 -117 137c0 82 51 140 124 140c76 0 126 -56 126 -141c0 -63 -27 -119 -95 -193c-30 -34 -61 -65 -88 -87zM172 372c-43 0 -65 -37 -65 -111c0 -76 23 -116 66 -116s65 36 65 109
c0 80 -21 118 -66 118z" />
    <glyph glyph-name="uni01CD" unicode="&#x1cd;" horiz-adv-x="643" 
d="M413 193h-234l-33 -94c-8 -24 -12 -39 -12 -47c0 -20 17 -28 66 -31v-24c-41 4 -63 5 -95 5s-54 -1 -95 -5v24c61 4 74 13 96 71l228 596l206 -607c16 -46 30 -55 93 -60v-24c-56 6 -85 8 -122 8s-66 -2 -122 -8v24c47 4 64 12 64 30c0 6 -4 26 -6 34zM191 224h212
l-98 306zM503 859l-142 -136h-55l-143 136h50l120 -83l121 83h49z" />
    <glyph glyph-name="Abreve" unicode="&#x102;" horiz-adv-x="643" 
d="M413 193h-234l-33 -94c-8 -24 -12 -39 -12 -47c0 -20 17 -28 66 -31v-24c-41 4 -63 5 -95 5s-54 -1 -95 -5v24c61 4 74 13 96 71l228 596l206 -607c16 -46 30 -55 93 -60v-24c-56 6 -85 8 -122 8s-66 -2 -122 -8v24c47 4 64 12 64 30c0 6 -4 26 -6 34zM191 224h212
l-98 306zM435 859h34c-10 -84 -61 -135 -136 -135c-74 0 -125 51 -135 135h34c20 -49 54 -73 101 -73c48 0 82 24 102 73z" />
    <glyph glyph-name="Aogonek" unicode="&#x104;" horiz-adv-x="643" 
d="M633 21v-23c-21 -3 -40 -11 -68 -29c-26 -17 -37 -32 -37 -52c0 -28 23 -47 55 -47c15 0 27 2 51 9v-32c-33 -12 -53 -16 -78 -16c-57 0 -96 31 -96 77c0 42 34 72 108 95c-35 2 -48 2 -59 2c-36 0 -61 -2 -120 -8v24c47 4 64 12 64 30c0 6 -4 26 -6 34l-34 108h-234
l-33 -94c-8 -24 -12 -39 -12 -47c0 -20 17 -28 66 -31v-24c-41 4 -63 5 -95 5s-54 -1 -95 -5v24c61 4 74 13 96 71l228 596l206 -607c16 -46 30 -55 93 -60zM191 224h212l-98 306z" />
    <glyph glyph-name="Cacute" unicode="&#x106;" horiz-adv-x="600" 
d="M502 225h36c-2 -56 -11 -91 -31 -129c-36 -68 -107 -109 -190 -109c-158 0 -265 139 -265 345c0 98 25 185 71 250c45 63 115 97 197 97c66 0 112 -17 157 -59l35 57h18v-196h-23c-28 113 -84 166 -175 166c-66 0 -116 -30 -145 -89c-29 -57 -45 -135 -45 -222
c0 -193 69 -304 189 -304c100 0 164 71 171 193zM253 724l126 137h121l-197 -137h-50z" />
    <glyph glyph-name="Ccaron" unicode="&#x10c;" horiz-adv-x="600" 
d="M502 225h36c-2 -56 -11 -91 -31 -129c-36 -68 -107 -109 -190 -109c-158 0 -265 139 -265 345c0 98 25 185 71 250c45 63 115 97 197 97c66 0 112 -17 157 -59l35 57h18v-196h-23c-28 113 -84 166 -175 166c-66 0 -116 -30 -145 -89c-29 -57 -45 -135 -45 -222
c0 -193 69 -304 189 -304c100 0 164 71 171 193zM494 859l-143 -136h-54l-143 136h50l120 -83l120 83h50z" />
    <glyph glyph-name="Cdotaccent" unicode="&#x10a;" horiz-adv-x="600" 
d="M502 225h36c-2 -56 -11 -91 -31 -129c-36 -68 -107 -109 -190 -109c-158 0 -265 139 -265 345c0 98 25 185 71 250c45 63 115 97 197 97c66 0 112 -17 157 -59l35 57h18v-196h-23c-28 113 -84 166 -175 166c-66 0 -116 -30 -145 -89c-29 -57 -45 -135 -45 -222
c0 -193 69 -304 189 -304c100 0 164 71 171 193zM327 849c32 0 55 -24 55 -56c0 -33 -24 -57 -56 -57c-31 0 -57 26 -57 57c0 32 25 56 58 56z" />
    <glyph glyph-name="Dcaron" unicode="&#x10e;" horiz-adv-x="635" 
d="M28 642v25h245c96 0 155 -18 205 -65c69 -63 110 -163 110 -269s-43 -210 -111 -269c-51 -44 -115 -64 -205 -64h-244v24c73 6 82 13 82 67v485c0 53 -10 62 -82 66zM195 636v-555c0 -45 9 -52 65 -52c77 0 129 18 165 56c49 52 74 138 74 250c0 105 -22 185 -66 239
c-34 43 -84 62 -158 62h-80zM457 859l-142 -135h-57l-141 135h49l121 -83l120 83h50z" />
    <glyph glyph-name="Dcroat" unicode="&#x110;" horiz-adv-x="635" 
d="M28 642v25h245c97 0 155 -18 206 -65c68 -63 109 -163 109 -269c0 -107 -43 -210 -111 -269c-51 -44 -115 -64 -205 -64h-244v24c74 6 82 13 82 67v240h-82v37h82v208c0 53 -10 62 -82 66zM195 636v-268h153v-37h-153v-250c0 -45 9 -52 65 -52c77 0 129 18 165 56
c49 52 74 137 74 249c0 106 -22 185 -65 239c-35 44 -85 63 -159 63h-80z" />
    <glyph glyph-name="Ecaron" unicode="&#x11a;" horiz-adv-x="543" 
d="M496 161l-23 -161h-441v25c73 5 82 12 82 66v485c0 53 -10 62 -82 66v25h435l18 -150h-23c-25 95 -48 119 -118 119h-145v-274h143c45 0 56 15 59 82h25v-196h-25c-2 65 -16 83 -64 83h-138v-241c0 -48 13 -59 67 -59h71c79 0 110 29 136 130h23zM447 859l-142 -135h-56
l-142 135h50l120 -83l120 83h50z" />
    <glyph glyph-name="Edotaccent" unicode="&#x116;" horiz-adv-x="543" 
d="M496 161l-23 -161h-441v25c73 5 82 12 82 66v485c0 53 -10 62 -82 66v25h435l18 -150h-23c-25 95 -48 119 -118 119h-145v-274h143c45 0 56 15 59 82h25v-196h-25c-2 65 -16 83 -64 83h-138v-241c0 -48 13 -59 67 -59h71c79 0 110 29 136 130h23zM278 849
c32 0 55 -23 55 -56s-24 -57 -56 -57c-31 0 -57 26 -57 57c0 32 25 56 58 56z" />
    <glyph glyph-name="Eogonek" unicode="&#x118;" horiz-adv-x="543" 
d="M495 161l-23 -161c-69 -24 -105 -52 -105 -84c0 -26 24 -46 56 -46c14 0 27 2 50 9v-32c-32 -12 -52 -16 -77 -16c-57 0 -97 32 -97 77c0 39 34 70 100 92h-367v25c73 5 82 12 82 66v485c0 53 -10 62 -82 66v25h435l18 -150h-23c-25 96 -48 119 -118 119h-145v-274h143
c45 0 56 15 59 82h25v-196h-25c-2 63 -16 83 -58 83h-144v-241c0 -48 13 -59 67 -59h71c58 0 82 11 104 50c13 22 23 46 31 80h23z" />
    <glyph glyph-name="Gcaron" unicode="&#x1e6;" horiz-adv-x="635" 
d="M536 679v-198h-23c-13 44 -21 64 -37 90c-30 49 -84 78 -144 78c-69 0 -126 -36 -155 -98c-25 -56 -39 -131 -39 -214c0 -81 13 -157 36 -214c27 -67 83 -105 156 -105c46 0 83 11 134 38v169c0 37 -13 46 -77 50v24c52 -5 79 -6 113 -6s62 1 114 6v-24
c-65 -5 -71 -9 -71 -52v-162c-84 -51 -148 -72 -223 -72c-166 0 -272 136 -272 348c0 208 106 341 272 341c63 0 109 -16 158 -57l40 58h18zM491 859l-142 -135h-56l-142 135h50l120 -83l120 83h50z" />
    <glyph glyph-name="Gbreve" unicode="&#x11e;" horiz-adv-x="635" 
d="M536 679v-198h-23c-13 44 -21 64 -37 90c-30 49 -84 78 -144 78c-69 0 -126 -36 -155 -98c-25 -56 -39 -131 -39 -214c0 -81 13 -157 36 -214c27 -67 83 -105 156 -105c46 0 83 11 134 38v169c0 37 -13 46 -77 50v24c52 -5 79 -6 113 -6s62 1 114 6v-24
c-65 -5 -71 -9 -71 -52v-162c-84 -51 -148 -72 -223 -72c-166 0 -272 136 -272 348c0 208 106 341 272 341c63 0 109 -16 158 -57l40 58h18zM423 859h34c-10 -84 -62 -135 -136 -135s-126 51 -136 135h34c21 -49 54 -73 102 -73s81 24 102 73z" />
    <glyph glyph-name="Gdotaccent" unicode="&#x120;" horiz-adv-x="635" 
d="M536 679v-198h-23c-13 44 -21 64 -37 90c-30 49 -84 78 -144 78c-69 0 -126 -36 -155 -98c-25 -56 -39 -131 -39 -214c0 -81 13 -157 36 -214c27 -67 83 -105 156 -105c46 0 83 11 134 38v169c0 37 -13 46 -77 50v24c52 -5 79 -6 113 -6s62 1 114 6v-24
c-65 -5 -71 -9 -71 -52v-162c-84 -51 -148 -72 -223 -72c-166 0 -272 136 -272 348c0 208 106 341 272 341c63 0 109 -16 158 -57l40 58h18zM322 850c30 0 56 -27 56 -57c0 -31 -26 -57 -57 -57s-57 26 -57 57s26 57 58 57z" />
    <glyph glyph-name="Idotaccent" unicode="&#x130;" horiz-adv-x="314" 
d="M282 21v-24c-66 6 -94 8 -126 8c-31 0 -59 -2 -124 -8v24c74 6 82 13 82 67v491c0 54 -9 61 -82 67v24c55 -5 82 -7 124 -7c43 0 71 2 126 7v-24c-74 -6 -83 -13 -83 -67v-491c0 -54 8 -61 83 -67zM158 850c30 0 56 -27 56 -57c0 -31 -26 -57 -57 -57s-57 26 -57 57
s26 57 58 57z" />
    <glyph glyph-name="Lacute" unicode="&#x139;" horiz-adv-x="505" 
d="M496 161l-23 -161h-441v25c73 5 82 13 82 66v488c0 54 -9 61 -82 67v24c55 -5 82 -7 124 -7c43 0 71 2 126 7v-24c-74 -6 -83 -13 -83 -67v-486c0 -48 13 -59 67 -59h71c79 0 110 29 136 127h23zM109 724l126 137h121l-196 -137h-51z" />
    <glyph glyph-name="Lcaron" unicode="&#x13d;" horiz-adv-x="505" 
d="M496 161l-23 -161h-441v25c73 5 82 13 82 66v488c0 54 -9 61 -82 67v24c55 -5 82 -7 124 -7c43 0 71 2 126 7v-24c-74 -6 -83 -13 -83 -67v-486c0 -48 13 -59 67 -59h71c79 0 110 29 136 127h23zM373 484h-45c36 32 58 71 58 102l-4 1l-5 -1c-1 -1 -2 -1 -2 -1
c-7 -1 -26 5 -31 10c-10 8 -15 20 -15 36c0 29 21 49 51 49c34 0 52 -22 52 -66c0 -45 -17 -82 -59 -130z" />
    <glyph glyph-name="Nacute" unicode="&#x143;" horiz-adv-x="673" 
d="M561 -20h-15c-7 11 -15 23 -22 35c-20 30 -32 49 -81 124l-295 444v-495c0 -54 8 -61 83 -67v-24c-58 4 -79 5 -101 5c-24 0 -45 -1 -98 -5v24c75 6 83 13 83 67v528c-18 20 -38 27 -84 30v24c31 -2 50 -3 85 -3c33 0 45 1 72 3l339 -507v416c0 54 -10 61 -82 67v24
c57 -4 78 -5 101 -5c24 0 45 1 98 5v-24c-73 -6 -83 -13 -83 -67v-599zM281 724l126 137h121l-197 -137h-50z" />
    <glyph glyph-name="Ncaron" unicode="&#x147;" horiz-adv-x="673" 
d="M561 -20h-15c-7 11 -15 23 -22 35c-20 30 -32 49 -81 124l-295 444v-495c0 -54 8 -61 83 -67v-24c-58 4 -79 5 -101 5c-24 0 -45 -1 -98 -5v24c75 6 83 13 83 67v528c-18 20 -38 27 -84 30v24c31 -2 50 -3 85 -3c33 0 45 1 72 3l339 -507v416c0 54 -10 61 -82 67v24
c57 -4 78 -5 101 -5c24 0 45 1 98 5v-24c-73 -6 -83 -13 -83 -67v-599zM504 859l-142 -135h-56l-142 135h50l120 -83l120 83h50z" />
    <glyph glyph-name="Ohungarumlaut" unicode="&#x150;" horiz-adv-x="632" 
d="M315 680c165 0 269 -135 269 -350c0 -207 -105 -342 -266 -342c-165 0 -270 135 -270 347c0 208 106 345 267 345zM318 652c-113 0 -180 -118 -180 -315c0 -202 67 -321 180 -321c112 0 176 115 176 317c0 204 -64 319 -176 319zM203 724l108 137h95l-157 -137h-46z
M359 724l109 137h96l-159 -137h-46z" />
    <glyph glyph-name="Racute" unicode="&#x154;" horiz-adv-x="596" 
d="M198 317v-229c0 -54 8 -61 83 -67v-24c-64 6 -92 8 -124 8s-60 -2 -125 -8v24c74 6 82 13 82 67v488c0 53 -10 62 -82 66v25h268c63 0 104 -10 138 -33c46 -30 76 -87 76 -143c0 -60 -34 -117 -85 -143c-22 -11 -44 -18 -79 -25c42 -12 61 -31 86 -86l69 -158
c21 -48 32 -56 81 -58v-24c-30 2 -46 3 -66 3c-19 0 -35 -1 -66 -3c-11 23 -15 33 -27 61l-77 179c-28 64 -50 80 -114 80h-38zM199 348h84c95 0 146 51 146 147c0 92 -48 141 -141 141h-89v-288zM205 724l126 137h121l-197 -137h-50z" />
    <glyph glyph-name="Rcaron" unicode="&#x158;" horiz-adv-x="596" 
d="M198 317v-229c0 -54 8 -61 83 -67v-24c-64 6 -92 8 -124 8s-60 -2 -125 -8v24c74 6 82 13 82 67v488c0 53 -10 62 -82 66v25h268c63 0 104 -10 138 -33c46 -30 76 -87 76 -143c0 -60 -34 -117 -85 -143c-22 -11 -44 -18 -79 -25c42 -12 61 -31 86 -86l69 -158
c21 -48 32 -56 81 -58v-24c-30 2 -46 3 -66 3c-19 0 -35 -1 -66 -3c-11 23 -15 33 -27 61l-77 179c-28 64 -50 80 -114 80h-38zM199 348h84c95 0 146 51 146 147c0 92 -48 141 -141 141h-89v-288zM441 859l-141 -135h-57l-142 135h50l120 -83l121 83h49z" />
    <glyph glyph-name="Sacute" unicode="&#x15a;" horiz-adv-x="519" 
d="M58 202h23c20 -119 80 -180 177 -180c81 0 138 55 138 132c0 40 -15 72 -44 94c-21 15 -31 22 -96 55c-96 49 -121 64 -145 87c-29 28 -42 63 -42 110c0 106 76 176 190 176c55 0 92 -14 131 -52l30 56h18v-184h-24c-23 102 -70 150 -147 150c-71 0 -126 -54 -126 -123
c0 -39 18 -67 57 -92c24 -15 24 -15 98 -51c64 -32 88 -46 114 -66c40 -30 60 -75 60 -132c0 -114 -81 -191 -199 -191c-63 0 -110 17 -159 58l-36 -64h-18v217zM200 724l126 137h121l-197 -137h-50z" />
    <glyph glyph-name="Scedilla" unicode="&#x15e;" horiz-adv-x="519" 
d="M281 -9l-26 -49c29 -2 43 -6 56 -14c21 -12 33 -34 33 -58c0 -45 -40 -79 -93 -79c-25 0 -49 5 -80 16v33c26 -7 37 -9 52 -9c32 0 55 18 55 45c0 17 -12 32 -31 38c-11 4 -24 5 -49 6l39 73c-54 8 -86 22 -125 56l-36 -64h-18v217h23c20 -119 80 -180 177 -180
c81 0 138 55 138 132c0 40 -15 72 -45 94c-20 16 -30 21 -96 55c-95 48 -121 64 -144 87c-29 28 -42 63 -42 110c0 106 76 176 190 176c55 0 92 -15 131 -52l30 56h18v-184h-24c-23 103 -70 150 -147 150c-72 0 -126 -53 -126 -123c0 -39 17 -67 56 -91
c24 -15 24 -15 98 -52c65 -33 89 -47 115 -66c40 -30 60 -74 60 -132c0 -111 -72 -184 -189 -191z" />
    <glyph glyph-name="Tcaron" unicode="&#x164;" horiz-adv-x="529" 
d="M305 636v-548c0 -54 8 -61 82 -67v-24c-62 6 -91 8 -124 8c-34 0 -62 -2 -126 -8v24c75 6 83 13 83 67v548h-54c-71 0 -94 -23 -124 -122h-24l27 153h437l28 -153h-24c-27 99 -50 122 -118 122h-63zM434 859l-142 -135h-56l-142 135h50l120 -83l120 83h50z" />
    <glyph glyph-name="Uring" unicode="&#x16e;" horiz-adv-x="665" 
d="M439 646v24c57 -4 78 -5 101 -5c24 0 45 1 98 5v-24c-74 -6 -83 -13 -83 -67v-366c0 -67 -9 -103 -34 -140c-39 -55 -104 -84 -189 -84c-75 0 -136 23 -177 68c-34 37 -47 77 -47 148v374c0 54 -9 61 -82 67v24c55 -5 82 -7 125 -7c42 0 70 2 125 7v-24
c-74 -6 -83 -13 -83 -67v-382c0 -63 8 -91 32 -117c28 -31 72 -47 126 -47c66 0 121 25 147 66c16 26 23 60 23 109v371c0 54 -9 61 -82 67zM359 879c45 0 83 -39 83 -84c0 -46 -38 -84 -84 -84s-83 38 -83 84c0 47 37 84 84 84zM359 844c-27 0 -49 -22 -49 -49
s22 -49 48 -49c27 0 49 22 49 49c0 26 -22 49 -48 49z" />
    <glyph glyph-name="Uhungarumlaut" unicode="&#x170;" horiz-adv-x="665" 
d="M439 646v24c57 -4 78 -5 101 -5c24 0 45 1 98 5v-24c-74 -6 -83 -13 -83 -67v-366c0 -67 -9 -103 -34 -140c-39 -55 -104 -84 -189 -84c-75 0 -136 23 -177 68c-34 37 -47 77 -47 148v374c0 54 -9 61 -82 67v24c55 -5 82 -7 125 -7c42 0 70 2 125 7v-24
c-74 -6 -83 -13 -83 -67v-382c0 -63 8 -91 32 -117c28 -31 72 -47 126 -47c66 0 121 25 147 66c16 26 23 60 23 109v371c0 54 -9 61 -82 67zM230 724l108 137h95l-157 -137h-46zM387 724l108 137h97l-159 -137h-46z" />
    <glyph glyph-name="Zacute" unicode="&#x179;" horiz-adv-x="538" 
d="M31 0l361 636h-167c-75 0 -105 -27 -129 -117h-25l26 148h407l-361 -636h189c63 0 83 8 110 46c14 20 26 45 40 85h24l-29 -162h-446zM231 724l126 137h121l-197 -137h-50z" />
    <glyph glyph-name="Zdotaccent" unicode="&#x17b;" horiz-adv-x="538" 
d="M31 0l361 636h-167c-75 0 -105 -27 -129 -117h-25l26 148h407l-361 -636h189c63 0 83 8 110 46c14 20 26 45 40 85h24l-29 -162h-446zM302 850c30 0 56 -27 56 -57c0 -31 -26 -57 -57 -57s-57 26 -57 57s26 57 58 57z" />
    <glyph glyph-name="Amacron" unicode="&#x100;" horiz-adv-x="643" 
d="M413 193h-234l-33 -94c-8 -24 -12 -39 -12 -47c0 -20 17 -28 66 -31v-24c-41 4 -63 5 -95 5s-54 -1 -95 -5v24c61 4 74 13 96 71l228 596l206 -607c16 -46 30 -55 93 -60v-24c-56 6 -85 8 -122 8s-66 -2 -122 -8v24c47 4 64 12 64 30c0 6 -4 26 -6 34zM191 224h212
l-98 306zM172 761v51h322v-51h-322z" />
    <glyph glyph-name="Tcommaaccent" unicode="&#x162;" horiz-adv-x="529" 
d="M305 636v-548c0 -54 8 -61 82 -67v-24c-62 6 -91 8 -124 8c-34 0 -62 -2 -126 -8v24c75 6 83 13 83 67v548h-54c-71 0 -94 -23 -124 -122h-24l27 153h437l28 -153h-24c-27 99 -50 122 -118 122h-63zM257 -241h-44c32 29 53 63 57 94h-4c-3 -1 -5 -1 -6 -1
c-29 0 -46 17 -46 44c0 30 19 48 50 48c34 0 53 -22 53 -59c0 -39 -19 -80 -60 -126z" />
    <glyph glyph-name="Ccircumflex" unicode="&#x108;" horiz-adv-x="600" 
d="M502 225h36c-2 -56 -11 -91 -31 -129c-36 -68 -107 -109 -190 -109c-158 0 -265 139 -265 345c0 98 25 185 71 250c45 63 115 97 197 97c66 0 112 -17 157 -59l35 57h18v-196h-23c-28 113 -84 166 -175 166c-66 0 -116 -30 -145 -89c-29 -57 -45 -135 -45 -222
c0 -193 69 -304 189 -304c100 0 164 71 171 193zM159 725l143 136h54l143 -136h-50l-120 83l-120 -83h-50z" />
    <glyph glyph-name="Wcircumflex" unicode="&#x174;" horiz-adv-x="877" 
d="M281 -12h-20l-162 599c-12 43 -29 56 -81 59v24c45 -5 70 -7 116 -7s71 2 116 7v-24c-51 -5 -67 -12 -67 -32c0 -5 0 -6 6 -28l112 -415l153 511h23l150 -512l114 413c5 16 7 27 7 33c0 20 -16 27 -63 30v24c35 -4 55 -5 87 -5c33 0 53 1 88 5v-24
c-52 -3 -70 -15 -81 -53l-170 -604h-19l-152 539zM294 725l142 135h56l142 -135h-49l-121 83l-120 -83h-50z" />
    <glyph glyph-name="Wdieresis" unicode="&#x1e84;" horiz-adv-x="877" 
d="M281 -12h-20l-162 599c-12 43 -29 56 -81 59v24c45 -5 70 -7 116 -7s71 2 116 7v-24c-51 -5 -67 -12 -67 -32c0 -5 0 -6 6 -28l112 -415l153 511h23l150 -512l114 413c5 16 7 27 7 33c0 20 -16 27 -63 30v24c35 -4 55 -5 87 -5c33 0 53 1 88 5v-24
c-52 -3 -70 -15 -81 -53l-170 -604h-19l-152 539zM376 849c32 0 55 -23 55 -56s-24 -57 -56 -57c-31 0 -57 26 -57 57c0 32 25 56 58 56zM554 849c32 0 56 -24 56 -56s-25 -57 -57 -57c-31 0 -56 25 -56 57s24 56 57 56z" />
    <glyph glyph-name="Ycircumflex" unicode="&#x176;" horiz-adv-x="592" 
d="M255 291l-149 295c-22 45 -38 55 -93 60v24c52 -5 81 -7 123 -7s71 2 123 7v-24c-54 -4 -70 -10 -70 -28c0 -7 3 -15 10 -30l128 -254l128 255c6 13 9 23 9 30c0 18 -15 23 -68 27v24c42 -4 65 -5 93 -5s50 1 92 5v-24c-56 -6 -70 -15 -91 -54l-150 -301v-203
c0 -54 8 -61 82 -67v-24c-65 6 -93 8 -125 8c-31 0 -59 -2 -125 -8v24c75 6 83 13 83 67v203zM149 725l142 135h56l142 -135h-49l-121 83l-120 -83h-50z" />
    <glyph glyph-name="Hbar" unicode="&#x126;" horiz-adv-x="678" 
d="M479 521v58c0 54 -9 61 -82 67v24c55 -5 82 -7 125 -7c42 0 70 2 124 7v-24c-74 -6 -83 -13 -83 -67v-58h83v-37h-83v-396c0 -54 8 -61 83 -67v-24c-64 6 -92 8 -124 8s-60 -2 -125 -8v24c74 6 82 13 82 67v244h-281v-244c0 -54 8 -61 83 -67v-24c-66 6 -94 8 -126 8
s-60 -2 -123 -8v24c74 6 82 13 82 67v396h-82v37h82v58c0 54 -9 61 -82 67v24c54 -5 81 -7 123 -7c43 0 71 2 126 7v-24c-74 -6 -83 -13 -83 -67v-58h281zM479 484h-281v-121h281v121z" />
    <glyph glyph-name="Emacron" unicode="&#x112;" horiz-adv-x="543" 
d="M496 161l-23 -161h-441v25c73 5 82 12 82 66v485c0 53 -10 62 -82 66v25h435l18 -150h-23c-25 95 -48 119 -118 119h-145v-274h143c45 0 56 15 59 82h25v-196h-25c-2 65 -16 83 -64 83h-138v-241c0 -48 13 -59 67 -59h71c79 0 110 29 136 130h23zM111 761v51h322v-51
h-322z" />
    <glyph glyph-name="Gcircumflex" unicode="&#x11c;" horiz-adv-x="635" 
d="M536 679v-198h-23c-13 44 -21 64 -37 90c-30 49 -84 78 -144 78c-69 0 -126 -36 -155 -98c-25 -56 -39 -131 -39 -214c0 -81 13 -157 36 -214c27 -67 83 -105 156 -105c46 0 83 11 134 38v169c0 37 -13 46 -77 50v24c52 -5 79 -6 113 -6s62 1 114 6v-24
c-65 -5 -71 -9 -71 -52v-162c-84 -51 -148 -72 -223 -72c-166 0 -272 136 -272 348c0 208 106 341 272 341c63 0 109 -16 158 -57l40 58h18zM151 725l142 135h56l142 -135h-50l-120 83l-120 -83h-50z" />
    <glyph glyph-name="Hcircumflex" unicode="&#x124;" horiz-adv-x="678" 
d="M198 363h281v216c0 54 -8 61 -82 67v24c55 -5 82 -7 125 -7c42 0 70 2 124 7v-24c-75 -6 -83 -13 -83 -67v-491c0 -54 8 -61 83 -67v-24c-64 6 -92 8 -124 8s-60 -2 -125 -8v24c74 6 82 13 82 67v244h-281v-244c0 -54 8 -61 83 -67v-24c-66 6 -94 8 -126 8
s-60 -2 -123 -8v24c74 6 82 13 82 67v491c0 54 -8 61 -82 67v24c54 -5 81 -7 123 -7c43 0 71 2 126 7v-24c-75 -6 -83 -13 -83 -67v-216zM169 725l142 135h56l142 -135h-50l-120 83l-120 -83h-50z" />
    <glyph glyph-name="Imacron" unicode="&#x12a;" horiz-adv-x="314" 
d="M282 21v-24c-65 6 -93 8 -125 8c-31 0 -59 -2 -125 -8v24c75 6 83 13 83 67v491c0 54 -9 61 -83 67v24c55 -5 83 -7 125 -7c43 0 70 2 125 7v-24c-73 -6 -82 -13 -82 -67v-491c0 -54 8 -61 82 -67zM23 761v51h269v-51h-269z" />
    <glyph glyph-name="Iogonek" unicode="&#x12e;" horiz-adv-x="314" 
d="M282 21v-24c-56 -12 -98 -47 -98 -81c0 -26 24 -46 56 -46c14 0 27 2 51 9v-32c-34 -12 -54 -16 -78 -16c-57 0 -97 31 -97 77c0 41 30 68 106 94c-58 3 -63 3 -71 3c-29 0 -49 -1 -119 -8v24c74 6 82 13 82 67v491c0 54 -9 61 -82 67v24c55 -5 82 -7 124 -7
c43 0 71 2 126 7v-24c-74 -6 -83 -13 -83 -67v-491c0 -54 8 -61 83 -67z" />
    <glyph glyph-name="Kcommaaccent" unicode="&#x136;" horiz-adv-x="637" 
d="M197 349l227 251c10 11 14 18 14 25c0 14 -12 18 -62 21v24c48 -4 73 -5 102 -5c30 0 55 1 103 5v-24c-60 -3 -83 -14 -120 -53l-172 -190l222 -317c34 -48 57 -62 114 -65v-24c-59 6 -91 8 -130 8c-38 0 -71 -2 -131 -8v24c56 5 69 10 69 27c0 9 0 10 -17 35l-179 267
l-41 -44v-218c0 -53 10 -61 80 -67v-24c-54 6 -82 8 -117 8s-64 -2 -127 -8v24c74 6 83 13 83 67v491c0 54 -10 62 -83 67v24c56 -5 84 -7 127 -7s69 1 120 7v-24c-72 -5 -82 -13 -82 -67v-230zM316 -241h-45c33 29 54 63 58 94h-4c-3 -1 -4 -1 -7 -1c-28 0 -46 18 -46 45
c0 28 21 47 51 47c33 0 53 -22 53 -59c0 -38 -21 -82 -60 -126z" />
    <glyph glyph-name="Lcommaaccent" unicode="&#x13b;" horiz-adv-x="505" 
d="M496 161l-23 -161h-441v25c73 5 82 13 82 66v488c0 54 -9 61 -82 67v24c55 -5 82 -7 124 -7c43 0 71 2 126 7v-24c-74 -6 -83 -13 -83 -67v-486c0 -48 13 -59 67 -59h71c79 0 110 29 136 127h23zM254 -241h-45c33 29 53 63 57 94h-3c-4 -1 -6 -1 -7 -1
c-28 0 -46 17 -46 44c0 30 19 48 51 48c33 0 52 -21 52 -58c0 -41 -18 -80 -59 -127z" />
    <glyph glyph-name="Ncommaaccent" unicode="&#x145;" horiz-adv-x="673" 
d="M561 -20h-15c-7 11 -15 23 -22 35c-20 30 -32 49 -81 124l-295 444v-495c0 -54 8 -61 83 -67v-24c-58 4 -79 5 -101 5c-24 0 -45 -1 -98 -5v24c75 6 83 13 83 67v528c-18 20 -38 27 -84 30v24c31 -2 50 -3 85 -3c33 0 45 1 72 3l339 -507v416c0 54 -10 61 -82 67v24
c57 -4 78 -5 101 -5c24 0 45 1 98 5v-24c-73 -6 -83 -13 -83 -67v-599zM331 -241h-45c32 29 53 63 57 94h-4c-3 -1 -5 -1 -6 -1c-28 0 -46 17 -46 45c0 29 19 47 50 47c34 0 53 -22 53 -58c0 -41 -19 -81 -59 -127z" />
    <glyph glyph-name="Omacron" unicode="&#x14c;" horiz-adv-x="632" 
d="M315 680c165 0 269 -135 269 -350c0 -207 -105 -342 -266 -342c-165 0 -270 135 -270 347c0 208 106 345 267 345zM318 652c-113 0 -180 -118 -180 -315c0 -202 67 -321 180 -321c112 0 176 115 176 317c0 204 -64 319 -176 319zM155 761v51h322v-51h-322z" />
    <glyph glyph-name="Rcommaaccent" unicode="&#x156;" horiz-adv-x="596" 
d="M198 317v-229c0 -54 8 -61 83 -67v-24c-64 6 -92 8 -124 8s-60 -2 -125 -8v24c74 6 82 13 82 67v488c0 53 -10 62 -82 66v25h268c63 0 104 -10 138 -33c46 -30 76 -87 76 -143c0 -60 -34 -117 -85 -143c-22 -11 -44 -18 -79 -25c42 -12 61 -31 86 -86l69 -158
c21 -48 32 -56 81 -58v-24c-30 2 -46 3 -66 3c-19 0 -35 -1 -66 -3c-11 23 -15 33 -27 61l-77 179c-28 64 -50 80 -114 80h-38zM199 348h84c95 0 146 51 146 147c0 92 -48 141 -141 141h-89v-288zM309 -241h-45c33 29 53 63 58 94h-4c-3 -1 -5 -1 -7 -1c-28 0 -46 18 -46 44
c0 29 20 48 51 48c33 0 53 -22 53 -58c0 -39 -20 -81 -60 -127z" />
    <glyph glyph-name="Scircumflex" unicode="&#x15c;" horiz-adv-x="519" 
d="M58 202h23c20 -119 80 -180 177 -180c81 0 138 55 138 132c0 40 -15 72 -44 94c-21 15 -31 22 -96 55c-96 49 -121 64 -145 87c-29 28 -42 63 -42 110c0 106 76 176 190 176c55 0 92 -14 131 -52l30 56h18v-184h-24c-23 102 -70 150 -147 150c-71 0 -126 -54 -126 -123
c0 -39 18 -67 57 -92c24 -15 24 -15 98 -51c64 -32 88 -46 114 -66c40 -30 60 -75 60 -132c0 -114 -81 -191 -199 -191c-63 0 -110 17 -159 58l-36 -64h-18v217zM92 725l143 136h55l142 -136h-49l-121 83l-120 -83h-50z" />
    <glyph glyph-name="Gcommaaccent" unicode="&#x122;" horiz-adv-x="635" 
d="M536 679v-198h-23c-13 44 -21 64 -37 90c-30 49 -84 78 -144 78c-69 0 -126 -36 -155 -98c-25 -56 -39 -131 -39 -214c0 -81 13 -157 36 -214c27 -67 83 -105 156 -105c46 0 83 11 134 38v169c0 37 -13 46 -77 50v24c52 -5 79 -6 113 -6s62 1 114 6v-24
c-65 -5 -71 -9 -71 -52v-162c-84 -51 -148 -72 -223 -72c-166 0 -272 136 -272 348c0 208 106 341 272 341c63 0 109 -16 158 -57l40 58h18zM318 -241h-45c32 29 53 63 57 94h-4c-3 -1 -5 -1 -6 -1c-28 0 -46 17 -46 44c0 30 19 48 51 48c33 0 52 -22 52 -58
c0 -41 -19 -81 -59 -127z" />
    <glyph glyph-name="uni01D3" unicode="&#x1d3;" horiz-adv-x="665" 
d="M439 646v24c57 -4 78 -5 101 -5c24 0 45 1 98 5v-24c-74 -6 -83 -13 -83 -67v-366c0 -67 -9 -103 -34 -140c-39 -55 -104 -84 -189 -84c-75 0 -136 23 -177 68c-34 37 -47 77 -47 148v374c0 54 -9 61 -82 67v24c55 -5 82 -7 125 -7c42 0 70 2 125 7v-24
c-74 -6 -83 -13 -83 -67v-382c0 -63 8 -91 32 -117c28 -31 72 -47 126 -47c66 0 121 25 147 66c16 26 23 60 23 109v371c0 54 -9 61 -82 67zM527 859l-142 -135h-56l-142 135h50l120 -83l120 83h50z" />
    <glyph glyph-name="Umacron" unicode="&#x16a;" horiz-adv-x="665" 
d="M439 646v24c57 -4 78 -5 101 -5c24 0 45 1 98 5v-24c-74 -6 -83 -13 -83 -67v-366c0 -67 -9 -103 -34 -140c-39 -55 -104 -84 -189 -84c-75 0 -136 23 -177 68c-34 37 -47 77 -47 148v374c0 54 -9 61 -82 67v24c55 -5 82 -7 125 -7c42 0 70 2 125 7v-24
c-74 -6 -83 -13 -83 -67v-382c0 -63 8 -91 32 -117c28 -31 72 -47 126 -47c66 0 121 25 147 66c16 26 23 60 23 109v371c0 54 -9 61 -82 67zM191 761v51h322v-51h-322z" />
    <glyph glyph-name="Uogonek" unicode="&#x172;" horiz-adv-x="665" 
d="M522 -118v-32c-37 -12 -55 -16 -78 -16c-55 0 -96 32 -96 76c0 34 17 56 71 90c-34 -9 -50 -11 -82 -11c-80 0 -140 22 -182 68c-34 37 -47 77 -47 148v374c0 54 -9 61 -82 67v24c55 -5 82 -7 125 -7c42 0 70 2 125 7v-24c-74 -6 -83 -13 -83 -67v-382
c0 -63 8 -91 32 -117c28 -31 72 -47 126 -47c66 0 121 25 147 66c16 26 23 60 23 109v371c0 54 -9 61 -82 67v24c58 -4 78 -5 101 -5c24 0 45 1 98 5v-24c-74 -6 -83 -13 -83 -67v-366c0 -55 -6 -88 -20 -117c-11 -23 -11 -23 -62 -76c-35 -37 -57 -76 -57 -101
c0 -26 24 -46 55 -46c12 0 26 3 51 9z" />
    <glyph glyph-name="Ebreve" unicode="&#x114;" horiz-adv-x="543" 
d="M496 161l-23 -161h-441v25c73 5 82 12 82 66v485c0 53 -10 62 -82 66v25h435l18 -150h-23c-25 95 -48 119 -118 119h-145v-274h143c45 0 56 15 59 82h25v-196h-25c-2 65 -16 83 -64 83h-138v-241c0 -48 13 -59 67 -59h71c79 0 110 29 136 130h23zM379 859h34
c-10 -84 -62 -135 -136 -135s-125 50 -136 135h34c21 -49 54 -73 102 -73s82 24 102 73z" />
    <glyph glyph-name="uni01F4" unicode="&#x1f4;" horiz-adv-x="635" 
d="M536 679v-198h-23c-13 44 -21 64 -37 90c-30 49 -84 78 -144 78c-69 0 -126 -36 -155 -98c-25 -56 -39 -131 -39 -214c0 -81 13 -157 36 -214c27 -67 83 -105 156 -105c46 0 83 11 134 38v169c0 37 -13 46 -77 50v24c52 -5 79 -6 113 -6s62 1 114 6v-24
c-65 -5 -71 -9 -71 -52v-162c-84 -51 -148 -72 -223 -72c-166 0 -272 136 -272 348c0 208 106 341 272 341c63 0 109 -16 158 -57l40 58h18zM261 724l126 137h121l-197 -137h-50z" />
    <glyph glyph-name="dotlessj" unicode="&#xf6be;" horiz-adv-x="271" 
d="M179 489v-476c0 -87 -20 -139 -67 -176c-34 -26 -79 -39 -132 -40v26c35 6 56 14 78 31c30 25 41 55 41 118v415c0 52 -7 58 -71 59v17c52 4 106 14 151 26z" />
    <glyph glyph-name="ij" unicode="&#x133;" horiz-adv-x="550" 
d="M182 489v-418c0 -43 10 -51 71 -54v-20c-53 5 -79 6 -111 6s-58 -1 -112 -6v20c62 3 72 11 72 54v316c0 52 -7 58 -71 59v17c52 4 106 14 151 26zM138 667c19 0 28 -3 38 -14c9 -11 17 -28 17 -40c0 -29 -26 -55 -56 -55c-29 0 -53 25 -53 55c0 15 6 29 16 40
s18 14 38 14zM458 489v-476c0 -87 -20 -140 -67 -176c-34 -26 -79 -39 -132 -40v26c35 6 56 14 78 31c30 25 41 56 41 118v415c0 52 -7 58 -71 59v17c52 4 106 14 151 26zM413 667c20 0 29 -3 38 -14c10 -11 18 -29 18 -40c0 -10 -9 -29 -18 -39s-23 -16 -38 -16
c-30 0 -53 24 -53 55c0 33 20 54 53 54z" />
    <glyph glyph-name="uni01CE" unicode="&#x1ce;" horiz-adv-x="466" 
d="M445 26v-26c-21 -5 -40 -7 -55 -7c-48 0 -71 25 -77 85c-36 -64 -71 -87 -135 -87c-81 0 -139 53 -139 129c0 90 93 153 262 174v60c0 38 -4 57 -16 72c-14 18 -38 28 -67 28c-32 0 -63 -13 -77 -32c-5 -7 -6 -13 -6 -31c0 -9 0 -10 1 -16v-5c0 -26 -15 -42 -40 -42
c-22 0 -34 12 -34 34c0 64 76 119 164 119c57 0 108 -23 133 -60c16 -23 22 -53 22 -105v-204c0 -68 9 -89 38 -89c8 0 14 1 26 3zM301 182v86c-126 -22 -181 -66 -181 -143c0 -55 32 -91 83 -91c43 0 75 22 88 63c7 18 10 47 10 85zM385 696l-132 -147h-47l-132 147h48
l107 -86l108 86h48z" />
    <glyph glyph-name="abreve" unicode="&#x103;" horiz-adv-x="466" 
d="M445 26v-26c-21 -5 -40 -7 -55 -7c-48 0 -71 25 -77 85c-36 -64 -71 -87 -135 -87c-81 0 -139 53 -139 129c0 90 93 153 262 174v60c0 38 -4 57 -16 72c-14 18 -38 28 -67 28c-32 0 -63 -13 -77 -32c-5 -7 -6 -13 -6 -31c0 -9 0 -10 1 -16v-5c0 -26 -15 -42 -40 -42
c-22 0 -34 12 -34 34c0 64 76 119 164 119c57 0 108 -23 133 -60c16 -23 22 -53 22 -105v-204c0 -68 9 -89 38 -89c8 0 14 1 26 3zM301 182v86c-126 -22 -181 -66 -181 -143c0 -55 32 -91 83 -91c43 0 75 22 88 63c7 18 10 47 10 85zM331 697h34c-10 -89 -62 -144 -136 -144
c-73 0 -125 55 -135 144h34c20 -54 55 -82 101 -82c47 0 82 28 102 82z" />
    <glyph glyph-name="aogonek" unicode="&#x105;" horiz-adv-x="466" 
d="M445 26v-26c-37 -15 -66 -50 -66 -81c0 -25 23 -43 55 -43c13 0 13 0 32 5v-31c-26 -9 -42 -12 -61 -12c-52 0 -91 32 -91 73c0 33 27 65 68 83c-41 0 -65 30 -69 84c-36 -64 -71 -87 -135 -87c-81 0 -139 53 -139 129c0 90 93 153 262 174v60c0 38 -4 57 -16 72
c-14 18 -38 28 -67 28c-48 0 -83 -24 -83 -59c0 -1 0 -4 1 -8v-16c0 -28 -14 -43 -40 -43c-22 0 -34 12 -34 34c0 64 76 119 164 119c57 0 108 -23 133 -60c16 -23 22 -53 22 -105v-204c0 -68 9 -89 38 -89c8 0 14 1 26 3zM301 182v86c-126 -22 -181 -66 -181 -143
c0 -55 32 -91 83 -91c43 0 75 22 88 63c7 18 10 47 10 85z" />
    <glyph glyph-name="cacute" unicode="&#x107;" horiz-adv-x="436" 
d="M385 493v-165h-22c-8 35 -13 51 -24 71c-19 36 -54 58 -92 58c-75 0 -119 -82 -119 -224c0 -139 40 -211 116 -211c62 0 99 44 111 132h40c-12 -107 -69 -165 -159 -165c-116 0 -195 99 -195 244c0 149 81 251 198 251c43 0 70 -11 102 -42l26 51h18zM184 551l98 147h111
l-164 -147h-45z" />
    <glyph glyph-name="ccaron" unicode="&#x10d;" horiz-adv-x="436" 
d="M385 493v-165h-22c-8 35 -13 51 -24 71c-19 36 -54 58 -92 58c-75 0 -119 -82 -119 -224c0 -139 40 -211 116 -211c62 0 99 44 111 132h40c-12 -107 -69 -165 -159 -165c-116 0 -195 99 -195 244c0 149 81 251 198 251c43 0 70 -11 102 -42l26 51h18zM393 696l-132 -147
h-47l-132 147h48l108 -86l108 86h47z" />
    <glyph glyph-name="cdotaccent" unicode="&#x10b;" horiz-adv-x="436" 
d="M385 493v-165h-22c-8 35 -13 51 -24 71c-19 36 -54 58 -92 58c-75 0 -119 -82 -119 -224c0 -139 40 -211 116 -211c62 0 99 44 111 132h40c-12 -107 -69 -165 -159 -165c-116 0 -195 99 -195 244c0 149 81 251 198 251c43 0 70 -11 102 -42l26 51h18zM238 673
c18 0 27 -4 37 -14c10 -11 17 -27 17 -38c0 -28 -27 -55 -54 -55c-29 0 -53 25 -53 54c0 32 21 53 53 53z" />
    <glyph glyph-name="dcaron" unicode="&#x10f;" horiz-adv-x="599" 
d="M495 33v-17c-70 -9 -91 -13 -132 -26c-9 37 -10 43 -13 80c-30 -57 -67 -82 -124 -82c-109 0 -186 102 -186 245s76 245 183 245c53 0 81 -18 119 -78v175c0 52 -8 59 -70 59v18c49 4 107 14 150 26v-577c0 -60 7 -66 73 -68zM232 450c-72 0 -108 -73 -108 -216
c0 -142 39 -218 111 -218c71 0 108 72 108 209c0 149 -38 225 -111 225zM513 484h-45c36 33 58 71 57 102l-3 1l-5 -1c-1 -1 -2 -1 -2 -1c-7 -1 -26 5 -31 10c-10 8 -15 20 -15 35c0 29 20 48 51 48c34 0 52 -21 52 -63c0 -41 -12 -69 -51 -120c-3 -4 -6 -7 -8 -11z" />
    <glyph glyph-name="dcroat" unicode="&#x111;" horiz-adv-x="513" 
d="M493 29v-17c-67 -5 -81 -7 -130 -18c-8 29 -10 44 -13 76c-30 -57 -67 -82 -124 -82c-108 0 -186 102 -186 245c0 142 77 245 183 245c53 0 81 -18 119 -78v130h-117v37h117v12c0 48 -9 55 -70 55v18c49 4 107 14 150 26v-111h69v-37h-69v-435c0 -54 9 -64 61 -65z
M232 450c-71 0 -108 -73 -108 -216c0 -142 39 -218 111 -218c71 0 108 72 108 209c0 149 -38 225 -111 225z" />
    <glyph glyph-name="ecaron" unicode="&#x11b;" horiz-adv-x="458" 
d="M380 154h39c-12 -103 -78 -164 -178 -164c-123 0 -201 95 -201 247c0 147 79 245 196 245c113 0 179 -85 182 -235h-297c2 -74 7 -110 19 -143c21 -53 59 -81 113 -81c69 0 114 47 127 131zM123 283h215c-5 117 -38 173 -103 173s-102 -58 -112 -173zM392 696l-132 -145
h-48l-131 145h47l108 -86l108 86h48z" />
    <glyph glyph-name="edotaccent" unicode="&#x117;" horiz-adv-x="458" 
d="M380 154h39c-12 -103 -78 -164 -178 -164c-123 0 -201 95 -201 247c0 147 79 245 196 245c113 0 179 -85 182 -235h-297c2 -74 7 -110 19 -143c21 -53 59 -81 113 -81c69 0 114 47 127 131zM123 283h215c-5 117 -38 173 -103 173s-102 -58 -112 -173zM237 677
c32 0 57 -25 57 -56s-28 -59 -58 -59s-57 27 -57 58c0 34 24 57 58 57z" />
    <glyph glyph-name="eogonek" unicode="&#x119;" horiz-adv-x="458" 
d="M392 -115v-31c-25 -9 -41 -12 -61 -12c-52 0 -91 31 -91 73c0 29 16 49 65 82c-29 -6 -43 -8 -64 -8c-127 0 -201 91 -201 245c0 153 76 250 196 250c117 0 181 -82 182 -236h-297c0 -157 41 -226 132 -226c69 0 114 47 126 131h40c-6 -49 -23 -86 -55 -122
c-36 -43 -59 -84 -59 -106c0 -27 21 -45 54 -45c14 0 17 0 33 5zM123 284h215c-5 118 -39 174 -104 174c-63 0 -101 -59 -111 -174z" />
    <glyph glyph-name="gcaron" unicode="&#x1e7;" horiz-adv-x="492" 
d="M345 455h133v-40l-96 3c17 -27 25 -53 25 -84c0 -52 -25 -97 -69 -125c-22 -13 -42 -21 -104 -36c-84 -21 -102 -30 -102 -51c0 -9 6 -18 16 -23c9 -4 25 -7 75 -10c89 -6 120 -11 155 -25c47 -19 78 -61 78 -109c0 -91 -88 -153 -217 -153c-127 0 -209 54 -209 138
c0 52 29 84 96 107c-38 17 -53 33 -53 58c0 38 35 64 108 82c-74 22 -115 73 -115 144c0 93 67 150 176 150c42 0 71 -7 103 -26zM238 456c-60 0 -96 -46 -96 -124c0 -80 35 -126 95 -126c58 0 94 48 94 127c0 78 -33 123 -93 123zM225 17c-98 0 -154 -31 -154 -85
c0 -58 69 -99 165 -99c98 0 158 37 158 97c0 57 -58 87 -169 87zM402 696l-132 -147h-47l-132 147h47l108 -86l108 86h48z" />
    <glyph glyph-name="gbreve" unicode="&#x11f;" horiz-adv-x="492" 
d="M345 455h133v-40l-96 3c17 -27 25 -53 25 -84c0 -52 -25 -97 -69 -125c-22 -13 -42 -21 -104 -36c-84 -21 -102 -30 -102 -51c0 -9 6 -18 16 -23c9 -4 25 -7 75 -10c89 -6 120 -11 155 -25c47 -19 78 -61 78 -109c0 -91 -88 -153 -217 -153c-127 0 -209 54 -209 138
c0 52 29 84 96 107c-38 17 -53 33 -53 58c0 38 35 64 108 82c-74 22 -115 73 -115 144c0 93 67 150 176 150c42 0 71 -7 103 -26zM238 456c-60 0 -96 -46 -96 -124c0 -80 35 -126 95 -126c58 0 94 48 94 127c0 78 -33 123 -93 123zM225 17c-98 0 -154 -31 -154 -85
c0 -58 69 -99 165 -99c98 0 158 37 158 97c0 57 -58 87 -169 87zM348 697h34c-10 -89 -62 -144 -136 -144s-125 54 -135 144h34c19 -53 55 -82 101 -82c47 0 82 28 102 82z" />
    <glyph glyph-name="gdotaccent" unicode="&#x121;" horiz-adv-x="492" 
d="M345 455h133v-40l-96 3c17 -27 25 -53 25 -84c0 -52 -25 -97 -69 -125c-22 -13 -42 -21 -104 -36c-84 -21 -102 -30 -102 -51c0 -9 6 -18 16 -23c9 -4 25 -7 75 -10c89 -6 120 -11 155 -25c47 -19 78 -61 78 -109c0 -91 -88 -153 -217 -153c-127 0 -209 54 -209 138
c0 52 29 84 96 107c-38 17 -53 33 -53 58c0 38 35 64 108 82c-74 22 -115 73 -115 144c0 93 67 150 176 150c42 0 71 -7 103 -26zM238 456c-60 0 -96 -46 -96 -124c0 -80 35 -126 95 -126c58 0 94 48 94 127c0 78 -33 123 -93 123zM225 17c-98 0 -154 -31 -154 -85
c0 -58 69 -99 165 -99c98 0 158 37 158 97c0 57 -58 87 -169 87zM247 673c18 0 27 -4 37 -14c9 -11 17 -28 17 -38c0 -28 -27 -55 -55 -55s-52 24 -52 54c0 33 21 53 53 53z" />
    <glyph glyph-name="lacute" unicode="&#x13a;" horiz-adv-x="273" 
d="M180 678v-607c0 -43 10 -51 71 -54v-20c-53 5 -79 6 -111 6s-58 -1 -112 -6v20c62 3 72 11 72 54v505c0 51 -8 58 -71 58v18c50 4 105 14 151 26zM70 724l106 137h118l-174 -137h-50z" />
    <glyph glyph-name="lcaron" unicode="&#x13e;" horiz-adv-x="356" 
d="M180 678v-607c0 -43 10 -51 71 -54v-20c-53 5 -79 6 -111 6s-58 -1 -112 -6v20c62 3 72 11 72 54v505c0 51 -8 58 -71 58v18c50 4 105 14 151 26zM270 484h-45c37 33 58 71 58 102l-4 1l-5 -1c-1 -1 -2 -1 -2 -1c-7 -1 -25 5 -30 10c-10 8 -16 21 -16 35
c0 29 20 48 51 48c34 0 53 -23 53 -63c0 -39 -14 -71 -52 -120c-2 -4 -5 -7 -8 -11z" />
    <glyph glyph-name="nacute" unicode="&#x144;" horiz-adv-x="548" 
d="M31 442v18c56 8 99 17 132 30c5 -17 9 -50 11 -87c36 54 77 78 135 78c53 0 99 -24 124 -65c15 -24 22 -58 22 -105v-240c0 -43 10 -51 72 -54v-20c-51 5 -76 6 -110 6c-33 0 -59 -1 -108 -6v20c53 2 66 12 66 52v245c0 46 -4 68 -16 87c-15 22 -41 35 -73 35
c-34 0 -66 -16 -85 -43c-14 -19 -19 -41 -19 -83v-241c0 -40 13 -50 65 -52v-20c-49 5 -75 6 -108 6s-58 -1 -109 -6v20c62 3 72 11 72 54v309c0 57 -4 61 -58 62h-13zM221 551l98 147h111l-165 -147h-44z" />
    <glyph glyph-name="ncaron" unicode="&#x148;" horiz-adv-x="548" 
d="M31 442v18c56 8 99 17 132 30c5 -17 9 -50 11 -87c36 54 77 78 135 78c53 0 99 -24 124 -65c15 -24 22 -58 22 -105v-240c0 -43 10 -51 72 -54v-20c-51 5 -76 6 -110 6c-33 0 -59 -1 -108 -6v20c53 2 66 12 66 52v245c0 46 -4 68 -16 87c-15 22 -41 35 -73 35
c-34 0 -66 -16 -85 -43c-14 -19 -19 -41 -19 -83v-241c0 -40 13 -50 65 -52v-20c-49 5 -75 6 -108 6s-58 -1 -109 -6v20c62 3 72 11 72 54v309c0 57 -4 61 -58 62h-13zM427 696l-132 -145h-48l-131 145h47l108 -86l108 86h48z" />
    <glyph glyph-name="ohungarumlaut" unicode="&#x151;" horiz-adv-x="469" 
d="M239 484c114 0 191 -101 191 -250c0 -141 -83 -245 -196 -245c-114 0 -194 101 -194 246c0 147 82 249 199 249zM237 458c-74 0 -113 -78 -113 -222c0 -147 37 -221 110 -221c72 0 112 77 112 218c0 149 -37 225 -109 225zM137 551l85 147h86l-131 -147h-40zM274 551
l87 147h86l-132 -147h-41z" />
    <glyph glyph-name="racute" unicode="&#x155;" horiz-adv-x="379" 
d="M162 551l98 147h111l-164 -147h-45zM30 447v17c53 5 96 13 132 24c6 -39 8 -55 9 -95c23 58 65 91 116 91s87 -34 87 -81c0 -29 -16 -48 -41 -48c-24 0 -41 14 -41 33c0 6 0 6 3 21c1 3 1 6 1 9c0 14 -13 24 -30 24c-52 0 -85 -63 -85 -162v-209c0 -43 10 -51 71 -54v-20
c-52 5 -77 6 -111 6s-60 -1 -112 -6v20c61 3 72 11 72 54v311c0 62 -1 64 -71 65z" />
    <glyph glyph-name="sacute" unicode="&#x15b;" horiz-adv-x="426" 
d="M53 -12v167h22c6 -32 12 -49 22 -70c20 -39 62 -64 108 -64c58 0 103 39 103 90c0 31 -15 51 -56 72c-1 1 -33 16 -97 45c-73 34 -95 62 -95 120c0 79 61 133 150 133c38 0 66 -9 102 -32l17 41h17v-155h-22c-9 80 -43 118 -105 118c-54 0 -94 -36 -94 -83
c0 -32 13 -49 56 -70c14 -7 21 -11 92 -41c75 -33 102 -66 102 -125c0 -83 -66 -143 -160 -143c-46 0 -83 13 -121 41l-24 -44h-17zM159 551l99 147h110l-164 -147h-45z" />
    <glyph glyph-name="scircumflex" unicode="&#x15d;" horiz-adv-x="426" 
d="M53 -12v167h22c6 -32 12 -49 22 -70c20 -39 62 -64 108 -64c58 0 103 39 103 90c0 31 -15 51 -56 72c-1 1 -33 16 -97 45c-73 34 -95 62 -95 120c0 79 61 133 150 133c38 0 66 -9 102 -32l17 41h17v-155h-22c-9 80 -43 118 -105 118c-54 0 -94 -36 -94 -83
c0 -32 13 -49 56 -70c14 -7 21 -11 92 -41c75 -33 102 -66 102 -125c0 -83 -66 -143 -160 -143c-46 0 -83 13 -121 41l-24 -44h-17zM61 552l132 147h47l132 -147h-48l-108 86l-108 -86h-47z" />
    <glyph glyph-name="scommaaccent" unicode="&#x219;" horiz-adv-x="426" 
d="M53 -12v167h22c6 -32 12 -49 22 -70c20 -39 62 -64 108 -64c58 0 103 39 103 90c0 31 -15 51 -56 72c-1 1 -33 16 -97 45c-73 34 -95 62 -95 120c0 79 61 133 150 133c38 0 66 -9 102 -32l17 41h17v-155h-22c-9 80 -43 118 -105 118c-54 0 -94 -36 -94 -83
c0 -32 13 -49 56 -70c14 -7 21 -11 92 -41c75 -33 102 -66 102 -125c0 -83 -66 -143 -160 -143c-46 0 -83 13 -121 41l-24 -44h-17zM203 -241h-45c32 28 53 63 57 94h-4c-3 -1 -4 -1 -7 -1c-27 0 -45 18 -45 44c0 29 20 48 51 48c32 0 53 -23 53 -59c0 -38 -21 -82 -60 -126
z" />
    <glyph glyph-name="tcaron" unicode="&#x165;" horiz-adv-x="351" 
d="M297 51v-29c-35 -22 -64 -31 -98 -31c-48 0 -85 22 -100 60c-7 18 -11 46 -11 86v18l5 280h-65v31c63 2 101 49 120 149h25v-143h116v-37h-117v-291c0 -44 3 -68 10 -83c9 -20 26 -31 50 -31c18 0 36 6 65 21zM264 524h-45c36 32 58 71 58 102h-4c-3 -1 -5 -1 -7 -1
c-28 0 -46 18 -46 44c0 29 20 48 51 48c34 0 53 -22 53 -63c0 -38 -14 -70 -52 -119c-2 -4 -5 -7 -8 -11z" />
    <glyph glyph-name="uring" unicode="&#x16f;" horiz-adv-x="538" 
d="M16 446v17c51 4 103 13 151 26v-333c0 -86 25 -119 90 -119c70 0 103 42 103 133v217c0 52 -7 58 -70 59v17c50 4 103 14 150 26v-406c0 -45 5 -48 74 -49v-18c-55 -5 -100 -14 -138 -26c-2 24 -3 40 -3 46c-2 17 -2 25 -3 45c-33 -64 -72 -89 -136 -89
c-54 0 -98 21 -123 59c-17 24 -24 57 -24 106v230c0 52 -7 58 -71 59zM266 715c45 0 82 -38 82 -84s-37 -83 -83 -83c-47 0 -84 37 -84 83c0 47 37 84 85 84zM265 680c-27 0 -49 -21 -49 -49c0 -27 21 -48 49 -48c27 0 48 21 48 48s-22 49 -48 49z" />
    <glyph glyph-name="uhungarumlaut" unicode="&#x171;" horiz-adv-x="538" 
d="M16 446v17c51 4 103 13 151 26v-333c0 -86 25 -119 90 -119c70 0 103 42 103 133v217c0 52 -7 58 -70 59v17c50 4 103 14 150 26v-406c0 -45 5 -48 74 -49v-18c-55 -5 -100 -14 -138 -26c-2 24 -3 40 -3 46c-2 17 -2 25 -3 45c-33 -64 -72 -89 -136 -89
c-54 0 -98 21 -123 59c-17 24 -24 57 -24 106v230c0 52 -7 58 -71 59zM153 551l85 147h87l-130 -147h-42zM291 551l86 147h87l-131 -147h-42z" />
    <glyph glyph-name="zacute" unicode="&#x17a;" horiz-adv-x="447" 
d="M34 0l271 446h-111c-65 0 -81 -14 -116 -104h-21l23 130h332l-272 -446h117c52 0 70 9 95 48c12 21 21 40 31 70h21l-26 -144h-344zM187 551l98 147h111l-165 -147h-44z" />
    <glyph glyph-name="zdotaccent" unicode="&#x17c;" horiz-adv-x="447" 
d="M248 673c18 0 27 -4 37 -14c10 -11 17 -27 17 -38c0 -28 -27 -55 -54 -55c-29 0 -53 25 -53 54c0 32 21 53 53 53zM34 0l271 446h-111c-65 0 -81 -14 -116 -104h-21l23 130h332l-272 -446h117c52 0 70 9 95 48c12 21 21 40 31 70h21l-26 -144h-344z" />
    <glyph glyph-name="hbar" unicode="&#x127;" horiz-adv-x="540" 
d="M174 567h118v-37h-118v-116c32 45 74 67 127 67s99 -24 124 -65c15 -24 22 -58 22 -105v-240c0 -43 10 -51 72 -54v-20c-51 5 -76 6 -110 6c-33 0 -59 -1 -108 -6v20c53 1 66 12 66 52v245c0 45 -4 68 -16 87c-15 22 -41 35 -73 35c-34 0 -66 -16 -85 -43
c-14 -20 -19 -41 -19 -83v-241c0 -40 13 -50 65 -52v-20c-50 5 -75 6 -108 6s-58 -1 -109 -6v20c61 3 72 11 72 54v459h-72v37h72v13c0 48 -7 54 -71 54v18c50 4 108 14 151 26v-111z" />
    <glyph glyph-name="tcommaaccent" unicode="&#x163;" horiz-adv-x="309" 
d="M297 51v-29c-35 -22 -64 -31 -98 -31c-48 0 -85 22 -100 60c-7 18 -11 46 -11 86v18l5 280h-65v31c63 2 101 49 120 149h25v-143h116v-37h-117v-291c0 -44 3 -68 10 -83c9 -20 26 -31 50 -31c18 0 36 6 65 21zM170 -241h-44c31 28 53 63 57 94h-4c-3 -1 -5 -1 -7 -1
c-28 0 -45 17 -45 44c0 30 19 48 51 48c33 0 52 -22 52 -59c0 -40 -19 -81 -60 -126z" />
    <glyph glyph-name="amacron" unicode="&#x101;" horiz-adv-x="466" 
d="M445 26v-26c-21 -5 -40 -7 -55 -7c-48 0 -71 25 -77 85c-36 -64 -71 -87 -135 -87c-81 0 -139 53 -139 129c0 90 93 153 262 174v60c0 38 -4 57 -16 72c-14 18 -38 28 -67 28c-32 0 -63 -13 -77 -32c-5 -7 -6 -13 -6 -31c0 -9 0 -10 1 -16v-5c0 -26 -15 -42 -40 -42
c-22 0 -34 12 -34 34c0 64 76 119 164 119c57 0 108 -23 133 -60c16 -23 22 -53 22 -105v-204c0 -68 9 -89 38 -89c8 0 14 1 26 3zM301 182v86c-126 -22 -181 -66 -181 -143c0 -55 32 -91 83 -91c43 0 75 22 88 63c7 18 10 47 10 85zM75 603v51h305v-51h-305z" />
    <glyph glyph-name="ycircumflex" unicode="&#x177;" horiz-adv-x="499" 
d="M233 16l-147 392c-14 37 -27 44 -76 47v20c45 -4 70 -5 102 -5s57 1 102 5v-20c-39 -3 -52 -8 -52 -21c0 -5 2 -14 7 -27l105 -289l110 286c7 19 8 21 8 28c0 16 -14 22 -57 23v20c30 -3 47 -4 74 -4s47 1 86 4v-20c-45 -5 -64 -17 -76 -49l-189 -489
c-17 -43 -42 -79 -68 -94c-17 -10 -58 -20 -77 -19c-8 1 -8 1 -14 1v50h10c60 0 96 26 121 87zM110 552l132 146h48l131 -146h-47l-108 86l-108 -86h-48z" />
    <glyph glyph-name="emacron" unicode="&#x113;" horiz-adv-x="458" 
d="M380 154h39c-12 -103 -78 -164 -178 -164c-123 0 -201 95 -201 247c0 147 79 245 196 245c113 0 179 -85 182 -235h-297c2 -74 7 -110 19 -143c21 -53 59 -81 113 -81c69 0 114 47 127 131zM123 283h215c-5 117 -38 173 -103 173s-102 -58 -112 -173zM83 603v51h305v-51
h-305z" />
    <glyph glyph-name="gcircumflex" unicode="&#x11d;" horiz-adv-x="492" 
d="M345 455h133v-40l-96 3c17 -27 25 -53 25 -84c0 -52 -25 -97 -69 -125c-22 -13 -42 -21 -104 -36c-84 -21 -102 -30 -102 -51c0 -9 6 -18 16 -23c9 -4 25 -7 75 -10c89 -6 120 -11 155 -25c47 -19 78 -61 78 -109c0 -91 -88 -153 -217 -153c-127 0 -209 54 -209 138
c0 52 29 84 96 107c-38 17 -53 33 -53 58c0 38 35 64 108 82c-74 22 -115 73 -115 144c0 93 67 150 176 150c42 0 71 -7 103 -26zM238 456c-60 0 -96 -46 -96 -124c0 -80 35 -126 95 -126c58 0 94 48 94 127c0 78 -33 123 -93 123zM225 17c-98 0 -154 -31 -154 -85
c0 -58 69 -99 165 -99c98 0 158 37 158 97c0 57 -58 87 -169 87zM91 552l132 147h47l132 -147h-48l-108 86l-107 -86h-48z" />
    <glyph glyph-name="ibreve" unicode="&#x12d;" horiz-adv-x="279" 
d="M181 489v-418c0 -43 10 -51 72 -54v-20c-52 5 -78 6 -112 6c-35 0 -60 -1 -111 -6v20c61 3 71 11 71 54v316c0 52 -7 58 -71 59v17c51 4 103 13 151 26zM231 697h34c-4 -30 -8 -47 -16 -67c-19 -46 -66 -77 -117 -77s-97 31 -116 77c-9 20 -13 37 -16 67h34
c18 -55 50 -82 98 -82c28 0 56 13 74 33c10 12 16 23 25 49z" />
    <glyph glyph-name="imacron" unicode="&#x12b;" horiz-adv-x="279" 
d="M181 489v-418c0 -43 10 -51 71 -54v-20c-53 5 -79 6 -111 6s-58 -1 -112 -6v20c62 3 72 11 72 54v316c0 52 -7 58 -71 59v17c52 4 106 14 151 26zM13 603v51h232v-51h-232z" />
    <glyph glyph-name="kcommaaccent" unicode="&#x137;" horiz-adv-x="534" 
d="M173 232l157 167c16 17 20 24 20 33c0 14 -16 21 -54 23v20c39 -4 62 -5 94 -5s56 1 99 5v-20c-50 -4 -66 -12 -100 -47l-96 -101l141 -236c26 -43 41 -52 90 -54v-20c-37 4 -55 5 -75 5c-21 0 -38 -1 -68 -5l-139 262l-70 -72v-116c0 -43 11 -51 72 -54v-20
c-51 5 -77 6 -111 6s-60 -1 -111 -6v20c61 3 72 11 72 54v504c0 52 -8 59 -71 59v18c54 5 104 14 150 26v-446zM266 -241h-44c30 28 52 64 56 94h-4c-3 -1 -4 -1 -7 -1c-27 0 -44 18 -44 44c0 30 19 48 51 48c33 0 52 -22 52 -59c0 -40 -19 -80 -60 -126z" />
    <glyph glyph-name="lcommaaccent" unicode="&#x13c;" horiz-adv-x="273" 
d="M180 678v-607c0 -43 10 -51 71 -54v-20c-52 5 -77 6 -111 6s-60 -1 -112 -6v20c62 3 72 11 72 54v505c0 51 -8 58 -71 58v18c51 4 108 14 151 26zM135 -241h-45c32 29 53 63 57 94h-4c-3 -1 -4 -1 -7 -1c-27 0 -45 18 -45 45c0 28 20 47 51 47c33 0 52 -21 52 -58
c0 -42 -18 -81 -59 -127z" />
    <glyph glyph-name="ncommaaccent" unicode="&#x146;" horiz-adv-x="548" 
d="M31 442v18c56 8 99 17 132 30c5 -17 9 -50 11 -87c36 54 77 78 135 78c53 0 99 -24 124 -65c15 -24 22 -58 22 -105v-240c0 -43 10 -51 72 -54v-20c-51 5 -76 6 -110 6c-33 0 -59 -1 -108 -6v20c53 2 66 12 66 52v245c0 46 -4 68 -16 87c-15 22 -41 35 -73 35
c-34 0 -66 -16 -85 -43c-14 -19 -19 -41 -19 -83v-241c0 -40 13 -50 65 -52v-20c-49 5 -75 6 -108 6s-58 -1 -109 -6v20c62 3 72 11 72 54v309c0 57 -4 61 -58 62h-13zM268 -241h-45c32 29 53 63 58 94h-4c-4 -1 -5 -1 -7 -1c-28 0 -46 17 -46 44c0 30 20 48 51 48
c33 0 52 -21 52 -58c0 -41 -18 -80 -59 -127z" />
    <glyph glyph-name="omacron" unicode="&#x14d;" horiz-adv-x="469" 
d="M239 484c114 0 191 -101 191 -250c0 -141 -83 -245 -196 -245c-114 0 -194 101 -194 246c0 147 82 249 199 249zM237 458c-74 0 -113 -78 -113 -222c0 -147 37 -221 110 -221c72 0 112 77 112 218c0 149 -37 225 -109 225zM82 603v51h305v-51h-305z" />
    <glyph glyph-name="rcommaaccent" unicode="&#x157;" horiz-adv-x="379" 
d="M30 447v17c53 5 96 13 132 24c6 -39 8 -55 9 -95c23 58 65 91 116 91s87 -34 87 -81c0 -29 -16 -48 -41 -48c-24 0 -41 14 -41 33c0 6 0 6 3 21c1 3 1 6 1 9c0 14 -13 24 -30 24c-52 0 -85 -63 -85 -162v-209c0 -43 10 -51 71 -54v-20c-52 5 -77 6 -111 6s-60 -1 -112 -6
v20c61 3 72 11 72 54v311c0 62 -1 64 -71 65zM136 -241h-45c33 29 54 63 58 94h-4c-3 -1 -5 -1 -7 -1c-28 0 -46 18 -46 44c0 29 20 48 51 48c32 0 53 -22 53 -58c0 -39 -20 -82 -60 -127z" />
    <glyph glyph-name="ubreve" unicode="&#x16d;" horiz-adv-x="538" 
d="M16 446v17c51 4 103 13 151 26v-333c0 -86 25 -119 90 -119c70 0 103 42 103 133v217c0 52 -7 58 -70 59v17c50 4 103 14 150 26v-406c0 -45 5 -48 74 -49v-18c-55 -5 -100 -14 -138 -26c-2 24 -3 40 -3 46c-2 17 -2 25 -3 45c-33 -64 -72 -89 -136 -89
c-54 0 -98 21 -123 59c-17 24 -24 57 -24 106v230c0 52 -7 58 -71 59zM370 697h33c-9 -89 -61 -144 -135 -144s-125 54 -136 144h34c20 -54 55 -82 102 -82s81 28 102 82z" />
    <glyph glyph-name="umacron" unicode="&#x16b;" horiz-adv-x="538" 
d="M16 446v17c51 4 103 13 151 26v-333c0 -86 25 -119 90 -119c70 0 103 42 103 133v217c0 52 -7 58 -70 59v17c50 4 103 14 150 26v-406c0 -45 5 -48 74 -49v-18c-55 -5 -100 -14 -138 -26c-2 18 -5 49 -6 91c-33 -64 -72 -89 -136 -89c-54 0 -98 21 -123 59
c-17 24 -24 57 -24 106v230c0 52 -7 58 -71 59zM110 603v51h306v-51h-306z" />
    <glyph glyph-name="uogonek" unicode="&#x173;" horiz-adv-x="539" 
d="M535 -115v-31c-25 -8 -42 -12 -60 -12c-51 0 -89 31 -89 74c0 36 17 57 76 94c-41 -7 -58 -12 -86 -20c-2 18 -5 49 -6 91c-33 -64 -72 -89 -136 -89c-54 0 -98 21 -123 59c-17 24 -24 57 -24 106v230c0 52 -7 58 -71 59v17c51 4 103 13 151 26v-333
c0 -86 25 -119 90 -119c70 0 103 42 103 133v217c0 52 -7 58 -70 59v17c50 4 103 14 150 26v-406c0 -45 5 -48 74 -49v-18c-35 -17 -63 -59 -63 -93c0 -24 23 -44 52 -44c6 0 19 3 32 6z" />
    <glyph glyph-name="rcaron" unicode="&#x159;" horiz-adv-x="379" 
d="M30 447v17c53 5 96 13 132 24c6 -39 8 -55 9 -95c23 58 65 91 116 91s87 -34 87 -81c0 -29 -16 -48 -41 -48c-24 0 -41 14 -41 33c0 6 0 6 3 21c1 3 1 6 1 9c0 14 -13 24 -30 24c-52 0 -85 -63 -85 -162v-209c0 -43 10 -51 71 -54v-20c-52 5 -77 6 -111 6s-60 -1 -112 -6
v20c61 3 72 11 72 54v311c0 62 -1 64 -71 65zM362 696l-132 -145h-48l-131 145h47l108 -86l108 86h48z" />
    <glyph glyph-name="scedilla" unicode="&#x15f;" horiz-adv-x="426" 
d="M232 -9l-26 -50c59 -6 85 -27 85 -68c0 -44 -37 -74 -92 -74c-26 0 -46 4 -75 16v30c27 -7 36 -9 52 -9c30 0 51 17 51 42c0 29 -23 41 -76 44l39 70c-43 8 -67 18 -96 40l-24 -44h-17v167h22c6 -32 12 -49 22 -70c20 -39 61 -64 108 -64c58 0 103 39 103 90
c0 31 -15 51 -56 72c-1 1 -33 16 -97 45c-73 34 -95 61 -95 120c0 79 60 133 149 133c39 0 67 -9 103 -32l17 41h17v-155h-22c-9 80 -43 118 -105 118c-53 0 -95 -37 -95 -83c0 -31 15 -50 57 -70c13 -7 21 -11 92 -41c75 -33 102 -66 102 -125c0 -78 -56 -134 -143 -143z
" />
    <glyph glyph-name="gcommaaccent" unicode="&#x123;" horiz-adv-x="492" 
d="M345 455h133v-40l-96 3c17 -27 25 -53 25 -84c0 -52 -25 -97 -69 -125c-22 -13 -42 -21 -104 -36c-84 -21 -102 -30 -102 -51c0 -9 6 -18 16 -23c9 -4 25 -7 75 -10c89 -6 120 -11 155 -25c47 -19 78 -61 78 -109c0 -91 -88 -153 -217 -153c-127 0 -209 54 -209 138
c0 52 29 84 96 107c-38 17 -53 33 -53 58c0 38 35 64 108 82c-74 22 -115 73 -115 144c0 93 67 150 176 150c42 0 71 -7 103 -26zM238 456c-60 0 -96 -46 -96 -124c0 -80 35 -126 95 -126c58 0 94 48 94 127c0 78 -33 123 -93 123zM225 17c-98 0 -154 -31 -154 -85
c0 -58 69 -99 165 -99c98 0 158 37 158 97c0 57 -58 87 -169 87zM251 735h45c-32 -29 -53 -63 -58 -94h4c4 1 5 1 7 1c28 0 46 -17 46 -44c0 -30 -20 -48 -51 -48c-33 0 -52 21 -52 58c0 41 18 80 59 127z" />
    <glyph glyph-name="Euro" unicode="&#x20ac;" horiz-adv-x="523" 
d="M382 252h-193c15 -149 69 -222 164 -222c63 0 117 34 159 99v-69c-48 -50 -101 -72 -172 -72c-136 0 -223 95 -241 264h-104l27 44h74v22c0 15 0 24 2 43h-84l27 44h63c12 73 25 110 53 153c45 69 106 104 184 104c58 0 94 -17 126 -59l27 58h18v-197h-23
c-22 111 -64 159 -139 159c-88 0 -143 -75 -161 -218h262l-20 -44h-245c-1 -7 -1 -12 -1 -14v-13v-23v-15h217z" />
    <glyph glyph-name="peseta" unicode="&#x20a7;" horiz-adv-x="953" 
d="M200 301v-213c0 -54 9 -61 82 -67v-24c-65 6 -93 8 -124 8c-32 0 -60 -2 -126 -8v24c74 6 83 13 83 67v488c0 53 -9 61 -83 66v25h264c70 0 112 -10 148 -36c45 -32 73 -89 73 -149c0 -59 -26 -111 -73 -144c-37 -26 -79 -37 -138 -37h-106zM200 332h79c49 0 80 9 105 30
c31 27 48 71 48 124c0 47 -14 89 -38 115c-23 25 -55 35 -108 35h-86v-304zM658 39v-25c-23 -13 -42 -19 -61 -19c-32 0 -58 18 -67 46c-5 13 -6 28 -6 51l1 164h-40v25c41 0 63 26 75 87h21v-84h72v-28h-72v-168v-18c0 -30 11 -46 33 -46c11 0 24 4 44 15zM709 -7v105h20
c11 -54 36 -79 80 -79c35 0 61 22 61 51c0 18 -8 28 -33 39c-5 3 -5 3 -61 25c-48 19 -63 37 -63 74c0 47 41 82 98 82c22 0 43 -6 63 -18l10 23h16v-98h-20c-5 48 -25 70 -63 70c-32 0 -57 -20 -57 -46c0 -18 8 -27 34 -38c5 -3 5 -3 58 -23c49 -19 66 -38 66 -75
c0 -52 -43 -90 -103 -90c-28 0 -54 8 -76 23l-14 -25h-16z" />
    <glyph glyph-name="lira" unicode="&#x20a4;" horiz-adv-x="523" 
d="M215 405h122v-37h-127l-6 -51h133v-37h-138l-9 -70c-10 -74 -33 -130 -72 -177c49 24 71 30 106 30c18 0 28 -2 65 -10c26 -5 38 -7 58 -7c49 0 76 30 88 99h35c-14 -109 -52 -145 -157 -145h-259c29 35 41 74 53 169l14 111h-67v37h71l6 51h-77v37h82l5 39
c18 151 89 234 200 234c73 0 114 -41 123 -125h-40c-8 63 -31 90 -79 90c-42 0 -77 -24 -98 -69c-10 -23 -17 -55 -24 -108z" />
    <glyph glyph-name="uniEA71" unicode="&#xea71;" horiz-adv-x="523" 
d="M106 463h-81v37h81v67c0 53 -8 60 -81 65v24h252c96 0 148 -21 185 -74c17 -25 27 -49 32 -82h50v-37h-49c-8 -106 -84 -167 -208 -167h-97v-209c0 -53 10 -61 81 -66v-24c-54 5 -82 7 -123 7s-69 -2 -123 -7v24c71 5 81 13 81 66v376zM190 463v-137h71
c95 0 142 43 150 137h-221zM190 500h220c-9 88 -51 126 -143 126h-77v-126z" />
    <glyph glyph-name="franc" unicode="&#x20a3;" horiz-adv-x="710" 
d="M203 331v-243c0 -54 8 -61 83 -67v-24c-63 6 -92 8 -125 8c-34 0 -62 -2 -125 -8v24c74 6 82 13 82 67v488c0 53 -10 62 -82 66v25h435l18 -150h-23c-25 95 -48 119 -118 119h-145v-274h144c44 0 55 15 58 82h25v-196h-25c-2 66 -16 83 -64 83h-138zM482 261v17
c36 4 65 10 88 18c2 -18 3 -24 5 -47c23 31 41 42 70 42c33 0 58 -22 58 -50c0 -18 -13 -32 -30 -32c-16 0 -29 11 -29 24c0 1 0 2 2 13c1 2 1 3 1 4c0 5 -8 11 -15 11c-31 0 -50 -36 -50 -92v-124c0 -23 5 -26 45 -28v-19c-40 3 -55 4 -74 4c-17 0 -33 -1 -72 -4v19
c39 2 44 5 44 28v182c0 19 -1 26 -4 29c-4 3 -8 4 -39 5z" />
    <glyph glyph-name="one.fitted" horiz-adv-x="325" 
d="M210 683v-595c0 -54 8 -61 83 -67v-24c-49 5 -70 6 -124 6s-75 -1 -123 -6v24c74 6 82 13 82 67v459h-112v24c82 5 146 48 167 112h27z" />
    <glyph glyph-name="two.fitted" horiz-adv-x="455" 
d="M413 70l-9 -70h-374v56c87 102 130 155 176 217c86 117 115 175 115 226c0 62 -45 106 -109 106c-46 0 -88 -22 -111 -58c-13 -23 -19 -41 -26 -81h-32c6 69 17 103 41 133c32 40 85 62 148 62c102 0 175 -63 175 -151c0 -82 -39 -139 -300 -440h306z" />
    <glyph glyph-name="three.fitted" horiz-adv-x="485" 
d="M37 185h34c8 -99 51 -143 137 -143c88 0 143 56 143 145c0 66 -28 114 -78 132c-18 6 -60 12 -88 12h-12v35h12c89 0 141 47 141 129c0 71 -42 115 -109 115c-73 0 -115 -39 -133 -123h-30c12 116 73 174 183 174c103 0 172 -63 172 -157c0 -74 -42 -125 -123 -149
c42 -10 62 -19 86 -35c41 -30 65 -78 65 -134c0 -112 -89 -195 -209 -195c-121 0 -187 67 -191 194z" />
    <glyph glyph-name="four.fitted" horiz-adv-x="478" 
d="M266 -2v188h-270l271 495h81v-432h111v-63h-111v-188h-82zM267 249l2 377l-203 -377h201z" />
    <glyph glyph-name="five.fitted" horiz-adv-x="483" 
d="M394 582h-256l-34 -193c37 39 79 56 135 56c117 0 196 -87 196 -218c0 -138 -89 -236 -214 -236c-105 0 -164 57 -173 166h33c10 -77 50 -115 122 -115c88 0 146 73 146 184c0 104 -53 171 -136 171c-55 0 -95 -24 -125 -75l-30 2l57 328h289z" />
    <glyph glyph-name="six.fitted" horiz-adv-x="491" 
d="M350 693h51c-84 -78 -170 -182 -211 -256c30 10 46 13 70 13c111 0 190 -94 190 -225c0 -136 -86 -234 -205 -234c-122 0 -207 95 -207 232c0 105 49 202 163 326c46 51 100 102 149 144zM245 417c-78 0 -120 -68 -120 -194c0 -133 40 -203 118 -203c77 0 118 70 118 199
c0 128 -41 198 -116 198z" />
    <glyph glyph-name="seven.fitted" horiz-adv-x="386" 
d="M32 0l289 579h-333v73h413l-294 -652h-75z" />
    <glyph glyph-name="eight.fitted" horiz-adv-x="486" 
d="M324 342c77 -27 115 -81 115 -161c0 -114 -79 -190 -196 -190c-119 0 -195 73 -195 188c0 79 34 128 113 163c-67 29 -98 75 -98 146c0 104 74 173 184 173c107 0 176 -67 176 -170c0 -69 -32 -118 -99 -149zM246 326c-68 0 -115 -60 -115 -149c0 -97 43 -157 112 -157
c68 0 113 63 113 155c0 91 -44 151 -110 151zM246 632c-62 0 -100 -52 -100 -136c0 -90 35 -141 97 -141c59 0 97 53 97 137c0 89 -34 140 -94 140z" />
    <glyph glyph-name="nine.fitted" horiz-adv-x="472" 
d="M143 -42h-51c78 75 162 184 201 258c-29 -10 -47 -14 -69 -14c-106 0 -182 95 -182 227c0 136 80 232 195 232c118 0 198 -94 198 -233c0 -105 -45 -200 -152 -325c-47 -55 -98 -108 -140 -145zM239 632c-73 0 -111 -66 -111 -194c0 -132 39 -203 111 -203
c73 0 112 66 112 191c0 136 -38 206 -112 206z" />
    <glyph glyph-name="zero.fitted" horiz-adv-x="515" 
d="M259 661c64 0 118 -29 149 -82c38 -62 59 -153 59 -253c0 -90 -17 -173 -49 -236c-33 -64 -89 -99 -160 -99c-133 0 -210 123 -210 337c0 98 21 189 58 249c34 54 88 84 153 84zM257 632c-80 0 -124 -109 -124 -305c0 -199 44 -307 126 -307c81 0 123 106 123 308
c0 196 -44 304 -125 304z" />
    <glyph glyph-name="sterling.fitted" horiz-adv-x="481" 
d="M201 361h127v-37h-132l-15 -114c-10 -74 -32 -129 -72 -177c49 24 71 30 106 30c18 0 28 -2 65 -10c26 -5 38 -7 58 -7c49 0 76 30 88 99h35c-14 -109 -52 -145 -157 -145h-259c29 35 41 74 53 169l19 155h-72v37h77l10 82c18 152 89 235 200 235c73 0 114 -41 123 -125
h-40c-8 64 -31 90 -79 90c-42 0 -77 -25 -98 -69c-10 -22 -18 -57 -24 -109z" />
    <glyph glyph-name="dollar.fitted" horiz-adv-x="518" 
d="M243 19v286c-68 27 -75 30 -95 41c-65 34 -93 79 -93 150c0 103 75 175 188 182v79h31v-79c48 -3 86 -21 120 -54l31 56h14v-185h-21c-21 97 -68 146 -144 152v-263c65 -26 86 -35 110 -49c60 -36 89 -85 89 -153c0 -108 -80 -186 -199 -193v-79h-31v79
c-53 4 -103 25 -143 60l-39 -64h-14v217h22c15 -111 78 -177 174 -183zM274 292v-273c82 10 125 56 125 135c0 69 -28 100 -125 138zM243 396v250c-70 -8 -116 -60 -116 -128c0 -42 19 -75 54 -94c17 -9 32 -16 62 -28z" />
    <glyph glyph-name="cent.fitted" horiz-adv-x="452" 
d="M264 550v-428c52 9 86 55 95 129h38c-8 -89 -58 -150 -133 -161v-78h-31v76c-112 9 -185 105 -185 245c0 139 72 234 185 244v77h31v-78c32 -3 56 -16 80 -40l27 50h17v-163h-22c-14 77 -48 119 -102 127zM233 122v427c-68 -13 -101 -83 -101 -212
c0 -137 31 -204 101 -215z" />
    <glyph glyph-name="florin.fitted" horiz-adv-x="481" 
d="M411 472l-1 -37h-108l-57 -321c-17 -93 -34 -149 -57 -182c-29 -40 -67 -59 -116 -59c-60 0 -101 32 -101 78c0 27 16 45 41 45c21 0 34 -11 34 -29c0 -8 -1 -11 -4 -21c-3 -9 -4 -13 -4 -18c0 -15 12 -24 32 -24c43 0 64 36 82 137l70 394h-70l2 32h15c53 0 58 5 71 62
c16 71 21 86 37 111c26 44 73 68 129 68s92 -29 92 -73c0 -30 -14 -46 -38 -46c-21 0 -37 12 -37 29c0 4 2 14 4 20c3 11 3 12 3 19c-1 14 -8 20 -26 20c-40 0 -65 -31 -77 -98l-19 -107h103z" />
    <glyph glyph-name="one.numerator" horiz-adv-x="239" 
d="M144 664v-241c0 -20 2 -21 34 -24v-16c-24 2 -36 3 -55 3s-31 -1 -56 -3v16c33 3 35 4 35 24v180h-48v16c37 1 64 18 73 45h17z" />
    <glyph glyph-name="two.numerator" horiz-adv-x="240" 
d="M202 419l-5 -34h-165v27c83 88 124 147 124 176c0 23 -18 39 -43 39c-32 0 -50 -17 -56 -56h-20c6 58 32 85 84 85c45 0 78 -27 78 -64c0 -26 -14 -51 -55 -97c-59 -66 -59 -66 -69 -76h127z" />
    <glyph glyph-name="three.numerator" horiz-adv-x="239" 
d="M29 465h21c3 -41 19 -57 55 -57s58 21 58 55c0 36 -22 54 -68 54h-8v21h8c36 0 57 18 57 49c0 26 -16 42 -43 42c-30 0 -46 -15 -54 -49h-19c5 51 32 76 81 76c46 0 77 -27 77 -66c0 -28 -14 -46 -44 -59c37 -12 56 -36 56 -69c0 -47 -39 -81 -92 -81
c-55 0 -83 28 -85 84z" />
    <glyph glyph-name="four.numerator" horiz-adv-x="240" 
d="M134 378v76h-119l120 205h41v-173h47v-32h-47v-76h-42zM134 486v133l-76 -133h76z" />
    <glyph glyph-name="five.numerator" horiz-adv-x="240" 
d="M188 618h-110l-12 -66c18 13 31 17 54 17c51 0 86 -37 86 -90c0 -56 -40 -98 -94 -98c-48 0 -75 26 -78 73h20c5 -32 20 -46 49 -46c36 0 60 28 60 71c0 39 -21 64 -56 64c-23 0 -37 -8 -51 -29h-18l25 138h130z" />
    <glyph glyph-name="six.numerator" horiz-adv-x="239" 
d="M163 669h31c-40 -35 -64 -62 -91 -100c11 2 17 3 23 3c48 0 84 -40 84 -94c0 -56 -38 -96 -91 -96c-54 0 -91 39 -91 96c0 56 44 119 135 191zM119 552c-31 0 -47 -25 -47 -74c0 -53 15 -78 46 -78c32 0 47 25 47 76c0 50 -16 76 -46 76z" />
    <glyph glyph-name="seven.numerator" horiz-adv-x="239" 
d="M45 385l123 231h-140v36h184l-128 -267h-39z" />
    <glyph glyph-name="eight.numerator" horiz-adv-x="239" 
d="M163 525c29 -13 43 -34 43 -64c0 -48 -35 -79 -87 -79c-53 0 -86 30 -86 78c0 31 11 48 43 65c-26 15 -37 32 -37 59c0 42 34 72 82 72c47 0 78 -28 78 -71c0 -27 -10 -43 -36 -60zM120 516c-26 0 -45 -24 -45 -57c0 -37 17 -59 44 -59s45 23 45 59c0 33 -18 57 -44 57z
M120 638c-23 0 -39 -21 -39 -52c0 -33 14 -52 38 -52s38 19 38 51c0 34 -13 53 -37 53z" />
    <glyph glyph-name="nine.numerator" horiz-adv-x="239" 
d="M81 368h-32c35 31 65 66 87 100c-10 -2 -16 -3 -22 -3c-47 0 -81 40 -81 95c0 56 36 96 86 96c52 0 88 -40 88 -97c0 -55 -45 -123 -126 -191zM120 638c-28 0 -44 -26 -44 -75c0 -50 16 -78 44 -78s45 27 45 73c0 51 -17 80 -45 80z" />
    <glyph glyph-name="zero.numerator" horiz-adv-x="239" 
d="M120 656c57 0 92 -52 92 -137c0 -86 -35 -137 -93 -137c-59 0 -92 50 -92 138c0 84 35 136 93 136zM120 638c-32 0 -50 -42 -50 -118c0 -79 17 -120 50 -120c32 0 49 42 49 120c0 74 -18 118 -49 118z" />
    <glyph glyph-name="one.denominator" horiz-adv-x="239" 
d="M144 280v-241c0 -20 1 -21 34 -24v-16c-21 2 -27 2 -55 2s-35 0 -56 -2v16c34 3 35 3 35 24v180h-48v16c37 1 64 18 73 45h17z" />
    <glyph glyph-name="two.denominator" horiz-adv-x="240" 
d="M202 34l-5 -34h-165v27l7 8c77 81 117 139 117 169c0 23 -17 38 -43 38c-33 0 -50 -17 -56 -55h-20c6 58 32 84 84 84c46 0 78 -26 78 -64c0 -25 -16 -54 -55 -97c-12 -12 -23 -25 -34 -38c-19 -22 -26 -30 -35 -38h127z" />
    <glyph glyph-name="three.denominator" horiz-adv-x="239" 
d="M29 81h21c3 -41 20 -58 55 -58s58 22 58 56c0 36 -22 53 -68 53h-8v21h8c37 0 57 17 57 49c0 26 -16 42 -43 42c-30 0 -46 -15 -54 -49h-19c5 52 31 76 81 76c46 0 77 -27 77 -66c0 -28 -14 -46 -44 -59c37 -13 56 -35 56 -68c0 -46 -40 -82 -92 -82c-55 0 -83 29 -85 85
z" />
    <glyph glyph-name="four.denominator" horiz-adv-x="240" 
d="M134 -6v75h-119l120 206h41v-174h47v-32h-47v-75h-42zM134 101v134l-76 -134h76z" />
    <glyph glyph-name="five.denominator" horiz-adv-x="240" 
d="M188 234h-110l-12 -66c18 12 32 17 53 17c51 0 87 -38 87 -91c0 -56 -40 -98 -95 -98c-46 0 -74 26 -77 73h20c5 -32 20 -46 49 -46c36 0 60 29 60 70c0 40 -22 66 -55 66c-23 0 -38 -9 -52 -30h-18l25 139h130z" />
    <glyph glyph-name="six.denominator" horiz-adv-x="239" 
d="M163 284h31c-40 -35 -64 -62 -91 -100c11 2 17 3 23 3c48 0 84 -40 84 -94c0 -55 -39 -97 -91 -97c-53 0 -91 40 -91 97c0 56 44 119 135 191zM119 167c-31 0 -47 -25 -47 -74c0 -52 16 -79 46 -79c31 0 47 27 47 77s-16 76 -46 76z" />
    <glyph glyph-name="seven.denominator" horiz-adv-x="239" 
d="M45 0l123 231h-140v36h184l-128 -267h-39z" />
    <glyph glyph-name="eight.denominator" horiz-adv-x="239" 
d="M163 140c29 -13 43 -34 43 -64c0 -47 -36 -80 -87 -80s-86 32 -86 79c0 31 11 48 43 65c-26 15 -37 32 -37 58c0 43 34 73 82 73c47 0 78 -28 78 -71c0 -27 -10 -43 -36 -60zM120 131c-26 0 -45 -24 -45 -57c0 -36 18 -60 44 -60s45 25 45 60c0 33 -18 57 -44 57z
M120 253c-23 0 -39 -21 -39 -52c0 -33 14 -52 38 -52s38 19 38 51c0 34 -13 53 -37 53z" />
    <glyph glyph-name="nine.denominator" horiz-adv-x="239" 
d="M81 -17h-32c36 33 65 66 87 101c-10 -3 -13 -3 -22 -3c-48 0 -81 39 -81 94c0 56 36 96 86 96c52 0 88 -40 88 -97c0 -55 -44 -121 -126 -191zM120 253c-28 0 -44 -26 -44 -75c0 -50 15 -77 44 -77s45 26 45 73c0 50 -16 79 -45 79z" />
    <glyph glyph-name="zero.denominator" horiz-adv-x="239" 
d="M120 271c57 0 92 -52 92 -137s-36 -138 -92 -138c-59 0 -93 52 -93 139c0 84 35 136 93 136zM120 253c-32 0 -50 -42 -50 -118c0 -78 18 -121 50 -121c31 0 49 44 49 121c0 74 -18 118 -49 118z" />
    <glyph glyph-name="anoteleia" unicode="&#x387;" 
d="M116 302c30 0 56 -27 56 -57c0 -32 -25 -57 -57 -57s-57 25 -57 56c0 32 26 58 58 58z" />
    <glyph glyph-name="dotmath" unicode="&#x22c5;" 
d="M116 302c30 0 56 -27 56 -57c0 -32 -25 -57 -57 -57s-57 25 -57 56c0 32 26 58 58 58z" />
    <glyph glyph-name="afii57929" unicode="&#x2bc;" horiz-adv-x="238" 
d="M104 451h-48c39 37 73 96 75 129h-4c-4 -1 -6 -1 -8 -1c-28 0 -48 20 -48 47c0 30 23 52 55 52c35 0 56 -23 56 -63c0 -49 -24 -100 -78 -164z" />
    <glyph glyph-name="uni00AD" unicode="&#xad;" horiz-adv-x="257" 
d="M0 245v45h257v-45h-257z" />
    <glyph glyph-name="uni2011" unicode="&#x2011;" horiz-adv-x="257" 
d="M0 245v45h257v-45h-257z" />
    <glyph glyph-name="afii00208" unicode="&#x2015;" horiz-adv-x="587" 
d="M0 246v43h587v-43h-587z" />
    <glyph glyph-name="uni2101" unicode="&#x2101;" horiz-adv-x="866" 
d="M262 381h-142l-21 -59c-6 -16 -6 -16 -6 -21c0 -10 9 -13 43 -15v-21c-25 2 -37 3 -62 3s-38 -1 -63 -3v21c40 2 47 7 60 40l137 359l140 -366c10 -26 16 -30 58 -33v-21c-37 4 -56 5 -79 5s-42 -1 -79 -5v21c35 3 42 6 42 16c0 3 0 4 -4 14zM129 406h124l-61 169zM318 0
l304 667h37l-304 -667h-37zM568 126h21c11 -71 47 -106 107 -106c50 0 83 30 83 75c0 23 -9 43 -26 55c-13 9 -20 13 -61 29c-45 18 -57 24 -74 34c-30 17 -46 47 -46 83c0 64 52 110 124 110c32 0 59 -10 81 -29l17 31h17v-116h-21c-14 61 -42 89 -89 89
c-44 0 -78 -31 -78 -71c0 -23 11 -42 32 -53c13 -7 13 -7 63 -27c43 -17 53 -22 70 -33c28 -19 43 -49 43 -85c0 -68 -55 -117 -130 -117c-37 0 -67 10 -95 32l-22 -36h-16v135z" />
    <glyph glyph-name="uni2236" unicode="&#x2236;" horiz-adv-x="262" 
d="M132 259c28 0 51 -24 51 -52c0 -29 -23 -52 -52 -52s-52 23 -52 52s23 52 53 52zM132 520c27 0 51 -24 51 -52c0 -29 -23 -52 -52 -52s-52 23 -52 52c0 28 24 52 53 52z" />
    <glyph glyph-name="uniEA31" unicode="&#xea31;" horiz-adv-x="500" 
d="M310 525h19c-2 -52 -31 -83 -79 -83c-57 0 -94 46 -94 115c0 70 37 114 95 114c22 0 38 -5 53 -17l11 16h11v-69h-14c-9 37 -26 53 -57 53c-41 0 -62 -33 -62 -96c0 -61 22 -95 62 -95c33 0 53 22 55 62zM250 764c116 0 209 -93 209 -207c0 -117 -93 -209 -211 -209
c-113 0 -206 94 -206 208c0 116 93 208 208 208zM250 736c-101 0 -180 -79 -180 -180c0 -99 80 -180 178 -180c103 0 183 79 183 181c0 99 -80 179 -181 179z" />
    <glyph glyph-name="uniEA32" unicode="&#xea32;" horiz-adv-x="500" 
d="M221 549v-70v-6c0 -9 3 -10 29 -12v-15c-24 2 -34 3 -46 3c-13 0 -23 -1 -46 -3v15c27 2 28 3 28 18v156c0 16 -1 16 -28 18v14h95c48 0 76 -22 76 -59c0 -27 -16 -46 -47 -55c9 -5 12 -10 20 -25l23 -50c7 -15 10 -17 28 -17v-15c-8 1 -9 1 -26 1c-16 0 -16 0 -24 -1
l-3 7l-4 8l-3 7l-26 57c-9 20 -15 24 -36 24h-10zM221 565h26c30 0 47 16 47 44c0 27 -16 42 -45 42h-28v-86zM250 764c116 0 209 -93 209 -207c0 -117 -93 -209 -211 -209c-113 0 -206 94 -206 208c0 116 93 208 208 208zM250 736c-101 0 -180 -79 -180 -180
c0 -99 80 -180 178 -180c103 0 183 79 183 181c0 99 -80 179 -181 179z" />
    <glyph glyph-name="oneone" horiz-adv-x="734" 
d="M204 670v-354c0 -30 4 -33 51 -36v-21c-31 3 -42 3 -80 3s-49 0 -80 -3v21c47 3 51 6 51 36v267h-70v21c53 2 92 27 105 66h23zM154 0l383 652h42l-383 -652h-42zM596 410v-355c0 -30 3 -32 51 -36v-21c-33 3 -49 4 -80 4s-47 -1 -80 -4v21c48 4 51 6 51 36v267h-69v21
c53 3 92 28 104 67h23z" />
    <glyph glyph-name="onefifth" horiz-adv-x="731" 
d="M204 670v-354c0 -30 4 -33 51 -36v-21c-33 3 -47 4 -79 4c-33 0 -48 -1 -81 -4v21c48 3 52 6 52 36v268h-70v20c54 4 92 27 105 66h22zM154 0l382 652h42l-382 -652h-42zM658 345h-159l-18 -102c26 20 48 27 79 27c74 0 124 -54 124 -132c0 -84 -56 -143 -136 -143
c-69 0 -106 35 -111 104h27c6 -46 29 -68 73 -68c53 0 87 41 87 105c0 61 -31 99 -81 99c-34 0 -57 -13 -76 -45l-24 2l37 200h185z" />
    <glyph glyph-name="twofifth" horiz-adv-x="731" 
d="M289 308l-6 -48h-238v38c130 143 180 216 180 261c0 35 -27 60 -64 60c-26 0 -52 -13 -66 -34c-8 -12 -12 -24 -16 -49h-26c4 44 10 65 26 84c20 23 56 38 94 38c64 0 112 -40 112 -93c0 -49 -22 -80 -182 -257h186zM153 0l383 652h42l-383 -652h-42zM658 345h-159
l-19 -102c27 20 49 27 79 27c74 0 125 -54 125 -132c0 -84 -57 -143 -136 -143c-69 0 -106 35 -111 104h27c5 -46 29 -68 73 -68c52 0 87 42 87 106c0 60 -31 98 -81 98c-34 0 -57 -13 -76 -45l-24 2l36 200h186z" />
    <glyph glyph-name="threefifth" horiz-adv-x="731" 
d="M40 376h27c6 -60 30 -85 82 -85c53 0 86 32 86 83c0 56 -31 82 -98 82h-12v27h13c51 0 81 27 81 74c0 41 -24 65 -64 65c-44 0 -69 -23 -79 -73h-25c7 73 46 109 117 109c65 0 109 -39 109 -96c0 -42 -19 -68 -67 -88c58 -18 84 -49 84 -100c0 -69 -56 -119 -132 -119
c-78 0 -118 40 -122 121zM153 0l383 652h42l-383 -652h-42zM658 345h-159l-19 -102c27 20 48 27 79 27c75 0 124 -53 124 -132c0 -85 -55 -143 -135 -143c-69 0 -106 35 -111 104h26c7 -46 30 -68 73 -68c54 0 87 40 87 106c0 61 -30 98 -80 98c-34 0 -57 -13 -76 -45l-24 2
l36 200h185z" />
    <glyph glyph-name="fourfifth" horiz-adv-x="726" 
d="M188 255v111h-170l172 300h56v-256h69v-44h-69v-111h-58zM189 410v205l-115 -205h115zM148 0l383 652h42l-383 -652h-42zM653 345h-159l-19 -102c27 20 49 27 79 27c74 0 125 -54 125 -132c0 -84 -57 -143 -136 -143c-69 0 -106 35 -111 104h27c5 -46 29 -68 73 -68
c52 0 87 42 87 106c0 60 -32 98 -81 98c-34 0 -58 -14 -76 -45l-24 2l36 200h186z" />
    <glyph glyph-name="onesixth" horiz-adv-x="734" 
d="M204 670v-354c0 -30 4 -33 51 -36v-21c-31 3 -42 3 -80 3s-49 0 -80 -3v21c47 3 51 6 51 36v267h-70v21c53 2 92 27 105 66h23zM154 0l383 652h42l-383 -652h-42zM626 416h42c-53 -46 -103 -103 -132 -149c11 3 27 6 37 6c68 0 120 -59 120 -137
c0 -82 -54 -141 -130 -141c-79 0 -132 57 -132 140c0 63 30 121 102 195c30 31 62 61 93 86zM562 247c-46 0 -70 -38 -70 -112c0 -79 22 -116 69 -116c46 0 70 39 70 114c0 73 -25 114 -69 114z" />
    <glyph glyph-name="fivesixth" horiz-adv-x="731" 
d="M268 605h-159l-19 -102c27 20 47 27 79 27c74 0 125 -53 125 -131c0 -84 -57 -143 -136 -143c-69 0 -106 35 -111 104h27c6 -47 28 -68 72 -68c53 0 88 42 88 105c0 61 -31 98 -81 98c-35 0 -57 -13 -76 -44l-24 1l36 200h185zM153 0l383 652h41l-382 -652h-42zM624 416
h40c-55 -49 -101 -101 -132 -149c18 4 22 5 37 5c70 0 121 -57 121 -136c0 -82 -55 -141 -130 -141c-78 0 -132 58 -132 140c0 83 60 169 196 281zM559 247c-46 0 -71 -40 -71 -112c0 -77 24 -117 70 -117s71 41 71 114c0 74 -25 115 -70 115z" />
    <glyph glyph-name="uniEA72" unicode="&#xea72;" horiz-adv-x="240" 
d="M143 664v-241c0 -19 3 -21 35 -24v-15c-23 2 -34 2 -55 2c-22 0 -33 0 -56 -2v15c32 3 35 5 35 24v181h-48v15c37 2 65 19 72 45h17zM6 341h227v-31h-227v31zM202 34l-5 -34h-165v27c81 86 124 147 124 177c0 23 -17 38 -43 38c-33 0 -50 -16 -56 -55h-20
c6 58 32 84 84 84c46 0 78 -26 78 -63c0 -26 -14 -52 -55 -98c-60 -67 -60 -67 -69 -76h127z" />
    <glyph glyph-name="uniEA73" unicode="&#xea73;" horiz-adv-x="240" 
d="M143 664v-241c0 -19 3 -21 35 -24v-15c-23 2 -34 2 -55 2c-22 0 -33 0 -56 -2v15c32 3 35 5 35 24v181h-48v15c37 2 65 19 72 45h17zM6 341h227v-31h-227v31zM134 -6v75h-119l120 206h41v-174h47v-32h-47v-75h-42zM134 101v134l-76 -134h76z" />
    <glyph glyph-name="uniEA74" unicode="&#xea74;" horiz-adv-x="240" 
d="M29 465h20c4 -41 20 -58 56 -58c35 0 58 22 58 56c0 36 -22 54 -65 54h-11v20h11c33 0 54 19 54 49c0 26 -17 44 -43 44c-30 0 -47 -16 -54 -50h-19c6 52 32 76 81 76c45 0 77 -27 77 -66c0 -28 -14 -46 -45 -60c39 -13 57 -34 57 -68c0 -46 -40 -81 -93 -81
c-54 0 -82 28 -84 84zM6 341h227v-31h-227v31zM134 -6v75h-119l120 206h41v-174h47v-32h-47v-75h-42zM134 101v134l-76 -134h76z" />
    <glyph glyph-name="Dieresis" unicode="&#xf6cb;" horiz-adv-x="500" 
d="M161 849c32 0 56 -24 56 -56s-25 -57 -56 -57s-57 26 -57 57c0 32 24 56 57 56zM340 849c32 0 55 -23 55 -56s-24 -57 -56 -57c-31 0 -57 26 -57 57c0 32 25 56 58 56z" />
    <glyph glyph-name="Dotaccent" horiz-adv-x="500" 
d="M251 850c29 0 56 -27 56 -57c0 -31 -26 -57 -57 -57s-57 26 -57 57s26 57 58 57z" />
    <glyph glyph-name="Ring" horiz-adv-x="500" 
d="M253 879c45 0 82 -38 82 -84c0 -47 -37 -84 -83 -84s-84 38 -84 84s38 84 85 84zM252 844c-27 0 -49 -22 -49 -49s22 -49 49 -49c26 0 48 22 48 49s-22 49 -48 49z" />
    <glyph glyph-name="Acute" unicode="&#xf6c9;" horiz-adv-x="500" 
d="M217 724l126 137h121l-197 -137h-50z" />
    <glyph glyph-name="Grave" unicode="&#xf6ce;" horiz-adv-x="500" 
d="M319 724h-50l-197 137h121z" />
    <glyph glyph-name="Circumflex" horiz-adv-x="500" 
d="M80 725l142 135h56l142 -135h-50l-120 83l-120 -83h-50z" />
    <glyph glyph-name="Caron" unicode="&#xf6ca;" horiz-adv-x="500" 
d="M420 859l-142 -135h-56l-142 135h50l120 -83l120 83h50z" />
    <glyph glyph-name="Breve" horiz-adv-x="500" 
d="M351 859h34c-10 -85 -61 -135 -135 -135c-75 0 -126 51 -136 135h34c20 -49 54 -73 102 -73c47 0 81 24 101 73z" />
    <glyph glyph-name="Tilde" horiz-adv-x="500" 
d="M115 743l-29 8c19 70 47 98 98 98c30 0 39 -4 94 -42c17 -11 30 -16 46 -16c31 0 47 14 60 52l29 -6c-7 -40 -15 -58 -36 -77c-19 -17 -40 -26 -63 -26c-27 0 -44 7 -86 38c-22 15 -35 20 -52 20c-29 0 -46 -14 -61 -49z" />
    <glyph glyph-name="Hungarumlaut" unicode="&#xf6cf;" horiz-adv-x="500" 
d="M150 724l108 137h95l-157 -137h-46zM307 724l108 137h96l-158 -137h-46z" />
    <glyph glyph-name="Cedilla" horiz-adv-x="500" 
d="M241 0h44l-30 -58c61 -5 88 -27 88 -72c0 -46 -39 -79 -92 -79c-25 0 -50 5 -80 16v33c26 -7 36 -9 52 -9c33 0 54 18 54 45c0 31 -21 42 -79 44z" />
    <glyph glyph-name="Ogonek" horiz-adv-x="500" 
d="M403 8l48 -8c-70 -23 -105 -51 -105 -83c0 -27 23 -47 55 -47c14 0 28 2 51 9v-32c-33 -12 -53 -16 -78 -16c-57 0 -96 31 -96 77c0 44 41 77 125 100z" />
    <glyph glyph-name="Macron" unicode="&#xf6d0;" horiz-adv-x="500" 
d="M89 761v51h322v-51h-322z" />
    <glyph glyph-name="commaaccent.cap" horiz-adv-x="500" 
d="M244 -241h-45c32 29 53 63 57 94h-3c-4 -1 -5 -1 -7 -1c-28 0 -46 17 -46 44c0 30 19 48 51 48c33 0 52 -21 52 -58c0 -41 -18 -81 -59 -127z" />
    <glyph glyph-name="uniEA67" unicode="&#xea67;" horiz-adv-x="500" 
d="M377 484h-45c36 32 58 71 57 102l-3 1l-5 -1c-1 -1 -2 -1 -2 -1c-7 -1 -26 5 -31 10c-10 8 -15 20 -15 36c0 29 20 49 51 49c34 0 52 -22 52 -66c0 -45 -17 -82 -59 -130z" />
    <glyph glyph-name="uniEA68" unicode="&#xea68;" horiz-adv-x="500" 
d="M171 849c30 0 56 -26 56 -56c0 -31 -26 -56 -56 -56c-31 0 -56 25 -56 56s25 56 56 56zM331 849c29 0 55 -26 55 -56c0 -31 -25 -56 -56 -56c-30 0 -56 25 -56 56c0 30 26 56 57 56z" />
    <glyph glyph-name="uni02C9" unicode="&#x2c9;" horiz-adv-x="500" 
d="M97 603v51h305v-51h-305z" />
    <glyph glyph-name="commaaccent" unicode="&#xf6c3;" horiz-adv-x="500" 
d="M244 -241h-45c32 29 53 63 57 94h-3c-4 -1 -5 -1 -7 -1c-28 0 -46 17 -46 44c0 30 19 48 51 48c33 0 52 -21 52 -58c0 -41 -18 -81 -59 -127z" />
    <glyph glyph-name="uniEA3F" unicode="&#xea3f;" horiz-adv-x="500" 
d="M410 484h-45c36 33 58 71 57 102l-3 1l-5 -1c-1 -1 -2 -1 -2 -1c-7 -1 -26 5 -31 10c-10 8 -15 20 -15 35c0 29 20 48 51 48c34 0 52 -21 52 -63c0 -41 -12 -69 -51 -120c-3 -4 -6 -7 -8 -11z" />
    <glyph glyph-name="uniEA6A" unicode="&#xea6a;" horiz-adv-x="500" 
d="M176 673c28 0 53 -24 53 -52s-26 -54 -54 -54s-52 24 -52 53c0 31 22 53 53 53zM325 673c28 0 53 -25 53 -52c0 -28 -26 -54 -54 -54s-52 24 -52 53c0 31 22 53 53 53z" />
    <glyph glyph-name="uniEA4F" unicode="&#xea4f;" horiz-adv-x="500" 
d="M252 735h44c-32 -29 -53 -63 -57 -94h4c3 1 5 1 6 1c29 0 46 -17 46 -44c0 -30 -19 -48 -50 -48c-33 0 -53 22 -53 58c0 40 19 81 60 127z" />
    <glyph glyph-name="ebreve" unicode="&#x115;" horiz-adv-x="458" 
d="M380 154h39c-12 -103 -78 -164 -178 -164c-123 0 -201 95 -201 247c0 147 79 245 196 245c113 0 179 -85 182 -235h-297c2 -74 7 -110 19 -143c21 -53 59 -81 113 -81c69 0 114 47 127 131zM123 283h215c-5 117 -38 173 -103 173s-102 -58 -112 -173zM338 697h34
c-11 -90 -62 -144 -136 -144s-126 55 -135 144h33c21 -54 55 -82 102 -82s82 28 102 82z" />
    <glyph glyph-name="iogonek" unicode="&#x12f;" horiz-adv-x="279" 
d="M253 17v-20c-35 -6 -66 -40 -66 -71c0 -28 21 -46 54 -46c13 0 16 1 33 5v-31c-26 -9 -42 -12 -61 -12c-52 0 -91 31 -91 74c0 36 27 63 86 85c-30 1 -54 2 -69 2c-30 0 -54 -1 -109 -6v20c62 3 72 11 72 54v316c0 52 -7 58 -71 59v17c52 4 106 14 151 26v-418
c0 -43 10 -51 71 -54zM138 667c19 0 28 -3 38 -14c9 -11 17 -28 17 -40c0 -29 -26 -55 -56 -55c-29 0 -53 25 -53 55c0 15 6 29 16 40s18 14 38 14z" />
    <glyph glyph-name="ldot" unicode="&#x140;" horiz-adv-x="382" 
d="M174 678v-607c0 -43 10 -51 71 -54v-20c-53 5 -79 6 -111 6s-58 -1 -112 -6v20c62 3 72 11 72 54v505c0 51 -8 58 -71 58v18c50 4 105 14 151 26zM327 402c30 0 56 -27 56 -57c0 -32 -25 -57 -57 -57s-57 25 -57 56c0 32 26 58 58 58z" />
    <glyph glyph-name="utilde" unicode="&#x169;" horiz-adv-x="538" 
d="M16 446v17c51 4 103 13 151 26v-333c0 -86 25 -119 90 -119c70 0 103 42 103 133v217c0 52 -7 58 -70 59v17c50 4 103 14 150 26v-406c0 -45 5 -48 74 -49v-18c-55 -5 -100 -14 -138 -26l-2 30c-2 25 -3 31 -4 61c-33 -64 -72 -89 -136 -89c-54 0 -98 21 -123 59
c-17 24 -24 57 -24 106v230c0 52 -7 58 -71 59zM140 577l-28 8c20 72 44 98 93 98c24 0 41 -7 68 -27c38 -28 45 -31 65 -31c28 0 43 13 57 52l27 -6c-7 -40 -15 -58 -34 -77c-18 -17 -39 -26 -60 -26c-26 0 -42 7 -82 38c-21 15 -32 20 -49 20c-28 0 -43 -13 -57 -49z" />
    <glyph glyph-name="uni01D4" unicode="&#x1d4;" horiz-adv-x="538" 
d="M16 446v17c51 4 103 13 151 26v-333c0 -86 25 -119 90 -119c70 0 103 42 103 133v217c0 52 -7 58 -70 59v17c50 4 103 14 150 26v-406c0 -45 5 -48 74 -49v-18c-55 -5 -100 -14 -138 -26c-2 18 -5 49 -6 91c-33 -64 -72 -89 -136 -89c-54 0 -98 21 -123 59
c-17 24 -24 57 -24 106v230c0 52 -7 58 -71 59zM415 696l-131 -145h-48l-132 145h48l108 -86l107 86h48z" />
    <glyph glyph-name="Ldot" unicode="&#x13f;" horiz-adv-x="505" 
d="M496 161l-23 -161h-441v25c73 5 82 13 82 66v488c0 54 -9 61 -82 67v24c55 -5 82 -7 124 -7c43 0 71 2 126 7v-24c-74 -6 -83 -13 -83 -67v-486c0 -48 13 -59 67 -59h71c79 0 110 29 136 127h23zM409 402c30 0 56 -27 56 -57c0 -32 -25 -57 -57 -57s-57 25 -57 56
c0 32 26 58 58 58z" />
    <glyph glyph-name="Scommaaccent" unicode="&#x218;" horiz-adv-x="519" 
d="M58 202h23c20 -119 80 -180 177 -180c81 0 138 55 138 132c0 40 -15 72 -44 94c-21 15 -31 22 -96 55c-96 49 -121 64 -145 87c-29 28 -42 63 -42 110c0 106 76 176 190 176c55 0 92 -14 131 -52l30 56h18v-184h-24c-23 102 -70 150 -147 150c-71 0 -126 -54 -126 -123
c0 -39 18 -67 57 -91c23 -14 24 -15 98 -52c64 -33 88 -47 114 -66c40 -30 60 -74 60 -132c0 -114 -81 -191 -199 -191c-63 0 -110 17 -159 58l-36 -64h-18v217zM253 -241h-45c32 29 53 63 57 94h-3c-4 -1 -5 -1 -7 -1c-28 0 -46 17 -46 44c0 30 19 48 51 48
c33 0 52 -21 52 -58c0 -41 -18 -81 -59 -127z" />
    <glyph glyph-name="Eng" unicode="&#x14a;" horiz-adv-x="623" 
d="M32 625v25c50 5 89 14 146 34c6 -22 11 -70 12 -115c44 77 93 111 160 111c62 0 118 -36 146 -91c15 -32 24 -86 24 -150v-451c0 -90 -16 -131 -62 -161c-29 -18 -72 -30 -113 -30c-5 0 -17 1 -30 2v30l13 -1c4 -1 8 -1 9 -1c29 0 57 8 72 22c19 18 26 44 26 104v491
c0 62 -6 97 -20 121c-18 33 -49 51 -87 51c-43 0 -84 -23 -105 -60c-17 -29 -23 -61 -23 -118v-350c0 -54 8 -61 82 -67v-24c-65 6 -93 8 -124 8c-32 0 -60 -2 -126 -8v24c75 6 83 13 83 67v449c0 84 -2 87 -83 88z" />
    <glyph glyph-name="Tbar" unicode="&#x166;" horiz-adv-x="529" 
d="M305 426h141v-37h-141v-301c0 -54 8 -61 82 -67v-24c-62 6 -91 8 -124 8c-34 0 -62 -2 -126 -8v24c75 6 83 13 83 67v301h-142v37h142v210h-54c-71 0 -94 -23 -123 -122h-25l27 153h437l28 -153h-24c-27 97 -51 122 -118 122h-63v-210z" />
    <glyph glyph-name="eng" unicode="&#x14b;" horiz-adv-x="548" 
d="M31 442v18c56 8 99 17 132 30c5 -17 9 -50 11 -87c37 55 77 78 135 78c53 0 99 -24 124 -65c15 -24 22 -58 22 -105v-297c0 -89 -19 -138 -68 -176c-36 -29 -71 -40 -131 -41v26c87 14 119 54 119 149v342c0 46 -4 68 -16 87c-15 22 -42 35 -73 35c-34 0 -66 -16 -85 -43
c-14 -19 -19 -41 -19 -83v-241c0 -40 13 -50 65 -52v-20c-49 5 -75 6 -108 6s-58 -1 -109 -6v20c62 3 72 11 72 54v309c0 61 0 61 -71 62z" />
    <glyph glyph-name="tbar" unicode="&#x167;" horiz-adv-x="309" 
d="M91 353l2 82h-65v31c63 2 101 49 120 149h25v-143h116v-37h-116v-82h116v-37h-117v-172c0 -43 3 -69 10 -83c9 -20 27 -31 50 -31c18 0 36 6 65 21v-29c-35 -22 -64 -31 -98 -31c-48 0 -85 22 -100 60c-7 17 -11 48 -11 84v21l3 160h-63v37h63z" />
    <glyph glyph-name="kgreenlandic" unicode="&#x138;" horiz-adv-x="534" 
d="M173 232l161 171c12 12 16 20 16 28c0 15 -15 22 -54 24v20c40 -4 63 -5 94 -5s55 1 99 5v-20c-51 -4 -66 -12 -100 -47l-96 -101l141 -236c26 -43 41 -52 90 -54v-20c-41 3 -52 4 -68 4c-17 0 -27 -1 -66 -4l-148 262l-70 -72v-116c0 -43 11 -51 72 -54v-20
c-53 5 -78 6 -111 6s-59 -1 -111 -6v20c62 3 72 11 72 54v316c0 52 -7 58 -71 59v17c56 6 100 14 150 27v-258z" />
    <glyph glyph-name="napostrophe" unicode="&#x149;" horiz-adv-x="719" 
d="M104 451h-48c39 37 73 96 75 129h-4c-4 -1 -6 -1 -8 -1c-28 0 -48 20 -48 47c0 30 23 52 55 52c35 0 56 -23 56 -63c0 -49 -24 -100 -78 -164zM202 442v18c56 8 99 17 132 30c5 -17 9 -50 11 -87c37 55 76 78 135 78c53 0 99 -24 124 -65c15 -24 22 -58 22 -105v-240
c0 -43 10 -51 72 -54v-20c-51 5 -76 6 -110 6c-33 0 -59 -1 -108 -6v20c53 2 66 12 66 52v245c0 46 -4 68 -16 87c-15 22 -41 35 -73 35c-35 0 -67 -16 -85 -43c-14 -19 -19 -41 -19 -83v-241c0 -40 12 -50 64 -52v-20c-49 5 -74 6 -107 6s-58 -1 -109 -6v20
c62 3 72 11 72 54v309c0 57 -4 61 -58 62h-13z" />
    <glyph glyph-name="uni2003" unicode="&#x2003;" horiz-adv-x="1000" 
 />
    <glyph glyph-name="uni2002" unicode="&#x2002;" horiz-adv-x="500" 
 />
    <glyph glyph-name="uni200A" unicode="&#x200a;" horiz-adv-x="125" 
 />
    <glyph glyph-name="uni2007" unicode="&#x2007;" horiz-adv-x="523" 
 />
    <glyph glyph-name="uni00A0" unicode="&#xa0;" horiz-adv-x="250" 
 />
    <glyph glyph-name="lozenge" unicode="&#x25ca;" horiz-adv-x="667" 
d="M334 693l259 -359l-259 -360l-260 360zM334 604l-197 -270l197 -271l197 271z" />
    <glyph glyph-name="Delta" unicode="&#x2206;" horiz-adv-x="667" 
d="M349 683l308 -683h-647l307 683h32zM314 597l-210 -467c-11 -25 -15 -38 -15 -50c0 -23 13 -33 46 -33h421z" />
    <glyph glyph-name="notequal" unicode="&#x2260;" horiz-adv-x="500" 
d="M275 438l57 122l35 -16l-49 -106h157v-38h-175l-48 -102h224v-38h-241l-61 -132l-35 17l54 115h-168v38h185l48 102h-234v38h251z" />
    <glyph glyph-name="radical" unicode="&#x221a;" horiz-adv-x="667" 
d="M650 823v-26h-120l-185 -797h-74l-87 361h-167v26h228l79 -337l181 773h145z" />
    <glyph glyph-name="integral" unicode="&#x222b;" horiz-adv-x="501" 
d="M287 464v-445c0 -116 -7 -160 -33 -207c-29 -50 -70 -76 -122 -76c-66 0 -117 44 -117 101c0 31 22 54 50 54c26 0 48 -21 48 -46c0 -7 -1 -13 -5 -20c-4 -10 -4 -11 -4 -15v-7v-4c0 -13 14 -25 30 -25c46 0 80 75 80 179v458c0 118 7 162 33 209c29 50 71 76 122 76
c66 0 117 -44 117 -101c0 -31 -21 -54 -50 -54c-26 0 -48 20 -48 46c0 7 1 13 5 20c4 9 4 11 4 15c0 25 -9 36 -30 36c-48 0 -80 -77 -80 -194z" />
    <glyph glyph-name="approxequal" unicode="&#x2248;" horiz-adv-x="500" 
d="M458 474l14 -8c-37 -58 -92 -94 -143 -94c-19 0 -32 3 -67 14c-69 22 -94 28 -124 28c-38 0 -51 -8 -96 -59l-15 8c46 64 93 95 146 95c24 0 44 -5 96 -22c42 -13 63 -18 84 -18c38 0 75 20 105 56zM458 320l14 -8c-36 -57 -93 -94 -143 -94c-18 0 -31 3 -67 14
c-70 23 -97 29 -124 29c-34 0 -53 -11 -88 -50l-8 -10l-15 9c45 63 94 95 146 95c21 0 48 -6 96 -22c41 -14 65 -19 85 -19c36 0 75 21 104 56z" />
    <glyph glyph-name="lessequal" unicode="&#x2264;" horiz-adv-x="500" 
d="M457 612v-35l-320 -209l320 -213v-91l-413 275v6zM44 32h413v-32h-413v32z" />
    <glyph glyph-name="greaterequal" unicode="&#x2265;" horiz-adv-x="500" 
d="M44 32h413v-32h-413v32zM44 64v34l320 209l-320 214v91l413 -277v-6z" />
    <glyph glyph-name="infinity" unicode="&#x221e;" horiz-adv-x="667" 
d="M317 292c-24 -38 -33 -50 -49 -69c-28 -33 -65 -51 -105 -51c-83 0 -149 70 -149 158c0 95 71 171 158 171c61 0 116 -41 167 -124c5 7 9 13 14 19c40 62 43 66 67 82s50 24 78 24c85 0 154 -73 154 -164c0 -96 -73 -172 -164 -172c-63 0 -125 46 -171 126zM352 359
c19 -31 23 -36 35 -52c41 -54 89 -83 138 -83c58 0 102 48 102 111c0 67 -53 113 -131 113c-29 0 -62 -9 -85 -24c-22 -14 -36 -29 -59 -65zM302 313c-24 37 -27 41 -41 59c-38 48 -78 70 -124 70c-56 0 -98 -46 -98 -109c0 -65 49 -107 126 -107c61 0 95 22 137 87z" />
    <glyph glyph-name="product" unicode="&#x220f;" horiz-adv-x="667" 
d="M22 667h622v-18h-23c-58 0 -66 -9 -66 -80v-704c0 -70 8 -80 64 -80h24v-18h-249v18h21c59 0 67 9 67 80v704c0 71 -7 80 -67 80h-163c-59 0 -66 -9 -66 -80v-704c0 -71 8 -80 64 -80h24v-18h-249v18h21c59 0 67 9 67 80v704c0 71 -7 80 -67 80h-24v18z" />
    <glyph glyph-name="summation" unicode="&#x2211;" horiz-adv-x="667" 
d="M59 667h509v-158h-18c-13 104 -50 133 -170 133h-230l207 -393l-236 -439h265c83 0 122 13 157 52c23 25 37 55 48 98h18l-33 -193h-517l241 449z" />
    <glyph glyph-name="partialdiff" unicode="&#x2202;" horiz-adv-x="500" 
d="M148 668l9 18c62 -26 118 -63 162 -106c49 -47 82 -102 114 -186c25 -66 34 -111 34 -168c0 -65 -15 -113 -50 -156c-42 -55 -102 -84 -169 -84c-121 0 -215 100 -215 230s94 230 215 230c41 0 83 -14 110 -37c11 -9 19 -18 37 -42c-47 146 -117 232 -247 301zM254 424
c-30 0 -62 -12 -85 -32c-38 -33 -68 -109 -68 -176c0 -71 29 -145 70 -179c24 -20 49 -29 77 -29c27 0 56 12 82 33c43 36 68 103 68 180c0 119 -59 203 -144 203z" />
    <glyph glyph-name="uni203E" unicode="&#x203e;" horiz-adv-x="500" 
d="M25 841h451v-38h-451v38z" />
    <glyph glyph-name="uni2126" unicode="&#x2126;" horiz-adv-x="667" 
d="M686 115l-38 -115h-274v40c72 35 103 58 138 102c47 61 72 135 72 213s-27 159 -72 215c-43 52 -105 81 -179 81c-88 0 -157 -40 -202 -116c-31 -54 -48 -116 -48 -178c0 -95 40 -189 107 -252c27 -26 49 -40 103 -65v-40h-274l-38 115h18c20 -57 47 -72 127 -73l107 -2
v5c-68 27 -98 46 -136 84c-62 61 -97 144 -97 228c0 93 48 191 124 253c57 45 127 68 210 68c110 0 198 -41 261 -120c46 -59 72 -130 72 -199c0 -103 -52 -203 -138 -265c-24 -17 -48 -30 -95 -49v-5l112 2c75 1 101 16 121 73h19z" />
    <glyph glyph-name="Alpha" unicode="&#x391;" 
d="M116 302c30 0 56 -27 56 -57c0 -32 -25 -57 -57 -57s-57 25 -57 56c0 32 26 58 58 58z" />
    <glyph glyph-name="Beta" unicode="&#x392;" 
d="M116 302c30 0 56 -27 56 -57c0 -32 -25 -57 -57 -57s-57 25 -57 56c0 32 26 58 58 58z" />
    <glyph glyph-name="Gamma" unicode="&#x393;" 
d="M116 302c30 0 56 -27 56 -57c0 -32 -25 -57 -57 -57s-57 25 -57 56c0 32 26 58 58 58z" />
    <glyph glyph-name="uni0394" unicode="&#x394;" 
d="M116 302c30 0 56 -27 56 -57c0 -32 -25 -57 -57 -57s-57 25 -57 56c0 32 26 58 58 58z" />
    <glyph glyph-name="Epsilon" unicode="&#x395;" 
d="M116 302c30 0 56 -27 56 -57c0 -32 -25 -57 -57 -57s-57 25 -57 56c0 32 26 58 58 58z" />
    <glyph glyph-name="Zeta" unicode="&#x396;" 
d="M116 302c30 0 56 -27 56 -57c0 -32 -25 -57 -57 -57s-57 25 -57 56c0 32 26 58 58 58z" />
    <glyph glyph-name="Eta" unicode="&#x397;" 
d="M116 302c30 0 56 -27 56 -57c0 -32 -25 -57 -57 -57s-57 25 -57 56c0 32 26 58 58 58z" />
    <glyph glyph-name="Theta" unicode="&#x398;" 
d="M116 302c30 0 56 -27 56 -57c0 -32 -25 -57 -57 -57s-57 25 -57 56c0 32 26 58 58 58z" />
    <glyph glyph-name="Iota" unicode="&#x399;" 
d="M116 302c30 0 56 -27 56 -57c0 -32 -25 -57 -57 -57s-57 25 -57 56c0 32 26 58 58 58z" />
    <glyph glyph-name="Kappa" unicode="&#x39a;" 
d="M116 302c30 0 56 -27 56 -57c0 -32 -25 -57 -57 -57s-57 25 -57 56c0 32 26 58 58 58z" />
    <glyph glyph-name="Lambda" unicode="&#x39b;" 
d="M116 302c30 0 56 -27 56 -57c0 -32 -25 -57 -57 -57s-57 25 -57 56c0 32 26 58 58 58z" />
    <glyph glyph-name="Mu" unicode="&#x39c;" 
d="M116 302c30 0 56 -27 56 -57c0 -32 -25 -57 -57 -57s-57 25 -57 56c0 32 26 58 58 58z" />
    <glyph glyph-name="Nu" unicode="&#x39d;" 
d="M116 302c30 0 56 -27 56 -57c0 -32 -25 -57 -57 -57s-57 25 -57 56c0 32 26 58 58 58z" />
    <glyph glyph-name="Xi" unicode="&#x39e;" 
d="M116 302c30 0 56 -27 56 -57c0 -32 -25 -57 -57 -57s-57 25 -57 56c0 32 26 58 58 58z" />
    <glyph glyph-name="Omicron" unicode="&#x39f;" 
d="M116 302c30 0 56 -27 56 -57c0 -32 -25 -57 -57 -57s-57 25 -57 56c0 32 26 58 58 58z" />
    <glyph glyph-name="Pi" unicode="&#x3a0;" 
d="M116 302c30 0 56 -27 56 -57c0 -32 -25 -57 -57 -57s-57 25 -57 56c0 32 26 58 58 58z" />
    <glyph glyph-name="Rho" unicode="&#x3a1;" 
d="M116 302c30 0 56 -27 56 -57c0 -32 -25 -57 -57 -57s-57 25 -57 56c0 32 26 58 58 58z" />
    <glyph glyph-name="Sigma" unicode="&#x3a3;" 
d="M116 302c30 0 56 -27 56 -57c0 -32 -25 -57 -57 -57s-57 25 -57 56c0 32 26 58 58 58z" />
    <glyph glyph-name="Tau" unicode="&#x3a4;" 
d="M116 302c30 0 56 -27 56 -57c0 -32 -25 -57 -57 -57s-57 25 -57 56c0 32 26 58 58 58z" />
    <glyph glyph-name="Upsilon" unicode="&#x3a5;" 
d="M116 302c30 0 56 -27 56 -57c0 -32 -25 -57 -57 -57s-57 25 -57 56c0 32 26 58 58 58z" />
    <glyph glyph-name="Phi" unicode="&#x3a6;" 
d="M116 302c30 0 56 -27 56 -57c0 -32 -25 -57 -57 -57s-57 25 -57 56c0 32 26 58 58 58z" />
    <glyph glyph-name="Chi" unicode="&#x3a7;" 
d="M116 302c30 0 56 -27 56 -57c0 -32 -25 -57 -57 -57s-57 25 -57 56c0 32 26 58 58 58z" />
    <glyph glyph-name="Psi" unicode="&#x3a8;" 
d="M116 302c30 0 56 -27 56 -57c0 -32 -25 -57 -57 -57s-57 25 -57 56c0 32 26 58 58 58z" />
    <glyph glyph-name="uni03A9" unicode="&#x3a9;" 
d="M116 302c30 0 56 -27 56 -57c0 -32 -25 -57 -57 -57s-57 25 -57 56c0 32 26 58 58 58z" />
    <glyph glyph-name="Upsilon1" unicode="&#x3d2;" 
d="M116 302c30 0 56 -27 56 -57c0 -32 -25 -57 -57 -57s-57 25 -57 56c0 32 26 58 58 58z" />
    <glyph glyph-name="alpha" unicode="&#x3b1;" 
d="M116 302c30 0 56 -27 56 -57c0 -32 -25 -57 -57 -57s-57 25 -57 56c0 32 26 58 58 58z" />
    <glyph glyph-name="beta" unicode="&#x3b2;" 
d="M116 302c30 0 56 -27 56 -57c0 -32 -25 -57 -57 -57s-57 25 -57 56c0 32 26 58 58 58z" />
    <glyph glyph-name="gamma" unicode="&#x3b3;" 
d="M116 302c30 0 56 -27 56 -57c0 -32 -25 -57 -57 -57s-57 25 -57 56c0 32 26 58 58 58z" />
    <glyph glyph-name="delta" unicode="&#x3b4;" 
d="M116 302c30 0 56 -27 56 -57c0 -32 -25 -57 -57 -57s-57 25 -57 56c0 32 26 58 58 58z" />
    <glyph glyph-name="epsilon" unicode="&#x3b5;" 
d="M116 302c30 0 56 -27 56 -57c0 -32 -25 -57 -57 -57s-57 25 -57 56c0 32 26 58 58 58z" />
    <glyph glyph-name="zeta" unicode="&#x3b6;" 
d="M116 302c30 0 56 -27 56 -57c0 -32 -25 -57 -57 -57s-57 25 -57 56c0 32 26 58 58 58z" />
    <glyph glyph-name="eta" unicode="&#x3b7;" 
d="M116 302c30 0 56 -27 56 -57c0 -32 -25 -57 -57 -57s-57 25 -57 56c0 32 26 58 58 58z" />
    <glyph glyph-name="theta" unicode="&#x3b8;" 
d="M116 302c30 0 56 -27 56 -57c0 -32 -25 -57 -57 -57s-57 25 -57 56c0 32 26 58 58 58z" />
    <glyph glyph-name="iota" unicode="&#x3b9;" 
d="M116 302c30 0 56 -27 56 -57c0 -32 -25 -57 -57 -57s-57 25 -57 56c0 32 26 58 58 58z" />
    <glyph glyph-name="kappa" unicode="&#x3ba;" 
d="M116 302c30 0 56 -27 56 -57c0 -32 -25 -57 -57 -57s-57 25 -57 56c0 32 26 58 58 58z" />
    <glyph glyph-name="lambda" unicode="&#x3bb;" 
d="M116 302c30 0 56 -27 56 -57c0 -32 -25 -57 -57 -57s-57 25 -57 56c0 32 26 58 58 58z" />
    <glyph glyph-name="uni03BC" unicode="&#x3bc;" 
d="M116 302c30 0 56 -27 56 -57c0 -32 -25 -57 -57 -57s-57 25 -57 56c0 32 26 58 58 58z" />
    <glyph glyph-name="nu" unicode="&#x3bd;" 
d="M116 302c30 0 56 -27 56 -57c0 -32 -25 -57 -57 -57s-57 25 -57 56c0 32 26 58 58 58z" />
    <glyph glyph-name="xi" unicode="&#x3be;" 
d="M116 302c30 0 56 -27 56 -57c0 -32 -25 -57 -57 -57s-57 25 -57 56c0 32 26 58 58 58z" />
    <glyph glyph-name="omicron" unicode="&#x3bf;" 
d="M116 302c30 0 56 -27 56 -57c0 -32 -25 -57 -57 -57s-57 25 -57 56c0 32 26 58 58 58z" />
    <glyph glyph-name="pi" unicode="&#x3c0;" 
d="M116 302c30 0 56 -27 56 -57c0 -32 -25 -57 -57 -57s-57 25 -57 56c0 32 26 58 58 58z" />
    <glyph glyph-name="rho" unicode="&#x3c1;" 
d="M116 302c30 0 56 -27 56 -57c0 -32 -25 -57 -57 -57s-57 25 -57 56c0 32 26 58 58 58z" />
    <glyph glyph-name="sigma" unicode="&#x3c3;" 
d="M116 302c30 0 56 -27 56 -57c0 -32 -25 -57 -57 -57s-57 25 -57 56c0 32 26 58 58 58z" />
    <glyph glyph-name="tau" unicode="&#x3c4;" 
d="M116 302c30 0 56 -27 56 -57c0 -32 -25 -57 -57 -57s-57 25 -57 56c0 32 26 58 58 58z" />
    <glyph glyph-name="upsilon" unicode="&#x3c5;" 
d="M116 302c30 0 56 -27 56 -57c0 -32 -25 -57 -57 -57s-57 25 -57 56c0 32 26 58 58 58z" />
    <glyph glyph-name="phi1" unicode="&#x3d5;" 
d="M116 302c30 0 56 -27 56 -57c0 -32 -25 -57 -57 -57s-57 25 -57 56c0 32 26 58 58 58z" />
    <glyph glyph-name="chi" unicode="&#x3c7;" 
d="M116 302c30 0 56 -27 56 -57c0 -32 -25 -57 -57 -57s-57 25 -57 56c0 32 26 58 58 58z" />
    <glyph glyph-name="psi" unicode="&#x3c8;" 
d="M116 302c30 0 56 -27 56 -57c0 -32 -25 -57 -57 -57s-57 25 -57 56c0 32 26 58 58 58z" />
    <glyph glyph-name="omega" unicode="&#x3c9;" 
d="M116 302c30 0 56 -27 56 -57c0 -32 -25 -57 -57 -57s-57 25 -57 56c0 32 26 58 58 58z" />
    <glyph glyph-name="uni03C2" unicode="&#x3c2;" 
d="M116 302c30 0 56 -27 56 -57c0 -32 -25 -57 -57 -57s-57 25 -57 56c0 32 26 58 58 58z" />
    <glyph glyph-name="uniEA3E" unicode="&#xea3e;" 
d="M116 302c30 0 56 -27 56 -57c0 -32 -25 -57 -57 -57s-57 25 -57 56c0 32 26 58 58 58z" />
    <glyph glyph-name="theta1" unicode="&#x3d1;" 
d="M116 302c30 0 56 -27 56 -57c0 -32 -25 -57 -57 -57s-57 25 -57 56c0 32 26 58 58 58z" />
    <glyph glyph-name="phi" unicode="&#x3c6;" 
d="M116 302c30 0 56 -27 56 -57c0 -32 -25 -57 -57 -57s-57 25 -57 56c0 32 26 58 58 58z" />
    <glyph glyph-name="omega1" unicode="&#x3d6;" 
d="M116 302c30 0 56 -27 56 -57c0 -32 -25 -57 -57 -57s-57 25 -57 56c0 32 26 58 58 58z" />
    <glyph glyph-name="iotadieresis" unicode="&#x3ca;" 
d="M116 302c30 0 56 -27 56 -57c0 -32 -25 -57 -57 -57s-57 25 -57 56c0 32 26 58 58 58z" />
    <glyph glyph-name="upsilondieresis" unicode="&#x3cb;" 
d="M116 302c30 0 56 -27 56 -57c0 -32 -25 -57 -57 -57s-57 25 -57 56c0 32 26 58 58 58z" />
    <glyph glyph-name="tonos" unicode="&#x384;" 
d="M116 302c30 0 56 -27 56 -57c0 -32 -25 -57 -57 -57s-57 25 -57 56c0 32 26 58 58 58z" />
    <glyph glyph-name="dieresistonos" unicode="&#x385;" 
d="M116 302c30 0 56 -27 56 -57c0 -32 -25 -57 -57 -57s-57 25 -57 56c0 32 26 58 58 58z" />
    <glyph glyph-name="Alphatonos" unicode="&#x386;" 
d="M116 302c30 0 56 -27 56 -57c0 -32 -25 -57 -57 -57s-57 25 -57 56c0 32 26 58 58 58z" />
    <glyph glyph-name="Epsilontonos" unicode="&#x388;" 
d="M116 302c30 0 56 -27 56 -57c0 -32 -25 -57 -57 -57s-57 25 -57 56c0 32 26 58 58 58z" />
    <glyph glyph-name="Etatonos" unicode="&#x389;" 
d="M116 302c30 0 56 -27 56 -57c0 -32 -25 -57 -57 -57s-57 25 -57 56c0 32 26 58 58 58z" />
    <glyph glyph-name="Iotatonos" unicode="&#x38a;" 
d="M116 302c30 0 56 -27 56 -57c0 -32 -25 -57 -57 -57s-57 25 -57 56c0 32 26 58 58 58z" />
    <glyph glyph-name="Omicrontonos" unicode="&#x38c;" 
d="M116 302c30 0 56 -27 56 -57c0 -32 -25 -57 -57 -57s-57 25 -57 56c0 32 26 58 58 58z" />
    <glyph glyph-name="Omegatonos" unicode="&#x38f;" 
d="M116 302c30 0 56 -27 56 -57c0 -32 -25 -57 -57 -57s-57 25 -57 56c0 32 26 58 58 58z" />
    <glyph glyph-name="Upsilontonos" unicode="&#x38e;" 
d="M116 302c30 0 56 -27 56 -57c0 -32 -25 -57 -57 -57s-57 25 -57 56c0 32 26 58 58 58z" />
    <glyph glyph-name="Iotadieresis" unicode="&#x3aa;" 
d="M116 302c30 0 56 -27 56 -57c0 -32 -25 -57 -57 -57s-57 25 -57 56c0 32 26 58 58 58z" />
    <glyph glyph-name="Upsilondieresis" unicode="&#x3ab;" 
d="M116 302c30 0 56 -27 56 -57c0 -32 -25 -57 -57 -57s-57 25 -57 56c0 32 26 58 58 58z" />
    <glyph glyph-name="alphatonos" unicode="&#x3ac;" 
d="M116 302c30 0 56 -27 56 -57c0 -32 -25 -57 -57 -57s-57 25 -57 56c0 32 26 58 58 58z" />
    <glyph glyph-name="epsilontonos" unicode="&#x3ad;" 
d="M116 302c30 0 56 -27 56 -57c0 -32 -25 -57 -57 -57s-57 25 -57 56c0 32 26 58 58 58z" />
    <glyph glyph-name="etatonos" unicode="&#x3ae;" 
d="M116 302c30 0 56 -27 56 -57c0 -32 -25 -57 -57 -57s-57 25 -57 56c0 32 26 58 58 58z" />
    <glyph glyph-name="iotatonos" unicode="&#x3af;" 
d="M116 302c30 0 56 -27 56 -57c0 -32 -25 -57 -57 -57s-57 25 -57 56c0 32 26 58 58 58z" />
    <glyph glyph-name="omicrontonos" unicode="&#x3cc;" 
d="M116 302c30 0 56 -27 56 -57c0 -32 -25 -57 -57 -57s-57 25 -57 56c0 32 26 58 58 58z" />
    <glyph glyph-name="omegatonos" unicode="&#x3ce;" 
d="M116 302c30 0 56 -27 56 -57c0 -32 -25 -57 -57 -57s-57 25 -57 56c0 32 26 58 58 58z" />
    <glyph glyph-name="upsilontonos" unicode="&#x3cd;" 
d="M116 302c30 0 56 -27 56 -57c0 -32 -25 -57 -57 -57s-57 25 -57 56c0 32 26 58 58 58z" />
    <glyph glyph-name="iotadieresistonos" unicode="&#x390;" 
d="M116 302c30 0 56 -27 56 -57c0 -32 -25 -57 -57 -57s-57 25 -57 56c0 32 26 58 58 58z" />
    <glyph glyph-name="upsilondieresistonos" unicode="&#x3b0;" 
d="M116 302c30 0 56 -27 56 -57c0 -32 -25 -57 -57 -57s-57 25 -57 56c0 32 26 58 58 58z" />
    <glyph glyph-name="afii10017" unicode="&#x410;" 
d="M116 302c30 0 56 -27 56 -57c0 -32 -25 -57 -57 -57s-57 25 -57 56c0 32 26 58 58 58z" />
    <glyph glyph-name="afii10018" unicode="&#x411;" 
d="M116 302c30 0 56 -27 56 -57c0 -32 -25 -57 -57 -57s-57 25 -57 56c0 32 26 58 58 58z" />
    <glyph glyph-name="afii10019" unicode="&#x412;" 
d="M116 302c30 0 56 -27 56 -57c0 -32 -25 -57 -57 -57s-57 25 -57 56c0 32 26 58 58 58z" />
    <glyph glyph-name="afii10020" unicode="&#x413;" 
d="M116 302c30 0 56 -27 56 -57c0 -32 -25 -57 -57 -57s-57 25 -57 56c0 32 26 58 58 58z" />
    <glyph glyph-name="afii10021" unicode="&#x414;" 
d="M116 302c30 0 56 -27 56 -57c0 -32 -25 -57 -57 -57s-57 25 -57 56c0 32 26 58 58 58z" />
    <glyph glyph-name="afii10022" unicode="&#x415;" 
d="M116 302c30 0 56 -27 56 -57c0 -32 -25 -57 -57 -57s-57 25 -57 56c0 32 26 58 58 58z" />
    <glyph glyph-name="afii10024" unicode="&#x416;" 
d="M116 302c30 0 56 -27 56 -57c0 -32 -25 -57 -57 -57s-57 25 -57 56c0 32 26 58 58 58z" />
    <glyph glyph-name="afii10025" unicode="&#x417;" 
d="M116 302c30 0 56 -27 56 -57c0 -32 -25 -57 -57 -57s-57 25 -57 56c0 32 26 58 58 58z" />
    <glyph glyph-name="afii10026" unicode="&#x418;" 
d="M116 302c30 0 56 -27 56 -57c0 -32 -25 -57 -57 -57s-57 25 -57 56c0 32 26 58 58 58z" />
    <glyph glyph-name="afii10028" unicode="&#x41a;" 
d="M116 302c30 0 56 -27 56 -57c0 -32 -25 -57 -57 -57s-57 25 -57 56c0 32 26 58 58 58z" />
    <glyph glyph-name="afii10029" unicode="&#x41b;" 
d="M116 302c30 0 56 -27 56 -57c0 -32 -25 -57 -57 -57s-57 25 -57 56c0 32 26 58 58 58z" />
    <glyph glyph-name="afii10030" unicode="&#x41c;" 
d="M116 302c30 0 56 -27 56 -57c0 -32 -25 -57 -57 -57s-57 25 -57 56c0 32 26 58 58 58z" />
    <glyph glyph-name="afii10031" unicode="&#x41d;" 
d="M116 302c30 0 56 -27 56 -57c0 -32 -25 -57 -57 -57s-57 25 -57 56c0 32 26 58 58 58z" />
    <glyph glyph-name="afii10032" unicode="&#x41e;" 
d="M116 302c30 0 56 -27 56 -57c0 -32 -25 -57 -57 -57s-57 25 -57 56c0 32 26 58 58 58z" />
    <glyph glyph-name="afii10033" unicode="&#x41f;" 
d="M116 302c30 0 56 -27 56 -57c0 -32 -25 -57 -57 -57s-57 25 -57 56c0 32 26 58 58 58z" />
    <glyph glyph-name="afii10034" unicode="&#x420;" 
d="M116 302c30 0 56 -27 56 -57c0 -32 -25 -57 -57 -57s-57 25 -57 56c0 32 26 58 58 58z" />
    <glyph glyph-name="afii10035" unicode="&#x421;" 
d="M116 302c30 0 56 -27 56 -57c0 -32 -25 -57 -57 -57s-57 25 -57 56c0 32 26 58 58 58z" />
    <glyph glyph-name="afii10036" unicode="&#x422;" 
d="M116 302c30 0 56 -27 56 -57c0 -32 -25 -57 -57 -57s-57 25 -57 56c0 32 26 58 58 58z" />
    <glyph glyph-name="afii10037" unicode="&#x423;" 
d="M116 302c30 0 56 -27 56 -57c0 -32 -25 -57 -57 -57s-57 25 -57 56c0 32 26 58 58 58z" />
    <glyph glyph-name="afii10038" unicode="&#x424;" 
d="M116 302c30 0 56 -27 56 -57c0 -32 -25 -57 -57 -57s-57 25 -57 56c0 32 26 58 58 58z" />
    <glyph glyph-name="afii10039" unicode="&#x425;" 
d="M116 302c30 0 56 -27 56 -57c0 -32 -25 -57 -57 -57s-57 25 -57 56c0 32 26 58 58 58z" />
    <glyph glyph-name="afii10040" unicode="&#x426;" 
d="M116 302c30 0 56 -27 56 -57c0 -32 -25 -57 -57 -57s-57 25 -57 56c0 32 26 58 58 58z" />
    <glyph glyph-name="afii10041" unicode="&#x427;" 
d="M116 302c30 0 56 -27 56 -57c0 -32 -25 -57 -57 -57s-57 25 -57 56c0 32 26 58 58 58z" />
    <glyph glyph-name="afii10042" unicode="&#x428;" 
d="M116 302c30 0 56 -27 56 -57c0 -32 -25 -57 -57 -57s-57 25 -57 56c0 32 26 58 58 58z" />
    <glyph glyph-name="afii10043" unicode="&#x429;" 
d="M116 302c30 0 56 -27 56 -57c0 -32 -25 -57 -57 -57s-57 25 -57 56c0 32 26 58 58 58z" />
    <glyph glyph-name="afii10046" unicode="&#x42c;" 
d="M116 302c30 0 56 -27 56 -57c0 -32 -25 -57 -57 -57s-57 25 -57 56c0 32 26 58 58 58z" />
    <glyph glyph-name="afii10045" unicode="&#x42b;" 
d="M116 302c30 0 56 -27 56 -57c0 -32 -25 -57 -57 -57s-57 25 -57 56c0 32 26 58 58 58z" />
    <glyph glyph-name="afii10044" unicode="&#x42a;" 
d="M116 302c30 0 56 -27 56 -57c0 -32 -25 -57 -57 -57s-57 25 -57 56c0 32 26 58 58 58z" />
    <glyph glyph-name="afii10047" unicode="&#x42d;" 
d="M116 302c30 0 56 -27 56 -57c0 -32 -25 -57 -57 -57s-57 25 -57 56c0 32 26 58 58 58z" />
    <glyph glyph-name="afii10048" unicode="&#x42e;" 
d="M116 302c30 0 56 -27 56 -57c0 -32 -25 -57 -57 -57s-57 25 -57 56c0 32 26 58 58 58z" />
    <glyph glyph-name="afii10049" unicode="&#x42f;" 
d="M116 302c30 0 56 -27 56 -57c0 -32 -25 -57 -57 -57s-57 25 -57 56c0 32 26 58 58 58z" />
    <glyph glyph-name="afii10050" unicode="&#x490;" 
d="M116 302c30 0 56 -27 56 -57c0 -32 -25 -57 -57 -57s-57 25 -57 56c0 32 26 58 58 58z" />
    <glyph glyph-name="afii10051" unicode="&#x402;" 
d="M116 302c30 0 56 -27 56 -57c0 -32 -25 -57 -57 -57s-57 25 -57 56c0 32 26 58 58 58z" />
    <glyph glyph-name="afii10053" unicode="&#x404;" 
d="M116 302c30 0 56 -27 56 -57c0 -32 -25 -57 -57 -57s-57 25 -57 56c0 32 26 58 58 58z" />
    <glyph glyph-name="afii10054" unicode="&#x405;" 
d="M116 302c30 0 56 -27 56 -57c0 -32 -25 -57 -57 -57s-57 25 -57 56c0 32 26 58 58 58z" />
    <glyph glyph-name="afii10055" unicode="&#x406;" 
d="M116 302c30 0 56 -27 56 -57c0 -32 -25 -57 -57 -57s-57 25 -57 56c0 32 26 58 58 58z" />
    <glyph glyph-name="uni04C0" unicode="&#x4c0;" 
d="M116 302c30 0 56 -27 56 -57c0 -32 -25 -57 -57 -57s-57 25 -57 56c0 32 26 58 58 58z" />
    <glyph glyph-name="afii10057" unicode="&#x408;" 
d="M116 302c30 0 56 -27 56 -57c0 -32 -25 -57 -57 -57s-57 25 -57 56c0 32 26 58 58 58z" />
    <glyph glyph-name="afii10058" unicode="&#x409;" 
d="M116 302c30 0 56 -27 56 -57c0 -32 -25 -57 -57 -57s-57 25 -57 56c0 32 26 58 58 58z" />
    <glyph glyph-name="afii10059" unicode="&#x40a;" 
d="M116 302c30 0 56 -27 56 -57c0 -32 -25 -57 -57 -57s-57 25 -57 56c0 32 26 58 58 58z" />
    <glyph glyph-name="afii10060" unicode="&#x40b;" 
d="M116 302c30 0 56 -27 56 -57c0 -32 -25 -57 -57 -57s-57 25 -57 56c0 32 26 58 58 58z" />
    <glyph glyph-name="afii10145" unicode="&#x40f;" 
d="M116 302c30 0 56 -27 56 -57c0 -32 -25 -57 -57 -57s-57 25 -57 56c0 32 26 58 58 58z" />
    <glyph glyph-name="uni04E8" unicode="&#x4e8;" 
d="M116 302c30 0 56 -27 56 -57c0 -32 -25 -57 -57 -57s-57 25 -57 56c0 32 26 58 58 58z" />
    <glyph glyph-name="uni0496" unicode="&#x496;" 
d="M116 302c30 0 56 -27 56 -57c0 -32 -25 -57 -57 -57s-57 25 -57 56c0 32 26 58 58 58z" />
    <glyph glyph-name="uni04AE" unicode="&#x4ae;" 
d="M116 302c30 0 56 -27 56 -57c0 -32 -25 -57 -57 -57s-57 25 -57 56c0 32 26 58 58 58z" />
    <glyph glyph-name="uni04D8" unicode="&#x4d8;" 
d="M116 302c30 0 56 -27 56 -57c0 -32 -25 -57 -57 -57s-57 25 -57 56c0 32 26 58 58 58z" />
    <glyph glyph-name="uni04BA" unicode="&#x4ba;" 
d="M116 302c30 0 56 -27 56 -57c0 -32 -25 -57 -57 -57s-57 25 -57 56c0 32 26 58 58 58z" />
    <glyph glyph-name="afii61352" unicode="&#x2116;" 
d="M116 302c30 0 56 -27 56 -57c0 -32 -25 -57 -57 -57s-57 25 -57 56c0 32 26 58 58 58z" />
    <glyph glyph-name="uni0492" unicode="&#x492;" 
d="M116 302c30 0 56 -27 56 -57c0 -32 -25 -57 -57 -57s-57 25 -57 56c0 32 26 58 58 58z" />
    <glyph glyph-name="uni04B0" unicode="&#x4b0;" 
d="M116 302c30 0 56 -27 56 -57c0 -32 -25 -57 -57 -57s-57 25 -57 56c0 32 26 58 58 58z" />
    <glyph glyph-name="afii10023" unicode="&#x401;" 
d="M116 302c30 0 56 -27 56 -57c0 -32 -25 -57 -57 -57s-57 25 -57 56c0 32 26 58 58 58z" />
    <glyph glyph-name="afii10027" unicode="&#x419;" 
d="M116 302c30 0 56 -27 56 -57c0 -32 -25 -57 -57 -57s-57 25 -57 56c0 32 26 58 58 58z" />
    <glyph glyph-name="afii10052" unicode="&#x403;" 
d="M116 302c30 0 56 -27 56 -57c0 -32 -25 -57 -57 -57s-57 25 -57 56c0 32 26 58 58 58z" />
    <glyph glyph-name="afii10056" unicode="&#x407;" 
d="M116 302c30 0 56 -27 56 -57c0 -32 -25 -57 -57 -57s-57 25 -57 56c0 32 26 58 58 58z" />
    <glyph glyph-name="afii10061" unicode="&#x40c;" 
d="M116 302c30 0 56 -27 56 -57c0 -32 -25 -57 -57 -57s-57 25 -57 56c0 32 26 58 58 58z" />
    <glyph glyph-name="afii10062" unicode="&#x40e;" 
d="M116 302c30 0 56 -27 56 -57c0 -32 -25 -57 -57 -57s-57 25 -57 56c0 32 26 58 58 58z" />
    <glyph glyph-name="uni049C" unicode="&#x49c;" 
d="M116 302c30 0 56 -27 56 -57c0 -32 -25 -57 -57 -57s-57 25 -57 56c0 32 26 58 58 58z" />
    <glyph glyph-name="uni049A" unicode="&#x49a;" 
d="M116 302c30 0 56 -27 56 -57c0 -32 -25 -57 -57 -57s-57 25 -57 56c0 32 26 58 58 58z" />
    <glyph glyph-name="uni04A2" unicode="&#x4a2;" 
d="M116 302c30 0 56 -27 56 -57c0 -32 -25 -57 -57 -57s-57 25 -57 56c0 32 26 58 58 58z" />
    <glyph glyph-name="uni04B2" unicode="&#x4b2;" 
d="M116 302c30 0 56 -27 56 -57c0 -32 -25 -57 -57 -57s-57 25 -57 56c0 32 26 58 58 58z" />
    <glyph glyph-name="uni04B8" unicode="&#x4b8;" 
d="M116 302c30 0 56 -27 56 -57c0 -32 -25 -57 -57 -57s-57 25 -57 56c0 32 26 58 58 58z" />
    <glyph glyph-name="afii10065" unicode="&#x430;" 
d="M116 302c30 0 56 -27 56 -57c0 -32 -25 -57 -57 -57s-57 25 -57 56c0 32 26 58 58 58z" />
    <glyph glyph-name="afii10066" unicode="&#x431;" 
d="M116 302c30 0 56 -27 56 -57c0 -32 -25 -57 -57 -57s-57 25 -57 56c0 32 26 58 58 58z" />
    <glyph glyph-name="afii10067" unicode="&#x432;" 
d="M116 302c30 0 56 -27 56 -57c0 -32 -25 -57 -57 -57s-57 25 -57 56c0 32 26 58 58 58z" />
    <glyph glyph-name="afii10068" unicode="&#x433;" 
d="M116 302c30 0 56 -27 56 -57c0 -32 -25 -57 -57 -57s-57 25 -57 56c0 32 26 58 58 58z" />
    <glyph glyph-name="afii10069" unicode="&#x434;" 
d="M116 302c30 0 56 -27 56 -57c0 -32 -25 -57 -57 -57s-57 25 -57 56c0 32 26 58 58 58z" />
    <glyph glyph-name="afii10070" unicode="&#x435;" 
d="M116 302c30 0 56 -27 56 -57c0 -32 -25 -57 -57 -57s-57 25 -57 56c0 32 26 58 58 58z" />
    <glyph glyph-name="afii10072" unicode="&#x436;" 
d="M116 302c30 0 56 -27 56 -57c0 -32 -25 -57 -57 -57s-57 25 -57 56c0 32 26 58 58 58z" />
    <glyph glyph-name="afii10073" unicode="&#x437;" 
d="M116 302c30 0 56 -27 56 -57c0 -32 -25 -57 -57 -57s-57 25 -57 56c0 32 26 58 58 58z" />
    <glyph glyph-name="afii10074" unicode="&#x438;" 
d="M116 302c30 0 56 -27 56 -57c0 -32 -25 -57 -57 -57s-57 25 -57 56c0 32 26 58 58 58z" />
    <glyph glyph-name="afii10076" unicode="&#x43a;" 
d="M116 302c30 0 56 -27 56 -57c0 -32 -25 -57 -57 -57s-57 25 -57 56c0 32 26 58 58 58z" />
    <glyph glyph-name="afii10077" unicode="&#x43b;" 
d="M116 302c30 0 56 -27 56 -57c0 -32 -25 -57 -57 -57s-57 25 -57 56c0 32 26 58 58 58z" />
    <glyph glyph-name="afii10078" unicode="&#x43c;" 
d="M116 302c30 0 56 -27 56 -57c0 -32 -25 -57 -57 -57s-57 25 -57 56c0 32 26 58 58 58z" />
    <glyph glyph-name="afii10079" unicode="&#x43d;" 
d="M116 302c30 0 56 -27 56 -57c0 -32 -25 -57 -57 -57s-57 25 -57 56c0 32 26 58 58 58z" />
    <glyph glyph-name="afii10080" unicode="&#x43e;" 
d="M116 302c30 0 56 -27 56 -57c0 -32 -25 -57 -57 -57s-57 25 -57 56c0 32 26 58 58 58z" />
    <glyph glyph-name="afii10081" unicode="&#x43f;" 
d="M116 302c30 0 56 -27 56 -57c0 -32 -25 -57 -57 -57s-57 25 -57 56c0 32 26 58 58 58z" />
    <glyph glyph-name="afii10082" unicode="&#x440;" 
d="M116 302c30 0 56 -27 56 -57c0 -32 -25 -57 -57 -57s-57 25 -57 56c0 32 26 58 58 58z" />
    <glyph glyph-name="afii10083" unicode="&#x441;" 
d="M116 302c30 0 56 -27 56 -57c0 -32 -25 -57 -57 -57s-57 25 -57 56c0 32 26 58 58 58z" />
    <glyph glyph-name="afii10084" unicode="&#x442;" 
d="M116 302c30 0 56 -27 56 -57c0 -32 -25 -57 -57 -57s-57 25 -57 56c0 32 26 58 58 58z" />
    <glyph glyph-name="afii10085" unicode="&#x443;" 
d="M116 302c30 0 56 -27 56 -57c0 -32 -25 -57 -57 -57s-57 25 -57 56c0 32 26 58 58 58z" />
    <glyph glyph-name="afii10086" unicode="&#x444;" 
d="M116 302c30 0 56 -27 56 -57c0 -32 -25 -57 -57 -57s-57 25 -57 56c0 32 26 58 58 58z" />
    <glyph glyph-name="afii10087" unicode="&#x445;" 
d="M116 302c30 0 56 -27 56 -57c0 -32 -25 -57 -57 -57s-57 25 -57 56c0 32 26 58 58 58z" />
    <glyph glyph-name="afii10088" unicode="&#x446;" 
d="M116 302c30 0 56 -27 56 -57c0 -32 -25 -57 -57 -57s-57 25 -57 56c0 32 26 58 58 58z" />
    <glyph glyph-name="afii10091" unicode="&#x449;" 
d="M116 302c30 0 56 -27 56 -57c0 -32 -25 -57 -57 -57s-57 25 -57 56c0 32 26 58 58 58z" />
    <glyph glyph-name="afii10092" unicode="&#x44a;" 
d="M116 302c30 0 56 -27 56 -57c0 -32 -25 -57 -57 -57s-57 25 -57 56c0 32 26 58 58 58z" />
    <glyph glyph-name="afii10093" unicode="&#x44b;" 
d="M116 302c30 0 56 -27 56 -57c0 -32 -25 -57 -57 -57s-57 25 -57 56c0 32 26 58 58 58z" />
    <glyph glyph-name="afii10094" unicode="&#x44c;" 
d="M116 302c30 0 56 -27 56 -57c0 -32 -25 -57 -57 -57s-57 25 -57 56c0 32 26 58 58 58z" />
    <glyph glyph-name="afii10095" unicode="&#x44d;" 
d="M116 302c30 0 56 -27 56 -57c0 -32 -25 -57 -57 -57s-57 25 -57 56c0 32 26 58 58 58z" />
    <glyph glyph-name="afii10096" unicode="&#x44e;" 
d="M116 302c30 0 56 -27 56 -57c0 -32 -25 -57 -57 -57s-57 25 -57 56c0 32 26 58 58 58z" />
    <glyph glyph-name="afii10097" unicode="&#x44f;" 
d="M116 302c30 0 56 -27 56 -57c0 -32 -25 -57 -57 -57s-57 25 -57 56c0 32 26 58 58 58z" />
    <glyph glyph-name="afii10098" unicode="&#x491;" 
d="M116 302c30 0 56 -27 56 -57c0 -32 -25 -57 -57 -57s-57 25 -57 56c0 32 26 58 58 58z" />
    <glyph glyph-name="afii10099" unicode="&#x452;" 
d="M116 302c30 0 56 -27 56 -57c0 -32 -25 -57 -57 -57s-57 25 -57 56c0 32 26 58 58 58z" />
    <glyph glyph-name="afii10101" unicode="&#x454;" 
d="M116 302c30 0 56 -27 56 -57c0 -32 -25 -57 -57 -57s-57 25 -57 56c0 32 26 58 58 58z" />
    <glyph glyph-name="afii10102" unicode="&#x455;" 
d="M116 302c30 0 56 -27 56 -57c0 -32 -25 -57 -57 -57s-57 25 -57 56c0 32 26 58 58 58z" />
    <glyph glyph-name="afii10103" unicode="&#x456;" 
d="M116 302c30 0 56 -27 56 -57c0 -32 -25 -57 -57 -57s-57 25 -57 56c0 32 26 58 58 58z" />
    <glyph glyph-name="afii10105" unicode="&#x458;" 
d="M116 302c30 0 56 -27 56 -57c0 -32 -25 -57 -57 -57s-57 25 -57 56c0 32 26 58 58 58z" />
    <glyph glyph-name="afii10106" unicode="&#x459;" 
d="M116 302c30 0 56 -27 56 -57c0 -32 -25 -57 -57 -57s-57 25 -57 56c0 32 26 58 58 58z" />
    <glyph glyph-name="afii10107" unicode="&#x45a;" 
d="M116 302c30 0 56 -27 56 -57c0 -32 -25 -57 -57 -57s-57 25 -57 56c0 32 26 58 58 58z" />
    <glyph glyph-name="afii10108" unicode="&#x45b;" 
d="M116 302c30 0 56 -27 56 -57c0 -32 -25 -57 -57 -57s-57 25 -57 56c0 32 26 58 58 58z" />
    <glyph glyph-name="afii10193" unicode="&#x45f;" 
d="M116 302c30 0 56 -27 56 -57c0 -32 -25 -57 -57 -57s-57 25 -57 56c0 32 26 58 58 58z" />
    <glyph glyph-name="uni04E9" unicode="&#x4e9;" 
d="M116 302c30 0 56 -27 56 -57c0 -32 -25 -57 -57 -57s-57 25 -57 56c0 32 26 58 58 58z" />
    <glyph glyph-name="afii10089" unicode="&#x447;" 
d="M116 302c30 0 56 -27 56 -57c0 -32 -25 -57 -57 -57s-57 25 -57 56c0 32 26 58 58 58z" />
    <glyph glyph-name="afii10090" unicode="&#x448;" 
d="M116 302c30 0 56 -27 56 -57c0 -32 -25 -57 -57 -57s-57 25 -57 56c0 32 26 58 58 58z" />
    <glyph glyph-name="uni0497" unicode="&#x497;" 
d="M116 302c30 0 56 -27 56 -57c0 -32 -25 -57 -57 -57s-57 25 -57 56c0 32 26 58 58 58z" />
    <glyph glyph-name="uni04AF" unicode="&#x4af;" 
d="M116 302c30 0 56 -27 56 -57c0 -32 -25 -57 -57 -57s-57 25 -57 56c0 32 26 58 58 58z" />
    </font>
</defs>
</svg>
