<?xml version="1.0" standalone="no"?>
<!DOCTYPE svg PUBLIC "-//W3C//DTD SVG 1.1//EN" "http://www.w3.org/Graphics/SVG/1.1/DTD/svg11.dtd" >
<svg xmlns="http://www.w3.org/2000/svg" xmlns:xlink="http://www.w3.org/1999/xlink" version="1.1">
<metadata>
Created by FontForge 20170910 at Mon May 15 17:40:37 2006
 By Jimmy Wärting
Copyright (URW)++,Copyright 2006 by (URW)++ Design &#38; Development
</metadata>
<defs>
<font id="CorporateA-BoldItalic" horiz-adv-x="258" >
  <font-face 
    font-family="Corporate A "
    font-weight="700"
    font-style="italic"
    font-stretch="normal"
    units-per-em="1000"
    panose-1="2 2 8 0 0 0 0 0 0 0"
    ascent="800"
    descent="-200"
    x-height="480"
    cap-height="327"
    bbox="-204 -290 1020 905"
    underline-thickness="55"
    underline-position="-117"
    slope="-14"
    stemh="29"
    stemv="118"
    unicode-range="U+0020-FB04"
  />
<missing-glyph horiz-adv-x="250" 
 />
    <glyph glyph-name="fi" unicode="fi" horiz-adv-x="629" 
d="M263 471h104l-8 -37h-105l-59 -279c-36 -160 -45 -184 -84 -241c-50 -68 -130 -109 -215 -108l8 37c57 9 91 34 111 85c11 31 25 89 51 216l62 290h-70l8 37c29 0 46 2 57 8s19 18 25 35l25 70c23 68 79 104 160 104c74 0 120 -32 120 -83c0 -33 -20 -56 -48 -56
c-25 0 -46 19 -46 41c0 7 0 7 11 33c1 2 1 5 1 8c0 18 -13 29 -33 29c-26 0 -39 -14 -47 -51c0 -3 -2 -9 -3 -18c-4 -18 -4 -18 -9 -41zM601 491l-90 -326c-19 -68 -22 -79 -22 -94c0 -16 9 -27 23 -27c21 0 32 12 54 66l28 -7c-19 -75 -62 -114 -126 -114
c-58 0 -99 38 -99 92c0 16 8 54 19 96l50 182c10 35 11 39 11 50c0 16 -13 21 -60 21l8 26c62 5 141 19 204 35zM576 687c33 0 56 -25 56 -60c0 -47 -33 -83 -76 -83c-34 0 -58 25 -58 58c0 45 37 85 78 85z" />
    <glyph glyph-name="fl" unicode="fl" horiz-adv-x="629" 
d="M263 471h104l-8 -37h-105l-59 -278c-36 -161 -45 -185 -84 -241c-50 -69 -131 -110 -215 -109l8 37c57 9 91 34 111 85c11 31 25 89 51 216l62 290h-70l8 37c29 0 46 2 57 8c11 7 19 18 25 35l25 70c23 67 79 104 159 104c51 0 81 -10 108 -39c50 2 143 18 215 36
l-143 -520c-20 -66 -23 -79 -23 -94c0 -16 9 -27 22 -27c23 0 33 12 55 66l27 -7c-18 -75 -61 -114 -125 -114c-58 0 -99 38 -99 91c0 17 8 56 19 97l104 375c19 66 16 71 -41 72c2 -9 2 -13 2 -20c0 -32 -20 -55 -48 -55c-25 0 -46 19 -46 41c0 7 0 7 11 33c1 2 1 5 1 8
c0 18 -13 29 -33 29c-26 0 -39 -14 -47 -51c0 -3 -2 -9 -3 -18c-4 -18 -4 -18 -9 -41z" />
    <glyph glyph-name="ff" unicode="ff" horiz-adv-x="640" 
d="M263 471h104l-8 -37h-105l-59 -279c-36 -160 -45 -184 -84 -241c-50 -68 -130 -109 -215 -108l8 37c57 9 91 34 111 85c11 31 25 89 51 216l62 290h-70l8 37c29 0 46 2 57 8s19 18 25 35l25 70c23 68 79 104 160 104c74 0 120 -32 120 -83c0 -33 -20 -56 -48 -56
c-25 0 -46 19 -46 41c0 7 0 7 11 33c1 2 1 5 1 8c0 18 -13 29 -33 29c-26 0 -39 -14 -47 -51c0 -3 -2 -9 -3 -18c-4 -18 -4 -18 -9 -41zM586 471h104l-8 -37h-104l-60 -279c-36 -160 -44 -184 -84 -241c-50 -68 -130 -109 -215 -108l8 37c57 9 91 34 111 85
c11 31 25 89 51 216l62 290h-69l8 37c28 0 45 2 56 8s19 18 25 35c9 23 17 47 25 70c23 68 79 104 160 104c74 0 121 -32 121 -83c0 -31 -22 -56 -49 -56c-25 0 -46 19 -46 41c0 7 0 8 11 33c1 3 2 6 2 8c-1 17 -15 29 -34 29c-26 0 -38 -14 -47 -51c-1 -4 -1 -4 -3 -18
c-2 -12 -5 -26 -9 -41z" />
    <glyph glyph-name="ffi" unicode="ffi" horiz-adv-x="952" 
d="M263 471h104l-8 -37h-105l-59 -279c-36 -160 -45 -184 -84 -241c-50 -68 -130 -109 -215 -108l8 37c57 9 91 34 111 85c11 31 25 89 51 216l62 290h-70l8 37c29 0 46 2 57 8s19 18 25 35l25 70c23 68 79 104 160 104c74 0 120 -32 120 -83c0 -33 -20 -56 -48 -56
c-25 0 -46 19 -46 41c0 7 0 7 11 33c1 2 1 5 1 8c0 18 -13 29 -33 29c-26 0 -39 -14 -47 -51c0 -3 -2 -9 -3 -18c-4 -18 -4 -18 -9 -41zM586 471h104l-8 -37h-104l-60 -279c-36 -160 -44 -184 -84 -241c-50 -68 -130 -109 -215 -108l8 37c57 9 91 34 111 85
c11 31 25 89 51 216l62 290h-69l8 37c28 0 45 2 56 8s19 18 25 35c9 23 17 47 25 70c23 68 79 104 160 104c74 0 121 -32 121 -83c0 -31 -22 -56 -49 -56c-25 0 -46 19 -46 41c0 7 0 8 11 33c1 3 2 6 2 8c-1 17 -15 29 -34 29c-26 0 -38 -14 -47 -51c-1 -4 -1 -4 -3 -18
c-2 -12 -5 -26 -9 -41zM924 491l-90 -326c-3 -13 -7 -27 -11 -39c-8 -27 -10 -40 -10 -55c0 -18 8 -27 22 -27c22 0 32 12 54 66l28 -7c-19 -75 -62 -114 -126 -114c-59 0 -98 37 -98 92c0 20 6 51 18 96l51 182c9 34 10 39 10 50c0 17 -12 21 -59 21l7 26
c63 5 142 19 204 35zM900 687c32 0 55 -25 55 -60c0 -47 -33 -83 -76 -83c-33 0 -58 25 -58 58c0 45 37 85 79 85z" />
    <glyph glyph-name="ffl" unicode="ffl" horiz-adv-x="952" 
d="M263 471h104l-8 -37h-105l-59 -279c-36 -160 -45 -184 -84 -241c-50 -68 -130 -109 -215 -108l8 37c57 9 91 34 111 85c11 31 25 89 51 216l62 290h-70l8 37c29 0 46 2 57 8s19 18 25 35l25 70c23 68 79 104 160 104c74 0 120 -32 120 -83c0 -33 -20 -56 -48 -56
c-25 0 -46 19 -46 41c0 7 0 7 11 33c1 2 1 5 1 8c0 18 -13 29 -33 29c-26 0 -39 -14 -47 -51c0 -3 -2 -9 -3 -18c-4 -18 -4 -18 -9 -41zM586 471h104l-8 -37h-104l-60 -278c-36 -161 -44 -185 -84 -241c-50 -69 -130 -110 -215 -109l8 37c57 9 91 34 111 85
c11 31 25 89 51 216l62 290h-69l8 37c28 0 45 2 56 8c11 7 19 18 25 35c9 23 17 47 25 70c23 67 79 104 159 104c52 0 81 -10 109 -39c49 2 143 18 214 36l-143 -520c-21 -71 -22 -74 -22 -94c0 -17 8 -27 22 -27c22 0 32 12 54 66l28 -7c-19 -75 -62 -114 -126 -114
c-59 0 -98 36 -98 91c0 21 6 52 18 97l104 375c10 37 10 38 10 55c0 12 -13 16 -51 17l1 -6c1 -7 2 -12 2 -14c0 -30 -22 -55 -49 -55c-25 0 -46 19 -46 41c0 7 0 7 11 33l1 8c0 18 -12 29 -33 29c-26 0 -38 -14 -47 -51c-1 -4 -1 -4 -3 -18c-2 -12 -5 -26 -9 -41z" />
    <glyph glyph-name=".notdef" horiz-adv-x="250" 
 />
    <glyph glyph-name="space" unicode=" " horiz-adv-x="250" 
 />
    <glyph glyph-name="exclam" unicode="!" horiz-adv-x="279" 
d="M106 223l74 442h137l-142 -442h-69zM126 147c36 0 64 -27 64 -63c0 -51 -43 -95 -93 -95c-37 0 -66 27 -66 61c0 51 45 97 95 97z" />
    <glyph glyph-name="quotedbl" unicode="&#x22;" horiz-adv-x="361" 
d="M179 399h-68l51 268h99zM335 399h-68l51 268h99z" />
    <glyph glyph-name="numbersign" unicode="#" horiz-adv-x="601" 
d="M561 277l-30 -74h-110l-82 -203h-85l82 203h-127l-82 -203h-85l83 203h-111l30 74h111l51 125h-111l30 74h111l78 191h84l-77 -191h127l77 191h85l-77 -191h110l-30 -74h-110l-52 -125h110zM418 402h-127l-52 -125h127z" />
    <glyph glyph-name="dollar" unicode="$" horiz-adv-x="547" 
d="M565 651l-46 -186h-32c3 16 4 25 4 41c0 74 -32 117 -97 132l-57 -229c47 -28 75 -45 84 -52c58 -41 82 -82 82 -140c0 -125 -122 -228 -270 -228l-21 -83h-36l22 86c-66 8 -120 36 -182 91l39 160h32c-4 -24 -5 -37 -5 -55c0 -94 42 -145 126 -155l64 257
c-74 45 -74 45 -94 61c-52 40 -72 75 -72 124c0 112 110 203 245 203c3 0 10 0 18 -1l20 84h36l-22 -87c29 -4 50 -10 86 -26c16 -7 29 -11 38 -11c10 0 20 3 38 14zM307 429l52 211c-74 -6 -126 -52 -126 -112c0 -38 20 -65 74 -99zM303 271l-59 -237c77 10 132 68 132 140
c0 39 -18 62 -73 97z" />
    <glyph glyph-name="percent" unicode="%" horiz-adv-x="711" 
d="M283 672c69 0 109 -41 109 -112c0 -53 -22 -108 -58 -148c-38 -41 -79 -60 -131 -60c-74 0 -115 41 -115 113c0 111 91 207 195 207zM273 642c-30 0 -53 -23 -75 -78c-18 -43 -29 -93 -29 -129s14 -54 40 -54c33 0 54 23 75 82c16 45 27 95 27 127s-14 52 -38 52zM164 0
l378 650h51l-377 -650h-52zM567 315c69 0 110 -42 110 -111c0 -52 -23 -110 -59 -149c-37 -41 -79 -60 -131 -60c-72 0 -115 42 -115 114c0 56 27 115 71 156c37 34 76 50 124 50zM557 285c-30 0 -52 -23 -75 -78c-17 -41 -29 -95 -29 -129s15 -54 41 -54c32 0 54 24 75 82
c15 44 27 98 27 127c0 32 -15 52 -39 52z" />
    <glyph glyph-name="ampersand" unicode="&#x26;" horiz-adv-x="597" 
d="M323 352l98 -203c38 39 71 92 71 114c0 15 -13 21 -46 22l10 37c36 -3 53 -4 73 -4c19 0 36 1 74 4l-9 -37c-46 -3 -52 -7 -72 -52c-24 -51 -46 -84 -82 -119l20 -40c19 -38 35 -48 77 -49l-7 -28c-35 2 -54 3 -81 3s-46 -1 -78 -3l-23 44c-55 -37 -99 -52 -153 -52
c-108 0 -182 63 -182 154c0 58 27 114 76 161c20 19 39 33 96 71c-35 79 -40 96 -40 128c0 85 88 153 198 153c84 0 140 -45 140 -113s-46 -123 -160 -191zM284 430c90 56 122 92 122 136c0 29 -22 53 -48 53s-39 -3 -55 -12c-30 -18 -49 -52 -49 -87c0 -24 5 -38 30 -90z
M332 75l-105 214c-75 -55 -104 -101 -104 -162c0 -57 34 -89 93 -89c38 0 66 9 116 37z" />
    <glyph glyph-name="quoteright" unicode="&#x2019;" horiz-adv-x="239" 
d="M155 443h-44c39 32 67 68 82 106c-31 4 -49 23 -49 54c0 41 37 75 81 75c37 0 60 -22 60 -57c0 -53 -50 -121 -130 -178z" />
    <glyph glyph-name="parenleft" unicode="(" horiz-adv-x="334" 
d="M374 683h43c-92 -82 -153 -173 -207 -308c-46 -114 -71 -232 -71 -335c0 -92 20 -180 58 -251h-34c-67 73 -109 196 -109 316c0 221 131 458 320 578z" />
    <glyph glyph-name="parenright" unicode=")" horiz-adv-x="334" 
d="M-42 -211h-43c94 84 155 174 210 308c49 120 73 232 73 342c0 95 -18 174 -55 244h34c66 -72 106 -190 106 -311c0 -223 -132 -459 -325 -583z" />
    <glyph glyph-name="asterisk" unicode="*" horiz-adv-x="500" 
d="M300 536l22 118l64 -16l-36 -115l119 17l4 -67h-120l53 -108l-62 -25l-38 114l-86 -83l-43 51l97 71l-106 56l35 57z" />
    <glyph glyph-name="plus" unicode="+" horiz-adv-x="547" 
d="M77 295v83h181v179h87v-179h180v-83h-180v-179h-87v179h-181z" />
    <glyph glyph-name="comma" unicode="," 
d="M23 -197h-62c57 56 101 132 118 201h-7c-3 -1 -4 -1 -5 -1c-30 0 -56 27 -56 60c0 46 40 85 88 85c43 0 72 -31 72 -77c0 -75 -67 -196 -148 -268z" />
    <glyph glyph-name="hyphen" unicode="-" horiz-adv-x="219" 
d="M-8 194l25 100h219l-25 -100h-219z" />
    <glyph glyph-name="period" unicode="." 
d="M104 147c37 0 65 -27 65 -63c0 -50 -44 -95 -93 -95c-38 0 -66 27 -66 62c0 51 44 96 94 96z" />
    <glyph glyph-name="slash" unicode="/" horiz-adv-x="599" 
d="M-52 -194l623 861h84l-623 -861h-84z" />
    <glyph glyph-name="zero" unicode="0" horiz-adv-x="547" 
d="M367 661c109 0 167 -73 167 -212c0 -114 -39 -249 -97 -336c-56 -84 -123 -124 -209 -124c-109 0 -168 73 -168 209c0 127 46 276 113 363c52 69 113 100 194 100zM356 629c-51 0 -84 -46 -123 -171c-36 -116 -57 -242 -57 -338c0 -66 20 -99 60 -99c51 0 83 44 123 170
c36 114 59 247 59 339c0 64 -22 99 -62 99z" />
    <glyph glyph-name="one" unicode="1" horiz-adv-x="547" 
d="M461 678l-143 -574c-4 -16 -5 -25 -5 -36c0 -25 17 -33 83 -34l-10 -37c-69 5 -106 7 -159 7s-91 -2 -163 -7l9 37c87 2 102 14 121 90l104 417l-103 -7l9 35c88 6 178 50 222 109h35z" />
    <glyph glyph-name="two" unicode="2" horiz-adv-x="547" 
d="M447 110l-45 -110h-389l23 90c105 88 191 166 274 247c67 66 98 118 98 165c0 45 -33 74 -83 74c-66 0 -112 -35 -148 -113h-46c25 68 48 105 83 137c45 41 100 61 168 61c98 0 159 -50 159 -130c0 -69 -38 -129 -138 -218c-47 -42 -92 -78 -254 -203h298z" />
    <glyph glyph-name="three" unicode="3" horiz-adv-x="547" 
d="M46 185h43c21 -73 68 -112 137 -112c45 0 80 18 106 54c19 27 30 61 30 92c0 41 -19 71 -54 86c-23 9 -47 12 -96 12l11 42c62 0 90 6 119 23c39 25 63 67 63 114c0 49 -36 84 -85 84c-53 0 -93 -33 -130 -105h-43c22 65 41 100 72 130c37 36 91 57 144 57
c96 0 165 -63 165 -151c0 -83 -58 -139 -171 -164c91 -23 128 -63 128 -140c0 -123 -102 -218 -235 -218c-122 0 -198 73 -204 196z" />
    <glyph glyph-name="four" unicode="4" horiz-adv-x="547" 
d="M241 -17l41 163h-293l2 10l396 494h137l-96 -409h102l-24 -95h-98l-41 -163h-126zM308 241l93 371l-285 -371h192z" />
    <glyph glyph-name="five" unicode="5" horiz-adv-x="547" 
d="M516 547h-278l-73 -172c57 47 102 65 164 65c106 0 166 -66 166 -181c0 -155 -107 -270 -251 -270c-119 0 -191 71 -196 192h44c17 -68 64 -108 128 -108c81 0 141 75 141 178c0 71 -38 117 -97 117c-48 0 -91 -23 -131 -72l-41 7l142 347h327z" />
    <glyph glyph-name="six" unicode="6" horiz-adv-x="547" 
d="M459 667h61c-91 -64 -170 -141 -241 -238c31 15 50 20 81 20c88 0 142 -61 142 -159c0 -167 -121 -301 -272 -301c-111 0 -184 72 -184 181s60 219 177 326c69 63 178 142 236 171zM320 403c-40 0 -69 -25 -100 -84c-32 -59 -57 -157 -57 -218c0 -48 25 -79 63 -79
c41 0 73 29 104 97c30 63 49 144 49 202c0 54 -20 82 -59 82z" />
    <glyph glyph-name="seven" unicode="7" horiz-adv-x="547" 
d="M55 0l416 547h-332l32 103h430l-442 -650h-104z" />
    <glyph glyph-name="eight" unicode="8" horiz-adv-x="547" 
d="M390 342c63 -21 92 -59 92 -123c0 -129 -112 -230 -256 -230c-108 0 -177 58 -177 146c0 69 35 132 94 171c24 16 46 26 81 36c-53 22 -77 55 -77 109c0 114 106 211 231 211c100 0 159 -48 159 -130c0 -89 -55 -160 -147 -190zM300 322c-36 0 -67 -25 -93 -74
c-21 -42 -38 -107 -38 -151c0 -48 21 -76 58 -76c39 0 71 28 98 86c20 44 33 99 33 142c0 46 -21 73 -58 73zM374 630c-31 0 -59 -25 -80 -72c-19 -41 -34 -102 -34 -140s19 -63 48 -63c33 0 61 26 83 79c18 41 30 93 30 131c0 41 -17 65 -47 65z" />
    <glyph glyph-name="nine" unicode="9" horiz-adv-x="547" 
d="M137 -16h-62c89 61 169 139 241 238c-29 -15 -53 -21 -81 -21c-87 0 -141 61 -141 159c0 169 120 302 272 302c111 0 183 -72 183 -182c0 -108 -57 -214 -171 -321c-70 -64 -184 -147 -241 -175zM370 629c-42 0 -74 -30 -105 -97c-30 -65 -48 -142 -48 -203
c0 -54 20 -82 59 -82s69 26 100 84c32 62 56 156 56 219c0 48 -24 79 -62 79z" />
    <glyph glyph-name="colon" unicode=":" 
d="M104 147c37 0 65 -27 65 -63c0 -50 -44 -95 -93 -95c-38 0 -66 27 -66 62c0 51 44 96 94 96zM181 458c37 0 65 -28 65 -64c0 -51 -43 -94 -93 -94c-38 0 -66 26 -66 62c0 50 45 96 94 96z" />
    <glyph glyph-name="semicolon" unicode=";" 
d="M23 -197h-62c57 56 102 133 118 201h-7c-3 -1 -4 -1 -5 -1c-31 0 -56 27 -56 60c0 46 40 85 88 85c43 0 72 -31 72 -78c0 -74 -67 -194 -148 -267zM180 458c36 0 64 -27 64 -64c0 -51 -42 -94 -92 -94c-39 0 -66 25 -66 62c0 51 44 96 94 96z" />
    <glyph glyph-name="less" unicode="&#x3c;" horiz-adv-x="500" 
d="M458 621v-48l-287 -185l287 -193v-127l-417 281v7z" />
    <glyph glyph-name="equal" unicode="=" horiz-adv-x="547" 
d="M77 370v77h448v-77h-448zM77 226v77h448v-77h-448z" />
    <glyph glyph-name="greater" unicode="&#x3e;" horiz-adv-x="500" 
d="M41 68v47l287 186l-287 193v127l417 -281v-7z" />
    <glyph glyph-name="question" unicode="?" horiz-adv-x="417" 
d="M189 221h-44c13 99 24 117 121 197c42 34 44 36 55 49c14 19 21 37 21 58c0 42 -28 70 -70 70c-51 0 -94 -35 -119 -96h-43c30 112 109 177 215 177c88 0 145 -52 145 -133c0 -45 -19 -89 -53 -119c-24 -22 -24 -22 -129 -83c-71 -42 -86 -60 -99 -120zM152 147
c36 0 64 -27 64 -63c0 -51 -43 -95 -93 -95c-37 0 -66 27 -66 61c0 51 45 97 95 97z" />
    <glyph glyph-name="at" unicode="@" horiz-adv-x="725" 
d="M568 174h61c-32 -57 -54 -83 -98 -116c-62 -46 -127 -68 -201 -68c-200 0 -352 146 -352 339c0 196 152 348 347 348c86 0 166 -30 226 -85c55 -50 83 -115 83 -192c0 -73 -24 -136 -70 -185c-44 -47 -101 -77 -145 -77c-46 0 -67 23 -75 80c-43 -57 -69 -75 -111 -75
c-73 0 -128 60 -128 138c0 112 98 218 203 218c44 0 70 -23 82 -69l16 60h90l-72 -267c-3 -9 -5 -21 -5 -27c0 -16 8 -26 22 -26c26 0 62 28 92 74c32 47 48 99 48 152c0 128 -110 226 -253 226c-169 0 -293 -124 -293 -292c0 -164 129 -286 303 -286c93 0 167 42 230 130z
M322 470c-57 3 -126 -120 -126 -225c0 -44 20 -73 51 -73c34 0 67 33 93 94c18 39 31 97 31 132c0 45 -17 70 -49 72z" />
    <glyph glyph-name="A" unicode="A" horiz-adv-x="661" 
d="M394 181h-220l-45 -71c-38 -61 -31 -75 37 -76l-9 -37c-45 3 -69 4 -101 4c-31 0 -56 -1 -102 -4l9 37c64 3 81 16 136 104l365 555h14l56 -588c5 -53 23 -69 82 -71l-9 -37c-57 5 -89 7 -145 7c-55 0 -89 -2 -149 -7l10 37c45 2 50 3 60 8c12 7 17 17 17 36
c0 4 0 11 -1 19zM200 219h190l-14 271z" />
    <glyph glyph-name="B" unicode="B" horiz-adv-x="596" 
d="M137 667h260c60 0 106 -6 133 -17c43 -18 67 -56 67 -107c0 -87 -62 -159 -158 -184c78 -16 113 -55 113 -123c0 -81 -48 -162 -119 -200c-43 -23 -113 -36 -194 -36h-268l9 38c73 2 84 10 100 70l113 452c3 15 6 31 6 38c0 23 -17 31 -71 32zM275 367h47
c58 0 88 15 115 58c22 33 37 85 37 123c0 62 -25 81 -104 81h-30zM265 329l-58 -234c-5 -18 -6 -25 -6 -32c0 -16 11 -22 36 -22h32c52 0 86 19 114 64c23 40 40 99 40 143c0 58 -30 81 -106 81h-52z" />
    <glyph glyph-name="C" unicode="C" horiz-adv-x="604" 
d="M539 238h36c-32 -161 -135 -254 -282 -254c-150 0 -238 91 -238 247c0 116 42 237 112 323c71 86 157 129 261 129c55 0 87 -8 145 -37c14 -7 27 -11 35 -11c10 0 20 4 42 15l-42 -197h-32v14c0 110 -48 173 -132 173c-80 0 -146 -52 -197 -155
c-39 -78 -63 -179 -63 -262c0 -105 52 -166 143 -166c104 0 179 64 212 181z" />
    <glyph glyph-name="D" unicode="D" horiz-adv-x="669" 
d="M128 630l9 37h270c103 0 155 -14 195 -52c43 -41 64 -100 64 -182c0 -135 -53 -259 -144 -338c-75 -65 -165 -95 -286 -95h-265l9 37c72 2 84 11 100 70l113 453c3 15 6 31 6 38c0 23 -17 31 -71 32zM340 629l-133 -533c-5 -19 -6 -26 -6 -33c0 -19 11 -26 43 -26
c73 0 125 18 161 56c76 80 132 246 132 389c0 65 -16 107 -48 129c-18 12 -49 18 -95 18h-54z" />
    <glyph glyph-name="E" unicode="E" horiz-adv-x="570" 
d="M531 185l-78 -185h-482l9 37c72 2 85 11 100 70l113 453c4 17 6 30 6 38c0 23 -16 31 -71 32l9 37h462l-16 -176h-31c0 73 -3 89 -18 109c-16 21 -41 29 -93 29h-101l-65 -261h200l-11 -45h-200l-55 -219c-4 -18 -7 -32 -7 -40c0 -18 15 -26 50 -26h51c65 0 97 15 141 65
c22 26 38 49 56 82h31z" />
    <glyph glyph-name="F" unicode="F" horiz-adv-x="524" 
d="M263 323l-54 -219c-4 -13 -6 -28 -6 -35c0 -26 15 -33 72 -35l-9 -37c-57 5 -90 7 -146 7s-90 -2 -150 -7l9 37c72 2 85 11 100 70l113 456c5 19 6 25 6 38c0 24 -15 30 -70 32l9 37h466l-16 -176h-31c1 12 1 22 1 27c0 87 -24 111 -111 111h-106l-65 -261h204l-11 -45
h-205z" />
    <glyph glyph-name="G" unicode="G" horiz-adv-x="651" 
d="M668 640l-47 -187h-32c0 60 -1 76 -9 102c-18 58 -63 91 -124 91c-80 0 -142 -51 -198 -161c-49 -96 -81 -218 -81 -311s50 -153 129 -153c33 0 62 6 95 19l45 180c3 10 4 20 4 27c0 20 -13 26 -59 29l10 37c53 -5 84 -7 126 -7s73 2 129 7l-9 -37
c-53 -4 -66 -14 -75 -58l-44 -174c-85 -37 -164 -55 -237 -55c-153 0 -241 81 -241 222c0 123 48 256 124 342c72 82 163 125 265 125c55 0 86 -9 146 -41c16 -8 30 -13 38 -13c9 0 19 4 45 16z" />
    <glyph glyph-name="H" unicode="H" horiz-adv-x="703" 
d="M274 367h226l49 196c4 19 5 25 5 38c0 24 -14 31 -69 32l9 37c61 -5 95 -7 146 -7c52 0 85 2 145 7l-9 -37c-72 -1 -84 -10 -99 -70l-115 -459c-3 -14 -6 -30 -6 -38c0 -23 15 -30 71 -32l-10 -37c-57 5 -89 7 -141 7s-87 -2 -150 -7l9 37c70 2 82 11 97 70l56 225h-223
l-56 -225c-5 -19 -7 -30 -7 -38c0 -24 15 -30 69 -32l-10 -37c-62 5 -96 7 -147 7s-84 -2 -144 -7l9 37c72 2 85 11 100 70l114 459c5 19 6 27 6 38c0 24 -15 31 -70 32l9 37c58 -5 89 -7 140 -7s86 2 151 7l-9 -37c-70 -1 -83 -11 -97 -70z" />
    <glyph glyph-name="I" unicode="I" horiz-adv-x="349" 
d="M271 34l-9 -37c-61 5 -94 7 -143 7s-84 -2 -149 -7l9 37c72 2 85 10 100 70l114 459c4 16 6 28 6 39c0 23 -16 30 -70 31l9 37c63 -5 97 -7 145 -7c49 0 83 2 147 7l-9 -37c-70 -1 -83 -10 -98 -70l-114 -459c-4 -15 -6 -29 -6 -39c0 -23 15 -30 68 -31z" />
    <glyph glyph-name="J" unicode="J" horiz-adv-x="349" 
d="M-79 -70l11 44c14 -3 23 -4 33 -4c67 0 98 43 135 190l100 403c5 19 6 27 6 38c0 24 -15 31 -70 32l9 37c63 -5 96 -7 143 -7s82 2 148 7l-9 -37c-69 -1 -82 -11 -97 -70l-105 -423c-39 -154 -110 -214 -255 -214c-22 0 -32 1 -49 4z" />
    <glyph glyph-name="K" unicode="K" horiz-adv-x="662" 
d="M266 334l264 236c22 20 29 30 29 42c0 14 -13 19 -52 21l9 37c51 -3 77 -4 107 -4s55 1 107 4l-9 -37c-55 -3 -79 -16 -173 -97l-141 -122l84 -238c5 -13 9 -26 13 -38c28 -80 48 -103 93 -103c12 0 24 2 43 6l-9 -34c-34 -12 -65 -17 -98 -17c-81 0 -117 33 -156 143
l-69 200l-54 -47l-45 -182c-5 -19 -7 -30 -7 -38c0 -23 12 -29 61 -32l-9 -37c-47 5 -76 7 -128 7c-55 0 -91 -2 -156 -7l9 37c72 2 85 10 100 70l114 459c4 16 6 29 6 39c0 22 -20 30 -70 31l9 37c63 -5 97 -7 148 -7s84 2 143 7l-9 -37c-69 -1 -82 -10 -97 -70z" />
    <glyph glyph-name="L" unicode="L" horiz-adv-x="529" 
d="M518 185l-77 -185h-470l9 37c72 2 85 10 100 70l113 456c5 19 6 26 6 39c0 23 -15 30 -70 31l9 37c63 -5 97 -7 145 -7c49 0 83 2 147 7l-9 -37c-70 -2 -83 -10 -98 -70l-117 -472c-11 -44 -5 -53 41 -53h50c58 0 91 16 134 65c22 25 38 48 56 82h31z" />
    <glyph glyph-name="M" unicode="M" horiz-adv-x="856" 
d="M252 618l-137 -515c-5 -18 -7 -29 -7 -37c0 -24 15 -31 68 -33l-9 -36c-41 2 -63 3 -94 3c-29 0 -54 -1 -105 -3l9 36c48 6 69 19 86 53c11 24 22 61 74 251l64 225c4 12 6 27 6 37c0 25 -15 32 -71 33l10 38c40 -3 59 -4 104 -4c47 0 72 1 116 4l59 -453l288 453
c47 -3 74 -4 119 -4c43 0 62 1 102 4l-9 -37c-71 -2 -86 -13 -99 -70l-99 -426c-5 -22 -10 -56 -10 -66c0 -27 15 -36 67 -38l-9 -36c-63 5 -97 7 -145 7s-82 -2 -147 -7l9 36c71 2 85 12 99 70l128 515l-378 -599h-15z" />
    <glyph glyph-name="N" unicode="N" horiz-adv-x="670" 
d="M502 -17h-17l-257 587l-110 -440c-7 -27 -11 -51 -11 -60c0 -27 14 -35 68 -36l-9 -37c-46 3 -70 4 -100 4s-54 -1 -101 -4l9 37c56 5 75 18 94 64c11 32 18 55 39 141c9 33 17 64 25 98l64 258c-23 28 -39 37 -74 38l10 37c40 -2 62 -3 93 -3c30 0 53 1 94 3l203 -455
l85 342c5 19 8 37 8 46c0 21 -18 29 -70 30l9 37c42 -2 65 -3 100 -3s58 1 101 3l-9 -37c-69 -1 -84 -12 -101 -76z" />
    <glyph glyph-name="O" unicode="O" horiz-adv-x="649" 
d="M425 683c140 0 224 -89 224 -237c0 -113 -38 -234 -101 -318c-70 -95 -162 -144 -267 -144c-145 0 -227 87 -227 240c0 128 50 265 128 350c66 72 148 109 243 109zM421 651c-68 0 -120 -51 -168 -165c-40 -98 -70 -235 -70 -324c0 -94 36 -146 100 -146
c69 0 123 57 172 178c39 100 64 222 64 313c0 92 -35 144 -98 144z" />
    <glyph glyph-name="P" unicode="P" horiz-adv-x="574" 
d="M254 283l-45 -179c-4 -17 -6 -27 -6 -37c0 -24 15 -32 72 -33l-9 -37c-62 5 -96 7 -146 7s-85 -2 -150 -7l9 37c72 2 85 10 100 70l113 456c5 18 6 25 6 38c0 24 -15 30 -70 32l9 37h275c84 0 124 -8 157 -34c31 -22 50 -64 50 -107c0 -75 -36 -150 -91 -190
c-47 -35 -113 -53 -191 -53h-83zM263 321h44c67 0 111 22 141 73c24 38 42 101 42 145c0 63 -33 90 -110 90h-40z" />
    <glyph glyph-name="Q" unicode="Q" horiz-adv-x="648" 
d="M510 -1l-15 -64c-40 -45 -83 -67 -129 -67c-32 0 -44 4 -126 42c-17 8 -36 13 -51 13c-39 0 -77 -25 -115 -76l21 87c27 33 72 54 119 57c-106 28 -161 105 -161 228c0 125 47 258 122 345c67 79 149 119 246 119c66 0 122 -20 162 -57c44 -41 65 -97 65 -178
c0 -134 -50 -275 -129 -360c-61 -66 -136 -100 -231 -104c22 -5 23 -6 57 -20c28 -12 47 -17 64 -17c38 0 72 17 101 52zM422 651c-63 0 -115 -50 -165 -161c-44 -97 -75 -232 -75 -328c0 -93 38 -146 105 -146c69 0 122 55 169 178c38 101 62 221 62 315
c0 92 -34 142 -96 142z" />
    <glyph glyph-name="R" unicode="R" horiz-adv-x="656" 
d="M261 314l-52 -210c-7 -25 -8 -33 -8 -40c0 -22 15 -29 70 -30l-10 -37c-57 5 -89 7 -139 7c-52 0 -87 -2 -152 -7l9 37c72 2 85 10 100 70l113 456c4 13 7 32 7 38c0 23 -18 31 -71 32l9 37h260c77 0 111 -3 138 -12c53 -17 83 -62 83 -124c0 -72 -39 -137 -105 -174
c-31 -18 -59 -28 -110 -37c55 -19 76 -45 89 -110l16 -72c7 -33 10 -44 17 -59c12 -28 37 -44 69 -44c12 0 25 2 43 6l-8 -34c-35 -12 -65 -17 -98 -17c-47 0 -86 16 -107 42c-15 20 -28 54 -39 101l-21 95c-17 74 -29 86 -87 86h-16zM271 352h51c61 0 101 19 129 61
c22 32 38 87 38 129s-16 70 -46 80c-14 4 -39 7 -72 7h-31z" />
    <glyph glyph-name="S" unicode="S" horiz-adv-x="545" 
d="M564 651l-46 -186h-32c3 17 4 25 4 41c0 83 -47 135 -122 135s-136 -51 -136 -114c0 -26 12 -50 36 -70c22 -19 30 -24 105 -70c99 -59 129 -99 129 -170c0 -123 -123 -228 -267 -228c-81 0 -142 26 -220 94l39 160h32c-4 -24 -5 -36 -5 -55c0 -99 52 -156 142 -156
c83 0 152 64 152 142c0 41 -18 63 -86 105c-85 51 -111 69 -135 92c-34 32 -49 63 -49 103c0 115 110 204 250 204c47 0 82 -8 133 -30c16 -7 29 -11 38 -11c10 0 20 3 38 14z" />
    <glyph glyph-name="T" unicode="T" horiz-adv-x="547" 
d="M438 629l-131 -525c-4 -15 -6 -28 -6 -39c0 -23 15 -30 70 -31l-9 -37c-59 5 -91 7 -145 7s-87 -2 -147 -7l9 37c71 2 83 11 98 70l131 525h-27c-78 0 -125 -39 -175 -146h-34l77 184h469l-15 -184h-33v20c0 90 -30 126 -104 126h-28z" />
    <glyph glyph-name="U" unicode="U" horiz-adv-x="663" 
d="M553 633l9 37c42 -2 65 -3 100 -3s58 1 101 3l-9 -37c-40 -3 -69 -18 -81 -43c-14 -25 -19 -43 -59 -193l-35 -139c-25 -100 -44 -142 -84 -186c-50 -54 -121 -83 -207 -83c-122 0 -194 59 -194 159c0 25 5 60 15 100l79 315c4 15 6 30 6 38c0 24 -16 31 -71 32l10 37
c62 -5 96 -7 143 -7c46 0 81 2 149 7l-10 -37c-70 -1 -82 -10 -97 -70l-81 -326c-9 -35 -16 -78 -16 -98c0 -58 42 -91 115 -91c79 0 139 40 172 115c10 23 23 66 36 118l71 282c5 23 6 28 6 38c0 24 -15 31 -68 32z" />
    <glyph glyph-name="V" unicode="V" horiz-adv-x="563" 
d="M249 -18h-26l-74 566c-9 70 -20 83 -74 85l9 37c67 -5 107 -7 167 -7c53 0 75 1 115 7l-10 -37c-72 -8 -76 -13 -68 -80l34 -388l182 311c50 85 66 120 66 138c0 14 -12 22 -32 22c-6 0 -10 0 -23 -2l-5 33c48 1 103 15 128 33c6 -14 8 -22 8 -35c0 -24 -9 -49 -28 -81
c-27 -44 -27 -44 -43 -71z" />
    <glyph glyph-name="W" unicode="W" horiz-adv-x="829" 
d="M204 -17h-24l-20 566c-2 63 -15 80 -67 84l10 37c54 -5 86 -7 137 -7c53 0 85 2 142 7l-9 -37c-44 -4 -50 -6 -62 -15c-15 -11 -16 -16 -16 -63v-340l265 470h46l25 -470l157 296c20 39 41 90 41 101c0 15 -14 23 -40 23c-2 0 -4 0 -17 -1l-4 33c57 -1 114 13 139 33
c9 -29 4 -48 -23 -97c-9 -16 -18 -32 -27 -49l-15 -28l-296 -544h-25l-21 522z" />
    <glyph glyph-name="X" unicode="X" horiz-adv-x="607" 
d="M-59 -3l9 37c71 6 85 15 171 108l153 167l-67 255c-14 52 -31 65 -87 69l10 37c56 -5 87 -7 143 -7s89 2 147 7l-9 -37c-53 -2 -74 -14 -74 -39c0 -7 0 -7 5 -26l40 -151l126 140c22 24 32 42 32 56s-12 22 -34 22c-1 0 -4 0 -8 -1h-8l-2 33c52 2 108 15 141 33
c4 -13 5 -20 5 -30c0 -25 -12 -48 -44 -81c-22 -24 -39 -42 -52 -55l-145 -157l66 -250c22 -78 37 -91 104 -93l-9 -37c-60 5 -94 7 -148 7c-55 0 -90 -2 -152 -7l9 37c62 4 69 8 69 44c0 3 0 5 -5 27l-42 162l-148 -163c-25 -27 -32 -37 -32 -49c0 -14 7 -17 52 -21l-9 -37
c-46 2 -70 3 -103 3c-32 0 -58 -1 -104 -3z" />
    <glyph glyph-name="Y" unicode="Y" horiz-adv-x="528" 
d="M224 287l-51 229c-18 92 -33 113 -88 117l7 37c55 -5 86 -7 141 -7s88 2 146 7l-9 -37c-55 -2 -75 -12 -75 -36c0 -2 0 -3 5 -34l44 -233l143 208c31 45 37 57 37 74c0 14 -15 23 -38 23c-1 0 -4 0 -7 -1h-9l-4 33c60 4 111 16 145 33c3 -13 4 -20 4 -27
c0 -22 -8 -39 -35 -74c-22 -29 -46 -63 -63 -87l-163 -225l-46 -183c-4 -19 -6 -29 -6 -39c0 -23 14 -30 66 -31l-10 -37c-63 5 -97 7 -144 7c-48 0 -82 -2 -147 -7l9 37c75 2 87 10 102 70z" />
    <glyph glyph-name="Z" unicode="Z" horiz-adv-x="526" 
d="M-43 0l481 629h-97c-90 0 -137 -32 -202 -136h-35l74 174h435l-481 -629h152c64 0 95 13 140 58c27 28 47 56 73 101h20l-68 -197h-492z" />
    <glyph glyph-name="bracketleft" unicode="[" horiz-adv-x="334" 
d="M407 637h-109l-200 -801h110l-8 -30h-198l215 861h198z" />
    <glyph glyph-name="backslash" unicode="\" horiz-adv-x="599" 
d="M200 667h84l154 -861h-84z" />
    <glyph glyph-name="bracketright" unicode="]" horiz-adv-x="334" 
d="M-70 -164h110l199 801h-109l8 30h198l-215 -861h-198z" />
    <glyph glyph-name="asciicircum" unicode="^" horiz-adv-x="500" 
d="M527 283h-48l-185 287l-194 -287h-127l281 417h8z" />
    <glyph glyph-name="underscore" unicode="_" horiz-adv-x="500" 
d="M17 -90h466v-55h-466v55z" />
    <glyph glyph-name="quoteleft" unicode="&#x2018;" horiz-adv-x="239" 
d="M251 678h43c-38 -31 -66 -68 -82 -106c32 -3 50 -23 50 -53c0 -41 -38 -76 -82 -76c-36 0 -60 23 -60 57c0 52 52 123 131 178z" />
    <glyph glyph-name="a" unicode="a" horiz-adv-x="554" 
d="M526 483l-84 -295c-25 -89 -25 -90 -25 -110c0 -21 9 -32 25 -32c22 0 36 14 60 60l27 -12c-35 -72 -77 -105 -133 -105c-53 0 -83 29 -92 88c-37 -63 -76 -88 -132 -88c-91 0 -153 66 -153 163c0 75 40 177 94 240c51 60 113 91 178 91c59 0 87 -25 89 -80l20 70
c55 0 69 2 126 10zM304 455c-45 0 -79 -44 -120 -152c-27 -72 -48 -163 -48 -210s20 -76 52 -76c42 0 77 38 110 119c31 76 60 195 60 244c0 48 -19 75 -54 75z" />
    <glyph glyph-name="b" unicode="b" horiz-adv-x="518" 
d="M308 685l-62 -248c36 33 66 46 111 46c89 0 144 -62 144 -163c0 -174 -133 -331 -280 -331c-100 0 -162 61 -162 159c0 35 4 55 31 166l60 238c5 22 8 39 8 47c0 20 -11 25 -61 25l6 26c60 4 142 18 205 35zM336 455c-44 0 -83 -46 -116 -138c-26 -71 -49 -178 -49 -228
c0 -44 20 -72 51 -72c44 0 78 39 113 129c28 73 49 176 49 237c0 47 -16 72 -48 72z" />
    <glyph glyph-name="c" unicode="c" horiz-adv-x="444" 
d="M459 468l-37 -171h-29c4 20 5 29 5 46c0 68 -29 109 -77 109c-49 0 -91 -40 -130 -124c-29 -61 -47 -135 -47 -188c0 -69 34 -111 89 -111c59 0 110 49 135 129h44c-42 -117 -111 -171 -214 -171c-107 0 -174 66 -174 171c0 176 128 327 278 327c32 0 56 -5 90 -20
c14 -6 28 -10 35 -10c10 0 18 3 32 13z" />
    <glyph glyph-name="d" unicode="d" horiz-adv-x="554" 
d="M568 685l-124 -497c-21 -84 -22 -90 -22 -108c0 -21 10 -34 27 -34c22 0 36 15 58 60l27 -12c-33 -73 -72 -105 -131 -105c-50 0 -83 24 -96 71c-32 -50 -69 -71 -124 -71c-96 0 -160 68 -160 170c0 78 34 168 87 232c51 60 113 92 178 92c45 0 71 -13 93 -46l29 115
c8 36 8 36 8 47c0 21 -9 25 -58 25l7 26c59 4 138 18 201 35zM300 455c-40 0 -69 -32 -104 -112c-33 -75 -56 -176 -56 -246c0 -51 20 -80 55 -80c41 0 76 39 107 119c25 66 53 194 53 244c0 47 -21 75 -55 75z" />
    <glyph glyph-name="e" unicode="e" horiz-adv-x="450" 
d="M373 149h43c-44 -103 -124 -160 -225 -160c-104 0 -169 63 -169 164c0 82 36 178 90 240c52 58 121 90 194 90c86 0 139 -43 139 -112c0 -61 -44 -112 -130 -151c-52 -23 -99 -33 -169 -37c-5 -23 -7 -37 -7 -57c0 -60 35 -97 92 -97s111 45 142 120zM154 219h10
c97 0 178 79 178 174c0 38 -17 62 -43 62c-55 0 -113 -96 -145 -236z" />
    <glyph glyph-name="f" unicode="f" horiz-adv-x="316" 
d="M263 471h104l-8 -37h-105l-59 -279c-36 -160 -45 -184 -84 -241c-50 -68 -130 -109 -215 -108l8 37c57 9 91 34 111 85c11 31 25 89 51 216l62 290h-70l8 37c29 0 46 2 57 8s19 18 25 35l25 70c23 68 79 104 160 104c74 0 120 -32 120 -83c0 -33 -20 -56 -48 -56
c-25 0 -46 19 -46 41c0 7 0 7 11 33c1 2 1 5 1 8c0 18 -13 29 -33 29c-26 0 -39 -14 -47 -51c0 -3 -2 -9 -3 -18c-4 -18 -4 -18 -9 -41z" />
    <glyph glyph-name="g" unicode="g" horiz-adv-x="469" 
d="M390 450l117 5l-13 -50h-73c9 -17 13 -34 13 -58c0 -62 -28 -117 -76 -148c-34 -23 -67 -30 -134 -30c-29 -7 -50 -14 -68 -22c-13 -7 -26 -22 -26 -33c0 -5 5 -12 10 -16c11 -6 12 -6 86 -12c148 -11 194 -40 194 -121c0 -58 -32 -111 -85 -140
c-42 -23 -91 -33 -157 -33c-129 0 -204 43 -204 116c0 53 33 87 102 105c-27 20 -38 37 -38 61c0 25 16 50 46 71c14 10 31 18 67 34c-57 29 -82 65 -82 119c0 105 91 185 210 185c49 0 78 -9 111 -33zM283 455c-33 0 -55 -18 -76 -64c-18 -40 -35 -109 -35 -142
c0 -35 20 -57 52 -57c31 0 55 21 74 64c17 39 33 110 33 145s-17 54 -48 54zM166 -12c-102 0 -147 -24 -147 -78c0 -49 57 -82 142 -82c56 0 80 3 104 14c33 16 52 43 52 76c0 51 -41 70 -151 70z" />
    <glyph glyph-name="h" unicode="h" horiz-adv-x="579" 
d="M112 624l6 26c60 4 140 18 205 35l-65 -260c40 39 86 58 139 58c71 0 114 -38 114 -100c0 -19 -3 -41 -10 -67l-37 -151c-18 -65 -20 -76 -20 -92c0 -18 9 -29 23 -29c22 0 32 12 53 66l27 -7c-16 -75 -58 -114 -123 -114c-58 0 -100 39 -100 93c0 19 5 49 17 95l39 155
c6 23 8 36 8 46c0 32 -21 52 -54 52c-48 0 -84 -40 -103 -114l-79 -316h-125l138 552c5 23 9 41 9 46c0 21 -11 26 -62 26z" />
    <glyph glyph-name="i" unicode="i" horiz-adv-x="310" 
d="M283 491l-90 -326c-21 -72 -22 -76 -22 -94c0 -17 8 -27 22 -27c22 0 32 12 55 66l27 -7c-18 -75 -61 -114 -125 -114c-59 0 -99 37 -99 92c0 18 7 52 19 96l50 182c9 32 9 35 10 50c1 16 -12 21 -59 21l7 26c63 5 142 19 205 35zM258 687c32 0 56 -25 56 -60
c0 -46 -34 -83 -77 -83c-33 0 -58 25 -58 58c0 44 38 85 79 85z" />
    <glyph glyph-name="j" unicode="j" horiz-adv-x="281" 
d="M265 491l-84 -336c-36 -147 -51 -185 -92 -241c-53 -69 -133 -109 -218 -108l9 36c58 9 93 36 114 86c13 31 35 109 59 215l54 216c3 13 9 43 9 47c0 19 -11 24 -56 24l6 26c63 5 137 18 199 35zM241 687c33 0 56 -25 56 -60c0 -46 -34 -83 -76 -83c-33 0 -59 25 -59 58
c0 44 38 85 79 85z" />
    <glyph glyph-name="k" unicode="k" horiz-adv-x="541" 
d="M211 235l148 141c17 16 27 33 27 44c0 18 -11 24 -47 27l7 28c40 -4 63 -5 107 -5s75 1 127 5l-7 -28c-52 -5 -71 -14 -123 -56l-96 -82l62 -179c16 -43 18 -50 26 -66c11 -22 28 -33 53 -33c3 0 15 1 25 2l-7 -27c-27 -11 -52 -17 -78 -17c-42 0 -77 15 -97 42
c-12 16 -29 50 -37 72l-44 124l-61 -53l-44 -174h-125l138 552c6 23 9 41 9 48c0 20 -11 24 -60 24l6 26c80 9 99 12 203 35z" />
    <glyph glyph-name="l" unicode="l" horiz-adv-x="310" 
d="M324 685l-130 -520c-16 -62 -19 -79 -19 -91c0 -19 8 -30 23 -30c23 0 34 15 53 66l27 -7c-18 -78 -57 -114 -122 -114c-60 0 -101 39 -101 94c0 19 6 53 16 94l93 376c7 25 10 41 10 46c0 19 -14 25 -60 25l6 26c60 4 139 18 204 35z" />
    <glyph glyph-name="m" unicode="m" horiz-adv-x="821" 
d="M61 429l7 26c71 7 125 16 169 29c3 -17 3 -23 3 -33c0 -14 -2 -35 -4 -48c37 51 91 80 152 80c56 0 86 -24 102 -79c37 52 89 79 153 79c69 0 111 -35 111 -94c0 -16 -4 -44 -10 -69l-39 -155c-19 -79 -19 -79 -19 -94c0 -17 8 -27 23 -27c22 0 31 11 52 66l28 -7
c-17 -75 -59 -114 -123 -114c-59 0 -100 38 -100 93c0 25 3 41 17 95l36 146c8 31 10 44 10 58c0 28 -18 46 -48 46c-41 0 -75 -35 -89 -91l-84 -336h-125l84 338c4 14 7 34 7 43c0 29 -17 46 -46 46c-42 0 -78 -36 -92 -93l-84 -334h-125l89 357c7 29 10 45 10 48
c0 19 -11 23 -65 24z" />
    <glyph glyph-name="n" unicode="n" horiz-adv-x="581" 
d="M63 429l6 26c64 6 123 16 168 29c2 -10 3 -26 3 -41c0 -14 0 -20 -5 -43c45 56 98 83 162 83c71 0 115 -37 115 -97c0 -24 -4 -51 -12 -83l-34 -138c-19 -74 -19 -76 -19 -92c0 -19 8 -29 22 -29c22 0 32 12 53 66l27 -7c-16 -75 -58 -114 -122 -114
c-59 0 -101 39 -101 93c0 20 4 44 17 95l36 141c7 29 9 44 9 62c0 30 -20 50 -51 50c-50 0 -87 -41 -106 -114l-79 -316h-125l89 357c7 39 8 43 8 49c0 17 -13 22 -61 23z" />
    <glyph glyph-name="o" unicode="o" horiz-adv-x="503" 
d="M306 483c108 0 175 -69 175 -181c0 -175 -123 -313 -278 -313c-109 0 -176 68 -176 181c0 176 122 313 279 313zM301 455c-43 0 -73 -30 -104 -104c-31 -75 -53 -175 -53 -246c0 -58 21 -88 62 -88c46 0 77 34 110 117c29 75 48 166 48 230c0 62 -20 91 -63 91z" />
    <glyph glyph-name="p" unicode="p" horiz-adv-x="537" 
d="M63 429l6 27c62 4 97 10 169 27c2 -14 2 -21 2 -32s0 -20 -2 -37c42 50 78 69 130 69c92 0 149 -66 149 -170c0 -170 -125 -324 -263 -324c-44 0 -69 12 -93 46l-58 -232h-125l138 555c17 66 12 72 -53 71zM350 455c-38 0 -70 -28 -97 -86c-33 -69 -66 -207 -66 -277
c0 -46 22 -75 57 -75c42 0 75 36 106 115c30 78 50 179 50 252c0 45 -18 71 -50 71z" />
    <glyph glyph-name="q" unicode="q" horiz-adv-x="533" 
d="M348 -197h-125l58 232c-35 -33 -65 -46 -110 -46c-92 0 -149 64 -149 166c0 168 134 328 276 328c51 0 78 -20 96 -69c12 29 19 44 34 69c43 -13 57 -16 106 -21c-26 -38 -42 -81 -60 -157zM304 455c-42 0 -73 -33 -108 -115c-33 -77 -57 -185 -57 -251
c0 -45 19 -72 52 -72c44 0 79 37 109 113c29 75 56 197 56 254c0 47 -18 71 -52 71z" />
    <glyph glyph-name="r" unicode="r" horiz-adv-x="405" 
d="M63 429l6 26c61 3 116 11 165 24v-7v-12v-5c1 -15 -4 -52 -11 -80c47 73 87 101 143 101c44 0 74 -28 74 -70c0 -40 -29 -74 -64 -74c-29 0 -50 19 -50 44c0 14 7 25 21 33c-4 12 -10 16 -23 16c-24 0 -48 -21 -70 -62c-17 -31 -25 -54 -47 -142l-55 -221h-125l89 357
c5 20 9 41 9 50c0 18 -10 21 -62 22z" />
    <glyph glyph-name="s" unicode="s" horiz-adv-x="448" 
d="M429 472l-29 -135h-30c1 8 1 15 1 20c0 57 -34 92 -90 92c-49 0 -88 -30 -88 -67c0 -24 13 -40 48 -60c50 -31 84 -53 107 -70c31 -25 48 -59 48 -93c0 -99 -89 -171 -211 -171c-70 0 -113 18 -168 69l24 112h28v-10c-1 -9 -1 -20 -1 -22c0 -68 44 -114 108 -114
c58 0 103 42 103 97c0 33 -13 50 -58 77c-111 66 -137 94 -137 148c0 80 76 139 179 139c35 0 55 -4 93 -18c14 -5 26 -8 34 -8c9 0 19 3 39 14z" />
    <glyph glyph-name="t" unicode="t" horiz-adv-x="321" 
d="M281 70l-10 -40c-37 -26 -74 -39 -112 -39c-61 0 -100 41 -100 104c0 23 2 37 16 95l60 244h-61l9 35c71 0 141 58 183 152h38l-37 -150h94l-9 -37h-94l-57 -249c-17 -80 -17 -80 -17 -96c0 -26 16 -45 37 -45c14 0 33 8 60 26z" />
    <glyph glyph-name="u" unicode="u" horiz-adv-x="584" 
d="M66 430l6 26c63 5 142 19 203 35l-86 -344c-5 -22 -9 -43 -9 -53c0 -31 20 -52 50 -52c35 0 70 28 93 73c9 19 23 61 33 102l64 256c55 1 71 2 128 10l-73 -292c-21 -84 -22 -90 -22 -109c0 -20 11 -34 27 -34c20 0 37 17 57 60l28 -12c-32 -72 -73 -105 -132 -105
c-55 0 -86 27 -96 82c-52 -58 -98 -82 -159 -82c-74 0 -121 41 -121 106c0 16 3 33 9 59l51 203c4 18 9 43 9 48c0 19 -12 23 -60 23z" />
    <glyph glyph-name="v" unicode="v" horiz-adv-x="471" 
d="M184 -15h-24l-66 380c-14 75 -17 79 -65 82l7 28c63 -5 93 -6 126 -6c35 0 53 1 128 6l-7 -28l-10 -1c-46 -2 -51 -8 -47 -50l27 -250l143 226l8 12c14 22 19 33 19 44c0 18 -15 26 -44 22l-7 27c57 7 102 19 125 34c5 -14 6 -20 6 -27c0 -22 0 -22 -81 -145z" />
    <glyph glyph-name="w" unicode="w" horiz-adv-x="710" 
d="M383 329l-212 -343h-26l-42 362c-8 87 -13 95 -66 99l7 28c75 -4 94 -5 122 -5s46 1 124 5l-7 -28c-45 -2 -56 -11 -56 -49c0 -2 0 -8 1 -12l2 -37l10 -190l203 331h32l37 -336l131 227c13 22 17 34 17 46c0 20 -14 26 -50 24l-5 26c56 7 101 19 126 35
c5 -17 7 -24 7 -33c0 -17 0 -17 -55 -108l-236 -385h-28z" />
    <glyph glyph-name="x" unicode="x" horiz-adv-x="511" 
d="M195 217l-61 180c-14 37 -29 49 -66 50l7 28c51 -4 86 -5 137 -5c48 0 66 1 100 5l-7 -29l-6 -2c-26 -6 -35 -14 -35 -31c0 -9 0 -9 9 -36l25 -73l76 84c24 27 32 38 32 47c0 11 -9 15 -30 15h-5l-4 27c42 5 80 15 122 34c1 -4 1 -10 1 -17c0 -32 -11 -50 -61 -99
c-9 -8 -17 -16 -24 -24l-96 -98l46 -136c21 -58 22 -61 31 -72c8 -11 18 -17 27 -17c22 0 37 14 61 56l26 -14c-17 -32 -27 -46 -43 -61c-28 -25 -67 -40 -105 -40c-41 0 -74 18 -92 50c-9 16 -15 31 -28 69l-25 75l-108 -105c-16 -16 -24 -27 -24 -36c0 -12 5 -15 32 -17
l-7 -28c-44 3 -56 4 -75 4s-30 -1 -77 -4l7 28c43 6 53 13 106 64c8 6 14 12 20 19z" />
    <glyph glyph-name="y" unicode="y" horiz-adv-x="451" 
d="M157 16l-69 364c-11 53 -20 63 -63 67l7 28c57 -4 87 -5 125 -5c37 0 68 1 127 5l-7 -28c-50 -4 -60 -9 -60 -30c0 -4 0 -4 3 -22l36 -235l139 211c29 41 32 47 32 60c0 16 -17 23 -46 19l-4 27c61 8 82 14 118 33c4 -17 5 -23 5 -31c0 -25 0 -25 -77 -137l-269 -392
c-82 -119 -125 -150 -214 -150h-22v70c20 -9 39 -13 57 -13c50 0 99 39 162 130z" />
    <glyph glyph-name="z" unicode="z" horiz-adv-x="427" 
d="M439 473h43l-401 -394c43 29 79 42 119 42c24 0 31 -1 75 -14c8 -3 17 -4 25 -4c37 0 64 22 78 65h29c-13 -104 -87 -173 -184 -173c-31 0 -49 4 -124 26c-17 5 -30 8 -41 8c-18 0 -37 -10 -59 -29h-43l406 399c-52 -32 -81 -42 -115 -42c-16 0 -30 3 -55 11
c-26 8 -34 10 -46 10c-30 0 -47 -19 -52 -57h-32c6 93 63 159 136 159c22 0 37 -3 82 -18c40 -13 63 -18 84 -18c28 0 47 7 75 29z" />
    <glyph glyph-name="braceleft" unicode="{" horiz-adv-x="334" 
d="M199 -211h-42c-45 0 -59 2 -79 11c-24 12 -37 33 -37 62c0 15 3 34 8 54l59 238c4 15 5 23 5 33c0 26 -11 41 -45 61c54 20 74 43 87 94l53 214c14 56 32 85 64 105c28 18 49 22 108 22h28c-58 -14 -86 -45 -100 -112l-52 -208c-15 -65 -46 -101 -98 -115
c35 -21 47 -38 47 -67c0 -13 -3 -32 -7 -48l-59 -238c-5 -21 -6 -27 -6 -41c0 -34 20 -54 66 -65z" />
    <glyph glyph-name="bar" unicode="|" horiz-adv-x="500" 
d="M214 667h72v-834h-72v834z" />
    <glyph glyph-name="braceright" unicode="}" horiz-adv-x="334" 
d="M140 683h41c46 0 60 -2 79 -11c25 -12 37 -32 37 -61c0 -18 -2 -33 -7 -55l-60 -238c-3 -14 -4 -19 -4 -33c0 -27 9 -40 45 -60c-54 -21 -75 -43 -87 -94l-54 -215c-14 -55 -31 -84 -63 -105c-29 -18 -49 -22 -109 -22h-28c59 14 86 45 101 112l52 208
c15 65 45 101 98 116c-37 21 -47 35 -47 66c0 17 2 32 6 49l59 237c4 13 6 24 6 30c4 42 -16 64 -65 76z" />
    <glyph glyph-name="asciitilde" unicode="~" horiz-adv-x="667" 
d="M531 367l17 -11c-32 -62 -85 -102 -135 -102c-18 0 -32 3 -86 22c-48 16 -61 19 -86 19c-30 0 -47 -9 -76 -43c-3 -3 -6 -6 -9 -10l-17 11c39 68 85 103 136 103c20 0 39 -5 86 -21c40 -14 61 -19 79 -19c33 0 63 17 91 51z" />
    <glyph glyph-name="exclamdown" unicode="&#xa1;" horiz-adv-x="279" 
d="M178 249l-74 -441h-137l142 441h69zM187 483c38 0 66 -26 66 -61c0 -51 -45 -97 -95 -97c-36 0 -63 27 -63 63c0 52 42 95 92 95z" />
    <glyph glyph-name="cent" unicode="&#xa2;" horiz-adv-x="547" 
d="M397 663h38l-20 -81c19 -4 28 -7 49 -17c15 -6 27 -10 35 -10c9 0 17 4 32 14l-37 -172h-29c4 20 5 29 5 47c0 60 -22 98 -62 107l-106 -422c57 -4 115 50 138 129h44c-37 -106 -103 -164 -192 -170l-21 -84h-38l21 84c-101 9 -158 70 -158 170c0 90 39 188 100 250
c52 52 114 78 182 78zM266 137l103 415c-36 -18 -58 -39 -81 -77c-43 -71 -72 -166 -72 -235c0 -50 16 -83 50 -103z" />
    <glyph glyph-name="sterling" unicode="&#xa3;" horiz-adv-x="547" 
d="M272 362h123l-9 -40h-129l-24 -62c-37 -92 -77 -147 -148 -205c68 27 97 35 131 35c20 0 29 -1 69 -11c28 -7 47 -10 59 -10c50 0 84 31 123 109h32c-18 -77 -45 -123 -88 -151c-30 -20 -63 -27 -125 -27h-306c47 49 64 82 121 233l32 89h-73l10 40h77l25 64
c34 89 70 148 115 187c50 43 107 65 169 65c87 0 129 -42 129 -126c0 -11 -1 -20 -2 -37h-50c2 15 2 20 2 33c0 58 -22 85 -69 85c-45 0 -79 -22 -109 -69c-17 -27 -26 -47 -58 -132z" />
    <glyph glyph-name="fraction" unicode="&#x2044;" horiz-adv-x="88" 
d="M-204 0l494 650h52l-494 -650h-52z" />
    <glyph glyph-name="yen" unicode="&#xa5;" horiz-adv-x="547" 
d="M219 400h-116l10 38h98l-18 78c-18 93 -32 112 -87 117l7 37c55 -5 86 -7 140 -7c56 0 88 2 146 7l-9 -37c-56 -2 -74 -12 -74 -37c0 -7 2 -19 4 -33l44 -233l143 208c32 45 38 58 38 74c0 14 -16 23 -39 23c0 0 -3 0 -7 -1h-8l-5 33c61 4 111 16 146 33
c2 -12 3 -17 3 -27c0 -23 -8 -39 -34 -74c-6 -7 -11 -15 -64 -87l-53 -74h82l-10 -38h-100l-54 -74h136l-10 -38h-153l-46 -184c-4 -17 -7 -32 -7 -39c0 -22 15 -29 66 -31l-9 -37c-63 5 -97 7 -145 7c-47 0 -82 -2 -147 -7l10 37c74 2 87 11 102 70l45 184h-169l10 38h151z
" />
    <glyph glyph-name="florin" unicode="&#x192;" horiz-adv-x="547" 
d="M545 491l-12 -37h-105l-108 -332c-35 -108 -62 -168 -89 -201c-30 -39 -83 -61 -145 -61c-72 0 -116 29 -116 76c0 36 26 66 57 66c25 0 44 -18 44 -41c0 -9 -3 -18 -9 -28c-8 -11 -9 -14 -9 -22c0 -14 14 -25 32 -25c29 0 43 16 58 66c7 22 10 32 18 57l141 443h-70
l12 37c64 0 73 7 102 78c27 62 46 89 79 110c30 19 68 29 108 29c70 0 113 -29 113 -75c0 -35 -25 -64 -55 -64c-23 0 -42 16 -42 37c0 9 0 10 14 36c2 4 3 8 3 13c0 15 -12 25 -31 25c-24 0 -36 -11 -48 -43c-2 -7 -8 -24 -22 -67l-24 -77h104z" />
    <glyph glyph-name="section" unicode="&#xa7;" horiz-adv-x="500" 
d="M-2 21h45c-1 -11 -1 -27 -1 -31c0 -46 10 -72 37 -92c20 -14 48 -23 74 -23c69 0 117 45 117 110c0 33 -11 49 -51 78l-100 71c-44 31 -63 64 -63 107c0 40 19 82 50 110c16 15 35 27 72 45c-29 30 -42 58 -42 94c0 91 100 172 213 172c97 0 154 -51 154 -138
c0 -14 -1 -27 -4 -47h-45c2 18 3 26 3 39c0 61 -33 96 -89 96c-58 0 -110 -47 -110 -99c0 -33 12 -49 62 -84l70 -48c51 -34 70 -64 70 -110c0 -66 -45 -122 -126 -156c41 -31 56 -58 56 -100c0 -105 -97 -184 -225 -184c-109 0 -171 53 -171 146c0 14 1 24 4 44zM340 279
l-133 96c-53 -22 -77 -47 -77 -80c0 -22 16 -45 48 -68l126 -93c51 18 77 45 77 82c0 23 -12 42 -41 63z" />
    <glyph glyph-name="currency" unicode="&#xa4;" horiz-adv-x="667" 
d="M72 98l96 98c-32 42 -48 89 -48 140c0 52 14 93 49 140l-99 98l50 50l98 -97c49 34 92 49 143 49s93 -14 141 -49l98 97l49 -50l-97 -97c36 -50 50 -91 50 -141c0 -51 -14 -91 -48 -140l97 -97l-49 -51l-98 98c-46 -34 -90 -49 -142 -49c-51 0 -92 14 -143 48l-98 -97z
M363 495c-89 0 -160 -71 -160 -159s71 -158 158 -158s158 71 158 158c0 86 -72 159 -156 159z" />
    <glyph glyph-name="quotesingle" unicode="'" horiz-adv-x="205" 
d="M179 399h-68l51 268h99z" />
    <glyph glyph-name="quotedblleft" unicode="&#x201c;" horiz-adv-x="411" 
d="M251 678h43c-38 -31 -66 -68 -82 -106c32 -3 50 -23 50 -53c0 -41 -38 -76 -82 -76c-36 0 -60 23 -60 57c0 52 52 123 131 178zM423 678h44c-39 -31 -67 -68 -83 -106c32 -3 50 -23 50 -53c0 -41 -37 -76 -82 -76c-36 0 -60 23 -60 57c0 52 52 123 131 178z" />
    <glyph glyph-name="guillemotleft" unicode="&#xab;" horiz-adv-x="441" 
d="M244 471h31l-127 -233l10 -238h-28l-86 238zM411 471h34l-129 -233l11 -238h-30l-83 238z" />
    <glyph glyph-name="guilsinglleft" unicode="&#x2039;" horiz-adv-x="271" 
d="M241 471h34l-129 -233l12 -238h-30l-84 238z" />
    <glyph glyph-name="guilsinglright" unicode="&#x203a;" horiz-adv-x="271" 
d="M34 0h-34l130 233l-12 238h30l83 -238z" />
    <glyph glyph-name="endash" unicode="&#x2013;" horiz-adv-x="547" 
d="M67 194l25 100h397l-25 -100h-397z" />
    <glyph glyph-name="dagger" unicode="&#x2020;" horiz-adv-x="500" 
d="M109 -124l132 512l-147 -11l25 98l141 -11l42 186h107l-51 -186l148 11l-25 -98l-142 11l-123 -512h-107z" />
    <glyph glyph-name="daggerdbl" unicode="&#x2021;" horiz-adv-x="500" 
d="M250 411l-153 -11l23 94l147 -11l36 167h106l-49 -167l154 11l-24 -94l-147 11l-72 -288l153 11l-23 -93l-148 11l-37 -176h-106l50 176l-153 -11l23 93l148 -11z" />
    <glyph glyph-name="periodcentered" unicode="&#xb7;" 
d="M149 327c37 0 65 -27 65 -63c0 -50 -44 -95 -93 -95c-38 0 -66 27 -66 62c0 51 44 96 94 96z" />
    <glyph glyph-name="paragraph" unicode="&#xb6;" horiz-adv-x="541" 
d="M624 667l-9 -37c-74 -1 -87 -11 -102 -70l-175 -703h-86l175 700c7 28 9 39 9 47c0 15 -11 23 -34 23c-35 0 -43 -10 -58 -68l-175 -702h-85l110 442c-86 15 -125 57 -125 138c0 70 36 143 90 184c45 35 94 46 198 46h267z" />
    <glyph glyph-name="bullet" unicode="&#x2022;" horiz-adv-x="667" 
d="M346 477c40 0 70 -12 94 -38c26 -28 43 -67 43 -99c0 -75 -65 -140 -139 -140c-76 0 -138 63 -138 139c0 38 15 74 41 100c27 28 55 38 99 38z" />
    <glyph glyph-name="quotesinglbase" unicode="&#x201a;" horiz-adv-x="239" 
d="M18 -105h-44c39 32 67 68 82 106c-31 4 -49 23 -49 54c0 41 37 75 81 75c37 0 60 -22 60 -57c0 -53 -50 -121 -130 -178z" />
    <glyph glyph-name="quotedblbase" unicode="&#x201e;" horiz-adv-x="411" 
d="M18 -105h-44c39 32 67 68 82 106c-31 4 -49 23 -49 54c0 41 37 75 81 75c37 0 60 -22 60 -57c0 -53 -50 -121 -130 -178zM190 -105h-44c39 32 67 68 82 106c-31 4 -49 23 -49 54c0 41 37 75 82 75c36 0 60 -23 60 -57c0 -51 -52 -122 -131 -178z" />
    <glyph glyph-name="quotedblright" unicode="&#x201d;" horiz-adv-x="411" 
d="M155 443h-44c39 32 67 68 82 106c-31 4 -49 23 -49 54c0 41 37 75 81 75c37 0 60 -22 60 -57c0 -53 -50 -121 -130 -178zM327 443h-44c39 32 67 68 82 106c-31 4 -49 23 -49 54c0 41 37 75 82 75c36 0 60 -23 60 -57c0 -51 -52 -122 -131 -178z" />
    <glyph glyph-name="guillemotright" unicode="&#xbb;" horiz-adv-x="441" 
d="M202 0h-32l127 233l-9 238h27l86 -238zM34 0h-34l130 233l-12 238h30l83 -238z" />
    <glyph glyph-name="ellipsis" unicode="&#x2026;" horiz-adv-x="775" 
d="M104 147c37 0 65 -27 65 -63c0 -50 -44 -95 -93 -95c-38 0 -66 27 -66 62c0 51 44 96 94 96zM363 147c37 0 64 -27 64 -63c0 -51 -43 -95 -93 -95c-37 0 -66 27 -66 62c0 51 45 96 95 96zM621 147c37 0 64 -26 64 -63c0 -51 -43 -95 -92 -95c-38 0 -66 26 -66 62
c0 52 43 96 94 96z" />
    <glyph glyph-name="perthousand" unicode="&#x2030;" horiz-adv-x="1055" 
d="M283 672c69 0 109 -41 109 -112c0 -53 -22 -108 -58 -148c-38 -41 -79 -60 -131 -60c-74 0 -115 41 -115 113c0 111 91 207 195 207zM273 642c-30 0 -53 -23 -75 -78c-18 -43 -29 -93 -29 -129s14 -54 40 -54c33 0 54 23 75 82c16 45 27 95 27 127s-14 52 -38 52zM164 0
l378 650h51l-377 -650h-52zM567 315c69 0 110 -42 110 -111c0 -52 -23 -110 -59 -149c-37 -41 -79 -60 -131 -60c-72 0 -115 42 -115 114c0 56 27 115 71 156c37 34 76 50 124 50zM557 285c-30 0 -52 -23 -75 -78c-17 -41 -29 -95 -29 -129s15 -54 41 -54c32 0 54 24 75 82
c15 44 27 98 27 127c0 32 -15 52 -39 52zM911 315c69 0 109 -41 109 -111c0 -53 -22 -109 -58 -149c-38 -41 -80 -60 -132 -60c-72 0 -114 41 -114 114c0 57 26 114 70 156c37 34 76 50 125 50zM901 285c-31 0 -53 -22 -75 -78c-18 -43 -29 -92 -29 -129
c0 -36 14 -54 40 -54c32 0 54 24 75 82c16 45 27 96 27 127c0 32 -15 52 -38 52z" />
    <glyph glyph-name="questiondown" unicode="&#xbf;" horiz-adv-x="417" 
d="M250 252h44c-12 -100 -23 -117 -120 -198c-44 -35 -45 -36 -55 -49c-15 -19 -21 -37 -21 -58c0 -42 28 -70 70 -70c50 0 94 35 118 96h43c-29 -111 -110 -177 -214 -177c-88 0 -145 53 -145 134c0 45 19 88 52 118c24 22 24 22 129 83c72 43 86 61 99 121zM316 483
c38 0 67 -27 67 -61c0 -50 -46 -97 -96 -97c-36 0 -63 27 -63 64c0 50 42 94 92 94z" />
    <glyph glyph-name="grave" unicode="`" horiz-adv-x="500" 
d="M369 545h-37l-172 140h185z" />
    <glyph glyph-name="acute" unicode="&#xb4;" horiz-adv-x="500" 
d="M285 545l94 140h185l-235 -140h-44z" />
    <glyph glyph-name="circumflex" unicode="&#x2c6;" horiz-adv-x="500" 
d="M159 536l204 163h9l114 -163h-38l-103 72l-139 -72h-47z" />
    <glyph glyph-name="tilde" unicode="&#x2dc;" horiz-adv-x="500" 
d="M192 555l-30 10c52 82 83 108 131 108c21 0 40 -6 68 -23c34 -21 42 -24 59 -24c26 0 41 10 75 50l30 -9c-45 -81 -87 -116 -138 -116c-18 0 -35 6 -61 22c-38 22 -49 27 -64 27c-23 0 -45 -14 -70 -45z" />
    <glyph glyph-name="macron" unicode="&#xaf;" horiz-adv-x="500" 
d="M168 576l15 61h344l-15 -61h-344z" />
    <glyph glyph-name="breve" unicode="&#x2d8;" horiz-adv-x="500" 
d="M462 692h39c-33 -99 -90 -149 -169 -149c-72 0 -113 44 -113 120c0 4 1 18 2 29h39c18 -55 40 -73 86 -73c42 0 71 18 116 73z" />
    <glyph glyph-name="dotaccent" unicode="&#x2d9;" horiz-adv-x="500" 
d="M361 687c32 0 57 -25 57 -57c0 -46 -38 -85 -83 -85c-35 0 -60 23 -60 55c0 45 41 87 86 87z" />
    <glyph glyph-name="dieresis" unicode="&#xa8;" horiz-adv-x="500" 
d="M265 687c32 0 57 -25 57 -57c0 -46 -38 -85 -83 -85c-35 0 -60 23 -60 55c0 45 41 87 86 87zM457 687c32 0 57 -25 57 -57c0 -46 -38 -85 -83 -85c-35 0 -60 23 -60 55c0 45 41 87 86 87z" />
    <glyph glyph-name="ring" unicode="&#x2da;" horiz-adv-x="500" 
d="M351 716c48 0 88 -41 88 -89c0 -49 -41 -90 -90 -90c-48 0 -89 41 -89 89c0 51 40 90 91 90zM350 673c-26 0 -47 -21 -47 -46s22 -47 46 -47c25 0 47 22 47 47c0 24 -22 46 -46 46z" />
    <glyph glyph-name="cedilla" unicode="&#xb8;" horiz-adv-x="500" 
d="M209 0h47l-44 -52c50 -1 72 -17 72 -54c0 -51 -50 -91 -114 -91c-26 0 -42 4 -77 17l9 31c25 -7 35 -9 51 -9c21 0 36 6 45 19c5 6 10 22 10 27c-2 24 -21 34 -64 34z" />
    <glyph glyph-name="hungarumlaut" unicode="&#x2dd;" horiz-adv-x="500" 
d="M178 545l74 140h155l-188 -140h-41zM361 545l74 140h155l-188 -140h-41z" />
    <glyph glyph-name="ogonek" unicode="&#x2db;" horiz-adv-x="500" 
d="M281 13l46 -8c-74 -30 -112 -62 -112 -92c0 -19 14 -30 36 -30c14 0 23 2 49 10l-9 -34c-28 -12 -54 -18 -78 -18c-49 0 -79 23 -79 60c0 51 55 93 147 112z" />
    <glyph glyph-name="caron" unicode="&#x2c7;" horiz-adv-x="500" 
d="M526 699l-204 -163h-9l-114 163h38l103 -72l139 72h47z" />
    <glyph glyph-name="emdash" unicode="&#x2014;" horiz-adv-x="637" 
d="M-8 194l25 100h637l-25 -100h-637z" />
    <glyph glyph-name="AE" unicode="&#xc6;" horiz-adv-x="904" 
d="M936 667l-17 -176h-31c1 12 1 22 1 27c0 55 -12 86 -39 100c-15 8 -34 11 -72 11h-103l-64 -258h201l-11 -45h-201l-59 -236c-3 -14 -5 -22 -5 -28c0 -17 13 -24 46 -24h62c59 0 91 16 134 65c22 25 38 49 56 82h31l-77 -185h-481l9 37c72 2 84 11 99 70l28 112h-230
l-93 -119c-17 -22 -26 -37 -25 -45c1 -16 11 -19 55 -21l-9 -37c-47 3 -70 4 -96 4s-49 -1 -98 -4l9 37c52 3 76 19 131 88l443 545h406zM244 257h208l102 380h-7z" />
    <glyph glyph-name="ordfeminine" unicode="&#xaa;" horiz-adv-x="367" 
d="M416 683l-51 -178c-12 -41 -15 -56 -15 -64c0 -11 6 -18 15 -18c13 0 20 7 35 36l20 -8c-22 -46 -48 -66 -85 -66c-31 0 -51 16 -58 49c-22 -34 -46 -49 -80 -49c-59 0 -97 39 -97 99c0 102 82 199 168 199c33 0 53 -14 57 -39l9 33c38 0 43 1 82 6zM276 662
c-25 0 -41 -17 -64 -69c-21 -47 -35 -105 -35 -142c0 -30 10 -45 31 -45c25 0 45 21 64 69c19 44 36 114 36 143c0 28 -12 44 -32 44zM83 332h272l-8 -32h-272z" />
    <glyph glyph-name="Lslash" unicode="&#x141;" horiz-adv-x="529" 
d="M122 277l-94 -50l13 55l95 50l57 231c5 18 6 26 6 39c0 23 -15 30 -70 31l9 37c63 -5 97 -7 145 -7c49 0 83 2 147 7l-9 -37c-70 -2 -83 -11 -98 -70l-45 -184l160 83l-14 -54l-160 -83l-58 -234c-11 -44 -4 -53 41 -53h50c58 0 91 16 134 65c22 25 38 48 56 82h30
l-76 -185h-470l9 37c72 2 85 11 100 70z" />
    <glyph glyph-name="Oslash" unicode="&#xd8;" horiz-adv-x="649" 
d="M95 69l-70 -69h-53l105 100c-16 39 -23 75 -23 126c0 126 50 262 128 348c66 71 148 109 240 109c80 0 141 -27 184 -82l69 66h52l-102 -97c17 -40 24 -78 24 -128c0 -109 -39 -231 -101 -314c-70 -95 -161 -144 -268 -144c-81 0 -144 29 -185 85zM518 476l-334 -334
c3 -39 7 -55 18 -77c15 -30 46 -49 82 -49c82 0 149 89 199 263c20 70 32 134 35 197zM184 194l334 334c-7 83 -39 123 -99 123c-77 0 -139 -75 -189 -229c-25 -76 -41 -159 -46 -228z" />
    <glyph glyph-name="OE" unicode="&#x152;" horiz-adv-x="931" 
d="M568 620l12 47h380l-16 -176h-31v26c0 88 -23 112 -110 112h-101l-64 -258h199l-11 -45h-200l-55 -222c-4 -17 -7 -33 -7 -40c0 -18 15 -26 49 -26h51c65 0 97 15 140 65c23 26 39 49 57 82h30l-77 -185h-400l11 44c-57 -43 -104 -60 -164 -60c-130 0 -213 86 -213 222
c0 125 54 270 134 359c67 75 157 118 248 118c58 0 101 -19 138 -63zM435 651c-63 0 -123 -55 -173 -160c-47 -98 -85 -252 -85 -346c0 -78 38 -129 98 -129c72 0 127 56 179 184c43 106 71 233 71 325c0 78 -34 126 -90 126z" />
    <glyph glyph-name="ordmasculine" unicode="&#xba;" horiz-adv-x="339" 
d="M280 683c68 0 109 -40 109 -106c0 -110 -72 -191 -170 -191c-71 0 -115 42 -115 111c0 45 17 91 46 126c34 41 74 60 130 60zM276 662c-29 0 -45 -16 -65 -68c-19 -48 -30 -95 -30 -130c0 -38 14 -57 41 -57c28 0 45 18 63 66c16 43 27 101 27 139c0 35 -11 50 -36 50z
M59 332h272l-8 -32h-272z" />
    <glyph glyph-name="ae" unicode="&#xe6;" horiz-adv-x="749" 
d="M516 483l-21 -83c35 62 67 83 126 83c74 0 123 -45 123 -111c0 -61 -45 -113 -131 -152c-51 -23 -99 -34 -168 -37c-4 -20 -7 -44 -7 -56c0 -59 37 -98 92 -98c57 0 111 45 142 120h43c-44 -103 -122 -160 -219 -160c-82 0 -134 31 -164 97c-41 -69 -85 -97 -149 -97
c-96 0 -160 68 -160 170c0 77 34 169 86 232c48 59 112 92 178 92c58 0 84 -24 90 -83l18 73l40 1c23 1 25 1 81 9zM300 455c-32 0 -59 -23 -86 -73c-41 -74 -74 -204 -74 -286c0 -51 20 -79 55 -79c41 0 75 38 106 119c27 70 53 193 53 248c0 43 -21 71 -54 71zM453 219h10
c95 0 178 80 178 173c0 38 -17 63 -43 63c-55 0 -118 -103 -145 -236z" />
    <glyph glyph-name="dotlessi" unicode="&#x131;" horiz-adv-x="310" 
d="M283 491l-90 -326c-21 -72 -22 -76 -22 -94c0 -17 8 -27 22 -27c22 0 32 12 55 66l27 -7c-18 -75 -61 -114 -125 -114c-59 0 -99 37 -99 92c0 18 7 52 19 96l50 182c9 32 9 35 10 50c1 16 -12 21 -59 21l7 26c63 5 142 19 205 35z" />
    <glyph glyph-name="lslash" unicode="&#x142;" horiz-adv-x="323" 
d="M255 383l90 45l-13 -52l-90 -45l-42 -166c-17 -62 -21 -78 -21 -92c0 -18 9 -29 23 -29c22 0 32 12 53 66l28 -7c-17 -75 -59 -114 -123 -114c-59 0 -101 39 -101 93c0 17 7 54 17 95l29 114l-69 -36l13 52l70 36l53 210c18 67 15 71 -50 71l6 26c59 4 141 18 204 35z
" />
    <glyph glyph-name="oslash" unicode="&#xf8;" horiz-adv-x="503" 
d="M70 42l-57 -53h-48l85 80c-16 30 -23 62 -23 103c0 81 33 169 86 227c48 53 119 84 191 84c57 0 100 -17 134 -53l54 52h51l-85 -79c17 -34 23 -60 23 -101c0 -175 -123 -313 -278 -313c-56 0 -98 17 -133 53zM362 323l-218 -226c3 -55 23 -80 63 -80c49 0 86 45 119 146
c20 58 30 102 36 160zM146 149l218 225c-3 57 -22 81 -64 81c-47 0 -84 -44 -115 -138c-21 -62 -33 -114 -39 -168z" />
    <glyph glyph-name="oe" unicode="&#x153;" horiz-adv-x="747" 
d="M672 149h41c-44 -104 -120 -160 -216 -160c-68 0 -119 22 -149 65c-54 -45 -105 -65 -162 -65c-97 0 -163 69 -163 170c0 169 137 324 285 324c57 0 99 -20 131 -64c49 42 105 64 165 64c87 0 140 -43 140 -113c0 -60 -44 -111 -130 -150c-52 -23 -99 -34 -169 -37
c-4 -22 -7 -45 -7 -57c0 -57 38 -97 91 -97c58 0 112 45 143 120zM454 219h9c97 0 178 79 178 174c0 38 -17 62 -43 62c-55 0 -117 -102 -144 -236zM301 455c-39 0 -71 -32 -102 -105c-32 -74 -59 -194 -59 -262c0 -46 19 -71 52 -71s63 25 87 73c42 86 72 205 72 289
c0 50 -17 76 -50 76z" />
    <glyph glyph-name="germandbls" unicode="&#xdf;" horiz-adv-x="544" 
d="M289 346l10 32c51 5 76 18 98 51c23 36 42 102 42 147c0 42 -20 63 -60 63c-49 0 -74 -28 -92 -101l-96 -383c-46 -172 -49 -178 -92 -241c-51 -68 -134 -109 -218 -108l9 36c58 10 92 35 114 86c13 32 30 91 59 216l81 326c20 78 43 122 79 152c41 34 93 50 159 50
c104 0 160 -43 160 -123c0 -49 -24 -100 -62 -134c-29 -25 -56 -38 -104 -48c91 -23 130 -66 130 -145c0 -124 -99 -233 -212 -233c-28 0 -49 6 -72 22l8 33c18 -8 27 -10 40 -10c35 0 64 22 86 67c19 39 34 102 34 142c0 37 -14 68 -38 85c-14 9 -29 13 -63 18z" />
    <glyph glyph-name="onesuperior" unicode="&#xb9;" horiz-adv-x="356" 
d="M337 666l-85 -343c-3 -8 -4 -17 -4 -20c0 -14 11 -18 52 -20l-6 -26c-46 4 -70 5 -101 5s-55 -1 -103 -5l6 26c55 2 63 7 75 52l61 245l-64 -4l6 25c56 4 110 29 138 65h25z" />
    <glyph glyph-name="logicalnot" unicode="&#xac;" horiz-adv-x="500" 
d="M345 0v215h-312v52h433v-267h-121z" />
    <glyph glyph-name="mu" unicode="&#xb5;" horiz-adv-x="459" 
d="M484 52v-17l-100 -45c-1 -1 -2 -1 -5 -1c-24 0 -39 18 -48 58l-5 20c-69 -68 -93 -82 -143 -82c-56 0 -87 25 -109 86c0 -47 1 -60 3 -78c1 -7 3 -20 7 -37l10 -47c4 -19 7 -39 7 -50c0 -31 -19 -51 -47 -51c-29 0 -49 20 -49 50c0 14 3 37 8 63c17 87 29 233 29 343v193
h96v-287c0 -59 5 -86 21 -107c12 -15 35 -26 56 -26c39 0 69 20 105 70v350h95v-334c0 -63 8 -79 39 -79c11 0 17 2 30 8z" />
    <glyph glyph-name="trademark" unicode="&#x2122;" horiz-adv-x="814" 
d="M301 641l-73 -294c-3 -10 -3 -11 -3 -21c0 -12 7 -15 41 -16l-6 -26c-40 4 -61 5 -87 5s-46 -1 -88 -5l7 26c42 1 47 5 56 37l73 294h-14c-44 0 -69 -21 -98 -83h-25l46 109h276l-8 -109h-24v11c0 52 -17 72 -59 72h-14zM508 625l-74 -277c-3 -10 -4 -17 -4 -21
c0 -12 8 -15 40 -16l-6 -26c-24 2 -35 2 -57 2c-20 0 -35 0 -63 -2l6 25c29 4 41 11 49 29c6 13 14 39 42 140l36 127c8 32 3 36 -38 37l6 26c29 -2 43 -3 64 -3s37 1 68 3l35 -251l163 251c34 -2 50 -3 70 -3c19 0 34 1 62 3l-6 -26c-42 -1 -50 -6 -57 -37l-55 -239
c-6 -34 -6 -34 -6 -37c0 -14 8 -18 40 -19l-7 -26c-35 3 -52 4 -86 4c-33 0 -51 -1 -88 -4l7 26c42 1 49 5 57 37l69 277l-211 -327h-12z" />
    <glyph glyph-name="Eth" unicode="&#xd0;" horiz-adv-x="669" 
d="M136 331h-82l9 40h82l48 189c3 16 6 31 6 38c0 23 -17 31 -71 32l9 37h270c103 0 155 -14 195 -52c43 -41 64 -100 64 -182c0 -135 -53 -259 -144 -338c-75 -65 -165 -95 -286 -95h-265l9 37c72 2 84 11 100 70zM275 371h121l-10 -40h-120l-59 -235c-5 -19 -6 -26 -6 -33
c0 -19 11 -26 43 -26c73 0 125 18 161 56c76 79 132 246 132 389c0 65 -16 107 -48 129c-18 12 -49 18 -95 18h-54z" />
    <glyph glyph-name="onehalf" unicode="&#xbd;" horiz-adv-x="800" 
d="M337 666l-85 -343c-3 -8 -4 -17 -4 -20c0 -14 11 -18 52 -20l-6 -26c-46 4 -70 5 -101 5s-55 -1 -103 -5l6 26c55 2 63 7 75 52l61 245l-64 -4l6 25c56 4 110 29 138 65h25zM152 0l494 650h51l-494 -650h-51zM711 70l-29 -70h-245l15 57c72 59 119 100 168 147
c42 39 59 67 59 95c0 26 -20 43 -50 43c-40 0 -67 -20 -89 -67h-33c31 84 81 122 158 122c61 0 101 -32 101 -80c0 -41 -24 -77 -85 -130c-32 -27 -32 -27 -152 -117h182z" />
    <glyph glyph-name="plusminus" unicode="&#xb1;" horiz-adv-x="547" 
d="M40 295v83h180v179h89v-179h179v-83h-179v-159h-89v159h-180zM40 3v83h448v-83h-448z" />
    <glyph glyph-name="Thorn" unicode="&#xde;" horiz-adv-x="574" 
d="M275 34l-9 -37c-62 5 -96 7 -146 7s-85 -2 -150 -7l9 37c72 2 85 10 100 69l113 457c5 17 6 26 6 39c0 23 -16 30 -70 31l9 37c59 -5 91 -7 145 -7c55 0 87 2 147 7l-9 -37c-68 -2 -81 -10 -96 -63h49c83 0 119 -5 150 -20c44 -22 71 -68 71 -121
c0 -75 -36 -150 -91 -190c-47 -35 -113 -53 -191 -53h-83l-20 -80c-4 -16 -6 -26 -6 -36c0 -24 15 -32 72 -33zM238 221h44c68 0 110 22 141 73c24 39 42 101 42 145c0 63 -33 90 -110 90h-40z" />
    <glyph glyph-name="onequarter" unicode="&#xbc;" horiz-adv-x="800" 
d="M337 666l-85 -343c-3 -8 -4 -17 -4 -20c0 -14 11 -18 52 -20l-6 -26c-46 4 -70 5 -101 5s-55 -1 -103 -5l6 26c55 2 63 7 75 52l61 245l-64 -4l6 25c56 4 110 29 138 65h25zM152 0l494 650h51l-494 -650h-51zM579 -10l25 97h-182l2 9l243 294h89l-58 -242h64l-15 -61h-62
l-24 -97h-82zM620 148l53 209l-166 -209h113z" />
    <glyph glyph-name="divide" unicode="&#xf7;" horiz-adv-x="547" 
d="M77 296v80h448v-80h-448zM302 241c36 0 68 -32 68 -69s-31 -68 -69 -68c-37 0 -68 31 -68 68c0 38 31 69 69 69zM302 569c36 0 68 -32 68 -69s-31 -68 -69 -68s-68 30 -68 68s31 69 69 69z" />
    <glyph glyph-name="brokenbar" unicode="&#xa6;" horiz-adv-x="500" 
d="M214 667h72v-343h-72v343zM214 153h72v-320h-72v320z" />
    <glyph glyph-name="degree" unicode="&#xb0;" horiz-adv-x="500" 
d="M328 683c81 0 146 -63 146 -142s-65 -143 -145 -143c-82 0 -146 63 -146 144c0 77 66 141 145 141zM328 628c-48 0 -88 -39 -88 -86c0 -51 38 -89 89 -89c49 0 88 39 88 87c0 49 -40 88 -89 88z" />
    <glyph glyph-name="thorn" unicode="&#xfe;" horiz-adv-x="537" 
d="M160 -197h-125l187 749c5 23 9 42 9 48c0 20 -11 24 -60 24l6 26c80 9 99 12 203 35l-61 -245c34 31 64 43 106 43c92 0 149 -66 149 -170c0 -170 -125 -324 -263 -324c-44 0 -69 12 -93 46zM407 455c-38 0 -70 -28 -97 -86c-33 -69 -66 -207 -66 -277
c0 -46 22 -75 57 -75c42 0 75 36 106 115c30 78 50 179 50 252c0 45 -18 71 -50 71z" />
    <glyph glyph-name="threequarters" unicode="&#xbe;" horiz-adv-x="800" 
d="M78 373h31c13 -44 41 -66 84 -66c46 0 81 36 81 83c0 42 -26 58 -94 58l7 29c40 0 57 3 74 13c24 14 38 39 38 65c0 29 -21 49 -52 49c-33 0 -56 -18 -78 -62h-31c27 79 69 115 136 115c61 0 105 -38 105 -92c0 -48 -35 -82 -98 -97c50 -14 74 -41 74 -85
c0 -73 -65 -130 -148 -130c-77 0 -124 43 -129 120zM152 0l494 650h52l-495 -650h-51zM580 -10l24 97h-182l2 9l243 294h89l-57 -242h63l-15 -61h-61l-24 -97h-82zM620 148l53 209l-166 -209h113z" />
    <glyph glyph-name="twosuperior" unicode="&#xb2;" horiz-adv-x="356" 
d="M332 330l-29 -70h-245l14 57c182 149 227 197 227 242c0 27 -18 43 -50 43c-40 0 -67 -20 -89 -67h-32c31 84 80 122 157 122c62 0 101 -31 101 -80c0 -42 -22 -76 -85 -130c-31 -27 -31 -27 -151 -117h182z" />
    <glyph glyph-name="registered" unicode="&#xae;" horiz-adv-x="780" 
d="M371 312v-115c0 -34 4 -37 53 -39v-27c-40 4 -61 5 -93 5c-31 0 -53 -1 -96 -5v27c48 2 52 5 52 39v270c0 34 -6 39 -52 40v26h185c47 0 74 -5 99 -20c31 -19 50 -53 50 -90c0 -36 -18 -67 -47 -83c-11 -6 -18 -9 -45 -18c25 -10 34 -19 52 -55l34 -70
c16 -33 23 -38 52 -39v-26c-22 1 -34 1 -54 1c-19 0 -31 0 -53 -1l-64 133c-19 41 -27 47 -60 47h-13zM373 339h31c54 0 79 26 79 83s-24 84 -75 84h-35v-167zM416 678c191 0 345 -154 345 -344c0 -193 -154 -345 -349 -345c-186 0 -340 156 -340 345c0 190 154 344 344 344
zM416 641c-169 0 -307 -138 -307 -307c0 -167 139 -308 304 -308c173 0 311 137 311 308c0 168 -139 307 -308 307z" />
    <glyph glyph-name="minus" unicode="&#x2212;" horiz-adv-x="547" 
d="M77 295v83h448v-83h-448z" />
    <glyph glyph-name="eth" unicode="&#xf0;" horiz-adv-x="501" 
d="M391 609l85 22l9 -38l-79 -21l36 -85c37 -79 45 -109 45 -164c0 -80 -33 -179 -79 -236c-51 -63 -122 -98 -199 -98c-111 0 -184 71 -184 180c0 71 31 157 78 216c50 62 121 98 196 98c17 0 29 -1 51 -4l-9 76l-76 -20l-10 39l80 21l-9 81l31 9zM304 455
c-45 0 -72 -27 -105 -106c-31 -74 -57 -187 -57 -249c0 -52 25 -83 68 -83c46 0 79 35 108 116c25 69 44 168 44 227c0 65 -18 95 -58 95z" />
    <glyph glyph-name="multiply" unicode="&#xd7;" horiz-adv-x="547" 
d="M94 482l61 61l147 -147l145 144l58 -57l-145 -145l147 -148l-60 -60l-148 147l-145 -145l-57 58l144 145z" />
    <glyph glyph-name="threesuperior" unicode="&#xb3;" horiz-adv-x="356" 
d="M78 373h31c13 -44 41 -66 84 -66c46 0 81 36 81 83c0 42 -26 58 -94 58l7 29c40 0 57 3 74 13c24 14 38 39 38 65c0 29 -21 49 -52 49c-33 0 -56 -18 -78 -62h-31c27 79 69 115 136 115c61 0 105 -38 105 -92c0 -48 -35 -82 -98 -97c50 -14 74 -41 74 -85
c0 -73 -65 -130 -148 -130c-77 0 -124 43 -129 120z" />
    <glyph glyph-name="copyright" unicode="&#xa9;" horiz-adv-x="780" 
d="M550 279h25c-2 -95 -62 -155 -156 -155c-113 0 -184 81 -184 209s73 210 187 210c47 0 79 -12 109 -42l20 42h17v-141h-24c-17 76 -51 110 -111 110c-73 0 -109 -56 -109 -169c0 -115 37 -171 113 -171c67 0 108 39 113 107zM416 678c191 0 345 -154 345 -344
c0 -193 -154 -345 -349 -345c-186 0 -340 156 -340 345c0 190 154 344 344 344zM416 641c-169 0 -307 -138 -307 -307c0 -167 139 -308 304 -308c173 0 311 137 311 308c0 168 -139 307 -308 307z" />
    <glyph glyph-name="Aacute" unicode="&#xc1;" horiz-adv-x="661" 
d="M394 181h-220l-45 -71c-38 -61 -31 -75 37 -76l-9 -37c-45 3 -69 4 -101 4c-31 0 -56 -1 -102 -4l9 37c64 3 81 16 136 104l365 555h14l56 -588c5 -53 23 -69 82 -71l-9 -37c-57 5 -89 7 -145 7c-55 0 -89 -2 -149 -7l10 37c45 2 50 3 60 8c12 7 17 17 17 36
c0 4 0 11 -1 19zM200 219h190l-14 271zM422 738l98 126h191l-244 -126h-45z" />
    <glyph glyph-name="Acircumflex" unicode="&#xc2;" horiz-adv-x="661" 
d="M394 181h-220l-45 -71c-38 -61 -31 -75 37 -76l-9 -37c-45 3 -69 4 -101 4c-31 0 -56 -1 -102 -4l9 37c64 3 81 16 136 104l365 555h14l56 -588c5 -53 23 -69 82 -71l-9 -37c-57 5 -89 7 -145 7c-55 0 -89 -2 -149 -7l10 37c45 2 50 3 60 8c12 7 17 17 17 36
c0 4 0 11 -1 19zM200 219h190l-14 271zM280 733l217 150h9l134 -150h-41l-119 62l-150 -62h-50z" />
    <glyph glyph-name="Adieresis" unicode="&#xc4;" horiz-adv-x="661" 
d="M394 181h-220l-45 -71c-38 -61 -31 -75 37 -76l-9 -37c-45 3 -69 4 -101 4c-31 0 -56 -1 -102 -4l9 37c64 3 81 16 136 104l365 555h14l56 -588c5 -53 23 -69 82 -71l-9 -37c-57 5 -89 7 -145 7c-55 0 -89 -2 -149 -7l10 37c45 2 50 3 60 8c12 7 17 17 17 36
c0 4 0 11 -1 19zM200 219h190l-14 271zM392 881c35 0 60 -25 60 -60c0 -48 -40 -89 -87 -89c-35 0 -63 25 -63 58c0 47 43 91 90 91zM594 881c34 0 60 -26 60 -60c0 -48 -40 -89 -87 -89c-36 0 -63 25 -63 58c0 48 43 91 90 91z" />
    <glyph glyph-name="Agrave" unicode="&#xc0;" horiz-adv-x="661" 
d="M394 181h-220l-45 -71c-38 -61 -31 -75 37 -76l-9 -37c-45 3 -69 4 -101 4c-31 0 -56 -1 -102 -4l9 37c64 3 81 16 136 104l365 555h14l56 -588c5 -53 23 -69 82 -71l-9 -37c-57 5 -89 7 -145 7c-55 0 -89 -2 -149 -7l10 37c45 2 50 3 60 8c12 7 17 17 17 36
c0 4 0 11 -1 19zM200 219h190l-14 271zM513 738h-37l-189 126h192z" />
    <glyph glyph-name="Aring" unicode="&#xc5;" horiz-adv-x="661" 
d="M394 181h-220l-45 -71c-38 -61 -31 -75 37 -76l-9 -37c-45 3 -69 4 -101 4c-31 0 -56 -1 -102 -4l9 37c64 3 81 16 136 104l365 555h14l56 -588c5 -53 23 -69 82 -71l-9 -37c-57 5 -89 7 -145 7c-55 0 -89 -2 -149 -7l10 37c45 2 50 3 60 8c12 7 17 17 17 36
c0 4 0 11 -1 19zM200 219h190l-14 271zM479 905c48 0 88 -41 88 -89c0 -50 -40 -90 -89 -90c-50 0 -90 40 -90 89c0 50 40 90 91 90zM478 862c-26 0 -47 -21 -47 -47c0 -24 22 -46 46 -46c25 0 47 22 47 47c0 24 -22 46 -46 46z" />
    <glyph glyph-name="Atilde" unicode="&#xc3;" horiz-adv-x="661" 
d="M394 181h-220l-45 -71c-38 -61 -31 -75 37 -76l-9 -37c-45 3 -69 4 -101 4c-31 0 -56 -1 -102 -4l9 37c64 3 81 16 136 104l365 555h14l56 -588c5 -53 23 -69 82 -71l-9 -37c-57 5 -89 7 -145 7c-55 0 -89 -2 -149 -7l10 37c45 2 50 3 60 8c12 7 17 17 17 36
c0 4 0 11 -1 19zM200 219h190l-14 271zM327 745l-30 10c27 43 39 58 54 73c25 24 51 36 77 36c21 0 41 -7 68 -23c35 -21 42 -24 59 -24c27 0 41 10 76 50l30 -9c-46 -82 -87 -116 -138 -116c-19 0 -35 6 -62 21c-38 23 -49 28 -63 28c-23 0 -46 -15 -71 -46z" />
    <glyph glyph-name="Ccedilla" unicode="&#xc7;" horiz-adv-x="604" 
d="M322 -15l-32 -40c52 -1 76 -19 76 -58c0 -54 -54 -97 -121 -97c-26 0 -47 5 -82 19l9 36c25 -8 42 -11 55 -11c29 0 55 22 55 47c0 22 -21 36 -55 36h-10l58 67c-62 7 -98 18 -132 43c-59 42 -89 111 -89 203c0 104 33 212 91 296c71 104 168 157 283 157
c54 0 86 -8 144 -37c14 -7 27 -11 35 -11c10 0 20 4 42 15l-42 -197h-32v13c0 112 -48 174 -133 174c-78 0 -144 -51 -194 -151c-40 -79 -65 -182 -65 -265c0 -107 52 -167 144 -167c103 0 178 64 211 181h36c-29 -148 -124 -244 -252 -253z" />
    <glyph glyph-name="Eacute" unicode="&#xc9;" horiz-adv-x="570" 
d="M531 185l-78 -185h-482l9 37c72 2 85 11 100 70l113 453c4 17 6 30 6 38c0 23 -16 31 -71 32l9 37h462l-16 -176h-31c0 73 -3 89 -18 109c-16 21 -41 29 -93 29h-101l-65 -261h200l-11 -45h-200l-55 -219c-4 -17 -7 -33 -7 -40c0 -18 15 -26 50 -26h51c65 0 97 15 141 65
c22 26 38 49 56 82h31zM324 738l97 126h191l-244 -126h-44z" />
    <glyph glyph-name="Ecircumflex" unicode="&#xca;" horiz-adv-x="570" 
d="M531 185l-78 -185h-482l9 37c72 2 85 11 100 70l113 453c4 17 6 30 6 38c0 23 -16 31 -71 32l9 37h462l-16 -176h-31c0 73 -3 89 -18 109c-16 21 -41 29 -93 29h-101l-65 -261h200l-11 -45h-200l-55 -219c-4 -17 -7 -33 -7 -40c0 -18 15 -26 50 -26h51c65 0 97 15 141 65
c22 26 38 49 56 82h31zM214 733l217 150h10l134 -150h-42l-119 62l-150 -62h-50z" />
    <glyph glyph-name="Edieresis" unicode="&#xcb;" horiz-adv-x="570" 
d="M531 185l-78 -185h-482l9 37c72 2 85 11 100 70l113 453c4 17 6 30 6 38c0 23 -16 31 -71 32l9 37h462l-16 -176h-31c0 73 -3 89 -18 109c-16 21 -41 29 -93 29h-101l-65 -261h200l-11 -45h-200l-55 -219c-4 -17 -7 -33 -7 -40c0 -18 15 -26 50 -26h51c65 0 97 15 141 65
c22 26 38 49 56 82h31zM323 881c35 0 60 -25 60 -60c0 -48 -40 -89 -87 -89c-35 0 -63 25 -63 58c0 47 43 91 90 91zM525 881c34 0 60 -25 60 -60c0 -48 -40 -89 -87 -89c-36 0 -63 25 -63 58c0 48 43 91 90 91z" />
    <glyph glyph-name="Egrave" unicode="&#xc8;" horiz-adv-x="570" 
d="M531 185l-78 -185h-482l9 37c72 2 85 11 100 70l113 453c4 17 6 30 6 38c0 23 -16 31 -71 32l9 37h462l-16 -176h-31c0 73 -3 89 -18 109c-16 21 -41 29 -93 29h-101l-65 -261h200l-11 -45h-200l-55 -219c-4 -17 -7 -33 -7 -40c0 -18 15 -26 50 -26h51c65 0 97 15 141 65
c22 26 38 49 56 82h31zM468 738h-38l-188 126h191z" />
    <glyph glyph-name="Iacute" unicode="&#xcd;" horiz-adv-x="349" 
d="M271 34l-9 -37c-61 5 -94 7 -143 7s-84 -2 -149 -7l9 37c72 2 85 10 100 70l114 459c4 16 6 28 6 39c0 23 -16 30 -70 31l9 37c63 -5 97 -7 145 -7c49 0 83 2 147 7l-9 -37c-70 -1 -83 -10 -98 -70l-114 -459c-4 -15 -6 -29 -6 -39c0 -23 15 -30 68 -31zM253 738l91 126
h181l-227 -126h-45z" />
    <glyph glyph-name="Icircumflex" unicode="&#xce;" horiz-adv-x="349" 
d="M271 34l-9 -37c-61 5 -94 7 -143 7s-84 -2 -149 -7l9 37c72 2 85 10 100 70l114 459c4 16 6 28 6 39c0 23 -16 30 -70 31l9 37c63 -5 97 -7 145 -7c49 0 83 2 147 7l-9 -37c-70 -1 -83 -10 -98 -70l-114 -459c-4 -15 -6 -29 -6 -39c0 -23 15 -30 68 -31zM124 733l204 150
h9l121 -150h-42l-105 62l-137 -62h-50z" />
    <glyph glyph-name="Idieresis" unicode="&#xcf;" horiz-adv-x="349" 
d="M271 34l-9 -37c-61 5 -94 7 -143 7s-84 -2 -149 -7l9 37c72 2 85 10 100 70l114 459c4 16 6 28 6 39c0 23 -16 30 -70 31l9 37c63 -5 97 -7 145 -7c49 0 83 2 147 7l-9 -37c-70 -1 -83 -10 -98 -70l-114 -459c-4 -15 -6 -29 -6 -39c0 -23 15 -30 68 -31zM240 875
c33 0 57 -24 57 -57c0 -45 -39 -85 -83 -85c-34 0 -59 24 -59 55c0 46 40 87 85 87zM418 875c33 0 57 -24 57 -57c0 -45 -38 -85 -83 -85c-33 0 -59 24 -59 55c0 46 40 87 85 87z" />
    <glyph glyph-name="Igrave" unicode="&#xcc;" horiz-adv-x="349" 
d="M271 34l-9 -37c-61 5 -94 7 -143 7s-84 -2 -149 -7l9 37c72 2 85 10 100 70l114 459c4 16 6 28 6 39c0 23 -16 30 -70 31l9 37c63 -5 97 -7 145 -7c49 0 83 2 147 7l-9 -37c-70 -1 -83 -10 -98 -70l-114 -459c-4 -15 -6 -29 -6 -39c0 -23 15 -30 68 -31zM351 739h-38
l-181 127h178z" />
    <glyph glyph-name="Ntilde" unicode="&#xd1;" horiz-adv-x="670" 
d="M502 -17h-17l-257 587l-110 -440c-7 -27 -11 -51 -11 -60c0 -27 14 -35 68 -36l-9 -37c-46 3 -70 4 -100 4s-54 -1 -101 -4l9 37c56 5 75 18 94 64c11 32 18 55 39 141c9 33 17 64 25 98l64 258c-23 28 -39 37 -74 38l10 37c40 -2 62 -3 93 -3c30 0 53 1 94 3l203 -455
l85 342c5 19 8 37 8 46c0 21 -18 29 -70 30l9 37c42 -2 65 -3 100 -3s58 1 101 3l-9 -37c-69 -1 -84 -12 -101 -76zM328 745l-30 10c27 43 38 58 54 73c24 24 50 36 77 36c20 0 40 -7 67 -23c35 -21 43 -24 59 -24c27 0 42 10 76 50l30 -9c-46 -82 -86 -116 -138 -116
c-19 0 -35 6 -61 21c-38 23 -50 28 -64 28c-23 0 -46 -15 -70 -46z" />
    <glyph glyph-name="Oacute" unicode="&#xd3;" horiz-adv-x="649" 
d="M425 683c140 0 224 -89 224 -237c0 -113 -38 -234 -101 -318c-70 -95 -162 -144 -267 -144c-145 0 -227 87 -227 240c0 128 50 265 128 350c66 72 148 109 243 109zM421 651c-68 0 -120 -51 -168 -165c-40 -98 -70 -235 -70 -324c0 -94 36 -146 100 -146
c69 0 123 57 172 178c39 100 64 222 64 313c0 92 -35 144 -98 144zM387 738l97 126h192l-245 -126h-44z" />
    <glyph glyph-name="Ocircumflex" unicode="&#xd4;" horiz-adv-x="649" 
d="M425 683c140 0 224 -89 224 -237c0 -113 -38 -234 -101 -318c-70 -95 -162 -144 -267 -144c-145 0 -227 87 -227 240c0 128 50 265 128 350c66 72 148 109 243 109zM421 651c-68 0 -120 -51 -168 -165c-40 -98 -70 -235 -70 -324c0 -94 36 -146 100 -146
c69 0 123 57 172 178c39 100 64 222 64 313c0 92 -35 144 -98 144zM261 733l217 150h10l133 -150h-41l-119 62l-150 -62h-50z" />
    <glyph glyph-name="Odieresis" unicode="&#xd6;" horiz-adv-x="649" 
d="M425 683c140 0 224 -89 224 -237c0 -113 -38 -234 -101 -318c-70 -95 -162 -144 -267 -144c-145 0 -227 87 -227 240c0 128 50 265 128 350c66 72 148 109 243 109zM421 651c-68 0 -120 -51 -168 -165c-40 -98 -70 -235 -70 -324c0 -94 36 -146 100 -146
c69 0 123 57 172 178c39 100 64 222 64 313c0 92 -35 144 -98 144zM373 881c34 0 61 -26 61 -60c0 -47 -41 -89 -88 -89c-36 0 -62 24 -62 58c0 48 42 91 89 91zM575 881c35 0 60 -25 60 -60c0 -48 -40 -89 -87 -89c-36 0 -63 25 -63 58c0 47 43 91 90 91z" />
    <glyph glyph-name="Ograve" unicode="&#xd2;" horiz-adv-x="649" 
d="M425 683c140 0 224 -89 224 -237c0 -113 -38 -234 -101 -318c-70 -95 -162 -144 -267 -144c-145 0 -227 87 -227 240c0 128 50 265 128 350c66 72 148 109 243 109zM421 651c-68 0 -120 -51 -168 -165c-40 -98 -70 -235 -70 -324c0 -94 36 -146 100 -146
c69 0 123 57 172 178c39 100 64 222 64 313c0 92 -35 144 -98 144zM514 738h-37l-189 126h192z" />
    <glyph glyph-name="Otilde" unicode="&#xd5;" horiz-adv-x="649" 
d="M425 683c140 0 224 -89 224 -237c0 -113 -38 -234 -101 -318c-70 -95 -162 -144 -267 -144c-145 0 -227 87 -227 240c0 128 50 265 128 350c66 72 148 109 243 109zM421 651c-68 0 -120 -51 -168 -165c-40 -98 -70 -235 -70 -324c0 -94 36 -146 100 -146
c69 0 123 57 172 178c39 100 64 222 64 313c0 92 -35 144 -98 144zM315 745l-30 10c27 43 39 58 54 73c25 24 51 36 77 36c21 0 41 -7 68 -23c35 -21 42 -24 59 -24c27 0 41 10 76 50l30 -9c-46 -82 -87 -116 -138 -116c-19 0 -36 6 -62 21c-38 23 -49 28 -64 28
c-23 0 -45 -15 -70 -46z" />
    <glyph glyph-name="Scaron" unicode="&#x160;" horiz-adv-x="545" 
d="M564 651l-46 -186h-32c3 17 4 25 4 41c0 83 -47 135 -122 135s-136 -51 -136 -114c0 -26 12 -50 36 -70c22 -19 30 -24 105 -70c99 -59 129 -99 129 -170c0 -123 -123 -228 -267 -228c-81 0 -142 26 -220 94l39 160h32c-4 -24 -5 -36 -5 -55c0 -99 52 -156 142 -156
c83 0 152 64 152 142c0 41 -18 63 -86 105c-85 51 -111 69 -135 92c-34 32 -49 63 -49 103c0 115 110 204 250 204c47 0 82 -8 133 -30c16 -7 29 -11 38 -11c10 0 20 3 38 14zM588 883l-218 -150h-9l-134 150h41l120 -62l150 62h50z" />
    <glyph glyph-name="Uacute" unicode="&#xda;" horiz-adv-x="663" 
d="M553 633l9 37c42 -2 65 -3 100 -3s58 1 101 3l-9 -37c-40 -3 -69 -18 -81 -43c-14 -25 -19 -43 -59 -193l-35 -139c-25 -100 -44 -142 -84 -186c-50 -54 -121 -83 -207 -83c-122 0 -194 59 -194 159c0 25 5 60 15 100l79 315c4 15 6 30 6 38c0 24 -16 31 -71 32l10 37
c62 -5 96 -7 143 -7c46 0 81 2 149 7l-10 -37c-70 -1 -82 -10 -97 -70l-81 -326c-9 -35 -16 -78 -16 -98c0 -58 42 -91 115 -91c79 0 139 40 172 115c10 23 23 66 36 118l71 282c5 23 6 28 6 38c0 24 -15 31 -68 32zM397 738l97 126h192l-245 -126h-44z" />
    <glyph glyph-name="Ucircumflex" unicode="&#xdb;" horiz-adv-x="663" 
d="M553 633l9 37c42 -2 65 -3 100 -3s58 1 101 3l-9 -37c-40 -3 -69 -18 -81 -43c-14 -25 -19 -43 -59 -193l-35 -139c-25 -100 -44 -142 -84 -186c-50 -54 -121 -83 -207 -83c-122 0 -194 59 -194 159c0 25 5 60 15 100l79 315c4 15 6 30 6 38c0 24 -16 31 -71 32l10 37
c62 -5 96 -7 143 -7c46 0 81 2 149 7l-10 -37c-70 -1 -82 -10 -97 -70l-81 -326c-9 -35 -16 -78 -16 -98c0 -58 42 -91 115 -91c79 0 139 40 172 115c10 23 23 66 36 118l71 282c5 23 6 28 6 38c0 24 -15 31 -68 32zM288 733l217 150h9l134 -150h-41l-119 62l-150 -62h-50z
" />
    <glyph glyph-name="Udieresis" unicode="&#xdc;" horiz-adv-x="663" 
d="M553 633l9 37c42 -2 65 -3 100 -3s58 1 101 3l-9 -37c-40 -3 -69 -18 -81 -43c-14 -25 -19 -43 -59 -193l-35 -139c-25 -100 -44 -142 -84 -186c-50 -54 -121 -83 -207 -83c-122 0 -194 59 -194 159c0 25 5 60 15 100l79 315c4 15 6 30 6 38c0 24 -16 31 -71 32l10 37
c62 -5 96 -7 143 -7c46 0 81 2 149 7l-10 -37c-70 -1 -82 -10 -97 -70l-81 -326c-9 -35 -16 -78 -16 -98c0 -58 42 -91 115 -91c79 0 139 40 172 115c10 23 23 66 36 118l71 282c5 23 6 28 6 38c0 24 -15 31 -68 32zM400 881c35 0 60 -25 60 -60c0 -48 -40 -89 -87 -89
c-36 0 -63 25 -63 58c0 47 43 91 90 91zM602 881c34 0 60 -26 60 -60c0 -48 -41 -89 -87 -89c-36 0 -63 25 -63 58c0 48 42 91 90 91z" />
    <glyph glyph-name="Ugrave" unicode="&#xd9;" horiz-adv-x="663" 
d="M553 633l9 37c42 -2 65 -3 100 -3s58 1 101 3l-9 -37c-40 -3 -69 -18 -81 -43c-14 -25 -19 -43 -59 -193l-35 -139c-25 -100 -44 -142 -84 -186c-50 -54 -121 -83 -207 -83c-122 0 -194 59 -194 159c0 25 5 60 15 100l79 315c4 15 6 30 6 38c0 24 -16 31 -71 32l10 37
c62 -5 96 -7 143 -7c46 0 81 2 149 7l-10 -37c-70 -1 -82 -10 -97 -70l-81 -326c-9 -35 -16 -78 -16 -98c0 -58 42 -91 115 -91c79 0 139 40 172 115c10 23 23 66 36 118l71 282c5 23 6 28 6 38c0 24 -15 31 -68 32zM534 738h-37l-189 126h192z" />
    <glyph glyph-name="Yacute" unicode="&#xdd;" horiz-adv-x="528" 
d="M224 287l-51 229c-17 90 -35 114 -88 117l7 37c55 -5 86 -7 141 -7s88 2 146 7l-9 -37c-55 -2 -75 -12 -75 -36c0 -2 0 -3 5 -34l44 -233l143 208c31 45 37 57 37 74c0 14 -15 23 -38 23c-1 0 -4 0 -7 -1h-9l-4 33c60 4 111 16 145 33c3 -12 4 -19 4 -27
c0 -22 -8 -39 -35 -74c-17 -22 -38 -51 -63 -87l-163 -225l-46 -183c-4 -19 -6 -29 -6 -39c0 -23 14 -30 66 -31l-10 -37c-63 5 -97 7 -144 7c-48 0 -82 -2 -147 -7l9 37c75 2 87 10 102 70zM322 738l98 126h191l-244 -126h-45z" />
    <glyph glyph-name="Ydieresis" unicode="&#x178;" horiz-adv-x="528" 
d="M224 287l-51 229c-17 90 -35 114 -88 117l7 37c55 -5 86 -7 141 -7s88 2 146 7l-9 -37c-55 -2 -75 -12 -75 -36c0 -2 0 -3 5 -34l44 -233l143 208c31 45 37 57 37 74c0 14 -15 23 -38 23c-1 0 -4 0 -7 -1h-9l-4 33c60 4 111 16 145 33c3 -12 4 -19 4 -27
c0 -22 -8 -39 -35 -74c-17 -22 -38 -51 -63 -87l-163 -225l-46 -183c-4 -19 -6 -29 -6 -39c0 -23 14 -30 66 -31l-10 -37c-63 5 -97 7 -144 7c-48 0 -82 -2 -147 -7l9 37c75 2 87 10 102 70zM309 881c34 0 60 -26 60 -60c0 -47 -41 -89 -87 -89c-36 0 -63 24 -63 58
c0 48 42 91 90 91zM510 881c35 0 60 -25 60 -60c0 -48 -40 -89 -87 -89c-35 0 -63 25 -63 58c0 47 43 91 90 91z" />
    <glyph glyph-name="Zcaron" unicode="&#x17d;" horiz-adv-x="526" 
d="M-43 0l481 629h-97c-90 0 -137 -32 -202 -136h-35l74 174h435l-481 -629h152c64 0 95 13 140 58c27 28 47 56 73 101h20l-68 -197h-492zM616 883l-217 -150h-9l-134 150h41l119 -62l150 62h50z" />
    <glyph glyph-name="aacute" unicode="&#xe1;" horiz-adv-x="554" 
d="M526 483l-84 -295c-25 -89 -25 -90 -25 -110c0 -21 9 -32 25 -32c22 0 36 14 60 60l27 -12c-35 -72 -77 -105 -133 -105c-53 0 -83 29 -92 88c-37 -63 -76 -88 -132 -88c-91 0 -153 66 -153 163c0 75 40 177 94 240c51 60 113 91 178 91c59 0 87 -25 89 -80l20 70
c55 0 69 2 126 10zM304 455c-45 0 -79 -44 -120 -152c-27 -72 -48 -163 -48 -210s20 -76 52 -76c42 0 77 38 110 119c31 76 60 195 60 244c0 48 -19 75 -54 75zM289 545l94 140h185l-235 -140h-44z" />
    <glyph glyph-name="acircumflex" unicode="&#xe2;" horiz-adv-x="554" 
d="M526 483l-84 -295c-25 -89 -25 -90 -25 -110c0 -21 9 -32 25 -32c22 0 36 14 60 60l27 -12c-35 -72 -77 -105 -133 -105c-53 0 -83 29 -92 88c-37 -63 -76 -88 -132 -88c-91 0 -153 66 -153 163c0 75 40 177 94 240c51 60 113 91 178 91c59 0 87 -25 89 -80l20 70
c55 0 69 2 126 10zM304 455c-45 0 -79 -44 -120 -152c-27 -72 -48 -163 -48 -210s20 -76 52 -76c42 0 77 38 110 119c31 76 60 195 60 244c0 48 -19 75 -54 75zM189 536l204 163h9l114 -163h-38l-103 72l-139 -72h-47z" />
    <glyph glyph-name="adieresis" unicode="&#xe4;" horiz-adv-x="554" 
d="M526 483l-84 -295c-25 -89 -25 -90 -25 -110c0 -21 9 -32 25 -32c22 0 36 14 60 60l27 -12c-35 -72 -77 -105 -133 -105c-53 0 -83 29 -92 88c-37 -63 -76 -88 -132 -88c-91 0 -153 66 -153 163c0 75 40 177 94 240c51 60 113 91 178 91c59 0 87 -25 89 -80l20 70
c55 0 69 2 126 10zM304 455c-45 0 -79 -44 -120 -152c-27 -72 -48 -163 -48 -210s20 -76 52 -76c42 0 77 38 110 119c31 76 60 195 60 244c0 48 -19 75 -54 75zM292 687c32 0 58 -25 58 -57c0 -46 -39 -85 -83 -85c-35 0 -60 23 -60 55c0 45 41 87 85 87zM484 687
c32 0 58 -25 58 -57c0 -46 -39 -85 -83 -85c-35 0 -60 23 -60 55c0 45 41 87 85 87z" />
    <glyph glyph-name="agrave" unicode="&#xe0;" horiz-adv-x="554" 
d="M526 483l-84 -295c-25 -89 -25 -90 -25 -110c0 -21 9 -32 25 -32c22 0 36 14 60 60l27 -12c-35 -72 -77 -105 -133 -105c-53 0 -83 29 -92 88c-37 -63 -76 -88 -132 -88c-91 0 -153 66 -153 163c0 75 40 177 94 240c51 60 113 91 178 91c59 0 87 -25 89 -80l20 70
c55 0 69 2 126 10zM304 455c-45 0 -79 -44 -120 -152c-27 -72 -48 -163 -48 -210s20 -76 52 -76c42 0 77 38 110 119c31 76 60 195 60 244c0 48 -19 75 -54 75zM416 545h-38l-171 140h185z" />
    <glyph glyph-name="aring" unicode="&#xe5;" horiz-adv-x="554" 
d="M526 483l-84 -295c-25 -89 -25 -90 -25 -110c0 -21 9 -32 25 -32c22 0 36 14 60 60l27 -12c-35 -72 -77 -105 -133 -105c-53 0 -83 29 -92 88c-37 -63 -76 -88 -132 -88c-91 0 -153 66 -153 163c0 75 40 177 94 240c51 60 113 91 178 91c59 0 87 -25 89 -80l20 70
c55 0 69 2 126 10zM304 455c-45 0 -79 -44 -120 -152c-27 -72 -48 -163 -48 -210s20 -76 52 -76c42 0 77 38 110 119c31 76 60 195 60 244c0 48 -19 75 -54 75zM375 716c48 0 88 -41 88 -89c0 -49 -41 -90 -90 -90s-89 40 -89 89c0 51 40 90 91 90zM374 673
c-26 0 -47 -21 -47 -46s22 -47 46 -47c25 0 47 22 47 47c0 24 -22 46 -46 46z" />
    <glyph glyph-name="atilde" unicode="&#xe3;" horiz-adv-x="554" 
d="M526 483l-84 -295c-25 -89 -25 -90 -25 -110c0 -21 9 -32 25 -32c22 0 36 14 60 60l27 -12c-35 -72 -77 -105 -133 -105c-53 0 -83 29 -92 88c-37 -63 -76 -88 -132 -88c-91 0 -153 66 -153 163c0 75 40 177 94 240c51 60 113 91 178 91c59 0 87 -25 89 -80l20 70
c55 0 69 2 126 10zM304 455c-45 0 -79 -44 -120 -152c-27 -72 -48 -163 -48 -210s20 -76 52 -76c42 0 77 38 110 119c31 76 60 195 60 244c0 48 -19 75 -54 75zM226 555l-30 10c52 82 83 108 130 108c22 0 41 -6 68 -23c35 -21 43 -24 59 -24c27 0 42 10 76 50l30 -9
c-45 -81 -87 -116 -138 -116c-18 0 -36 6 -61 22c-39 22 -49 27 -64 27c-24 0 -46 -14 -70 -45z" />
    <glyph glyph-name="ccedilla" unicode="&#xe7;" horiz-adv-x="444" 
d="M209 -13l-33 -39c50 -1 72 -17 72 -54c0 -51 -50 -91 -114 -91c-26 0 -42 4 -77 17l9 31c25 -7 35 -9 52 -9c20 0 35 6 44 19c5 6 10 22 10 27c-2 22 -22 34 -55 34h-9l57 68c-90 13 -141 74 -141 168c0 176 128 327 278 327c32 0 56 -5 90 -20c14 -6 28 -10 35 -10
c10 0 18 3 32 13l-37 -171h-29c4 20 5 29 5 46c0 68 -29 109 -77 109c-49 0 -91 -40 -130 -124c-29 -61 -47 -134 -47 -188c0 -69 34 -111 89 -111c59 0 110 48 135 129h44c-39 -110 -107 -168 -203 -171z" />
    <glyph glyph-name="eacute" unicode="&#xe9;" horiz-adv-x="450" 
d="M373 149h43c-44 -103 -124 -160 -225 -160c-104 0 -169 63 -169 164c0 82 36 178 90 240c52 58 121 90 194 90c86 0 139 -43 139 -112c0 -61 -44 -112 -130 -151c-52 -23 -99 -33 -169 -37c-5 -23 -7 -37 -7 -57c0 -60 35 -97 92 -97s111 45 142 120zM154 219h10
c97 0 178 79 178 174c0 38 -17 62 -43 62c-55 0 -113 -96 -145 -236zM245 545l95 140h184l-234 -140h-45z" />
    <glyph glyph-name="ecircumflex" unicode="&#xea;" horiz-adv-x="450" 
d="M373 149h43c-44 -103 -124 -160 -225 -160c-104 0 -169 63 -169 164c0 82 36 178 90 240c52 58 121 90 194 90c86 0 139 -43 139 -112c0 -61 -44 -112 -130 -151c-52 -23 -99 -33 -169 -37c-5 -23 -7 -37 -7 -57c0 -60 35 -97 92 -97s111 45 142 120zM154 219h10
c97 0 178 79 178 174c0 38 -17 62 -43 62c-55 0 -113 -96 -145 -236zM139 536l204 163h10l113 -163h-37l-104 72l-139 -72h-47z" />
    <glyph glyph-name="edieresis" unicode="&#xeb;" horiz-adv-x="450" 
d="M373 149h43c-44 -103 -124 -160 -225 -160c-104 0 -169 63 -169 164c0 82 36 178 90 240c52 58 121 90 194 90c86 0 139 -43 139 -112c0 -61 -44 -112 -130 -151c-52 -23 -99 -33 -169 -37c-5 -23 -7 -37 -7 -57c0 -60 35 -97 92 -97s111 45 142 120zM154 219h10
c97 0 178 79 178 174c0 38 -17 62 -43 62c-55 0 -113 -96 -145 -236zM243 687c32 0 57 -25 57 -57c0 -46 -38 -85 -83 -85c-35 0 -60 23 -60 55c0 45 41 87 86 87zM435 687c32 0 57 -25 57 -57c0 -46 -38 -85 -83 -85c-35 0 -60 23 -60 55c0 45 41 87 86 87z" />
    <glyph glyph-name="egrave" unicode="&#xe8;" horiz-adv-x="450" 
d="M373 149h43c-44 -103 -124 -160 -225 -160c-104 0 -169 63 -169 164c0 82 36 178 90 240c52 58 121 90 194 90c86 0 139 -43 139 -112c0 -61 -44 -112 -130 -151c-52 -23 -99 -33 -169 -37c-5 -23 -7 -37 -7 -57c0 -60 35 -97 92 -97s111 45 142 120zM154 219h10
c97 0 178 79 178 174c0 38 -17 62 -43 62c-55 0 -113 -96 -145 -236zM370 545h-38l-172 140h185z" />
    <glyph glyph-name="iacute" unicode="&#xed;" horiz-adv-x="310" 
d="M283 491l-90 -326c-21 -72 -22 -76 -22 -94c0 -17 8 -27 22 -27c22 0 32 12 55 66l27 -7c-18 -75 -61 -114 -125 -114c-59 0 -99 37 -99 92c0 18 7 52 19 96l50 182c9 32 9 35 10 50c1 16 -12 21 -59 21l7 26c63 5 142 19 205 35zM164 545l88 140h171l-214 -140h-45z" />
    <glyph glyph-name="icircumflex" unicode="&#xee;" horiz-adv-x="310" 
d="M283 491l-90 -326c-21 -72 -22 -76 -22 -94c0 -17 8 -27 22 -27c22 0 32 12 55 66l27 -7c-18 -75 -61 -114 -125 -114c-59 0 -99 37 -99 92c0 18 7 52 19 96l50 182c9 32 9 35 10 50c1 16 -12 21 -59 21l7 26c63 5 142 19 205 35zM71 536l191 163h9l101 -163h-38l-90 72
l-126 -72h-47z" />
    <glyph glyph-name="idieresis" unicode="&#xef;" horiz-adv-x="310" 
d="M283 491l-90 -326c-21 -72 -22 -76 -22 -94c0 -17 8 -27 22 -27c22 0 32 12 55 66l27 -7c-18 -75 -61 -114 -125 -114c-59 0 -99 37 -99 92c0 18 7 52 19 96l50 182c9 32 9 35 10 50c1 16 -12 21 -59 21l7 26c63 5 142 19 205 35zM173 689c32 0 56 -23 56 -55
c0 -44 -37 -82 -81 -82c-34 0 -58 22 -58 53c0 45 39 84 83 84zM349 689c33 0 56 -23 56 -55c0 -44 -37 -82 -81 -82c-33 0 -58 23 -58 53c0 44 39 84 83 84z" />
    <glyph glyph-name="igrave" unicode="&#xec;" horiz-adv-x="310" 
d="M283 491l-90 -326c-21 -72 -22 -76 -22 -94c0 -17 8 -27 22 -27c22 0 32 12 55 66l27 -7c-18 -75 -61 -114 -125 -114c-59 0 -99 37 -99 92c0 18 7 52 19 96l50 182c9 32 9 35 10 50c1 16 -12 21 -59 21l7 26c63 5 142 19 205 35zM288 545h-37l-165 140h164z" />
    <glyph glyph-name="ntilde" unicode="&#xf1;" horiz-adv-x="581" 
d="M63 429l6 26c64 6 123 16 168 29c2 -10 3 -26 3 -41c0 -14 0 -20 -5 -43c45 56 98 83 162 83c71 0 115 -37 115 -97c0 -24 -4 -51 -12 -83l-34 -138c-19 -74 -19 -76 -19 -92c0 -19 8 -29 22 -29c22 0 32 12 53 66l27 -7c-16 -75 -58 -114 -122 -114
c-59 0 -101 39 -101 93c0 20 4 44 17 95l36 141c7 29 9 44 9 62c0 30 -20 50 -51 50c-50 0 -87 -41 -106 -114l-79 -316h-125l89 357c7 39 8 43 8 49c0 17 -13 22 -61 23zM204 555l-29 10c52 82 83 108 130 108c22 0 41 -6 68 -23c35 -21 43 -24 59 -24c27 0 42 10 76 50
l30 -9c-46 -81 -87 -116 -138 -116c-18 0 -36 6 -61 22c-39 22 -49 27 -64 27c-24 0 -46 -14 -71 -45z" />
    <glyph glyph-name="oacute" unicode="&#xf3;" horiz-adv-x="503" 
d="M306 483c108 0 175 -69 175 -181c0 -175 -123 -313 -278 -313c-109 0 -176 68 -176 181c0 176 122 313 279 313zM301 455c-43 0 -73 -30 -104 -104c-31 -75 -53 -175 -53 -246c0 -58 21 -88 62 -88c46 0 77 34 110 117c29 75 48 166 48 230c0 62 -20 91 -63 91zM273 545
l94 140h185l-234 -140h-45z" />
    <glyph glyph-name="ocircumflex" unicode="&#xf4;" horiz-adv-x="503" 
d="M306 483c108 0 175 -69 175 -181c0 -175 -123 -313 -278 -313c-109 0 -176 68 -176 181c0 176 122 313 279 313zM301 455c-43 0 -73 -30 -104 -104c-31 -75 -53 -175 -53 -246c0 -58 21 -88 62 -88c46 0 77 34 110 117c29 75 48 166 48 230c0 62 -20 91 -63 91zM157 536
l204 163h9l114 -163h-38l-103 72l-139 -72h-47z" />
    <glyph glyph-name="odieresis" unicode="&#xf6;" horiz-adv-x="503" 
d="M306 483c108 0 175 -69 175 -181c0 -175 -123 -313 -278 -313c-109 0 -176 68 -176 181c0 176 122 313 279 313zM301 455c-43 0 -73 -30 -104 -104c-31 -75 -53 -175 -53 -246c0 -58 21 -88 62 -88c46 0 77 34 110 117c29 75 48 166 48 230c0 62 -20 91 -63 91zM264 687
c32 0 57 -25 57 -57c0 -46 -38 -85 -83 -85c-35 0 -60 23 -60 55c0 45 41 87 86 87zM456 687c32 0 57 -25 57 -57c0 -46 -38 -85 -83 -85c-35 0 -60 23 -60 55c0 45 41 87 86 87z" />
    <glyph glyph-name="ograve" unicode="&#xf2;" horiz-adv-x="503" 
d="M306 483c108 0 175 -69 175 -181c0 -175 -123 -313 -278 -313c-109 0 -176 68 -176 181c0 176 122 313 279 313zM301 455c-43 0 -73 -30 -104 -104c-31 -75 -53 -175 -53 -246c0 -58 21 -88 62 -88c46 0 77 34 110 117c29 75 48 166 48 230c0 62 -20 91 -63 91zM381 545
h-38l-172 140h185z" />
    <glyph glyph-name="otilde" unicode="&#xf5;" horiz-adv-x="503" 
d="M306 483c108 0 175 -69 175 -181c0 -175 -123 -313 -278 -313c-109 0 -176 68 -176 181c0 176 122 313 279 313zM301 455c-43 0 -73 -30 -104 -104c-31 -75 -53 -175 -53 -246c0 -58 21 -88 62 -88c46 0 77 34 110 117c29 75 48 166 48 230c0 62 -20 91 -63 91zM200 555
l-30 10c52 82 84 108 131 108c21 0 40 -6 68 -23c34 -21 43 -24 59 -24c26 0 41 10 76 50l30 -9c-46 -81 -88 -116 -138 -116c-18 0 -36 6 -62 22c-38 22 -49 27 -64 27c-23 0 -45 -14 -70 -45z" />
    <glyph glyph-name="scaron" unicode="&#x161;" horiz-adv-x="448" 
d="M429 472l-29 -135h-30c1 8 1 15 1 20c0 57 -34 92 -90 92c-49 0 -88 -30 -88 -67c0 -24 13 -40 48 -60c50 -31 84 -53 107 -70c31 -25 48 -59 48 -93c0 -99 -89 -171 -211 -171c-70 0 -113 18 -168 69l24 112h28v-10c-1 -9 -1 -20 -1 -22c0 -68 44 -114 108 -114
c58 0 103 42 103 97c0 33 -13 50 -58 77c-111 66 -137 94 -137 148c0 80 76 139 179 139c35 0 55 -4 93 -18c14 -5 26 -8 34 -8c9 0 19 3 39 14zM487 699l-204 -163h-9l-114 163h38l103 -72l139 72h47z" />
    <glyph glyph-name="uacute" unicode="&#xfa;" horiz-adv-x="584" 
d="M66 430l6 26c63 5 142 19 203 35l-86 -344c-5 -22 -9 -43 -9 -53c0 -31 20 -52 50 -52c35 0 70 28 93 73c9 19 23 61 33 102l64 256c55 1 71 2 128 10l-73 -292c-21 -84 -22 -90 -22 -109c0 -20 11 -34 27 -34c20 0 37 17 57 60l28 -12c-32 -72 -73 -105 -132 -105
c-55 0 -86 27 -96 82c-52 -58 -98 -82 -159 -82c-74 0 -121 41 -121 106c0 16 3 33 9 59l51 203c4 18 9 43 9 48c0 19 -12 23 -60 23zM301 545l94 140h185l-234 -140h-45z" />
    <glyph glyph-name="ucircumflex" unicode="&#xfb;" horiz-adv-x="584" 
d="M66 430l6 26c63 5 142 19 203 35l-86 -344c-5 -22 -9 -43 -9 -53c0 -31 20 -52 50 -52c35 0 70 28 93 73c9 19 23 61 33 102l64 256c55 1 71 2 128 10l-73 -292c-21 -84 -22 -90 -22 -109c0 -20 11 -34 27 -34c20 0 37 17 57 60l28 -12c-32 -72 -73 -105 -132 -105
c-55 0 -86 27 -96 82c-52 -58 -98 -82 -159 -82c-74 0 -121 41 -121 106c0 16 3 33 9 59l51 203c4 18 9 43 9 48c0 19 -12 23 -60 23zM188 536l204 163h10l113 -163h-38l-103 72l-139 -72h-47z" />
    <glyph glyph-name="udieresis" unicode="&#xfc;" horiz-adv-x="584" 
d="M66 430l6 26c63 5 142 19 203 35l-86 -344c-5 -22 -9 -43 -9 -53c0 -31 20 -52 50 -52c35 0 70 28 93 73c9 19 23 61 33 102l64 256c55 1 71 2 128 10l-73 -292c-21 -84 -22 -90 -22 -109c0 -20 11 -34 27 -34c20 0 37 17 57 60l28 -12c-32 -72 -73 -105 -132 -105
c-55 0 -86 27 -96 82c-52 -58 -98 -82 -159 -82c-74 0 -121 41 -121 106c0 16 3 33 9 59l51 203c4 18 9 43 9 48c0 19 -12 23 -60 23zM293 687c32 0 58 -25 58 -57c0 -46 -39 -85 -84 -85c-34 0 -59 23 -59 55c0 45 41 87 85 87zM485 687c32 0 58 -25 58 -57
c0 -46 -39 -85 -84 -85c-34 0 -59 23 -59 55c0 45 41 87 85 87z" />
    <glyph glyph-name="ugrave" unicode="&#xf9;" horiz-adv-x="584" 
d="M66 430l6 26c63 5 142 19 203 35l-86 -344c-5 -22 -9 -43 -9 -53c0 -31 20 -52 50 -52c35 0 70 28 93 73c9 19 23 61 33 102l64 256c55 1 71 2 128 10l-73 -292c-21 -84 -22 -90 -22 -109c0 -20 11 -34 27 -34c20 0 37 17 57 60l28 -12c-32 -72 -73 -105 -132 -105
c-55 0 -86 27 -96 82c-52 -58 -98 -82 -159 -82c-74 0 -121 41 -121 106c0 16 3 33 9 59l51 203c4 18 9 43 9 48c0 19 -12 23 -60 23zM415 545h-38l-171 140h185z" />
    <glyph glyph-name="yacute" unicode="&#xfd;" horiz-adv-x="451" 
d="M157 16l-69 364c-11 53 -20 63 -63 67l7 28c57 -4 87 -5 125 -5c37 0 68 1 127 5l-7 -28c-50 -4 -60 -9 -60 -30c0 -4 0 -4 3 -22l36 -235l139 211c29 41 32 47 32 60c0 16 -17 23 -46 19l-4 27c61 8 82 14 118 33c4 -17 5 -23 5 -31c0 -25 0 -25 -77 -137l-269 -392
c-82 -119 -125 -150 -214 -150h-22v70c20 -9 39 -13 57 -13c50 0 99 39 162 130zM223 545l94 140h185l-234 -140h-45z" />
    <glyph glyph-name="ydieresis" unicode="&#xff;" horiz-adv-x="451" 
d="M157 16l-69 364c-11 53 -20 63 -63 67l7 28c57 -4 87 -5 125 -5c37 0 68 1 127 5l-7 -28c-50 -4 -60 -9 -60 -30c0 -4 0 -4 3 -22l36 -235l139 211c29 41 32 47 32 60c0 16 -17 23 -46 19l-4 27c61 8 82 14 118 33c4 -17 5 -23 5 -31c0 -25 0 -25 -77 -137l-269 -392
c-82 -119 -125 -150 -214 -150h-22v70c20 -9 39 -13 57 -13c50 0 99 39 162 130zM220 687c33 0 58 -25 58 -57c0 -46 -38 -85 -83 -85c-35 0 -60 23 -60 55c0 45 41 87 85 87zM412 687c33 0 58 -25 58 -57c0 -46 -38 -85 -83 -85c-35 0 -60 23 -60 55c0 45 41 87 85 87z" />
    <glyph glyph-name="zcaron" unicode="&#x17e;" horiz-adv-x="427" 
d="M439 473h43l-401 -394c43 29 79 42 119 42c24 0 31 -1 75 -14c8 -3 17 -4 25 -4c37 0 64 22 78 65h29c-13 -104 -87 -173 -184 -173c-31 0 -49 4 -124 26c-17 5 -30 8 -41 8c-18 0 -37 -10 -59 -29h-43l406 399c-52 -32 -81 -42 -115 -42c-16 0 -30 3 -55 11
c-26 8 -34 10 -46 10c-30 0 -47 -19 -52 -57h-32c6 93 63 159 136 159c22 0 37 -3 82 -18c40 -13 63 -18 84 -18c28 0 47 7 75 29zM506 699l-203 -163h-10l-114 163h38l104 -72l139 72h46z" />
    <glyph glyph-name="parenleftsuperior" unicode="&#x207d;" horiz-adv-x="224" 
d="M283 667h32c-62 -52 -97 -101 -130 -179c-27 -63 -42 -131 -42 -187c0 -55 13 -106 39 -150h-26c-44 45 -70 115 -70 186c0 127 78 257 197 330z" />
    <glyph glyph-name="parenrightsuperior" unicode="&#x207e;" horiz-adv-x="224" 
d="M32 151h-32c61 52 96 101 129 179c27 62 43 133 43 187c0 53 -14 106 -40 150h26c44 -45 71 -117 71 -186c0 -126 -78 -256 -197 -330z" />
    <glyph glyph-name="zerooldstyle" unicode="&#xf730;" horiz-adv-x="538" 
d="M325 483c107 0 174 -71 174 -185c0 -167 -128 -309 -279 -309c-109 0 -177 71 -177 184c0 90 43 185 109 245c49 43 107 65 173 65zM314 444c-45 0 -80 -33 -111 -105c-27 -61 -48 -157 -48 -216c0 -58 28 -95 72 -95c46 0 84 36 115 112c25 60 45 153 45 209
c0 59 -28 95 -73 95z" />
    <glyph glyph-name="oneoldstyle" unicode="&#xf731;" horiz-adv-x="361" 
d="M280 34l-10 -37c-68 4 -103 6 -145 6c-43 0 -78 -1 -149 -6l9 37c79 2 87 8 104 78l69 275c3 11 4 19 4 26c0 19 -14 24 -62 26l9 37c60 -5 92 -6 132 -6s73 1 136 6l-10 -37c-61 -2 -69 -6 -80 -52l-72 -288c-3 -14 -5 -24 -5 -32c0 -22 17 -31 70 -33z" />
    <glyph glyph-name="twooldstyle" unicode="&#xf732;" horiz-adv-x="490" 
d="M410 101l-40 -101h-357l30 85c44 27 139 96 200 146c61 48 87 84 87 118c0 37 -27 59 -72 59c-50 0 -90 -26 -119 -78h-45c44 102 117 153 218 153c90 0 151 -50 151 -123c0 -53 -34 -95 -115 -144l-82 -48c-60 -34 -98 -57 -116 -67h260z" />
    <glyph glyph-name="threeoldstyle" unicode="&#xf733;" horiz-adv-x="402" 
d="M81 186l8 37c43 1 73 7 99 21c37 19 61 56 61 97c0 43 -28 72 -70 72c-43 0 -74 -24 -102 -78h-42c29 96 98 148 195 148c84 0 139 -46 139 -114c0 -72 -57 -129 -154 -155c73 -11 106 -41 106 -94c0 -73 -58 -145 -179 -220c-63 -40 -125 -69 -200 -95h-49
c190 108 298 223 298 317c0 41 -34 64 -93 64h-5h-12z" />
    <glyph glyph-name="fouroldstyle" unicode="&#xf734;" horiz-adv-x="507" 
d="M180 -195l48 195h-307l2 10l400 462h133l-94 -378h113l-24 -94h-104l-49 -195h-118zM252 94l86 345l-289 -345h203z" />
    <glyph glyph-name="fiveoldstyle" unicode="&#xf735;" horiz-adv-x="416" 
d="M435 472l-41 -99h-240l-40 -92h19c125 0 200 -52 200 -140c0 -76 -50 -150 -161 -236c-52 -40 -99 -68 -165 -100h-56c160 102 250 212 250 304c0 47 -38 77 -105 85c-15 2 -23 3 -59 3l116 275h282z" />
    <glyph glyph-name="sixoldstyle" unicode="&#xf736;" horiz-adv-x="540" 
d="M456 667h61c-91 -64 -170 -141 -241 -238c31 15 50 20 81 20c88 0 142 -61 142 -159c0 -167 -121 -301 -272 -301c-111 0 -184 72 -184 181s60 219 177 326c69 63 178 142 236 171zM317 403c-40 0 -70 -25 -100 -84c-32 -60 -57 -158 -57 -218c0 -48 25 -79 63 -79
c41 0 73 29 104 97c30 63 49 144 49 202c0 54 -20 82 -59 82z" />
    <glyph glyph-name="sevenoldstyle" unicode="&#xf737;" horiz-adv-x="447" 
d="M-62 -178l421 546l-322 -7l28 111h432l-456 -650h-103z" />
    <glyph glyph-name="eightoldstyle" unicode="&#xf738;" horiz-adv-x="516" 
d="M368 342c64 -21 92 -58 92 -123c0 -129 -113 -230 -258 -230c-105 0 -175 58 -175 144c0 68 36 134 95 173c24 16 46 26 80 36c-55 24 -77 55 -77 109c0 59 32 121 84 161c43 33 93 49 155 49c97 0 151 -46 151 -128c0 -86 -55 -158 -147 -191zM282 322
c-39 0 -70 -24 -97 -74c-22 -42 -38 -107 -38 -152c0 -47 23 -75 61 -75c40 0 71 28 96 86c19 43 33 105 33 143c0 47 -19 72 -55 72zM356 629c-35 0 -61 -22 -84 -71c-20 -44 -34 -103 -34 -142c0 -38 19 -61 50 -61c34 0 60 25 83 78c17 41 27 88 27 133s-12 63 -42 63z
" />
    <glyph glyph-name="nineoldstyle" unicode="&#xf739;" horiz-adv-x="540" 
d="M89 -194h-62c92 64 169 140 241 238c-29 -15 -53 -21 -81 -21c-87 0 -141 61 -141 159c0 168 120 301 272 301c111 0 183 -71 183 -181c0 -108 -57 -215 -171 -320c-69 -64 -182 -146 -241 -176zM322 450c-42 0 -74 -29 -105 -97c-30 -64 -48 -141 -48 -202
c0 -54 20 -82 59 -82s69 26 100 84c32 62 56 156 56 218c0 48 -24 79 -62 79z" />
    <glyph glyph-name="commasuperior" unicode="&#xf6e2;" horiz-adv-x="177" 
d="M126 149h-43c36 34 64 78 74 120c-3 -1 -5 -1 -6 -1c-20 0 -36 17 -36 37c0 29 25 53 56 53c29 0 47 -19 47 -48c0 -46 -41 -117 -92 -161z" />
    <glyph glyph-name="periodsuperior" unicode="&#xf6e8;" horiz-adv-x="177" 
d="M175 358c24 0 41 -17 41 -40c0 -31 -27 -58 -59 -58c-24 0 -43 17 -43 39c0 31 29 59 61 59z" />
    <glyph glyph-name="figuredash" unicode="&#x2012;" horiz-adv-x="547" 
d="M67 194l25 100h397l-25 -100h-397z" />
    <glyph glyph-name="oneeighth" unicode="&#x215b;" horiz-adv-x="800" 
d="M337 666l-85 -343c-3 -8 -4 -17 -4 -20c0 -14 11 -18 52 -20l-6 -26c-46 4 -70 5 -101 5s-55 -1 -103 -5l6 26c55 2 63 7 75 52l61 245l-64 -4l6 25c56 4 110 29 138 65h25zM152 0l494 650h51l-494 -650h-51zM678 205c35 -11 54 -37 54 -74c0 -77 -70 -137 -160 -137
c-69 0 -113 35 -113 89c0 56 40 104 104 122c-30 13 -45 34 -45 65c0 69 66 127 145 127c63 0 101 -30 101 -80s-33 -93 -86 -112zM616 191c-22 0 -40 -14 -55 -42c-13 -24 -23 -63 -23 -88c0 -28 13 -44 35 -44c24 0 42 16 58 49c11 25 20 60 20 82c0 26 -14 43 -35 43z
M659 374c-33 0 -66 -61 -66 -123c0 -22 10 -36 28 -36c34 0 66 59 66 121c0 25 -10 38 -28 38z" />
    <glyph glyph-name="threeeighths" unicode="&#x215c;" horiz-adv-x="800" 
d="M78 373h31c13 -44 41 -66 84 -66c46 0 81 36 81 83c0 42 -26 58 -94 58l7 29c40 0 57 3 74 13c24 14 38 39 38 65c0 29 -21 49 -52 49c-33 0 -56 -18 -78 -62h-31c27 79 69 115 136 115c61 0 105 -38 105 -92c0 -48 -35 -82 -98 -97c50 -14 74 -41 74 -85
c0 -73 -65 -130 -148 -130c-77 0 -124 43 -129 120zM152 0l494 650h52l-495 -650h-51zM679 205c34 -11 53 -37 53 -74c0 -78 -69 -137 -160 -137c-69 0 -112 34 -112 89c0 57 39 104 103 122c-30 13 -45 35 -45 65c0 69 67 127 145 127c63 0 101 -30 101 -80
s-33 -93 -85 -112zM616 191c-40 0 -77 -62 -77 -130c0 -30 11 -44 35 -44c23 0 41 16 57 49c12 25 20 58 20 82c0 27 -13 43 -35 43zM660 374c-33 0 -67 -62 -67 -123c0 -22 11 -36 28 -36c34 0 66 59 66 121c0 25 -9 38 -27 38z" />
    <glyph glyph-name="fiveeighths" unicode="&#x215d;" horiz-adv-x="800" 
d="M370 585h-172l-41 -95c33 26 59 35 97 35c67 0 106 -40 106 -110c0 -93 -66 -161 -157 -161c-76 0 -121 43 -124 118h31c11 -41 40 -64 79 -64c49 0 84 42 84 101c0 42 -23 69 -59 69c-31 0 -55 -13 -80 -42l-29 4l87 210h207zM152 0l494 650h51l-494 -650h-51zM678 205
c35 -11 54 -37 54 -74c0 -77 -70 -137 -160 -137c-70 0 -112 34 -112 89c0 58 39 104 103 122c-30 13 -45 34 -45 65c0 69 67 127 145 127c63 0 101 -30 101 -80s-33 -93 -86 -112zM616 191c-41 0 -77 -62 -77 -130c0 -30 11 -44 34 -44c24 0 42 16 58 49c12 25 20 59 20 82
c0 27 -14 43 -35 43zM659 374c-33 0 -66 -61 -66 -123c0 -22 11 -36 28 -36c34 0 66 59 66 121c0 25 -10 38 -28 38z" />
    <glyph glyph-name="seveneighths" unicode="&#x215e;" horiz-adv-x="800" 
d="M83 260l254 325h-204l20 65h272l-273 -390h-69zM151 0l494 650h52l-494 -650h-52zM678 205c35 -11 53 -36 53 -74c0 -78 -69 -137 -160 -137c-69 0 -112 34 -112 89c0 57 40 104 103 122c-30 13 -44 34 -44 65c0 69 66 127 144 127c64 0 101 -30 101 -80
c0 -51 -32 -93 -85 -112zM615 191c-39 0 -77 -63 -77 -130c0 -29 12 -44 35 -44c24 0 42 15 58 49c12 26 19 57 19 82c0 28 -13 43 -35 43zM659 374c-34 0 -66 -60 -66 -123c0 -23 10 -36 28 -36c34 0 65 58 65 121c0 26 -8 38 -27 38z" />
    <glyph glyph-name="onethird" unicode="&#x2153;" horiz-adv-x="800" 
d="M337 666l-85 -343c-3 -8 -4 -17 -4 -20c0 -14 11 -18 52 -20l-6 -26c-46 4 -70 5 -101 5s-55 -1 -103 -5l6 26c55 2 63 7 75 52l61 245l-64 -4l6 25c56 4 110 29 138 65h25zM152 0l494 650h51l-494 -650h-51zM457 114h31c13 -44 41 -66 84 -66c28 0 47 9 63 31
c11 15 18 35 18 52c0 41 -26 58 -94 58l7 28c40 0 57 3 74 14c24 13 38 38 38 64c0 29 -20 48 -52 48c-34 0 -56 -17 -78 -61h-31c27 80 68 114 136 114c62 0 105 -37 105 -91c0 -48 -34 -81 -98 -97c50 -13 74 -40 74 -84c0 -73 -64 -130 -148 -130c-78 0 -124 43 -129 120
z" />
    <glyph glyph-name="twothirds" unicode="&#x2154;" horiz-adv-x="800" 
d="M332 330l-29 -70h-245l14 57c182 149 227 197 227 242c0 27 -18 43 -50 43c-40 0 -67 -20 -89 -67h-32c31 84 80 122 157 122c62 0 101 -31 101 -80c0 -42 -22 -76 -85 -130c-31 -27 -31 -27 -151 -117h182zM152 0l494 650h51l-494 -650h-51zM457 114h31
c13 -44 41 -66 84 -66c46 0 81 36 81 83c0 41 -26 58 -94 58l7 28c40 0 57 3 74 14c24 14 38 38 38 64c0 29 -20 48 -52 48c-34 0 -56 -17 -78 -61h-31c27 80 68 114 136 114c62 0 105 -37 105 -91c0 -48 -33 -81 -98 -97c50 -13 74 -40 74 -84c0 -73 -64 -130 -148 -130
c-78 0 -124 43 -129 120z" />
    <glyph glyph-name="zerosuperior" unicode="&#x2070;" horiz-adv-x="356" 
d="M277 657c69 0 106 -46 106 -131c0 -68 -23 -146 -58 -198c-35 -51 -76 -74 -131 -74c-70 0 -107 45 -107 128c0 77 27 163 68 214c32 41 72 61 122 61zM269 634c-30 0 -50 -28 -72 -100c-21 -65 -34 -143 -34 -195c0 -42 12 -62 37 -62c30 0 49 25 72 99
c21 64 35 144 35 196c0 40 -14 62 -38 62z" />
    <glyph glyph-name="foursuperior" unicode="&#x2074;" horiz-adv-x="356" 
d="M200 250l25 96h-182l2 9l243 295h89l-58 -243h64l-15 -61h-62l-24 -96h-82zM241 407l53 210l-166 -210h113z" />
    <glyph glyph-name="fivesuperior" unicode="&#x2075;" horiz-adv-x="356" 
d="M370 585h-172l-41 -95c33 26 59 35 97 35c67 0 106 -40 106 -110c0 -93 -66 -161 -157 -161c-76 0 -121 43 -124 118h31c11 -41 40 -64 79 -64c49 0 84 42 84 101c0 42 -23 69 -59 69c-31 0 -55 -13 -80 -42l-29 4l87 210h207z" />
    <glyph glyph-name="sixsuperior" unicode="&#x2076;" horiz-adv-x="356" 
d="M333 660h44c-56 -37 -105 -82 -148 -138c19 7 29 9 44 9c56 0 91 -38 91 -98c0 -100 -75 -180 -170 -180c-69 0 -116 45 -116 112c0 64 36 129 108 193c43 38 111 85 147 102zM248 500c-23 0 -42 -16 -60 -49c-18 -34 -33 -92 -33 -128c0 -28 15 -46 38 -46
c25 0 43 17 62 56c18 38 28 81 28 117c0 33 -12 50 -35 50z" />
    <glyph glyph-name="sevensuperior" unicode="&#x2077;" horiz-adv-x="356" 
d="M83 260l254 325h-204l20 65h272l-273 -390h-69z" />
    <glyph glyph-name="eightsuperior" unicode="&#x2078;" horiz-adv-x="356" 
d="M299 465c35 -12 53 -37 53 -74c0 -78 -70 -138 -160 -138c-68 0 -112 35 -112 90c0 56 40 104 103 122c-30 13 -44 33 -44 65c0 70 65 127 144 127c64 0 101 -29 101 -80s-32 -94 -85 -112zM236 450c-23 0 -39 -12 -55 -42c-13 -24 -22 -61 -22 -88c0 -28 13 -44 35 -44
c23 0 42 16 57 50c13 25 20 57 20 82c0 27 -12 42 -35 42zM280 634c-34 0 -66 -60 -66 -123c0 -23 10 -37 28 -37c33 0 65 59 65 121c0 27 -8 39 -27 39z" />
    <glyph glyph-name="ninesuperior" unicode="&#x2079;" horiz-adv-x="356" 
d="M138 250h-45c55 36 107 84 148 139c-17 -8 -27 -10 -43 -10c-56 0 -92 38 -92 99c0 100 75 179 170 179c70 0 116 -44 116 -111c0 -65 -35 -128 -105 -191c-43 -39 -111 -87 -149 -105zM277 633c-25 0 -43 -16 -62 -56c-17 -37 -28 -82 -28 -116c0 -33 13 -51 35 -51
c23 0 42 16 60 49c19 36 33 91 33 128c0 29 -14 46 -38 46z" />
    <glyph glyph-name="zeroinferior" unicode="&#x2080;" horiz-adv-x="356" 
d="M212 397c69 0 106 -46 106 -131c0 -69 -23 -146 -58 -198c-35 -51 -76 -74 -131 -74c-70 0 -107 44 -107 128c0 76 27 163 68 214c32 41 73 61 122 61zM204 374c-29 0 -50 -29 -72 -100c-21 -65 -34 -143 -34 -195c0 -42 12 -62 37 -62c30 0 48 24 72 98
c21 65 35 145 35 197c0 39 -14 62 -38 62z" />
    <glyph glyph-name="oneinferior" unicode="&#x2081;" horiz-adv-x="356" 
d="M272 406l-85 -342c-2 -9 -4 -17 -4 -21c0 -14 11 -18 52 -19l-6 -26c-42 3 -63 4 -101 4s-60 -1 -103 -4l6 26c55 1 63 7 75 51l61 245l-64 -4l6 25c56 4 110 29 138 65h25z" />
    <glyph glyph-name="twoinferior" unicode="&#x2082;" horiz-adv-x="356" 
d="M267 70l-29 -70h-245l14 57c182 149 227 197 227 242c0 27 -19 43 -50 43c-40 0 -67 -20 -89 -67h-32c31 84 81 122 157 122c62 0 101 -31 101 -80c0 -42 -22 -76 -85 -130c-31 -27 -31 -27 -151 -117h182z" />
    <glyph glyph-name="threeinferior" unicode="&#x2083;" horiz-adv-x="356" 
d="M13 114h31c13 -44 41 -66 84 -66c28 0 47 9 63 31c11 15 18 35 18 52c0 41 -26 58 -94 58l7 28c40 0 57 3 74 14c24 13 38 38 38 64c0 29 -20 48 -52 48c-34 0 -56 -17 -78 -61h-31c27 80 68 114 136 114c62 0 105 -37 105 -91c0 -48 -34 -81 -98 -97
c50 -13 74 -40 74 -84c0 -73 -64 -130 -148 -130c-78 0 -124 43 -129 120z" />
    <glyph glyph-name="fourinferior" unicode="&#x2084;" horiz-adv-x="356" 
d="M135 -10l25 97h-182l2 9l243 294h89l-58 -242h64l-15 -61h-62l-24 -97h-82zM176 148l53 209l-166 -209h113z" />
    <glyph glyph-name="fiveinferior" unicode="&#x2085;" horiz-adv-x="356" 
d="M305 325h-172l-41 -94c33 25 58 34 97 34c68 0 106 -40 106 -110c0 -93 -66 -161 -157 -161c-76 0 -121 43 -124 118h31c11 -41 39 -64 79 -64c49 0 84 42 84 101c0 43 -23 69 -59 69c-32 0 -55 -12 -80 -42l-29 4l87 210h207z" />
    <glyph glyph-name="sixinferior" unicode="&#x2086;" horiz-adv-x="356" 
d="M268 400h44c-56 -37 -105 -82 -148 -138c19 7 29 9 44 9c56 0 91 -38 91 -98c0 -100 -75 -180 -170 -180c-69 0 -116 45 -116 112c0 64 36 129 108 193c43 38 111 85 147 102zM183 240c-23 0 -42 -16 -60 -49c-18 -34 -33 -92 -33 -128c0 -28 15 -46 38 -46
c25 0 43 17 62 56c18 38 28 81 28 117c0 33 -12 50 -35 50z" />
    <glyph glyph-name="seveninferior" unicode="&#x2087;" horiz-adv-x="356" 
d="M18 0l254 325h-204l20 65h272l-273 -390h-69z" />
    <glyph glyph-name="eightinferior" unicode="&#x2088;" horiz-adv-x="356" 
d="M234 205c35 -11 53 -37 53 -74c0 -78 -69 -137 -160 -137c-69 0 -112 34 -112 89c0 57 40 104 103 122c-30 13 -44 33 -44 65c0 70 66 127 144 127c63 0 101 -30 101 -80c0 -51 -32 -93 -85 -112zM171 191c-40 0 -77 -63 -77 -130c0 -29 12 -44 35 -44s42 16 57 49
c12 26 20 57 20 82c0 27 -13 43 -35 43zM215 374c-34 0 -66 -60 -66 -123c0 -23 10 -36 28 -36c34 0 65 58 65 121c0 26 -9 38 -27 38z" />
    <glyph glyph-name="nineinferior" unicode="&#x2089;" horiz-adv-x="356" 
d="M73 -10h-45c58 39 107 84 148 139c-17 -8 -28 -10 -43 -10c-56 0 -92 38 -92 98c0 100 75 180 170 180c70 0 116 -44 116 -111c0 -65 -35 -128 -105 -191c-43 -38 -110 -85 -149 -105zM212 373c-25 0 -43 -16 -62 -56c-17 -37 -28 -82 -28 -117c0 -32 13 -50 35 -50
s42 17 60 49c19 36 33 91 33 128c0 28 -14 46 -38 46z" />
    <glyph glyph-name="uni01CD" unicode="&#x1cd;" horiz-adv-x="661" 
d="M394 181h-220l-45 -71c-38 -61 -31 -75 37 -76l-9 -37c-45 3 -69 4 -101 4c-31 0 -56 -1 -102 -4l9 37c64 3 81 16 136 104l365 555h14l56 -588c5 -53 23 -69 82 -71l-9 -37c-57 5 -89 7 -145 7c-55 0 -89 -2 -149 -7l10 37c45 2 50 3 60 8c12 7 17 17 17 36
c0 4 0 11 -1 19zM200 219h190l-14 271zM691 883l-217 -150h-10l-133 150h41l119 -62l150 62h50z" />
    <glyph glyph-name="Abreve" unicode="&#x102;" horiz-adv-x="661" 
d="M394 181h-220l-45 -71c-38 -61 -31 -75 37 -76l-9 -37c-45 3 -69 4 -101 4c-31 0 -56 -1 -102 -4l9 37c64 3 81 16 136 104l365 555h14l56 -588c5 -53 23 -69 82 -71l-9 -37c-57 5 -89 7 -145 7c-55 0 -89 -2 -149 -7l10 37c45 2 50 3 60 8c12 7 17 17 17 36
c0 4 0 11 -1 19zM200 219h190l-14 271zM601 878h39c-32 -93 -90 -143 -168 -143c-72 0 -114 43 -114 117c0 4 1 16 2 26h39c18 -49 42 -67 87 -67c41 0 71 18 115 67z" />
    <glyph glyph-name="Aogonek" unicode="&#x104;" horiz-adv-x="661" 
d="M616 34l-9 -37c-60 -16 -105 -52 -105 -84c0 -18 14 -30 36 -30c14 0 23 2 49 10l-8 -34c-29 -12 -55 -18 -80 -18c-47 0 -78 23 -78 58c0 25 16 53 39 70c13 10 27 16 70 34h-22l-66 1c-28 1 -72 -2 -129 -7l10 37c45 2 50 3 60 8c12 7 17 17 17 36c0 4 0 11 -1 19
l-5 84h-220l-45 -71c-38 -61 -31 -75 37 -76l-9 -37c-45 3 -69 4 -101 4c-31 0 -56 -1 -102 -4l9 37c64 3 81 16 136 104l365 555h14l56 -588c5 -53 23 -69 82 -71zM200 219h190l-14 271z" />
    <glyph glyph-name="Cacute" unicode="&#x106;" horiz-adv-x="604" 
d="M539 238h36c-32 -161 -135 -254 -281 -254c-150 0 -239 91 -239 246c0 104 33 212 91 296c71 104 168 157 283 157c54 0 86 -8 144 -37c14 -7 27 -11 35 -11c10 0 20 4 42 15l-42 -197h-32v13c0 112 -48 174 -133 174c-78 0 -144 -51 -194 -151
c-40 -79 -65 -182 -65 -265c0 -107 52 -167 144 -167c103 0 178 64 211 181zM386 738l98 126h191l-244 -126h-45z" />
    <glyph glyph-name="Ccaron" unicode="&#x10c;" horiz-adv-x="604" 
d="M539 238h36c-32 -161 -135 -254 -281 -254c-150 0 -239 91 -239 246c0 104 33 212 91 296c71 104 168 157 283 157c54 0 86 -8 144 -37c14 -7 27 -11 35 -11c10 0 20 4 42 15l-42 -197h-32v13c0 112 -48 174 -133 174c-78 0 -144 -51 -194 -151
c-40 -79 -65 -182 -65 -265c0 -107 52 -167 144 -167c103 0 178 64 211 181zM661 883l-217 -150h-9l-134 150h41l119 -62l150 62h50z" />
    <glyph glyph-name="Cdotaccent" unicode="&#x10a;" horiz-adv-x="604" 
d="M539 238h36c-32 -161 -135 -254 -281 -254c-150 0 -239 91 -239 246c0 104 33 212 91 296c71 104 168 157 283 157c54 0 86 -8 144 -37c14 -7 27 -11 35 -11c10 0 20 4 42 15l-42 -197h-32v13c0 112 -48 174 -133 174c-78 0 -144 -51 -194 -151
c-40 -79 -65 -182 -65 -265c0 -107 52 -167 144 -167c103 0 178 64 211 181zM473 881c35 0 61 -26 61 -60c0 -47 -41 -89 -88 -89c-36 0 -62 24 -62 58c0 48 42 91 89 91z" />
    <glyph glyph-name="Dcaron" unicode="&#x10e;" horiz-adv-x="669" 
d="M128 630l9 37h270c103 0 155 -14 195 -52c43 -41 64 -100 64 -182c0 -135 -53 -259 -144 -338c-75 -65 -165 -95 -286 -95h-265l9 37c72 2 84 11 100 70l113 453c3 15 6 31 6 38c0 23 -17 31 -71 32zM340 629l-133 -533c-5 -19 -6 -26 -6 -33c0 -19 11 -26 43 -26
c73 0 125 18 161 56c76 80 132 246 132 389c0 65 -16 107 -48 129c-18 12 -49 18 -95 18h-54zM616 883l-217 -150h-9l-134 150h41l119 -62l150 62h50z" />
    <glyph glyph-name="Dcroat" unicode="&#x110;" horiz-adv-x="669" 
d="M136 331h-82l9 40h82l48 189c3 16 6 31 6 38c0 23 -17 31 -71 32l9 37h270c103 0 155 -14 195 -52c43 -41 64 -100 64 -182c0 -135 -53 -259 -144 -338c-75 -65 -165 -95 -286 -95h-265l9 37c72 2 84 11 100 70zM275 371h121l-10 -40h-120l-59 -235c-5 -19 -6 -26 -6 -33
c0 -19 11 -26 43 -26c73 0 125 18 161 56c76 79 132 246 132 389c0 65 -16 107 -48 129c-18 12 -49 18 -95 18h-54z" />
    <glyph glyph-name="Ecaron" unicode="&#x11a;" horiz-adv-x="570" 
d="M531 185l-78 -185h-482l9 37c72 2 85 11 100 70l113 453c4 17 6 30 6 38c0 23 -16 31 -71 32l9 37h462l-16 -176h-31c0 73 -3 89 -18 109c-16 21 -41 29 -93 29h-101l-65 -261h200l-11 -45h-200l-55 -219c-4 -17 -7 -33 -7 -40c0 -18 15 -26 50 -26h51c65 0 97 15 141 65
c22 26 38 49 56 82h31zM609 883l-218 -150h-9l-134 150h42l119 -62l150 62h50z" />
    <glyph glyph-name="Edotaccent" unicode="&#x116;" horiz-adv-x="570" 
d="M531 185l-78 -185h-482l9 37c72 2 85 11 100 70l113 453c4 17 6 30 6 38c0 23 -16 31 -71 32l9 37h462l-16 -176h-31c0 73 -3 89 -18 109c-16 21 -41 29 -93 29h-101l-65 -261h200l-11 -45h-200l-55 -219c-4 -17 -7 -33 -7 -40c0 -18 15 -26 50 -26h51c65 0 97 15 141 65
c22 26 38 49 56 82h31zM424 881c35 0 60 -25 60 -60c0 -48 -40 -89 -87 -89c-36 0 -63 25 -63 58c0 47 43 91 90 91z" />
    <glyph glyph-name="Eogonek" unicode="&#x118;" horiz-adv-x="570" 
d="M500 185h31l-78 -185c-60 -21 -103 -57 -103 -87c0 -19 14 -30 36 -30c14 0 23 2 49 10l-9 -34c-28 -12 -54 -18 -80 -18c-48 0 -77 23 -77 62c0 24 13 46 39 66c13 10 24 15 62 31h-399l9 37c72 2 85 11 100 70l113 453c4 17 6 30 6 38c0 23 -16 31 -71 32l9 37h462
l-16 -176h-31c0 73 -3 89 -18 109c-16 21 -41 29 -93 29h-101l-65 -261h200l-11 -45h-200l-55 -219c-4 -17 -7 -33 -7 -40c0 -18 15 -26 50 -26h51c65 0 97 15 141 65c22 26 38 49 56 82z" />
    <glyph glyph-name="Gcaron" unicode="&#x1e6;" horiz-adv-x="651" 
d="M668 640l-47 -187h-32c0 60 -1 76 -9 102c-18 58 -63 91 -124 91c-80 0 -142 -51 -198 -161c-49 -96 -81 -218 -81 -311s50 -153 129 -153c33 0 62 6 95 19l45 180c3 10 4 20 4 27c0 20 -13 26 -59 29l10 37c53 -5 84 -7 126 -7s73 2 129 7l-9 -37
c-53 -4 -66 -14 -75 -58l-44 -174c-85 -37 -164 -55 -237 -55c-153 0 -241 81 -241 222c0 123 48 256 124 342c72 82 163 125 265 125c55 0 86 -9 146 -41c16 -8 30 -13 38 -13c9 0 19 4 45 16zM674 883l-217 -150h-9l-134 150h41l119 -62l150 62h50z" />
    <glyph glyph-name="Gbreve" unicode="&#x11e;" horiz-adv-x="651" 
d="M668 640l-47 -187h-32c0 60 -1 76 -9 102c-18 58 -63 91 -124 91c-80 0 -142 -51 -198 -161c-49 -96 -81 -218 -81 -311s50 -153 129 -153c33 0 62 6 95 19l45 180c3 10 4 20 4 27c0 20 -13 26 -59 29l10 37c53 -5 84 -7 126 -7s73 2 129 7l-9 -37
c-53 -4 -66 -14 -75 -58l-44 -174c-85 -37 -164 -55 -237 -55c-153 0 -241 81 -241 222c0 123 48 256 124 342c72 82 163 125 265 125c55 0 86 -9 146 -41c16 -8 30 -13 38 -13c9 0 19 4 45 16zM591 878h39c-32 -93 -90 -143 -168 -143c-72 0 -114 43 -114 117
c0 4 1 16 2 26h39c18 -49 42 -67 87 -67c40 0 71 18 115 67z" />
    <glyph glyph-name="Gdotaccent" unicode="&#x120;" horiz-adv-x="651" 
d="M668 640l-47 -187h-32c0 60 -1 76 -9 102c-18 58 -63 91 -124 91c-80 0 -142 -51 -198 -161c-49 -96 -81 -218 -81 -311s50 -153 129 -153c33 0 62 6 95 19l45 180c3 10 4 20 4 27c0 20 -13 26 -59 29l10 37c53 -5 84 -7 126 -7s73 2 129 7l-9 -37
c-53 -4 -66 -14 -75 -58l-44 -174c-85 -37 -164 -55 -237 -55c-153 0 -241 81 -241 222c0 123 48 256 124 342c72 82 163 125 265 125c55 0 86 -9 146 -41c16 -8 30 -13 38 -13c9 0 19 4 45 16zM483 881c34 0 60 -25 60 -60c0 -48 -40 -89 -87 -89c-36 0 -63 25 -63 58
c0 48 43 91 90 91z" />
    <glyph glyph-name="Idotaccent" unicode="&#x130;" horiz-adv-x="349" 
d="M271 34l-9 -37c-61 5 -94 7 -143 7s-84 -2 -149 -7l9 37c72 2 85 10 100 70l114 459c4 16 6 28 6 39c0 23 -16 30 -70 31l9 37c63 -5 97 -7 145 -7c49 0 83 2 147 7l-9 -37c-70 -1 -83 -10 -98 -70l-114 -459c-4 -15 -6 -29 -6 -39c0 -23 15 -30 68 -31zM327 881
c35 0 60 -25 60 -60c0 -48 -40 -89 -87 -89c-36 0 -63 25 -63 58c0 47 43 91 90 91z" />
    <glyph glyph-name="Lacute" unicode="&#x139;" horiz-adv-x="529" 
d="M518 185l-77 -185h-470l9 37c72 2 85 10 100 70l113 456c5 19 6 26 6 39c0 23 -15 30 -70 31l9 37c63 -5 97 -7 145 -7c49 0 83 2 147 7l-9 -37c-70 -2 -83 -10 -98 -70l-117 -472c-11 -44 -5 -53 41 -53h50c58 0 91 16 134 65c22 25 38 48 56 82h31zM250 738l98 126h191
l-244 -126h-45z" />
    <glyph glyph-name="Lcaron" unicode="&#x13d;" horiz-adv-x="529" 
d="M518 185l-77 -185h-470l9 37c72 2 85 10 100 70l113 456c5 19 6 26 6 39c0 23 -15 30 -70 31l9 37c63 -5 97 -7 145 -7c49 0 83 2 147 7l-9 -37c-70 -2 -83 -10 -98 -70l-117 -472c-11 -44 -5 -53 41 -53h50c58 0 91 16 134 65c22 25 38 48 56 82h31zM497 446h-49
c37 41 61 82 69 122c-3 -1 -7 -1 -9 -1c-25 0 -45 21 -45 47c0 37 33 69 71 69c34 0 57 -25 57 -63c0 -53 -34 -116 -94 -174z" />
    <glyph glyph-name="Nacute" unicode="&#x143;" horiz-adv-x="670" 
d="M502 -17h-17l-257 587l-110 -440c-7 -27 -11 -51 -11 -60c0 -27 14 -35 68 -36l-9 -37c-46 3 -70 4 -100 4s-54 -1 -101 -4l9 37c56 5 75 18 94 64c11 32 18 55 39 141c9 33 17 64 25 98l64 258c-23 28 -39 37 -74 38l10 37c40 -2 62 -3 93 -3c30 0 53 1 94 3l203 -455
l85 342c5 19 8 37 8 46c0 21 -18 29 -70 30l9 37c42 -2 65 -3 100 -3s58 1 101 3l-9 -37c-69 -1 -84 -12 -101 -76zM390 738l97 126h192l-245 -126h-44z" />
    <glyph glyph-name="Ncaron" unicode="&#x147;" horiz-adv-x="670" 
d="M502 -17h-17l-257 587l-110 -440c-7 -27 -11 -51 -11 -60c0 -27 14 -35 68 -36l-9 -37c-46 3 -70 4 -100 4s-54 -1 -101 -4l9 37c56 5 75 18 94 64c11 32 18 55 39 141c9 33 17 64 25 98l64 258c-23 28 -39 37 -74 38l10 37c40 -2 62 -3 93 -3c30 0 53 1 94 3l203 -455
l85 342c5 19 8 37 8 46c0 21 -18 29 -70 30l9 37c42 -2 65 -3 100 -3s58 1 101 3l-9 -37c-69 -1 -84 -12 -101 -76zM665 883l-218 -150h-9l-134 150h41l120 -62l150 62h50z" />
    <glyph glyph-name="Ohungarumlaut" unicode="&#x150;" horiz-adv-x="649" 
d="M425 683c140 0 224 -89 224 -237c0 -113 -38 -234 -101 -318c-70 -95 -162 -144 -267 -144c-145 0 -227 87 -227 240c0 128 50 265 128 350c66 72 148 109 243 109zM421 651c-68 0 -120 -51 -168 -165c-40 -98 -70 -235 -70 -324c0 -94 36 -146 100 -146
c69 0 123 57 172 178c39 100 64 222 64 313c0 92 -35 144 -98 144zM312 738l56 126h158l-176 -126h-38zM505 738l56 126h158l-176 -126h-38z" />
    <glyph glyph-name="Racute" unicode="&#x154;" horiz-adv-x="656" 
d="M261 314l-52 -210c-7 -25 -8 -33 -8 -40c0 -22 15 -29 70 -30l-10 -37c-57 5 -89 7 -139 7c-52 0 -87 -2 -152 -7l9 37c72 2 85 10 100 70l113 456c4 13 7 32 7 38c0 23 -18 31 -71 32l9 37h260c77 0 111 -3 138 -12c53 -17 83 -62 83 -124c0 -72 -39 -137 -105 -174
c-31 -18 -59 -28 -110 -37c55 -19 76 -45 89 -110l16 -72c7 -33 10 -44 17 -59c12 -28 37 -44 69 -44c12 0 25 2 43 6l-8 -34c-35 -12 -65 -17 -98 -17c-47 0 -86 16 -107 42c-15 20 -28 54 -39 101l-21 95c-17 74 -29 86 -87 86h-16zM271 352h51c61 0 101 19 129 61
c22 32 38 87 38 129s-16 70 -46 80c-14 4 -39 7 -72 7h-31zM320 738l97 126h192l-245 -126h-44z" />
    <glyph glyph-name="Rcaron" unicode="&#x158;" horiz-adv-x="656" 
d="M261 314l-52 -210c-7 -25 -8 -33 -8 -40c0 -22 15 -29 70 -30l-10 -37c-57 5 -89 7 -139 7c-52 0 -87 -2 -152 -7l9 37c72 2 85 10 100 70l113 456c4 13 7 32 7 38c0 23 -18 31 -71 32l9 37h260c77 0 111 -3 138 -12c53 -17 83 -62 83 -124c0 -72 -39 -137 -105 -174
c-31 -18 -59 -28 -110 -37c55 -19 76 -45 89 -110l16 -72c7 -33 10 -44 17 -59c12 -28 37 -44 69 -44c12 0 25 2 43 6l-8 -34c-35 -12 -65 -17 -98 -17c-47 0 -86 16 -107 42c-15 20 -28 54 -39 101l-21 95c-17 74 -29 86 -87 86h-16zM271 352h51c61 0 101 19 129 61
c22 32 38 87 38 129s-16 70 -46 80c-14 4 -39 7 -72 7h-31zM598 883l-217 -150h-9l-134 150h41l119 -62l150 62h50z" />
    <glyph glyph-name="Sacute" unicode="&#x15a;" horiz-adv-x="545" 
d="M564 651l-46 -186h-32c3 17 4 25 4 41c0 83 -47 135 -122 135s-136 -51 -136 -114c0 -26 12 -50 36 -70c22 -19 30 -24 105 -70c99 -59 129 -99 129 -170c0 -123 -123 -228 -267 -228c-81 0 -142 26 -220 94l39 160h32c-4 -24 -5 -36 -5 -55c0 -99 52 -156 142 -156
c83 0 152 64 152 142c0 41 -18 63 -86 105c-85 51 -111 69 -135 92c-34 32 -49 63 -49 103c0 115 110 204 250 204c47 0 82 -8 133 -30c16 -7 29 -11 38 -11c10 0 20 3 38 14zM306 738l97 126h192l-245 -126h-44z" />
    <glyph glyph-name="Scedilla" unicode="&#x15e;" horiz-adv-x="545" 
d="M253 -10l-38 -45c53 -1 76 -18 76 -58c0 -54 -53 -97 -121 -97c-25 0 -47 5 -82 19l9 36c25 -7 43 -11 55 -11c29 0 55 22 55 47c0 23 -20 36 -55 36h-9l61 74c-71 8 -122 33 -189 92l39 160h32c-4 -24 -5 -36 -5 -55c0 -100 51 -155 142 -155c85 0 152 62 152 141
c0 41 -18 63 -86 105c-85 51 -111 69 -135 92c-34 32 -49 63 -49 103c0 115 110 204 250 204c47 0 82 -8 133 -30c16 -7 29 -11 38 -11c10 0 20 3 38 14l-46 -186h-32c3 17 4 25 4 41c0 83 -47 135 -122 135s-136 -51 -136 -114c0 -26 12 -50 36 -70c22 -19 30 -24 105 -70
c99 -59 129 -99 129 -170c0 -118 -111 -219 -249 -227z" />
    <glyph glyph-name="Tcaron" unicode="&#x164;" horiz-adv-x="547" 
d="M438 629l-131 -525c-4 -15 -6 -28 -6 -39c0 -23 15 -30 70 -31l-9 -37c-59 5 -91 7 -145 7s-87 -2 -147 -7l9 37c71 2 83 11 98 70l131 525h-27c-78 0 -125 -39 -175 -146h-34l77 184h469l-15 -184h-33v19c0 91 -30 127 -104 127h-28zM607 883l-217 -150h-9l-134 150h41
l119 -62l150 62h50z" />
    <glyph glyph-name="Uring" unicode="&#x16e;" horiz-adv-x="663" 
d="M553 633l9 37c42 -2 65 -3 100 -3s58 1 101 3l-9 -37c-40 -3 -69 -18 -81 -43c-14 -25 -19 -43 -59 -193l-35 -139c-25 -100 -44 -142 -84 -186c-50 -54 -121 -83 -207 -83c-122 0 -194 59 -194 159c0 25 5 60 15 100l79 315c4 15 6 30 6 38c0 24 -16 31 -71 32l10 37
c62 -5 96 -7 143 -7c46 0 81 2 149 7l-10 -37c-70 -1 -82 -10 -97 -70l-81 -326c-9 -35 -16 -78 -16 -98c0 -58 42 -91 115 -91c79 0 139 40 172 115c10 23 23 66 36 118l71 282c5 23 6 28 6 38c0 24 -15 31 -68 32zM488 905c48 0 88 -41 88 -89c0 -50 -40 -90 -89 -90
s-90 41 -90 89c0 50 41 90 91 90zM487 862c-25 0 -47 -21 -47 -47c0 -24 22 -46 47 -46s46 21 46 47c0 24 -21 46 -46 46z" />
    <glyph glyph-name="Uhungarumlaut" unicode="&#x170;" horiz-adv-x="663" 
d="M553 633l9 37c42 -2 65 -3 100 -3s58 1 101 3l-9 -37c-40 -3 -69 -18 -81 -43c-14 -25 -19 -43 -59 -193l-35 -139c-25 -100 -44 -142 -84 -186c-50 -54 -121 -83 -207 -83c-122 0 -194 59 -194 159c0 25 5 60 15 100l79 315c4 15 6 30 6 38c0 24 -16 31 -71 32l10 37
c62 -5 96 -7 143 -7c46 0 81 2 149 7l-10 -37c-70 -1 -82 -10 -97 -70l-81 -326c-9 -35 -16 -78 -16 -98c0 -58 42 -91 115 -91c79 0 139 40 172 115c10 23 23 66 36 118l71 282c5 23 6 28 6 38c0 24 -15 31 -68 32zM332 738l56 126h158l-176 -126h-38zM525 738l56 126h158
l-176 -126h-38z" />
    <glyph glyph-name="Zacute" unicode="&#x179;" horiz-adv-x="526" 
d="M-43 0l481 629h-97c-90 0 -137 -32 -202 -136h-35l74 174h435l-481 -629h152c64 0 95 13 140 58c27 28 47 56 73 101h20l-68 -197h-492zM328 738l97 126h192l-245 -126h-44z" />
    <glyph glyph-name="Zdotaccent" unicode="&#x17b;" horiz-adv-x="526" 
d="M-43 0l481 629h-97c-90 0 -137 -32 -202 -136h-35l74 174h435l-481 -629h152c64 0 95 13 140 58c27 28 47 56 73 101h20l-68 -197h-492zM428 881c35 0 61 -26 61 -60c0 -47 -41 -89 -88 -89c-36 0 -62 24 -62 58c0 48 42 91 89 91z" />
    <glyph glyph-name="Amacron" unicode="&#x100;" horiz-adv-x="661" 
d="M394 181h-220l-45 -71c-38 -61 -31 -75 37 -76l-9 -37c-45 3 -69 4 -101 4c-31 0 -56 -1 -102 -4l9 37c64 3 81 16 136 104l365 555h14l56 -588c5 -53 23 -69 82 -71l-9 -37c-57 5 -89 7 -145 7c-55 0 -89 -2 -149 -7l10 37c45 2 50 3 60 8c12 7 17 17 17 36
c0 4 0 11 -1 19zM200 219h190l-14 271zM294 771l16 61h346l-15 -61h-347z" />
    <glyph glyph-name="Tcommaaccent" unicode="&#x162;" horiz-adv-x="547" 
d="M438 629l-131 -525c-4 -15 -6 -28 -6 -39c0 -23 15 -30 70 -31l-9 -37c-59 5 -91 7 -145 7s-87 -2 -147 -7l9 37c71 2 83 11 98 70l131 525h-27c-78 0 -125 -39 -175 -146h-34l77 184h469l-15 -184h-33v19c0 91 -30 127 -104 127h-28zM159 -290h-49c37 40 60 82 69 121
h-9c-25 0 -45 21 -45 47c0 36 34 69 71 69c34 0 57 -26 57 -63c0 -53 -34 -116 -94 -174z" />
    <glyph glyph-name="Ccircumflex" unicode="&#x108;" horiz-adv-x="604" 
d="M539 238h36c-32 -161 -135 -254 -281 -254c-150 0 -239 91 -239 246c0 104 33 212 91 296c71 104 168 157 283 157c54 0 86 -8 144 -37c14 -7 27 -11 35 -11c10 0 20 4 42 15l-42 -197h-32v13c0 112 -48 174 -133 174c-78 0 -144 -51 -194 -151
c-40 -79 -65 -182 -65 -265c0 -107 52 -167 144 -167c103 0 178 64 211 181zM264 733l217 150h9l134 -150h-41l-119 62l-150 -62h-50z" />
    <glyph glyph-name="Wcircumflex" unicode="&#x174;" horiz-adv-x="829" 
d="M204 -17h-24l-20 566c-2 63 -15 80 -67 84l10 37c54 -5 86 -7 137 -7c53 0 85 2 142 7l-9 -37c-44 -4 -50 -6 -62 -15c-15 -11 -16 -16 -16 -63v-340l265 470h46l25 -470l157 296c20 39 41 90 41 101c0 15 -14 23 -40 23c-2 0 -4 0 -17 -1l-4 33c57 -1 114 13 139 33
c9 -29 4 -48 -23 -97c-9 -16 -18 -32 -27 -49l-15 -28l-296 -544h-25l-21 522zM397 733l217 150h9l134 -150h-41l-119 62l-151 -62h-49z" />
    <glyph glyph-name="Wdieresis" unicode="&#x1e84;" horiz-adv-x="829" 
d="M204 -17h-24l-20 566c-2 63 -15 80 -67 84l10 37c54 -5 86 -7 137 -7c53 0 85 2 142 7l-9 -37c-44 -4 -50 -6 -62 -15c-15 -11 -16 -16 -16 -63v-340l265 470h46l25 -470l157 296c20 39 41 90 41 101c0 15 -14 23 -40 23c-2 0 -4 0 -17 -1l-4 33c57 -1 114 13 139 33
c9 -29 4 -48 -23 -97c-9 -16 -18 -32 -27 -49l-15 -28l-296 -544h-25l-21 522zM505 881c35 0 61 -26 61 -60c0 -47 -41 -89 -88 -89c-36 0 -62 24 -62 58c0 48 42 91 89 91zM707 881c35 0 60 -25 60 -60c0 -48 -40 -89 -87 -89c-36 0 -63 25 -63 58c0 47 43 91 90 91z" />
    <glyph glyph-name="Ycircumflex" unicode="&#x176;" horiz-adv-x="528" 
d="M224 287l-51 229c-17 90 -35 114 -88 117l7 37c55 -5 86 -7 141 -7s88 2 146 7l-9 -37c-55 -2 -75 -12 -75 -36c0 -2 0 -3 5 -34l44 -233l143 208c31 45 37 57 37 74c0 14 -15 23 -38 23c-1 0 -4 0 -7 -1h-9l-4 33c60 4 111 16 145 33c3 -12 4 -19 4 -27
c0 -22 -8 -39 -35 -74c-17 -22 -38 -51 -63 -87l-163 -225l-46 -183c-4 -19 -6 -29 -6 -39c0 -23 14 -30 66 -31l-10 -37c-63 5 -97 7 -144 7c-48 0 -82 -2 -147 -7l9 37c75 2 87 10 102 70zM193 733l217 150h9l134 -150h-41l-119 62l-150 -62h-50z" />
    <glyph glyph-name="Hbar" unicode="&#x126;" horiz-adv-x="703" 
d="M312 519h226l10 44c4 15 7 31 7 38c0 23 -17 31 -70 32l9 37c61 -5 94 -7 146 -7s85 2 145 7l-9 -37c-72 -2 -84 -10 -100 -70l-10 -44h82l-10 -40h-82l-94 -375c-3 -13 -6 -30 -6 -38c0 -23 16 -30 70 -32l-9 -37c-57 5 -89 7 -141 7s-87 -2 -150 -7l9 37
c70 2 82 11 97 70l56 225h-223l-56 -225c-5 -18 -7 -30 -7 -38c0 -24 15 -30 68 -32l-9 -37c-62 5 -96 7 -147 7s-84 -2 -144 -7l9 37c72 2 85 11 100 70l93 375h-82l10 40h82l11 44c5 19 6 26 6 38c0 24 -15 31 -70 32l9 37c58 -5 89 -7 140 -7s86 2 151 7l-9 -37
c-70 -1 -83 -11 -97 -70zM528 479h-226l-28 -112h226z" />
    <glyph glyph-name="Emacron" unicode="&#x112;" horiz-adv-x="570" 
d="M531 185l-78 -185h-482l9 37c72 2 85 11 100 70l113 453c4 17 6 30 6 38c0 23 -16 31 -71 32l9 37h462l-16 -176h-31c0 73 -3 89 -18 109c-16 21 -41 29 -93 29h-101l-65 -261h200l-11 -45h-200l-55 -219c-4 -18 -7 -32 -7 -40c0 -18 15 -26 50 -26h51c65 0 97 15 141 65
c22 26 38 49 56 82h31zM234 773l14 57h337l-14 -57h-337z" />
    <glyph glyph-name="Gcircumflex" unicode="&#x11c;" horiz-adv-x="651" 
d="M668 640l-47 -187h-32c0 60 -1 76 -9 102c-18 58 -63 91 -124 91c-80 0 -142 -51 -198 -161c-49 -96 -81 -218 -81 -311s50 -153 129 -153c33 0 62 6 95 19l45 180c3 10 4 20 4 27c0 20 -13 26 -59 29l10 37c53 -5 84 -7 126 -7s73 2 129 7l-9 -37
c-53 -4 -66 -14 -75 -58l-44 -174c-85 -37 -164 -55 -237 -55c-153 0 -241 81 -241 222c0 123 48 256 124 342c72 82 163 125 265 125c55 0 86 -9 146 -41c16 -8 30 -13 38 -13c9 0 19 4 45 16zM276 733l218 150h9l134 -150h-42l-119 62l-150 -62h-50z" />
    <glyph glyph-name="Hcircumflex" unicode="&#x124;" horiz-adv-x="703" 
d="M274 367h226l49 196c4 18 5 25 5 38c0 24 -14 31 -69 32l9 37c61 -5 95 -7 146 -7c52 0 85 2 145 7l-9 -37c-72 -1 -84 -10 -99 -70l-115 -459c-3 -14 -6 -30 -6 -38c0 -23 15 -30 71 -32l-10 -37c-57 5 -89 7 -141 7s-87 -2 -150 -7l9 37c70 2 82 11 97 70l56 225h-223
l-56 -225c-5 -19 -7 -30 -7 -38c0 -24 15 -30 69 -32l-10 -37c-62 5 -96 7 -147 7s-84 -2 -144 -7l9 37c72 2 85 11 100 70l114 459c5 18 6 27 6 39c0 23 -15 30 -70 31l9 37c58 -5 89 -7 140 -7s86 2 151 7l-9 -37c-70 -1 -83 -11 -97 -70zM287 733l217 150h10l134 -150
h-42l-119 62l-150 -62h-50z" />
    <glyph glyph-name="Imacron" unicode="&#x12a;" horiz-adv-x="349" 
d="M271 34l-9 -37c-61 5 -94 7 -143 7s-84 -2 -149 -7l9 37c72 2 85 10 100 70l114 459c4 16 6 28 6 39c0 23 -16 30 -70 31l9 37c63 -5 97 -7 145 -7c49 0 83 2 147 7l-9 -37c-70 -1 -83 -10 -98 -70l-114 -459c-4 -15 -6 -29 -6 -39c0 -23 15 -30 68 -31zM150 773l15 57
h303l-14 -57h-304z" />
    <glyph glyph-name="Iogonek" unicode="&#x12e;" horiz-adv-x="349" 
d="M271 34l-9 -37c-27 -5 -43 -13 -70 -33c-25 -20 -34 -33 -34 -51c0 -19 13 -30 36 -30c13 0 23 2 49 10l-9 -34c-29 -12 -55 -18 -80 -18c-49 0 -77 23 -77 61c0 43 30 71 108 100c-63 2 -68 2 -77 2c-41 0 -72 -2 -138 -7l9 37c72 2 85 10 100 70l114 459
c4 16 6 28 6 39c0 23 -16 30 -70 31l9 37c63 -5 97 -7 145 -7c49 0 83 2 147 7l-9 -37c-70 -1 -83 -10 -98 -70l-114 -459c-4 -15 -6 -29 -6 -39c0 -23 15 -30 68 -31z" />
    <glyph glyph-name="Kcommaaccent" unicode="&#x136;" horiz-adv-x="662" 
d="M266 334l264 236c22 20 29 30 29 42c0 14 -13 19 -52 21l9 37c51 -3 77 -4 107 -4s55 1 107 4l-9 -37c-55 -3 -79 -16 -173 -97l-141 -122l84 -238c5 -13 9 -26 13 -38c28 -80 48 -103 93 -103c12 0 24 2 43 6l-9 -34c-34 -12 -65 -17 -98 -17c-81 0 -117 33 -156 143
l-69 200l-54 -47l-45 -182c-5 -19 -7 -30 -7 -38c0 -23 12 -29 61 -32l-9 -37c-47 5 -76 7 -128 7c-55 0 -91 -2 -156 -7l9 37c72 2 85 10 100 70l114 459c4 16 6 29 6 39c0 22 -20 30 -70 31l9 37c63 -5 97 -7 148 -7s84 2 143 7l-9 -37c-69 -1 -82 -10 -97 -70zM276 -290
h-49c37 40 60 82 69 121h-9c-25 0 -45 21 -45 47c0 36 34 69 71 69c33 0 57 -26 57 -63c0 -53 -34 -116 -94 -174z" />
    <glyph glyph-name="Lcommaaccent" unicode="&#x13b;" horiz-adv-x="529" 
d="M518 185l-77 -185h-470l9 37c72 2 85 10 100 70l113 456c5 19 6 26 6 39c0 23 -15 30 -70 31l9 37c63 -5 97 -7 145 -7c49 0 83 2 147 7l-9 -37c-70 -2 -83 -10 -98 -70l-117 -472c-11 -44 -5 -53 41 -53h50c58 0 91 16 134 65c22 25 38 48 56 82h31zM170 -290h-49
c37 40 60 82 69 121h-9c-25 0 -45 21 -45 47c0 36 34 69 71 69c33 0 57 -26 57 -63c0 -53 -34 -116 -94 -174z" />
    <glyph glyph-name="Ncommaaccent" unicode="&#x145;" horiz-adv-x="670" 
d="M502 -17h-17l-257 587l-110 -440c-7 -27 -11 -51 -11 -60c0 -27 14 -35 68 -36l-9 -37c-46 3 -70 4 -100 4s-54 -1 -101 -4l9 37c56 5 75 18 94 64c11 32 18 55 39 141c9 33 17 64 25 98l64 258c-23 28 -39 37 -74 38l10 37c40 -2 62 -3 93 -3c30 0 53 1 94 3l203 -455
l85 342c5 19 8 37 8 46c0 21 -18 29 -70 30l9 37c42 -2 65 -3 100 -3s58 1 101 3l-9 -37c-69 -1 -84 -12 -101 -76zM247 -290h-49c37 40 61 82 70 121h-10c-26 0 -44 19 -44 47c0 37 32 69 70 69c34 0 57 -26 57 -63c0 -53 -34 -116 -94 -174z" />
    <glyph glyph-name="Omacron" unicode="&#x14c;" horiz-adv-x="649" 
d="M425 683c140 0 224 -89 224 -237c0 -113 -38 -234 -101 -318c-70 -95 -162 -144 -267 -144c-145 0 -227 87 -227 240c0 128 50 265 128 350c66 72 148 109 243 109zM421 651c-68 0 -120 -51 -168 -165c-40 -98 -70 -235 -70 -324c0 -94 36 -146 100 -146
c69 0 123 57 172 178c39 100 64 222 64 313c0 92 -35 144 -98 144zM287 773l14 57h337l-14 -57h-337z" />
    <glyph glyph-name="Rcommaaccent" unicode="&#x156;" horiz-adv-x="656" 
d="M261 314l-52 -210c-7 -25 -8 -33 -8 -40c0 -22 15 -29 70 -30l-10 -37c-57 5 -89 7 -139 7c-52 0 -87 -2 -152 -7l9 37c72 2 85 10 100 70l113 456c4 13 7 32 7 38c0 23 -18 31 -71 32l9 37h260c77 0 111 -3 138 -12c53 -17 83 -62 83 -124c0 -72 -39 -137 -105 -174
c-31 -18 -59 -28 -110 -37c55 -19 76 -45 89 -110l16 -72c7 -33 10 -44 17 -59c12 -28 37 -44 69 -44c12 0 25 2 43 6l-8 -34c-35 -12 -65 -17 -98 -17c-47 0 -86 16 -107 42c-15 20 -28 54 -39 101l-21 95c-17 74 -29 86 -87 86h-16zM271 352h51c61 0 101 19 129 61
c22 32 38 87 38 129s-16 70 -46 80c-14 4 -39 7 -72 7h-31zM276 -290h-49c37 40 61 82 70 121h-10c-26 0 -44 20 -44 47c0 37 32 69 70 69c33 0 58 -27 58 -63c0 -51 -36 -117 -95 -174z" />
    <glyph glyph-name="Scircumflex" unicode="&#x15c;" horiz-adv-x="545" 
d="M564 651l-46 -186h-32c3 17 4 25 4 41c0 83 -47 135 -122 135s-136 -51 -136 -114c0 -26 12 -50 36 -70c22 -19 30 -24 105 -70c99 -59 129 -99 129 -170c0 -123 -123 -228 -267 -228c-81 0 -142 26 -220 94l39 160h32c-4 -24 -5 -36 -5 -55c0 -99 52 -156 142 -156
c83 0 152 64 152 142c0 41 -18 63 -86 105c-85 51 -111 69 -135 92c-34 32 -49 63 -49 103c0 115 110 204 250 204c47 0 82 -8 133 -30c16 -7 29 -11 38 -11c10 0 20 3 38 14zM197 733l217 150h9l134 -150h-41l-119 62l-151 -62h-49z" />
    <glyph glyph-name="Gcommaaccent" unicode="&#x122;" horiz-adv-x="651" 
d="M668 640l-47 -187h-32c0 60 -1 76 -9 102c-18 58 -63 91 -124 91c-80 0 -142 -51 -198 -161c-49 -96 -81 -218 -81 -311s50 -153 129 -153c33 0 62 6 95 19l45 180c3 10 4 20 4 27c0 20 -13 26 -59 29l10 37c53 -5 84 -7 126 -7s73 2 129 7l-9 -37
c-53 -4 -66 -14 -75 -58l-44 -174c-85 -37 -164 -55 -237 -55c-153 0 -241 81 -241 222c0 123 48 256 124 342c72 82 163 125 265 125c55 0 86 -9 146 -41c16 -8 30 -13 38 -13c9 0 19 4 45 16zM234 -290h-49c37 40 60 82 69 121h-9c-25 0 -45 21 -45 47c0 36 34 69 71 69
c33 0 57 -26 57 -63c0 -53 -34 -116 -94 -174z" />
    <glyph glyph-name="uni01D3" unicode="&#x1d3;" horiz-adv-x="663" 
d="M553 633l9 37c42 -2 65 -3 100 -3s58 1 101 3l-9 -37c-40 -3 -69 -18 -81 -43c-14 -25 -19 -43 -59 -193l-35 -139c-25 -100 -44 -142 -84 -186c-50 -54 -121 -83 -207 -83c-122 0 -194 59 -194 159c0 25 5 60 15 100l79 315c4 15 6 30 6 38c0 24 -16 31 -71 32l10 37
c62 -5 96 -7 143 -7c46 0 81 2 149 7l-10 -37c-70 -1 -82 -10 -97 -70l-81 -326c-9 -35 -16 -78 -16 -98c0 -58 42 -91 115 -91c79 0 139 40 172 115c10 23 23 66 36 118l71 282c5 23 6 28 6 38c0 24 -15 31 -68 32zM685 883l-217 -150h-9l-134 150h41l119 -62l150 62h50z
" />
    <glyph glyph-name="Umacron" unicode="&#x16a;" horiz-adv-x="663" 
d="M553 633l9 37c42 -2 65 -3 100 -3s58 1 101 3l-9 -37c-40 -3 -69 -18 -81 -43c-14 -25 -19 -43 -59 -193l-35 -139c-25 -100 -44 -142 -84 -186c-50 -54 -121 -83 -207 -83c-122 0 -194 59 -194 159c0 25 5 60 15 100l79 315c4 15 6 30 6 38c0 24 -16 31 -71 32l10 37
c62 -5 96 -7 143 -7c46 0 81 2 149 7l-10 -37c-70 -1 -82 -10 -97 -70l-81 -326c-9 -35 -16 -78 -16 -98c0 -58 42 -91 115 -91c79 0 139 40 172 115c10 23 23 66 36 118l71 282c5 23 6 28 6 38c0 24 -15 31 -68 32zM308 773l14 57h337l-15 -57h-336z" />
    <glyph glyph-name="Uogonek" unicode="&#x172;" horiz-adv-x="663" 
d="M445 -107l-9 -34c-29 -12 -55 -18 -80 -18c-49 0 -77 23 -77 61c0 26 12 48 38 67c8 7 8 7 44 26c-27 -6 -39 -7 -62 -7c-131 0 -205 57 -205 160c0 25 5 60 15 100l79 315c4 15 6 30 6 38c0 24 -16 31 -71 32l10 37c62 -5 96 -7 143 -7c46 0 81 2 149 7l-10 -37
c-70 -1 -82 -10 -97 -70l-81 -326c-9 -35 -16 -78 -16 -98c0 -57 43 -92 115 -92c77 0 140 42 172 116c10 23 23 66 36 118l71 282c5 23 6 28 6 38c0 24 -15 31 -68 32l9 37c42 -2 65 -3 100 -3s58 1 101 3l-9 -37c-40 -3 -69 -18 -81 -43c-14 -25 -19 -43 -59 -193
l-35 -139c-33 -134 -56 -172 -149 -242c-44 -36 -70 -74 -70 -103c0 -19 13 -30 36 -30c13 0 23 2 49 10z" />
    <glyph glyph-name="Ebreve" unicode="&#x114;" horiz-adv-x="570" 
d="M531 185l-78 -185h-482l9 37c72 2 85 11 100 70l113 453c4 17 6 30 6 38c0 23 -16 31 -71 32l9 37h462l-16 -176h-31c0 73 -3 89 -18 109c-16 21 -41 29 -93 29h-101l-65 -261h200l-11 -45h-200l-55 -219c-4 -17 -7 -33 -7 -40c0 -18 15 -26 50 -26h51c65 0 97 15 141 65
c22 26 38 49 56 82h31zM525 878h39c-32 -93 -90 -143 -167 -143c-72 0 -115 44 -115 117c0 4 1 16 2 26h39c19 -49 42 -67 88 -67c40 0 71 18 114 67z" />
    <glyph glyph-name="uni01F4" unicode="&#x1f4;" horiz-adv-x="651" 
d="M668 640l-47 -187h-32c0 60 -1 76 -9 102c-18 58 -63 91 -124 91c-80 0 -142 -51 -198 -161c-49 -96 -81 -218 -81 -311s50 -153 129 -153c33 0 62 6 95 19l45 180c3 10 4 20 4 27c0 20 -13 26 -59 29l10 37c53 -5 84 -7 126 -7s73 2 129 7l-9 -37
c-53 -4 -66 -14 -75 -58l-44 -174c-85 -37 -164 -55 -237 -55c-153 0 -241 81 -241 222c0 123 48 256 124 342c72 82 163 125 265 125c55 0 86 -9 146 -41c16 -8 30 -13 38 -13c9 0 19 4 45 16zM416 738l97 126h192l-245 -126h-44z" />
    <glyph glyph-name="dotlessj" unicode="&#xf6be;" horiz-adv-x="281" 
d="M265 491l-84 -336c-36 -147 -51 -185 -92 -241c-53 -69 -133 -109 -218 -108l9 36c58 9 93 36 114 86c13 31 35 109 59 215l54 216c3 13 9 43 9 47c0 19 -11 24 -56 24l6 26c63 5 137 18 199 35z" />
    <glyph glyph-name="ij" unicode="&#x133;" horiz-adv-x="582" 
d="M283 491l-90 -326c-21 -72 -22 -76 -22 -94c0 -17 8 -27 22 -27c22 0 32 12 55 66l27 -7c-18 -75 -61 -114 -125 -114c-59 0 -99 37 -99 92c0 18 7 52 19 96l50 182c9 32 9 35 10 50c1 16 -12 21 -59 21l7 26c63 5 142 19 205 35zM258 687c32 0 56 -25 56 -60
c0 -46 -34 -83 -77 -83c-33 0 -58 25 -58 58c0 44 38 85 79 85zM573 491l-84 -336c-36 -147 -51 -185 -92 -241c-53 -69 -133 -109 -218 -108l9 36c58 9 93 36 114 86c13 31 35 109 59 215l54 216c3 12 9 42 9 47c1 19 -11 24 -56 24l6 26c63 5 137 18 199 35zM549 687
c33 0 56 -25 56 -60c0 -46 -34 -83 -76 -83c-34 0 -59 25 -59 58c0 44 38 85 79 85z" />
    <glyph glyph-name="uni01CE" unicode="&#x1ce;" horiz-adv-x="554" 
d="M526 483l-84 -295c-25 -89 -25 -90 -25 -110c0 -21 9 -32 25 -32c22 0 36 14 60 60l27 -12c-35 -72 -77 -105 -133 -105c-53 0 -83 29 -92 88c-37 -63 -76 -88 -132 -88c-91 0 -153 66 -153 163c0 75 40 177 94 240c51 60 113 91 178 91c59 0 87 -25 89 -80l20 70
c55 0 69 2 126 10zM304 455c-45 0 -79 -44 -120 -152c-27 -72 -48 -163 -48 -210s20 -76 52 -76c42 0 77 38 110 119c31 76 60 195 60 244c0 48 -19 75 -54 75zM559 699l-204 -163h-9l-114 163h38l103 -72l140 72h46z" />
    <glyph glyph-name="abreve" unicode="&#x103;" horiz-adv-x="554" 
d="M526 483l-84 -295c-25 -89 -25 -90 -25 -110c0 -21 9 -32 25 -32c22 0 36 14 60 60l27 -12c-35 -72 -77 -105 -133 -105c-53 0 -83 29 -92 88c-37 -63 -76 -88 -132 -88c-91 0 -153 66 -153 163c0 75 40 177 94 240c51 60 113 91 178 91c59 0 87 -25 89 -80l20 70
c55 0 69 2 126 10zM304 455c-45 0 -79 -44 -120 -152c-27 -72 -48 -163 -48 -210s20 -76 52 -76c42 0 77 38 110 119c31 76 60 195 60 244c0 48 -19 75 -54 75zM496 692h39c-33 -99 -90 -149 -169 -149c-72 0 -113 43 -113 120c0 5 1 18 2 29h39c17 -55 39 -73 86 -73
c42 0 70 18 116 73z" />
    <glyph glyph-name="aogonek" unicode="&#x105;" horiz-adv-x="554" 
d="M487 -107l-9 -34c-28 -12 -54 -18 -78 -18c-49 0 -79 23 -79 60s21 62 75 88c-54 1 -84 29 -92 88c-37 -63 -76 -88 -132 -88c-91 0 -153 66 -153 163c0 75 40 177 94 240c51 60 113 91 178 91c59 0 87 -25 89 -80l20 70c55 0 69 2 126 10l-84 -295
c-25 -89 -25 -90 -25 -110c0 -21 9 -32 25 -32c22 0 36 14 60 60l27 -12c-23 -48 -35 -62 -81 -101c-21 -19 -46 -62 -46 -81c0 -18 14 -29 36 -29c14 0 23 2 49 10zM304 455c-45 0 -79 -44 -120 -152c-27 -72 -48 -163 -48 -210s20 -76 52 -76c42 0 77 38 110 119
c31 76 60 195 60 244c0 48 -19 75 -54 75z" />
    <glyph glyph-name="cacute" unicode="&#x107;" horiz-adv-x="444" 
d="M459 468l-37 -171h-29c4 20 5 29 5 46c0 68 -29 109 -77 109c-49 0 -91 -40 -130 -124c-29 -61 -47 -134 -47 -188c0 -69 34 -111 89 -111c59 0 110 49 135 129h44c-42 -117 -111 -171 -214 -171c-107 0 -174 66 -174 171c0 176 128 327 278 327c32 0 56 -5 90 -20
c14 -6 28 -10 35 -10c10 0 18 3 32 13zM263 545l94 140h185l-235 -140h-44z" />
    <glyph glyph-name="ccaron" unicode="&#x10d;" horiz-adv-x="444" 
d="M459 468l-37 -171h-29c4 20 5 29 5 46c0 68 -29 109 -77 109c-49 0 -91 -40 -130 -124c-29 -61 -47 -134 -47 -188c0 -69 34 -111 89 -111c59 0 110 49 135 129h44c-42 -117 -111 -171 -214 -171c-107 0 -174 66 -174 171c0 176 128 327 278 327c32 0 56 -5 90 -20
c14 -6 28 -10 35 -10c10 0 18 3 32 13zM528 699l-204 -163h-10l-113 163h38l103 -72l139 72h47z" />
    <glyph glyph-name="cdotaccent" unicode="&#x10b;" horiz-adv-x="444" 
d="M459 468l-37 -171h-29c4 20 5 29 5 46c0 68 -29 109 -77 109c-49 0 -91 -40 -130 -124c-29 -61 -47 -134 -47 -188c0 -69 34 -111 89 -111c59 0 110 49 135 129h44c-42 -117 -111 -171 -214 -171c-107 0 -174 66 -174 171c0 176 128 327 278 327c32 0 56 -5 90 -20
c14 -6 28 -10 35 -10c10 0 18 3 32 13zM352 687c33 0 57 -24 57 -57c0 -47 -37 -85 -83 -85c-35 0 -59 23 -59 55c0 45 41 87 85 87z" />
    <glyph glyph-name="dcaron" unicode="&#x10f;" horiz-adv-x="654" 
d="M568 685l-124 -497c-21 -84 -22 -90 -22 -108c0 -21 10 -34 27 -34c22 0 36 15 58 60l27 -12c-33 -73 -72 -105 -131 -105c-50 0 -83 24 -96 71c-32 -50 -69 -71 -124 -71c-96 0 -160 68 -160 170c0 78 34 168 87 232c51 60 113 92 178 92c45 0 71 -13 93 -46l29 115
c8 36 8 36 8 47c0 21 -9 25 -58 25l7 26c59 4 138 18 201 35zM300 455c-40 0 -69 -32 -104 -112c-33 -75 -56 -176 -56 -246c0 -51 20 -80 55 -80c41 0 76 39 107 119c25 66 53 194 53 244c0 47 -21 75 -55 75zM624 446h-40c39 52 56 85 66 130c-4 -1 -7 -1 -9 -1
c-24 0 -41 19 -41 44c0 35 29 64 63 64c32 0 54 -24 54 -59c0 -52 -31 -112 -93 -178z" />
    <glyph glyph-name="dcroat" unicode="&#x111;" horiz-adv-x="554" 
d="M538 564h71l-10 -39h-71l-84 -337c-21 -84 -22 -90 -22 -108c0 -21 10 -34 26 -34c23 0 37 15 59 60l27 -12c-33 -74 -72 -105 -131 -105c-50 0 -83 24 -96 71c-32 -50 -69 -71 -124 -71c-96 0 -160 68 -160 170c0 79 34 168 87 232c51 60 113 92 178 92
c44 0 71 -13 93 -46l22 88h-108l9 39h109l1 6c3 13 4 21 4 31c0 18 -11 23 -58 23l7 26c57 4 139 18 201 35zM300 455c-40 0 -69 -32 -104 -112c-33 -76 -56 -176 -56 -246c0 -51 20 -80 55 -80c41 0 76 39 107 119c25 66 53 194 53 245c0 46 -21 74 -55 74z" />
    <glyph glyph-name="ecaron" unicode="&#x11b;" horiz-adv-x="450" 
d="M373 149h43c-44 -103 -124 -160 -225 -160c-104 0 -169 63 -169 164c0 82 36 178 90 240c52 58 121 90 194 90c86 0 139 -43 139 -112c0 -61 -44 -112 -130 -151c-52 -23 -99 -33 -169 -37c-5 -23 -7 -37 -7 -57c0 -60 35 -97 92 -97s111 45 142 120zM154 219h10
c97 0 178 79 178 174c0 38 -17 62 -43 62c-55 0 -113 -96 -145 -236zM513 699l-203 -163h-10l-114 163h38l104 -72l139 72h46z" />
    <glyph glyph-name="edotaccent" unicode="&#x117;" horiz-adv-x="450" 
d="M373 149h43c-44 -103 -124 -160 -225 -160c-104 0 -169 63 -169 164c0 82 36 178 90 240c52 58 121 90 194 90c86 0 139 -43 139 -112c0 -61 -44 -112 -130 -151c-52 -23 -99 -33 -169 -37c-5 -23 -7 -37 -7 -57c0 -60 35 -97 92 -97s111 45 142 120zM154 219h10
c97 0 178 79 178 174c0 38 -17 62 -43 62c-55 0 -113 -96 -145 -236zM342 687c32 0 57 -25 57 -57c0 -46 -38 -85 -83 -85c-35 0 -60 23 -60 55c0 45 41 87 86 87z" />
    <glyph glyph-name="eogonek" unicode="&#x119;" horiz-adv-x="450" 
d="M323 -107l-9 -34c-28 -12 -54 -18 -78 -18c-49 0 -79 23 -79 60c0 25 12 47 36 66c9 6 15 10 46 26c-23 -4 -35 -5 -47 -5c-104 0 -170 64 -170 165c0 82 36 178 90 240c52 58 121 90 194 90c86 0 139 -43 139 -112c0 -61 -44 -112 -130 -151c-52 -23 -99 -33 -169 -37
c-5 -23 -7 -37 -7 -57c0 -60 35 -97 92 -97s111 45 142 120h43c-21 -52 -55 -93 -114 -140c-46 -36 -66 -66 -64 -98c1 -17 15 -28 36 -28c14 0 23 2 49 10zM154 219h10c97 0 178 79 178 174c0 38 -17 62 -43 62c-55 0 -113 -96 -145 -236z" />
    <glyph glyph-name="gcaron" unicode="&#x1e7;" horiz-adv-x="469" 
d="M390 450l117 5l-13 -50h-73c9 -17 13 -34 13 -58c0 -62 -28 -117 -76 -148c-34 -23 -67 -30 -134 -30c-29 -7 -50 -14 -68 -22c-13 -7 -26 -22 -26 -33c0 -5 5 -12 10 -16c11 -6 12 -6 86 -12c148 -11 194 -40 194 -121c0 -58 -32 -111 -85 -140
c-42 -23 -91 -33 -157 -33c-129 0 -204 43 -204 116c0 53 33 87 102 105c-27 20 -38 37 -38 61c0 25 16 50 46 71c14 10 31 18 67 34c-57 29 -82 65 -82 119c0 105 91 185 210 185c49 0 78 -9 111 -33zM283 455c-33 0 -55 -18 -76 -64c-18 -40 -35 -109 -35 -142
c0 -35 20 -57 52 -57c31 0 55 21 74 64c17 39 33 110 33 145s-17 54 -48 54zM166 -12c-102 0 -147 -24 -147 -78c0 -49 57 -82 142 -82c56 0 80 3 104 14c33 16 52 43 52 76c0 51 -41 70 -151 70zM498 699l-197 -163h-16l-114 163h38l103 -72l139 72h47z" />
    <glyph glyph-name="gbreve" unicode="&#x11f;" horiz-adv-x="469" 
d="M390 450l117 5l-13 -50h-73c9 -17 13 -34 13 -58c0 -62 -28 -117 -76 -148c-34 -23 -67 -30 -134 -30c-29 -7 -50 -14 -68 -22c-13 -7 -26 -22 -26 -33c0 -5 5 -12 10 -16c11 -6 12 -6 86 -12c148 -11 194 -40 194 -121c0 -58 -32 -111 -85 -140
c-42 -23 -91 -33 -157 -33c-129 0 -204 43 -204 116c0 53 33 87 102 105c-27 20 -38 37 -38 61c0 25 16 50 46 71c14 10 31 18 67 34c-57 29 -82 65 -82 119c0 105 91 185 210 185c49 0 78 -9 111 -33zM283 455c-33 0 -55 -18 -76 -64c-18 -40 -35 -109 -35 -142
c0 -35 20 -57 52 -57c31 0 55 21 74 64c17 39 33 110 33 145s-17 54 -48 54zM166 -12c-102 0 -147 -24 -147 -78c0 -49 57 -82 142 -82c56 0 80 3 104 14c33 16 52 43 52 76c0 51 -41 70 -151 70zM437 692h39c-33 -99 -90 -149 -169 -149c-72 0 -113 44 -113 120
c0 4 1 18 2 29h39c18 -55 39 -73 86 -73c42 0 70 18 116 73z" />
    <glyph glyph-name="gdotaccent" unicode="&#x121;" horiz-adv-x="469" 
d="M390 450l117 5l-13 -50h-73c9 -17 13 -34 13 -58c0 -62 -28 -117 -76 -148c-34 -23 -67 -30 -134 -30c-29 -7 -50 -14 -68 -22c-13 -7 -26 -22 -26 -33c0 -5 5 -12 10 -16c11 -6 12 -6 86 -12c148 -11 194 -40 194 -121c0 -58 -32 -111 -85 -140
c-42 -23 -91 -33 -157 -33c-129 0 -204 43 -204 116c0 53 33 87 102 105c-27 20 -38 37 -38 61c0 25 16 50 46 71c14 10 31 18 67 34c-57 29 -82 65 -82 119c0 105 91 185 210 185c49 0 78 -9 111 -33zM283 455c-33 0 -55 -18 -76 -64c-18 -40 -35 -109 -35 -142
c0 -35 20 -57 52 -57c31 0 55 21 74 64c17 39 33 110 33 145s-17 54 -48 54zM166 -12c-102 0 -147 -24 -147 -78c0 -49 57 -82 142 -82c56 0 80 3 104 14c33 16 52 43 52 76c0 51 -41 70 -151 70zM329 687c32 0 58 -26 58 -57c0 -46 -39 -85 -84 -85c-34 0 -59 23 -59 55
c0 45 41 87 85 87z" />
    <glyph glyph-name="lacute" unicode="&#x13a;" horiz-adv-x="310" 
d="M324 685l-130 -520c-16 -62 -19 -79 -19 -91c0 -19 8 -30 23 -30c23 0 34 15 53 66l27 -7c-18 -78 -57 -114 -122 -114c-60 0 -101 39 -101 94c0 19 6 53 16 94l93 376c7 25 10 41 10 46c0 19 -14 25 -60 25l6 26c60 4 139 18 204 35zM187 732l90 126h185l-231 -126h-44z
" />
    <glyph glyph-name="lcaron" unicode="&#x13e;" horiz-adv-x="416" 
d="M324 685l-130 -520c-16 -62 -19 -79 -19 -91c0 -19 8 -30 23 -30c23 0 34 15 53 66l27 -7c-18 -78 -57 -114 -122 -114c-60 0 -101 39 -101 94c0 19 6 53 16 94l93 376c7 25 10 41 10 46c0 19 -14 25 -60 25l6 26c60 4 139 18 204 35zM381 451h-47c41 41 66 83 73 125
c-4 -1 -7 -1 -9 -1c-24 0 -43 21 -43 46c0 36 32 67 68 67c33 0 56 -25 56 -60c0 -30 -10 -64 -29 -96c-18 -29 -25 -38 -69 -81z" />
    <glyph glyph-name="nacute" unicode="&#x144;" horiz-adv-x="581" 
d="M63 429l6 26c64 6 123 16 168 29c2 -10 3 -26 3 -41c0 -14 0 -20 -5 -43c45 56 98 83 162 83c71 0 115 -37 115 -97c0 -24 -4 -51 -12 -83l-34 -138c-19 -74 -19 -76 -19 -92c0 -19 8 -29 22 -29c22 0 32 12 53 66l27 -7c-16 -75 -58 -114 -122 -114
c-59 0 -101 39 -101 93c0 20 4 44 17 95l36 141c7 29 9 44 9 62c0 30 -20 50 -51 50c-50 0 -87 -41 -106 -114l-79 -316h-125l89 357c7 39 8 43 8 49c0 17 -13 22 -61 23zM274 545l94 140h185l-234 -140h-45z" />
    <glyph glyph-name="ncaron" unicode="&#x148;" horiz-adv-x="581" 
d="M63 429l6 26c64 6 123 16 168 29c2 -10 3 -26 3 -41c0 -14 0 -20 -5 -43c45 56 98 83 162 83c71 0 115 -37 115 -97c0 -24 -4 -51 -12 -83l-34 -138c-19 -74 -19 -76 -19 -92c0 -19 8 -29 22 -29c22 0 32 12 53 66l27 -7c-16 -75 -58 -114 -122 -114
c-59 0 -101 39 -101 93c0 20 4 44 17 95l36 141c7 29 9 44 9 62c0 30 -20 50 -51 50c-50 0 -87 -41 -106 -114l-79 -316h-125l89 357c7 39 8 43 8 49c0 17 -13 22 -61 23zM543 699l-203 -163h-10l-114 163h38l104 -72l139 72h46z" />
    <glyph glyph-name="ohungarumlaut" unicode="&#x151;" horiz-adv-x="503" 
d="M306 483c108 0 175 -69 175 -181c0 -175 -123 -313 -278 -313c-109 0 -176 68 -176 181c0 176 122 313 279 313zM301 455c-43 0 -73 -30 -104 -104c-31 -75 -53 -175 -53 -246c0 -58 21 -88 62 -88c46 0 77 34 110 117c29 75 48 166 48 230c0 62 -20 91 -63 91zM186 545
l74 140h155l-188 -140h-41zM370 545l74 140h155l-188 -140h-41z" />
    <glyph glyph-name="racute" unicode="&#x155;" horiz-adv-x="405" 
d="M63 429l6 26c61 3 116 11 165 24v-7v-12v-5c1 -15 -4 -52 -11 -80c47 73 87 101 143 101c44 0 74 -28 74 -70c0 -40 -29 -74 -64 -74c-29 0 -50 19 -50 44c0 14 7 25 21 33c-4 12 -10 16 -23 16c-24 0 -48 -21 -70 -62c-17 -31 -25 -54 -47 -142l-55 -221h-125l89 357
c5 20 9 41 9 50c0 18 -10 21 -62 22zM217 545l94 140h185l-235 -140h-44z" />
    <glyph glyph-name="sacute" unicode="&#x15b;" horiz-adv-x="448" 
d="M429 472l-29 -135h-30c1 8 1 15 1 20c0 57 -34 92 -90 92c-49 0 -88 -30 -88 -67c0 -24 13 -40 48 -60c50 -31 84 -53 107 -70c31 -25 48 -59 48 -93c0 -99 -89 -171 -211 -171c-70 0 -113 18 -168 69l24 112h28v-10c-1 -9 -1 -20 -1 -22c0 -68 44 -114 108 -114
c58 0 103 42 103 97c0 33 -13 50 -58 77c-111 66 -137 94 -137 148c0 80 76 139 179 139c35 0 55 -4 93 -18c14 -5 26 -8 34 -8c9 0 19 3 39 14zM218 545l94 140h185l-234 -140h-45z" />
    <glyph glyph-name="scircumflex" unicode="&#x15d;" horiz-adv-x="448" 
d="M429 472l-29 -135h-30c1 8 1 15 1 20c0 57 -34 92 -90 92c-49 0 -88 -30 -88 -67c0 -24 13 -40 48 -60c50 -31 84 -53 107 -70c31 -25 48 -59 48 -93c0 -99 -89 -171 -211 -171c-70 0 -113 18 -168 69l24 112h28v-10c-1 -9 -1 -20 -1 -22c0 -68 44 -114 108 -114
c58 0 103 42 103 97c0 33 -13 50 -58 77c-111 66 -137 94 -137 148c0 80 76 139 179 139c35 0 55 -4 93 -18c14 -5 26 -8 34 -8c9 0 19 3 39 14zM122 536l204 163h9l114 -163h-38l-103 72l-139 -72h-47z" />
    <glyph glyph-name="scommaaccent" unicode="&#x219;" horiz-adv-x="448" 
d="M429 472l-29 -135h-30c1 8 1 15 1 20c0 57 -34 92 -90 92c-49 0 -88 -30 -88 -67c0 -24 13 -40 48 -60c50 -31 84 -53 107 -70c31 -25 48 -59 48 -93c0 -99 -89 -171 -211 -171c-70 0 -113 18 -168 69l24 112h28v-10c-1 -9 -1 -20 -1 -22c0 -68 44 -114 108 -114
c58 0 103 42 103 97c0 33 -13 50 -58 77c-111 66 -137 94 -137 148c0 80 76 139 179 139c35 0 55 -4 93 -18c14 -5 26 -8 34 -8c9 0 19 3 39 14zM110 -287h-46c40 40 65 83 73 125c-4 -1 -8 -1 -10 -1c-24 0 -42 20 -42 46c0 37 31 67 68 67c33 0 55 -25 55 -60
c0 -60 -26 -107 -98 -177z" />
    <glyph glyph-name="tcaron" unicode="&#x165;" horiz-adv-x="410" 
d="M281 70l-10 -40c-37 -26 -74 -39 -112 -39c-61 0 -100 41 -100 104c0 23 2 37 16 95l60 244h-61l9 35c71 0 141 58 183 152h38l-37 -150h94l-9 -37h-94l-57 -249c-17 -80 -17 -80 -17 -96c0 -26 16 -45 37 -45c14 0 33 8 60 26zM375 524h-46c40 40 65 84 73 125
c-4 -1 -8 -1 -9 -1c-24 0 -43 21 -43 46c0 37 31 67 68 67c33 0 56 -25 56 -60c0 -29 -11 -64 -30 -96c-17 -29 -26 -40 -69 -81z" />
    <glyph glyph-name="uring" unicode="&#x16f;" horiz-adv-x="584" 
d="M66 430l6 26c63 5 142 19 203 35l-86 -344c-5 -22 -9 -43 -9 -53c0 -31 20 -52 50 -52c35 0 70 28 93 73c9 19 23 61 33 102l64 256c55 1 71 2 128 10l-73 -292c-21 -84 -22 -90 -22 -109c0 -20 11 -34 27 -34c20 0 37 17 57 60l28 -12c-32 -72 -73 -105 -132 -105
c-55 0 -86 27 -96 82c-52 -58 -98 -82 -159 -82c-74 0 -121 41 -121 106c0 16 3 33 9 59l51 203c4 18 9 43 9 48c0 19 -12 23 -60 23zM374 716c48 0 88 -40 88 -89s-41 -90 -89 -90c-49 0 -90 41 -90 89c0 51 40 90 91 90zM373 673c-26 0 -47 -21 -47 -46s22 -47 46 -47
c25 0 47 22 47 47c0 24 -21 46 -46 46z" />
    <glyph glyph-name="uhungarumlaut" unicode="&#x171;" horiz-adv-x="584" 
d="M66 430l6 26c63 5 142 19 203 35l-86 -344c-5 -22 -9 -43 -9 -53c0 -31 20 -52 50 -52c35 0 70 28 93 73c9 19 23 61 33 102l64 256c55 1 71 2 128 10l-73 -292c-21 -84 -22 -90 -22 -109c0 -20 11 -34 27 -34c20 0 37 17 57 60l28 -12c-32 -72 -73 -105 -132 -105
c-55 0 -86 27 -96 82c-52 -58 -98 -82 -159 -82c-74 0 -121 41 -121 106c0 16 3 33 9 59l51 203c4 18 9 43 9 48c0 19 -12 23 -60 23zM220 545l74 140h155l-188 -140h-41zM403 545l74 140h155l-188 -140h-41z" />
    <glyph glyph-name="zacute" unicode="&#x17a;" horiz-adv-x="427" 
d="M439 473h43l-401 -394c43 29 79 42 119 42c24 0 31 -1 75 -14c8 -3 17 -4 25 -4c37 0 64 22 78 65h29c-13 -104 -87 -173 -184 -173c-31 0 -49 4 -124 26c-17 5 -30 8 -41 8c-18 0 -37 -10 -59 -29h-43l406 399c-52 -32 -81 -42 -115 -42c-16 0 -30 3 -55 11
c-26 8 -34 10 -46 10c-30 0 -47 -19 -52 -57h-32c6 93 63 159 136 159c22 0 37 -3 82 -18c40 -13 63 -18 84 -18c28 0 47 7 75 29zM238 545l94 140h185l-234 -140h-45z" />
    <glyph glyph-name="zdotaccent" unicode="&#x17c;" horiz-adv-x="427" 
d="M439 473h43l-401 -394c43 29 79 42 119 42c24 0 31 -1 75 -14c8 -3 17 -4 25 -4c37 0 64 22 78 65h29c-13 -104 -87 -173 -184 -173c-31 0 -49 4 -124 26c-17 5 -30 8 -41 8c-18 0 -37 -10 -59 -29h-43l406 399c-52 -32 -81 -42 -115 -42c-16 0 -30 3 -55 11
c-26 8 -34 10 -46 10c-30 0 -47 -19 -52 -57h-32c6 93 63 159 136 159c22 0 37 -3 82 -18c40 -13 63 -18 84 -18c28 0 47 7 75 29zM331 687c33 0 57 -24 57 -57c0 -47 -37 -85 -83 -85c-34 0 -60 24 -60 55c0 45 42 87 86 87z" />
    <glyph glyph-name="hbar" unicode="&#x127;" horiz-adv-x="579" 
d="M293 564h110l-9 -39h-111l-25 -100c40 39 86 58 139 58c70 0 114 -38 114 -99c0 -19 -3 -42 -10 -68l-37 -151c-18 -64 -20 -76 -20 -92c0 -18 9 -29 23 -29c22 0 32 12 52 66l28 -7c-16 -75 -58 -114 -123 -114c-58 0 -100 39 -100 93c0 19 5 47 17 95l39 155
c6 24 8 35 8 46c0 32 -21 52 -54 52c-48 0 -84 -40 -103 -114l-79 -316h-125l131 525h-71l10 39h71l2 8c2 9 4 22 4 26c0 21 -11 26 -62 26l6 26c59 4 141 18 205 35z" />
    <glyph glyph-name="tcommaaccent" unicode="&#x163;" horiz-adv-x="321" 
d="M281 70l-10 -40c-38 -26 -74 -39 -112 -39c-61 0 -100 40 -100 104c0 24 2 38 16 95l60 244h-61l9 35c71 0 140 57 182 152h39l-37 -150h94l-10 -37h-94l-56 -249c-17 -79 -17 -79 -17 -96c0 -26 15 -45 36 -45c15 0 34 8 61 26zM80 -287h-46c40 40 65 83 73 125
c-4 -1 -7 -1 -9 -1c-24 0 -43 20 -43 46c0 36 32 67 68 67c32 0 56 -25 56 -60c0 -30 -11 -64 -30 -96c-17 -29 -25 -38 -69 -81z" />
    <glyph glyph-name="amacron" unicode="&#x101;" horiz-adv-x="554" 
d="M526 483l-84 -295c-25 -89 -25 -90 -25 -110c0 -21 9 -32 25 -32c22 0 36 14 60 60l27 -12c-35 -72 -77 -105 -133 -105c-53 0 -83 29 -92 88c-37 -63 -76 -88 -132 -88c-91 0 -153 66 -153 163c0 75 40 177 94 240c51 60 113 91 178 91c59 0 87 -25 89 -80l20 70
c55 0 69 2 126 10zM304 455c-45 0 -79 -44 -120 -152c-27 -72 -48 -163 -48 -210s20 -76 52 -76c42 0 77 38 110 119c31 76 60 195 60 244c0 48 -19 75 -54 75zM192 576l15 61h344l-15 -61h-344z" />
    <glyph glyph-name="ycircumflex" unicode="&#x177;" horiz-adv-x="451" 
d="M157 16l-69 364c-11 53 -20 63 -63 67l7 28c57 -4 87 -5 125 -5c37 0 68 1 127 5l-7 -28c-50 -4 -60 -9 -60 -30c0 -4 0 -4 3 -22l36 -235l139 211c29 41 32 47 32 60c0 16 -17 23 -46 19l-4 27c61 8 82 14 118 33c4 -17 5 -23 5 -31c0 -25 0 -25 -77 -137l-269 -392
c-82 -119 -125 -150 -214 -150h-22v70c20 -9 39 -13 57 -13c50 0 99 39 162 130zM121 536l203 163h10l114 -163h-38l-104 72l-139 -72h-46z" />
    <glyph glyph-name="emacron" unicode="&#x113;" horiz-adv-x="450" 
d="M373 149h43c-44 -103 -124 -160 -225 -160c-104 0 -169 63 -169 164c0 82 36 178 90 240c52 58 121 90 194 90c86 0 139 -43 139 -112c0 -61 -44 -112 -130 -151c-52 -23 -99 -33 -169 -37c-5 -23 -7 -37 -7 -57c0 -60 35 -97 92 -97s111 45 142 120zM154 219h10
c97 0 178 79 178 174c0 38 -17 62 -43 62c-55 0 -113 -96 -145 -236zM142 576l16 61h344l-16 -61h-344z" />
    <glyph glyph-name="gcircumflex" unicode="&#x11d;" horiz-adv-x="469" 
d="M390 450l117 5l-13 -50h-73c9 -17 13 -34 13 -58c0 -62 -28 -117 -76 -148c-34 -23 -67 -30 -134 -30c-29 -7 -50 -14 -68 -22c-13 -7 -26 -22 -26 -33c0 -5 5 -12 10 -16c11 -6 12 -6 86 -12c148 -11 194 -40 194 -121c0 -58 -32 -111 -85 -140
c-42 -23 -91 -33 -157 -33c-129 0 -204 43 -204 116c0 53 33 87 102 105c-27 20 -38 37 -38 61c0 25 16 50 46 71c14 10 31 18 67 34c-57 29 -82 65 -82 119c0 105 91 185 210 185c49 0 78 -9 111 -33zM283 455c-33 0 -55 -18 -76 -64c-18 -40 -35 -109 -35 -142
c0 -35 20 -57 52 -57c31 0 55 21 74 64c17 39 33 110 33 145s-17 54 -48 54zM166 -12c-102 0 -147 -24 -147 -78c0 -49 57 -82 142 -82c56 0 80 3 104 14c33 16 52 43 52 76c0 51 -41 70 -151 70zM127 536l204 163h9l114 -163h-38l-103 72l-139 -72h-47z" />
    <glyph glyph-name="ibreve" unicode="&#x12d;" horiz-adv-x="310" 
d="M283 491l-90 -326c-21 -72 -22 -76 -22 -94c0 -17 8 -27 22 -27c22 0 32 12 55 66l27 -7c-18 -75 -61 -114 -125 -114c-59 0 -99 37 -99 92c0 18 7 52 19 96l50 182c9 32 9 35 10 50c1 16 -12 21 -59 21l7 26c63 5 142 19 205 35zM362 692h39c-33 -99 -91 -149 -170 -149
c-71 0 -116 48 -113 120c0 9 1 18 2 29h40c17 -55 39 -73 85 -73c42 0 71 18 117 73z" />
    <glyph glyph-name="imacron" unicode="&#x12b;" horiz-adv-x="310" 
d="M283 491l-90 -326c-21 -72 -22 -76 -22 -94c0 -17 8 -27 22 -27c22 0 32 12 55 66l27 -7c-18 -75 -61 -114 -125 -114c-59 0 -99 37 -99 92c0 18 7 52 19 96l50 182c9 32 9 35 10 50c1 16 -12 21 -59 21l7 26c63 5 142 19 205 35zM96 576l16 61h264l-15 -61h-265z" />
    <glyph glyph-name="kcommaaccent" unicode="&#x137;" horiz-adv-x="541" 
d="M211 235l148 141c18 17 27 32 27 45c0 17 -11 23 -47 26l7 28c40 -4 63 -5 107 -5s75 1 127 5l-7 -28c-52 -5 -71 -14 -123 -56l-96 -82l62 -179c16 -43 18 -50 26 -66c11 -22 28 -33 53 -33c3 0 15 1 25 2l-7 -27c-28 -12 -52 -17 -78 -17c-66 0 -106 35 -134 114
l-44 124l-61 -53l-44 -174h-125l138 552c6 23 9 41 9 48c0 20 -11 24 -60 24l6 26c80 9 99 12 203 35zM200 -287h-46c40 40 65 83 73 125c-4 -1 -8 -1 -10 -1c-24 0 -42 20 -42 46c0 37 31 67 68 67c33 0 55 -25 55 -60c0 -60 -26 -107 -98 -177z" />
    <glyph glyph-name="lcommaaccent" unicode="&#x13c;" horiz-adv-x="310" 
d="M324 685l-130 -520c-15 -61 -19 -80 -19 -91c0 -19 9 -30 23 -30c23 0 34 15 53 66l28 -7c-19 -78 -58 -114 -123 -114c-59 0 -101 39 -101 94c0 18 6 53 16 94l94 376c7 30 9 39 9 46c0 20 -13 25 -60 25l6 26c60 4 140 18 204 35zM74 -287h-46c40 40 65 83 73 125
c-4 -1 -7 -1 -9 -1c-24 0 -43 20 -43 46c0 36 32 67 68 67c32 0 56 -25 56 -60c0 -30 -11 -64 -30 -96c-17 -29 -25 -38 -69 -81z" />
    <glyph glyph-name="ncommaaccent" unicode="&#x146;" horiz-adv-x="581" 
d="M63 429l6 26c64 6 123 16 168 29c2 -10 3 -26 3 -41c0 -14 0 -20 -5 -43c45 56 98 83 162 83c71 0 115 -37 115 -97c0 -24 -4 -51 -12 -83l-34 -138c-19 -74 -19 -76 -19 -92c0 -19 8 -29 22 -29c22 0 32 12 53 66l27 -7c-16 -75 -58 -114 -122 -114
c-59 0 -101 39 -101 93c0 20 4 44 17 95l36 141c7 29 9 44 9 62c0 30 -20 50 -51 50c-50 0 -87 -41 -106 -114l-79 -316h-125l89 357c7 39 8 43 8 49c0 17 -13 22 -61 23zM193 -287h-46c40 40 65 83 73 125c-4 -1 -7 -1 -9 -1c-24 0 -43 20 -43 46c0 36 32 67 68 67
c32 0 56 -25 56 -60c0 -30 -11 -64 -30 -96c-17 -29 -25 -38 -69 -81z" />
    <glyph glyph-name="omacron" unicode="&#x14d;" horiz-adv-x="503" 
d="M306 483c108 0 175 -69 175 -181c0 -175 -123 -313 -278 -313c-109 0 -176 68 -176 181c0 176 122 313 279 313zM301 455c-43 0 -73 -30 -104 -104c-31 -75 -53 -175 -53 -246c0 -58 21 -88 62 -88c46 0 77 34 110 117c29 75 48 166 48 230c0 62 -20 91 -63 91zM163 576
l16 61h344l-16 -61h-344z" />
    <glyph glyph-name="rcommaaccent" unicode="&#x157;" horiz-adv-x="405" 
d="M63 429l7 26c61 3 115 11 164 24l1 -7v-12c0 -25 -4 -56 -11 -85c47 73 86 101 142 101c45 0 74 -27 74 -70c0 -41 -28 -74 -64 -74c-29 0 -49 18 -49 44c0 15 6 25 20 33c-3 12 -10 16 -23 16c-23 0 -47 -21 -70 -62c-17 -31 -24 -54 -46 -142l-55 -221h-126l90 357
c4 17 9 44 9 50c0 18 -10 21 -63 22zM32 -287h-46c40 40 65 83 73 125c-4 -1 -7 -1 -9 -1c-24 0 -43 20 -43 46c0 36 32 67 68 67c32 0 56 -25 56 -60c0 -30 -11 -64 -30 -96c-17 -29 -25 -38 -69 -81z" />
    <glyph glyph-name="ubreve" unicode="&#x16d;" horiz-adv-x="584" 
d="M66 430l6 26c63 5 142 19 203 35l-86 -344c-5 -22 -9 -43 -9 -53c0 -31 20 -52 50 -52c35 0 70 28 93 73c9 19 23 61 33 102l64 256c55 1 71 2 128 10l-73 -292c-21 -84 -22 -90 -22 -109c0 -20 11 -34 27 -34c20 0 37 17 57 60l28 -12c-32 -72 -73 -105 -132 -105
c-55 0 -86 27 -96 82c-52 -58 -98 -82 -159 -82c-74 0 -121 41 -121 106c0 16 3 33 9 59l51 203c4 18 9 43 9 48c0 19 -12 23 -60 23zM492 692h39c-33 -99 -91 -149 -170 -149c-72 0 -112 43 -112 120c0 5 1 18 2 29h39c17 -55 39 -73 85 -73c42 0 71 18 117 73z" />
    <glyph glyph-name="umacron" unicode="&#x16b;" horiz-adv-x="584" 
d="M66 430l6 26c63 5 142 19 203 35l-86 -344c-5 -22 -9 -43 -9 -53c0 -31 20 -52 50 -52c35 0 70 28 93 73c9 19 23 61 33 102l64 256c55 1 71 2 128 10l-73 -292c-21 -84 -22 -90 -22 -109c0 -20 11 -34 27 -34c20 0 37 17 57 60l28 -12c-32 -72 -73 -105 -132 -105
c-55 0 -86 27 -96 82c-52 -58 -98 -82 -159 -82c-74 0 -121 41 -121 106c0 16 3 33 9 59l51 203c4 18 9 43 9 48c0 19 -12 23 -60 23zM193 576l16 61h344l-16 -61h-344z" />
    <glyph glyph-name="uogonek" unicode="&#x173;" horiz-adv-x="584" 
d="M520 -107l-8 -34c-29 -12 -55 -18 -79 -18c-49 0 -79 23 -79 60c0 38 22 63 80 90c-58 2 -90 29 -97 82c-52 -58 -98 -82 -159 -82c-74 0 -121 41 -121 106c0 16 3 33 9 59l51 203c4 18 9 43 9 48c0 19 -12 23 -60 23l6 26c63 5 142 19 203 35l-86 -344
c-5 -22 -9 -43 -9 -53c0 -31 20 -52 50 -52c35 0 70 28 93 73c9 19 23 61 33 102l64 256c55 1 71 2 128 10l-73 -292c-21 -84 -22 -90 -22 -109c0 -21 10 -33 27 -33c22 0 36 15 57 59l28 -12c-17 -39 -32 -60 -70 -94c-40 -36 -60 -67 -60 -90c0 -17 15 -29 36 -29
c14 0 23 2 49 10z" />
    <glyph glyph-name="rcaron" unicode="&#x159;" horiz-adv-x="405" 
d="M63 429l6 26c61 3 116 11 165 24v-7v-12v-5c1 -15 -4 -52 -11 -80c47 73 87 101 143 101c44 0 74 -28 74 -70c0 -40 -29 -74 -64 -74c-29 0 -50 19 -50 44c0 14 7 25 21 33c-4 12 -10 16 -23 16c-24 0 -48 -21 -70 -62c-17 -31 -25 -54 -47 -142l-55 -221h-125l89 357
c5 20 9 41 9 50c0 18 -10 21 -62 22zM482 699l-204 -163h-9l-114 163h38l103 -72l139 72h47z" />
    <glyph glyph-name="scedilla" unicode="&#x15f;" horiz-adv-x="448" 
d="M201 -12l-34 -40c50 -1 71 -17 71 -54c0 -52 -48 -91 -113 -91c-26 0 -43 4 -77 17l8 31c26 -7 36 -9 52 -9c32 0 54 19 54 46c0 22 -20 34 -54 34h-9l56 67c-52 5 -93 24 -138 68l24 112h28v-10c-1 -9 -1 -20 -1 -22c0 -68 44 -114 108 -114c58 0 103 42 103 97
c0 33 -13 50 -58 77c-111 66 -137 94 -137 148c0 80 76 139 179 139c35 0 55 -4 93 -18c14 -5 26 -8 34 -8c9 0 19 3 39 14l-29 -135h-30c1 8 1 15 1 20c0 57 -34 92 -90 92c-49 0 -88 -30 -88 -67c0 -24 13 -40 48 -60c50 -31 84 -53 107 -70c30 -25 48 -59 48 -93
c0 -93 -85 -167 -195 -171z" />
    <glyph glyph-name="gcommaaccent" unicode="&#x123;" horiz-adv-x="469" 
d="M390 450l117 5l-13 -50h-73c9 -17 13 -34 13 -58c0 -62 -28 -117 -76 -148c-34 -23 -67 -30 -134 -30c-29 -7 -50 -14 -68 -22c-13 -7 -26 -22 -26 -33c0 -5 5 -12 10 -16c11 -6 12 -6 86 -12c148 -11 194 -40 194 -121c0 -58 -32 -111 -85 -140
c-42 -23 -91 -33 -157 -33c-129 0 -204 43 -204 116c0 53 33 87 102 105c-27 20 -38 37 -38 61c0 25 16 50 46 71c14 10 31 18 67 34c-57 29 -82 65 -82 119c0 105 91 185 210 185c49 0 78 -9 111 -33zM283 455c-33 0 -55 -18 -76 -64c-18 -40 -35 -109 -35 -142
c0 -35 20 -57 52 -57c31 0 55 21 74 64c17 39 33 110 33 145s-17 54 -48 54zM166 -12c-102 0 -147 -24 -147 -78c0 -49 57 -82 142 -82c56 0 80 3 104 14c33 16 52 43 52 76c0 51 -41 70 -151 70zM353 772h47c-41 -36 -69 -81 -77 -125c4 1 8 1 10 1c23 0 43 -21 43 -46
c0 -35 -32 -66 -69 -66c-33 0 -55 23 -55 60c0 60 33 117 101 176z" />
    <glyph glyph-name="Euro" unicode="&#x20ac;" horiz-adv-x="547" 
d="M403 252h-194c-1 -20 -1 -25 -1 -26c0 -111 42 -169 123 -169c60 0 123 29 180 82l-20 -79c-61 -50 -118 -72 -190 -72c-137 0 -211 85 -211 242c0 4 0 12 1 22h-95l38 44h60c5 33 6 41 12 65h-70l38 44h47c60 164 178 261 316 261c47 0 68 -6 124 -33
c12 -6 23 -10 30 -10c12 0 21 3 42 15l-42 -197h-32c0 48 -2 69 -8 92c-14 58 -48 90 -96 90c-87 0 -168 -82 -214 -218h269l-31 -44h-252c-2 -8 -4 -16 -6 -25c-3 -13 -4 -17 -7 -40h220z" />
    <glyph glyph-name="peseta" unicode="&#x20a7;" horiz-adv-x="1010" 
d="M254 283l-45 -179c-4 -17 -6 -28 -6 -37c0 -24 16 -32 72 -33l-9 -37c-62 5 -96 7 -146 7s-85 -2 -150 -7l9 37c72 1 85 10 100 70l114 456c4 17 5 25 5 38c0 24 -15 30 -70 32l9 37h275c84 0 123 -8 158 -34c30 -22 49 -64 49 -107c0 -75 -36 -150 -91 -190
c-47 -35 -113 -53 -191 -53h-83zM263 321h44c67 0 111 22 141 73c24 38 42 101 42 145c0 63 -33 90 -110 90h-40zM664 48l-7 -29c-25 -17 -46 -24 -72 -24c-39 0 -64 25 -64 63c0 14 2 26 9 57l35 143h-37l6 25c46 0 86 32 113 90h27l-22 -89h58l-6 -26h-59l-33 -146l-5 -24
l-3 -18c-1 -6 -2 -11 -2 -15c0 -14 9 -24 22 -24c12 0 18 3 40 17zM969 286l-18 -86h-23c1 5 1 11 1 14c0 32 -22 53 -55 53c-29 0 -51 -16 -51 -38c0 -13 8 -22 29 -34c77 -43 98 -64 98 -99c0 -59 -56 -103 -132 -103c-45 0 -71 10 -107 42l15 70h22c-1 -4 -1 -7 -1 -8v-9
v-7c0 -36 28 -63 65 -63c35 0 62 24 62 54c0 19 -9 30 -36 45c-70 40 -87 57 -87 90c0 49 48 85 113 85c20 0 36 -3 58 -11c9 -3 16 -5 20 -5c6 0 13 2 27 10z" />
    <glyph glyph-name="lira" unicode="&#x20a4;" horiz-adv-x="547" 
d="M297 410h120l-10 -38h-124l-22 -57h132l-9 -38h-138l-6 -16c-37 -93 -76 -148 -148 -206c68 27 97 35 131 35c20 0 29 -1 69 -11c28 -7 47 -10 59 -10c50 0 85 31 123 109h32c-18 -77 -45 -123 -88 -151c-30 -20 -63 -27 -125 -27h-306c47 48 64 82 121 234l15 43h-75
l10 38h79l21 57h-86l10 38h91l6 16c33 87 70 148 115 187c50 43 107 65 169 65c87 0 129 -41 129 -126c0 -11 -1 -20 -2 -37h-50c2 15 2 20 2 33c0 58 -22 85 -69 85c-45 0 -79 -22 -109 -69c-17 -27 -28 -51 -58 -132z" />
    <glyph glyph-name="uniEA71" unicode="&#xea71;" horiz-adv-x="547" 
d="M155 462h-82l10 38h82l14 60c5 18 6 25 6 38c0 24 -15 30 -70 32l9 37h275c84 0 124 -8 157 -34c30 -22 50 -64 50 -105c0 -6 -1 -17 -2 -28h49l-9 -38h-47c-34 -120 -124 -179 -273 -179h-83l-45 -179c-4 -17 -6 -27 -6 -37c0 -24 15 -32 72 -33l-9 -37
c-62 5 -96 7 -146 7s-85 -2 -150 -7l9 37c72 2 85 10 100 70zM296 500h177c3 21 4 30 4 37c0 65 -33 92 -110 92h-38zM286 462l-36 -141h44c91 0 138 39 170 141h-178z" />
    <glyph glyph-name="franc" unicode="&#x20a3;" horiz-adv-x="716" 
d="M263 323l-54 -219c-3 -13 -6 -28 -6 -35c0 -26 15 -33 72 -35l-9 -37c-57 5 -90 7 -146 7s-90 -2 -150 -7l9 37c72 2 85 11 100 70l113 456c5 19 6 25 6 38c0 24 -15 30 -70 32l9 37h466l-16 -176h-31c1 12 1 22 1 27c0 87 -24 111 -111 111h-106l-65 -261h204l-11 -45
h-205zM469 255l5 19c40 2 74 7 105 15c1 -11 1 -12 1 -15c0 -10 0 -15 -4 -39c25 36 51 52 84 52c29 0 48 -18 48 -44c0 -25 -18 -45 -42 -45c-19 0 -33 12 -33 27c0 9 4 16 12 21c-3 6 -6 7 -12 7c-13 0 -28 -13 -41 -36c-10 -18 -15 -34 -27 -84l-33 -133h-82l53 214l2 10
l3 11l1 8c1 10 -7 12 -40 12z" />
    <glyph glyph-name="one.fitted" horiz-adv-x="360" 
d="M368 678l-143 -574c-4 -17 -5 -25 -5 -36c0 -25 17 -33 83 -34l-10 -37c-69 5 -106 7 -159 7s-91 -2 -163 -7l9 37c87 2 102 14 121 90l104 417l-103 -7l9 35c88 6 178 50 222 109h35z" />
    <glyph glyph-name="two.fitted" horiz-adv-x="454" 
d="M400 110l-45 -110h-389l23 90c105 88 191 166 274 247c67 66 98 118 98 165c0 45 -33 74 -83 74c-66 0 -112 -35 -148 -113h-46c25 68 48 105 83 137c45 41 100 61 168 61c99 0 159 -49 159 -130c0 -69 -38 -129 -138 -218c-47 -42 -92 -78 -254 -203h298z" />
    <glyph glyph-name="three.fitted" horiz-adv-x="504" 
d="M14 185h43c20 -72 70 -112 139 -112c45 0 80 19 105 56c18 27 29 60 29 90c0 41 -19 71 -54 86c-23 9 -47 12 -96 12l11 42c57 0 82 4 109 18c44 23 74 70 74 119c0 48 -36 83 -86 83c-52 0 -96 -35 -130 -104h-43c22 66 42 101 77 132c39 36 86 54 139 54
c95 0 166 -64 166 -149c0 -82 -61 -140 -172 -165c90 -21 128 -62 128 -140c0 -123 -101 -218 -231 -218c-124 0 -202 73 -208 196z" />
    <glyph glyph-name="four.fitted" horiz-adv-x="534" 
d="M239 0l41 163h-293l2 10l395 494h138l-96 -409h102l-24 -95h-98l-41 -163h-126zM306 258l93 371l-285 -371h192z" />
    <glyph glyph-name="five.fitted" horiz-adv-x="501" 
d="M481 547h-278l-73 -172c57 47 102 65 164 65c106 0 166 -66 166 -182c0 -154 -107 -269 -250 -269c-120 0 -192 71 -197 192h44c17 -68 64 -108 128 -108c81 0 141 75 141 176c0 73 -38 119 -97 119c-48 0 -91 -23 -131 -72l-41 7l142 347h327z" />
    <glyph glyph-name="six.fitted" horiz-adv-x="547" 
d="M459 667h61c-91 -64 -170 -141 -241 -238c31 15 50 20 81 20c88 0 142 -61 142 -159c0 -167 -121 -301 -272 -301c-111 0 -184 72 -184 181s60 219 177 326c69 63 178 142 236 171zM320 403c-40 0 -69 -25 -100 -84c-32 -59 -57 -157 -57 -218c0 -48 25 -79 63 -79
c41 0 73 29 104 97c30 63 49 144 49 202c0 54 -20 82 -59 82z" />
    <glyph glyph-name="seven.fitted" horiz-adv-x="450" 
d="M22 0l416 546h-332l32 104h430l-442 -650h-104z" />
    <glyph glyph-name="eight.fitted" horiz-adv-x="521" 
d="M371 342c64 -21 92 -58 92 -123c0 -129 -114 -230 -258 -230c-105 0 -175 58 -175 144c0 68 36 134 94 172c24 17 47 27 81 37c-55 24 -77 55 -77 109c0 56 28 114 75 154c45 38 98 56 164 56c97 0 151 -46 151 -129c0 -85 -55 -157 -147 -190zM285 322
c-38 0 -70 -24 -96 -72c-22 -42 -39 -108 -39 -154c0 -47 23 -75 61 -75c40 0 71 28 96 86c19 43 33 105 33 144c0 46 -19 71 -55 71zM359 629c-36 0 -62 -23 -85 -73c-20 -45 -33 -101 -33 -140c0 -38 19 -61 50 -61c33 0 58 23 80 72c20 43 30 92 30 140
c0 44 -12 62 -42 62z" />
    <glyph glyph-name="nine.fitted" horiz-adv-x="540" 
d="M131 -16h-62c89 60 170 141 241 238c-29 -15 -53 -21 -81 -21c-87 0 -141 61 -141 159c0 169 120 302 271 302c112 0 184 -72 184 -182c0 -109 -59 -218 -176 -325c-71 -64 -180 -144 -236 -171zM364 629c-41 0 -74 -30 -105 -97c-30 -65 -48 -142 -48 -202
c0 -55 20 -83 59 -83c38 0 69 26 100 84c32 62 56 156 56 219c0 48 -24 79 -62 79z" />
    <glyph glyph-name="zero.fitted" horiz-adv-x="547" 
d="M368 661c110 0 165 -70 165 -208c0 -123 -36 -252 -96 -340c-55 -82 -127 -124 -209 -124c-105 0 -168 76 -168 201c0 144 57 312 133 394c51 55 100 77 175 77zM358 629c-50 0 -82 -46 -124 -180c-36 -113 -58 -237 -58 -321c0 -73 19 -107 60 -107c48 0 81 45 121 164
c36 108 60 242 60 341c0 75 -16 103 -59 103z" />
    <glyph glyph-name="sterling.fitted" horiz-adv-x="524" 
d="M262 362h123l-9 -40h-129l-24 -62c-37 -92 -77 -147 -148 -205c68 27 97 35 131 35c20 0 29 -1 69 -11c28 -7 47 -10 59 -10c50 0 84 31 123 109h32c-18 -77 -45 -123 -88 -151c-30 -20 -63 -27 -125 -27h-306c47 49 64 82 121 233l32 89h-73l10 40h77l25 64
c34 89 70 148 115 187c50 43 107 65 169 65c87 0 129 -42 129 -126c0 -11 -1 -20 -2 -37h-50c2 15 2 20 2 33c0 58 -22 85 -69 85c-45 0 -79 -22 -109 -69c-17 -27 -26 -47 -58 -132z" />
    <glyph glyph-name="dollar.fitted" horiz-adv-x="527" 
d="M558 651l-46 -186h-32c3 16 4 25 4 41c0 74 -32 117 -97 132l-57 -229c43 -26 67 -41 73 -44c67 -45 93 -86 93 -148c0 -125 -122 -228 -270 -228l-21 -83h-36l22 86c-67 9 -120 35 -182 91l39 160h32c-4 -24 -5 -36 -5 -55c0 -94 42 -146 126 -155l64 257
c-71 44 -71 44 -92 59c-53 41 -74 76 -74 126c0 112 110 203 245 203c3 0 10 0 18 -1l20 84h36l-22 -87c29 -4 50 -10 86 -26c16 -7 29 -11 38 -11c10 0 20 3 38 14zM296 271l-59 -237c77 10 132 68 132 140c0 39 -18 62 -73 97zM300 429l52 211c-74 -6 -126 -52 -126 -112
c0 -38 20 -65 74 -99z" />
    <glyph glyph-name="cent.fitted" horiz-adv-x="454" 
d="M344 663h38l-20 -81c19 -4 28 -7 49 -17c15 -6 27 -10 35 -10c9 0 17 4 32 14l-37 -172h-29c4 20 5 29 5 47c0 60 -22 98 -62 107l-106 -422c57 -4 115 50 138 129h44c-37 -106 -103 -164 -192 -170l-21 -84h-38l21 84c-101 9 -158 70 -158 170c0 90 39 188 100 250
c52 52 114 78 182 78zM213 137l103 415c-36 -18 -58 -39 -81 -77c-43 -71 -72 -166 -72 -235c0 -50 16 -83 50 -103z" />
    <glyph glyph-name="florin.fitted" horiz-adv-x="430" 
d="M481 491l-12 -37h-105l-108 -332c-35 -108 -62 -168 -89 -201c-30 -39 -83 -61 -145 -61c-72 0 -116 29 -116 76c0 36 26 66 57 66c25 0 44 -18 44 -41c0 -9 -3 -18 -9 -28c-8 -11 -9 -14 -9 -22c0 -14 14 -25 32 -25c29 0 43 16 58 66c7 22 10 32 18 57l141 443h-70
l12 37c64 0 73 7 102 78c27 62 46 89 79 110c30 19 68 29 108 29c70 0 113 -29 113 -75c0 -35 -25 -64 -55 -64c-23 0 -42 16 -42 37c0 9 0 10 14 36c2 4 3 8 3 13c0 15 -12 25 -31 25c-24 0 -36 -11 -48 -43c-2 -7 -8 -24 -22 -67l-24 -77h104z" />
    <glyph glyph-name="one.numerator" horiz-adv-x="249" 
d="M268 661l-58 -233c-3 -12 -3 -12 -3 -13c0 -10 8 -12 36 -13l-5 -20c-32 2 -48 3 -70 3s-38 -1 -72 -3l5 20c38 1 43 4 50 34l41 164l-43 -2l5 19c39 2 75 19 94 44h20z" />
    <glyph glyph-name="two.numerator" horiz-adv-x="249" 
d="M265 433l-21 -50h-170l10 40c121 98 155 134 155 164c0 18 -12 28 -33 28c-28 0 -45 -13 -60 -45h-25c22 59 56 85 110 85c43 0 70 -21 70 -55c0 -43 -21 -65 -159 -167h123z" />
    <glyph glyph-name="three.numerator" horiz-adv-x="249" 
d="M88 463h24c8 -30 28 -45 57 -45c30 0 53 24 53 55c0 28 -17 38 -64 38l5 22c28 0 40 2 51 9c16 9 25 24 25 42c0 19 -14 32 -34 32c-23 0 -38 -12 -53 -42h-23c18 56 48 81 95 81c41 0 73 -27 73 -64c0 -32 -21 -53 -64 -66c34 -11 47 -27 47 -56c0 -51 -44 -90 -102 -90
c-54 0 -87 30 -90 84z" />
    <glyph glyph-name="four.numerator" horiz-adv-x="249" 
d="M172 377l16 65h-124l169 208h62l-38 -164h43l-11 -44h-42l-16 -65h-59zM200 486l34 136l-108 -136h74z" />
    <glyph glyph-name="five.numerator" horiz-adv-x="249" 
d="M290 603h-118l-25 -58c22 15 37 20 63 20c48 0 74 -26 74 -76c0 -63 -46 -110 -108 -110c-53 0 -85 30 -87 83h24c8 -28 27 -44 53 -44c32 0 56 29 56 67c0 28 -15 46 -40 46c-21 0 -37 -8 -54 -29l-22 4l61 144h144z" />
    <glyph glyph-name="six.numerator" horiz-adv-x="249" 
d="M263 657h35c-37 -23 -76 -58 -102 -92c13 4 20 5 27 5c39 0 64 -27 64 -69c0 -67 -53 -122 -118 -122c-49 0 -81 31 -81 77c0 44 25 88 74 131c30 26 76 58 101 70zM205 546c-15 0 -28 -11 -39 -32s-23 -65 -23 -86c0 -18 11 -30 26 -30c16 0 28 11 41 37
c11 23 19 57 19 78s-9 33 -24 33z" />
    <glyph glyph-name="seven.numerator" horiz-adv-x="249" 
d="M91 383l173 220h-139l15 47h189l-188 -267h-50z" />
    <glyph glyph-name="eight.numerator" horiz-adv-x="249" 
d="M245 524c24 -10 34 -25 34 -50c0 -53 -49 -95 -111 -95c-47 0 -78 25 -78 62c0 38 27 71 68 83c-20 10 -28 23 -28 44c0 47 46 87 100 87c44 0 71 -21 71 -55c0 -33 -19 -59 -56 -76zM198 513c-27 0 -51 -42 -51 -86c0 -19 8 -30 23 -30c25 0 51 44 51 88
c0 17 -9 28 -23 28zM227 637c-21 0 -43 -41 -43 -82c0 -15 6 -23 18 -23c22 0 44 40 44 80c0 15 -8 25 -19 25z" />
    <glyph glyph-name="nine.numerator" horiz-adv-x="249" 
d="M131 377h-35c37 22 76 58 102 92c-13 -4 -18 -5 -27 -5c-39 0 -64 26 -64 68c0 68 53 123 118 123c49 0 81 -31 81 -77c0 -43 -25 -88 -72 -130c-30 -26 -76 -58 -103 -71zM225 636c-16 0 -28 -11 -40 -37c-11 -23 -20 -57 -20 -77c0 -23 8 -34 24 -34s27 9 39 32
c11 21 23 64 23 85c0 18 -11 31 -26 31z" />
    <glyph glyph-name="zero.numerator" horiz-adv-x="249" 
d="M225 655c48 0 74 -31 74 -90c0 -48 -15 -99 -40 -134c-23 -35 -53 -52 -90 -52c-48 0 -75 32 -75 88c0 53 19 111 47 146c22 28 50 42 84 42zM219 637c-18 1 -33 -20 -48 -67c-13 -44 -22 -94 -22 -130c0 -29 8 -43 24 -43c19 0 32 18 48 66c14 43 23 96 23 131
c0 28 -8 42 -25 43z" />
    <glyph glyph-name="one.denominator" horiz-adv-x="249" 
d="M173 278l-58 -234c-3 -11 -3 -11 -3 -13c0 -9 8 -12 36 -12l-5 -21c-36 3 -52 4 -70 4s-34 -1 -72 -4l5 21c38 1 43 4 50 33l41 165l-43 -2l5 19c38 2 75 19 94 44h20z" />
    <glyph glyph-name="two.denominator" horiz-adv-x="249" 
d="M170 50l-21 -50h-170l10 40c124 101 155 133 155 163c0 18 -12 28 -33 28c-28 0 -45 -13 -60 -45h-25c22 59 56 85 110 85c43 0 70 -21 70 -55c0 -29 -15 -52 -58 -89c-11 -9 -44 -35 -101 -77h123z" />
    <glyph glyph-name="three.denominator" horiz-adv-x="249" 
d="M-8 80h24c9 -30 28 -45 57 -45c30 0 53 23 53 55c0 28 -17 38 -64 38l5 22c28 0 40 2 51 9c16 9 25 24 25 42s-14 32 -34 32c-23 0 -38 -12 -53 -42h-23c18 56 47 80 95 80c42 0 73 -27 73 -63c0 -32 -21 -53 -64 -66c34 -11 47 -27 47 -56c0 -52 -43 -90 -102 -90
c-55 0 -87 30 -90 84z" />
    <glyph glyph-name="four.denominator" horiz-adv-x="249" 
d="M76 -7l16 66h-124l169 208h62l-38 -164h43l-11 -44h-42l-16 -66h-59zM104 103l34 136l-108 -136h74z" />
    <glyph glyph-name="five.denominator" horiz-adv-x="249" 
d="M194 220h-118l-25 -59c22 16 38 21 63 21c48 0 74 -27 74 -76c0 -64 -45 -110 -108 -110c-54 0 -84 29 -87 82h24c8 -28 26 -43 53 -43c33 0 56 27 56 66c0 28 -16 47 -40 47c-20 0 -37 -9 -54 -29l-22 3l61 145h144z" />
    <glyph glyph-name="six.denominator" horiz-adv-x="249" 
d="M167 273h35c-37 -23 -76 -58 -102 -92c13 4 20 5 27 5c39 0 64 -27 64 -68c0 -68 -52 -122 -118 -122c-49 0 -81 30 -81 76c0 44 25 88 74 131c30 26 76 58 101 70zM109 162c-15 0 -27 -10 -39 -32c-11 -21 -23 -64 -23 -85c0 -19 10 -30 26 -30c17 0 28 9 41 36
c11 23 19 57 19 78s-9 33 -24 33z" />
    <glyph glyph-name="seven.denominator" horiz-adv-x="249" 
d="M-5 0l173 220h-139l15 47h189l-188 -267h-50z" />
    <glyph glyph-name="eight.denominator" horiz-adv-x="249" 
d="M149 140c23 -10 34 -25 34 -50c0 -54 -48 -94 -111 -94c-48 0 -78 24 -78 61c0 38 27 71 68 83c-20 10 -28 23 -28 45c0 47 45 86 100 86c44 0 71 -20 71 -54s-19 -60 -56 -77zM102 129c-27 0 -51 -41 -51 -86c0 -19 8 -29 23 -29c26 0 51 43 51 87c0 18 -8 28 -23 28z
M131 253c-22 0 -43 -40 -43 -81c0 -15 7 -24 18 -24c22 0 44 41 44 80c0 15 -7 25 -19 25z" />
    <glyph glyph-name="nine.denominator" horiz-adv-x="249" 
d="M35 -7h-35c40 26 76 59 102 93c-12 -4 -17 -5 -27 -5c-39 0 -64 26 -64 68c0 68 52 122 118 122c49 0 81 -30 81 -76c0 -44 -24 -87 -72 -130c-29 -25 -74 -57 -103 -72zM129 252c-17 0 -28 -10 -41 -36c-10 -23 -19 -57 -19 -78c0 -22 8 -33 24 -33s27 9 39 31
c11 22 23 65 23 86c0 18 -10 30 -26 30z" />
    <glyph glyph-name="zero.denominator" horiz-adv-x="249" 
d="M130 271c49 0 74 -31 74 -90c0 -48 -15 -98 -40 -134c-24 -35 -52 -51 -90 -51c-49 0 -75 30 -75 88c0 52 19 110 47 145c22 29 49 42 84 42zM124 253c-19 0 -32 -18 -48 -67c-13 -44 -22 -94 -22 -130c0 -29 7 -42 24 -42c20 0 32 16 48 65c14 44 23 96 23 132
c0 28 -8 42 -25 42z" />
    <glyph glyph-name="anoteleia" unicode="&#x387;" 
d="M149 327c37 0 65 -27 65 -63c0 -50 -44 -95 -93 -95c-38 0 -66 27 -66 62c0 51 44 96 94 96z" />
    <glyph glyph-name="dotmath" unicode="&#x22c5;" 
d="M149 327c37 0 65 -27 65 -63c0 -50 -44 -95 -93 -95c-38 0 -66 27 -66 62c0 51 44 96 94 96z" />
    <glyph glyph-name="afii57929" unicode="&#x2bc;" horiz-adv-x="239" 
d="M155 443h-44c39 32 67 68 82 106c-31 4 -49 23 -49 54c0 41 37 75 81 75c37 0 60 -22 60 -57c0 -53 -50 -121 -130 -178z" />
    <glyph glyph-name="uni00AD" unicode="&#xad;" horiz-adv-x="219" 
d="M-8 194l25 100h219l-25 -100h-219z" />
    <glyph glyph-name="uni2011" unicode="&#x2011;" horiz-adv-x="219" 
d="M-8 194l25 100h219l-25 -100h-219z" />
    <glyph glyph-name="afii00208" unicode="&#x2015;" horiz-adv-x="637" 
d="M-8 194l25 100h637l-25 -100h-637z" />
    <glyph glyph-name="uni2101" unicode="&#x2101;" horiz-adv-x="914" 
d="M286 374h-133l-27 -41c-8 -12 -14 -25 -14 -29c0 -10 7 -12 38 -13l-6 -26c-27 1 -42 2 -65 2c-22 0 -37 -1 -65 -2l6 26c41 1 51 9 84 60l224 331h11l39 -350c3 -31 14 -40 51 -41l-6 -26c-36 3 -56 4 -92 4s-56 -1 -94 -4l6 26c41 1 50 6 48 23l-1 11zM171 401h112
l-10 153zM262 0l494 650h51l-494 -650h-51zM908 392l-29 -116h-24c2 11 3 17 3 24c0 50 -29 80 -76 80c-44 0 -81 -29 -81 -64c0 -26 14 -40 81 -78c70 -40 89 -63 89 -108c0 -75 -75 -136 -167 -136c-52 0 -88 15 -138 56l24 98h23c-2 -15 -3 -23 -3 -32
c0 -59 31 -92 88 -92c51 0 91 35 91 80c0 19 -8 31 -29 46c-4 3 -24 15 -61 36c-59 36 -80 61 -80 98c0 69 68 122 156 122c31 0 54 -5 84 -17c9 -5 18 -7 23 -7c6 0 13 3 26 10z" />
    <glyph glyph-name="uni2236" unicode="&#x2236;" horiz-adv-x="274" 
d="M165 266c36 0 68 -32 68 -69s-31 -68 -69 -68c-37 0 -68 31 -68 68c0 38 31 69 69 69zM165 544c36 0 68 -32 68 -69s-31 -68 -69 -68c-37 0 -68 31 -68 68c0 38 31 69 69 69z" />
    <glyph glyph-name="uniEA31" unicode="&#xea31;" horiz-adv-x="500" 
d="M403 526h16c-1 -55 -35 -89 -87 -89c-62 0 -102 46 -102 118s40 117 104 117c26 0 40 -5 59 -22l11 22h11v-80h-15c-9 42 -28 61 -60 61c-40 0 -58 -29 -58 -92c0 -66 19 -95 60 -95c36 0 58 22 61 60zM332 764c116 0 209 -93 209 -207c0 -117 -93 -209 -211 -209
c-113 0 -206 94 -206 208c0 116 93 208 208 208zM332 732c-98 0 -176 -78 -176 -176c0 -97 78 -176 174 -176c101 0 179 77 179 177c0 97 -79 175 -177 175z" />
    <glyph glyph-name="uniEA32" unicode="&#xea32;" horiz-adv-x="500" 
d="M310 542v-63c0 -18 3 -20 29 -20v-17c-21 2 -31 2 -52 2c-22 0 -32 0 -54 -2v17c25 0 28 2 28 20v151c0 18 -3 20 -28 20v17h102c55 0 83 -21 83 -62c0 -29 -14 -46 -48 -57c11 -4 16 -10 26 -29l19 -39c8 -18 12 -21 28 -21v-17c-21 1 -25 1 -31 1c-5 0 -9 0 -29 -1
l-35 74c-11 22 -15 26 -32 26h-6zM311 559h15c29 0 43 15 43 45c0 31 -13 46 -40 46h-18v-91zM332 764c116 0 209 -93 209 -207c0 -117 -93 -209 -211 -209c-113 0 -206 94 -206 208c0 116 93 208 208 208zM332 732c-98 0 -176 -78 -176 -176c0 -97 78 -176 174 -176
c101 0 179 77 179 177c0 97 -79 175 -177 175z" />
    <glyph glyph-name="oneone" horiz-adv-x="800" 
d="M337 666l-85 -343c-3 -8 -4 -17 -4 -20c0 -14 11 -18 52 -20l-6 -26c-46 4 -70 5 -101 5s-55 -1 -103 -5l6 26c55 2 63 7 75 52l61 245l-64 -4l6 25c56 4 110 29 138 65h25zM152 0l494 650h51l-494 -650h-51zM716 406l-85 -342c-3 -10 -3 -15 -3 -21c1 -15 9 -18 52 -19
l-7 -26c-41 3 -63 4 -101 4c-37 0 -60 -1 -103 -4l7 26c55 1 62 7 74 51l61 245l-64 -4l6 25c56 4 111 29 138 65h25z" />
    <glyph glyph-name="onefifth" horiz-adv-x="800" 
d="M337 666l-85 -343c-3 -8 -4 -17 -4 -20c0 -14 11 -18 52 -20l-6 -26c-46 4 -70 5 -101 5s-55 -1 -103 -5l6 26c55 2 63 7 75 52l61 245l-64 -4l6 25c56 4 110 29 138 65h25zM152 0l494 650h51l-494 -650h-51zM750 325h-173l-40 -94c33 25 57 34 96 34
c68 0 106 -39 106 -110c0 -94 -65 -161 -156 -161c-77 0 -122 43 -125 118h32c11 -41 39 -64 78 -64c49 0 84 42 84 101c0 43 -22 69 -59 69c-32 0 -55 -12 -80 -42l-29 4l87 210h207z" />
    <glyph glyph-name="twofifth" horiz-adv-x="800" 
d="M332 330l-29 -70h-245l14 57c182 149 227 197 227 242c0 27 -18 43 -50 43c-40 0 -67 -20 -89 -67h-32c31 84 80 122 157 122c62 0 101 -31 101 -80c0 -42 -22 -76 -85 -130c-31 -27 -31 -27 -151 -117h182zM152 0l494 650h51l-494 -650h-51zM750 325h-173l-40 -94
c33 25 58 34 96 34c68 0 106 -39 106 -110c0 -94 -65 -161 -156 -161c-77 0 -122 43 -125 118h32c11 -41 39 -64 78 -64c50 0 84 42 84 101c0 43 -22 69 -59 69c-32 0 -55 -12 -80 -42l-29 4l87 210h207z" />
    <glyph glyph-name="threefifth" horiz-adv-x="800" 
d="M78 373h31c13 -44 41 -66 84 -66c46 0 81 36 81 83c0 42 -26 58 -94 58l7 29c40 0 57 3 74 13c24 14 38 39 38 65c0 29 -21 49 -52 49c-33 0 -56 -18 -78 -62h-31c27 79 69 115 136 115c61 0 105 -38 105 -92c0 -48 -35 -82 -98 -97c50 -14 74 -41 74 -85
c0 -73 -65 -130 -148 -130c-77 0 -124 43 -129 120zM152 0l494 650h52l-495 -650h-51zM750 325h-173l-40 -94c33 25 58 34 97 34c68 0 105 -39 105 -110c0 -94 -65 -161 -156 -161c-76 0 -121 43 -125 118h32c11 -41 39 -64 78 -64c50 0 84 41 84 101c0 44 -22 69 -59 69
c-32 0 -55 -12 -80 -42l-28 4l86 210h207z" />
    <glyph glyph-name="fourfifth" horiz-adv-x="800" 
d="M200 250l25 96h-182l2 9l243 295h89l-58 -243h64l-15 -61h-62l-24 -96h-82zM241 407l53 210l-166 -210h113zM152 0l494 650h52l-495 -650h-51zM750 325h-173l-40 -94c33 25 58 34 97 34c68 0 105 -39 105 -110c0 -94 -65 -161 -156 -161c-76 0 -121 43 -125 118h32
c11 -41 39 -64 78 -64c50 0 84 41 84 101c0 44 -22 69 -59 69c-32 0 -55 -12 -80 -42l-28 4l86 210h207z" />
    <glyph glyph-name="onesixth" horiz-adv-x="800" 
d="M337 666l-85 -343c-3 -8 -4 -17 -4 -20c0 -14 11 -18 52 -20l-6 -26c-46 4 -70 5 -101 5s-55 -1 -103 -5l6 26c55 2 63 7 75 52l61 245l-64 -4l6 25c56 4 110 29 138 65h25zM152 0l494 650h51l-494 -650h-51zM712 400h45c-57 -37 -105 -82 -148 -138c19 7 29 9 44 9
c55 0 90 -38 90 -98c0 -101 -74 -180 -169 -180c-70 0 -117 45 -117 112c0 63 37 129 109 193c43 38 110 85 146 102zM627 240c-22 0 -42 -16 -59 -49c-18 -33 -34 -95 -34 -128c0 -27 16 -46 38 -46c25 0 44 17 62 56c19 39 28 78 28 117c0 34 -11 50 -35 50z" />
    <glyph glyph-name="fivesixth" horiz-adv-x="800" 
d="M370 585h-172l-41 -95c33 26 59 35 97 35c67 0 106 -40 106 -110c0 -93 -66 -161 -157 -161c-76 0 -121 43 -124 118h31c11 -41 40 -64 79 -64c49 0 84 42 84 101c0 42 -23 69 -59 69c-31 0 -55 -13 -80 -42l-29 4l87 210h207zM152 0l494 650h51l-494 -650h-51zM712 400
h45c-57 -37 -105 -82 -148 -138c19 7 29 9 44 9c56 0 90 -37 90 -98c0 -101 -74 -180 -169 -180c-70 0 -116 44 -116 112c0 65 35 128 108 193c43 38 110 85 146 102zM627 240c-22 0 -41 -16 -59 -49c-19 -36 -33 -89 -33 -128c0 -28 14 -46 37 -46c25 0 44 17 62 56
c19 39 28 78 28 117c0 34 -11 50 -35 50z" />
    <glyph glyph-name="uniEA72" unicode="&#xea72;" horiz-adv-x="289" 
d="M54 342h239l-8 -32h-239zM288 661l-58 -233c-1 -5 -2 -11 -2 -13c0 -10 7 -12 36 -13l-5 -20c-32 2 -49 3 -70 3c-22 0 -39 -1 -72 -3l5 20c38 1 42 4 50 34l41 164l-44 -2l5 19c39 2 76 19 95 44h19zM190 50l-21 -50h-170l10 40c124 101 155 133 155 163
c0 18 -12 28 -33 28c-28 0 -45 -13 -60 -45h-25c22 59 56 85 110 85c43 0 70 -21 70 -55c0 -29 -15 -52 -58 -89c-11 -9 -44 -35 -101 -77h123z" />
    <glyph glyph-name="uniEA73" unicode="&#xea73;" horiz-adv-x="289" 
d="M54 342h239l-8 -32h-239zM288 661l-58 -233c-1 -6 -2 -10 -2 -13c0 -10 7 -12 36 -13l-5 -20c-33 2 -49 3 -71 3c-21 0 -38 -1 -72 -3l6 20c37 1 42 4 50 34l41 164l-44 -2l5 19c39 2 76 19 95 44h19zM96 -7l16 66h-124l169 208h62l-38 -164h43l-11 -44h-42l-16 -66h-59z
M124 103l34 136l-108 -136h74z" />
    <glyph glyph-name="uniEA74" unicode="&#xea74;" horiz-adv-x="289" 
d="M54 342h239l-8 -32h-239zM108 463h24c8 -30 28 -45 57 -45c30 0 53 24 53 55c0 28 -17 38 -65 38l6 22c28 0 40 2 51 9c16 9 25 24 25 42c0 19 -14 32 -35 32c-22 0 -37 -12 -52 -42h-23c18 56 48 81 94 81c42 0 74 -27 74 -64c0 -32 -21 -53 -64 -66
c34 -11 47 -27 47 -56c0 -51 -44 -90 -102 -90c-54 0 -87 30 -90 84zM96 -7l16 66h-124l169 208h62l-38 -164h43l-11 -44h-42l-16 -66h-59zM124 103l34 136l-108 -136h74z" />
    <glyph glyph-name="Dieresis" unicode="&#xf6cb;" horiz-adv-x="500" 
d="M309 881c34 0 60 -26 60 -60c0 -48 -40 -89 -87 -89c-36 0 -63 25 -63 58c0 48 43 91 90 91zM510 881c35 0 61 -26 61 -60c0 -47 -41 -89 -88 -89c-36 0 -62 24 -62 58c0 48 42 91 89 91z" />
    <glyph glyph-name="Dotaccent" horiz-adv-x="500" 
d="M409 881c34 0 60 -26 60 -60c0 -48 -40 -89 -87 -89c-36 0 -63 25 -63 58c0 48 43 91 90 91z" />
    <glyph glyph-name="Ring" horiz-adv-x="500" 
d="M400 905c48 0 88 -41 88 -89c0 -50 -40 -90 -90 -90c-49 0 -89 40 -89 89c0 50 40 90 91 90zM399 862c-26 0 -47 -21 -47 -47c0 -24 22 -46 46 -46c25 0 47 22 47 47c0 24 -22 46 -46 46z" />
    <glyph glyph-name="Acute" unicode="&#xf6c9;" horiz-adv-x="500" 
d="M342 738l97 126h192l-245 -126h-44z" />
    <glyph glyph-name="Grave" unicode="&#xf6ce;" horiz-adv-x="500" 
d="M439 738h-38l-188 126h191z" />
    <glyph glyph-name="Circumflex" horiz-adv-x="500" 
d="M199 733l217 150h9l134 -150h-41l-119 62l-150 -62h-50z" />
    <glyph glyph-name="Caron" unicode="&#xf6ca;" horiz-adv-x="500" 
d="M597 883l-217 -150h-9l-134 150h41l119 -62l150 62h50z" />
    <glyph glyph-name="Breve" horiz-adv-x="500" 
d="M510 878h39c-32 -93 -90 -143 -167 -143c-71 0 -118 48 -115 117c0 8 1 16 2 26h39c19 -49 42 -67 88 -67c40 0 71 18 114 67z" />
    <glyph glyph-name="Tilde" horiz-adv-x="500" 
d="M247 745l-30 10c27 43 38 58 54 73c24 24 50 36 77 36c20 0 40 -7 68 -23c34 -21 42 -24 59 -24c26 0 41 10 75 50l30 -9c-45 -82 -86 -116 -138 -116c-18 0 -35 6 -61 21c-38 23 -49 28 -64 28c-23 0 -46 -15 -70 -46z" />
    <glyph glyph-name="Hungarumlaut" unicode="&#xf6cf;" horiz-adv-x="500" 
d="M210 738l56 126h158l-176 -126h-38zM403 738l56 126h158l-176 -126h-38z" />
    <glyph glyph-name="Cedilla" horiz-adv-x="500" 
d="M204 0h49l-46 -55c52 -1 76 -19 76 -58c0 -54 -54 -97 -121 -97c-25 0 -47 5 -82 19l9 36c24 -7 42 -11 55 -11c29 0 55 22 55 47c0 23 -21 36 -55 36h-10z" />
    <glyph glyph-name="Ogonek" horiz-adv-x="500" 
d="M381 13l46 -8c-74 -30 -112 -62 -112 -92c0 -19 14 -30 36 -30c14 0 23 2 49 10l-9 -34c-28 -12 -54 -18 -80 -18c-48 0 -77 23 -77 60c0 51 55 93 147 112z" />
    <glyph glyph-name="Macron" unicode="&#xf6d0;" horiz-adv-x="500" 
d="M217 771l15 61h347l-16 -61h-346z" />
    <glyph glyph-name="commaaccent.cap" horiz-adv-x="500" 
d="M145 -290h-49c37 40 60 82 69 121h-9c-25 0 -45 21 -45 47c0 36 34 69 71 69c34 0 57 -26 57 -63c0 -53 -34 -116 -94 -174z" />
    <glyph glyph-name="uniEA67" unicode="&#xea67;" horiz-adv-x="500" 
d="M406 446h-49c37 41 61 82 69 122c-3 -1 -7 -1 -9 -1c-25 0 -45 21 -45 47c0 37 33 69 71 69c34 0 57 -25 57 -63c0 -53 -34 -116 -94 -174z" />
    <glyph glyph-name="uniEA68" unicode="&#xea68;" horiz-adv-x="500" 
d="M318 875c33 0 58 -25 58 -57c0 -44 -40 -85 -83 -85c-34 0 -60 24 -60 55c0 46 41 87 85 87zM496 875c33 0 58 -25 58 -57c0 -45 -39 -85 -83 -85c-34 0 -60 24 -60 55c0 45 41 87 85 87z" />
    <glyph glyph-name="uni02C9" unicode="&#x2c9;" horiz-adv-x="500" 
d="M168 576l15 61h344l-15 -61h-344z" />
    <glyph glyph-name="commaaccent" unicode="&#xf6c3;" horiz-adv-x="500" 
d="M146 -287h-46c40 40 65 83 73 125c-4 -1 -7 -1 -9 -1c-24 0 -43 20 -43 46c0 36 32 67 68 67c32 0 56 -25 56 -60c0 -30 -11 -64 -30 -96c-17 -29 -25 -38 -69 -81z" />
    <glyph glyph-name="uniEA3F" unicode="&#xea3f;" horiz-adv-x="500" 
d="M401 451h-46c41 41 65 83 73 125c-4 -1 -7 -1 -9 -1c-24 0 -43 21 -43 46c0 36 31 67 68 67c33 0 56 -25 56 -60c0 -29 -11 -64 -30 -96c-17 -29 -25 -38 -69 -81z" />
    <glyph glyph-name="uniEA6A" unicode="&#xea6a;" horiz-adv-x="500" 
d="M274 689c32 0 56 -23 56 -55c0 -44 -37 -82 -81 -82c-34 0 -58 22 -58 53c0 45 39 84 83 84zM450 689c32 0 56 -23 56 -55c0 -44 -37 -82 -81 -82c-33 0 -58 23 -58 53c0 44 39 84 83 84z" />
    <glyph glyph-name="uniEA4F" unicode="&#xea4f;" horiz-adv-x="500" 
d="M375 772h46c-40 -36 -68 -81 -76 -125c3 1 7 1 9 1c24 0 43 -20 43 -46c0 -36 -31 -66 -68 -66c-34 0 -56 24 -56 60c0 59 34 117 102 176z" />
    <glyph glyph-name="ebreve" unicode="&#x115;" horiz-adv-x="450" 
d="M373 149h43c-44 -103 -124 -160 -225 -160c-104 0 -169 63 -169 164c0 82 36 178 90 240c52 58 121 90 194 90c86 0 139 -43 139 -112c0 -61 -44 -112 -130 -151c-52 -23 -99 -33 -169 -37c-5 -23 -7 -37 -7 -57c0 -60 35 -97 92 -97s111 45 142 120zM154 219h10
c97 0 178 79 178 174c0 38 -17 62 -43 62c-55 0 -113 -96 -145 -236zM451 692h39c-33 -99 -91 -149 -170 -149c-71 0 -116 48 -113 120c0 9 1 18 2 29h40c17 -55 39 -73 85 -73c42 0 71 18 117 73z" />
    <glyph glyph-name="iogonek" unicode="&#x12f;" horiz-adv-x="310" 
d="M235 -107l-9 -34c-28 -12 -54 -18 -78 -18c-49 0 -79 23 -79 60s21 62 76 88c-60 4 -94 38 -94 92c0 18 7 52 19 96l50 182c9 32 9 35 10 50c1 16 -12 21 -59 21l7 26c63 5 142 19 205 35l-90 -326c-21 -72 -22 -76 -22 -94c0 -17 8 -27 22 -27c22 0 32 12 55 66l27 -7
c-11 -46 -27 -71 -81 -120c-32 -29 -44 -48 -44 -69c0 -20 13 -31 36 -31c14 0 23 2 49 10zM258 687c32 0 56 -25 56 -60c0 -46 -34 -83 -77 -83c-33 0 -58 25 -58 58c0 44 38 85 79 85z" />
    <glyph glyph-name="ldot" unicode="&#x140;" horiz-adv-x="467" 
d="M424 418c38 0 64 -26 64 -63c0 -51 -42 -94 -92 -94c-39 0 -67 26 -67 61c0 51 45 96 95 96zM324 685l-130 -520c-16 -62 -19 -79 -19 -91c0 -19 8 -30 23 -30c23 0 34 15 53 66l27 -7c-18 -78 -57 -114 -122 -114c-60 0 -101 39 -101 94c0 19 6 53 16 94l93 376
c7 25 10 41 10 46c0 19 -14 25 -60 25l6 26c60 4 139 18 204 35z" />
    <glyph glyph-name="utilde" unicode="&#x169;" horiz-adv-x="584" 
d="M227 555l-30 10c52 82 83 108 131 108c21 0 40 -6 68 -23c34 -21 42 -24 59 -24c26 0 41 10 75 50l30 -9c-45 -81 -87 -116 -138 -116c-18 0 -35 6 -61 22c-38 22 -49 27 -64 27c-23 0 -45 -14 -70 -45zM66 430l6 26c63 5 142 19 203 35l-86 -344c-5 -22 -9 -43 -9 -53
c0 -31 20 -52 50 -52c35 0 70 28 93 73c9 19 23 61 33 102l64 256c55 1 71 2 128 10l-73 -292c-21 -84 -22 -90 -22 -109c0 -20 11 -34 27 -34c20 0 37 17 57 60l28 -12c-32 -72 -73 -105 -132 -105c-55 0 -86 27 -96 82c-52 -58 -98 -82 -159 -82c-74 0 -121 41 -121 106
c0 16 3 33 9 59l51 203c4 18 9 43 9 48c0 19 -12 23 -60 23z" />
    <glyph glyph-name="uni01D4" unicode="&#x1d4;" horiz-adv-x="584" 
d="M66 430l6 26c63 5 142 19 203 35l-86 -344c-5 -22 -9 -43 -9 -53c0 -31 20 -52 50 -52c35 0 70 28 93 73c9 19 23 61 33 102l64 256c55 1 71 2 128 10l-73 -292c-21 -84 -22 -90 -22 -109c0 -20 11 -34 27 -34c20 0 37 17 57 60l28 -12c-32 -72 -73 -105 -132 -105
c-55 0 -86 27 -96 82c-52 -58 -98 -82 -159 -82c-74 0 -121 41 -121 106c0 16 3 33 9 59l51 203c4 18 9 43 9 48c0 19 -12 23 -60 23zM558 699l-204 -163h-9l-114 163h38l103 -72l140 72h46z" />
    <glyph glyph-name="Ldot" unicode="&#x13f;" horiz-adv-x="529" 
d="M518 185l-77 -185h-470l9 37c72 2 85 10 100 70l113 456c5 19 6 26 6 39c0 23 -15 30 -70 31l9 37c63 -5 97 -7 145 -7c49 0 83 2 147 7l-9 -37c-70 -2 -83 -10 -98 -70l-117 -472c-11 -44 -5 -53 41 -53h50c58 0 91 16 134 65c22 25 38 48 56 82h31zM482 432
c41 0 73 -31 73 -72c0 -57 -49 -107 -105 -107c-42 0 -75 31 -75 70c0 56 52 109 107 109z" />
    <glyph glyph-name="Scommaaccent" unicode="&#x218;" horiz-adv-x="545" 
d="M564 651l-46 -186h-32c3 17 4 25 4 41c0 83 -47 135 -122 135s-136 -51 -136 -114c0 -26 12 -50 36 -70c22 -19 30 -24 105 -70c99 -59 129 -99 129 -170c0 -123 -123 -228 -267 -228c-81 0 -142 26 -220 94l39 160h32c-4 -24 -5 -36 -5 -55c0 -99 52 -156 142 -156
c83 0 152 64 152 142c0 41 -18 63 -86 105c-85 51 -111 69 -135 92c-34 32 -49 63 -49 103c0 115 110 204 250 204c47 0 82 -8 133 -30c16 -7 29 -11 38 -11c10 0 20 3 38 14zM162 -290h-44c38 49 55 83 65 130c-4 -1 -7 -1 -9 -1c-24 0 -43 21 -43 46c0 35 31 65 66 65
c33 0 55 -24 55 -61c0 -53 -33 -118 -90 -179z" />
    <glyph glyph-name="Eng" unicode="&#x14a;" horiz-adv-x="703" 
d="M122 615l8 33c100 10 168 22 195 35c3 -15 4 -28 4 -50c0 -15 -1 -26 -6 -52c67 70 130 101 209 101c87 0 139 -46 139 -123c0 -29 -3 -50 -15 -98l-110 -441c-20 -81 -42 -122 -80 -157c-43 -38 -99 -57 -163 -57c-22 0 -47 1 -61 3l11 45c12 -4 17 -5 28 -5
c73 0 102 41 140 191l110 441c9 39 13 58 13 72c0 40 -30 64 -80 64c-81 0 -136 -49 -159 -139l-119 -478h-130l132 528c8 44 9 52 9 60c0 21 -15 27 -75 27z" />
    <glyph glyph-name="Tbar" unicode="&#x166;" horiz-adv-x="547" 
d="M443 420h123l-10 -40h-123l-69 -276c-4 -15 -6 -29 -6 -39c0 -23 15 -30 70 -31l-9 -37c-58 5 -91 7 -145 7s-87 -2 -147 -7l9 37c71 2 83 10 98 70l69 276h-122l10 40h122l52 209h-27c-78 0 -125 -39 -175 -146h-34l77 184h469l-15 -184h-33v20c0 90 -30 126 -104 126
h-28z" />
    <glyph glyph-name="eng" unicode="&#x14b;" horiz-adv-x="556" 
d="M64 428l6 27c64 6 123 16 168 29c2 -10 3 -26 3 -41c0 -14 0 -20 -5 -43c45 56 98 83 162 83c71 0 115 -37 115 -97c0 -26 -4 -50 -14 -90l-32 -128c-38 -156 -53 -196 -95 -254c-53 -69 -134 -109 -218 -108l9 36c57 9 93 36 114 86c13 32 35 112 59 215l42 169
c8 33 11 50 11 68c0 30 -20 50 -52 50c-49 0 -86 -41 -105 -114l-79 -316h-125l89 357c7 39 8 43 8 49c0 17 -14 22 -61 22z" />
    <glyph glyph-name="tbar" unicode="&#x167;" horiz-adv-x="337" 
d="M114 314h-67l10 39h66l20 81h-61l9 35c71 0 140 57 182 152h39l-37 -150h94l-10 -37h-94l-18 -81h96l-10 -39h-95l-29 -130c-17 -78 -17 -78 -17 -95c0 -26 16 -45 36 -45c15 0 35 8 61 26l-10 -40c-37 -26 -74 -39 -112 -39c-61 0 -100 40 -100 103c0 25 2 39 16 95z
" />
    <glyph glyph-name="kgreenlandic" unicode="&#x138;" horiz-adv-x="541" 
d="M211 235l148 141c17 16 27 33 27 44c0 18 -11 24 -47 27l7 28c40 -4 63 -5 107 -5s75 1 127 5l-7 -28c-52 -5 -71 -14 -123 -56l-96 -82l62 -179c16 -43 18 -50 26 -66c11 -22 28 -33 53 -33c3 0 15 1 25 2l-7 -27c-27 -11 -52 -17 -78 -17c-42 0 -77 15 -97 42
c-12 16 -29 50 -37 72l-44 124l-61 -53l-44 -174h-125l94 378c9 37 9 37 9 47c0 20 -10 24 -60 24l7 26c80 9 99 12 203 35z" />
    <glyph glyph-name="napostrophe" unicode="&#x149;" horiz-adv-x="772" 
d="M148 443h-44c39 32 67 68 82 106c-31 4 -49 23 -49 54c0 41 37 75 81 75c37 0 60 -22 60 -57c0 -53 -50 -121 -130 -178zM255 429l7 26c64 6 123 16 168 29c3 -14 3 -21 3 -41c0 -12 -1 -23 -5 -43c44 56 98 83 162 83c71 0 115 -37 115 -97c0 -22 -4 -52 -12 -83
l-35 -138c-18 -75 -18 -75 -18 -92c0 -19 8 -29 22 -29c22 0 32 12 52 66l28 -7c-16 -75 -58 -114 -123 -114c-59 0 -100 38 -100 93c0 22 4 43 17 95l35 141c7 27 10 46 10 62c0 30 -21 50 -52 50c-49 0 -87 -41 -105 -114l-79 -316h-125l89 357c2 9 6 36 7 49
c1 17 -12 22 -61 23z" />
    <glyph glyph-name="uni2003" unicode="&#x2003;" horiz-adv-x="1000" 
 />
    <glyph glyph-name="uni2002" unicode="&#x2002;" horiz-adv-x="500" 
 />
    <glyph glyph-name="uni200A" unicode="&#x200a;" horiz-adv-x="125" 
 />
    <glyph glyph-name="uni2007" unicode="&#x2007;" horiz-adv-x="547" 
 />
    <glyph glyph-name="uni00A0" unicode="&#xa0;" horiz-adv-x="250" 
 />
    <glyph glyph-name="lozenge" unicode="&#x25ca;" horiz-adv-x="667" 
d="M344 693l259 -359l-259 -360l-260 360zM344 604l-197 -270l197 -271l197 271z" />
    <glyph glyph-name="Delta" unicode="&#x2206;" horiz-adv-x="667" 
d="M371 681l307 -681h-669l306 681h56zM311 570l-192 -431c-10 -21 -14 -34 -14 -44c0 -22 13 -30 48 -30h378z" />
    <glyph glyph-name="notequal" unicode="&#x2260;" horiz-adv-x="500" 
d="M271 455l58 126l50 -24l-48 -102h152v-54h-177l-42 -91h220v-54h-246l-61 -133l-50 24l51 109h-160v54h185l42 91h-228v54h254z" />
    <glyph glyph-name="radical" unicode="&#x221a;" horiz-adv-x="667" 
d="M650 823v-32h-115l-185 -791h-104l-85 355h-144v32h228l79 -337l181 773h145z" />
    <glyph glyph-name="integral" unicode="&#x222b;" horiz-adv-x="501" 
d="M307 502v-495c0 -111 -6 -149 -33 -191c-31 -49 -82 -76 -145 -76c-83 0 -144 47 -144 111c0 37 28 66 63 66c33 0 61 -27 61 -57c0 -10 -3 -20 -9 -29c-8 -13 -9 -15 -9 -27c0 -14 17 -27 34 -27c42 0 69 58 69 147v521c0 114 6 149 33 192c32 51 79 76 145 76
c85 0 144 -46 144 -111c0 -36 -28 -65 -63 -65c-33 0 -61 26 -61 57c0 9 3 20 9 28c8 13 9 16 9 25c0 18 -13 29 -34 29c-46 0 -69 -58 -69 -174z" />
    <glyph glyph-name="approxequal" unicode="&#x2248;" horiz-adv-x="500" 
d="M454 490l21 -11c-39 -62 -96 -102 -148 -102c-20 0 -34 3 -95 22c-51 16 -66 19 -95 19c-34 0 -48 -7 -82 -43c-4 -3 -7 -6 -10 -9l-20 11c48 70 94 102 149 102c24 0 45 -5 95 -21c41 -13 70 -19 88 -19c33 0 70 20 97 51zM454 330l21 -11c-39 -63 -95 -101 -148 -101
c-25 0 -26 0 -95 21c-52 16 -70 20 -95 20c-32 0 -49 -9 -82 -44c-4 -3 -7 -6 -10 -9l-20 11c47 69 96 103 149 103c20 0 47 -6 95 -21c43 -14 66 -19 88 -19c34 0 70 19 97 50z" />
    <glyph glyph-name="lessequal" unicode="&#x2264;" horiz-adv-x="500" 
d="M458 624v-48l-287 -185l287 -194v-127l-417 282v7zM41 43h417v-43h-417v43z" />
    <glyph glyph-name="greaterequal" unicode="&#x2265;" horiz-adv-x="500" 
d="M41 43h417v-43h-417v43zM41 70v48l287 186l-287 193v127l417 -284v-7z" />
    <glyph glyph-name="infinity" unicode="&#x221e;" horiz-adv-x="667" 
d="M305 272c-52 -81 -91 -109 -149 -109c-86 0 -152 72 -152 165c0 104 74 186 168 186c65 0 120 -39 170 -120c4 5 8 11 11 17c31 49 45 65 68 80c24 16 51 24 79 24c92 0 163 -77 163 -176c0 -105 -79 -187 -179 -187c-67 0 -132 44 -179 120zM359 369
c60 -97 113 -138 178 -138c56 0 99 46 99 105c0 64 -53 104 -137 104c-66 0 -107 -21 -140 -71zM285 302c-28 44 -38 58 -57 80c-28 33 -67 52 -105 52c-53 0 -92 -43 -92 -102s49 -96 127 -96c57 0 93 19 127 66z" />
    <glyph glyph-name="product" unicode="&#x220f;" horiz-adv-x="667" 
d="M-4 667h676v-19h-23c-57 0 -67 -12 -67 -80v-702c0 -68 10 -80 65 -80h24v-19h-289v19h21c56 0 66 12 66 80v702c0 68 -10 80 -66 80h-137c-56 0 -66 -12 -66 -80v-702c0 -68 10 -80 64 -80h24v-19h-289v19h21c57 0 67 12 67 80v702c0 69 -10 80 -67 80h-24v19z" />
    <glyph glyph-name="summation" unicode="&#x2211;" horiz-adv-x="667" 
d="M49 667h532v-167h-20c-12 101 -54 137 -163 137h-219l200 -370l-243 -438h263c80 0 119 14 156 55c23 26 37 56 48 100h19l-33 -217h-540l249 448z" />
    <glyph glyph-name="partialdiff" unicode="&#x2202;" horiz-adv-x="500" 
d="M141 673l10 18c61 -23 120 -60 165 -103c45 -42 76 -89 108 -163c34 -78 48 -135 48 -196c0 -141 -94 -244 -223 -244c-126 0 -221 100 -221 234c0 133 94 234 216 234c28 0 59 -8 82 -20c8 -5 11 -7 32 -28c4 -3 7 -6 10 -10c-44 131 -109 210 -227 278zM252 427
c-28 0 -56 -13 -75 -35c-28 -33 -50 -109 -50 -172c0 -71 23 -147 53 -178c21 -21 43 -31 68 -31c72 0 125 92 125 214c0 72 -23 145 -55 176c-17 16 -42 26 -66 26z" />
    <glyph glyph-name="uni203E" unicode="&#x203e;" horiz-adv-x="500" 
d="M17 845h466v-55h-466v55z" />
    <glyph glyph-name="uni2126" unicode="&#x2126;" horiz-adv-x="667" 
d="M706 134l-38 -134h-285v59c62 33 89 55 118 97c38 54 60 129 60 205c0 168 -89 285 -215 285c-81 0 -141 -37 -181 -111c-26 -49 -41 -111 -41 -171c0 -93 34 -184 90 -243c23 -24 42 -38 89 -62v-59h-286l-37 134h20c19 -57 46 -72 129 -73l109 -4v6
c-71 26 -104 45 -142 80c-63 60 -98 139 -98 222c0 93 52 191 132 250c55 41 129 63 213 63c116 0 211 -41 274 -118c46 -57 70 -124 70 -193c0 -104 -53 -200 -142 -258c-24 -16 -50 -28 -97 -46v-6l118 5c75 1 99 15 120 72h20z" />
    <glyph glyph-name="Alpha" unicode="&#x391;" 
d="M149 327c37 0 65 -27 65 -63c0 -50 -44 -95 -93 -95c-38 0 -66 27 -66 62c0 51 44 96 94 96z" />
    <glyph glyph-name="Beta" unicode="&#x392;" 
d="M149 327c37 0 65 -27 65 -63c0 -50 -44 -95 -93 -95c-38 0 -66 27 -66 62c0 51 44 96 94 96z" />
    <glyph glyph-name="Gamma" unicode="&#x393;" 
d="M149 327c37 0 65 -27 65 -63c0 -50 -44 -95 -93 -95c-38 0 -66 27 -66 62c0 51 44 96 94 96z" />
    <glyph glyph-name="uni0394" unicode="&#x394;" 
d="M149 327c37 0 65 -27 65 -63c0 -50 -44 -95 -93 -95c-38 0 -66 27 -66 62c0 51 44 96 94 96z" />
    <glyph glyph-name="Epsilon" unicode="&#x395;" 
d="M149 327c37 0 65 -27 65 -63c0 -50 -44 -95 -93 -95c-38 0 -66 27 -66 62c0 51 44 96 94 96z" />
    <glyph glyph-name="Zeta" unicode="&#x396;" 
d="M149 327c37 0 65 -27 65 -63c0 -50 -44 -95 -93 -95c-38 0 -66 27 -66 62c0 51 44 96 94 96z" />
    <glyph glyph-name="Eta" unicode="&#x397;" 
d="M149 327c37 0 65 -27 65 -63c0 -50 -44 -95 -93 -95c-38 0 -66 27 -66 62c0 51 44 96 94 96z" />
    <glyph glyph-name="Theta" unicode="&#x398;" 
d="M149 327c37 0 65 -27 65 -63c0 -50 -44 -95 -93 -95c-38 0 -66 27 -66 62c0 51 44 96 94 96z" />
    <glyph glyph-name="Iota" unicode="&#x399;" 
d="M149 327c37 0 65 -27 65 -63c0 -50 -44 -95 -93 -95c-38 0 -66 27 -66 62c0 51 44 96 94 96z" />
    <glyph glyph-name="Kappa" unicode="&#x39a;" 
d="M149 327c37 0 65 -27 65 -63c0 -50 -44 -95 -93 -95c-38 0 -66 27 -66 62c0 51 44 96 94 96z" />
    <glyph glyph-name="Lambda" unicode="&#x39b;" 
d="M149 327c37 0 65 -27 65 -63c0 -50 -44 -95 -93 -95c-38 0 -66 27 -66 62c0 51 44 96 94 96z" />
    <glyph glyph-name="Mu" unicode="&#x39c;" 
d="M149 327c37 0 65 -27 65 -63c0 -50 -44 -95 -93 -95c-38 0 -66 27 -66 62c0 51 44 96 94 96z" />
    <glyph glyph-name="Nu" unicode="&#x39d;" 
d="M149 327c37 0 65 -27 65 -63c0 -50 -44 -95 -93 -95c-38 0 -66 27 -66 62c0 51 44 96 94 96z" />
    <glyph glyph-name="Xi" unicode="&#x39e;" 
d="M149 327c37 0 65 -27 65 -63c0 -50 -44 -95 -93 -95c-38 0 -66 27 -66 62c0 51 44 96 94 96z" />
    <glyph glyph-name="Omicron" unicode="&#x39f;" 
d="M149 327c37 0 65 -27 65 -63c0 -50 -44 -95 -93 -95c-38 0 -66 27 -66 62c0 51 44 96 94 96z" />
    <glyph glyph-name="Pi" unicode="&#x3a0;" 
d="M149 327c37 0 65 -27 65 -63c0 -50 -44 -95 -93 -95c-38 0 -66 27 -66 62c0 51 44 96 94 96z" />
    <glyph glyph-name="Rho" unicode="&#x3a1;" 
d="M149 327c37 0 65 -27 65 -63c0 -50 -44 -95 -93 -95c-38 0 -66 27 -66 62c0 51 44 96 94 96z" />
    <glyph glyph-name="Sigma" unicode="&#x3a3;" 
d="M149 327c37 0 65 -27 65 -63c0 -50 -44 -95 -93 -95c-38 0 -66 27 -66 62c0 51 44 96 94 96z" />
    <glyph glyph-name="Tau" unicode="&#x3a4;" 
d="M149 327c37 0 65 -27 65 -63c0 -50 -44 -95 -93 -95c-38 0 -66 27 -66 62c0 51 44 96 94 96z" />
    <glyph glyph-name="Upsilon" unicode="&#x3a5;" 
d="M149 327c37 0 65 -27 65 -63c0 -50 -44 -95 -93 -95c-38 0 -66 27 -66 62c0 51 44 96 94 96z" />
    <glyph glyph-name="Phi" unicode="&#x3a6;" 
d="M149 327c37 0 65 -27 65 -63c0 -50 -44 -95 -93 -95c-38 0 -66 27 -66 62c0 51 44 96 94 96z" />
    <glyph glyph-name="Chi" unicode="&#x3a7;" 
d="M149 327c37 0 65 -27 65 -63c0 -50 -44 -95 -93 -95c-38 0 -66 27 -66 62c0 51 44 96 94 96z" />
    <glyph glyph-name="Psi" unicode="&#x3a8;" 
d="M149 327c37 0 65 -27 65 -63c0 -50 -44 -95 -93 -95c-38 0 -66 27 -66 62c0 51 44 96 94 96z" />
    <glyph glyph-name="uni03A9" unicode="&#x3a9;" 
d="M149 327c37 0 65 -27 65 -63c0 -50 -44 -95 -93 -95c-38 0 -66 27 -66 62c0 51 44 96 94 96z" />
    <glyph glyph-name="Upsilon1" unicode="&#x3d2;" 
d="M149 327c37 0 65 -27 65 -63c0 -50 -44 -95 -93 -95c-38 0 -66 27 -66 62c0 51 44 96 94 96z" />
    <glyph glyph-name="alpha" unicode="&#x3b1;" 
d="M149 327c37 0 65 -27 65 -63c0 -50 -44 -95 -93 -95c-38 0 -66 27 -66 62c0 51 44 96 94 96z" />
    <glyph glyph-name="beta" unicode="&#x3b2;" 
d="M149 327c37 0 65 -27 65 -63c0 -50 -44 -95 -93 -95c-38 0 -66 27 -66 62c0 51 44 96 94 96z" />
    <glyph glyph-name="gamma" unicode="&#x3b3;" 
d="M149 327c37 0 65 -27 65 -63c0 -50 -44 -95 -93 -95c-38 0 -66 27 -66 62c0 51 44 96 94 96z" />
    <glyph glyph-name="delta" unicode="&#x3b4;" 
d="M149 327c37 0 65 -27 65 -63c0 -50 -44 -95 -93 -95c-38 0 -66 27 -66 62c0 51 44 96 94 96z" />
    <glyph glyph-name="epsilon" unicode="&#x3b5;" 
d="M149 327c37 0 65 -27 65 -63c0 -50 -44 -95 -93 -95c-38 0 -66 27 -66 62c0 51 44 96 94 96z" />
    <glyph glyph-name="zeta" unicode="&#x3b6;" 
d="M149 327c37 0 65 -27 65 -63c0 -50 -44 -95 -93 -95c-38 0 -66 27 -66 62c0 51 44 96 94 96z" />
    <glyph glyph-name="eta" unicode="&#x3b7;" 
d="M149 327c37 0 65 -27 65 -63c0 -50 -44 -95 -93 -95c-38 0 -66 27 -66 62c0 51 44 96 94 96z" />
    <glyph glyph-name="theta" unicode="&#x3b8;" 
d="M149 327c37 0 65 -27 65 -63c0 -50 -44 -95 -93 -95c-38 0 -66 27 -66 62c0 51 44 96 94 96z" />
    <glyph glyph-name="iota" unicode="&#x3b9;" 
d="M149 327c37 0 65 -27 65 -63c0 -50 -44 -95 -93 -95c-38 0 -66 27 -66 62c0 51 44 96 94 96z" />
    <glyph glyph-name="kappa" unicode="&#x3ba;" 
d="M149 327c37 0 65 -27 65 -63c0 -50 -44 -95 -93 -95c-38 0 -66 27 -66 62c0 51 44 96 94 96z" />
    <glyph glyph-name="lambda" unicode="&#x3bb;" 
d="M149 327c37 0 65 -27 65 -63c0 -50 -44 -95 -93 -95c-38 0 -66 27 -66 62c0 51 44 96 94 96z" />
    <glyph glyph-name="uni03BC" unicode="&#x3bc;" 
d="M149 327c37 0 65 -27 65 -63c0 -50 -44 -95 -93 -95c-38 0 -66 27 -66 62c0 51 44 96 94 96z" />
    <glyph glyph-name="nu" unicode="&#x3bd;" 
d="M149 327c37 0 65 -27 65 -63c0 -50 -44 -95 -93 -95c-38 0 -66 27 -66 62c0 51 44 96 94 96z" />
    <glyph glyph-name="xi" unicode="&#x3be;" 
d="M149 327c37 0 65 -27 65 -63c0 -50 -44 -95 -93 -95c-38 0 -66 27 -66 62c0 51 44 96 94 96z" />
    <glyph glyph-name="omicron" unicode="&#x3bf;" 
d="M149 327c37 0 65 -27 65 -63c0 -50 -44 -95 -93 -95c-38 0 -66 27 -66 62c0 51 44 96 94 96z" />
    <glyph glyph-name="pi" unicode="&#x3c0;" 
d="M149 327c37 0 65 -27 65 -63c0 -50 -44 -95 -93 -95c-38 0 -66 27 -66 62c0 51 44 96 94 96z" />
    <glyph glyph-name="rho" unicode="&#x3c1;" 
d="M149 327c37 0 65 -27 65 -63c0 -50 -44 -95 -93 -95c-38 0 -66 27 -66 62c0 51 44 96 94 96z" />
    <glyph glyph-name="sigma" unicode="&#x3c3;" 
d="M149 327c37 0 65 -27 65 -63c0 -50 -44 -95 -93 -95c-38 0 -66 27 -66 62c0 51 44 96 94 96z" />
    <glyph glyph-name="tau" unicode="&#x3c4;" 
d="M149 327c37 0 65 -27 65 -63c0 -50 -44 -95 -93 -95c-38 0 -66 27 -66 62c0 51 44 96 94 96z" />
    <glyph glyph-name="upsilon" unicode="&#x3c5;" 
d="M149 327c37 0 65 -27 65 -63c0 -50 -44 -95 -93 -95c-38 0 -66 27 -66 62c0 51 44 96 94 96z" />
    <glyph glyph-name="phi1" unicode="&#x3d5;" 
d="M149 327c37 0 65 -27 65 -63c0 -50 -44 -95 -93 -95c-38 0 -66 27 -66 62c0 51 44 96 94 96z" />
    <glyph glyph-name="chi" unicode="&#x3c7;" 
d="M149 327c37 0 65 -27 65 -63c0 -50 -44 -95 -93 -95c-38 0 -66 27 -66 62c0 51 44 96 94 96z" />
    <glyph glyph-name="psi" unicode="&#x3c8;" 
d="M149 327c37 0 65 -27 65 -63c0 -50 -44 -95 -93 -95c-38 0 -66 27 -66 62c0 51 44 96 94 96z" />
    <glyph glyph-name="omega" unicode="&#x3c9;" 
d="M149 327c37 0 65 -27 65 -63c0 -50 -44 -95 -93 -95c-38 0 -66 27 -66 62c0 51 44 96 94 96z" />
    <glyph glyph-name="uni03C2" unicode="&#x3c2;" 
d="M149 327c37 0 65 -27 65 -63c0 -50 -44 -95 -93 -95c-38 0 -66 27 -66 62c0 51 44 96 94 96z" />
    <glyph glyph-name="uniEA3E" unicode="&#xea3e;" 
d="M149 327c37 0 65 -27 65 -63c0 -50 -44 -95 -93 -95c-38 0 -66 27 -66 62c0 51 44 96 94 96z" />
    <glyph glyph-name="theta1" unicode="&#x3d1;" 
d="M149 327c37 0 65 -27 65 -63c0 -50 -44 -95 -93 -95c-38 0 -66 27 -66 62c0 51 44 96 94 96z" />
    <glyph glyph-name="phi" unicode="&#x3c6;" 
d="M149 327c37 0 65 -27 65 -63c0 -50 -44 -95 -93 -95c-38 0 -66 27 -66 62c0 51 44 96 94 96z" />
    <glyph glyph-name="omega1" unicode="&#x3d6;" 
d="M149 327c37 0 65 -27 65 -63c0 -50 -44 -95 -93 -95c-38 0 -66 27 -66 62c0 51 44 96 94 96z" />
    <glyph glyph-name="iotadieresis" unicode="&#x3ca;" 
d="M149 327c37 0 65 -27 65 -63c0 -50 -44 -95 -93 -95c-38 0 -66 27 -66 62c0 51 44 96 94 96z" />
    <glyph glyph-name="upsilondieresis" unicode="&#x3cb;" 
d="M149 327c37 0 65 -27 65 -63c0 -50 -44 -95 -93 -95c-38 0 -66 27 -66 62c0 51 44 96 94 96z" />
    <glyph glyph-name="tonos" unicode="&#x384;" 
d="M149 327c37 0 65 -27 65 -63c0 -50 -44 -95 -93 -95c-38 0 -66 27 -66 62c0 51 44 96 94 96z" />
    <glyph glyph-name="dieresistonos" unicode="&#x385;" 
d="M149 327c37 0 65 -27 65 -63c0 -50 -44 -95 -93 -95c-38 0 -66 27 -66 62c0 51 44 96 94 96z" />
    <glyph glyph-name="Alphatonos" unicode="&#x386;" 
d="M149 327c37 0 65 -27 65 -63c0 -50 -44 -95 -93 -95c-38 0 -66 27 -66 62c0 51 44 96 94 96z" />
    <glyph glyph-name="Epsilontonos" unicode="&#x388;" 
d="M149 327c37 0 65 -27 65 -63c0 -50 -44 -95 -93 -95c-38 0 -66 27 -66 62c0 51 44 96 94 96z" />
    <glyph glyph-name="Etatonos" unicode="&#x389;" 
d="M149 327c37 0 65 -27 65 -63c0 -50 -44 -95 -93 -95c-38 0 -66 27 -66 62c0 51 44 96 94 96z" />
    <glyph glyph-name="Iotatonos" unicode="&#x38a;" 
d="M149 327c37 0 65 -27 65 -63c0 -50 -44 -95 -93 -95c-38 0 -66 27 -66 62c0 51 44 96 94 96z" />
    <glyph glyph-name="Omicrontonos" unicode="&#x38c;" 
d="M149 327c37 0 65 -27 65 -63c0 -50 -44 -95 -93 -95c-38 0 -66 27 -66 62c0 51 44 96 94 96z" />
    </font>
</defs>
</svg>
