<?xml version="1.0" standalone="no"?>
<!DOCTYPE svg PUBLIC "-//W3C//DTD SVG 1.1//EN" "http://www.w3.org/Graphics/SVG/1.1/DTD/svg11.dtd" >
<svg xmlns="http://www.w3.org/2000/svg" xmlns:xlink="http://www.w3.org/1999/xlink" version="1.1">
<metadata>
Created by FontForge 20170910 at Mon May 15 17:40:33 2006
 By Jimmy Wärting
Copyright (URW)++,Copyright 2006 by (URW)++ Design &#38; Development
</metadata>
<defs>
<font id="CorporateA-Light" horiz-adv-x="217" >
  <font-face 
    font-family="Corporate A "
    font-weight="300"
    font-stretch="normal"
    units-per-em="1000"
    panose-1="2 2 4 0 0 0 0 0 0 0"
    ascent="800"
    descent="-200"
    x-height="472"
    cap-height="293"
    bbox="-190 -266 885 876"
    underline-thickness="32"
    underline-position="-103"
    stemh="27"
    stemv="63"
    unicode-range="U+0020-FB04"
  />
<missing-glyph horiz-adv-x="250" 
 />
    <glyph glyph-name="fi" unicode="fi" horiz-adv-x="534" 
d="M165 472h115v-36h-115v-371c0 -40 12 -48 71 -51v-17c-48 5 -71 6 -102 6c-30 0 -54 -1 -103 -6v17c60 3 72 11 72 51v371h-68v29c64 2 72 9 73 61c2 56 8 81 25 104c23 30 62 48 107 48c52 0 88 -28 88 -68c0 -23 -11 -34 -33 -34c-19 0 -32 11 -32 28l1 12c1 3 1 5 1 9
c0 18 -13 29 -32 29c-26 0 -50 -18 -60 -45c-6 -16 -8 -38 -8 -81v-56zM435 489v-424c0 -40 12 -48 72 -51v-17c-49 5 -73 6 -103 6s-54 -1 -103 -6v17c60 3 72 11 72 51v333c0 48 -6 53 -71 54v14c50 5 93 12 133 23zM414 660c27 0 47 -20 47 -47c0 -26 -21 -47 -48 -47
c-26 0 -46 21 -46 47c0 27 20 47 47 47z" />
    <glyph glyph-name="fl" unicode="fl" horiz-adv-x="530" 
d="M35 436v29c64 2 72 9 73 61c2 56 8 81 25 104c23 30 62 48 107 48c31 0 51 -7 70 -25c46 5 89 13 125 22v-610c0 -40 12 -48 72 -51v-17c-49 5 -73 6 -103 6s-54 -1 -103 -6v17c60 3 72 11 72 51v519c0 45 -6 51 -52 54c5 -11 7 -17 7 -28c0 -23 -11 -34 -33 -34
c-19 0 -32 12 -32 28l1 12c1 3 1 5 1 9c0 18 -13 29 -32 29c-26 0 -50 -18 -60 -45c-6 -16 -8 -38 -8 -81v-56h115v-36h-115v-371c0 -40 12 -48 71 -51v-17c-48 5 -71 6 -102 6c-30 0 -54 -1 -103 -6v17c60 3 72 11 72 51v371h-68z" />
    <glyph glyph-name="ff" unicode="ff" horiz-adv-x="554" 
d="M165 472h115v-36h-115v-371c0 -40 12 -48 71 -51v-17c-48 5 -71 6 -102 6c-30 0 -54 -1 -103 -6v17c60 3 72 11 72 51v371h-68v29c64 2 72 9 73 61c2 56 8 81 25 104c23 30 62 48 107 48c52 0 88 -28 88 -68c0 -23 -11 -34 -33 -34c-19 0 -32 11 -32 28l1 12c1 3 1 5 1 9
c0 18 -13 29 -32 29c-26 0 -50 -18 -60 -45c-6 -16 -8 -38 -8 -81v-56zM435 472h115v-36h-115v-371c0 -40 12 -48 72 -51v-17c-49 5 -72 6 -103 6c-30 0 -54 -1 -103 -6v17c60 3 72 11 72 51v371h-68v29c64 2 72 9 73 61c2 56 8 81 25 104c23 30 62 48 108 48
c51 0 87 -28 87 -68c0 -23 -11 -34 -33 -34c-19 0 -31 10 -31 28c0 1 0 6 1 12v9c0 18 -12 29 -31 29c-26 0 -51 -18 -61 -45c-6 -16 -8 -38 -8 -81v-56z" />
    <glyph glyph-name="ffi" unicode="ffi" horiz-adv-x="804" 
d="M165 472h115v-36h-115v-371c0 -40 12 -48 71 -51v-17c-48 5 -71 6 -102 6c-30 0 -54 -1 -103 -6v17c60 3 72 11 72 51v371h-68v29c64 2 72 9 73 61c2 56 8 81 25 104c23 30 62 48 107 48c52 0 88 -28 88 -68c0 -23 -11 -34 -33 -34c-19 0 -32 11 -32 28l1 12c1 3 1 5 1 9
c0 18 -13 29 -32 29c-26 0 -50 -18 -60 -45c-6 -16 -8 -38 -8 -81v-56zM435 472h115v-36h-115v-371c0 -40 12 -48 72 -51v-17c-49 5 -72 6 -103 6c-30 0 -54 -1 -103 -6v17c60 3 72 11 72 51v371h-68v29c64 2 72 9 73 61c2 56 8 81 25 104c23 30 62 48 108 48
c51 0 87 -28 87 -68c0 -23 -11 -34 -33 -34c-19 0 -31 10 -31 28c0 1 0 6 1 12v9c0 18 -12 29 -31 29c-26 0 -51 -18 -61 -45c-6 -16 -8 -38 -8 -81v-56zM705 489v-424c0 -40 12 -48 72 -51v-17c-49 5 -72 6 -103 6c-30 0 -54 -1 -103 -6v17c60 3 72 11 72 51v333
c0 48 -6 53 -71 54v14c50 5 94 12 133 23zM671 660c27 0 46 -19 46 -47s-19 -47 -47 -47c-25 0 -47 22 -47 47c0 26 21 47 48 47z" />
    <glyph glyph-name="ffl" unicode="ffl" horiz-adv-x="800" 
d="M643 65v519c0 45 -6 51 -52 54c6 -11 7 -17 7 -28c0 -23 -11 -34 -33 -34c-19 0 -31 11 -31 28c0 1 0 6 1 12v9c0 18 -12 29 -31 29c-26 0 -51 -18 -61 -45c-6 -16 -8 -36 -8 -81v-56h115v-36h-115v-371c0 -40 12 -48 72 -51v-17c-49 5 -72 6 -103 6
c-30 0 -54 -1 -103 -6v17c60 3 72 11 72 51v371h-68v29c64 1 72 8 73 61c2 55 8 81 25 104c22 30 62 48 108 48c30 0 50 -7 69 -25c45 5 90 13 125 22v-610c0 -40 12 -48 72 -51v-17c-49 5 -72 6 -103 6s-54 -1 -103 -6v17c60 3 72 11 72 51zM165 472h115v-36h-115v-371
c0 -40 12 -48 71 -51v-17c-48 5 -71 6 -102 6c-30 0 -54 -1 -103 -6v17c60 3 72 11 72 51v371h-68v29c64 2 72 9 73 61c2 56 8 81 25 104c23 30 62 48 107 48c52 0 88 -28 88 -68c0 -23 -11 -34 -33 -34c-19 0 -32 11 -32 28l1 12c1 3 1 5 1 9c0 18 -13 29 -32 29
c-26 0 -50 -18 -60 -45c-6 -16 -8 -38 -8 -81v-56z" />
    <glyph glyph-name=".notdef" horiz-adv-x="250" 
 />
    <glyph glyph-name="space" unicode=" " horiz-adv-x="250" 
 />
    <glyph glyph-name="exclam" unicode="!" horiz-adv-x="234" 
d="M96 192l-13 458h68l-12 -458h-43zM118 95c27 0 51 -25 51 -52c0 -28 -23 -51 -52 -51c-28 0 -51 23 -51 51s24 52 52 52z" />
    <glyph glyph-name="quotedbl" unicode="&#x22;" horiz-adv-x="383" 
d="M149 400h-49l-9 267h67zM282 400h-48l-10 267h67z" />
    <glyph glyph-name="numbersign" unicode="#" horiz-adv-x="609" 
d="M536 263l-8 -47h-113l-34 -216h-54l34 216h-152l-34 -216h-54l35 216h-114l7 47h114l24 153h-113l7 47h114l32 204h54l-32 -204h151l32 204h54l-32 -204h113l-7 -47h-114l-24 -153h114zM393 416h-152l-24 -153h151z" />
    <glyph glyph-name="dollar" unicode="$" horiz-adv-x="516" 
d="M241 17v296c-61 26 -68 29 -88 39c-64 35 -90 78 -90 149c0 99 71 169 178 176v79h31v-79c44 -3 79 -19 111 -51l31 52h11v-175h-17c-23 94 -64 138 -136 146v-276c70 -29 81 -34 103 -48c59 -35 87 -83 87 -150c0 -102 -77 -178 -190 -185v-79h-31v79
c-52 2 -99 22 -137 57l-39 -59h-11v207h18c17 -110 76 -172 169 -178zM272 301v-284c85 9 132 58 132 138c0 56 -22 92 -76 120c-12 7 -22 12 -56 26zM241 386v263c-73 -8 -122 -61 -122 -133c0 -37 13 -67 39 -88c12 -11 34 -22 76 -40z" />
    <glyph glyph-name="percent" unicode="%" horiz-adv-x="584" 
d="M161 673c72 0 123 -66 123 -159c0 -94 -52 -160 -126 -160c-75 0 -125 64 -125 161c0 93 53 158 128 158zM160 651c-50 0 -77 -48 -77 -137c0 -93 24 -138 75 -138c49 0 76 48 76 137c0 90 -26 138 -74 138zM76 0l393 667h38l-393 -667h-38zM428 313
c72 0 123 -65 123 -159c0 -93 -53 -160 -126 -160c-75 0 -125 65 -125 161c0 93 52 158 128 158zM427 291c-50 0 -77 -47 -77 -136c0 -94 24 -139 75 -139c49 0 76 49 76 137c0 91 -26 138 -74 138z" />
    <glyph glyph-name="ampersand" unicode="&#x26;" horiz-adv-x="577" 
d="M254 361l169 -231c22 31 36 73 36 111c0 25 -12 34 -53 36v25c28 -3 44 -4 72 -4s44 1 72 4v-25c-47 -3 -53 -7 -58 -46c-9 -64 -19 -95 -45 -133l25 -37c28 -43 33 -46 86 -47v-17c-27 3 -41 4 -57 4c-15 0 -29 -1 -57 -4l-38 57c-55 -47 -100 -65 -162 -65
c-119 0 -207 76 -207 178c0 73 38 126 143 198c-4 6 -7 11 -10 15l-27 40c-29 43 -39 70 -39 106c0 74 58 130 136 130c74 0 124 -48 124 -119c0 -55 -26 -97 -110 -176zM224 405c65 55 89 94 89 139c0 51 -32 88 -75 88c-46 0 -81 -38 -81 -88c0 -37 6 -49 57 -124
c2 -3 5 -8 10 -15zM382 83l-175 241c-80 -52 -107 -92 -107 -156c0 -88 58 -148 144 -148c52 0 91 18 138 63z" />
    <glyph glyph-name="quoteright" unicode="&#x2019;" horiz-adv-x="240" 
d="M106 454h-49c40 37 81 105 82 138h-4c-6 -2 -9 -3 -14 -3c-23 0 -41 18 -41 43c0 26 21 46 50 46c32 0 52 -22 52 -57c0 -47 -29 -110 -76 -167z" />
    <glyph glyph-name="parenleft" unicode="(" horiz-adv-x="297" 
d="M207 683h33c-65 -123 -99 -277 -99 -447s33 -322 99 -447h-33c-92 126 -134 268 -134 447c0 180 43 323 134 447z" />
    <glyph glyph-name="parenright" unicode=")" horiz-adv-x="297" 
d="M90 -211h-33c65 124 99 280 99 447c0 168 -35 325 -99 447h33c90 -124 134 -269 134 -447s-43 -321 -134 -447z" />
    <glyph glyph-name="asterisk" unicode="*" horiz-adv-x="516" 
d="M237 530l-3 120h47l-3 -120l113 40l14 -44l-114 -35l72 -95l-37 -27l-68 98l-68 -98l-38 27l73 95l-115 35l14 44z" />
    <glyph glyph-name="plus" unicode="+" horiz-adv-x="516" 
d="M56 313v50h176v173h52v-173h175v-50h-175v-174h-52v174h-176z" />
    <glyph glyph-name="comma" unicode="," horiz-adv-x="223" 
d="M91 -143h-49c42 40 80 105 82 138h-4c-6 -2 -9 -3 -14 -3c-23 0 -41 18 -41 42c0 27 22 47 50 47c32 0 52 -22 52 -58c0 -45 -27 -104 -76 -166z" />
    <glyph glyph-name="hyphen" unicode="-" horiz-adv-x="253" 
d="M0 252v42h253v-42h-253z" />
    <glyph glyph-name="period" unicode="." 
d="M109 89c27 0 48 -22 48 -49s-21 -48 -48 -48c-28 0 -49 21 -49 48s22 49 49 49z" />
    <glyph glyph-name="slash" unicode="/" horiz-adv-x="387" 
d="M-84 -194l418 861h44l-418 -861h-44z" />
    <glyph glyph-name="zero" unicode="0" horiz-adv-x="516" 
d="M260 661c63 0 115 -30 145 -83c35 -63 55 -154 55 -252c0 -86 -16 -169 -44 -231c-31 -67 -86 -103 -158 -103c-129 0 -202 122 -202 336c0 98 21 190 57 250c33 54 84 83 147 83zM256 633c-83 0 -131 -111 -131 -306c0 -197 49 -307 136 -307c83 0 130 111 130 307
c0 194 -49 306 -135 306z" />
    <glyph glyph-name="one" unicode="1" horiz-adv-x="516" 
d="M296 685v-603c0 -51 10 -59 82 -65v-20c-45 5 -64 6 -114 6s-69 -1 -114 -6v20c72 6 82 13 82 65v470h-113v20c80 5 139 48 153 113h24z" />
    <glyph glyph-name="two" unicode="2" horiz-adv-x="516" 
d="M434 54l-6 -54h-363v40c69 85 131 164 176 227c96 135 123 187 123 240c0 65 -46 109 -111 109c-51 0 -95 -24 -119 -64c-14 -25 -19 -44 -25 -85h-27c5 67 15 101 38 131c31 40 82 63 144 63c98 0 169 -62 169 -148c0 -63 -25 -109 -134 -247
c-116 -147 -116 -147 -169 -212h304z" />
    <glyph glyph-name="three" unicode="3" horiz-adv-x="516" 
d="M60 185h30c2 -39 5 -56 14 -79c19 -49 64 -76 126 -76c90 0 145 58 145 153c0 71 -27 119 -78 139c-23 9 -47 13 -95 14v33h9h15c71 0 125 59 125 137c0 73 -42 117 -113 117c-45 0 -87 -21 -110 -56c-14 -21 -20 -39 -27 -75h-25c11 112 71 170 176 170
c97 0 166 -64 166 -155c0 -74 -43 -125 -126 -149c104 -26 153 -81 153 -172c0 -114 -84 -194 -201 -194c-120 0 -181 64 -184 193z" />
    <glyph glyph-name="four" unicode="4" horiz-adv-x="516" 
d="M295 -18v197h-274l281 488h57v-436h111v-52h-111v-197h-64zM295 231l2 380l-214 -380h212z" />
    <glyph glyph-name="five" unicode="5" horiz-adv-x="516" 
d="M405 596h-244l-36 -201c34 37 70 52 124 52c116 0 194 -88 194 -221c0 -61 -19 -118 -54 -162c-38 -49 -88 -72 -154 -72c-100 0 -153 51 -162 156h28c9 -79 49 -118 121 -118c90 0 152 79 152 195c0 112 -55 183 -141 183c-59 0 -97 -23 -126 -76h-24l56 321h272z" />
    <glyph glyph-name="six" unicode="6" horiz-adv-x="516" 
d="M369 699h48c-87 -81 -169 -179 -218 -259c28 8 44 11 64 11c112 0 191 -93 191 -227c0 -138 -79 -232 -196 -232c-121 0 -201 91 -201 228c0 104 46 198 160 327c37 41 64 70 111 114c22 21 36 33 41 38zM256 423c-83 0 -128 -69 -128 -198c0 -135 43 -205 126 -205
s127 71 127 203c0 128 -45 200 -125 200z" />
    <glyph glyph-name="seven" unicode="7" horiz-adv-x="516" 
d="M101 0l291 592h-333v61h399l-296 -653h-61z" />
    <glyph glyph-name="eight" unicode="8" horiz-adv-x="516" 
d="M331 341c76 -23 115 -77 115 -159c0 -113 -77 -190 -190 -190c-114 0 -185 72 -185 188c0 80 35 129 114 161c-67 29 -98 75 -98 146c0 103 72 174 176 174c101 0 166 -66 166 -170c0 -71 -31 -119 -98 -150zM260 327c-72 0 -122 -61 -122 -150c0 -96 46 -157 119 -157
s122 63 122 156c0 91 -47 151 -119 151zM262 633c-67 0 -108 -53 -108 -137c0 -90 37 -141 103 -141c65 0 105 53 105 140c0 89 -36 138 -100 138z" />
    <glyph glyph-name="nine" unicode="9" horiz-adv-x="516" 
d="M163 -47h-49c84 84 157 177 204 261c-26 -8 -44 -12 -62 -12c-106 0 -181 94 -181 229c0 138 74 230 183 230c114 0 190 -92 190 -230c0 -137 -73 -259 -285 -478zM261 633c-76 0 -117 -69 -117 -197c0 -131 43 -206 118 -206c77 0 119 69 119 194
c0 136 -42 209 -120 209z" />
    <glyph glyph-name="colon" unicode=":" 
d="M109 89c27 0 48 -22 48 -49s-21 -48 -48 -48c-28 0 -49 21 -49 48s22 49 49 49zM109 428c27 0 48 -22 48 -49s-21 -48 -48 -48c-28 0 -49 21 -49 48s22 49 49 49z" />
    <glyph glyph-name="semicolon" unicode=";" horiz-adv-x="223" 
d="M115 428c26 0 48 -22 48 -49s-21 -48 -49 -48c-27 0 -48 21 -48 48c0 28 21 49 49 49zM91 -143h-49c42 40 80 105 82 138h-4c-6 -2 -9 -3 -14 -3c-23 0 -41 18 -41 42c0 27 22 47 50 47c32 0 52 -22 52 -58c0 -45 -27 -104 -76 -166z" />
    <glyph glyph-name="less" unicode="&#x3c;" horiz-adv-x="500" 
d="M455 606v-29l-332 -218l332 -221v-78l-411 273v6z" />
    <glyph glyph-name="equal" unicode="=" horiz-adv-x="516" 
d="M56 374v52h403v-52h-403zM56 249v52h403v-52h-403z" />
    <glyph glyph-name="greater" unicode="&#x3e;" horiz-adv-x="500" 
d="M44 60v30l332 217l-332 221v78l411 -273v-6z" />
    <glyph glyph-name="question" unicode="?" horiz-adv-x="365" 
d="M174 180h-41c-5 28 -6 42 -6 58c0 34 7 65 22 91c13 24 15 26 68 77c42 39 61 75 61 111c0 54 -37 90 -93 90c-71 0 -118 -45 -125 -120h-22c0 40 4 60 16 85c26 52 84 84 150 84c83 0 140 -56 140 -138c0 -30 -8 -57 -22 -81c-16 -24 -22 -30 -73 -72
c-58 -48 -78 -86 -78 -147c0 -14 1 -22 3 -38zM162 95c28 0 51 -24 51 -52c0 -29 -22 -51 -51 -51s-52 23 -52 51s24 52 52 52z" />
    <glyph glyph-name="at" unicode="@" horiz-adv-x="701" 
d="M632 174h41c-32 -57 -53 -83 -98 -116c-62 -46 -126 -68 -201 -68c-200 0 -352 146 -352 339c0 195 152 348 347 348c177 0 310 -120 310 -279c0 -71 -24 -133 -70 -183c-43 -46 -101 -77 -146 -77c-46 0 -68 22 -75 73c-39 -50 -67 -67 -112 -67c-74 0 -127 57 -127 136
c0 115 98 219 206 219c45 0 72 -24 84 -77l18 68h60l-69 -260c-7 -23 -7 -24 -7 -33c0 -21 16 -38 35 -38c34 0 84 36 117 82c31 44 49 104 49 159c0 134 -120 240 -272 240c-176 0 -309 -133 -309 -309c0 -175 135 -304 319 -304c63 0 108 14 161 50c40 28 60 49 91 97z
M361 479c-73 0 -151 -113 -151 -218c0 -57 31 -97 75 -97c43 0 77 33 106 101c17 42 31 102 31 136c0 49 -23 78 -61 78z" />
    <glyph glyph-name="A" unicode="A" horiz-adv-x="629" 
d="M415 198h-238l-36 -103c-8 -25 -12 -39 -12 -48c0 -20 18 -28 64 -30v-20c-44 5 -66 6 -91 6c-26 0 -48 -1 -92 -6v20c60 4 71 11 88 59l230 611l201 -615c15 -43 26 -50 90 -55v-20c-51 6 -78 8 -111 8s-60 -2 -111 -8v20c43 4 61 13 61 31c0 6 -3 23 -6 32zM187 226
h219l-101 323z" />
    <glyph glyph-name="B" unicode="B" horiz-adv-x="559" 
d="M34 667h252c63 0 102 -11 135 -38c35 -29 56 -75 56 -124c0 -69 -38 -122 -107 -150c90 -21 138 -77 138 -164c0 -60 -28 -118 -74 -152c-39 -29 -79 -39 -155 -39h-245v20c72 6 82 14 82 65v497c0 52 -10 59 -82 65v20zM183 363h74c59 0 87 8 111 34c24 25 37 63 37 106
c0 40 -11 78 -30 101c-19 24 -49 35 -99 35h-93v-276zM183 335v-252c0 -47 9 -55 68 -55h37c93 0 148 59 148 159c0 48 -14 89 -38 114c-24 24 -57 34 -110 34h-105z" />
    <glyph glyph-name="C" unicode="C" horiz-adv-x="584" 
d="M484 220h37c-7 -146 -84 -231 -211 -231c-76 0 -147 36 -189 96c-45 64 -70 155 -70 251c0 99 27 189 77 255c42 56 109 87 184 87c62 0 107 -17 149 -55l36 52h17v-184h-19c-28 108 -85 160 -175 160c-66 0 -118 -31 -149 -89c-31 -59 -48 -138 -48 -228
c0 -195 73 -312 194 -312c62 0 116 35 143 91c15 32 21 59 24 107z" />
    <glyph glyph-name="D" unicode="D" horiz-adv-x="627" 
d="M29 647v20h231c98 0 154 -17 205 -62c70 -63 112 -164 112 -272s-42 -211 -111 -270c-50 -43 -111 -63 -195 -63h-242v20c72 6 82 14 82 65v497c0 52 -10 59 -82 65zM178 639v-558c0 -48 9 -55 71 -55c78 0 133 18 174 57c54 52 82 137 82 250c0 105 -25 189 -72 243
c-38 44 -89 63 -168 63h-87z" />
    <glyph glyph-name="E" unicode="E" horiz-adv-x="528" 
d="M477 152l-19 -152h-424v20c72 6 82 14 82 65v497c0 51 -10 59 -82 65v20h419l14 -141h-19c-25 92 -46 113 -112 113h-153v-278h155c44 0 55 15 58 82h20v-193h-20c-2 61 -17 83 -58 83h-155v-243c0 -50 14 -62 70 -62h78c59 0 78 9 98 44c12 21 21 45 29 80h19z" />
    <glyph glyph-name="F" unicode="F" horiz-adv-x="507" 
d="M189 333v-251c0 -37 4 -46 24 -55c13 -6 23 -7 57 -10v-20c-61 6 -86 8 -114 8c-29 0 -54 -2 -116 -8v20c72 6 82 14 82 65v500c0 51 -10 59 -82 65v20h419l14 -141h-19c-25 92 -46 113 -112 113h-153v-278h155c44 0 55 15 58 82h20v-193h-20c-2 62 -17 83 -58 83h-155z
" />
    <glyph glyph-name="G" unicode="G" horiz-adv-x="619" 
d="M519 678v-187h-19c-14 43 -22 62 -38 87c-30 46 -81 72 -141 72c-128 0 -198 -111 -198 -315c0 -206 69 -318 196 -318c49 0 89 12 145 42v168c0 34 -15 42 -79 47v19c63 -5 80 -6 106 -6c27 0 42 1 107 6v-19c-68 -6 -73 -9 -73 -49v-169c-83 -48 -144 -67 -213 -67
c-159 0 -261 136 -261 349c0 208 101 340 261 340c59 0 102 -15 148 -53l42 53h17z" />
    <glyph glyph-name="H" unicode="H" horiz-adv-x="664" 
d="M183 362h298v223c0 51 -11 60 -82 65v20c63 -6 88 -8 116 -8c27 0 52 2 114 8v-20c-71 -5 -81 -13 -81 -65v-503c0 -52 9 -59 81 -65v-20c-61 6 -86 8 -114 8c-29 0 -54 -2 -116 -8v20c72 6 82 14 82 65v252h-298v-252c0 -52 9 -59 81 -65v-20c-61 6 -86 8 -114 8
c-29 0 -54 -2 -116 -8v20c72 6 82 14 82 65v503c0 51 -11 60 -82 65v20c63 -6 88 -8 116 -8c27 0 52 2 114 8v-20c-71 -5 -81 -13 -81 -65v-223z" />
    <glyph glyph-name="I" unicode="I" horiz-adv-x="298" 
d="M264 17v-20c-61 6 -86 8 -114 8c-29 0 -54 -2 -116 -8v20c72 6 82 14 82 65v503c0 51 -11 60 -82 65v20c63 -6 88 -8 116 -8c27 0 52 2 114 8v-20c-71 -5 -81 -13 -81 -65v-503c0 -52 9 -59 81 -65z" />
    <glyph glyph-name="J" unicode="J" horiz-adv-x="296" 
d="M-3 -68v24h11h7c36 -2 71 13 86 36c11 18 15 41 15 90v503c0 39 -3 46 -24 54c-15 7 -28 9 -57 11v20c62 -6 87 -8 114 -8c28 0 53 2 116 8v-20c-30 -2 -43 -4 -58 -11c-21 -8 -24 -15 -24 -54v-473c0 -72 -7 -100 -34 -132c-29 -33 -69 -49 -124 -49c-6 0 -18 0 -28 1z
" />
    <glyph glyph-name="K" unicode="K" horiz-adv-x="615" 
d="M180 355l229 253c9 10 13 17 13 23c0 13 -12 17 -61 19v20c43 -4 67 -5 100 -5c32 0 56 1 99 5v-20c-62 -2 -83 -11 -118 -50l-188 -210l234 -314c31 -43 55 -56 114 -59v-20c-56 6 -86 8 -122 8c-37 0 -67 -2 -122 -8v20c57 5 70 10 70 25c0 10 -1 12 -19 37l-196 273
l-34 -38v-232c0 -52 9 -59 81 -65v-20c-54 6 -79 8 -109 8s-55 -2 -117 -8v20c72 6 82 14 82 65v503c0 51 -11 60 -82 65v20c63 -6 88 -8 116 -8c29 0 55 2 111 8v-20c-71 -5 -81 -13 -81 -65v-230z" />
    <glyph glyph-name="L" unicode="L" horiz-adv-x="488" 
d="M477 152l-19 -152h-424v20c72 6 82 14 82 65v500c0 51 -11 60 -82 65v20c63 -6 88 -8 116 -8c27 0 52 2 114 8v-20c-71 -5 -81 -13 -81 -65v-491c0 -27 2 -38 11 -46c10 -10 30 -16 59 -16h78c59 0 78 8 98 43c12 20 20 43 29 77h19z" />
    <glyph glyph-name="M" unicode="M" horiz-adv-x="797" 
d="M172 614l-24 -533v-8c0 -41 15 -51 82 -57v-19c-45 4 -66 5 -98 5s-53 -1 -98 -5v19c68 6 78 14 82 65l25 504v8c0 42 -15 52 -82 57v20c47 -4 55 -4 71 -4c19 0 64 3 86 5l188 -532l191 532c30 -2 74 -5 88 -5s22 0 69 4v-20c-66 -5 -82 -16 -82 -56v-9l11 -504
c1 -49 13 -59 82 -65v-19c-62 6 -87 8 -115 8s-53 -2 -115 -8v19c63 4 82 17 82 56v9l-9 533l-212 -595h-13z" />
    <glyph glyph-name="N" unicode="N" horiz-adv-x="665" 
d="M552 -22h-11l-393 618v-514c0 -39 3 -46 24 -54c14 -6 27 -9 57 -11v-20c-80 6 -83 6 -100 6c-18 0 -22 0 -95 -6v20c31 2 43 5 58 11c21 8 24 15 24 54v542c-16 19 -31 23 -83 26v20c36 -3 54 -4 77 -4c21 0 38 1 67 4l343 -534v449c0 39 -3 46 -24 54
c-14 7 -28 9 -57 11v20c49 -4 72 -5 100 -5s49 1 95 5v-20c-30 -2 -43 -4 -58 -11c-21 -8 -24 -15 -24 -54v-607z" />
    <glyph glyph-name="O" unicode="O" horiz-adv-x="618" 
d="M309 678c158 0 259 -135 259 -348c0 -87 -21 -168 -59 -231c-44 -71 -113 -110 -197 -110c-159 0 -261 136 -261 347c0 207 102 342 258 342zM308 651c-115 0 -185 -119 -185 -316s72 -319 190 -319c65 0 118 39 146 108c24 58 37 131 37 207c0 201 -70 320 -188 320z
" />
    <glyph glyph-name="P" unicode="P" horiz-adv-x="528" 
d="M183 307v-225c0 -52 9 -59 81 -65v-20c-61 6 -86 8 -114 8c-29 0 -54 -2 -116 -8v20c72 6 82 13 82 65v500c0 52 -10 59 -82 65v20h252c68 0 109 -10 144 -36c43 -32 70 -89 70 -147s-26 -108 -71 -141c-36 -25 -76 -36 -134 -36h-112zM183 335h93c47 0 79 9 104 28
c33 26 53 74 53 127c0 45 -15 88 -40 114c-23 25 -55 35 -109 35h-101v-304z" />
    <glyph glyph-name="Q" unicode="Q" horiz-adv-x="618" 
d="M621 9v-20h-20c-52 0 -78 12 -131 61c-42 -41 -93 -61 -157 -61c-159 0 -262 137 -262 348c0 206 103 341 258 341c158 0 259 -135 259 -345c0 -90 -18 -164 -55 -228c45 -69 79 -99 108 -96zM309 651c-115 0 -186 -119 -186 -315c0 -197 73 -320 190 -320
c114 0 183 118 183 314c0 202 -69 321 -187 321z" />
    <glyph glyph-name="R" unicode="R" horiz-adv-x="579" 
d="M183 323v-241c0 -52 9 -59 81 -65v-20c-61 6 -86 8 -114 8c-29 0 -54 -2 -116 -8v20c72 6 82 13 82 65v500c0 52 -10 59 -82 65v20h258c58 0 98 -10 131 -32c45 -30 74 -86 74 -141c0 -90 -67 -157 -166 -169c39 -10 59 -29 82 -82l75 -173c20 -45 30 -52 81 -53v-20
c-28 2 -42 3 -59 3s-32 -1 -60 -3l-106 247c-28 65 -48 79 -118 79h-43zM183 351h95c97 0 152 53 152 148c0 92 -50 140 -148 140h-99v-288z" />
    <glyph glyph-name="S" unicode="S" horiz-adv-x="506" 
d="M59 195h19c21 -118 78 -175 177 -175c86 0 142 55 142 138c0 53 -19 83 -74 114c-13 7 -13 7 -113 57c-112 56 -140 90 -140 171c0 106 72 175 182 175c53 0 87 -13 124 -49l28 52h17v-175h-19c-27 101 -70 145 -146 145c-73 0 -131 -58 -131 -129c0 -41 19 -72 60 -97
c25 -15 26 -15 99 -52c74 -36 90 -45 117 -66c36 -28 54 -70 54 -125c0 -112 -78 -187 -195 -187c-61 0 -105 16 -150 55l-35 -59h-16v207z" />
    <glyph glyph-name="T" unicode="T" horiz-adv-x="508" 
d="M284 639v-557c0 -39 3 -46 24 -54c15 -6 27 -9 58 -11v-20c-62 6 -87 8 -115 8c-29 0 -54 -2 -115 -8v20c30 2 43 5 57 11c21 8 24 15 24 54v557h-62c-67 0 -85 -18 -116 -113h-21l25 141h420l26 -141h-20c-28 95 -46 113 -110 113h-75z" />
    <glyph glyph-name="U" unicode="U" horiz-adv-x="654" 
d="M431 650v20c49 -4 72 -5 100 -5s49 1 95 5v-20c-72 -5 -82 -14 -82 -65v-381c0 -64 -8 -98 -31 -132c-37 -54 -101 -83 -186 -83c-72 0 -130 22 -170 65c-34 36 -46 73 -46 143v388c0 51 -11 60 -82 65v20c63 -6 88 -8 116 -8c27 0 52 2 114 8v-20
c-71 -5 -81 -13 -81 -65v-390c0 -68 7 -93 33 -121c30 -31 73 -46 130 -46c114 0 171 55 171 165v392c0 52 -10 60 -81 65z" />
    <glyph glyph-name="V" unicode="V" horiz-adv-x="632" 
d="M325 -11h-24l-199 605c-15 45 -26 52 -92 56v20c47 -6 73 -8 111 -8s64 2 111 8v-20c-45 -3 -66 -12 -66 -30c0 -5 1 -9 6 -24l161 -490l161 474c6 19 9 31 9 39c0 20 -17 28 -67 31v20c40 -5 62 -7 89 -7c26 0 49 2 97 7v-20c-57 -3 -76 -13 -86 -43z" />
    <glyph glyph-name="W" unicode="W" horiz-adv-x="860" 
d="M275 -11h-17l-162 612c-9 36 -26 47 -78 49v20c45 -6 71 -8 106 -8s60 2 106 8v-20c-48 -3 -66 -11 -66 -29c0 -6 1 -11 4 -23l120 -454l149 534h23l147 -534l122 453c3 11 4 19 4 26c0 18 -15 25 -62 27v20c37 -5 57 -6 85 -6s48 1 85 6v-20c-53 -2 -69 -11 -77 -43
l-169 -616h-17l-149 556z" />
    <glyph glyph-name="X" unicode="X" horiz-adv-x="605" 
d="M10 -3v20c55 1 75 15 112 76l153 251l-134 250c-22 44 -36 52 -97 56v20c50 -5 77 -7 113 -7s64 2 114 7v-20c-50 -4 -67 -11 -67 -27c0 -6 4 -18 10 -29l100 -186l117 192c6 10 9 17 9 24c0 18 -14 24 -63 26v20c39 -5 61 -6 95 -6c33 0 55 1 94 6v-20
c-59 -5 -75 -13 -96 -47l-139 -227l162 -305c24 -44 36 -51 97 -54v-20c-53 5 -82 7 -117 7c-37 0 -65 -2 -116 -7v20c58 5 70 10 70 29c0 9 -2 16 -11 32l-124 234l-145 -240c-9 -15 -11 -20 -11 -29c0 -19 14 -24 65 -26v-20c-41 4 -64 5 -95 5c-32 0 -55 -1 -96 -5z" />
    <glyph glyph-name="Y" unicode="Y" horiz-adv-x="579" 
d="M258 292l-154 308c-20 39 -32 46 -91 50v20c50 -5 78 -7 114 -7c37 0 64 2 114 7v-20c-52 -3 -71 -10 -71 -26c0 -6 2 -12 9 -27l134 -267l136 272c4 8 7 17 7 22c0 17 -16 23 -70 26v20c44 -5 66 -6 91 -6s47 1 92 6v-20c-57 -6 -70 -13 -90 -50l-154 -308v-210
c0 -38 3 -46 24 -54c15 -6 27 -9 58 -11v-20c-62 6 -87 8 -115 8c-29 0 -54 -2 -115 -8v20c31 2 43 5 57 11c21 8 24 15 24 54v210z" />
    <glyph glyph-name="Z" unicode="Z" horiz-adv-x="524" 
d="M34 0l370 639h-195c-68 0 -95 -26 -113 -109h-22l25 137h396l-370 -639h203c63 0 79 6 103 41c13 18 24 42 39 80h20l-29 -149h-427z" />
    <glyph glyph-name="bracketleft" unicode="[" horiz-adv-x="297" 
d="M269 637h-99v-801h99v-30h-161v861h161v-30z" />
    <glyph glyph-name="backslash" unicode="\" horiz-adv-x="387" 
d="M472 -194h-44l-418 861h44z" />
    <glyph glyph-name="bracketright" unicode="]" horiz-adv-x="297" 
d="M28 -164h99v801h-99v30h161v-861h-161v30z" />
    <glyph glyph-name="asciicircum" unicode="^" horiz-adv-x="500" 
d="M523 289h-30l-218 332l-220 -333h-78l273 412h6z" />
    <glyph glyph-name="underscore" unicode="_" horiz-adv-x="500" 
d="M27 -87h445v-32h-445v32z" />
    <glyph glyph-name="quoteleft" unicode="&#x2018;" horiz-adv-x="240" 
d="M132 671h50c-41 -37 -81 -105 -82 -138h3c6 2 9 3 15 3c24 0 40 -17 40 -42c0 -27 -21 -47 -49 -47c-32 0 -52 22 -52 58c0 47 28 108 75 166z" />
    <glyph glyph-name="a" unicode="a" horiz-adv-x="452" 
d="M430 25v-26c-18 -3 -38 -5 -49 -5c-44 0 -63 24 -69 84c-36 -65 -69 -86 -133 -86c-81 0 -137 53 -137 128c0 61 36 104 114 137c47 20 88 30 146 38v56c0 40 -5 60 -17 76c-15 18 -39 28 -69 28c-35 0 -68 -14 -83 -34c-7 -10 -7 -13 -7 -44c0 -30 -11 -43 -36 -43
c-18 0 -28 10 -28 29c0 63 73 117 157 117c53 0 100 -21 124 -56c15 -21 21 -48 21 -89v-215c0 -74 10 -98 41 -98c7 0 13 1 25 3zM302 186v84c-134 -23 -196 -70 -196 -149c0 -56 33 -90 88 -90c76 0 108 46 108 155z" />
    <glyph glyph-name="b" unicode="b" horiz-adv-x="494" 
d="M82 -11v595c0 48 -7 54 -71 54v14c49 5 95 13 133 23v-284c33 64 69 89 128 89c107 0 180 -99 180 -245c0 -144 -74 -243 -182 -243c-59 0 -100 27 -130 87l-34 -90h-24zM266 452c-79 0 -123 -79 -123 -222c0 -138 41 -210 120 -210s122 76 122 215
c0 144 -40 217 -119 217z" />
    <glyph glyph-name="c" unicode="c" horiz-adv-x="424" 
d="M370 492v-156h-19c-8 33 -13 48 -24 68c-20 33 -54 54 -91 54c-78 0 -123 -84 -123 -226c0 -140 40 -211 120 -211c62 0 96 41 109 133h40c-12 -105 -66 -164 -152 -164c-112 0 -188 98 -188 242c0 150 77 251 190 251c41 0 66 -11 96 -41l25 50h17z" />
    <glyph glyph-name="d" unicode="d" horiz-adv-x="499" 
d="M475 29v-14c-67 -8 -83 -11 -118 -23c-6 27 -10 55 -11 87c-29 -59 -69 -87 -127 -87c-105 0 -177 99 -177 243c0 146 71 245 176 245c57 0 92 -25 124 -89v193c0 48 -7 54 -71 54v14c49 5 95 13 133 23v-577c0 -62 4 -66 71 -69zM224 452c-77 0 -115 -73 -115 -217
c0 -139 42 -215 118 -215c75 0 116 73 116 205c0 148 -42 227 -119 227z" />
    <glyph glyph-name="e" unicode="e" horiz-adv-x="450" 
d="M367 155h40c-4 -39 -15 -72 -35 -101c-30 -44 -71 -64 -133 -64c-127 0 -197 86 -197 242c0 155 72 251 189 251c114 0 176 -81 175 -231h-302c0 -158 44 -231 136 -231c72 0 116 46 127 134zM107 288h237c-6 113 -45 170 -114 170c-67 0 -111 -60 -123 -170z" />
    <glyph glyph-name="f" unicode="f" horiz-adv-x="284" 
d="M165 472h115v-36h-115v-371c0 -40 12 -48 71 -51v-17c-48 5 -71 6 -102 6c-30 0 -54 -1 -103 -6v17c60 3 72 11 72 51v371h-68v29c64 2 72 9 73 61c2 56 8 81 25 104c23 30 62 48 107 48c52 0 88 -28 88 -68c0 -23 -11 -34 -33 -34c-19 0 -32 11 -32 28l1 12c1 3 1 5 1 9
c0 18 -13 29 -32 29c-26 0 -50 -18 -60 -45c-6 -16 -8 -38 -8 -81v-56z" />
    <glyph glyph-name="g" unicode="g" horiz-adv-x="488" 
d="M346 455h132v-36l-99 4c16 -28 23 -51 23 -82c0 -57 -29 -104 -79 -130c-26 -14 -33 -16 -120 -43c-55 -17 -71 -27 -71 -45c0 -23 14 -28 87 -33c88 -7 116 -11 148 -23c54 -21 83 -59 83 -110c0 -90 -85 -152 -210 -152c-123 0 -209 59 -209 144c0 52 33 87 106 111
c-38 12 -54 28 -54 53c0 36 33 58 112 76c-80 21 -122 71 -122 145c0 91 65 146 172 146c42 0 70 -7 101 -25zM239 456c-65 0 -105 -46 -105 -121s40 -123 103 -123s104 48 104 123c0 77 -37 121 -102 121zM239 30c-102 0 -170 -38 -170 -94c0 -58 73 -103 168 -103
c100 0 165 41 165 105c0 58 -60 92 -163 92z" />
    <glyph glyph-name="h" unicode="h" horiz-adv-x="521" 
d="M24 638v14c48 5 96 13 133 23v-265c32 48 73 70 126 70c52 0 97 -24 122 -65c15 -24 22 -59 22 -106v-244c0 -40 12 -48 72 -51v-17c-49 5 -73 6 -104 6s-55 -1 -103 -6v17c60 2 73 11 73 51v242c0 49 -5 74 -18 94c-16 24 -42 37 -77 37c-38 0 -71 -16 -92 -45
c-15 -21 -21 -45 -21 -90v-238c0 -40 12 -48 71 -51v-17c-48 5 -71 6 -102 6c-30 0 -54 -1 -103 -6v17c60 3 72 11 72 51v519c0 48 -7 54 -71 54z" />
    <glyph glyph-name="i" unicode="i" horiz-adv-x="263" 
d="M165 489v-424c0 -40 12 -48 71 -51v-17c-48 5 -71 6 -102 6c-30 0 -54 -1 -103 -6v17c60 3 72 11 72 51v333c0 48 -6 53 -71 54v14c50 4 95 12 133 23zM137 660c27 0 47 -20 47 -47s-21 -47 -48 -47c-25 0 -46 21 -46 47c0 27 20 47 47 47z" />
    <glyph glyph-name="j" unicode="j" horiz-adv-x="258" 
d="M162 489v-477c0 -78 -15 -129 -49 -166c-31 -34 -70 -48 -137 -50v21c90 18 124 60 124 157v424c0 48 -6 53 -71 54v14c50 5 94 12 133 23zM127 660c27 0 47 -20 47 -47s-20 -47 -48 -47c-25 0 -46 21 -46 47c0 27 20 47 47 47z" />
    <glyph glyph-name="k" unicode="k" horiz-adv-x="510" 
d="M157 231l175 182c12 12 14 15 14 23c0 14 -16 21 -52 22v17c40 -4 61 -5 89 -5c27 0 49 1 88 5v-17c-50 -4 -64 -10 -96 -44l-103 -106l147 -246c23 -39 35 -46 88 -48v-17c-44 5 -67 6 -93 6s-48 -1 -93 -6v17c32 1 42 5 42 17c0 6 -2 11 -9 23l-124 214l-73 -74v-129
c0 -40 12 -48 71 -51v-17c-48 5 -71 6 -102 6c-30 0 -54 -1 -103 -6v17c60 3 72 11 72 51v519c0 48 -7 54 -71 54v14c48 5 96 13 133 23v-444z" />
    <glyph glyph-name="l" unicode="l" horiz-adv-x="260" 
d="M165 675v-610c0 -40 12 -48 71 -51v-17c-48 5 -71 6 -102 6c-30 0 -54 -1 -103 -6v17c60 3 72 11 72 51v519c0 48 -7 54 -71 54v14c49 5 96 13 133 23z" />
    <glyph glyph-name="m" unicode="m" horiz-adv-x="777" 
d="M33 448v14c47 7 86 16 120 30c4 -24 6 -64 7 -87c36 55 72 75 133 75s96 -22 119 -77c36 55 75 77 137 77c57 0 98 -22 118 -62c10 -20 15 -54 15 -98v-255c0 -40 12 -48 72 -51v-17c-49 5 -72 6 -103 6s-54 -1 -103 -6v17c60 3 72 11 72 51v257c0 85 -24 116 -88 116
c-71 0 -109 -44 -109 -127v-246c0 -40 12 -48 72 -51v-17c-49 5 -72 6 -103 6c-30 0 -54 -1 -102 -6v17c60 3 71 11 71 51v255c0 85 -24 118 -85 118c-40 0 -75 -19 -93 -50c-13 -22 -18 -48 -18 -92v-231c0 -40 12 -48 71 -51v-17c-48 5 -71 6 -102 6s-54 -1 -103 -6v17
c60 3 72 11 72 51v324c0 57 0 57 -70 59z" />
    <glyph glyph-name="n" unicode="n" horiz-adv-x="530" 
d="M33 448v14c47 7 86 16 120 30c4 -26 5 -39 7 -89c36 54 75 77 131 77c52 0 97 -24 122 -65c15 -24 22 -59 22 -106v-244c0 -40 12 -48 72 -51v-17c-49 5 -73 6 -104 6s-55 -1 -103 -6v17c60 2 73 11 73 51v242c0 49 -5 74 -18 94c-16 24 -42 37 -77 37
c-38 0 -71 -16 -92 -45c-15 -21 -21 -45 -21 -90v-238c0 -40 12 -48 71 -51v-17c-48 5 -71 6 -102 6s-54 -1 -103 -6v17c60 3 72 11 72 51v324c0 57 0 57 -70 59z" />
    <glyph glyph-name="o" unicode="o" horiz-adv-x="456" 
d="M231 483c110 0 182 -98 182 -249c0 -144 -76 -244 -186 -244s-185 99 -185 246s77 247 189 247zM230 458c-78 0 -121 -79 -121 -223c0 -145 40 -220 117 -220c78 0 120 77 120 219c0 149 -39 224 -116 224z" />
    <glyph glyph-name="p" unicode="p" horiz-adv-x="510" 
d="M26 454v14c65 5 85 8 119 15c6 -22 8 -43 11 -90c30 60 70 87 130 87c108 0 182 -100 182 -243c0 -145 -74 -245 -180 -245c-59 0 -95 25 -128 89v-214c0 -40 10 -48 71 -51v-17c-52 5 -75 6 -102 6s-50 -1 -103 -6v17c62 3 72 11 72 51v531c0 44 -11 54 -57 56h-15z
M279 452c-78 0 -120 -73 -120 -206c0 -147 43 -226 123 -226c78 0 119 74 119 217c0 138 -44 215 -122 215z" />
    <glyph glyph-name="q" unicode="q" horiz-adv-x="510" 
d="M484 468v-14h-16c-45 -2 -56 -12 -56 -56v-531c0 -40 10 -48 72 -51v-17c-53 5 -76 6 -103 6s-50 -1 -102 -6v17c61 3 71 11 71 51v214c-33 -64 -69 -89 -128 -89c-106 0 -180 100 -180 245c0 143 74 243 182 243c60 0 100 -27 130 -87c3 47 5 68 11 90
c34 -7 56 -10 119 -15zM231 452c-78 0 -122 -77 -122 -215c0 -143 41 -217 119 -217c79 0 123 79 123 222c0 138 -41 210 -120 210z" />
    <glyph glyph-name="r" unicode="r" horiz-adv-x="360" 
d="M33 452v14c45 4 87 13 120 23c4 -35 5 -45 6 -57c0 -9 1 -17 2 -41c17 57 60 92 113 92c49 0 83 -31 83 -75c0 -28 -15 -47 -38 -47c-21 0 -37 15 -37 33c0 5 0 6 3 18c1 3 1 6 1 7c0 14 -13 24 -32 24c-54 0 -89 -69 -89 -177v-201c0 -40 12 -48 71 -51v-17
c-48 5 -71 6 -102 6s-54 -1 -103 -6v17c60 3 72 11 72 51v324c0 60 -1 61 -70 63z" />
    <glyph glyph-name="s" unicode="s" horiz-adv-x="417" 
d="M51 -10v162h19c8 -34 13 -51 24 -70c20 -38 63 -63 110 -63c62 0 110 42 110 96c0 33 -15 53 -56 73c-9 5 -9 5 -100 43c-76 31 -97 57 -97 118c0 78 59 131 144 131c37 0 63 -8 98 -29l14 37h17v-151h-19c-9 80 -43 118 -106 118c-56 0 -98 -38 -98 -88
c0 -33 15 -53 55 -73c15 -7 20 -9 98 -40c77 -32 102 -61 102 -121c0 -82 -67 -142 -157 -142c-42 0 -83 14 -119 39l-22 -40h-17z" />
    <glyph glyph-name="t" unicode="t" horiz-adv-x="299" 
d="M286 44v-26c-32 -19 -59 -27 -90 -27c-72 0 -104 40 -104 129l1 40l3 276h-67v29c61 2 90 42 108 148h21v-141h122v-36h-122v-289c0 -91 15 -120 63 -120c19 0 37 5 65 17z" />
    <glyph glyph-name="u" unicode="u" horiz-adv-x="519" 
d="M17 452v14c50 5 93 12 133 23v-330c0 -90 26 -124 97 -124c77 0 112 44 112 142v221c0 48 -6 53 -71 54v14c50 5 94 12 133 23v-411c0 -45 5 -48 74 -49v-14c-50 -4 -89 -12 -125 -23c-2 17 -3 37 -4 91c-33 -65 -71 -91 -134 -91c-53 0 -97 21 -121 58
c-16 24 -23 58 -23 108v240c0 48 -6 53 -71 54z" />
    <glyph glyph-name="v" unicode="v" horiz-adv-x="474" 
d="M223 -11l-148 423c-13 37 -25 44 -78 46v17c47 -4 71 -5 99 -5c32 0 55 1 92 5v-17c-43 -2 -54 -7 -54 -24c0 -7 0 -9 5 -21l115 -329l115 326c7 19 8 23 8 28c0 14 -8 17 -50 20v17l14 -1c31 -3 53 -4 63 -4s27 1 72 5v-17c-49 -2 -61 -10 -75 -49l-150 -420h-28z" />
    <glyph glyph-name="w" unicode="w" horiz-adv-x="691" 
d="M346 376l-121 -387h-28l-121 423c-11 38 -19 44 -67 46v17c41 -4 63 -5 92 -5s52 1 93 5v-17c-43 -1 -59 -8 -59 -23c0 -5 0 -6 4 -19l88 -313l120 380h28l119 -383l91 313c3 10 5 19 5 23c0 15 -12 20 -56 22v17c39 -3 58 -4 82 -4c25 0 42 1 72 4v-17
c-46 0 -61 -9 -71 -40l-124 -429h-28z" />
    <glyph glyph-name="x" unicode="x" horiz-adv-x="499" 
d="M221 240l-103 178c-17 31 -32 39 -80 40v17c42 -4 66 -5 95 -5c30 0 53 1 95 5v-17c-33 -1 -46 -7 -46 -20c0 -5 1 -6 8 -20l70 -122l78 115c9 13 12 21 12 27c0 13 -13 19 -52 20v17c37 -3 56 -4 81 -4c26 0 45 1 82 4v-17c-50 -1 -63 -7 -87 -42l-99 -146l121 -209
c23 -41 33 -46 87 -47v-17c-48 5 -73 6 -100 6c-28 0 -52 -1 -101 -6v17c40 2 53 8 53 22c0 4 -1 8 -10 23l-89 154l-95 -142c-13 -20 -16 -26 -16 -34c0 -15 14 -21 58 -23v-17c-56 4 -68 5 -84 5s-28 -1 -83 -5v17c48 2 61 9 88 52z" />
    <glyph glyph-name="y" unicode="y" horiz-adv-x="486" 
d="M228 17l-147 402c-11 32 -20 37 -74 39v17c41 -4 64 -5 93 -5s51 1 92 5v-17c-38 -2 -52 -8 -52 -21c0 -5 0 -5 7 -26l113 -309l116 308c5 15 6 18 6 25c0 16 -13 21 -58 23v17c28 -3 42 -4 72 -4c31 0 51 1 88 4v-17c-51 -5 -64 -13 -74 -40l-187 -501
c-31 -83 -71 -113 -147 -111v48c64 1 97 25 123 90z" />
    <glyph glyph-name="z" unicode="z" horiz-adv-x="441" 
d="M37 0l281 449h-129c-63 0 -75 -12 -111 -100h-17l22 123h321l-282 -449h135c50 0 67 9 91 46c13 19 21 37 30 67h17l-24 -136h-334z" />
    <glyph glyph-name="braceleft" unicode="{" horiz-adv-x="297" 
d="M178 601v-256c0 -54 -12 -74 -58 -97c46 -24 58 -44 58 -97v-279c0 -46 20 -72 63 -83c-52 0 -62 1 -84 14c-28 15 -40 43 -40 93v273c0 46 -17 68 -62 79c45 11 62 32 62 79v249c0 50 12 78 40 94c22 12 32 14 84 14c-43 -12 -63 -38 -63 -83z" />
    <glyph glyph-name="bar" unicode="|" horiz-adv-x="500" 
d="M231 667h39v-834h-39v834z" />
    <glyph glyph-name="braceright" unicode="}" horiz-adv-x="297" 
d="M118 -128v279c0 54 11 73 58 97c-46 23 -58 43 -58 97v256c0 45 -20 71 -63 83c52 0 62 -2 84 -14c28 -16 40 -43 40 -94v-249c0 -47 17 -68 62 -79c-45 -11 -62 -33 -62 -79v-273c0 -50 -12 -78 -40 -93c-22 -13 -32 -14 -84 -14c43 11 63 37 63 83z" />
    <glyph glyph-name="asciitilde" unicode="~" horiz-adv-x="667" 
d="M537 367l11 -8c-32 -52 -88 -90 -136 -90c-20 0 -32 3 -67 14c-64 22 -89 28 -119 28c-38 0 -53 -9 -95 -61l-12 7c40 60 89 92 140 92c24 0 41 -4 93 -22c43 -14 59 -18 80 -18c39 0 74 19 105 58z" />
    <glyph glyph-name="exclamdown" unicode="&#xa1;" horiz-adv-x="234" 
d="M138 281l13 -459h-67l12 459h42zM117 481c27 0 52 -25 52 -52c0 -29 -23 -51 -52 -51s-51 22 -51 51c0 28 24 52 51 52z" />
    <glyph glyph-name="cent" unicode="&#xa2;" horiz-adv-x="516" 
d="M290 551v-431c52 8 87 57 96 131h36c-6 -88 -59 -152 -132 -161v-75h-31v74c-104 12 -171 107 -171 244c0 138 66 232 171 244v74h31v-74c32 -4 56 -15 80 -41l25 50h17v-155h-19c-15 73 -49 113 -103 120zM259 120v431c-70 -14 -104 -84 -104 -215
c0 -139 31 -203 104 -216z" />
    <glyph glyph-name="sterling" unicode="&#xa3;" horiz-adv-x="516" 
d="M204 361h123v-36h-128l-17 -135c-9 -69 -28 -117 -65 -166c32 21 64 31 96 31c18 0 27 -1 63 -10c25 -6 38 -8 57 -8c47 0 74 31 83 95h36c-8 -46 -19 -75 -39 -99c-22 -27 -45 -33 -114 -33h-235c27 31 40 70 49 144l22 181h-71v36h76l11 90c17 149 81 227 183 227
c66 0 102 -36 112 -110h-37c-8 56 -31 79 -75 79c-41 0 -74 -24 -93 -67c-10 -22 -17 -55 -23 -101z" />
    <glyph glyph-name="fraction" unicode="&#x2044;" horiz-adv-x="42" 
d="M-190 0l384 653h38l-384 -653h-38z" />
    <glyph glyph-name="yen" unicode="&#xa5;" horiz-adv-x="516" 
d="M216 328l-30 75h-128v36h112l-64 161c-14 35 -33 47 -82 50v20c52 -5 76 -7 103 -7s51 2 103 7v-20c-45 -5 -62 -12 -62 -26c0 -5 0 -5 8 -27l104 -262l108 267c4 11 6 18 6 23c0 16 -14 22 -60 25v20c53 -5 64 -6 81 -6c18 0 28 1 80 6v-20c-46 -5 -63 -17 -77 -50
l-65 -161h109v-36h-124l-30 -75h154v-36h-168v-210c0 -38 3 -46 24 -54c14 -6 27 -9 58 -11v-20c-63 6 -88 8 -116 8s-53 -2 -115 -8v20c31 2 43 5 58 11c21 8 24 15 24 54v210h-169v36h158z" />
    <glyph glyph-name="florin" unicode="&#x192;" horiz-adv-x="516" 
d="M416 472v-36h-107l-62 -348c-13 -79 -30 -131 -51 -160c-26 -36 -62 -55 -107 -55c-57 0 -97 32 -97 77c0 23 15 40 37 40c17 0 31 -13 31 -28c0 -3 -1 -9 -5 -20c-3 -9 -3 -11 -3 -16c0 -14 15 -25 35 -25c48 0 72 37 91 143l70 392h-70v29h16c53 0 57 3 69 63
c14 66 20 86 35 112c26 43 73 69 126 69c51 0 85 -29 85 -72c0 -26 -11 -39 -33 -39c-21 0 -34 11 -34 27c0 5 1 11 5 25c1 3 1 5 1 10c0 12 -12 21 -29 21c-45 0 -73 -34 -85 -105l-19 -104h101z" />
    <glyph glyph-name="section" unicode="&#xa7;" horiz-adv-x="516" 
d="M81 5h33c11 -75 54 -111 132 -111c71 0 119 41 119 101c0 41 -20 67 -75 99l-136 81c-53 31 -75 65 -75 114c0 67 34 100 121 117c-83 52 -104 79 -104 133c0 81 67 139 160 139c99 0 164 -58 169 -151h-34c-7 72 -51 111 -126 111c-69 0 -114 -34 -114 -87
c0 -40 19 -63 83 -100l120 -70c60 -35 83 -68 83 -119c0 -61 -32 -100 -105 -129c68 -44 91 -76 91 -129c0 -87 -72 -149 -173 -149c-97 0 -160 56 -169 150zM322 335l-84 50c-78 -15 -108 -38 -108 -86c0 -34 15 -54 57 -80l115 -69c60 25 85 54 85 99c0 37 -16 58 -65 86z
" />
    <glyph glyph-name="currency" unicode="&#xa4;" horiz-adv-x="667" 
d="M68 118l90 91c-36 46 -53 92 -53 144c0 53 16 96 53 143l-93 92l30 30l92 -91c48 37 93 54 146 54s99 -17 145 -54l92 91l30 -30l-92 -92c38 -47 53 -90 53 -143c0 -54 -16 -97 -52 -143l92 -92l-30 -31l-92 92c-45 -36 -91 -52 -145 -52c-53 0 -95 15 -145 52l-91 -92z
M335 534c-101 0 -181 -80 -181 -181c0 -100 79 -179 179 -179s179 79 179 179s-80 181 -177 181z" />
    <glyph glyph-name="quotesingle" unicode="'" horiz-adv-x="250" 
d="M150 400h-49l-9 267h67z" />
    <glyph glyph-name="quotedblleft" unicode="&#x201c;" horiz-adv-x="386" 
d="M279 671h50c-41 -37 -81 -105 -82 -138h4c6 2 9 3 14 3c23 0 41 -18 41 -42c0 -26 -22 -47 -50 -47c-32 0 -52 22 -52 58c0 47 28 109 75 166zM133 671h50c-41 -37 -81 -105 -82 -138h3c6 2 9 3 15 3c24 0 40 -17 40 -42c0 -27 -21 -47 -49 -47c-32 0 -52 22 -52 58
c0 47 28 108 75 166z" />
    <glyph glyph-name="guillemotleft" unicode="&#xab;" horiz-adv-x="379" 
d="M170 472h29l-86 -233l86 -239h-29l-111 239zM291 472h28l-86 -233l86 -239h-28l-111 239z" />
    <glyph glyph-name="guilsinglleft" unicode="&#x2039;" horiz-adv-x="258" 
d="M170 472h33l-86 -233l86 -239h-33l-111 239z" />
    <glyph glyph-name="guilsinglright" unicode="&#x203a;" horiz-adv-x="263" 
d="M92 472l111 -233l-111 -239h-33l86 239l-86 233h33z" />
    <glyph glyph-name="endash" unicode="&#x2013;" horiz-adv-x="516" 
d="M92 252v42h333v-42h-333z" />
    <glyph glyph-name="dagger" unicode="&#x2020;" horiz-adv-x="516" 
d="M229 -117l7 545l-167 -10v58l167 -9l-7 183h58l-7 -183l167 9v-58l-167 10l7 -545h-58z" />
    <glyph glyph-name="daggerdbl" unicode="&#x2021;" horiz-adv-x="516" 
d="M236 436l-164 -10v59l164 -10l-7 175h58l-7 -175l164 10v-59l-164 10v-331l164 10v-58l-164 9l7 -183h-58l7 183l-164 -9v58l164 -10v331z" />
    <glyph glyph-name="periodcentered" unicode="&#xb7;" 
d="M109 293c27 0 48 -21 48 -48c0 -28 -21 -49 -48 -49s-49 22 -49 48c0 28 22 49 49 49z" />
    <glyph glyph-name="paragraph" unicode="&#xb6;" horiz-adv-x="516" 
d="M482 667v-20c-72 -6 -81 -13 -81 -65v-645c0 -36 4 -45 24 -54c13 -6 22 -8 57 -11v-19c-63 6 -97 7 -172 7s-109 -1 -173 -7v19c35 3 44 5 58 11c20 9 24 18 24 54v400c-107 15 -158 70 -158 170c0 68 25 114 75 138c31 16 71 22 139 22h207zM359 -47v619
c0 58 -6 67 -47 67c-43 0 -51 -10 -51 -66v-621c0 -56 8 -66 51 -66c41 0 47 9 47 67z" />
    <glyph glyph-name="bullet" unicode="&#x2022;" horiz-adv-x="667" 
d="M336 477c40 0 70 -12 94 -38c26 -28 43 -67 43 -99c0 -75 -65 -140 -139 -140c-76 0 -138 63 -138 140c0 37 15 73 41 99c28 28 54 38 99 38z" />
    <glyph glyph-name="quotesinglbase" unicode="&#x201a;" horiz-adv-x="240" 
d="M106 -143h-49c42 40 80 105 82 138h-4c-6 -2 -9 -3 -14 -3c-23 0 -41 18 -41 42c0 27 22 47 50 47c32 0 52 -22 52 -58c0 -45 -27 -104 -76 -166z" />
    <glyph glyph-name="quotedblbase" unicode="&#x201e;" horiz-adv-x="386" 
d="M106 -143h-49c42 40 80 105 82 138h-4c-6 -2 -9 -3 -14 -3c-23 0 -41 18 -41 42c0 27 22 47 50 47c32 0 52 -22 52 -58c0 -45 -27 -104 -76 -166zM253 -143h-50c42 40 81 105 82 138h-4c-6 -2 -9 -3 -14 -3c-23 0 -41 19 -41 42c0 27 22 47 50 47c32 0 52 -22 52 -58
c0 -46 -26 -104 -75 -166z" />
    <glyph glyph-name="quotedblright" unicode="&#x201d;" horiz-adv-x="386" 
d="M106 454h-49c40 37 81 105 82 138h-4c-6 -2 -9 -3 -14 -3c-23 0 -41 18 -41 43c0 26 21 46 50 46c32 0 52 -22 52 -57c0 -47 -29 -110 -76 -167zM253 454h-50c41 37 81 105 82 138h-4c-6 -2 -9 -3 -14 -3c-23 0 -41 19 -41 43c0 26 22 46 50 46c32 0 52 -22 52 -57
c0 -47 -28 -110 -75 -167z" />
    <glyph glyph-name="guillemotright" unicode="&#xbb;" horiz-adv-x="379" 
d="M208 472l111 -233l-111 -239h-28l86 239l-86 233h28zM87 472l112 -233l-112 -239h-28l86 239l-86 233h28z" />
    <glyph glyph-name="ellipsis" unicode="&#x2026;" horiz-adv-x="652" 
d="M109 89c27 0 48 -22 48 -49s-21 -48 -48 -48c-28 0 -49 21 -49 48s22 49 49 49zM327 89c26 0 47 -21 47 -49c0 -27 -20 -48 -48 -48c-27 0 -49 22 -49 48c0 27 22 49 50 49zM544 89c26 0 47 -21 47 -49s-20 -48 -48 -48c-27 0 -49 22 -49 48c0 27 23 49 50 49z" />
    <glyph glyph-name="perthousand" unicode="&#x2030;" horiz-adv-x="884" 
d="M161 673c72 0 123 -66 123 -159c0 -94 -52 -160 -126 -160c-75 0 -125 64 -125 161c0 93 53 158 128 158zM160 651c-50 0 -77 -48 -77 -137c0 -93 24 -138 75 -138c49 0 76 48 76 137c0 90 -26 138 -74 138zM76 0l393 667h38l-393 -667h-38zM428 313
c72 0 123 -65 123 -159c0 -93 -53 -160 -126 -160c-75 0 -125 65 -125 161c0 93 52 158 128 158zM427 291c-50 0 -77 -47 -77 -136c0 -94 24 -139 75 -139c49 0 76 49 76 137c0 91 -26 138 -74 138zM728 313c72 0 122 -65 122 -159c0 -95 -51 -160 -125 -160
c-75 0 -126 65 -126 161c0 92 54 158 129 158zM726 291c-49 0 -77 -50 -77 -137c0 -92 25 -138 75 -138s76 46 76 137c0 92 -25 138 -74 138z" />
    <glyph glyph-name="questiondown" unicode="&#xbf;" horiz-adv-x="365" 
d="M191 292h42c4 -27 5 -40 5 -58c0 -35 -7 -65 -22 -91c-13 -25 -15 -27 -68 -77c-41 -39 -61 -75 -61 -111c0 -54 37 -90 93 -90c71 0 117 45 125 120h22c0 -54 -11 -87 -38 -117c-30 -32 -78 -52 -128 -52c-82 0 -140 57 -140 138c0 29 8 57 23 81s21 30 72 72
c58 48 78 86 78 147c0 16 -1 22 -3 38zM203 481c28 0 52 -25 52 -52c0 -29 -23 -51 -52 -51s-51 22 -51 51c0 28 24 52 51 52z" />
    <glyph glyph-name="grave" unicode="`" horiz-adv-x="500" 
d="M310 552h-44l-148 150h79z" />
    <glyph glyph-name="acute" unicode="&#xb4;" horiz-adv-x="500" 
d="M221 552l113 150h79l-147 -150h-45z" />
    <glyph glyph-name="circumflex" unicode="&#x2c6;" horiz-adv-x="500" 
d="M100 558l119 139h63l119 -139h-48l-103 92l-102 -92h-48z" />
    <glyph glyph-name="tilde" unicode="&#x2dc;" horiz-adv-x="500" 
d="M129 581l-27 7c15 69 39 94 88 94c30 0 36 -3 85 -44c16 -13 28 -18 44 -18c30 0 49 19 54 54l26 -6c-8 -64 -38 -98 -88 -98c-27 0 -41 7 -78 39c-20 17 -32 23 -49 23c-28 0 -48 -19 -55 -51z" />
    <glyph glyph-name="macron" unicode="&#xaf;" horiz-adv-x="500" 
d="M105 596v46h290v-46h-290z" />
    <glyph glyph-name="breve" unicode="&#x2d8;" horiz-adv-x="500" 
d="M351 698h32c-9 -86 -60 -141 -133 -141c-72 0 -123 55 -132 141h32c12 -52 51 -85 100 -85c50 0 88 33 101 85z" />
    <glyph glyph-name="dotaccent" unicode="&#x2d9;" horiz-adv-x="500" 
d="M250 664c26 0 47 -21 47 -47c0 -27 -21 -48 -47 -48s-48 22 -48 48c0 27 21 47 48 47z" />
    <glyph glyph-name="dieresis" unicode="&#xa8;" horiz-adv-x="500" 
d="M164 664c26 0 47 -21 47 -47c0 -27 -21 -48 -47 -48s-48 22 -48 48c0 27 21 47 48 47zM338 664c26 0 46 -20 46 -47s-21 -48 -47 -48s-48 22 -48 48s22 47 49 47z" />
    <glyph glyph-name="ring" unicode="&#x2da;" horiz-adv-x="500" 
d="M252 715c43 0 80 -38 80 -82c0 -45 -36 -81 -81 -81c-46 0 -82 36 -82 81s37 82 83 82zM251 683c-28 0 -50 -22 -50 -50s22 -49 49 -49c28 0 50 21 50 49c0 27 -23 50 -49 50z" />
    <glyph glyph-name="cedilla" unicode="&#xb8;" horiz-adv-x="500" 
d="M242 0h42l-30 -62c57 -6 84 -28 84 -67c0 -44 -37 -73 -92 -73c-28 0 -44 3 -72 15v29c29 -8 34 -9 51 -9c34 0 54 16 54 44c0 29 -22 42 -78 45z" />
    <glyph glyph-name="hungarumlaut" unicode="&#x2dd;" horiz-adv-x="500" 
d="M171 552l85 150h74l-120 -150h-39zM302 552l85 150h74l-120 -150h-39z" />
    <glyph glyph-name="ogonek" unicode="&#x2db;" horiz-adv-x="500" 
d="M304 10l26 -7c-57 -21 -87 -47 -87 -78c0 -26 25 -47 57 -47c8 0 18 2 31 5v-29c-23 -8 -40 -12 -56 -12c-51 0 -91 33 -91 75c0 43 39 74 120 93z" />
    <glyph glyph-name="caron" unicode="&#x2c7;" horiz-adv-x="500" 
d="M401 697l-119 -139h-63l-119 139h48l102 -92l103 92h48z" />
    <glyph glyph-name="emdash" unicode="&#x2014;" horiz-adv-x="560" 
d="M0 252v42h560v-42h-560z" />
    <glyph glyph-name="AE" unicode="&#xc6;" horiz-adv-x="880" 
d="M812 667l13 -141h-19c-25 92 -46 113 -112 113h-154v-278h156c44 0 55 15 58 82h20v-193h-20c-3 62 -18 83 -58 83h-156v-243c0 -28 2 -38 11 -46c10 -10 31 -16 60 -16h78c59 0 78 9 98 44c12 21 21 45 29 80h20l-20 -152h-424v20c71 6 81 14 81 65v146h-233l-92 -163
c-6 -11 -9 -20 -9 -26c0 -18 16 -23 71 -25v-20c-69 5 -84 6 -100 6s-34 -1 -100 -6v20c61 4 79 15 109 67l336 583h357zM257 259h216v380z" />
    <glyph glyph-name="ordfeminine" unicode="&#xaa;" horiz-adv-x="344" 
d="M302 399v-22c-13 -3 -25 -4 -34 -4c-26 0 -38 12 -45 45c-18 -32 -44 -47 -80 -47c-51 0 -88 35 -88 83c0 57 58 97 161 110v31c0 44 -14 61 -50 61c-32 0 -53 -14 -53 -36c0 -30 -5 -38 -25 -39c-12 -1 -21 9 -21 22c0 40 47 75 101 75c60 0 93 -32 93 -92v-133
c0 -43 5 -56 22 -56c7 0 10 0 19 2zM216 494v47c-77 -12 -115 -41 -115 -87c0 -32 20 -52 51 -52c45 0 64 28 64 92zM36 317h276v-34h-276v34z" />
    <glyph glyph-name="Lslash" unicode="&#x141;" horiz-adv-x="488" 
d="M116 316l-82 -50v37l82 49v233c0 51 -11 60 -82 65v20c63 -6 88 -8 116 -8c27 0 52 2 114 8v-20c-71 -5 -81 -13 -81 -65v-204l152 91v-37l-152 -91v-250c0 -27 2 -38 11 -46c10 -10 30 -16 59 -16h78c59 0 78 8 98 43c12 20 20 43 29 77h19l-19 -152h-424v20
c72 6 82 14 82 65v231z" />
    <glyph glyph-name="Oslash" unicode="&#xd8;" horiz-adv-x="619" 
d="M557 667h43l-84 -103c36 -66 52 -132 52 -218c0 -215 -103 -357 -259 -357c-74 0 -124 22 -183 83l-58 -72h-45l81 104c-36 64 -53 135 -53 220c0 213 104 354 261 354c75 0 139 -30 184 -87zM144 150l318 403c-35 66 -82 98 -146 98c-122 0 -197 -127 -197 -334
c0 -64 8 -118 25 -167zM476 515l-316 -402c29 -61 84 -97 148 -97c118 0 192 130 192 336c0 68 -8 121 -24 163z" />
    <glyph glyph-name="OE" unicode="&#x152;" horiz-adv-x="902" 
d="M495 566v101h339l13 -141h-19c-25 92 -46 113 -112 113h-162v-278h163c45 0 56 15 59 82h20v-193h-20c-2 62 -17 83 -58 83h-164v-243c0 -49 16 -62 78 -62h79c59 0 78 9 98 44c12 21 21 45 29 80h20l-20 -152h-343v99c-48 -75 -107 -110 -188 -110
c-154 0 -257 140 -257 348c0 203 103 341 254 341c81 0 140 -35 191 -112zM308 651c-115 0 -186 -120 -186 -315c0 -196 74 -320 190 -320c114 0 183 119 183 314c0 201 -70 321 -187 321z" />
    <glyph glyph-name="ordmasculine" unicode="&#xba;" horiz-adv-x="344" 
d="M175 678c69 0 116 -62 116 -155c0 -88 -50 -152 -119 -152c-70 0 -118 62 -118 154c0 91 49 153 121 153zM174 656c-47 0 -72 -46 -72 -132s24 -131 70 -131c44 0 71 48 71 130c0 87 -24 133 -69 133zM34 317h277v-34h-277v34z" />
    <glyph glyph-name="ae" unicode="&#xe6;" horiz-adv-x="705" 
d="M623 155h40c-9 -102 -74 -163 -173 -163c-81 0 -133 34 -170 110c-28 -76 -72 -110 -142 -110c-79 0 -136 53 -136 125c0 59 41 107 114 133c41 14 78 22 146 31v70c0 40 -5 60 -17 76c-15 18 -39 28 -69 28c-35 0 -68 -14 -83 -34c-7 -10 -7 -13 -7 -44
c0 -30 -11 -43 -36 -43c-18 0 -28 10 -28 29c0 63 73 117 157 117c58 0 106 -24 130 -64c33 41 81 64 137 64c79 0 136 -44 160 -125c9 -29 14 -58 16 -107h-301c1 -72 6 -112 20 -146c23 -53 60 -79 115 -79c73 0 116 44 127 132zM302 186v69c-68 -12 -89 -17 -121 -32
c-50 -22 -75 -57 -75 -104c0 -54 34 -88 88 -88c76 0 108 46 108 155zM362 284h238c-2 108 -44 171 -115 171c-69 0 -114 -62 -123 -171z" />
    <glyph glyph-name="dotlessi" unicode="&#x131;" horiz-adv-x="263" 
d="M165 489v-424c0 -40 12 -48 71 -51v-17c-48 5 -71 6 -102 6c-30 0 -54 -1 -103 -6v17c60 3 72 11 72 51v333c0 48 -6 53 -71 54v14c50 4 95 12 133 23z" />
    <glyph glyph-name="lslash" unicode="&#x142;" horiz-adv-x="260" 
d="M165 384l71 43v-37l-71 -44v-281c0 -40 12 -48 71 -51v-17c-48 5 -71 6 -102 6c-30 0 -54 -1 -103 -6v17c60 3 72 11 72 51v258l-72 -43v38l72 43v223c0 48 -7 54 -71 54v14c49 5 96 13 133 23v-291z" />
    <glyph glyph-name="oslash" unicode="&#xf8;" horiz-adv-x="456" 
d="M61 0h-41l59 76c-26 45 -37 90 -37 150c0 150 79 255 192 255c49 0 87 -17 120 -52l33 43h42l-55 -71c27 -44 40 -97 40 -156c0 -147 -79 -254 -189 -254c-49 0 -93 20 -126 57zM338 356l-210 -273c20 -44 53 -67 95 -67c43 0 82 28 102 73c18 42 29 101 29 159
c0 42 -5 78 -16 108zM116 120l209 275c-21 41 -51 61 -92 61c-82 0 -131 -89 -131 -237c0 -40 3 -64 14 -99z" />
    <glyph glyph-name="oe" unicode="&#x153;" horiz-adv-x="750" 
d="M668 155h39c-9 -103 -73 -163 -172 -163c-74 0 -123 28 -159 88c-36 -58 -86 -88 -149 -88c-111 0 -185 98 -185 244s76 244 190 244c62 0 112 -30 145 -88c36 58 88 88 153 88c114 0 176 -85 176 -240h-301c2 -68 7 -105 21 -138c22 -53 59 -79 114 -79
c73 0 116 45 128 132zM230 455c-79 0 -121 -77 -121 -220c0 -145 39 -218 117 -218c77 0 121 78 121 216c0 146 -40 222 -117 222zM406 276h239c-4 120 -42 179 -115 179c-72 0 -110 -55 -124 -179z" />
    <glyph glyph-name="germandbls" unicode="&#xdf;" horiz-adv-x="505" 
d="M200 357v28c103 1 149 43 149 136c0 80 -32 124 -91 124c-35 0 -69 -19 -85 -49c-11 -22 -16 -49 -16 -92v-506c-22 3 -33 3 -59 3c-27 0 -44 -1 -75 -4v17c60 3 72 11 72 51v416c0 54 11 94 33 126c30 41 80 66 135 66c89 0 153 -63 153 -151c0 -43 -18 -83 -49 -110
c-17 -14 -30 -22 -63 -37c106 -25 158 -89 158 -192c0 -105 -69 -189 -155 -189c-31 0 -56 10 -89 36v25c23 -14 43 -21 62 -21c67 0 115 60 115 145c0 110 -73 177 -195 178z" />
    <glyph glyph-name="onesuperior" unicode="&#xb9;" horiz-adv-x="337" 
d="M196 672v-359c0 -29 4 -31 50 -35v-18c-28 3 -35 3 -73 3c-39 0 -46 0 -75 -3v18c47 4 51 6 51 35v274h-70v18c52 3 87 28 96 67h21z" />
    <glyph glyph-name="logicalnot" unicode="&#xac;" horiz-adv-x="500" 
d="M391 0v235h-353v32h425v-267h-72z" />
    <glyph glyph-name="mu" unicode="&#xb5;" horiz-adv-x="432" 
d="M438 51v-15l-65 -45c-1 -1 -2 -1 -4 -1c-11 0 -24 8 -33 20c-8 11 -12 27 -16 68c-78 -75 -109 -92 -164 -92c-57 0 -92 29 -110 90v-32c0 -43 0 -43 8 -137c2 -18 3 -36 3 -42c0 -31 -12 -53 -29 -53c-16 0 -29 20 -29 46c0 9 3 32 6 55c16 103 27 256 27 378v167h51
v-287c0 -67 6 -93 29 -117c16 -17 40 -26 69 -26c56 0 94 24 137 87v343h51v-346c0 -58 8 -74 38 -74c11 0 17 3 31 13z" />
    <glyph glyph-name="trademark" unicode="&#x2122;" horiz-adv-x="842" 
d="M188 644v-326c0 -28 5 -32 51 -35v-19c-38 4 -55 5 -75 5s-37 -1 -74 -5v19c45 3 50 7 50 35v326h-35c-40 0 -50 -10 -69 -67h-20l17 90h265l18 -90h-19c-17 57 -27 67 -65 67h-44zM450 612l-15 -294v-5c0 -22 9 -27 51 -30v-18c-33 2 -48 3 -64 3c-17 0 -31 -1 -64 -3
v18c43 3 48 6 50 35l16 298v5c0 22 -9 27 -51 30v18c15 -1 36 -2 56 -2c16 0 21 0 47 3l114 -308l117 308c35 -3 37 -3 48 -3c20 0 41 1 55 2v-18c-40 -3 -51 -9 -51 -26v-9l7 -298c0 -28 7 -32 51 -35v-18c-36 3 -53 4 -75 4s-39 -1 -75 -4v18c40 1 51 8 51 30v5l-5 296
l-126 -336h-13z" />
    <glyph glyph-name="Eth" unicode="&#xd0;" horiz-adv-x="627" 
d="M29 647v20h231c97 0 153 -17 204 -62c71 -63 112 -164 112 -273c0 -108 -42 -210 -111 -269c-50 -43 -111 -63 -194 -63h-242v20c72 6 82 14 82 65v247h-82v33h82v217c0 52 -10 59 -82 65zM178 639v-274h166v-33h-166v-251c0 -48 9 -55 71 -55c78 0 133 18 173 57
c54 51 82 136 82 250c0 106 -24 188 -72 243c-37 44 -89 63 -167 63h-87z" />
    <glyph glyph-name="onehalf" unicode="&#xbd;" horiz-adv-x="716" 
d="M196 672v-359c0 -28 4 -31 50 -35v-18c-28 3 -35 3 -74 3c-38 0 -45 0 -74 -3v18c47 4 51 6 51 35v274h-70v18c52 3 87 28 96 67h21zM147 0l384 653h39l-385 -653h-38zM661 39l-4 -39h-232v28c48 57 84 101 110 136c59 79 75 108 75 139c0 36 -26 61 -65 61
c-30 0 -57 -14 -71 -37c-8 -13 -12 -25 -15 -51h-24c4 43 10 64 25 82c19 25 54 39 92 39c62 0 108 -39 108 -90c0 -38 -16 -66 -84 -149l-100 -119h185z" />
    <glyph glyph-name="plusminus" unicode="&#xb1;" horiz-adv-x="516" 
d="M56 34v52h403v-52h-403zM56 313v50h176v173h52v-173h175v-50h-175v-174h-52v174h-176z" />
    <glyph glyph-name="Thorn" unicode="&#xde;" horiz-adv-x="528" 
d="M183 208v-126c0 -37 4 -46 24 -55c13 -6 23 -7 57 -10v-20c-61 6 -86 8 -114 8c-29 0 -54 -2 -116 -8v20c72 6 82 14 82 65v503c0 51 -11 60 -82 65v20c63 -6 88 -8 116 -8c27 0 52 2 114 8v-20c-71 -5 -81 -13 -81 -65v-18h103c68 0 109 -10 144 -36
c43 -32 70 -89 70 -147c0 -57 -26 -107 -71 -140c-36 -25 -76 -36 -134 -36h-112zM183 236h93c47 0 79 9 104 28c33 26 53 73 53 126c0 45 -15 89 -40 114c-23 25 -55 35 -109 35h-101v-303z" />
    <glyph glyph-name="onequarter" unicode="&#xbc;" horiz-adv-x="716" 
d="M196 672v-359c0 -29 4 -31 50 -35v-18c-28 3 -35 3 -73 3c-39 0 -46 0 -75 -3v18c47 4 51 6 51 35v274h-70v18c52 3 87 28 96 67h21zM147 0l385 653h38l-385 -653h-38zM576 -11v117h-173l179 295h42v-257h69v-38h-69v-117h-48zM577 144v205l-122 -205h122z" />
    <glyph glyph-name="divide" unicode="&#xf7;" horiz-adv-x="516" 
d="M258 256c26 0 45 -20 45 -45c0 -27 -19 -46 -45 -46s-46 20 -46 45c0 26 20 46 46 46zM258 510c26 0 45 -19 45 -45s-20 -46 -45 -46c-26 0 -46 20 -46 46c0 25 20 45 46 45zM56 313v50h403v-50h-403z" />
    <glyph glyph-name="brokenbar" unicode="&#xa6;" horiz-adv-x="500" 
d="M231 667h39v-328h-39v328zM231 153h39v-320h-39v320z" />
    <glyph glyph-name="degree" unicode="&#xb0;" horiz-adv-x="500" 
d="M250 678c78 0 139 -60 139 -136c0 -75 -61 -135 -138 -135c-79 0 -140 60 -140 137c0 73 63 134 139 134zM250 638c-53 0 -97 -43 -97 -94c0 -55 43 -97 97 -97c55 0 97 42 97 96c0 53 -43 95 -97 95z" />
    <glyph glyph-name="thorn" unicode="&#xfe;" horiz-adv-x="510" 
d="M160 675v-274c30 54 69 79 126 79c108 0 182 -100 182 -243c0 -145 -74 -245 -180 -245c-59 0 -95 25 -128 89v-214c0 -40 10 -48 71 -51v-17c-52 5 -75 6 -102 6s-50 -1 -103 -6v17c61 3 72 11 72 51v717c0 48 -7 54 -71 54v14c48 5 96 13 133 23zM279 452
c-78 0 -120 -73 -120 -206c0 -147 43 -226 123 -226c78 0 119 74 119 217c0 138 -44 215 -122 215z" />
    <glyph glyph-name="threequarters" unicode="&#xbe;" horiz-adv-x="716" 
d="M42 377h25c1 -25 3 -35 9 -49c11 -27 38 -43 74 -43c53 0 88 35 88 87c0 39 -17 68 -47 79c-14 6 -29 7 -61 8v26h10c50 0 83 31 83 78c0 40 -25 65 -67 65c-47 0 -72 -24 -82 -77h-23c8 72 45 107 113 107c63 0 107 -39 107 -95c0 -40 -20 -67 -68 -88
c59 -19 85 -50 85 -101c0 -67 -55 -118 -129 -118c-76 0 -116 40 -117 121zM147 0l384 653h38l-384 -653h-38zM576 -11v117h-173l179 295h42v-257h68v-38h-68v-117h-48zM577 144v205l-122 -205h122z" />
    <glyph glyph-name="twosuperior" unicode="&#xb2;" horiz-adv-x="337" 
d="M281 300l-4 -39h-232v28c44 52 83 100 110 135c59 80 75 109 75 140c0 36 -26 61 -65 61c-50 0 -78 -29 -86 -88h-24c4 43 10 64 25 83c19 24 53 38 92 38c62 0 108 -38 108 -91c0 -44 -26 -83 -184 -267h185z" />
    <glyph glyph-name="registered" unicode="&#xae;" horiz-adv-x="778" 
d="M326 324v-139c0 -29 5 -32 51 -36v-18c-40 4 -57 5 -75 5s-35 -1 -74 -5v18c45 4 50 7 50 36v295c0 28 -7 32 -50 35v18h163c37 0 62 -6 83 -19c29 -19 47 -52 47 -86c0 -52 -29 -84 -91 -101c20 -11 26 -18 39 -45l46 -103c13 -26 17 -28 51 -29v-19c-17 2 -26 2 -40 2
c-13 0 -22 0 -39 -2l-67 148c-17 38 -28 45 -70 45h-24zM326 347h56c59 0 91 30 91 84c0 52 -29 79 -88 79h-59v-163zM388 678c191 0 345 -154 345 -344c0 -193 -154 -345 -349 -345c-186 0 -340 156 -340 345c0 190 154 344 344 344zM388 645c-172 0 -311 -139 -311 -311
c0 -171 139 -312 308 -312c176 0 315 137 315 312c0 172 -140 311 -312 311z" />
    <glyph glyph-name="minus" unicode="&#x2212;" horiz-adv-x="516" 
d="M56 313v50h403v-50h-403z" />
    <glyph glyph-name="eth" unicode="&#xf0;" horiz-adv-x="456" 
d="M145 657l22 15l52 -67l79 50l18 -28l-76 -48l88 -112c63 -80 85 -142 85 -238c0 -143 -73 -237 -183 -237c-113 0 -188 100 -188 248c0 144 75 240 188 240c15 0 19 0 34 -3l-55 82l-74 -46l-17 27l74 46zM226 455c-77 0 -117 -71 -117 -207c0 -152 41 -231 121 -231
c75 0 117 73 117 205c0 151 -43 233 -121 233z" />
    <glyph glyph-name="multiply" unicode="&#xd7;" horiz-adv-x="516" 
d="M78 481l37 37l145 -145l144 144l34 -34l-144 -144l145 -145l-37 -37l-145 145l-144 -144l-34 34l144 144z" />
    <glyph glyph-name="threesuperior" unicode="&#xb3;" horiz-adv-x="337" 
d="M42 377h25c1 -25 3 -35 9 -49c11 -27 38 -43 74 -43c53 0 88 35 88 87c0 39 -17 68 -47 79c-14 6 -29 7 -61 8v26h10c50 0 83 31 83 78c0 40 -25 65 -67 65c-47 0 -72 -24 -82 -77h-23c8 72 45 107 113 107c63 0 107 -39 107 -95c0 -40 -20 -67 -68 -88
c59 -19 85 -50 85 -101c0 -67 -55 -118 -129 -118c-76 0 -116 40 -117 121z" />
    <glyph glyph-name="copyright" unicode="&#xa9;" horiz-adv-x="778" 
d="M497 270h29c-4 -91 -52 -143 -134 -143c-97 0 -164 84 -164 208c0 121 67 205 165 205c36 0 69 -11 92 -31l22 29h15v-115h-18c-17 65 -50 94 -105 94c-75 0 -120 -69 -120 -183c0 -111 45 -181 117 -181c60 0 97 42 101 117zM388 678c191 0 345 -154 345 -344
c0 -193 -154 -345 -349 -345c-186 0 -340 156 -340 345c0 190 154 344 344 344zM388 645c-172 0 -311 -139 -311 -311c0 -171 139 -312 308 -312c176 0 315 137 315 312c0 172 -140 311 -312 311z" />
    <glyph glyph-name="Aacute" unicode="&#xc1;" horiz-adv-x="629" 
d="M415 198h-238l-36 -103c-8 -25 -12 -39 -12 -48c0 -20 18 -28 64 -30v-20c-44 5 -66 6 -91 6c-26 0 -48 -1 -92 -6v20c60 4 71 11 88 59l230 611l201 -615c15 -43 26 -50 90 -55v-20c-51 6 -78 8 -111 8s-60 -2 -111 -8v20c43 4 61 13 61 31c0 6 -3 23 -6 32zM187 226
h219l-101 323zM273 725l141 139h88l-178 -139h-51z" />
    <glyph glyph-name="Acircumflex" unicode="&#xc2;" horiz-adv-x="629" 
d="M415 198h-238l-36 -103c-8 -25 -12 -39 -12 -48c0 -20 18 -28 64 -30v-20c-44 5 -66 6 -91 6c-26 0 -48 -1 -92 -6v20c60 4 71 11 88 59l230 611l201 -615c15 -43 26 -50 90 -55v-20c-51 6 -78 8 -111 8s-60 -2 -111 -8v20c43 4 61 13 61 31c0 6 -3 23 -6 32zM187 226
h219l-101 323zM160 731l127 128h75l127 -128h-51l-114 92l-113 -92h-51z" />
    <glyph glyph-name="Adieresis" unicode="&#xc4;" horiz-adv-x="629" 
d="M415 198h-238l-36 -103c-8 -25 -12 -39 -12 -48c0 -20 18 -28 64 -30v-20c-44 5 -66 6 -91 6c-26 0 -48 -1 -92 -6v20c60 4 71 11 88 59l230 611l201 -615c15 -43 26 -50 90 -55v-20c-51 6 -78 8 -111 8s-60 -2 -111 -8v20c43 4 61 13 61 31c0 6 -3 23 -6 32zM187 226
h219l-101 323zM237 846c28 0 50 -23 50 -51c0 -30 -21 -51 -50 -51s-52 23 -52 51c0 27 24 51 52 51zM413 846c28 0 50 -23 50 -51c0 -30 -21 -51 -51 -51c-28 0 -51 22 -51 51c0 28 23 51 52 51z" />
    <glyph glyph-name="Agrave" unicode="&#xc0;" horiz-adv-x="629" 
d="M415 198h-238l-36 -103c-8 -25 -12 -39 -12 -48c0 -20 18 -28 64 -30v-20c-44 5 -66 6 -91 6c-26 0 -48 -1 -92 -6v20c60 4 71 11 88 59l230 611l201 -615c15 -43 26 -50 90 -55v-20c-51 6 -78 8 -111 8s-60 -2 -111 -8v20c43 4 61 13 61 31c0 6 -3 23 -6 32zM187 226
h219l-101 323zM384 725h-50l-178 139h87z" />
    <glyph glyph-name="Aring" unicode="&#xc5;" horiz-adv-x="629" 
d="M415 198h-238l-36 -103c-8 -25 -12 -39 -12 -48c0 -20 18 -28 64 -30v-20c-44 5 -66 6 -91 6c-26 0 -48 -1 -92 -6v20c60 4 71 11 88 59l230 611l201 -615c15 -43 26 -50 90 -55v-20c-51 6 -78 8 -111 8s-60 -2 -111 -8v20c43 4 61 13 61 31c0 6 -3 23 -6 32zM187 226
h219l-101 323zM326 876c44 0 80 -37 80 -81c0 -45 -37 -82 -81 -82c-45 0 -82 37 -82 81c0 46 36 82 83 82zM325 844c-28 0 -50 -21 -50 -49s22 -50 49 -50c28 0 50 22 50 50c0 27 -22 49 -49 49z" />
    <glyph glyph-name="Atilde" unicode="&#xc3;" horiz-adv-x="629" 
d="M415 198h-238l-36 -103c-8 -25 -12 -39 -12 -48c0 -20 18 -28 64 -30v-20c-44 5 -66 6 -91 6c-26 0 -48 -1 -92 -6v20c60 4 71 11 88 59l230 611l201 -615c15 -43 26 -50 90 -55v-20c-51 6 -78 8 -111 8s-60 -2 -111 -8v20c43 4 61 13 61 31c0 6 -3 23 -6 32zM187 226
h219l-101 323zM197 748l-29 7c13 65 42 94 95 94c32 0 39 -4 92 -44c16 -13 29 -18 46 -18c32 0 53 19 59 53l27 -5c-8 -64 -41 -98 -94 -98c-29 0 -44 7 -84 39c-21 17 -35 23 -53 23c-29 0 -51 -19 -59 -51z" />
    <glyph glyph-name="Ccedilla" unicode="&#xc7;" horiz-adv-x="584" 
d="M322 -11l-24 -49c60 -6 88 -29 88 -72c0 -45 -39 -79 -92 -79c-27 0 -50 4 -78 15v32c27 -7 31 -8 50 -8c38 0 59 17 59 46c0 32 -22 44 -82 46l36 71c-140 18 -228 151 -228 345c0 205 104 342 261 342c61 0 107 -17 149 -55l36 52h17v-184h-19
c-28 108 -85 160 -176 160c-124 0 -196 -117 -196 -317c0 -195 72 -312 193 -312c62 0 117 35 144 90c15 33 21 60 24 108h37c-4 -137 -79 -225 -199 -231z" />
    <glyph glyph-name="Eacute" unicode="&#xc9;" horiz-adv-x="528" 
d="M477 152l-19 -152h-424v20c72 6 82 14 82 65v497c0 51 -10 59 -82 65v20h419l14 -141h-19c-25 92 -46 113 -112 113h-153v-278h155c44 0 55 15 58 82h20v-193h-20c-2 61 -17 83 -58 83h-155v-243c0 -50 14 -62 70 -62h78c59 0 78 9 98 44c12 21 21 45 29 80h19zM211 725
l141 139h88l-178 -139h-51z" />
    <glyph glyph-name="Ecircumflex" unicode="&#xca;" horiz-adv-x="528" 
d="M477 152l-19 -152h-424v20c72 6 82 14 82 65v497c0 51 -10 59 -82 65v20h419l14 -141h-19c-25 92 -46 113 -112 113h-153v-278h155c44 0 55 15 58 82h20v-193h-20c-2 61 -17 83 -58 83h-155v-243c0 -50 14 -62 70 -62h78c59 0 78 9 98 44c12 21 21 45 29 80h19zM108 731
l127 128h75l127 -128h-51l-114 92l-113 -92h-51z" />
    <glyph glyph-name="Edieresis" unicode="&#xcb;" horiz-adv-x="528" 
d="M477 152l-19 -152h-424v20c72 6 82 14 82 65v497c0 51 -10 59 -82 65v20h419l14 -141h-19c-25 92 -46 113 -112 113h-153v-278h155c44 0 55 15 58 82h20v-193h-20c-2 61 -17 83 -58 83h-155v-243c0 -50 14 -62 70 -62h78c59 0 78 9 98 44c12 21 21 45 29 80h19zM185 846
c28 0 50 -23 50 -51c0 -30 -21 -51 -50 -51s-52 23 -52 51c0 27 24 51 52 51zM361 846c28 0 50 -23 50 -51c0 -30 -21 -51 -51 -51c-28 0 -51 22 -51 51c0 28 23 51 52 51z" />
    <glyph glyph-name="Egrave" unicode="&#xc8;" horiz-adv-x="528" 
d="M477 152l-19 -152h-424v20c72 6 82 14 82 65v497c0 51 -10 59 -82 65v20h419l14 -141h-19c-25 92 -46 113 -112 113h-153v-278h155c44 0 55 15 58 82h20v-193h-20c-2 61 -17 83 -58 83h-155v-243c0 -50 14 -62 70 -62h78c59 0 78 9 98 44c12 21 21 45 29 80h19zM332 725
h-50l-178 139h88z" />
    <glyph glyph-name="Iacute" unicode="&#xcd;" horiz-adv-x="298" 
d="M264 17v-20c-61 6 -86 8 -114 8c-29 0 -54 -2 -116 -8v20c72 6 82 14 82 65v503c0 51 -11 60 -82 65v20c63 -6 88 -8 116 -8c27 0 52 2 114 8v-20c-71 -5 -81 -13 -81 -65v-503c0 -52 9 -59 81 -65zM95 725l120 139h85l-155 -139h-50z" />
    <glyph glyph-name="Icircumflex" unicode="&#xce;" horiz-adv-x="298" 
d="M264 17v-20c-62 6 -87 8 -115 8c-29 0 -54 -2 -115 -8v20c71 6 81 14 81 65v503c0 51 -10 60 -81 65v20c62 -6 87 -8 115 -8c27 0 52 2 115 8v-20c-72 -5 -82 -13 -82 -65v-503c0 -52 9 -59 82 -65zM-4 731l116 128h74l115 -128h-49l-103 92l-104 -92h-49z" />
    <glyph glyph-name="Idieresis" unicode="&#xcf;" horiz-adv-x="298" 
d="M264 17v-20c-61 6 -86 8 -114 8c-29 0 -54 -2 -116 -8v20c72 6 82 14 82 65v503c0 51 -11 60 -82 65v20c63 -6 88 -8 116 -8c27 0 52 2 114 8v-20c-71 -5 -81 -13 -81 -65v-503c0 -52 9 -59 81 -65zM73 846c27 0 50 -23 50 -51c0 -29 -22 -51 -51 -51s-51 22 -51 51
c0 28 23 51 52 51zM226 846c27 0 51 -24 51 -51c0 -29 -23 -51 -51 -51c-30 0 -51 21 -51 51c0 29 22 51 51 51z" />
    <glyph glyph-name="Igrave" unicode="&#xcc;" horiz-adv-x="298" 
d="M264 17v-20c-61 6 -86 8 -114 8c-29 0 -54 -2 -116 -8v20c72 6 82 14 82 65v503c0 51 -11 60 -82 65v20c63 -6 88 -8 116 -8c27 0 52 2 114 8v-20c-71 -5 -81 -13 -81 -65v-503c0 -52 9 -59 81 -65zM203 725h-50l-155 139h84z" />
    <glyph glyph-name="Ntilde" unicode="&#xd1;" horiz-adv-x="665" 
d="M552 -22h-11l-393 618v-514c0 -39 3 -46 24 -54c14 -6 27 -9 57 -11v-20c-80 6 -83 6 -100 6c-18 0 -22 0 -95 -6v20c31 2 43 5 58 11c21 8 24 15 24 54v542c-16 19 -31 23 -83 26v20c36 -3 54 -4 77 -4c21 0 38 1 67 4l343 -534v449c0 39 -3 46 -24 54
c-14 7 -28 9 -57 11v20c49 -4 72 -5 100 -5s49 1 95 5v-20c-30 -2 -43 -4 -58 -11c-21 -8 -24 -15 -24 -54v-607zM211 748l-29 7c13 65 42 94 95 94c32 0 39 -3 92 -44c16 -13 29 -18 46 -18c32 0 53 19 59 53l27 -5c-8 -64 -40 -98 -94 -98c-29 0 -43 7 -84 39
c-21 17 -35 23 -53 23c-29 0 -51 -19 -59 -51z" />
    <glyph glyph-name="Oacute" unicode="&#xd3;" horiz-adv-x="618" 
d="M309 678c158 0 259 -135 259 -348c0 -87 -21 -168 -59 -231c-44 -71 -113 -110 -197 -110c-159 0 -261 136 -261 347c0 207 102 342 258 342zM308 651c-115 0 -185 -119 -185 -316s72 -319 190 -319c65 0 118 39 146 108c24 58 37 131 37 207c0 201 -70 320 -188 320z
M248 725l141 139h88l-178 -139h-51z" />
    <glyph glyph-name="Ocircumflex" unicode="&#xd4;" horiz-adv-x="618" 
d="M309 678c158 0 259 -135 259 -348c0 -87 -21 -168 -59 -231c-44 -71 -113 -110 -197 -110c-159 0 -261 136 -261 347c0 207 102 342 258 342zM308 651c-115 0 -185 -119 -185 -316s72 -319 190 -319c65 0 118 39 146 108c24 58 37 131 37 207c0 201 -70 320 -188 320z
M145 731l127 128h75l127 -128h-51l-114 92l-113 -92h-51z" />
    <glyph glyph-name="Odieresis" unicode="&#xd6;" horiz-adv-x="618" 
d="M309 678c158 0 259 -135 259 -348c0 -87 -21 -168 -59 -231c-44 -71 -113 -110 -197 -110c-159 0 -261 136 -261 347c0 207 102 342 258 342zM308 651c-115 0 -185 -119 -185 -316s72 -319 190 -319c65 0 118 39 146 108c24 58 37 131 37 207c0 201 -70 320 -188 320z
M222 846c28 0 50 -23 50 -51c0 -30 -21 -51 -50 -51s-52 23 -52 51c0 27 24 51 52 51zM398 846c28 0 50 -23 50 -51c0 -30 -21 -51 -51 -51c-28 0 -51 22 -51 51c0 28 23 51 52 51z" />
    <glyph glyph-name="Ograve" unicode="&#xd2;" horiz-adv-x="618" 
d="M309 678c158 0 259 -135 259 -348c0 -87 -21 -168 -59 -231c-44 -71 -113 -110 -197 -110c-159 0 -261 136 -261 347c0 207 102 342 258 342zM308 651c-115 0 -185 -119 -185 -316s72 -319 190 -319c65 0 118 39 146 108c24 58 37 131 37 207c0 201 -70 320 -188 320z
M369 725h-50l-178 139h88z" />
    <glyph glyph-name="Otilde" unicode="&#xd5;" horiz-adv-x="618" 
d="M309 678c158 0 259 -135 259 -348c0 -87 -21 -168 -59 -231c-44 -71 -113 -110 -197 -110c-159 0 -261 136 -261 347c0 207 102 342 258 342zM308 651c-115 0 -185 -119 -185 -316s72 -319 190 -319c65 0 118 39 146 108c24 58 37 131 37 207c0 201 -70 320 -188 320z
M188 748l-28 7c13 65 42 94 95 94c31 0 38 -3 91 -44c17 -13 30 -18 47 -18c32 0 53 19 58 53l28 -5c-8 -64 -41 -98 -94 -98c-29 0 -44 7 -84 39c-21 17 -35 23 -53 23c-30 0 -51 -18 -60 -51z" />
    <glyph glyph-name="Scaron" unicode="&#x160;" horiz-adv-x="506" 
d="M418 859l-127 -128h-74l-127 128h50l114 -92l114 92h50zM59 195h19c21 -118 78 -175 177 -175c86 0 142 55 142 138c0 53 -19 83 -74 114c-13 7 -13 7 -113 57c-112 56 -140 90 -140 171c0 106 72 175 182 175c53 0 87 -13 124 -49l28 52h17v-175h-19
c-27 101 -70 145 -146 145c-73 0 -131 -58 -131 -129c0 -41 19 -72 60 -97c25 -15 26 -15 99 -52c74 -36 90 -45 117 -66c36 -28 54 -70 54 -125c0 -112 -78 -187 -195 -187c-61 0 -105 16 -150 55l-35 -59h-16v207z" />
    <glyph glyph-name="Uacute" unicode="&#xda;" horiz-adv-x="654" 
d="M431 650v20c49 -4 72 -5 100 -5s49 1 95 5v-20c-72 -5 -82 -14 -82 -65v-381c0 -64 -8 -98 -31 -132c-37 -54 -101 -83 -186 -83c-72 0 -130 22 -170 65c-34 36 -46 73 -46 143v388c0 51 -11 60 -82 65v20c63 -6 88 -8 116 -8c27 0 52 2 114 8v-20
c-71 -5 -81 -13 -81 -65v-390c0 -68 7 -93 33 -121c30 -31 73 -46 130 -46c114 0 171 55 171 165v392c0 52 -10 60 -81 65zM282 725l140 139h88l-178 -139h-50z" />
    <glyph glyph-name="Ucircumflex" unicode="&#xdb;" horiz-adv-x="654" 
d="M431 650v20c49 -4 72 -5 100 -5s49 1 95 5v-20c-72 -5 -82 -14 -82 -65v-381c0 -64 -8 -98 -31 -132c-37 -54 -101 -83 -186 -83c-72 0 -130 22 -170 65c-34 36 -46 73 -46 143v388c0 51 -11 60 -82 65v20c63 -6 88 -8 116 -8c27 0 52 2 114 8v-20
c-71 -5 -81 -13 -81 -65v-390c0 -68 7 -93 33 -121c30 -31 73 -46 130 -46c114 0 171 55 171 165v392c0 52 -10 60 -81 65zM177 731l127 128h74l127 -128h-50l-114 92l-114 -92h-50z" />
    <glyph glyph-name="Udieresis" unicode="&#xdc;" horiz-adv-x="654" 
d="M431 650v20c49 -4 72 -5 100 -5s49 1 95 5v-20c-72 -5 -82 -14 -82 -65v-381c0 -64 -8 -98 -31 -132c-37 -54 -101 -83 -186 -83c-72 0 -130 22 -170 65c-34 36 -46 73 -46 143v388c0 51 -11 60 -82 65v20c63 -6 88 -8 116 -8c27 0 52 2 114 8v-20
c-71 -5 -81 -13 -81 -65v-390c0 -68 7 -93 33 -121c30 -31 73 -46 130 -46c114 0 171 55 171 165v392c0 52 -10 60 -81 65zM254 846c27 0 50 -23 50 -51c0 -29 -22 -51 -51 -51s-51 22 -51 51c0 28 23 51 52 51zM429 846c28 0 51 -24 51 -51c0 -29 -22 -51 -51 -51
s-51 22 -51 51c0 28 23 51 51 51z" />
    <glyph glyph-name="Ugrave" unicode="&#xd9;" horiz-adv-x="654" 
d="M431 650v20c49 -4 72 -5 100 -5s49 1 95 5v-20c-72 -5 -82 -14 -82 -65v-381c0 -64 -8 -98 -31 -132c-37 -54 -101 -83 -186 -83c-72 0 -130 22 -170 65c-34 36 -46 73 -46 143v388c0 51 -11 60 -82 65v20c63 -6 88 -8 116 -8c27 0 52 2 114 8v-20
c-71 -5 -81 -13 -81 -65v-390c0 -68 7 -93 33 -121c30 -31 73 -46 130 -46c114 0 171 55 171 165v392c0 52 -10 60 -81 65zM402 725h-50l-178 139h88z" />
    <glyph glyph-name="Yacute" unicode="&#xdd;" horiz-adv-x="579" 
d="M258 292l-154 308c-20 39 -32 46 -91 50v20c50 -5 78 -7 114 -7c37 0 64 2 114 7v-20c-52 -3 -71 -10 -71 -26c0 -6 2 -12 9 -27l134 -267l136 272c4 8 7 17 7 22c0 17 -16 23 -70 26v20c44 -5 66 -6 91 -6s47 1 92 6v-20c-57 -6 -70 -13 -90 -50l-154 -308v-210
c0 -38 3 -46 24 -54c15 -6 27 -9 58 -11v-20c-62 6 -87 8 -115 8c-29 0 -54 -2 -115 -8v20c31 2 43 5 57 11c21 8 24 15 24 54v210zM250 725l141 139h87l-178 -139h-50z" />
    <glyph glyph-name="Ydieresis" unicode="&#x178;" horiz-adv-x="579" 
d="M258 292l-154 308c-20 39 -32 46 -91 50v20c50 -5 78 -7 114 -7c37 0 64 2 114 7v-20c-52 -3 -71 -10 -71 -26c0 -6 2 -12 9 -27l134 -267l136 272c4 8 7 17 7 22c0 17 -16 23 -70 26v20c44 -5 66 -6 91 -6s47 1 92 6v-20c-57 -6 -70 -13 -90 -50l-154 -308v-210
c0 -38 3 -46 24 -54c15 -6 27 -9 58 -11v-20c-62 6 -87 8 -115 8c-29 0 -54 -2 -115 -8v20c31 2 43 5 57 11c21 8 24 15 24 54v210zM220 846c28 0 51 -24 51 -51c0 -29 -22 -51 -51 -51s-51 22 -51 51s22 51 51 51zM396 846c28 0 50 -23 50 -51c0 -30 -21 -51 -51 -51
c-28 0 -51 23 -51 51s24 51 52 51z" />
    <glyph glyph-name="Zcaron" unicode="&#x17d;" horiz-adv-x="524" 
d="M34 0l370 639h-195c-68 0 -95 -26 -113 -109h-22l25 137h396l-370 -639h203c63 0 79 6 103 41c13 18 24 42 39 80h20l-29 -149h-427zM454 859l-127 -128h-75l-127 128h51l114 -92l113 92h51z" />
    <glyph glyph-name="aacute" unicode="&#xe1;" horiz-adv-x="452" 
d="M430 25v-26c-18 -3 -38 -5 -49 -5c-44 0 -63 24 -69 84c-36 -65 -69 -86 -133 -86c-81 0 -137 53 -137 128c0 61 36 104 114 137c47 20 88 30 146 38v56c0 40 -5 60 -17 76c-15 18 -39 28 -69 28c-35 0 -68 -14 -83 -34c-7 -10 -7 -13 -7 -44c0 -30 -11 -43 -36 -43
c-18 0 -28 10 -28 29c0 63 73 117 157 117c53 0 100 -21 124 -56c15 -21 21 -48 21 -89v-215c0 -74 10 -98 41 -98c7 0 13 1 25 3zM302 186v84c-134 -23 -196 -70 -196 -149c0 -56 33 -90 88 -90c76 0 108 46 108 155zM166 552l113 150h79l-147 -150h-45z" />
    <glyph glyph-name="acircumflex" unicode="&#xe2;" horiz-adv-x="452" 
d="M430 25v-26c-18 -3 -38 -5 -49 -5c-44 0 -63 24 -69 84c-36 -65 -69 -86 -133 -86c-81 0 -137 53 -137 128c0 61 36 104 114 137c47 20 88 30 146 38v56c0 40 -5 60 -17 76c-15 18 -39 28 -69 28c-35 0 -68 -14 -83 -34c-7 -10 -7 -13 -7 -44c0 -30 -11 -43 -36 -43
c-18 0 -28 10 -28 29c0 63 73 117 157 117c53 0 100 -21 124 -56c15 -21 21 -48 21 -89v-215c0 -74 10 -98 41 -98c7 0 13 1 25 3zM302 186v84c-134 -23 -196 -70 -196 -149c0 -56 33 -90 88 -90c76 0 108 46 108 155zM68 558l119 139h63l119 -139h-48l-102 92l-103 -92h-48
z" />
    <glyph glyph-name="adieresis" unicode="&#xe4;" horiz-adv-x="452" 
d="M430 25v-26c-18 -3 -38 -5 -49 -5c-44 0 -63 24 -69 84c-36 -65 -69 -86 -133 -86c-81 0 -137 53 -137 128c0 61 36 104 114 137c47 20 88 30 146 38v56c0 40 -5 60 -17 76c-15 18 -39 28 -69 28c-35 0 -68 -14 -83 -34c-7 -10 -7 -13 -7 -44c0 -30 -11 -43 -36 -43
c-18 0 -28 10 -28 29c0 63 73 117 157 117c53 0 100 -21 124 -56c15 -21 21 -48 21 -89v-215c0 -74 10 -98 41 -98c7 0 13 1 25 3zM302 186v84c-134 -23 -196 -70 -196 -149c0 -56 33 -90 88 -90c76 0 108 46 108 155zM133 664c26 0 46 -20 46 -47s-20 -48 -47 -48
c-26 0 -48 22 -48 48s22 47 49 47zM306 664c26 0 47 -21 47 -47s-22 -48 -48 -48s-47 21 -47 48s21 47 48 47z" />
    <glyph glyph-name="agrave" unicode="&#xe0;" horiz-adv-x="452" 
d="M430 25v-26c-18 -3 -38 -5 -49 -5c-44 0 -63 24 -69 84c-36 -65 -69 -86 -133 -86c-81 0 -137 53 -137 128c0 61 36 104 114 137c47 20 88 30 146 38v56c0 40 -5 60 -17 76c-15 18 -39 28 -69 28c-35 0 -68 -14 -83 -34c-7 -10 -7 -13 -7 -44c0 -30 -11 -43 -36 -43
c-18 0 -28 10 -28 29c0 63 73 117 157 117c53 0 100 -21 124 -56c15 -21 21 -48 21 -89v-215c0 -74 10 -98 41 -98c7 0 13 1 25 3zM302 186v84c-134 -23 -196 -70 -196 -149c0 -56 33 -90 88 -90c76 0 108 46 108 155zM269 552h-45l-148 150h80z" />
    <glyph glyph-name="aring" unicode="&#xe5;" horiz-adv-x="452" 
d="M430 25v-26c-18 -3 -38 -5 -49 -5c-44 0 -63 24 -69 84c-36 -65 -69 -86 -133 -86c-81 0 -137 53 -137 128c0 61 36 104 114 137c47 20 88 30 146 38v56c0 40 -5 60 -17 76c-15 18 -39 28 -69 28c-35 0 -68 -14 -83 -34c-7 -10 -7 -13 -7 -44c0 -30 -11 -43 -36 -43
c-18 0 -28 10 -28 29c0 63 73 117 157 117c53 0 100 -21 124 -56c15 -21 21 -48 21 -89v-215c0 -74 10 -98 41 -98c7 0 13 1 25 3zM302 186v84c-134 -23 -196 -70 -196 -149c0 -56 33 -90 88 -90c76 0 108 46 108 155zM220 715c43 0 80 -37 80 -82s-36 -81 -81 -81
s-82 36 -82 81s38 82 83 82zM219 683c-27 0 -50 -23 -50 -50s22 -49 50 -49s49 21 49 49s-22 50 -49 50z" />
    <glyph glyph-name="atilde" unicode="&#xe3;" horiz-adv-x="452" 
d="M430 25v-26c-18 -3 -38 -5 -49 -5c-44 0 -63 24 -69 84c-36 -65 -69 -86 -133 -86c-81 0 -137 53 -137 128c0 61 36 104 114 137c47 20 88 30 146 38v56c0 40 -5 60 -17 76c-15 18 -39 28 -69 28c-35 0 -68 -14 -83 -34c-7 -10 -7 -13 -7 -44c0 -30 -11 -43 -36 -43
c-18 0 -28 10 -28 29c0 63 73 117 157 117c53 0 100 -21 124 -56c15 -21 21 -48 21 -89v-215c0 -74 10 -98 41 -98c7 0 13 1 25 3zM302 186v84c-134 -23 -196 -70 -196 -149c0 -56 33 -90 88 -90c76 0 108 46 108 155zM97 581l-27 7c15 69 39 94 88 94c30 0 37 -3 86 -44
c15 -13 27 -18 43 -18c30 0 49 19 55 54l25 -6c-8 -64 -38 -98 -87 -98c-27 0 -41 7 -79 39c-19 17 -32 23 -49 23c-27 0 -47 -19 -55 -51z" />
    <glyph glyph-name="ccedilla" unicode="&#xe7;" horiz-adv-x="424" 
d="M248 -8l-26 -54c58 -7 84 -28 84 -67c0 -44 -36 -73 -92 -73c-28 0 -44 3 -72 15v29c29 -8 34 -9 51 -9c34 0 54 16 54 44c0 29 -22 41 -78 45l37 68c-48 12 -69 23 -94 46c-46 43 -70 110 -70 196c0 151 76 251 190 251c40 0 66 -11 96 -41l25 50h17v-156h-20
c-7 33 -12 48 -24 68c-19 33 -54 54 -91 54c-78 0 -122 -82 -122 -226c0 -142 39 -212 119 -212c62 0 98 43 110 134h40c-8 -93 -64 -162 -134 -162z" />
    <glyph glyph-name="eacute" unicode="&#xe9;" horiz-adv-x="450" 
d="M367 155h40c-4 -39 -15 -72 -35 -101c-30 -44 -71 -64 -133 -64c-127 0 -197 86 -197 242c0 155 72 251 189 251c114 0 176 -81 175 -231h-302c0 -158 44 -231 136 -231c72 0 116 46 127 134zM107 288h237c-6 113 -45 170 -114 170c-67 0 -111 -60 -123 -170zM182 552
l113 150h79l-148 -150h-44z" />
    <glyph glyph-name="ecircumflex" unicode="&#xea;" horiz-adv-x="450" 
d="M367 155h40c-4 -39 -15 -72 -35 -101c-30 -44 -71 -64 -133 -64c-127 0 -197 86 -197 242c0 155 72 251 189 251c114 0 176 -81 175 -231h-302c0 -158 44 -231 136 -231c72 0 116 46 127 134zM107 288h237c-6 113 -45 170 -114 170c-67 0 -111 -60 -123 -170zM81 558
l119 139h63l119 -139h-48l-103 92l-102 -92h-48z" />
    <glyph glyph-name="edieresis" unicode="&#xeb;" horiz-adv-x="450" 
d="M367 155h40c-4 -39 -15 -72 -35 -101c-30 -44 -71 -64 -133 -64c-127 0 -197 86 -197 242c0 155 72 251 189 251c114 0 176 -81 175 -231h-302c0 -158 44 -231 136 -231c72 0 116 46 127 134zM107 288h237c-6 113 -45 170 -114 170c-67 0 -111 -60 -123 -170zM145 664
c26 0 47 -21 47 -47c0 -27 -21 -48 -47 -48s-48 22 -48 48c0 27 21 47 48 47zM319 664c26 0 46 -20 46 -47s-21 -48 -47 -48s-48 22 -48 48s22 47 49 47z" />
    <glyph glyph-name="egrave" unicode="&#xe8;" horiz-adv-x="450" 
d="M367 155h40c-4 -39 -15 -72 -35 -101c-30 -44 -71 -64 -133 -64c-127 0 -197 86 -197 242c0 155 72 251 189 251c114 0 176 -81 175 -231h-302c0 -158 44 -231 136 -231c72 0 116 46 127 134zM107 288h237c-6 113 -45 170 -114 170c-67 0 -111 -60 -123 -170zM281 552
h-45l-148 150h80z" />
    <glyph glyph-name="iacute" unicode="&#xed;" horiz-adv-x="263" 
d="M165 489v-424c0 -40 12 -48 71 -51v-17c-48 5 -71 6 -102 6c-30 0 -54 -1 -103 -6v17c60 3 72 11 72 51v333c0 48 -6 53 -71 54v14c50 4 95 12 133 23zM79 552l99 150h76l-131 -150h-44z" />
    <glyph glyph-name="icircumflex" unicode="&#xee;" horiz-adv-x="263" 
d="M165 489v-424c0 -40 12 -48 72 -51v-17c-49 5 -72 6 -103 6s-54 -1 -102 -6v17c60 3 71 11 71 51v333c0 48 -6 53 -71 54v14c50 4 95 12 133 23zM-13 558l106 139h63l105 -139h-48l-89 92l-89 -92h-48z" />
    <glyph glyph-name="idieresis" unicode="&#xef;" horiz-adv-x="263" 
d="M165 489v-424c0 -40 12 -48 71 -51v-17c-48 5 -71 6 -102 6c-30 0 -54 -1 -103 -6v17c60 3 72 11 72 51v333c0 48 -6 53 -71 54v14c50 4 95 12 133 23zM53 661c25 0 45 -20 45 -46s-20 -46 -46 -46c-25 0 -46 21 -46 46c0 26 20 46 47 46zM191 661c25 0 46 -21 46 -46
s-21 -46 -46 -46c-26 0 -46 20 -46 46c0 27 19 46 46 46z" />
    <glyph glyph-name="igrave" unicode="&#xec;" horiz-adv-x="263" 
d="M165 489v-424c0 -40 12 -48 72 -51v-17c-49 5 -72 6 -103 6c-30 0 -54 -1 -103 -6v17c60 3 72 11 72 51v333c0 48 -6 53 -71 54v14c50 4 95 12 133 23zM172 552h-45l-131 150h76z" />
    <glyph glyph-name="ntilde" unicode="&#xf1;" horiz-adv-x="530" 
d="M33 448v14c47 7 86 16 120 30c4 -26 5 -39 7 -89c36 54 75 77 131 77c52 0 97 -24 122 -65c15 -24 22 -59 22 -106v-244c0 -40 12 -48 72 -51v-17c-49 5 -73 6 -104 6s-55 -1 -103 -6v17c60 2 73 11 73 51v242c0 49 -5 74 -18 94c-16 24 -42 37 -77 37
c-38 0 -71 -16 -92 -45c-15 -21 -21 -45 -21 -90v-238c0 -40 12 -48 71 -51v-17c-48 5 -71 6 -102 6s-54 -1 -103 -6v17c60 3 72 11 72 51v324c0 57 0 57 -70 59zM136 581l-26 7c15 69 38 94 88 94c29 0 36 -3 85 -44c15 -13 28 -18 43 -18c30 0 49 19 55 54l25 -6
c-7 -64 -38 -98 -87 -98c-27 0 -41 7 -78 39c-20 17 -32 23 -49 23c-28 0 -48 -19 -56 -51z" />
    <glyph glyph-name="oacute" unicode="&#xf3;" horiz-adv-x="456" 
d="M231 480c110 0 182 -97 182 -246c0 -143 -76 -242 -186 -242c-111 0 -185 98 -185 243c0 146 76 245 189 245zM230 455c-79 0 -121 -77 -121 -220c0 -145 39 -218 117 -218s120 75 120 216c0 149 -38 222 -116 222zM178 552l113 150h80l-148 -150h-45z" />
    <glyph glyph-name="ocircumflex" unicode="&#xf4;" horiz-adv-x="456" 
d="M231 480c110 0 182 -97 182 -246c0 -143 -76 -242 -186 -242c-111 0 -185 98 -185 243c0 146 76 245 189 245zM230 455c-79 0 -121 -77 -121 -220c0 -145 39 -218 117 -218s120 75 120 216c0 149 -38 222 -116 222zM77 558l119 139h63l119 -139h-48l-102 92l-103 -92h-48
z" />
    <glyph glyph-name="odieresis" unicode="&#xf6;" horiz-adv-x="456" 
d="M231 483c110 0 182 -98 182 -249c0 -144 -76 -244 -186 -244s-185 99 -185 246s77 247 189 247zM230 458c-78 0 -121 -79 -121 -223c0 -145 40 -220 117 -220c78 0 120 77 120 219c0 149 -39 224 -116 224zM142 664c26 0 46 -20 46 -47s-20 -48 -47 -48
c-26 0 -48 22 -48 48s22 47 49 47zM315 664c26 0 47 -21 47 -47s-22 -48 -48 -48s-47 21 -47 48s21 47 48 47z" />
    <glyph glyph-name="ograve" unicode="&#xf2;" horiz-adv-x="456" 
d="M231 480c110 0 182 -97 182 -246c0 -143 -76 -242 -186 -242c-111 0 -185 98 -185 243c0 146 76 245 189 245zM230 455c-79 0 -121 -77 -121 -220c0 -145 39 -218 117 -218s120 75 120 216c0 149 -38 222 -116 222zM284 552h-44l-148 150h80z" />
    <glyph glyph-name="otilde" unicode="&#xf5;" horiz-adv-x="456" 
d="M231 480c110 0 182 -97 182 -246c0 -143 -76 -242 -186 -242c-111 0 -185 98 -185 243c0 146 76 245 189 245zM230 455c-79 0 -121 -77 -121 -220c0 -145 39 -218 117 -218s120 75 120 216c0 149 -38 222 -116 222zM113 581l-27 7c15 69 39 94 88 94c30 0 36 -3 85 -44
c15 -13 28 -18 44 -18c29 0 49 19 54 54l26 -6c-8 -64 -38 -98 -88 -98c-27 0 -41 7 -78 39c-20 17 -32 23 -49 23c-28 0 -48 -19 -55 -51z" />
    <glyph glyph-name="scaron" unicode="&#x161;" horiz-adv-x="417" 
d="M51 -10v162h19c8 -34 13 -51 24 -70c20 -38 63 -63 110 -63c62 0 110 42 110 96c0 33 -15 53 -56 73c-9 5 -9 5 -100 43c-76 31 -97 57 -97 118c0 78 59 131 144 131c37 0 63 -8 98 -29l14 37h17v-151h-19c-9 80 -43 118 -106 118c-56 0 -98 -38 -98 -88
c0 -33 15 -53 55 -73c15 -7 20 -9 98 -40c77 -32 102 -61 102 -121c0 -82 -67 -142 -157 -142c-42 0 -83 14 -119 39l-22 -40h-17zM358 697l-118 -139h-63l-119 139h47l103 -92l103 92h47z" />
    <glyph glyph-name="uacute" unicode="&#xfa;" horiz-adv-x="519" 
d="M17 452v14c50 5 93 12 133 23v-330c0 -90 26 -124 97 -124c77 0 112 44 112 142v221c0 48 -6 53 -71 54v14c50 5 94 12 133 23v-411c0 -45 5 -48 74 -49v-14c-50 -4 -89 -12 -125 -23l-4 91c-33 -65 -71 -91 -134 -91c-53 0 -97 21 -121 58c-16 24 -23 58 -23 108v240
c0 48 -6 53 -71 54zM200 552l113 150h79l-147 -150h-45z" />
    <glyph glyph-name="ucircumflex" unicode="&#xfb;" horiz-adv-x="519" 
d="M17 452v14c50 5 93 12 133 23v-330c0 -90 26 -124 97 -124c77 0 112 44 112 142v221c0 48 -6 53 -71 54v14c50 5 94 12 133 23v-411c0 -45 5 -48 74 -49v-14c-50 -4 -89 -12 -125 -23l-4 91c-33 -65 -71 -91 -134 -91c-53 0 -97 21 -121 58c-16 24 -23 58 -23 108v240
c0 48 -6 53 -71 54zM102 558l119 139h63l119 -139h-47l-103 92l-103 -92h-48z" />
    <glyph glyph-name="udieresis" unicode="&#xfc;" horiz-adv-x="519" 
d="M17 452v14c50 5 93 12 133 23v-330c0 -90 26 -124 97 -124c77 0 112 44 112 142v221c0 48 -6 53 -71 54v14c50 5 94 12 133 23v-411c0 -45 5 -48 74 -49v-14c-50 -4 -89 -12 -125 -23l-4 91c-33 -65 -71 -91 -134 -91c-53 0 -97 21 -121 58c-16 24 -23 58 -23 108v240
c0 48 -6 53 -71 54zM167 664c26 0 47 -21 47 -47s-22 -48 -48 -48s-47 21 -47 48s20 47 48 47zM340 664c26 0 47 -21 47 -47s-21 -48 -47 -48s-48 22 -48 48s21 47 48 47z" />
    <glyph glyph-name="ugrave" unicode="&#xf9;" horiz-adv-x="519" 
d="M17 452v14c50 5 93 12 133 23v-330c0 -90 26 -124 97 -124c77 0 112 44 112 142v221c0 48 -6 53 -71 54v14c50 5 94 12 133 23v-411c0 -45 5 -48 74 -49v-14c-50 -4 -89 -12 -125 -23l-4 91c-33 -65 -71 -91 -134 -91c-53 0 -97 21 -121 58c-16 24 -23 58 -23 108v240
c0 48 -6 53 -71 54zM303 552h-45l-147 150h79z" />
    <glyph glyph-name="yacute" unicode="&#xfd;" horiz-adv-x="486" 
d="M228 17l-147 402c-11 32 -20 37 -74 39v17c41 -4 64 -5 93 -5s51 1 92 5v-17c-38 -2 -52 -8 -52 -21c0 -5 0 -5 7 -26l113 -309l116 308c5 15 6 18 6 25c0 16 -13 21 -58 23v17c28 -3 42 -4 72 -4c31 0 51 1 88 4v-17c-51 -5 -64 -13 -74 -40l-187 -501
c-31 -83 -71 -113 -147 -111v48c64 1 97 25 123 90zM200 552l113 150h79l-148 -150h-44z" />
    <glyph glyph-name="ydieresis" unicode="&#xff;" horiz-adv-x="486" 
d="M228 17l-147 402c-11 32 -20 37 -74 39v17c41 -4 64 -5 93 -5s51 1 92 5v-17c-38 -2 -52 -8 -52 -21c0 -5 0 -5 7 -26l113 -309l116 308c5 15 6 18 6 25c0 16 -13 21 -58 23v17c28 -3 42 -4 72 -4c31 0 51 1 88 4v-17c-51 -5 -64 -13 -74 -40l-187 -501
c-31 -83 -71 -113 -147 -111v48c64 1 97 25 123 90zM170 664c26 0 47 -21 47 -47s-22 -48 -48 -48s-47 21 -47 48s20 47 48 47zM343 664c26 0 47 -21 47 -47s-21 -48 -47 -48s-48 22 -48 48s21 47 48 47z" />
    <glyph glyph-name="zcaron" unicode="&#x17e;" horiz-adv-x="441" 
d="M37 0l281 449h-129c-63 0 -75 -12 -111 -100h-17l22 123h321l-282 -449h135c50 0 67 9 91 46c13 19 21 37 30 67h17l-24 -136h-334zM384 697l-119 -139h-63l-118 139h47l103 -92l103 92h47z" />
    <glyph glyph-name="parenleftsuperior" unicode="&#x207d;" horiz-adv-x="201" 
d="M135 667h27c-43 -75 -63 -157 -63 -256c0 -98 20 -180 63 -255h-27c-60 78 -85 153 -85 256c0 102 25 177 85 255z" />
    <glyph glyph-name="parenrightsuperior" unicode="&#x207e;" horiz-adv-x="201" 
d="M38 667h28c58 -67 84 -144 84 -255c0 -112 -25 -188 -84 -256h-28c45 74 63 148 63 255c0 108 -18 182 -63 256z" />
    <glyph glyph-name="zerooldstyle" unicode="&#xf730;" horiz-adv-x="478" 
d="M244 480c108 0 181 -97 181 -243s-75 -245 -185 -245c-113 0 -186 97 -186 247c0 142 77 241 190 241zM242 455c-78 0 -121 -77 -121 -218c0 -147 39 -220 118 -220c78 0 119 75 119 219c0 145 -39 219 -116 219z" />
    <glyph glyph-name="oneoldstyle" unicode="&#xf731;" horiz-adv-x="340" 
d="M290 28v-31c-61 5 -89 6 -121 6s-60 -1 -120 -6v31c78 2 88 8 88 51v322c0 44 -10 50 -88 52v30c70 -5 93 -6 120 -6s50 1 121 6v-30c-79 -2 -89 -8 -89 -52v-322c0 -43 10 -49 89 -51z" />
    <glyph glyph-name="twooldstyle" unicode="&#xf732;" horiz-adv-x="422" 
d="M372 61l-11 -61h-309v45c48 46 101 103 149 161c63 74 83 110 83 149c0 46 -36 77 -90 77c-62 0 -102 -34 -122 -103h-21c17 100 73 151 166 151c79 0 135 -47 135 -115c0 -50 -26 -91 -115 -187l-115 -117h250z" />
    <glyph glyph-name="threeoldstyle" unicode="&#xf733;" horiz-adv-x="410" 
d="M127 204v28c84 8 136 53 136 119c0 51 -33 82 -87 82c-65 0 -108 -34 -125 -101h-22c8 39 14 57 27 79c24 43 75 69 133 69c82 0 141 -52 141 -123c0 -56 -36 -102 -100 -128c76 -19 111 -59 111 -130c0 -98 -90 -196 -271 -295h-54c165 99 250 197 250 288
c0 42 -20 81 -49 97c-19 11 -40 14 -90 15z" />
    <glyph glyph-name="fouroldstyle" unicode="&#xf734;" horiz-adv-x="506" 
d="M307 -199v199h-279l291 472h49v-420h100v-52h-100v-199h-61zM307 52v351l-213 -351h213z" />
    <glyph glyph-name="fiveoldstyle" unicode="&#xf735;" horiz-adv-x="413" 
d="M360 472l-11 -61h-213l-19 -106c64 -9 98 -18 128 -35c58 -33 88 -84 88 -151c0 -65 -29 -124 -97 -199c-44 -47 -87 -84 -140 -118h-47c154 115 222 205 222 293c0 57 -33 106 -88 132c-29 13 -63 20 -118 25l41 220h254z" />
    <glyph glyph-name="sixoldstyle" unicode="&#xf736;" horiz-adv-x="496" 
d="M335 667h43c-99 -110 -151 -178 -189 -244c30 9 43 11 66 11c112 0 188 -88 188 -218c0 -134 -77 -224 -192 -224c-119 0 -197 88 -197 221c0 88 32 167 110 267c43 57 74 91 171 187zM249 406c-81 0 -126 -68 -126 -190c0 -127 44 -196 124 -196c82 0 124 67 124 195
c0 124 -43 191 -122 191z" />
    <glyph glyph-name="sevenoldstyle" unicode="&#xf737;" horiz-adv-x="459" 
d="M63 -178l292 593h-324v57h391l-292 -650h-67z" />
    <glyph glyph-name="eightoldstyle" unicode="&#xf738;" horiz-adv-x="482" 
d="M314 341c76 -23 115 -77 115 -159c0 -113 -77 -190 -190 -190c-114 0 -185 72 -185 188c0 80 35 129 114 161c-67 29 -98 75 -98 146c0 103 72 174 176 174c101 0 166 -66 166 -170c0 -71 -31 -119 -98 -150zM243 327c-72 0 -122 -61 -122 -150c0 -96 46 -157 119 -157
s122 63 122 156c0 91 -47 151 -119 151zM245 633c-67 0 -108 -53 -108 -137c0 -90 37 -141 103 -141c65 0 105 53 105 140c0 89 -36 138 -100 138z" />
    <glyph glyph-name="nineoldstyle" unicode="&#xf739;" horiz-adv-x="480" 
d="M155 -194h-38c92 107 146 179 181 243c-27 -8 -46 -11 -63 -11c-107 0 -181 90 -181 218c0 134 74 224 184 224c113 0 189 -88 189 -220c0 -87 -32 -168 -106 -268c-42 -56 -72 -90 -166 -186zM242 452c-77 0 -119 -68 -119 -194c0 -122 42 -192 117 -192
c77 0 120 68 120 190c0 128 -41 196 -118 196z" />
    <glyph glyph-name="commasuperior" unicode="&#xf6e2;" horiz-adv-x="159" 
d="M76 182h-42c30 28 46 50 56 81c-3 -1 -5 -1 -7 -1c-16 0 -29 13 -29 29c0 18 15 31 35 31c23 0 36 -14 36 -38c0 -30 -16 -63 -49 -102z" />
    <glyph glyph-name="periodsuperior" unicode="&#xf6e8;" horiz-adv-x="149" 
d="M75 322c18 0 33 -15 33 -33s-15 -33 -33 -33s-33 15 -33 33s15 33 33 33z" />
    <glyph glyph-name="figuredash" unicode="&#x2012;" horiz-adv-x="516" 
d="M92 252v42h333v-42h-333z" />
    <glyph glyph-name="oneeighth" unicode="&#x215b;" horiz-adv-x="716" 
d="M196 672v-359c0 -28 4 -31 50 -35v-18c-28 3 -35 3 -74 3c-38 0 -45 0 -74 -3v18c47 4 51 6 51 35v274h-70v18c52 3 87 28 96 67h21zM147 0l384 653h39l-385 -653h-38zM602 205c43 -14 65 -47 65 -94c0 -70 -48 -116 -120 -116c-73 0 -118 44 -118 115c0 46 21 77 64 95
c-36 16 -54 44 -54 85c0 63 46 107 112 107c64 0 106 -41 106 -104c0 -41 -18 -69 -55 -88zM549 193c-43 0 -72 -35 -72 -85c0 -55 27 -90 70 -90c44 0 72 35 72 89c0 53 -27 86 -70 86zM550 374c-39 0 -63 -30 -63 -78c0 -52 21 -80 60 -80s62 30 62 79c0 50 -21 79 -59 79
z" />
    <glyph glyph-name="threeeighths" unicode="&#x215c;" horiz-adv-x="716" 
d="M42 377h25c1 -25 3 -35 9 -49c11 -27 38 -43 74 -43c54 0 87 33 87 87c0 63 -27 85 -107 87v26h10c50 0 83 31 83 78c0 40 -25 65 -67 65c-47 0 -72 -24 -83 -77h-22c8 72 45 107 113 107c63 0 107 -39 107 -95c0 -40 -20 -67 -68 -88c60 -20 84 -49 84 -101
c0 -69 -53 -118 -128 -118c-76 0 -116 41 -117 121zM147 0l384 653h38l-384 -653h-38zM602 205c42 -14 65 -47 65 -94c0 -69 -49 -116 -120 -116c-73 0 -119 45 -119 115c0 44 23 77 65 95c-36 16 -55 46 -55 85c0 62 47 107 112 107c64 0 107 -42 107 -104
c0 -40 -18 -69 -55 -88zM549 193c-42 0 -73 -36 -73 -85c0 -54 29 -90 71 -90c43 0 72 36 72 89c0 52 -27 86 -70 86zM550 374c-38 0 -64 -32 -64 -78c0 -51 22 -80 61 -80c38 0 62 30 62 79c0 50 -22 79 -59 79z" />
    <glyph glyph-name="fiveeighths" unicode="&#x215d;" horiz-adv-x="716" 
d="M263 613h-152l-20 -106c23 18 44 25 72 25c74 0 123 -54 123 -134c0 -83 -55 -142 -132 -142c-65 0 -99 32 -104 99h24c5 -48 29 -70 72 -70c55 0 90 44 90 112c0 66 -31 105 -83 105c-36 0 -59 -13 -76 -45h-21l36 196h175zM147 0l384 653h38l-384 -653h-38zM602 205
c42 -14 65 -48 65 -94c0 -69 -49 -116 -121 -116s-118 45 -118 115c0 45 22 77 65 95c-36 16 -55 45 -55 85c0 62 47 107 112 107c64 0 107 -42 107 -104c0 -40 -19 -69 -55 -88zM549 193c-43 0 -73 -36 -73 -85c0 -54 28 -90 71 -90s72 36 72 89c0 52 -28 86 -70 86z
M550 374c-39 0 -64 -31 -64 -78c0 -51 22 -80 61 -80c38 0 62 31 62 79c0 49 -22 79 -59 79z" />
    <glyph glyph-name="seveneighths" unicode="&#x215e;" horiz-adv-x="716" 
d="M65 261l181 349h-205v43h256l-187 -392h-45zM146 0l385 653h38l-385 -653h-38zM602 205c41 -14 65 -48 65 -94c0 -69 -49 -116 -121 -116s-118 45 -118 115c0 45 22 77 65 95c-36 16 -55 45 -55 85c0 63 46 107 112 107c64 0 107 -42 107 -104c0 -39 -19 -69 -55 -88z
M549 193c-43 0 -73 -35 -73 -85c0 -55 28 -90 71 -90c42 0 72 37 72 89s-28 86 -70 86zM549 374c-38 0 -63 -31 -63 -78c0 -52 21 -80 60 -80c38 0 63 31 63 79c0 49 -23 79 -60 79z" />
    <glyph glyph-name="onethird" unicode="&#x2153;" horiz-adv-x="716" 
d="M196 672v-359c0 -28 4 -31 50 -35v-18c-28 3 -35 3 -74 3c-38 0 -45 0 -74 -3v18c47 4 51 6 51 35v274h-70v18c52 3 87 28 96 67h21zM147 0l384 653h39l-385 -653h-38zM422 116h25c1 -25 3 -35 9 -49c11 -27 38 -43 74 -43c53 0 88 35 88 87c0 39 -17 69 -47 79
c-14 6 -28 7 -61 8v26h9c51 0 84 31 84 77c0 41 -26 66 -67 66c-46 0 -72 -24 -83 -77h-22c8 71 45 107 114 107c61 0 106 -40 106 -95c0 -40 -20 -66 -68 -88c58 -18 85 -50 85 -101c0 -68 -55 -118 -129 -118c-77 0 -114 39 -117 121z" />
    <glyph glyph-name="twothirds" unicode="&#x2154;" horiz-adv-x="716" 
d="M281 300l-4 -39h-232v28c44 52 83 100 110 135c59 80 75 109 75 140c0 36 -27 61 -65 61c-50 0 -78 -29 -86 -88h-24c4 43 10 64 25 83c19 24 53 38 92 38c62 0 108 -38 108 -91c0 -38 -16 -65 -84 -148c-75 -89 -75 -89 -100 -119h185zM146 0l385 653h38l-384 -653h-39z
M421 116h25c1 -25 3 -35 9 -49c11 -27 38 -43 74 -43c53 0 88 35 88 87c0 39 -17 69 -47 79c-14 6 -28 7 -61 8v26h9c51 0 84 31 84 77c0 41 -26 66 -67 66c-46 0 -72 -24 -83 -77h-22c8 71 45 107 114 107c61 0 106 -40 106 -95c0 -40 -20 -66 -68 -88
c58 -18 85 -50 85 -101c0 -68 -55 -118 -129 -118c-77 0 -114 39 -117 121z" />
    <glyph glyph-name="zerosuperior" unicode="&#x2070;" horiz-adv-x="337" 
d="M170 658c80 0 127 -74 127 -201s-47 -200 -128 -200c-83 0 -129 73 -129 201c0 124 49 200 130 200zM168 635c-50 0 -78 -63 -78 -177c0 -116 28 -178 80 -178c50 0 77 62 77 177c0 114 -28 178 -79 178z" />
    <glyph glyph-name="foursuperior" unicode="&#x2074;" horiz-adv-x="337" 
d="M197 255v117h-173l179 295h42v-257h68v-38h-68v-117h-48zM198 410v205l-122 -205h122z" />
    <glyph glyph-name="fivesuperior" unicode="&#x2075;" horiz-adv-x="337" 
d="M263 613h-152l-20 -106c23 18 44 25 72 25c74 0 123 -54 123 -134c0 -83 -55 -142 -132 -142c-65 0 -99 32 -104 99h24c5 -48 29 -70 72 -70c55 0 90 44 90 112c0 66 -31 105 -83 105c-36 0 -59 -13 -76 -45h-21l36 196h175z" />
    <glyph glyph-name="sixsuperior" unicode="&#x2076;" horiz-adv-x="337" 
d="M235 680h40c-51 -44 -103 -102 -136 -150c14 3 21 4 32 4c72 0 122 -56 122 -137c0 -83 -51 -140 -125 -140c-77 0 -128 55 -128 138c0 84 49 155 195 285zM166 511c-48 0 -76 -41 -76 -113c0 -77 27 -118 76 -118s75 41 75 116c0 74 -27 115 -75 115z" />
    <glyph glyph-name="sevensuperior" unicode="&#x2077;" horiz-adv-x="337" 
d="M65 261l181 349h-205v43h256l-187 -392h-45z" />
    <glyph glyph-name="eightsuperior" unicode="&#x2078;" horiz-adv-x="337" 
d="M223 466c42 -14 65 -48 65 -94c0 -69 -49 -116 -121 -116s-118 44 -118 115c0 45 22 77 65 94c-37 17 -55 46 -55 86c0 63 46 107 112 107c64 0 107 -41 107 -104c0 -39 -20 -71 -55 -88zM170 454c-43 0 -73 -36 -73 -86c0 -54 28 -89 71 -89s72 36 72 89
c0 52 -28 86 -70 86zM170 635c-38 0 -63 -31 -63 -78c0 -52 21 -80 60 -80s63 31 63 79c0 49 -22 79 -60 79z" />
    <glyph glyph-name="ninesuperior" unicode="&#x2079;" horiz-adv-x="337" 
d="M110 233h-40c53 50 112 121 127 152c-14 -4 -22 -5 -30 -5c-68 0 -116 57 -116 139c0 83 47 139 117 139c72 0 121 -57 121 -140c0 -60 -27 -117 -91 -193c-16 -19 -45 -50 -88 -92zM170 635c-45 0 -70 -41 -70 -114c0 -74 26 -118 70 -118c45 0 71 40 71 111
c0 78 -25 121 -71 121z" />
    <glyph glyph-name="zeroinferior" unicode="&#x2080;" horiz-adv-x="337" 
d="M170 397c79 0 127 -75 127 -201c0 -127 -47 -201 -128 -201c-82 0 -129 74 -129 202c0 123 50 200 130 200zM168 374c-50 0 -78 -64 -78 -178c0 -115 28 -178 80 -178c50 0 77 63 77 178c0 113 -29 178 -79 178z" />
    <glyph glyph-name="oneinferior" unicode="&#x2081;" horiz-adv-x="337" 
d="M196 411v-359c0 -29 5 -32 50 -36v-18c-31 3 -45 4 -73 4c-29 0 -43 -1 -75 -4v18c46 4 51 7 51 36v273h-70v18c52 3 87 28 96 68h21z" />
    <glyph glyph-name="twoinferior" unicode="&#x2082;" horiz-adv-x="337" 
d="M281 39l-4 -39h-232v28c48 57 84 101 110 136c59 79 75 108 75 139c0 36 -26 61 -65 61c-30 0 -57 -14 -71 -37c-8 -13 -12 -25 -15 -51h-24c4 43 10 64 25 82c19 25 54 39 92 39c62 0 108 -39 108 -90c0 -38 -16 -66 -84 -149l-100 -119h185z" />
    <glyph glyph-name="threeinferior" unicode="&#x2083;" horiz-adv-x="337" 
d="M42 116h25c1 -25 3 -35 9 -49c11 -27 38 -43 74 -43c53 0 88 35 88 87c0 39 -17 69 -47 79c-14 6 -28 7 -61 8v26h9c51 0 84 30 84 77c0 41 -26 66 -67 66c-46 0 -73 -24 -82 -77h-23c8 71 45 107 114 107c61 0 106 -40 106 -95c0 -40 -20 -66 -68 -88
c58 -18 85 -51 85 -101c0 -68 -55 -118 -129 -118c-77 0 -116 40 -117 121z" />
    <glyph glyph-name="fourinferior" unicode="&#x2084;" horiz-adv-x="337" 
d="M197 -11v117h-173l179 295h42v-257h68v-38h-68v-117h-48zM198 144v205l-122 -205h122z" />
    <glyph glyph-name="fiveinferior" unicode="&#x2085;" horiz-adv-x="337" 
d="M263 352h-152l-20 -106c23 18 44 25 72 25c74 0 123 -54 123 -134c0 -83 -55 -142 -132 -142c-65 0 -99 32 -104 99h24c5 -48 28 -70 72 -70c55 0 90 44 90 112c0 66 -31 105 -83 105c-36 0 -59 -14 -76 -45h-21l36 196h175z" />
    <glyph glyph-name="sixinferior" unicode="&#x2086;" horiz-adv-x="337" 
d="M235 419h40c-57 -51 -102 -101 -136 -151c13 3 24 5 32 5c71 0 122 -57 122 -137c0 -83 -51 -141 -125 -141c-76 0 -128 56 -128 138c0 83 48 153 190 281zM167 250c-49 0 -77 -42 -77 -114c0 -76 27 -118 76 -118c48 0 75 42 75 117c0 73 -27 115 -74 115z" />
    <glyph glyph-name="seveninferior" unicode="&#x2087;" horiz-adv-x="337" 
d="M65 0l181 349h-205v43h256l-187 -392h-45z" />
    <glyph glyph-name="eightinferior" unicode="&#x2088;" horiz-adv-x="337" 
d="M223 205c41 -14 65 -48 65 -94c0 -69 -49 -116 -121 -116s-118 45 -118 115c0 45 22 77 65 95c-36 16 -55 45 -55 85c0 62 47 107 112 107c64 0 107 -42 107 -104c0 -39 -19 -69 -55 -88zM170 193c-43 0 -73 -35 -73 -85c0 -54 28 -90 71 -90c42 0 72 37 72 89
s-28 86 -70 86zM170 374c-38 0 -63 -31 -63 -78c0 -51 22 -80 60 -80c39 0 63 31 63 79c0 49 -23 79 -60 79z" />
    <glyph glyph-name="nineinferior" unicode="&#x2089;" horiz-adv-x="337" 
d="M110 -28h-40l12 12c41 38 109 120 115 139c-14 -3 -21 -4 -30 -4c-68 0 -116 57 -116 138c0 83 48 140 117 140c71 0 121 -58 121 -140c0 -60 -27 -117 -91 -193c-16 -19 -46 -50 -88 -92zM170 374c-44 0 -70 -42 -70 -114c0 -74 26 -118 70 -118c45 0 71 40 71 111
c0 77 -26 121 -71 121z" />
    <glyph glyph-name="uni01CD" unicode="&#x1cd;" horiz-adv-x="629" 
d="M415 198h-238l-36 -103c-8 -25 -12 -39 -12 -48c0 -20 18 -28 64 -30v-20c-44 5 -66 6 -91 6c-26 0 -48 -1 -92 -6v20c60 4 71 11 88 59l230 611l201 -615c15 -43 26 -50 90 -55v-20c-51 6 -78 8 -111 8s-60 -2 -111 -8v20c43 4 61 13 61 31c0 6 -3 23 -6 32zM187 226
h219l-101 323zM489 859l-127 -128h-75l-127 128h51l113 -92l114 92h51z" />
    <glyph glyph-name="Abreve" unicode="&#x102;" horiz-adv-x="629" 
d="M415 198h-238l-36 -103c-8 -25 -12 -39 -12 -48c0 -20 18 -28 64 -30v-20c-44 5 -66 6 -91 6c-26 0 -48 -1 -92 -6v20c60 4 71 11 88 59l230 611l201 -615c15 -43 26 -50 90 -55v-20c-51 6 -78 8 -111 8s-60 -2 -111 -8v20c43 4 61 13 61 31c0 6 -3 23 -6 32zM187 226
h219l-101 323zM425 860h32c-9 -81 -61 -133 -133 -133s-123 52 -132 133h32c12 -47 52 -77 100 -77c49 0 88 30 101 77z" />
    <glyph glyph-name="Aogonek" unicode="&#x104;" horiz-adv-x="629" 
d="M619 17v-20c-23 -2 -41 -9 -70 -27c-27 -17 -38 -31 -38 -53c0 -29 23 -48 59 -48c16 0 28 2 50 8v-31c-33 -11 -52 -15 -75 -15c-57 0 -97 32 -97 78c0 43 30 69 105 93c-34 2 -46 3 -57 3c-25 0 -42 -1 -99 -8v20c43 4 61 13 61 31c0 6 -3 23 -6 32l-37 118h-238
l-36 -103c-8 -25 -12 -39 -12 -48c0 -20 18 -28 64 -30v-20c-44 5 -66 6 -91 6c-26 0 -48 -1 -92 -6v20c60 4 71 11 88 59l230 611l201 -615c15 -43 26 -50 90 -55zM187 226h219l-101 323z" />
    <glyph glyph-name="Cacute" unicode="&#x106;" horiz-adv-x="584" 
d="M484 220h37c-7 -146 -84 -231 -211 -231c-76 0 -147 36 -189 96c-45 64 -70 155 -70 251c0 99 27 189 77 255c42 56 109 87 184 87c62 0 107 -17 149 -55l36 52h17v-184h-19c-28 108 -85 160 -175 160c-66 0 -118 -31 -149 -89c-31 -59 -48 -138 -48 -228
c0 -195 73 -312 194 -312c62 0 116 35 143 91c15 32 21 59 24 107zM258 725l140 139h88l-178 -139h-50z" />
    <glyph glyph-name="Ccaron" unicode="&#x10c;" horiz-adv-x="584" 
d="M484 220h37c-7 -146 -84 -231 -211 -231c-76 0 -147 36 -189 96c-45 64 -70 155 -70 251c0 99 27 189 77 255c42 56 109 87 184 87c62 0 107 -17 149 -55l36 52h17v-184h-19c-28 108 -85 160 -175 160c-66 0 -118 -31 -149 -89c-31 -59 -48 -138 -48 -228
c0 -195 73 -312 194 -312c62 0 116 35 143 91c15 32 21 59 24 107zM484 859l-127 -128h-74l-127 128h50l114 -92l114 92h50z" />
    <glyph glyph-name="Cdotaccent" unicode="&#x10a;" horiz-adv-x="584" 
d="M484 220h37c-7 -146 -84 -231 -211 -231c-76 0 -147 36 -189 96c-45 64 -70 155 -70 251c0 99 27 189 77 255c42 56 109 87 184 87c62 0 107 -17 149 -55l36 52h17v-184h-19c-28 108 -85 160 -175 160c-66 0 -118 -31 -149 -89c-31 -59 -48 -138 -48 -228
c0 -195 73 -312 194 -312c62 0 116 35 143 91c15 32 21 59 24 107zM321 846c27 0 50 -23 50 -51c0 -29 -22 -51 -51 -51s-51 22 -51 51c0 28 23 51 52 51z" />
    <glyph glyph-name="Dcaron" unicode="&#x10e;" horiz-adv-x="627" 
d="M29 647v20h231c98 0 154 -17 205 -62c70 -63 112 -164 112 -272s-42 -211 -111 -270c-50 -43 -111 -63 -195 -63h-242v20c72 6 82 14 82 65v497c0 52 -10 59 -82 65zM178 639v-558c0 -48 9 -55 71 -55c78 0 133 18 174 57c54 52 82 137 82 250c0 105 -25 189 -72 243
c-38 44 -89 63 -168 63h-87zM458 859l-127 -128h-74l-127 128h50l114 -92l114 92h50z" />
    <glyph glyph-name="Dcroat" unicode="&#x110;" horiz-adv-x="627" 
d="M29 647v20h231c97 0 153 -17 204 -62c71 -63 112 -164 112 -273c0 -108 -42 -210 -111 -269c-50 -43 -111 -63 -194 -63h-242v20c72 6 82 14 82 65v247h-82v33h82v217c0 52 -10 59 -82 65zM178 639v-274h166v-33h-166v-251c0 -48 9 -55 71 -55c78 0 133 18 173 57
c54 51 82 136 82 250c0 106 -24 188 -72 243c-37 44 -89 63 -167 63h-87z" />
    <glyph glyph-name="Ecaron" unicode="&#x11a;" horiz-adv-x="528" 
d="M477 152l-19 -152h-424v20c72 6 82 14 82 65v497c0 51 -10 59 -82 65v20h419l14 -141h-19c-25 92 -46 113 -112 113h-153v-278h155c44 0 55 15 58 82h20v-193h-20c-2 61 -17 83 -58 83h-155v-243c0 -50 14 -62 70 -62h78c59 0 78 9 98 44c12 21 21 45 29 80h19zM437 859
l-127 -128h-75l-127 128h51l113 -92l114 92h51z" />
    <glyph glyph-name="Edotaccent" unicode="&#x116;" horiz-adv-x="528" 
d="M477 152l-19 -152h-424v20c72 6 82 14 82 65v497c0 51 -10 59 -82 65v20h419l14 -141h-19c-25 92 -46 113 -112 113h-153v-278h155c44 0 55 15 58 82h20v-193h-20c-2 61 -17 83 -58 83h-155v-243c0 -50 14 -62 70 -62h78c59 0 78 9 98 44c12 21 21 45 29 80h19zM273 846
c28 0 50 -23 50 -51c0 -30 -21 -51 -51 -51c-28 0 -51 22 -51 51c0 28 24 51 52 51z" />
    <glyph glyph-name="Eogonek" unicode="&#x118;" horiz-adv-x="528" 
d="M477 152l-19 -152c-74 -23 -107 -49 -107 -83c0 -29 23 -48 58 -48c16 0 28 2 50 8v-31c-32 -11 -51 -15 -75 -15c-56 0 -96 33 -96 78c0 41 32 70 98 91h-352v20c72 6 82 14 82 65v497c0 51 -10 59 -82 65v20h419l14 -141h-19c-26 92 -46 113 -112 113h-153v-278h155
c44 0 55 15 58 82h20v-193h-20c-2 61 -17 83 -58 83h-155v-243c0 -50 14 -62 70 -62h78c59 0 78 9 98 44c12 21 21 45 29 80h19z" />
    <glyph glyph-name="Gcaron" unicode="&#x1e6;" horiz-adv-x="619" 
d="M519 678v-187h-19c-14 43 -22 62 -38 87c-30 46 -81 72 -141 72c-128 0 -198 -111 -198 -315c0 -206 69 -318 196 -318c49 0 89 12 145 42v168c0 34 -15 42 -79 47v19c63 -5 80 -6 106 -6c27 0 42 1 107 6v-19c-68 -6 -73 -9 -73 -49v-169c-83 -48 -144 -67 -213 -67
c-159 0 -261 136 -261 349c0 208 101 340 261 340c59 0 102 -15 148 -53l42 53h17zM489 859l-127 -128h-74l-128 128h51l114 -92l113 92h51z" />
    <glyph glyph-name="Gbreve" unicode="&#x11e;" horiz-adv-x="619" 
d="M519 678v-187h-19c-14 43 -22 62 -38 87c-30 46 -81 72 -141 72c-128 0 -198 -111 -198 -315c0 -206 69 -318 196 -318c49 0 89 12 145 42v168c0 34 -15 42 -79 47v19c63 -5 80 -6 106 -6c27 0 42 1 107 6v-19c-68 -6 -73 -9 -73 -49v-169c-83 -48 -144 -67 -213 -67
c-159 0 -261 136 -261 349c0 208 101 340 261 340c59 0 102 -15 148 -53l42 53h17zM425 860h32c-9 -81 -60 -133 -132 -133s-124 53 -133 133h32c12 -47 52 -77 101 -77c48 0 88 30 100 77z" />
    <glyph glyph-name="Gdotaccent" unicode="&#x120;" horiz-adv-x="619" 
d="M519 678v-187h-19c-14 43 -22 62 -38 87c-30 46 -81 72 -141 72c-128 0 -198 -111 -198 -315c0 -206 69 -318 196 -318c49 0 89 12 145 42v168c0 34 -15 42 -79 47v19c63 -5 80 -6 106 -6c27 0 42 1 107 6v-19c-68 -6 -73 -9 -73 -49v-169c-83 -48 -144 -67 -213 -67
c-159 0 -261 136 -261 349c0 208 101 340 261 340c59 0 102 -15 148 -53l42 53h17zM325 846c28 0 51 -24 51 -51c0 -29 -23 -51 -51 -51c-30 0 -51 21 -51 51c0 29 22 51 51 51z" />
    <glyph glyph-name="Idotaccent" unicode="&#x130;" horiz-adv-x="298" 
d="M264 17v-20c-61 6 -86 8 -114 8c-29 0 -54 -2 -116 -8v20c72 6 82 14 82 65v503c0 51 -11 60 -82 65v20c63 -6 88 -8 116 -8c27 0 52 2 114 8v-20c-71 -5 -81 -13 -81 -65v-503c0 -52 9 -59 81 -65zM150 846c27 0 50 -23 50 -51c0 -29 -22 -51 -51 -51s-51 22 -51 51
c0 28 23 51 52 51z" />
    <glyph glyph-name="Lacute" unicode="&#x139;" horiz-adv-x="488" 
d="M477 152l-19 -152h-424v20c72 6 82 14 82 65v500c0 51 -11 60 -82 65v20c63 -6 88 -8 116 -8c27 0 52 2 114 8v-20c-71 -5 -81 -13 -81 -65v-491c0 -27 2 -38 11 -46c10 -10 30 -16 59 -16h78c59 0 78 8 98 43c12 20 20 43 29 77h19zM95 725l140 139h88l-178 -139h-50z
" />
    <glyph glyph-name="Lcaron" unicode="&#x13d;" horiz-adv-x="488" 
d="M477 152l-19 -152h-424v20c72 6 82 14 82 65v500c0 51 -11 60 -82 65v20c63 -6 88 -8 116 -8c27 0 52 2 114 8v-20c-71 -5 -81 -13 -81 -65v-491c0 -27 2 -38 11 -46c10 -10 30 -16 59 -16h78c59 0 78 8 98 43c12 20 20 43 29 77h19zM381 503h-47c33 29 55 64 59 94h-3
c-6 -3 -8 -3 -14 -3c-23 0 -39 17 -39 41c0 25 19 43 47 43c31 0 49 -20 49 -56c0 -37 -18 -78 -52 -119z" />
    <glyph glyph-name="Nacute" unicode="&#x143;" horiz-adv-x="665" 
d="M552 -22h-11l-393 618v-514c0 -39 3 -46 24 -54c14 -6 27 -9 57 -11v-20c-80 6 -83 6 -100 6c-18 0 -22 0 -95 -6v20c31 2 43 5 58 11c21 8 24 15 24 54v542c-16 19 -31 23 -83 26v20c36 -3 54 -4 77 -4c21 0 38 1 67 4l343 -534v449c0 39 -3 46 -24 54
c-14 7 -28 9 -57 11v20c49 -4 72 -5 100 -5s49 1 95 5v-20c-30 -2 -43 -4 -58 -11c-21 -8 -24 -15 -24 -54v-607zM273 725l140 139h88l-178 -139h-50z" />
    <glyph glyph-name="Ncaron" unicode="&#x147;" horiz-adv-x="665" 
d="M552 -22h-11l-393 618v-514c0 -39 3 -46 24 -54c14 -6 27 -9 57 -11v-20c-80 6 -83 6 -100 6c-18 0 -22 0 -95 -6v20c31 2 43 5 58 11c21 8 24 15 24 54v542c-16 19 -31 23 -83 26v20c36 -3 54 -4 77 -4c21 0 38 1 67 4l343 -534v449c0 39 -3 46 -24 54
c-14 7 -28 9 -57 11v20c49 -4 72 -5 100 -5s49 1 95 5v-20c-30 -2 -43 -4 -58 -11c-21 -8 -24 -15 -24 -54v-607zM498 859l-127 -128h-75l-127 128h51l114 -92l113 92h51z" />
    <glyph glyph-name="Ohungarumlaut" unicode="&#x150;" horiz-adv-x="618" 
d="M309 678c158 0 259 -135 259 -348c0 -87 -21 -168 -59 -231c-44 -71 -113 -110 -197 -110c-159 0 -261 136 -261 347c0 207 102 342 258 342zM308 651c-115 0 -185 -119 -185 -316s72 -319 190 -319c65 0 118 39 146 108c24 58 37 131 37 207c0 201 -70 320 -188 320z
M212 725l113 139h82l-150 -139h-45zM360 725l113 139h82l-151 -139h-44z" />
    <glyph glyph-name="Racute" unicode="&#x154;" horiz-adv-x="579" 
d="M183 323v-241c0 -52 9 -59 81 -65v-20c-61 6 -86 8 -114 8c-29 0 -54 -2 -116 -8v20c72 6 82 13 82 65v500c0 52 -10 59 -82 65v20h258c58 0 98 -10 131 -32c45 -30 74 -86 74 -141c0 -90 -67 -157 -166 -169c39 -10 59 -29 82 -82l75 -173c20 -45 30 -52 81 -53v-20
c-28 2 -42 3 -59 3s-32 -1 -60 -3l-106 247c-28 65 -48 79 -118 79h-43zM183 351h95c97 0 152 53 152 148c0 92 -50 140 -148 140h-99v-288zM214 725l140 139h88l-178 -139h-50z" />
    <glyph glyph-name="Rcaron" unicode="&#x158;" horiz-adv-x="579" 
d="M183 323v-241c0 -52 9 -59 81 -65v-20c-61 6 -86 8 -114 8c-29 0 -54 -2 -116 -8v20c72 6 82 13 82 65v500c0 52 -10 59 -82 65v20h258c58 0 98 -10 131 -32c45 -30 74 -86 74 -141c0 -90 -67 -157 -166 -169c39 -10 59 -29 82 -82l75 -173c20 -45 30 -52 81 -53v-20
c-28 2 -42 3 -59 3s-32 -1 -60 -3l-106 247c-28 65 -48 79 -118 79h-43zM183 351h95c97 0 152 53 152 148c0 92 -50 140 -148 140h-99v-288zM439 859l-127 -128h-74l-128 128h51l114 -92l113 92h51z" />
    <glyph glyph-name="Sacute" unicode="&#x15a;" horiz-adv-x="506" 
d="M196 725l141 139h88l-178 -139h-51zM59 195h19c21 -118 78 -175 177 -175c86 0 142 55 142 138c0 53 -19 83 -74 114c-13 7 -13 7 -113 57c-112 56 -140 90 -140 171c0 106 72 175 182 175c53 0 87 -13 124 -49l28 52h17v-175h-19c-27 101 -70 145 -146 145
c-73 0 -131 -58 -131 -129c0 -41 19 -72 60 -97c25 -15 26 -15 99 -52c74 -36 90 -45 117 -66c36 -28 54 -70 54 -125c0 -112 -78 -187 -195 -187c-61 0 -105 16 -150 55l-35 -59h-16v207z" />
    <glyph glyph-name="Scedilla" unicode="&#x15e;" horiz-adv-x="506" 
d="M269 -8l-25 -52c60 -6 88 -29 88 -72c0 -46 -39 -79 -92 -79c-27 0 -49 4 -78 15v33c26 -8 31 -9 50 -9c38 0 59 17 59 46c0 32 -22 44 -82 46l38 74c-47 7 -86 24 -117 53l-35 -59h-16v207h19c20 -118 79 -176 177 -176c84 0 142 57 142 139c0 53 -19 83 -74 114
c-12 6 -12 6 -113 57c-112 56 -141 91 -141 171c0 105 74 175 183 175c53 0 87 -13 124 -49l28 52h17v-175h-19c-27 101 -70 145 -146 145c-72 0 -132 -58 -132 -129c0 -41 19 -72 60 -97c25 -15 26 -15 100 -52c74 -36 89 -44 117 -66c36 -28 54 -70 54 -125
c0 -110 -69 -179 -186 -187z" />
    <glyph glyph-name="Tcaron" unicode="&#x164;" horiz-adv-x="508" 
d="M284 639v-557c0 -39 3 -46 24 -54c15 -6 27 -9 58 -11v-20c-62 6 -87 8 -115 8c-29 0 -54 -2 -115 -8v20c30 2 43 5 57 11c21 8 24 15 24 54v557h-62c-67 0 -85 -18 -116 -113h-21l25 141h420l26 -141h-20c-28 95 -46 113 -110 113h-75zM414 859l-127 -128h-74l-127 128
h50l114 -92l114 92h50z" />
    <glyph glyph-name="Uring" unicode="&#x16e;" horiz-adv-x="654" 
d="M431 650v20c49 -4 72 -5 100 -5s49 1 95 5v-20c-72 -5 -82 -14 -82 -65v-381c0 -64 -8 -98 -31 -132c-37 -54 -101 -83 -186 -83c-72 0 -130 22 -170 65c-34 36 -46 73 -46 143v388c0 51 -11 60 -82 65v20c63 -6 88 -8 116 -8c27 0 52 2 114 8v-20
c-71 -5 -81 -13 -81 -65v-390c0 -68 7 -93 33 -121c30 -31 73 -46 130 -46c114 0 171 55 171 165v392c0 52 -10 60 -81 65zM342 876c44 0 80 -36 80 -81c0 -46 -36 -82 -81 -82c-44 0 -82 38 -82 81c0 45 37 82 83 82zM342 844c-28 0 -51 -22 -51 -49s23 -50 50 -50
c28 0 49 22 49 50s-21 49 -48 49z" />
    <glyph glyph-name="Uhungarumlaut" unicode="&#x170;" horiz-adv-x="654" 
d="M431 650v20c49 -4 72 -5 100 -5s49 1 95 5v-20c-72 -5 -82 -14 -82 -65v-381c0 -64 -8 -98 -31 -132c-37 -54 -101 -83 -186 -83c-72 0 -130 22 -170 65c-34 36 -46 73 -46 143v388c0 51 -11 60 -82 65v20c63 -6 88 -8 116 -8c27 0 52 2 114 8v-20
c-71 -5 -81 -13 -81 -65v-390c0 -68 7 -93 33 -121c30 -31 73 -46 130 -46c114 0 171 55 171 165v392c0 52 -10 60 -81 65zM239 725l113 139h83l-151 -139h-45zM387 725l113 139h82l-150 -139h-45z" />
    <glyph glyph-name="Zacute" unicode="&#x179;" horiz-adv-x="524" 
d="M34 0l370 639h-195c-68 0 -95 -26 -113 -109h-22l25 137h396l-370 -639h203c63 0 79 6 103 41c13 18 24 42 39 80h20l-29 -149h-427zM232 725l141 139h87l-178 -139h-50z" />
    <glyph glyph-name="Zdotaccent" unicode="&#x17b;" horiz-adv-x="524" 
d="M34 0l370 639h-195c-68 0 -95 -26 -113 -109h-22l25 137h396l-370 -639h203c63 0 79 6 103 41c13 18 24 42 39 80h20l-29 -149h-427zM290 846c28 0 50 -23 50 -51c0 -30 -21 -51 -51 -51c-28 0 -51 23 -51 51s24 51 52 51z" />
    <glyph glyph-name="Amacron" unicode="&#x100;" horiz-adv-x="629" 
d="M415 198h-238l-36 -103c-8 -25 -12 -39 -12 -48c0 -20 18 -28 64 -30v-20c-44 5 -66 6 -91 6c-26 0 -48 -1 -92 -6v20c60 4 71 11 88 59l230 611l201 -615c15 -43 26 -50 90 -55v-20c-51 6 -78 8 -111 8s-60 -2 -111 -8v20c43 4 61 13 61 31c0 6 -3 23 -6 32zM187 226
h219l-101 323zM168 771v47h313v-47h-313z" />
    <glyph glyph-name="Tcommaaccent" unicode="&#x162;" horiz-adv-x="508" 
d="M284 639v-557c0 -39 3 -46 24 -54c15 -6 27 -9 58 -11v-20c-62 6 -87 8 -115 8c-29 0 -54 -2 -115 -8v20c30 2 43 5 57 11c21 8 24 15 24 54v557h-62c-67 0 -85 -18 -116 -113h-21l25 141h420l26 -141h-20c-28 95 -46 113 -110 113h-75zM251 -230h-47c34 29 55 63 59 93
h-4c-5 -2 -7 -2 -13 -2c-23 0 -39 17 -39 41c0 25 19 43 47 43c31 0 49 -21 49 -56c0 -37 -18 -79 -52 -119z" />
    <glyph glyph-name="Ccircumflex" unicode="&#x108;" horiz-adv-x="584" 
d="M484 220h37c-7 -146 -84 -231 -211 -231c-76 0 -147 36 -189 96c-45 64 -70 155 -70 251c0 99 27 189 77 255c42 56 109 87 184 87c62 0 107 -17 149 -55l36 52h17v-184h-19c-28 108 -85 160 -175 160c-66 0 -118 -31 -149 -89c-31 -59 -48 -138 -48 -228
c0 -195 73 -312 194 -312c62 0 116 35 143 91c15 32 21 59 24 107zM156 731l127 128h74l127 -128h-50l-114 92l-114 -92h-50z" />
    <glyph glyph-name="Wcircumflex" unicode="&#x174;" horiz-adv-x="860" 
d="M275 -11h-17l-162 612c-9 36 -26 47 -78 49v20c45 -6 71 -8 106 -8s60 2 106 8v-20c-48 -3 -66 -11 -66 -29c0 -6 1 -11 4 -23l120 -454l149 534h23l147 -534l122 453c3 11 4 19 4 26c0 18 -15 25 -62 27v20c37 -5 57 -6 85 -6s48 1 85 6v-20c-53 -2 -69 -11 -77 -43
l-169 -616h-17l-149 556zM282 731l127 128h74l128 -128h-51l-114 92l-113 -92h-51z" />
    <glyph glyph-name="Wdieresis" unicode="&#x1e84;" horiz-adv-x="860" 
d="M275 -11h-17l-162 612c-9 36 -26 47 -78 49v20c45 -6 71 -8 106 -8s60 2 106 8v-20c-48 -3 -66 -11 -66 -29c0 -6 1 -11 4 -23l120 -454l149 534h23l147 -534l122 453c3 11 4 19 4 26c0 18 -15 25 -62 27v20c37 -5 57 -6 85 -6s48 1 85 6v-20c-53 -2 -69 -11 -77 -43
l-169 -616h-17l-149 556zM359 846c28 0 50 -23 50 -51c0 -30 -21 -51 -50 -51s-52 23 -52 51c0 27 24 51 52 51zM535 846c28 0 50 -23 50 -51c0 -29 -22 -51 -51 -51c-28 0 -51 22 -51 51c0 28 23 51 52 51z" />
    <glyph glyph-name="Ycircumflex" unicode="&#x176;" horiz-adv-x="579" 
d="M258 292l-154 308c-20 39 -32 46 -91 50v20c50 -5 78 -7 114 -7c37 0 64 2 114 7v-20c-52 -3 -71 -10 -71 -26c0 -6 2 -12 9 -27l134 -267l136 272c4 8 7 17 7 22c0 17 -16 23 -70 26v20c44 -5 66 -6 91 -6s47 1 92 6v-20c-57 -6 -70 -13 -90 -50l-154 -308v-210
c0 -38 3 -46 24 -54c15 -6 27 -9 58 -11v-20c-62 6 -87 8 -115 8c-29 0 -54 -2 -115 -8v20c31 2 43 5 57 11c21 8 24 15 24 54v210zM143 731l128 128h74l127 -128h-51l-113 92l-114 -92h-51z" />
    <glyph glyph-name="Hbar" unicode="&#x126;" horiz-adv-x="664" 
d="M481 529v56c0 51 -11 60 -82 65v20c63 -6 88 -8 116 -8c27 0 52 2 114 8v-20c-71 -5 -81 -14 -81 -65v-56h81v-33h-81v-414c0 -52 9 -59 81 -65v-20c-61 6 -86 8 -114 8c-29 0 -54 -2 -116 -8v20c72 6 82 14 82 65v252h-298v-252c0 -52 9 -59 81 -65v-20
c-61 6 -86 8 -114 8c-29 0 -54 -2 -116 -8v20c72 6 82 14 82 65v414h-82v33h82v56c0 51 -11 60 -82 65v20c63 -6 88 -8 116 -8c27 0 52 2 114 8v-20c-71 -5 -81 -14 -81 -65v-56h298zM481 496h-298v-134h298v134z" />
    <glyph glyph-name="Emacron" unicode="&#x112;" horiz-adv-x="528" 
d="M477 152l-19 -152h-424v20c72 6 82 14 82 65v497c0 51 -10 59 -82 65v20h419l14 -141h-19c-25 92 -46 113 -112 113h-153v-278h155c44 0 55 15 58 82h20v-193h-20c-2 61 -17 83 -58 83h-155v-243c0 -50 14 -62 70 -62h78c59 0 78 9 98 44c12 21 21 45 29 80h19zM116 771
v47h313v-47h-313z" />
    <glyph glyph-name="Gcircumflex" unicode="&#x11c;" horiz-adv-x="619" 
d="M519 678v-187h-19c-14 43 -22 62 -38 87c-30 46 -81 72 -141 72c-128 0 -198 -111 -198 -315c0 -206 69 -318 196 -318c49 0 89 12 145 42v168c0 34 -15 42 -79 47v19c63 -5 80 -6 106 -6c27 0 42 1 107 6v-19c-68 -6 -73 -9 -73 -49v-169c-83 -48 -144 -67 -213 -67
c-159 0 -261 136 -261 349c0 208 101 340 261 340c59 0 102 -15 148 -53l42 53h17zM160 731l128 128h74l127 -128h-51l-113 92l-114 -92h-51z" />
    <glyph glyph-name="Hcircumflex" unicode="&#x124;" horiz-adv-x="664" 
d="M183 362h298v223c0 51 -11 60 -82 65v20c63 -6 88 -8 116 -8c27 0 52 2 114 8v-20c-71 -5 -81 -13 -81 -65v-503c0 -52 9 -59 81 -65v-20c-61 6 -86 8 -114 8c-29 0 -54 -2 -116 -8v20c72 6 82 14 82 65v252h-298v-252c0 -52 9 -59 81 -65v-20c-61 6 -86 8 -114 8
c-29 0 -54 -2 -116 -8v20c72 6 82 14 82 65v503c0 51 -11 60 -82 65v20c63 -6 88 -8 116 -8c27 0 52 2 114 8v-20c-71 -5 -81 -13 -81 -65v-223zM167 731l128 128h74l127 -128h-51l-113 92l-114 -92h-51z" />
    <glyph glyph-name="Imacron" unicode="&#x12a;" horiz-adv-x="298" 
d="M264 17v-20c-61 6 -86 8 -114 8c-29 0 -54 -2 -116 -8v20c72 6 82 14 82 65v503c0 51 -11 60 -82 65v20c63 -6 88 -8 116 -8c27 0 52 2 114 8v-20c-71 -5 -81 -13 -81 -65v-503c0 -52 9 -59 81 -65zM23 771v47h253v-47h-253z" />
    <glyph glyph-name="Iogonek" unicode="&#x12e;" horiz-adv-x="298" 
d="M263 -123v-31c-31 -11 -51 -15 -74 -15c-57 0 -97 33 -97 78c0 43 32 70 109 94c-24 1 -43 2 -54 2c-27 0 -49 -2 -113 -8v20c72 6 82 14 82 65v503c0 51 -11 60 -82 65v20c63 -6 88 -8 116 -8c27 0 52 2 114 8v-20c-71 -5 -81 -13 -81 -65v-503c0 -52 10 -59 81 -65v-20
c-2 1 -4 1 -5 1c-8 0 -25 -6 -46 -15c-35 -16 -58 -42 -58 -67c0 -27 24 -47 58 -47c16 0 28 2 50 8z" />
    <glyph glyph-name="Kcommaaccent" unicode="&#x136;" horiz-adv-x="615" 
d="M301 -230h-46c33 29 55 63 58 93h-3c-5 -2 -7 -2 -14 -2c-23 0 -38 16 -38 41c0 26 18 43 47 43c31 0 48 -20 48 -56c0 -39 -17 -78 -52 -119zM180 355l229 253c9 10 13 17 13 23c0 13 -12 17 -61 19v20c43 -4 67 -5 100 -5c32 0 56 1 99 5v-20c-62 -2 -83 -11 -118 -50
l-188 -210l234 -314c31 -43 55 -56 114 -59v-20c-56 6 -86 8 -122 8c-37 0 -67 -2 -122 -8v20c57 5 70 10 70 25c0 10 -1 12 -19 37l-196 273l-34 -38v-232c0 -52 9 -59 81 -65v-20c-54 6 -79 8 -109 8s-55 -2 -117 -8v20c72 6 82 14 82 65v503c0 51 -11 60 -82 65v20
c63 -6 88 -8 116 -8c29 0 55 2 111 8v-20c-71 -5 -81 -13 -81 -65v-230z" />
    <glyph glyph-name="Lcommaaccent" unicode="&#x13b;" horiz-adv-x="488" 
d="M477 152l-19 -152h-424v20c72 6 82 14 82 65v500c0 51 -11 60 -82 65v20c63 -6 88 -8 116 -8c27 0 52 2 114 8v-20c-71 -5 -81 -13 -81 -65v-491c0 -27 2 -38 11 -46c10 -10 30 -16 59 -16h78c59 0 78 8 98 43c12 20 20 43 29 77h19zM266 -230h-46c33 29 55 64 59 93h-4
c-5 -2 -7 -2 -14 -2c-23 0 -38 16 -38 41c0 26 18 43 47 43c30 0 49 -22 49 -56c0 -35 -19 -79 -53 -119z" />
    <glyph glyph-name="Ncommaaccent" unicode="&#x145;" horiz-adv-x="665" 
d="M552 -22h-11l-393 618v-514c0 -39 3 -46 24 -54c14 -6 27 -9 57 -11v-20c-80 6 -83 6 -100 6c-18 0 -22 0 -95 -6v20c31 2 43 5 58 11c21 8 24 15 24 54v542c-16 19 -31 23 -83 26v20c36 -3 54 -4 77 -4c21 0 38 1 67 4l343 -534v449c0 39 -3 46 -24 54
c-14 7 -28 9 -57 11v20c49 -4 72 -5 100 -5s49 1 95 5v-20c-30 -2 -43 -4 -58 -11c-21 -8 -24 -15 -24 -54v-607zM324 -230h-47c34 29 55 63 59 93h-3c-6 -2 -8 -2 -14 -2c-23 0 -38 16 -38 41c0 26 18 43 46 43c31 0 49 -20 49 -56c0 -38 -17 -78 -52 -119z" />
    <glyph glyph-name="Omacron" unicode="&#x14c;" horiz-adv-x="618" 
d="M309 678c158 0 259 -135 259 -348c0 -87 -21 -168 -59 -231c-44 -71 -113 -110 -197 -110c-159 0 -261 136 -261 347c0 207 102 342 258 342zM308 651c-115 0 -185 -119 -185 -316s72 -319 190 -319c65 0 118 39 146 108c24 58 37 131 37 207c0 201 -70 320 -188 320z
M153 771v47h313v-47h-313z" />
    <glyph glyph-name="Rcommaaccent" unicode="&#x156;" horiz-adv-x="579" 
d="M183 323v-241c0 -52 9 -59 81 -65v-20c-61 6 -86 8 -114 8c-29 0 -54 -2 -116 -8v20c72 6 82 13 82 65v500c0 52 -10 59 -82 65v20h258c58 0 98 -10 131 -32c45 -30 74 -86 74 -141c0 -90 -67 -157 -166 -169c39 -10 59 -29 82 -82l75 -173c20 -45 30 -52 81 -53v-20
c-28 2 -42 3 -59 3s-32 -1 -60 -3l-106 247c-28 65 -48 79 -118 79h-43zM183 351h95c97 0 152 53 152 148c0 92 -50 140 -148 140h-99v-288zM295 -230h-47c33 29 55 64 59 93h-4c-5 -2 -7 -2 -13 -2c-23 0 -39 16 -39 41s19 43 47 43c30 0 49 -21 49 -56
c0 -37 -18 -79 -52 -119z" />
    <glyph glyph-name="Scircumflex" unicode="&#x15c;" horiz-adv-x="506" 
d="M90 731l127 128h74l127 -128h-50l-114 92l-114 -92h-50zM59 195h19c21 -118 78 -175 177 -175c86 0 142 55 142 138c0 53 -19 83 -74 114c-13 7 -13 7 -113 57c-112 56 -140 90 -140 171c0 106 72 175 182 175c53 0 87 -13 124 -49l28 52h17v-175h-19
c-27 101 -70 145 -146 145c-73 0 -131 -58 -131 -129c0 -41 19 -72 60 -97c25 -15 26 -15 99 -52c74 -36 90 -45 117 -66c36 -28 54 -70 54 -125c0 -112 -78 -187 -195 -187c-61 0 -105 16 -150 55l-35 -59h-16v207z" />
    <glyph glyph-name="Gcommaaccent" unicode="&#x122;" horiz-adv-x="619" 
d="M519 678v-187h-19c-14 43 -22 62 -38 87c-30 46 -81 72 -141 72c-128 0 -198 -111 -198 -315c0 -206 69 -318 196 -318c49 0 89 12 145 42v168c0 34 -15 42 -79 47v19c63 -5 80 -6 106 -6c27 0 42 1 107 6v-19c-68 -6 -73 -9 -73 -49v-169c-83 -48 -144 -67 -213 -67
c-159 0 -261 136 -261 349c0 208 101 340 261 340c59 0 102 -15 148 -53l42 53h17zM312 -230h-47c34 29 55 63 59 93h-4c-5 -2 -7 -2 -13 -2c-23 0 -39 17 -39 41c0 25 20 43 47 43c31 0 49 -21 49 -55c0 -38 -18 -80 -52 -120z" />
    <glyph glyph-name="uni01D3" unicode="&#x1d3;" horiz-adv-x="654" 
d="M431 650v20c49 -4 72 -5 100 -5s49 1 95 5v-20c-72 -5 -82 -14 -82 -65v-381c0 -64 -8 -98 -31 -132c-37 -54 -101 -83 -186 -83c-72 0 -130 22 -170 65c-34 36 -46 73 -46 143v388c0 51 -11 60 -82 65v20c63 -6 88 -8 116 -8c27 0 52 2 114 8v-20
c-71 -5 -81 -13 -81 -65v-390c0 -68 7 -93 33 -121c30 -31 73 -46 130 -46c114 0 171 55 171 165v392c0 52 -10 60 -81 65zM505 859l-127 -128h-74l-127 128h50l114 -92l114 92h50z" />
    <glyph glyph-name="Umacron" unicode="&#x16a;" horiz-adv-x="654" 
d="M431 650v20c49 -4 72 -5 100 -5s49 1 95 5v-20c-72 -5 -82 -14 -82 -65v-381c0 -64 -8 -98 -31 -132c-37 -54 -101 -83 -186 -83c-72 0 -130 22 -170 65c-34 36 -46 73 -46 143v388c0 51 -11 60 -82 65v20c63 -6 88 -8 116 -8c27 0 52 2 114 8v-20
c-71 -5 -81 -13 -81 -65v-390c0 -68 7 -93 33 -121c30 -31 73 -46 130 -46c114 0 171 55 171 165v392c0 52 -10 60 -81 65zM185 771v47h312v-47h-312z" />
    <glyph glyph-name="Uogonek" unicode="&#x172;" horiz-adv-x="654" 
d="M500 -123v-31c-32 -11 -51 -15 -75 -15c-55 0 -97 33 -97 77c0 34 20 57 81 90c-38 -7 -59 -9 -87 -9c-67 0 -125 23 -165 65c-34 36 -46 73 -46 143v388c0 51 -11 60 -82 65v20c63 -6 88 -8 116 -8c27 0 52 2 114 8v-20c-71 -5 -81 -13 -81 -65v-390
c0 -68 7 -93 33 -121c30 -31 73 -46 130 -46c67 0 121 24 148 64c15 24 23 57 23 101v392c0 52 -10 60 -81 65v20c50 -4 73 -5 100 -5c28 0 49 1 95 5v-20c-72 -5 -82 -14 -82 -65v-381c0 -91 -15 -125 -82 -187c-50 -46 -72 -77 -72 -101c0 -26 27 -47 60 -47
c16 0 28 2 50 8z" />
    <glyph glyph-name="Ebreve" unicode="&#x114;" horiz-adv-x="528" 
d="M477 152l-19 -152h-424v20c72 6 82 14 82 65v497c0 51 -10 59 -82 65v20h419l14 -141h-19c-25 92 -46 113 -112 113h-153v-278h155c44 0 55 15 58 82h20v-193h-20c-2 61 -17 83 -58 83h-155v-243c0 -50 14 -62 70 -62h78c59 0 78 9 98 44c12 21 21 45 29 80h19zM373 860
h32c-8 -80 -61 -133 -133 -133c-71 0 -123 52 -132 133h32c13 -47 52 -77 100 -77c49 0 89 30 101 77z" />
    <glyph glyph-name="uni01F4" unicode="&#x1f4;" horiz-adv-x="619" 
d="M519 678v-187h-19c-14 43 -22 62 -38 87c-30 46 -81 72 -141 72c-128 0 -198 -111 -198 -315c0 -206 69 -318 196 -318c49 0 89 12 145 42v168c0 34 -15 42 -79 47v19c63 -5 80 -6 106 -6c27 0 42 1 107 6v-19c-68 -6 -73 -9 -73 -49v-169c-83 -48 -144 -67 -213 -67
c-159 0 -261 136 -261 349c0 208 101 340 261 340c59 0 102 -15 148 -53l42 53h17zM264 725l140 139h88l-178 -139h-50z" />
    <glyph glyph-name="dotlessj" unicode="&#xf6be;" horiz-adv-x="258" 
d="M162 489v-477c0 -78 -15 -129 -49 -166c-31 -34 -70 -48 -137 -50v21c90 18 124 60 124 157v424c0 48 -6 53 -71 54v14c50 5 94 12 133 23z" />
    <glyph glyph-name="ij" unicode="&#x133;" horiz-adv-x="521" 
d="M165 489v-424c0 -40 12 -48 71 -51v-17c-48 5 -71 6 -102 6c-30 0 -54 -1 -103 -6v17c60 3 72 11 72 51v333c0 48 -6 53 -71 54v14c50 4 95 12 133 23zM130 660c27 0 47 -20 47 -47s-20 -47 -47 -47c-26 0 -47 21 -47 47s21 47 47 47zM425 489v-477
c0 -78 -15 -129 -49 -166c-31 -34 -70 -48 -137 -50v21c90 18 124 60 124 157v424c0 48 -6 53 -71 54v14c50 5 93 12 133 23zM390 660c28 0 47 -19 47 -47c0 -27 -20 -47 -47 -47c-26 0 -47 22 -47 47c0 26 21 47 47 47z" />
    <glyph glyph-name="uni01CE" unicode="&#x1ce;" horiz-adv-x="452" 
d="M430 25v-26c-18 -3 -38 -5 -49 -5c-44 0 -63 24 -69 84c-36 -65 -69 -86 -133 -86c-81 0 -137 53 -137 128c0 61 36 104 114 137c47 20 88 30 146 38v56c0 40 -5 60 -17 76c-15 18 -39 28 -69 28c-35 0 -68 -14 -83 -34c-7 -10 -7 -13 -7 -44c0 -30 -11 -43 -36 -43
c-18 0 -28 10 -28 29c0 63 73 117 157 117c53 0 100 -21 124 -56c15 -21 21 -48 21 -89v-215c0 -74 10 -98 41 -98c7 0 13 1 25 3zM302 186v84c-134 -23 -196 -70 -196 -149c0 -56 33 -90 88 -90c76 0 108 46 108 155zM369 697l-119 -139h-63l-119 139h48l103 -92l102 92h48
z" />
    <glyph glyph-name="abreve" unicode="&#x103;" horiz-adv-x="452" 
d="M430 25v-26c-18 -3 -38 -5 -49 -5c-44 0 -63 24 -69 84c-36 -65 -69 -86 -133 -86c-81 0 -137 53 -137 128c0 61 36 104 114 137c47 20 88 30 146 38v56c0 40 -5 60 -17 76c-15 18 -39 28 -69 28c-35 0 -68 -14 -83 -34c-7 -10 -7 -13 -7 -44c0 -30 -11 -43 -36 -43
c-18 0 -28 10 -28 29c0 63 73 117 157 117c53 0 100 -21 124 -56c15 -21 21 -48 21 -89v-215c0 -74 10 -98 41 -98c7 0 13 1 25 3zM302 186v84c-134 -23 -196 -70 -196 -149c0 -56 33 -90 88 -90c76 0 108 46 108 155zM319 698h32c-9 -86 -60 -141 -132 -141
c-73 0 -124 55 -133 141h32c12 -52 51 -85 101 -85c49 0 88 33 100 85z" />
    <glyph glyph-name="aogonek" unicode="&#x105;" horiz-adv-x="452" 
d="M430 25v-26c-44 -11 -73 -44 -73 -81c0 -25 25 -44 56 -44c8 0 18 2 31 6v-30c-23 -8 -40 -12 -56 -12c-52 0 -90 32 -90 75c0 31 31 66 72 82c-34 1 -54 30 -58 83c-36 -65 -69 -86 -133 -86c-81 0 -137 53 -137 128c0 61 36 104 114 137c47 20 88 30 146 38v56
c0 40 -5 60 -17 76c-15 18 -39 28 -69 28c-32 0 -62 -11 -78 -29c-11 -12 -12 -15 -12 -49c0 -30 -11 -43 -36 -43c-19 0 -28 9 -28 29c0 63 73 117 157 117c53 0 100 -21 124 -56c15 -21 21 -48 21 -89v-215c0 -74 10 -98 41 -98c7 0 13 1 25 3zM302 186v84
c-134 -23 -196 -70 -196 -149c0 -56 33 -90 88 -90c76 0 108 46 108 155z" />
    <glyph glyph-name="cacute" unicode="&#x107;" horiz-adv-x="424" 
d="M370 492v-156h-19c-8 33 -13 48 -24 68c-20 33 -54 54 -91 54c-78 0 -123 -84 -123 -226c0 -140 40 -211 120 -211c62 0 96 41 109 133h40c-12 -105 -66 -164 -152 -164c-112 0 -188 98 -188 242c0 150 77 251 190 251c41 0 66 -11 96 -41l25 50h17zM186 552l112 150h80
l-148 -150h-44z" />
    <glyph glyph-name="ccaron" unicode="&#x10d;" horiz-adv-x="424" 
d="M370 492v-156h-19c-8 33 -13 48 -24 68c-20 33 -54 54 -91 54c-78 0 -123 -84 -123 -226c0 -140 40 -211 120 -211c62 0 96 41 109 133h40c-12 -105 -66 -164 -152 -164c-112 0 -188 98 -188 242c0 150 77 251 190 251c41 0 66 -11 96 -41l25 50h17zM385 697l-118 -139
h-63l-119 139h47l103 -92l103 92h47z" />
    <glyph glyph-name="cdotaccent" unicode="&#x10b;" horiz-adv-x="424" 
d="M370 492v-156h-19c-8 33 -13 48 -24 68c-20 33 -54 54 -91 54c-78 0 -123 -84 -123 -226c0 -140 40 -211 120 -211c62 0 96 41 109 133h40c-12 -105 -66 -164 -152 -164c-112 0 -188 98 -188 242c0 150 77 251 190 251c41 0 66 -11 96 -41l25 50h17zM236 664
c25 0 47 -22 47 -47c0 -26 -22 -48 -48 -48s-47 21 -47 48s20 47 48 47z" />
    <glyph glyph-name="dcaron" unicode="&#x10f;" horiz-adv-x="560" 
d="M475 29v-14c-67 -8 -83 -11 -118 -23c-6 27 -10 55 -11 87c-29 -59 -69 -87 -127 -87c-105 0 -177 99 -177 243c0 146 71 245 176 245c57 0 92 -25 124 -89v193c0 48 -7 54 -71 54v14c49 5 95 13 133 23v-577c0 -62 4 -66 71 -69zM224 452c-77 0 -115 -73 -115 -217
c0 -139 42 -215 118 -215c75 0 116 73 116 205c0 148 -42 227 -119 227zM501 503h-47c33 29 55 64 59 94h-4c-5 -3 -7 -3 -13 -3c-23 0 -39 17 -39 41c0 26 19 43 47 43c31 0 49 -21 49 -56c0 -37 -18 -79 -52 -119z" />
    <glyph glyph-name="dcroat" unicode="&#x111;" horiz-adv-x="499" 
d="M475 29v-14c-71 -6 -78 -6 -118 -15c-6 24 -10 51 -11 79c-29 -59 -69 -87 -126 -87c-105 0 -178 100 -178 243c0 145 72 245 176 245c57 0 92 -25 124 -89v152h-120v33h120v9c0 47 -7 53 -71 53v14c50 5 95 13 133 23v-99h71v-33h-71v-458c0 -45 10 -54 61 -56h10z
M224 452c-76 0 -115 -73 -115 -217c0 -138 42 -215 118 -215c75 0 116 73 116 205c0 148 -42 227 -119 227z" />
    <glyph glyph-name="ecaron" unicode="&#x11b;" horiz-adv-x="450" 
d="M367 155h40c-4 -39 -15 -72 -35 -101c-30 -44 -71 -64 -133 -64c-127 0 -197 86 -197 242c0 155 72 251 189 251c114 0 176 -81 175 -231h-302c0 -158 44 -231 136 -231c72 0 116 46 127 134zM107 288h237c-6 113 -45 170 -114 170c-67 0 -111 -60 -123 -170zM382 697
l-119 -139h-63l-119 139h48l102 -92l103 92h48z" />
    <glyph glyph-name="edotaccent" unicode="&#x117;" horiz-adv-x="450" 
d="M367 155h40c-4 -39 -15 -72 -35 -101c-30 -44 -71 -64 -133 -64c-127 0 -197 86 -197 242c0 155 72 251 189 251c114 0 176 -81 175 -231h-302c0 -158 44 -231 136 -231c72 0 116 46 127 134zM107 288h237c-6 113 -45 170 -114 170c-67 0 -111 -60 -123 -170zM232 664
c26 0 47 -21 47 -47s-22 -48 -48 -48s-47 21 -47 48s20 47 48 47z" />
    <glyph glyph-name="eogonek" unicode="&#x119;" horiz-adv-x="450" 
d="M371 -117v-29c-23 -8 -40 -12 -56 -12c-50 0 -91 33 -91 73c0 28 16 48 60 79c-26 -3 -37 -4 -53 -4c-119 0 -189 90 -189 242c0 156 72 251 189 251c114 0 175 -81 175 -231h-302c0 -158 43 -231 136 -231c72 0 116 46 127 134h40c-4 -52 -25 -95 -65 -137
c-48 -51 -59 -68 -59 -93c0 -27 25 -47 57 -47c8 0 18 2 31 5zM107 288h237c-6 113 -45 170 -115 170c-66 0 -110 -60 -122 -170z" />
    <glyph glyph-name="gcaron" unicode="&#x1e7;" horiz-adv-x="488" 
d="M401 697l-119 -139h-63l-119 139h48l102 -92l103 92h48zM346 455h132v-36l-99 4c16 -28 23 -51 23 -82c0 -57 -29 -104 -79 -130c-26 -14 -33 -16 -120 -43c-55 -17 -71 -27 -71 -45c0 -23 14 -28 87 -33c88 -7 116 -11 148 -23c54 -21 83 -59 83 -110
c0 -90 -85 -152 -210 -152c-123 0 -209 59 -209 144c0 52 33 87 106 111c-38 12 -54 28 -54 53c0 36 33 58 112 76c-80 21 -122 71 -122 145c0 91 65 146 172 146c42 0 70 -7 101 -25zM239 456c-65 0 -105 -46 -105 -121s40 -123 103 -123s104 48 104 123
c0 77 -37 121 -102 121zM239 30c-102 0 -170 -38 -170 -94c0 -58 73 -103 168 -103c100 0 165 41 165 105c0 58 -60 92 -163 92z" />
    <glyph glyph-name="gbreve" unicode="&#x11f;" horiz-adv-x="488" 
d="M351 698h32c-9 -86 -60 -141 -133 -141c-72 0 -123 55 -132 141h32c12 -52 51 -85 100 -85c50 0 88 33 101 85zM346 455h132v-36l-99 4c16 -28 23 -51 23 -82c0 -57 -29 -104 -79 -130c-26 -14 -33 -16 -120 -43c-55 -17 -71 -27 -71 -45c0 -23 14 -28 87 -33
c88 -7 116 -11 148 -23c54 -21 83 -59 83 -110c0 -90 -85 -152 -210 -152c-123 0 -209 59 -209 144c0 52 33 87 106 111c-38 12 -54 28 -54 53c0 36 33 58 112 76c-80 21 -122 71 -122 145c0 91 65 146 172 146c42 0 70 -7 101 -25zM239 456c-65 0 -105 -46 -105 -121
s40 -123 103 -123s104 48 104 123c0 77 -37 121 -102 121zM239 30c-102 0 -170 -38 -170 -94c0 -58 73 -103 168 -103c100 0 165 41 165 105c0 58 -60 92 -163 92z" />
    <glyph glyph-name="gdotaccent" unicode="&#x121;" horiz-adv-x="488" 
d="M251 664c26 0 47 -21 47 -47s-21 -48 -47 -48c-27 0 -48 21 -48 48s21 47 48 47zM346 455h132v-36l-99 4c16 -28 23 -51 23 -82c0 -57 -29 -104 -79 -130c-26 -14 -33 -16 -120 -43c-55 -17 -71 -27 -71 -45c0 -23 14 -28 87 -33c88 -7 116 -11 148 -23
c54 -21 83 -59 83 -110c0 -90 -85 -152 -210 -152c-123 0 -209 59 -209 144c0 52 33 87 106 111c-38 12 -54 28 -54 53c0 36 33 58 112 76c-80 21 -122 71 -122 145c0 91 65 146 172 146c42 0 70 -7 101 -25zM239 456c-65 0 -105 -46 -105 -121s40 -123 103 -123
s104 48 104 123c0 77 -37 121 -102 121zM239 30c-102 0 -170 -38 -170 -94c0 -58 73 -103 168 -103c100 0 165 41 165 105c0 58 -60 92 -163 92z" />
    <glyph glyph-name="lacute" unicode="&#x13a;" horiz-adv-x="260" 
d="M165 675v-610c0 -40 12 -48 71 -51v-17c-48 5 -71 6 -102 6c-30 0 -54 -1 -103 -6v17c60 3 72 11 72 51v519c0 48 -7 54 -71 54v14c49 5 96 13 133 23zM61 725l118 139h84l-151 -139h-51z" />
    <glyph glyph-name="lcaron" unicode="&#x13e;" horiz-adv-x="321" 
d="M165 675v-610c0 -40 12 -48 71 -51v-17c-48 5 -71 6 -102 6c-30 0 -54 -1 -103 -6v17c60 3 72 11 72 51v519c0 48 -7 54 -71 54v14c49 5 96 13 133 23zM262 503h-47c33 29 55 64 59 94h-4c-5 -3 -8 -3 -13 -3c-23 0 -39 17 -39 41c0 26 18 43 47 43c30 0 49 -21 49 -56
c0 -36 -19 -79 -52 -119z" />
    <glyph glyph-name="nacute" unicode="&#x144;" horiz-adv-x="530" 
d="M33 448v14c47 7 86 16 120 30c4 -26 5 -39 7 -89c36 54 75 77 131 77c52 0 97 -24 122 -65c15 -24 22 -59 22 -106v-244c0 -40 12 -48 72 -51v-17c-49 5 -73 6 -104 6s-55 -1 -103 -6v17c60 2 73 11 73 51v242c0 49 -5 74 -18 94c-16 24 -42 37 -77 37
c-38 0 -71 -16 -92 -45c-15 -21 -21 -45 -21 -90v-238c0 -40 12 -48 71 -51v-17c-48 5 -71 6 -102 6s-54 -1 -103 -6v17c60 3 72 11 72 51v324c0 57 0 57 -70 59zM208 552l113 150h80l-148 -150h-45z" />
    <glyph glyph-name="ncaron" unicode="&#x148;" horiz-adv-x="530" 
d="M33 448v14c47 7 86 16 120 30c4 -26 5 -39 7 -89c36 54 75 77 131 77c52 0 97 -24 122 -65c15 -24 22 -59 22 -106v-244c0 -40 12 -48 72 -51v-17c-49 5 -73 6 -104 6s-55 -1 -103 -6v17c60 2 73 11 73 51v242c0 49 -5 74 -18 94c-16 24 -42 37 -77 37
c-38 0 -71 -16 -92 -45c-15 -21 -21 -45 -21 -90v-238c0 -40 12 -48 71 -51v-17c-48 5 -71 6 -102 6s-54 -1 -103 -6v17c60 3 72 11 72 51v324c0 57 0 57 -70 59zM409 697l-119 -139h-63l-119 139h48l103 -92l102 92h48z" />
    <glyph glyph-name="ohungarumlaut" unicode="&#x151;" horiz-adv-x="456" 
d="M231 480c110 0 182 -97 182 -246c0 -143 -76 -242 -186 -242c-111 0 -185 98 -185 243c0 146 76 245 189 245zM230 455c-79 0 -121 -77 -121 -220c0 -145 39 -218 117 -218s120 75 120 216c0 149 -38 222 -116 222zM148 552l85 150h74l-120 -150h-39zM279 552l85 150h74
l-120 -150h-39z" />
    <glyph glyph-name="racute" unicode="&#x155;" horiz-adv-x="360" 
d="M33 452v14c45 4 87 13 120 23c4 -35 5 -45 6 -57c0 -9 1 -17 2 -41c17 57 60 92 113 92c49 0 83 -31 83 -75c0 -28 -15 -47 -38 -47c-21 0 -37 15 -37 33c0 5 0 6 3 18c1 3 1 6 1 7c0 14 -13 24 -32 24c-54 0 -89 -69 -89 -177v-201c0 -40 12 -48 71 -51v-17
c-48 5 -71 6 -102 6s-54 -1 -103 -6v17c60 3 72 11 72 51v324c0 60 -1 61 -70 63zM151 552l113 150h80l-148 -150h-45z" />
    <glyph glyph-name="sacute" unicode="&#x15b;" horiz-adv-x="417" 
d="M51 -10v162h19c8 -34 13 -51 24 -70c20 -38 63 -63 110 -63c62 0 110 42 110 96c0 33 -15 53 -56 73c-9 5 -9 5 -100 43c-76 31 -97 57 -97 118c0 78 59 131 144 131c37 0 63 -8 98 -29l14 37h17v-151h-19c-9 80 -43 118 -106 118c-56 0 -98 -38 -98 -88
c0 -33 15 -53 55 -73c15 -7 20 -9 98 -40c77 -32 102 -61 102 -121c0 -82 -67 -142 -157 -142c-42 0 -83 14 -119 39l-22 -40h-17zM159 552l112 150h80l-148 -150h-44z" />
    <glyph glyph-name="scircumflex" unicode="&#x15d;" horiz-adv-x="417" 
d="M51 -10v162h19c8 -34 13 -51 24 -70c20 -38 63 -63 110 -63c62 0 110 42 110 96c0 33 -15 53 -56 73c-9 5 -9 5 -100 43c-76 31 -97 57 -97 118c0 78 59 131 144 131c37 0 63 -8 98 -29l14 37h17v-151h-19c-9 80 -43 118 -106 118c-56 0 -98 -38 -98 -88
c0 -33 15 -53 55 -73c15 -7 20 -9 98 -40c77 -32 102 -61 102 -121c0 -82 -67 -142 -157 -142c-42 0 -83 14 -119 39l-22 -40h-17zM58 558l119 139h63l118 -139h-47l-103 92l-103 -92h-47z" />
    <glyph glyph-name="scommaaccent" unicode="&#x219;" horiz-adv-x="417" 
d="M51 -10v162h19c8 -34 13 -51 24 -70c20 -38 63 -63 110 -63c62 0 110 42 110 96c0 33 -15 53 -56 73c-9 5 -9 5 -100 43c-76 31 -97 57 -97 118c0 78 59 131 144 131c37 0 63 -8 98 -29l14 37h17v-151h-19c-9 80 -43 118 -106 118c-56 0 -98 -38 -98 -88
c0 -33 15 -53 55 -73c15 -7 20 -9 98 -40c77 -32 102 -61 102 -121c0 -82 -67 -142 -157 -142c-42 0 -83 14 -119 39l-22 -40h-17zM199 -230h-47c34 29 55 63 59 93h-3c-6 -2 -8 -2 -14 -2c-23 0 -38 16 -38 41c0 26 18 43 46 43c31 0 49 -20 49 -56c0 -38 -17 -78 -52 -119
z" />
    <glyph glyph-name="tcaron" unicode="&#x165;" horiz-adv-x="311" 
d="M286 44v-26c-32 -19 -59 -27 -90 -27c-72 0 -104 40 -104 129l1 40l3 276h-67v29c61 2 90 42 108 148h21v-141h122v-36h-122v-289c0 -91 15 -120 63 -120c19 0 37 5 65 17zM252 522h-47c33 29 55 64 59 93h-4c-5 -2 -7 -2 -13 -2c-23 0 -39 17 -39 41c0 25 19 43 47 43
c31 0 49 -21 49 -56c0 -37 -18 -78 -52 -119z" />
    <glyph glyph-name="uring" unicode="&#x16f;" horiz-adv-x="519" 
d="M17 452v14c50 5 93 12 133 23v-330c0 -90 26 -124 97 -124c77 0 112 44 112 142v221c0 48 -6 53 -71 54v14c50 5 94 12 133 23v-411c0 -45 5 -48 74 -49v-14c-50 -4 -89 -12 -125 -23l-4 91c-33 -65 -71 -91 -134 -91c-53 0 -97 21 -121 58c-16 24 -23 58 -23 108v240
c0 48 -6 53 -71 54zM254 715c44 0 80 -37 80 -82c0 -46 -35 -81 -81 -81c-45 0 -82 37 -82 81c0 45 38 82 83 82zM254 683c-28 0 -51 -23 -51 -50s22 -49 50 -49s49 21 49 49s-22 50 -48 50z" />
    <glyph glyph-name="uhungarumlaut" unicode="&#x171;" horiz-adv-x="519" 
d="M17 452v14c50 5 93 12 133 23v-330c0 -90 26 -124 97 -124c77 0 112 44 112 142v221c0 48 -6 53 -71 54v14c50 5 94 12 133 23v-411c0 -45 5 -48 74 -49v-14c-50 -4 -89 -12 -125 -23l-4 91c-33 -65 -71 -91 -134 -91c-53 0 -97 21 -121 58c-16 24 -23 58 -23 108v240
c0 48 -6 53 -71 54zM173 552l85 150h74l-119 -150h-40zM304 552l85 150h74l-120 -150h-39z" />
    <glyph glyph-name="zacute" unicode="&#x17a;" horiz-adv-x="441" 
d="M37 0l281 449h-129c-63 0 -75 -12 -111 -100h-17l22 123h321l-282 -449h135c50 0 67 9 91 46c13 19 21 37 30 67h17l-24 -136h-334zM184 552l113 150h80l-148 -150h-45z" />
    <glyph glyph-name="zdotaccent" unicode="&#x17c;" horiz-adv-x="441" 
d="M37 0l281 449h-129c-63 0 -75 -12 -111 -100h-17l22 123h321l-282 -449h135c50 0 67 9 91 46c13 19 21 37 30 67h17l-24 -136h-334zM235 664c26 0 46 -20 46 -47s-21 -48 -47 -48s-48 22 -48 48s21 47 49 47z" />
    <glyph glyph-name="hbar" unicode="&#x127;" horiz-adv-x="521" 
d="M157 576h120v-33h-120v-133c32 48 73 70 126 70c52 0 97 -24 122 -65c15 -24 22 -59 22 -106v-244c0 -40 12 -48 72 -51v-17c-49 5 -73 6 -104 6s-55 -1 -103 -6v17c60 2 73 11 73 51v242c0 49 -5 74 -18 94c-16 24 -42 37 -77 37c-38 0 -71 -16 -92 -45
c-15 -21 -21 -45 -21 -90v-238c0 -40 12 -48 71 -51v-17c-48 5 -71 6 -102 6c-30 0 -54 -1 -103 -6v17c60 3 72 11 72 51v478h-72v33h72v15c0 40 -10 47 -71 47v14c49 5 96 13 133 23v-99z" />
    <glyph glyph-name="tcommaaccent" unicode="&#x163;" horiz-adv-x="299" 
d="M169 -230h-47c33 29 55 63 59 93h-4c-5 -2 -7 -2 -13 -2c-23 0 -39 17 -39 41c0 25 19 43 47 43c31 0 49 -21 49 -56c0 -37 -18 -79 -52 -119zM286 44v-26c-32 -19 -59 -27 -90 -27c-72 0 -104 40 -104 129l1 40l3 276h-67v29c61 2 90 42 108 148h21v-141h122v-36h-122
v-289c0 -91 15 -120 63 -120c19 0 37 5 65 17z" />
    <glyph glyph-name="amacron" unicode="&#x101;" horiz-adv-x="452" 
d="M430 25v-26c-18 -3 -38 -5 -49 -5c-44 0 -63 24 -69 84c-36 -65 -69 -86 -133 -86c-81 0 -137 53 -137 128c0 61 36 104 114 137c47 20 88 30 146 38v56c0 40 -5 60 -17 76c-15 18 -39 28 -69 28c-35 0 -68 -14 -83 -34c-7 -10 -7 -13 -7 -44c0 -30 -11 -43 -36 -43
c-18 0 -28 10 -28 29c0 63 73 117 157 117c53 0 100 -21 124 -56c15 -21 21 -48 21 -89v-215c0 -74 10 -98 41 -98c7 0 13 1 25 3zM302 186v84c-134 -23 -196 -70 -196 -149c0 -56 33 -90 88 -90c76 0 108 46 108 155zM74 596v46h290v-46h-290z" />
    <glyph glyph-name="ycircumflex" unicode="&#x177;" horiz-adv-x="486" 
d="M228 17l-147 402c-11 32 -20 37 -74 39v17c41 -4 64 -5 93 -5s51 1 92 5v-17c-38 -2 -52 -8 -52 -21c0 -5 0 -5 7 -26l113 -309l116 308c5 15 6 18 6 25c0 16 -13 21 -58 23v17c28 -3 42 -4 72 -4c31 0 51 1 88 4v-17c-51 -5 -64 -13 -74 -40l-187 -501
c-31 -83 -71 -113 -147 -111v48c64 1 97 25 123 90zM102 558l119 139h63l119 -139h-48l-102 92l-103 -92h-48z" />
    <glyph glyph-name="emacron" unicode="&#x113;" horiz-adv-x="450" 
d="M367 155h40c-4 -39 -15 -72 -35 -101c-30 -44 -71 -64 -133 -64c-127 0 -197 86 -197 242c0 155 72 251 189 251c114 0 176 -81 175 -231h-302c0 -158 44 -231 136 -231c72 0 116 46 127 134zM107 288h237c-6 113 -45 170 -114 170c-67 0 -111 -60 -123 -170zM86 596v46
h290v-46h-290z" />
    <glyph glyph-name="gcircumflex" unicode="&#x11d;" horiz-adv-x="488" 
d="M346 455h132v-36l-99 4c16 -28 23 -51 23 -82c0 -57 -29 -104 -79 -130c-26 -14 -33 -16 -120 -43c-55 -17 -71 -27 -71 -45c0 -23 14 -28 87 -33c88 -7 116 -11 148 -23c54 -21 83 -59 83 -110c0 -90 -85 -152 -210 -152c-123 0 -209 59 -209 144c0 52 33 87 106 111
c-38 12 -54 28 -54 53c0 36 33 58 112 76c-80 21 -122 71 -122 145c0 91 65 146 172 146c42 0 70 -7 101 -25zM239 456c-65 0 -105 -46 -105 -121s40 -123 103 -123s104 48 104 123c0 77 -37 121 -102 121zM239 30c-102 0 -170 -38 -170 -94c0 -58 73 -103 168 -103
c100 0 165 41 165 105c0 58 -60 92 -163 92zM100 558l119 139h63l119 -139h-48l-103 92l-102 -92h-48z" />
    <glyph glyph-name="ibreve" unicode="&#x12d;" horiz-adv-x="263" 
d="M165 489v-424c0 -40 12 -48 72 -51v-17c-49 5 -72 6 -103 6c-30 0 -54 -1 -103 -6v17c60 3 72 11 72 51v333c0 48 -6 53 -71 54v14c50 4 95 12 133 23zM220 691h32c-8 -82 -58 -135 -127 -135c-70 0 -119 51 -127 135h32c9 -44 52 -79 95 -79s85 35 95 79z" />
    <glyph glyph-name="imacron" unicode="&#x12b;" horiz-adv-x="263" 
d="M164 489v-424c0 -40 12 -48 72 -51v-17c-49 5 -72 6 -103 6c-30 0 -54 -1 -102 -6v17c59 3 71 11 71 51v333c0 48 -6 53 -70 54v14c48 4 94 12 132 23zM15 596v46h224v-46h-224z" />
    <glyph glyph-name="kcommaaccent" unicode="&#x137;" horiz-adv-x="510" 
d="M157 231l175 182c12 12 14 15 14 23c0 14 -16 21 -52 22v17c40 -4 61 -5 89 -5c27 0 49 1 88 5v-17c-50 -4 -64 -10 -96 -44l-103 -106l147 -246c23 -39 35 -46 88 -48v-17c-44 5 -67 6 -93 6s-48 -1 -93 -6v17c32 1 42 5 42 17c0 6 -2 11 -9 23l-124 214l-73 -74v-129
c0 -40 12 -48 71 -51v-17c-48 5 -71 6 -102 6c-30 0 -54 -1 -103 -6v17c60 3 72 11 72 51v519c0 48 -7 54 -71 54v14c48 5 96 13 133 23v-444zM248 -230h-46c33 29 55 64 59 93h-4c-5 -2 -7 -2 -14 -2c-23 0 -38 16 -38 41c0 26 18 43 47 43c30 0 49 -22 49 -56
c0 -35 -19 -79 -53 -119z" />
    <glyph glyph-name="lcommaaccent" unicode="&#x13c;" horiz-adv-x="260" 
d="M165 675v-610c0 -40 12 -48 71 -51v-17c-48 5 -71 6 -102 6c-30 0 -54 -1 -103 -6v17c60 3 72 11 72 51v519c0 48 -7 54 -71 54v14c49 5 96 13 133 23zM131 -230h-47c34 29 55 63 59 93h-4c-5 -2 -7 -2 -13 -2c-23 0 -39 17 -39 41c0 25 20 43 47 43c31 0 49 -21 49 -55
c0 -38 -18 -80 -52 -120z" />
    <glyph glyph-name="ncommaaccent" unicode="&#x146;" horiz-adv-x="530" 
d="M33 448v14c47 7 86 16 120 30c4 -26 5 -39 7 -89c36 54 75 77 131 77c52 0 97 -24 122 -65c15 -24 22 -59 22 -106v-244c0 -40 12 -48 72 -51v-17c-49 5 -73 6 -104 6s-55 -1 -103 -6v17c60 2 73 11 73 51v242c0 49 -5 74 -18 94c-16 24 -42 37 -77 37
c-38 0 -71 -16 -92 -45c-15 -21 -21 -45 -21 -90v-238c0 -40 12 -48 71 -51v-17c-48 5 -71 6 -102 6s-54 -1 -103 -6v17c60 3 72 11 72 51v324c0 57 0 57 -70 59zM266 -230h-47c34 29 55 64 59 93h-3c-6 -2 -8 -2 -14 -2c-24 0 -38 15 -38 41s18 43 46 43
c31 0 49 -21 49 -56c0 -38 -17 -78 -52 -119z" />
    <glyph glyph-name="omacron" unicode="&#x14d;" horiz-adv-x="456" 
d="M231 480c110 0 182 -97 182 -246c0 -143 -76 -242 -186 -242c-111 0 -185 98 -185 243c0 146 76 245 189 245zM230 455c-79 0 -121 -77 -121 -220c0 -145 39 -218 117 -218s120 75 120 216c0 149 -38 222 -116 222zM82 596v46h291v-46h-291z" />
    <glyph glyph-name="rcommaaccent" unicode="&#x157;" horiz-adv-x="360" 
d="M33 452v14c45 4 87 13 120 23c4 -35 5 -45 6 -57c0 -9 1 -17 2 -41c17 57 60 92 113 92c49 0 83 -31 83 -75c0 -28 -15 -47 -38 -47c-21 0 -37 15 -37 33c0 5 0 6 3 18c1 3 1 6 1 7c0 14 -13 24 -32 24c-54 0 -89 -69 -89 -177v-201c0 -40 12 -48 71 -51v-17
c-48 5 -71 6 -102 6s-54 -1 -103 -6v17c60 3 72 11 72 51v324c0 60 -1 61 -70 63zM132 -230h-47c33 29 55 64 59 93h-4c-5 -2 -7 -2 -13 -2c-24 0 -39 16 -39 41c0 26 19 43 47 43c30 0 49 -21 49 -56c0 -36 -19 -79 -52 -119z" />
    <glyph glyph-name="ubreve" unicode="&#x16d;" horiz-adv-x="519" 
d="M17 452v14c50 5 93 12 133 23v-330c0 -90 26 -124 97 -124c77 0 112 44 112 142v221c0 48 -6 53 -71 54v14c50 5 94 12 133 23v-411c0 -45 5 -48 74 -49v-14c-50 -4 -89 -12 -125 -23l-4 91c-33 -65 -71 -91 -134 -91c-53 0 -97 21 -121 58c-16 24 -23 58 -23 108v240
c0 48 -6 53 -71 54zM353 698h32c-9 -86 -60 -141 -132 -141s-124 55 -132 141h32c12 -52 51 -85 100 -85s88 33 100 85z" />
    <glyph glyph-name="umacron" unicode="&#x16b;" horiz-adv-x="519" 
d="M17 452v14c50 5 93 12 133 23v-330c0 -90 26 -124 97 -124c77 0 112 44 112 142v221c0 48 -6 53 -71 54v14c50 5 94 12 133 23v-411c0 -45 5 -48 74 -49v-14c-50 -4 -89 -12 -125 -23c-2 17 -3 37 -4 91c-33 -65 -71 -91 -134 -91c-53 0 -97 21 -121 58
c-16 24 -23 58 -23 108v240c0 48 -6 53 -71 54zM107 596v46h291v-46h-291z" />
    <glyph glyph-name="uogonek" unicode="&#x173;" horiz-adv-x="519" 
d="M516 -117v-29c-22 -8 -39 -12 -54 -12c-47 0 -86 33 -86 72c0 37 24 69 74 97c-31 -5 -44 -8 -80 -19c-2 17 -3 37 -4 91c-33 -65 -71 -91 -134 -91c-53 0 -97 21 -121 58c-16 24 -23 58 -23 108v240c0 48 -6 53 -71 54v14c50 5 93 12 133 23v-330c0 -90 26 -124 97 -124
c77 0 112 44 112 142v221c0 48 -6 53 -71 54v14c50 5 94 12 133 23v-411c0 -45 5 -48 74 -49v-14c-31 -11 -60 -52 -60 -86c0 -29 24 -51 53 -51c5 0 17 2 28 5z" />
    <glyph glyph-name="rcaron" unicode="&#x159;" horiz-adv-x="360" 
d="M33 452v14c45 4 87 13 120 23c4 -35 5 -45 6 -57c0 -9 1 -17 2 -41c17 57 60 92 113 92c49 0 83 -31 83 -75c0 -28 -15 -47 -38 -47c-21 0 -37 15 -37 33c0 5 0 6 3 18c1 3 1 6 1 7c0 14 -13 24 -32 24c-54 0 -89 -69 -89 -177v-201c0 -40 12 -48 71 -51v-17
c-48 5 -71 6 -102 6s-54 -1 -103 -6v17c60 3 72 11 72 51v324c0 60 -1 61 -70 63zM351 697l-119 -139h-63l-118 139h47l103 -92l103 92h47z" />
    <glyph glyph-name="scedilla" unicode="&#x15f;" horiz-adv-x="417" 
d="M226 -8l-26 -54c57 -7 84 -28 84 -67c0 -44 -36 -73 -92 -73c-28 0 -44 3 -72 15v29c29 -8 34 -9 51 -9c34 0 54 16 54 44c0 29 -22 41 -78 45l38 71c-51 11 -67 17 -95 37l-22 -40h-17v162h19c8 -34 13 -51 24 -70c20 -38 63 -63 110 -63c62 0 110 42 110 96
c0 33 -15 53 -56 73c-9 5 -9 5 -100 43c-76 31 -97 57 -97 118c0 78 59 131 144 131c37 0 63 -8 98 -29l14 37h17v-151h-19c-9 81 -43 118 -106 118c-56 0 -98 -38 -98 -88c0 -33 15 -53 55 -73c15 -7 20 -9 98 -40c77 -32 102 -61 102 -121c0 -76 -54 -131 -140 -141z" />
    <glyph glyph-name="gcommaaccent" unicode="&#x123;" horiz-adv-x="488" 
d="M346 455h132v-36l-99 4c16 -28 23 -51 23 -82c0 -57 -29 -104 -79 -130c-26 -14 -33 -16 -120 -43c-55 -17 -71 -27 -71 -45c0 -23 14 -28 87 -33c88 -7 116 -11 148 -23c54 -21 83 -59 83 -110c0 -90 -85 -152 -210 -152c-123 0 -209 59 -209 144c0 52 33 87 106 111
c-38 12 -54 28 -54 53c0 36 33 58 112 76c-80 21 -122 71 -122 145c0 91 65 146 172 146c42 0 70 -7 101 -25zM239 456c-65 0 -105 -46 -105 -121s40 -123 103 -123s104 48 104 123c0 77 -37 121 -102 121zM239 30c-102 0 -170 -38 -170 -94c0 -58 73 -103 168 -103
c100 0 165 41 165 105c0 58 -60 92 -163 92zM254 730h47c-34 -29 -56 -64 -59 -93h3c6 2 8 2 14 2c23 0 38 -16 38 -41c0 -26 -18 -43 -46 -43c-31 0 -49 20 -49 56c0 38 17 78 52 119z" />
    <glyph glyph-name="Euro" unicode="&#x20ac;" horiz-adv-x="516" 
d="M387 267h-219c2 -32 9 -71 18 -104c24 -93 75 -140 152 -140c65 0 115 33 159 102v-65c-49 -51 -99 -72 -168 -72c-136 0 -220 100 -234 279h-101l24 38h75c0 31 0 37 2 62h-83l24 38h64c24 164 107 259 227 259c51 0 88 -16 120 -52l34 49h15v-196h-20
c-23 118 -64 167 -141 167c-69 0 -117 -43 -147 -131c-10 -29 -17 -61 -20 -96h282l-18 -38h-267v-10v-52h239z" />
    <glyph glyph-name="peseta" unicode="&#x20a7;" horiz-adv-x="922" 
d="M183 307v-225c0 -52 9 -59 81 -65v-20c-61 6 -86 8 -114 8c-29 0 -54 -2 -116 -8v20c72 6 82 13 82 65v500c0 52 -10 59 -82 65v20h252c68 0 109 -10 144 -36c43 -32 70 -89 70 -147s-26 -108 -71 -141c-36 -25 -76 -36 -134 -36h-112zM183 335h93c47 0 79 9 104 28
c33 26 53 74 53 127c0 45 -15 88 -40 114c-23 25 -55 35 -109 35h-101v-304zM634 34v-22c-23 -12 -39 -17 -56 -17c-27 0 -50 15 -60 39c-6 13 -8 32 -8 59v162h-42v24c40 0 57 22 68 87h19v-83h75v-28h-75v-166c0 -50 9 -67 35 -67c11 0 24 4 44 12zM683 -6v102h18
c13 -56 36 -78 80 -78c37 0 65 23 65 53c0 18 -9 28 -33 40c-7 3 -7 3 -62 24c-48 19 -62 36 -62 73c0 47 39 81 93 81c20 0 40 -6 59 -16l8 20h16v-96h-18c-3 22 -5 32 -11 42c-10 17 -31 29 -52 29c-31 0 -57 -22 -57 -50c0 -18 8 -28 32 -40c8 -3 11 -4 60 -23
s66 -37 66 -73c0 -50 -43 -87 -101 -87c-26 0 -53 8 -72 21l-13 -22h-16z" />
    <glyph glyph-name="lira" unicode="&#x20a4;" horiz-adv-x="516" 
d="M209 403h118v-36h-123l-6 -49h129v-36h-133l-12 -92c-9 -69 -28 -117 -65 -166c32 21 64 31 96 31c18 0 27 -1 63 -10c25 -6 38 -8 57 -8c47 0 74 31 83 95h36c-8 -46 -19 -75 -39 -99c-22 -27 -45 -33 -114 -33h-235c27 31 40 69 49 144l17 138h-66v36h71l5 49h-76v36
h81l6 47c18 151 80 228 183 228c66 0 102 -36 112 -110h-37c-8 56 -31 79 -75 79c-41 0 -74 -24 -93 -67c-10 -22 -16 -52 -23 -102z" />
    <glyph glyph-name="uniEA71" unicode="&#xea71;" horiz-adv-x="516" 
d="M113 463h-80v36h80v71c0 51 -9 58 -80 64v19h246c92 0 142 -21 178 -74c17 -25 26 -49 30 -80h50v-36h-49c-7 -102 -80 -162 -200 -162h-110v-221c0 -50 10 -58 80 -64v-19c-62 6 -86 8 -113 8s-51 -2 -112 -8v19c70 6 80 14 80 64v383zM178 463v-135h92
c95 0 144 43 152 135h-244zM178 499h244c-10 90 -52 127 -145 127h-99v-127z" />
    <glyph glyph-name="franc" unicode="&#x20a3;" horiz-adv-x="691" 
d="M189 333v-251c0 -37 4 -46 24 -55c13 -6 23 -7 57 -10v-20c-61 6 -86 8 -114 8c-29 0 -54 -2 -116 -8v20c72 6 82 14 82 65v500c0 51 -10 59 -82 65v20h419l14 -141h-19c-25 92 -46 113 -112 113h-153v-278h155c44 0 55 15 58 82h20v-193h-20c-2 62 -17 83 -58 83h-155z
M477 263v14c34 5 57 10 81 19c3 -19 3 -23 4 -37c20 23 38 33 59 33c29 0 54 -22 54 -47c0 -16 -10 -26 -25 -26c-14 0 -23 8 -23 20c0 2 0 4 1 7v5c0 7 -8 12 -18 13c-13 1 -30 -12 -37 -27c-4 -10 -7 -29 -7 -45v-150c0 -22 5 -25 44 -27v-17c-34 3 -49 4 -66 4
c-18 0 -33 -1 -68 -4v17c40 2 45 5 45 27v189c0 17 -1 24 -3 27c-3 3 -10 4 -41 5z" />
    <glyph glyph-name="one.fitted" horiz-adv-x="307" 
d="M191 685v-603c0 -51 10 -59 82 -65v-20c-45 5 -64 6 -114 6s-69 -1 -114 -6v20c72 6 82 13 82 65v470h-113v20c80 5 139 48 153 113h24z" />
    <glyph glyph-name="two.fitted" horiz-adv-x="443" 
d="M398 54l-6 -54h-363v40c69 85 131 164 176 227c96 135 123 187 123 240c0 65 -46 109 -111 109c-51 0 -95 -24 -119 -64c-14 -25 -19 -44 -25 -85h-27c5 67 15 101 38 131c31 40 82 63 144 63c98 0 169 -62 169 -148c0 -63 -25 -109 -134 -247
c-116 -147 -116 -147 -169 -212h304z" />
    <glyph glyph-name="three.fitted" horiz-adv-x="476" 
d="M40 185h30c2 -39 5 -56 14 -79c19 -49 64 -76 126 -76c90 0 145 58 145 153c0 71 -27 119 -78 139c-23 9 -47 13 -95 14v33h9h15c71 0 125 59 125 137c0 73 -42 117 -113 117c-45 0 -87 -21 -110 -56c-14 -21 -20 -39 -27 -75h-25c11 112 71 170 176 170
c97 0 166 -64 166 -155c0 -74 -43 -125 -126 -149c104 -26 153 -81 153 -172c0 -114 -84 -194 -201 -194c-120 0 -181 64 -184 193z" />
    <glyph glyph-name="four.fitted" horiz-adv-x="474" 
d="M274 0v198h-274l281 487h57v-435h111v-52h-111v-198h-64zM274 250l2 379l-214 -379h212z" />
    <glyph glyph-name="five.fitted" horiz-adv-x="471" 
d="M383 596h-244l-36 -201c34 37 70 52 124 52c116 0 194 -88 194 -221c0 -61 -19 -118 -54 -162c-38 -49 -88 -72 -154 -72c-100 0 -153 51 -162 156h28c9 -79 49 -118 121 -118c90 0 152 79 152 195c0 112 -55 183 -141 183c-59 0 -97 -23 -126 -76h-24l56 321h272z" />
    <glyph glyph-name="six.fitted" horiz-adv-x="476" 
d="M349 699h48c-87 -81 -169 -179 -218 -259c28 8 44 11 64 11c112 0 191 -93 191 -227c0 -138 -79 -232 -196 -232c-121 0 -201 91 -201 228c0 104 46 198 160 327c37 41 64 70 111 114c22 21 36 33 41 38zM236 423c-83 0 -128 -69 -128 -198c0 -135 43 -205 126 -205
s127 71 127 203c0 128 -45 200 -125 200z" />
    <glyph glyph-name="seven.fitted" horiz-adv-x="372" 
d="M29 0l291 592h-333v61h399l-296 -653h-61z" />
    <glyph glyph-name="eight.fitted" horiz-adv-x="476" 
d="M311 341c76 -23 115 -77 115 -159c0 -113 -77 -190 -190 -190c-114 0 -185 72 -185 188c0 80 35 129 114 161c-67 29 -98 75 -98 146c0 103 72 174 176 174c101 0 166 -66 166 -170c0 -71 -31 -119 -98 -150zM240 327c-72 0 -122 -61 -122 -150c0 -96 46 -157 119 -157
s122 63 122 156c0 91 -47 151 -119 151zM242 633c-67 0 -108 -53 -108 -137c0 -90 37 -141 103 -141c65 0 105 53 105 140c0 89 -36 138 -100 138z" />
    <glyph glyph-name="nine.fitted" horiz-adv-x="452" 
d="M130 -47h-49c84 84 157 177 204 261c-26 -8 -44 -12 -62 -12c-106 0 -181 94 -181 229c0 138 74 230 183 230c114 0 190 -92 190 -230c0 -137 -73 -259 -285 -478zM228 633c-76 0 -117 -69 -117 -197c0 -131 43 -206 118 -206c77 0 119 69 119 194
c0 136 -42 209 -120 209z" />
    <glyph glyph-name="zero.fitted" horiz-adv-x="505" 
d="M255 661c63 0 115 -30 145 -83c35 -63 55 -154 55 -252c0 -86 -16 -169 -44 -231c-31 -67 -86 -103 -158 -103c-129 0 -202 122 -202 336c0 98 21 190 57 250c33 54 84 83 147 83zM251 633c-83 0 -131 -111 -131 -306c0 -197 49 -307 136 -307c83 0 130 111 130 307
c0 194 -49 306 -135 306z" />
    <glyph glyph-name="sterling.fitted" horiz-adv-x="461" 
d="M192 357h124v-29h-128l-17 -138c-9 -69 -28 -117 -65 -166c32 21 64 31 96 31c18 0 27 -1 63 -10c25 -6 38 -8 57 -8c47 0 74 31 83 95h36c-8 -46 -19 -75 -39 -99c-22 -27 -45 -33 -114 -33h-235c27 31 40 69 49 144l22 184h-71v29h75l12 94c18 149 81 227 183 227
c66 0 102 -36 112 -110h-37c-8 56 -31 79 -75 79c-41 0 -74 -24 -93 -67c-10 -22 -17 -54 -23 -102z" />
    <glyph glyph-name="dollar.fitted" horiz-adv-x="510" 
d="M238 17v296c-61 26 -68 29 -88 39c-64 35 -90 78 -90 149c0 99 71 169 178 176v79h31v-79c44 -3 79 -19 111 -51l31 52h11v-175h-17c-23 94 -64 138 -136 146v-276c70 -29 81 -34 103 -48c59 -35 87 -83 87 -150c0 -102 -77 -178 -190 -185v-79h-31v79
c-52 2 -99 22 -137 57l-39 -59h-11v207h18c17 -110 76 -172 169 -178zM269 301v-284c85 9 132 58 132 138c0 56 -22 92 -76 120c-12 7 -22 12 -56 26zM238 386v263c-73 -8 -122 -61 -122 -133c0 -37 13 -67 39 -88c12 -11 34 -22 76 -40z" />
    <glyph glyph-name="cent.fitted" horiz-adv-x="441" 
d="M253 551v-431c52 8 87 57 96 131h36c-6 -88 -59 -152 -132 -161v-75h-31v74c-104 12 -171 107 -171 244c0 138 66 232 171 244v74h31v-74c32 -4 56 -15 80 -41l25 50h17v-155h-19c-15 73 -49 113 -103 120zM222 120v431c-70 -14 -104 -84 -104 -215
c0 -139 31 -203 104 -216z" />
    <glyph glyph-name="florin.fitted" horiz-adv-x="483" 
d="M399 472v-36h-107l-62 -348c-13 -79 -30 -131 -51 -160c-26 -36 -62 -55 -107 -55c-57 0 -97 32 -97 77c0 23 15 40 37 40c17 0 31 -13 31 -28c0 -3 -1 -9 -5 -20c-3 -9 -3 -11 -3 -16c0 -14 15 -25 35 -25c48 0 72 37 91 143l70 392h-70v29h16c53 0 57 3 69 63
c14 66 20 86 35 112c26 43 73 69 126 69c51 0 85 -29 85 -72c0 -26 -11 -39 -33 -39c-21 0 -34 11 -34 27c0 5 1 11 5 25c1 3 1 5 1 10c0 12 -12 21 -29 21c-45 0 -73 -34 -85 -105l-19 -104h101z" />
    <glyph glyph-name="one.numerator" horiz-adv-x="236" 
d="M138 666v-244c0 -19 3 -21 35 -23v-15c-29 2 -40 3 -52 3s-23 -1 -52 -3v15c32 2 35 4 35 23v184h-48v15c36 1 61 18 66 45h16z" />
    <glyph glyph-name="two.numerator" horiz-adv-x="236" 
d="M197 414l-3 -28h-161v20c25 28 54 64 75 92c41 53 52 73 52 93c0 25 -17 40 -44 40c-35 0 -53 -18 -58 -59h-18c5 58 30 84 81 84c44 0 75 -26 75 -62c0 -26 -11 -45 -58 -101c-55 -66 -55 -66 -67 -79h126z" />
    <glyph glyph-name="three.numerator" horiz-adv-x="236" 
d="M30 466h20c2 -45 18 -62 56 -62c36 0 59 22 59 57c0 27 -12 46 -32 54c-9 3 -19 4 -42 5v19h6c35 0 57 20 57 51c0 28 -16 44 -44 44c-32 0 -49 -16 -56 -52h-17c5 50 30 74 79 74c44 0 73 -25 73 -65c0 -28 -13 -45 -44 -59c39 -13 56 -35 56 -69c0 -47 -37 -81 -89 -81
c-54 0 -80 27 -82 84z" />
    <glyph glyph-name="four.numerator" horiz-adv-x="236" 
d="M137 378v78h-120l124 203h31v-174h47v-29h-47v-78h-35zM137 485v133l-80 -133h80z" />
    <glyph glyph-name="five.numerator" horiz-adv-x="236" 
d="M184 624h-104l-13 -68c16 11 28 15 48 15c51 0 85 -37 85 -92c0 -57 -38 -97 -92 -97c-45 0 -69 24 -72 69h19c4 -33 18 -47 48 -47c37 0 61 29 61 74c0 43 -22 71 -56 71c-24 0 -40 -10 -52 -31h-16l25 135h122z" />
    <glyph glyph-name="six.numerator" horiz-adv-x="236" 
d="M163 671h31c-38 -32 -60 -56 -94 -101c9 2 10 2 20 2c50 0 84 -37 84 -94s-35 -96 -86 -96c-53 0 -89 38 -89 95c0 42 20 81 69 133c19 20 50 49 65 61zM117 554c-34 0 -51 -25 -51 -75c0 -53 17 -79 50 -79c34 0 50 25 50 78c0 51 -16 76 -49 76z" />
    <glyph glyph-name="seven.numerator" horiz-adv-x="236" 
d="M46 385l123 237h-139v31h178l-129 -268h-33z" />
    <glyph glyph-name="eight.numerator" horiz-adv-x="236" 
d="M158 526c30 -14 43 -33 43 -65c0 -46 -34 -79 -84 -79s-82 31 -82 79c0 31 9 45 43 64c-28 18 -36 31 -36 58c0 44 31 73 78 73c45 0 74 -28 74 -70c0 -28 -8 -41 -36 -60zM119 516c-29 0 -49 -23 -49 -56c0 -37 19 -60 47 -60c29 0 49 24 49 59s-19 57 -47 57zM119 638
c-26 0 -42 -19 -42 -51c0 -34 14 -53 40 -53s42 20 42 53s-14 51 -40 51z" />
    <glyph glyph-name="nine.numerator" horiz-adv-x="236" 
d="M79 366h-30c44 43 53 54 87 102c-8 -2 -10 -2 -19 -2c-47 0 -80 39 -80 95c0 57 32 95 81 95c51 0 84 -38 84 -95c0 -58 -27 -101 -123 -195zM119 638c-30 0 -46 -26 -46 -75c0 -51 16 -79 47 -79s47 25 47 74c0 53 -16 80 -48 80z" />
    <glyph glyph-name="zero.numerator" horiz-adv-x="236" 
d="M119 656c56 0 88 -49 88 -137c0 -87 -32 -137 -89 -137c-56 0 -89 50 -89 138c0 85 34 136 90 136zM118 638c-34 0 -53 -42 -53 -118c0 -77 20 -120 54 -120s52 42 52 119s-19 119 -53 119z" />
    <glyph glyph-name="one.denominator" horiz-adv-x="236" 
d="M138 281v-245c0 -18 4 -20 35 -23v-14c-22 2 -31 2 -52 2s-30 0 -52 -2v14c32 3 35 5 35 23v185h-48v14c37 2 60 19 66 46h16z" />
    <glyph glyph-name="two.denominator" horiz-adv-x="236" 
d="M197 28l-3 -28h-161v20c23 26 55 65 75 92c41 53 52 74 52 94c0 24 -19 41 -44 41c-33 0 -53 -20 -58 -60h-18c5 57 31 84 81 84c43 0 75 -26 75 -62c0 -27 -10 -45 -58 -102c-57 -68 -57 -68 -67 -79h126z" />
    <glyph glyph-name="three.denominator" horiz-adv-x="236" 
d="M30 81h20c2 -45 18 -62 56 -62c36 0 59 22 59 58c0 26 -12 45 -32 53c-9 3 -18 4 -42 5v19h6c35 0 57 20 57 51c0 28 -16 44 -44 44c-32 0 -49 -16 -56 -52h-17c5 50 30 74 79 74c44 0 73 -26 73 -65c0 -28 -13 -45 -44 -59c38 -13 56 -35 56 -69c0 -48 -37 -81 -89 -81
c-54 0 -80 26 -82 84z" />
    <glyph glyph-name="four.denominator" horiz-adv-x="236" 
d="M137 -7v79h-120l124 203h31v-174h47v-29h-47v-79h-35zM137 101v133l-80 -133h80z" />
    <glyph glyph-name="five.denominator" horiz-adv-x="236" 
d="M184 239h-104l-13 -68c16 11 28 15 48 15c51 0 85 -37 85 -92c0 -57 -37 -97 -92 -97c-45 0 -69 24 -72 69h19c4 -33 18 -47 48 -47c37 0 61 29 61 74c0 43 -22 71 -56 71c-24 0 -40 -10 -52 -31h-16l25 135h122z" />
    <glyph glyph-name="six.denominator" horiz-adv-x="236" 
d="M163 286h31c-46 -41 -57 -53 -94 -101c9 1 14 2 20 2c50 0 84 -38 84 -94c0 -58 -34 -96 -86 -96c-54 0 -89 38 -89 94c0 59 28 99 134 195zM117 169c-34 0 -51 -26 -51 -76c0 -52 16 -78 50 -78s50 24 50 77c0 51 -16 77 -49 77z" />
    <glyph glyph-name="seven.denominator" horiz-adv-x="236" 
d="M46 0l123 237h-139v31h178l-129 -268h-33z" />
    <glyph glyph-name="eight.denominator" horiz-adv-x="236" 
d="M158 140c30 -14 43 -33 43 -64c0 -47 -34 -79 -84 -79s-82 30 -82 78c0 32 9 46 43 65c-28 17 -36 30 -36 58c0 43 32 73 78 73c44 0 74 -28 74 -71c0 -28 -8 -41 -36 -60zM119 131c-29 0 -49 -24 -49 -57c0 -36 18 -59 47 -59c30 0 49 23 49 59c0 34 -19 57 -47 57z
M119 253c-26 0 -42 -19 -42 -51c0 -35 14 -53 40 -53s42 20 42 52c0 33 -14 52 -40 52z" />
    <glyph glyph-name="nine.denominator" horiz-adv-x="236" 
d="M79 -19h-30c8 8 22 23 28 28c18 18 32 36 59 74c-8 -2 -11 -2 -19 -2c-47 0 -80 39 -80 95s33 95 81 95c50 0 84 -38 84 -96c0 -57 -28 -100 -123 -194zM119 253c-30 0 -46 -26 -46 -75c0 -51 17 -79 47 -79c31 0 47 25 47 74c0 52 -16 80 -48 80z" />
    <glyph glyph-name="zero.denominator" horiz-adv-x="236" 
d="M119 271c56 0 88 -50 88 -137c0 -88 -32 -137 -89 -137s-89 50 -89 138c0 84 34 136 90 136zM118 253c-34 0 -53 -43 -53 -119s19 -119 54 -119c34 0 52 41 52 118s-19 120 -53 120z" />
    <glyph glyph-name="anoteleia" unicode="&#x387;" 
d="M109 293c27 0 48 -21 48 -48c0 -28 -21 -49 -48 -49s-49 22 -49 48c0 28 22 49 49 49z" />
    <glyph glyph-name="dotmath" unicode="&#x22c5;" 
d="M109 293c27 0 48 -21 48 -48c0 -28 -21 -49 -48 -49s-49 22 -49 48c0 28 22 49 49 49z" />
    <glyph glyph-name="afii57929" unicode="&#x2bc;" horiz-adv-x="240" 
d="M106 454h-49c40 37 81 105 82 138h-4c-6 -2 -9 -3 -14 -3c-23 0 -41 18 -41 43c0 26 21 46 50 46c32 0 52 -22 52 -57c0 -47 -29 -110 -76 -167z" />
    <glyph glyph-name="uni00AD" unicode="&#xad;" horiz-adv-x="253" 
d="M0 252v42h253v-42h-253z" />
    <glyph glyph-name="uni2011" unicode="&#x2011;" horiz-adv-x="253" 
d="M0 252v42h253v-42h-253z" />
    <glyph glyph-name="afii00208" unicode="&#x2015;" horiz-adv-x="560" 
d="M0 252v42h560v-42h-560z" />
    <glyph glyph-name="uni2101" unicode="&#x2101;" horiz-adv-x="825" 
d="M254 383h-146l-22 -66c-5 -13 -5 -14 -5 -19c0 -11 9 -14 42 -15v-19c-28 3 -42 4 -60 4s-32 -1 -60 -4v19c39 2 44 5 55 32l135 369l137 -371c9 -24 15 -27 57 -30v-19c-31 4 -48 5 -72 5s-41 -1 -72 -5v19c34 3 41 6 41 15c0 3 -1 6 -4 14zM117 406h129l-64 181zM299 0
l304 667h33l-304 -667h-33zM545 122h18c12 -70 47 -104 106 -104c53 0 85 29 85 77c0 43 -14 58 -84 86c-46 19 -57 24 -74 34c-30 17 -44 45 -44 84c0 63 47 106 117 106c31 0 54 -8 75 -27l16 29h16v-110h-18c-17 61 -41 85 -87 85s-78 -31 -78 -74c0 -25 11 -45 32 -56
c11 -6 13 -7 64 -28c43 -18 50 -22 67 -33c27 -19 41 -48 41 -84c0 -65 -53 -112 -126 -112c-34 0 -64 10 -90 31l-21 -33h-15v129z" />
    <glyph glyph-name="uni2236" unicode="&#x2236;" horiz-adv-x="258" 
d="M129 256c26 0 45 -20 45 -45c0 -27 -19 -46 -45 -46s-46 20 -46 45c0 26 20 46 46 46zM129 510c26 0 45 -19 45 -45s-20 -46 -45 -46c-26 0 -46 20 -46 46c0 25 20 45 46 45z" />
    <glyph glyph-name="uniEA31" unicode="&#xea31;" horiz-adv-x="500" 
d="M306 524h19c-2 -52 -28 -81 -75 -81c-55 0 -91 46 -91 115c0 68 36 112 92 112c22 0 36 -4 50 -16l11 15h11v-65h-13c-9 35 -26 51 -56 51c-41 0 -64 -36 -64 -98c0 -60 24 -97 63 -97c32 0 51 23 53 64zM250 764c116 0 209 -93 209 -207c0 -117 -93 -209 -211 -209
c-113 0 -206 94 -206 208c0 116 93 208 208 208zM250 738c-100 0 -182 -81 -182 -182c0 -99 82 -182 180 -182c103 0 185 81 185 183c0 99 -83 181 -183 181z" />
    <glyph glyph-name="uniEA32" unicode="&#xea32;" horiz-adv-x="500" 
d="M219 550v-74c0 -14 4 -16 28 -18v-13c-24 2 -33 3 -42 3c-10 0 -19 -1 -43 -3v13c24 2 28 4 28 18v160c0 14 -5 17 -28 18v13h91c44 0 73 -23 73 -59c0 -26 -16 -46 -47 -55c8 -6 12 -10 18 -24l25 -55c6 -13 9 -15 21 -15l7 -1v-13c-8 1 -8 1 -24 1c-15 0 -15 0 -21 -1
l-37 82c-9 19 -15 23 -38 23h-11zM219 566h29c31 0 49 16 49 44c0 26 -17 41 -47 41h-31v-85zM250 764c116 0 209 -93 209 -207c0 -117 -93 -209 -211 -209c-113 0 -206 94 -206 208c0 116 93 208 208 208zM250 738c-100 0 -182 -81 -182 -182c0 -99 82 -182 180 -182
c103 0 185 81 185 183c0 99 -83 181 -183 181z" />
    <glyph glyph-name="oneone" horiz-adv-x="716" 
d="M196 672v-359c0 -28 4 -31 50 -35v-18c-28 3 -35 3 -74 3c-38 0 -45 0 -74 -3v18c47 4 51 6 51 35v274h-70v18c52 3 87 28 96 67h21zM147 0l384 653h39l-385 -653h-38zM575 411v-359c0 -29 5 -32 50 -36v-18c-31 3 -45 4 -73 4c-29 0 -43 -1 -75 -4v18c46 4 51 7 51 36
v273h-70v18c52 3 88 28 96 68h21z" />
    <glyph glyph-name="onefifth" horiz-adv-x="716" 
d="M196 672v-359c0 -28 4 -31 50 -35v-18c-28 3 -35 3 -74 3c-38 0 -45 0 -74 -3v18c47 4 51 6 51 35v274h-70v18c52 3 87 28 96 67h21zM147 0l384 653h39l-385 -653h-38zM642 352h-151l-20 -106c23 18 44 25 72 25c73 0 123 -54 123 -134c0 -83 -55 -142 -132 -142
c-65 0 -99 32 -104 99h24c5 -48 28 -70 72 -70c54 0 90 45 90 112c0 66 -31 105 -84 105c-35 0 -58 -13 -75 -45h-22l37 196h175z" />
    <glyph glyph-name="twofifth" horiz-adv-x="716" 
d="M281 300l-4 -39h-232v28c44 52 83 100 110 135c59 80 75 109 75 140c0 36 -27 61 -65 61c-50 0 -78 -29 -86 -88h-24c4 43 10 64 25 83c19 24 53 38 92 38c62 0 108 -38 108 -91c0 -38 -16 -65 -84 -148c-75 -89 -75 -89 -100 -119h185zM146 0l385 653h38l-384 -653h-39z
M642 352h-152l-20 -106c23 18 44 25 73 25c73 0 122 -54 122 -134c0 -83 -54 -142 -132 -142c-65 0 -99 32 -104 99h24c5 -48 29 -70 72 -70c55 0 90 44 90 112c0 66 -31 105 -83 105c-36 0 -58 -13 -76 -45h-21l36 196h175z" />
    <glyph glyph-name="threefifth" horiz-adv-x="716" 
d="M42 377h25c1 -25 3 -35 9 -49c11 -27 38 -43 74 -43c54 0 87 33 87 87c0 63 -27 85 -107 87v26h10c50 0 83 31 83 78c0 40 -25 65 -67 65c-47 0 -72 -24 -83 -77h-22c8 72 45 107 113 107c63 0 107 -39 107 -95c0 -40 -20 -67 -68 -88c60 -20 84 -49 84 -101
c0 -69 -53 -118 -128 -118c-76 0 -116 41 -117 121zM147 0l384 653h38l-384 -653h-38zM642 352h-152l-19 -106c22 18 44 25 72 25c73 0 123 -55 123 -134c0 -82 -56 -142 -132 -142c-66 0 -100 32 -105 99h25c5 -48 28 -70 72 -70c54 0 90 45 90 112c0 65 -32 105 -84 105
c-35 0 -58 -13 -76 -45h-21l36 196h175z" />
    <glyph glyph-name="fourfifth" horiz-adv-x="716" 
d="M196 255v117h-172l178 295h42v-257h69v-38h-69v-117h-48zM197 410v205l-121 -205h121zM147 0l385 653h38l-385 -653h-38zM642 352h-151l-20 -106c23 18 44 25 72 25c73 0 123 -54 123 -134c0 -83 -55 -142 -132 -142c-65 0 -99 32 -104 99h24c5 -48 28 -70 72 -70
c54 0 90 45 90 112c0 66 -31 105 -84 105c-35 0 -58 -14 -75 -45h-22l37 196h175z" />
    <glyph glyph-name="onesixth" horiz-adv-x="716" 
d="M196 672v-359c0 -28 4 -31 50 -35v-18c-28 3 -35 3 -74 3c-38 0 -45 0 -74 -3v18c47 4 51 6 51 35v274h-70v18c52 3 87 28 96 67h21zM147 0l384 653h39l-385 -653h-38zM615 419h40c-57 -51 -102 -101 -136 -151c12 3 24 5 32 5c71 0 122 -57 122 -137
c0 -83 -52 -141 -125 -141c-76 0 -128 56 -128 138c0 63 29 119 100 195c17 18 48 48 95 91zM546 250c-48 0 -76 -42 -76 -114c0 -76 27 -118 76 -118c48 0 75 42 75 117c0 73 -28 115 -75 115z" />
    <glyph glyph-name="fivesixth" horiz-adv-x="716" 
d="M263 613h-152l-20 -106c23 18 44 25 72 25c74 0 123 -54 123 -134c0 -83 -55 -142 -132 -142c-65 0 -99 32 -104 99h24c5 -48 29 -70 72 -70c55 0 90 44 90 112c0 66 -31 105 -83 105c-36 0 -59 -13 -76 -45h-21l36 196h175zM147 0l384 653h38l-384 -653h-38zM615 419h40
c-58 -51 -103 -101 -137 -151c13 3 24 5 32 5c72 0 122 -57 122 -137c0 -84 -51 -141 -125 -141c-75 0 -128 56 -128 138c0 62 30 119 101 195c16 18 48 48 95 91zM546 250c-48 0 -77 -43 -77 -114c0 -75 28 -118 76 -118c49 0 75 41 75 117c0 74 -27 115 -74 115z" />
    <glyph glyph-name="uniEA72" unicode="&#xea72;" horiz-adv-x="236" 
d="M137 666v-244c0 -19 3 -21 35 -23v-15c-29 2 -40 3 -52 3s-24 -1 -51 -3v15c31 2 34 4 34 23v184h-47v15c35 1 60 18 65 45h16zM7 341h222v-30h-222v30zM197 28l-3 -28h-161v20c23 27 55 65 75 92c41 54 52 74 52 94c0 24 -19 41 -44 41c-33 0 -52 -20 -58 -60h-18
c4 57 31 84 81 84c43 0 75 -26 75 -62c0 -27 -10 -45 -58 -102c-58 -69 -58 -69 -67 -79h126z" />
    <glyph glyph-name="uniEA73" unicode="&#xea73;" horiz-adv-x="236" 
d="M138 666v-244c0 -19 3 -21 34 -23v-15c-27 2 -39 3 -51 3s-23 -1 -52 -3v15c32 2 35 4 35 23v184h-48v15c36 1 61 18 66 45h16zM7 341h222v-30h-222v30zM137 -7v79h-120l124 203h31v-174h47v-29h-47v-79h-35zM137 101v133l-80 -133h80z" />
    <glyph glyph-name="uniEA74" unicode="&#xea74;" horiz-adv-x="236" 
d="M30 466h20c2 -45 18 -62 56 -62c36 0 59 22 59 57c0 27 -12 46 -32 54c-9 3 -19 4 -42 5v19h6c35 0 57 20 57 51c0 28 -16 44 -44 44c-32 0 -49 -16 -56 -52h-17c5 50 30 74 79 74c44 0 73 -25 73 -65c0 -28 -13 -45 -44 -59c39 -13 56 -35 56 -69c0 -47 -37 -81 -89 -81
c-54 0 -80 27 -82 84zM7 341h222v-30h-222v30zM137 -7v79h-120l124 203h31v-174h47v-29h-47v-79h-35zM137 101v133l-80 -133h80z" />
    <glyph glyph-name="Dieresis" unicode="&#xf6cb;" horiz-adv-x="500" 
d="M163 846c27 0 50 -23 50 -51c0 -29 -22 -51 -51 -51s-51 22 -51 51c0 28 23 51 52 51zM338 846c28 0 51 -24 51 -51c0 -29 -22 -51 -51 -51s-51 22 -51 51c0 28 23 51 51 51z" />
    <glyph glyph-name="Dotaccent" horiz-adv-x="500" 
d="M251 846c27 0 50 -23 50 -51c0 -29 -22 -51 -51 -51s-51 22 -51 51c0 28 23 51 52 51z" />
    <glyph glyph-name="Ring" horiz-adv-x="500" 
d="M252 876c44 0 80 -37 80 -81c0 -45 -37 -82 -81 -82c-45 0 -82 37 -82 81c0 46 36 82 83 82zM251 844c-28 0 -50 -21 -50 -49s22 -50 49 -50c28 0 50 22 50 50c0 27 -22 49 -49 49z" />
    <glyph glyph-name="Acute" unicode="&#xf6c9;" horiz-adv-x="500" 
d="M219 725l141 139h87l-178 -139h-50z" />
    <glyph glyph-name="Grave" unicode="&#xf6ce;" horiz-adv-x="500" 
d="M319 725h-50l-178 139h88z" />
    <glyph glyph-name="Circumflex" horiz-adv-x="500" 
d="M86 731l127 128h74l128 -128h-51l-114 92l-113 -92h-51z" />
    <glyph glyph-name="Caron" unicode="&#xf6ca;" horiz-adv-x="500" 
d="M415 859l-128 -128h-74l-127 128h51l113 -92l114 92h51z" />
    <glyph glyph-name="Breve" horiz-adv-x="500" 
d="M351 860h32c-9 -81 -61 -133 -133 -133s-123 52 -132 133h32c12 -47 51 -77 100 -77s88 30 101 77z" />
    <glyph glyph-name="Tilde" horiz-adv-x="500" 
d="M119 748l-29 7c13 65 42 94 95 94c31 0 39 -4 91 -44c17 -13 30 -18 47 -18c32 0 53 19 59 53l27 -5c-8 -64 -41 -98 -94 -98c-29 0 -44 7 -84 39c-21 17 -35 23 -53 23c-30 0 -51 -19 -59 -51z" />
    <glyph glyph-name="Hungarumlaut" unicode="&#xf6cf;" horiz-adv-x="500" 
d="M154 725l113 139h82l-150 -139h-45zM302 725l113 139h82l-150 -139h-45z" />
    <glyph glyph-name="Cedilla" horiz-adv-x="500" 
d="M239 0h43l-30 -60c61 -6 88 -28 88 -72c0 -46 -38 -79 -91 -79c-27 0 -50 4 -78 15v32c27 -7 31 -8 50 -8c38 0 58 16 58 46c0 33 -20 44 -81 46z" />
    <glyph glyph-name="Ogonek" horiz-adv-x="500" 
d="M400 7l45 -7c-73 -22 -108 -49 -108 -83c0 -28 24 -48 59 -48c16 0 28 2 50 8v-31c-32 -11 -51 -15 -75 -15c-56 0 -97 33 -97 78c0 46 40 77 126 98z" />
    <glyph glyph-name="Macron" unicode="&#xf6d0;" horiz-adv-x="500" 
d="M94 771v47h313v-47h-313z" />
    <glyph glyph-name="commaaccent.cap" horiz-adv-x="500" 
d="M248 -230h-47c33 29 55 64 59 93h-4c-5 -2 -7 -2 -13 -2c-23 0 -39 16 -39 41s19 43 47 43c30 0 49 -21 49 -56c0 -37 -18 -79 -52 -119z" />
    <glyph glyph-name="uniEA67" unicode="&#xea67;" horiz-adv-x="500" 
d="M381 503h-47c33 29 55 64 59 94h-4c-5 -3 -7 -3 -13 -3c-23 0 -39 17 -39 41c0 26 19 43 47 43c31 0 49 -21 49 -56c0 -37 -18 -79 -52 -119z" />
    <glyph glyph-name="uniEA68" unicode="&#xea68;" horiz-adv-x="500" 
d="M174 846c27 0 50 -23 50 -51c0 -29 -22 -51 -51 -51s-51 22 -51 51c0 28 23 51 52 51zM327 846c27 0 51 -24 51 -51c0 -29 -23 -51 -51 -51c-30 0 -51 21 -51 51c0 29 22 51 51 51z" />
    <glyph glyph-name="uni02C9" unicode="&#x2c9;" horiz-adv-x="500" 
d="M105 596v46h290v-46h-290z" />
    <glyph glyph-name="commaaccent" unicode="&#xf6c3;" horiz-adv-x="500" 
d="M248 -230h-47c33 29 55 64 59 93h-4c-5 -2 -7 -2 -13 -2c-23 0 -39 16 -39 41s19 43 47 43c30 0 49 -21 49 -56c0 -37 -18 -79 -52 -119z" />
    <glyph glyph-name="uniEA3F" unicode="&#xea3f;" horiz-adv-x="500" 
d="M381 503h-47c33 29 55 64 59 94h-4c-5 -3 -8 -3 -13 -3c-23 0 -39 17 -39 41c0 26 19 43 47 43c31 0 49 -21 49 -56c0 -37 -18 -79 -52 -119z" />
    <glyph glyph-name="uniEA6A" unicode="&#xea6a;" horiz-adv-x="500" 
d="M182 661c25 0 45 -20 45 -46s-20 -46 -46 -46c-25 0 -46 21 -46 46c0 26 20 46 47 46zM320 661c25 0 46 -21 46 -46s-21 -46 -46 -46c-26 0 -46 20 -46 46c0 27 19 46 46 46z" />
    <glyph glyph-name="uniEA4F" unicode="&#xea4f;" horiz-adv-x="500" 
d="M253 730h47c-33 -29 -55 -64 -59 -93h3c6 2 8 2 14 2c23 0 39 -17 39 -41c0 -25 -19 -43 -47 -43c-31 0 -49 21 -49 56c0 37 18 78 52 119z" />
    <glyph glyph-name="ebreve" unicode="&#x115;" horiz-adv-x="450" 
d="M367 155h40c-4 -39 -15 -72 -35 -101c-30 -44 -71 -64 -133 -64c-127 0 -197 86 -197 242c0 155 72 251 189 251c114 0 176 -81 175 -231h-302c0 -158 44 -231 136 -231c72 0 116 46 127 134zM107 288h237c-6 113 -45 170 -114 170c-67 0 -111 -60 -123 -170zM332 698h32
c-9 -86 -60 -141 -133 -141c-72 0 -123 55 -132 141h32c12 -52 51 -85 100 -85c50 0 88 33 101 85z" />
    <glyph glyph-name="iogonek" unicode="&#x12f;" horiz-adv-x="263" 
d="M260 -117v-29c-23 -8 -40 -12 -56 -12c-51 0 -90 33 -90 75c0 31 14 48 60 74c6 3 12 7 17 10c-22 2 -31 2 -52 2c-34 0 -60 -1 -108 -6v17c60 3 72 11 72 51v333c0 48 -6 53 -71 54v14c50 4 95 12 133 23v-424c0 -40 12 -48 71 -51v-16c-33 -7 -63 -43 -63 -75
c0 -25 25 -45 56 -45c8 0 18 2 31 5zM137 660c27 0 47 -20 47 -47s-21 -47 -48 -47c-25 0 -46 21 -46 47c0 27 20 47 47 47z" />
    <glyph glyph-name="ldot" unicode="&#x140;" horiz-adv-x="360" 
d="M165 675v-610c0 -40 12 -48 71 -51v-17c-48 5 -71 6 -102 6c-30 0 -54 -1 -103 -6v17c60 3 72 11 72 51v519c0 48 -7 54 -71 54v14c49 5 96 13 133 23zM312 393c26 0 48 -22 48 -48c0 -27 -22 -49 -49 -49s-48 21 -48 48c0 28 21 49 49 49z" />
    <glyph glyph-name="utilde" unicode="&#x169;" horiz-adv-x="519" 
d="M17 452v14c50 5 93 12 133 23v-330c0 -90 26 -124 97 -124c77 0 112 44 112 142v221c0 48 -6 53 -71 54v14c50 5 94 12 133 23v-411c0 -45 5 -48 74 -49v-14c-50 -4 -89 -12 -125 -23c-2 44 -3 73 -4 91c-33 -65 -71 -91 -134 -91c-53 0 -97 21 -121 58
c-16 24 -23 58 -23 108v240c0 48 -6 53 -71 54zM131 581l-27 7c14 68 39 94 88 94c30 0 36 -3 86 -44c15 -13 27 -18 43 -18c30 0 48 19 54 54l26 -6c-8 -64 -38 -98 -88 -98c-26 0 -41 7 -78 39c-19 17 -32 23 -49 23c-28 0 -47 -18 -55 -51z" />
    <glyph glyph-name="uni01D4" unicode="&#x1d4;" horiz-adv-x="519" 
d="M17 452v14c50 5 93 12 133 23v-330c0 -90 26 -124 97 -124c77 0 112 44 112 142v221c0 48 -6 53 -71 54v14c50 5 94 12 133 23v-411c0 -45 5 -48 74 -49v-14c-50 -4 -89 -12 -125 -23c-2 17 -3 37 -4 91c-33 -65 -71 -91 -134 -91c-53 0 -97 21 -121 58
c-16 24 -23 58 -23 108v240c0 48 -6 53 -71 54zM403 697l-119 -139h-63l-119 139h48l103 -92l102 92h48z" />
    <glyph glyph-name="Ldot" unicode="&#x13f;" horiz-adv-x="488" 
d="M477 152l-19 -152h-424v20c72 6 82 14 82 65v500c0 51 -11 60 -82 65v20c63 -6 88 -8 116 -8c27 0 52 2 114 8v-20c-71 -5 -81 -13 -81 -65v-491c0 -27 2 -38 11 -46c10 -10 30 -16 59 -16h78c59 0 78 8 98 43c12 20 20 43 29 77h19zM386 393c27 0 48 -21 48 -48
c0 -28 -21 -49 -48 -49s-49 22 -49 48c0 28 22 49 49 49z" />
    <glyph glyph-name="Scommaaccent" unicode="&#x218;" horiz-adv-x="506" 
d="M59 195h19c21 -118 78 -175 177 -175c86 0 142 55 142 138c0 53 -19 83 -74 114c-13 7 -13 7 -113 57c-112 56 -140 90 -140 171c0 106 72 175 182 175c53 0 87 -13 124 -49l28 52h17v-175h-19c-27 101 -70 145 -146 145c-73 0 -131 -58 -131 -129c0 -41 19 -72 60 -97
c25 -15 26 -15 99 -52c74 -36 90 -45 117 -66c36 -28 54 -70 54 -125c0 -112 -78 -187 -195 -187c-61 0 -105 16 -150 55l-35 -59h-16v207zM251 -230h-47c34 29 55 64 59 93h-3c-6 -2 -8 -2 -14 -2c-23 0 -38 15 -38 41s18 43 46 43c31 0 49 -20 49 -56
c0 -38 -17 -78 -52 -119z" />
    <glyph glyph-name="Eng" unicode="&#x14a;" horiz-adv-x="627" 
d="M42 632v20c50 6 88 14 139 32c4 -20 9 -77 9 -114c44 75 92 108 159 108c63 0 120 -35 148 -91c16 -32 25 -85 25 -150v-459c0 -83 -12 -118 -52 -150c-28 -21 -63 -32 -107 -32c-5 0 -16 0 -27 1v24c34 0 49 2 65 7c43 16 54 41 54 120v486c0 68 -6 104 -22 132
c-20 34 -52 52 -96 52c-49 0 -90 -23 -115 -63c-19 -31 -26 -65 -26 -127v-346c0 -51 10 -59 81 -65v-20c-61 6 -86 8 -114 8c-29 0 -54 -2 -116 -8v20c73 6 82 13 82 65v467c0 80 -1 81 -87 83z" />
    <glyph glyph-name="Tbar" unicode="&#x166;" horiz-adv-x="508" 
d="M284 639v-216h140v-33h-140v-308c0 -39 3 -46 24 -54c15 -6 27 -9 58 -11v-20c-62 6 -87 8 -115 8c-29 0 -54 -2 -115 -8v20c30 2 43 5 57 11c21 8 24 15 24 54v308h-140v33h140v216h-62c-68 0 -86 -18 -117 -113h-20l25 141h420l26 -141h-20c-28 95 -46 113 -110 113
h-75z" />
    <glyph glyph-name="eng" unicode="&#x14b;" horiz-adv-x="531" 
d="M33 448v14c47 7 86 16 120 30c4 -26 5 -39 7 -89c36 54 75 77 131 77c52 0 97 -24 122 -65c15 -24 22 -59 22 -106v-297c0 -77 -15 -129 -49 -166c-31 -34 -70 -48 -137 -50v21c90 17 124 60 124 157v333c0 49 -5 74 -18 94c-16 24 -43 37 -77 37c-38 0 -71 -16 -92 -45
c-15 -21 -21 -45 -21 -90v-238c0 -40 12 -48 71 -51v-17c-48 5 -71 6 -102 6s-54 -1 -103 -6v17c60 3 72 11 72 51v324c0 57 0 57 -70 59z" />
    <glyph glyph-name="tbar" unicode="&#x167;" horiz-adv-x="299" 
d="M96 350v86h-67v29c61 2 91 42 109 148h21v-141h121v-36h-121v-86h121v-33h-121v-170c0 -91 15 -120 62 -120c20 0 37 4 65 17v-26c-33 -19 -59 -27 -90 -27c-33 0 -63 12 -80 34c-17 21 -23 46 -23 95v41l2 156h-66v33h67z" />
    <glyph glyph-name="kgreenlandic" unicode="&#x138;" horiz-adv-x="510" 
d="M157 231l175 182c12 12 14 16 14 22c0 14 -17 22 -52 23v17c39 -4 61 -5 88 -5c28 0 50 1 89 5v-17c-50 -4 -64 -10 -96 -44l-103 -106l147 -246c22 -39 35 -46 88 -48v-17c-30 3 -44 4 -60 4s-31 -1 -61 -4l-156 271l-73 -74v-129c0 -40 12 -48 71 -51v-17
c-48 5 -71 6 -102 6c-30 0 -54 -1 -103 -6v17c60 3 72 11 72 51v336c0 48 -6 53 -71 54v14c50 5 95 13 133 23v-261z" />
    <glyph glyph-name="napostrophe" unicode="&#x149;" horiz-adv-x="703" 
d="M106 454h-49c40 37 81 105 82 138h-4c-6 -2 -9 -3 -14 -3c-23 0 -41 18 -41 43c0 26 21 46 50 46c32 0 52 -22 52 -57c0 -47 -29 -110 -76 -167zM206 448v14c45 6 85 17 119 30c4 -26 5 -39 7 -89c35 53 76 77 131 77c53 0 98 -24 123 -65c15 -24 22 -59 22 -106v-244
c0 -40 12 -48 71 -51v-17c-48 5 -72 6 -103 6s-55 -1 -104 -6v17c61 2 74 11 74 51v242c0 49 -5 74 -18 94c-16 24 -43 37 -78 37c-37 0 -71 -17 -92 -45c-15 -21 -21 -45 -21 -90v-238c0 -40 12 -48 72 -51v-17c-49 5 -72 6 -103 6c-30 0 -54 -1 -102 -6v17
c59 3 71 11 71 51v324c0 57 0 57 -69 59z" />
    <glyph glyph-name="uni2003" unicode="&#x2003;" horiz-adv-x="1000" 
 />
    <glyph glyph-name="uni2002" unicode="&#x2002;" horiz-adv-x="500" 
 />
    <glyph glyph-name="uni200A" unicode="&#x200a;" horiz-adv-x="125" 
 />
    <glyph glyph-name="uni2007" unicode="&#x2007;" horiz-adv-x="516" 
 />
    <glyph glyph-name="uni00A0" unicode="&#xa0;" horiz-adv-x="250" 
 />
    <glyph glyph-name="lozenge" unicode="&#x25ca;" horiz-adv-x="667" 
d="M334 693l259 -359l-259 -360l-260 360zM334 604l-197 -270l197 -271l197 271z" />
    <glyph glyph-name="Delta" unicode="&#x2206;" horiz-adv-x="667" 
d="M345 684l308 -684h-639l308 684h23zM319 607l-217 -480c-11 -26 -15 -38 -15 -51c0 -25 13 -35 45 -35h438z" />
    <glyph glyph-name="notequal" unicode="&#x2260;" horiz-adv-x="500" 
d="M277 431l56 120l29 -13l-49 -107h159v-32h-174l-50 -105h225v-32h-239l-61 -131l-29 13l54 118h-170v32h185l50 105h-236v32h250z" />
    <glyph glyph-name="radical" unicode="&#x221a;" horiz-adv-x="667" 
d="M650 823v-24h-122l-185 -799h-63l-87 363h-176v24h228l79 -337l181 773h145z" />
    <glyph glyph-name="integral" unicode="&#x222b;" horiz-adv-x="501" 
d="M280 450v-426c0 -117 -8 -166 -33 -213c-27 -50 -67 -77 -114 -77c-58 0 -107 45 -107 97c0 29 20 50 46 50c24 0 43 -18 43 -41c0 -7 -1 -12 -3 -18c-1 -3 -2 -9 -4 -19c-2 -15 13 -30 30 -30c48 0 84 81 84 190v436c0 118 7 166 33 214c27 49 68 77 114 77
c57 0 107 -46 107 -98c0 -28 -20 -49 -46 -49c-25 0 -43 17 -43 41c0 7 1 11 3 18c1 2 2 8 4 19c2 15 -13 30 -30 30c-49 0 -84 -83 -84 -201z" />
    <glyph glyph-name="approxequal" unicode="&#x2248;" horiz-adv-x="500" 
d="M459 468l13 -7c-37 -56 -92 -91 -141 -91c-20 0 -33 3 -69 15c-66 21 -92 27 -124 27c-39 0 -53 -9 -97 -61l-13 7c47 64 92 92 145 92c25 0 44 -4 96 -22c42 -14 62 -18 83 -18c39 0 76 20 107 58zM459 316l13 -7c-36 -54 -93 -91 -141 -91c-18 0 -31 3 -69 15
c-69 23 -93 28 -124 28c-38 0 -53 -9 -97 -62l-13 8c47 63 92 92 145 92c23 0 46 -5 96 -22c40 -13 65 -19 83 -19c38 0 76 21 107 58z" />
    <glyph glyph-name="uni2243" unicode="&#x2243;" horiz-adv-x="500" 
d="M459 468l13 -7c-37 -56 -92 -91 -141 -91c-20 0 -33 3 -69 15c-66 21 -92 27 -124 27c-39 0 -53 -9 -97 -61l-13 7c47 64 92 92 145 92c25 0 44 -4 96 -22c42 -14 62 -18 83 -18c39 0 76 20 107 58zM472 274v-24h-444v24h444z" />
    <glyph glyph-name="lessequal" unicode="&#x2264;" horiz-adv-x="500" 
d="M456 607v-29l-332 -218l332 -221v-78l-411 273v6zM44 28h412v-28h-412v28z" />
    <glyph glyph-name="greaterequal" unicode="&#x2265;" horiz-adv-x="500" 
d="M44 28h412v-28h-412v28zM44 61v30l332 217l-332 221v78l411 -274v-6z" />
    <glyph glyph-name="infinity" unicode="&#x221e;" horiz-adv-x="667" 
d="M321 299c-26 -42 -33 -52 -48 -71c-28 -33 -67 -53 -107 -53c-82 0 -148 70 -148 155c0 92 69 166 154 166c60 0 115 -42 167 -125c4 7 9 14 14 20c44 66 44 66 67 82c24 16 50 24 77 24c83 0 152 -72 152 -159c0 -91 -72 -167 -159 -167c-61 0 -123 47 -169 128z
M349 355c22 -34 23 -36 36 -52c40 -53 89 -82 136 -82c58 0 103 50 103 114c0 69 -52 115 -129 115c-63 0 -102 -25 -146 -95zM309 317c-22 33 -28 42 -42 59c-38 47 -78 69 -124 69c-58 0 -101 -47 -101 -111c0 -66 52 -113 126 -113c59 0 97 26 141 96z" />
    <glyph glyph-name="product" unicode="&#x220f;" horiz-adv-x="667" 
d="M32 667h602v-18h-23c-59 0 -66 -8 -66 -80v-704c0 -71 7 -80 64 -80h25v-18h-235v18h21c61 0 67 8 67 80v704c0 72 -6 80 -67 80h-172c-60 0 -67 -8 -67 -80v-704c0 -71 7 -80 65 -80h24v-18h-235v18h21c60 0 67 8 67 80v704c0 72 -6 80 -67 80h-24v18z" />
    <glyph glyph-name="summation" unicode="&#x2211;" horiz-adv-x="667" 
d="M63 667h501v-154h-18c-13 104 -48 131 -172 131h-234l210 -401l-234 -441h266c84 0 123 13 158 51c22 25 37 55 47 98h18l-33 -184h-509l239 449z" />
    <glyph glyph-name="partialdiff" unicode="&#x2202;" horiz-adv-x="500" 
d="M150 666l10 17c64 -28 117 -63 160 -106c84 -82 146 -232 146 -352c0 -137 -92 -239 -218 -239c-119 0 -213 101 -213 228c0 130 93 229 214 229c70 0 116 -26 155 -87c-46 152 -119 241 -254 310zM254 422c-32 0 -62 -10 -88 -30c-43 -33 -74 -108 -74 -177
c0 -116 69 -208 156 -208c90 0 161 93 161 213c0 118 -64 202 -155 202z" />
    <glyph glyph-name="uni203E" unicode="&#x203e;" horiz-adv-x="500" 
d="M27 839h445v-32h-445v32z" />
    <glyph glyph-name="uni2126" unicode="&#x2126;" horiz-adv-x="667" 
d="M682 108l-38 -108h-270v33c76 36 108 59 145 104c50 62 77 138 77 217c0 76 -29 159 -77 217c-44 53 -109 82 -186 82c-92 0 -164 -40 -211 -119c-33 -53 -50 -116 -50 -179c0 -97 42 -193 113 -257c26 -23 53 -40 108 -65v-33h-270l-38 108h18c20 -57 47 -72 125 -73
l107 -2v5c-67 28 -96 47 -134 85c-62 64 -97 147 -97 231c0 92 48 192 122 254c56 46 126 70 208 70c108 0 194 -41 257 -121c46 -60 72 -132 72 -201c0 -103 -52 -203 -137 -267c-26 -20 -46 -30 -94 -51v-4l110 1c76 1 102 16 122 73h18z" />
    <glyph glyph-name="Alpha" unicode="&#x391;" 
d="M109 293c27 0 48 -21 48 -48c0 -28 -21 -49 -48 -49s-49 22 -49 48c0 28 22 49 49 49z" />
    <glyph glyph-name="Beta" unicode="&#x392;" 
d="M109 293c27 0 48 -21 48 -48c0 -28 -21 -49 -48 -49s-49 22 -49 48c0 28 22 49 49 49z" />
    <glyph glyph-name="Gamma" unicode="&#x393;" 
d="M109 293c27 0 48 -21 48 -48c0 -28 -21 -49 -48 -49s-49 22 -49 48c0 28 22 49 49 49z" />
    <glyph glyph-name="uni0394" unicode="&#x394;" 
d="M109 293c27 0 48 -21 48 -48c0 -28 -21 -49 -48 -49s-49 22 -49 48c0 28 22 49 49 49z" />
    <glyph glyph-name="Epsilon" unicode="&#x395;" 
d="M109 293c27 0 48 -21 48 -48c0 -28 -21 -49 -48 -49s-49 22 -49 48c0 28 22 49 49 49z" />
    <glyph glyph-name="Zeta" unicode="&#x396;" 
d="M109 293c27 0 48 -21 48 -48c0 -28 -21 -49 -48 -49s-49 22 -49 48c0 28 22 49 49 49z" />
    <glyph glyph-name="Eta" unicode="&#x397;" 
d="M109 293c27 0 48 -21 48 -48c0 -28 -21 -49 -48 -49s-49 22 -49 48c0 28 22 49 49 49z" />
    <glyph glyph-name="Theta" unicode="&#x398;" 
d="M109 293c27 0 48 -21 48 -48c0 -28 -21 -49 -48 -49s-49 22 -49 48c0 28 22 49 49 49z" />
    <glyph glyph-name="Iota" unicode="&#x399;" 
d="M109 293c27 0 48 -21 48 -48c0 -28 -21 -49 -48 -49s-49 22 -49 48c0 28 22 49 49 49z" />
    <glyph glyph-name="Kappa" unicode="&#x39a;" 
d="M109 293c27 0 48 -21 48 -48c0 -28 -21 -49 -48 -49s-49 22 -49 48c0 28 22 49 49 49z" />
    <glyph glyph-name="Lambda" unicode="&#x39b;" 
d="M109 293c27 0 48 -21 48 -48c0 -28 -21 -49 -48 -49s-49 22 -49 48c0 28 22 49 49 49z" />
    <glyph glyph-name="Mu" unicode="&#x39c;" 
d="M109 293c27 0 48 -21 48 -48c0 -28 -21 -49 -48 -49s-49 22 -49 48c0 28 22 49 49 49z" />
    <glyph glyph-name="Nu" unicode="&#x39d;" 
d="M109 293c27 0 48 -21 48 -48c0 -28 -21 -49 -48 -49s-49 22 -49 48c0 28 22 49 49 49z" />
    <glyph glyph-name="Xi" unicode="&#x39e;" 
d="M109 293c27 0 48 -21 48 -48c0 -28 -21 -49 -48 -49s-49 22 -49 48c0 28 22 49 49 49z" />
    <glyph glyph-name="Omicron" unicode="&#x39f;" 
d="M109 293c27 0 48 -21 48 -48c0 -28 -21 -49 -48 -49s-49 22 -49 48c0 28 22 49 49 49z" />
    <glyph glyph-name="Pi" unicode="&#x3a0;" 
d="M109 293c27 0 48 -21 48 -48c0 -28 -21 -49 -48 -49s-49 22 -49 48c0 28 22 49 49 49z" />
    <glyph glyph-name="Rho" unicode="&#x3a1;" 
d="M109 293c27 0 48 -21 48 -48c0 -28 -21 -49 -48 -49s-49 22 -49 48c0 28 22 49 49 49z" />
    <glyph glyph-name="Sigma" unicode="&#x3a3;" 
d="M109 293c27 0 48 -21 48 -48c0 -28 -21 -49 -48 -49s-49 22 -49 48c0 28 22 49 49 49z" />
    <glyph glyph-name="Tau" unicode="&#x3a4;" 
d="M109 293c27 0 48 -21 48 -48c0 -28 -21 -49 -48 -49s-49 22 -49 48c0 28 22 49 49 49z" />
    <glyph glyph-name="Upsilon" unicode="&#x3a5;" 
d="M109 293c27 0 48 -21 48 -48c0 -28 -21 -49 -48 -49s-49 22 -49 48c0 28 22 49 49 49z" />
    <glyph glyph-name="Phi" unicode="&#x3a6;" 
d="M109 293c27 0 48 -21 48 -48c0 -28 -21 -49 -48 -49s-49 22 -49 48c0 28 22 49 49 49z" />
    <glyph glyph-name="Chi" unicode="&#x3a7;" 
d="M109 293c27 0 48 -21 48 -48c0 -28 -21 -49 -48 -49s-49 22 -49 48c0 28 22 49 49 49z" />
    <glyph glyph-name="Psi" unicode="&#x3a8;" 
d="M109 293c27 0 48 -21 48 -48c0 -28 -21 -49 -48 -49s-49 22 -49 48c0 28 22 49 49 49z" />
    <glyph glyph-name="uni03A9" unicode="&#x3a9;" 
d="M109 293c27 0 48 -21 48 -48c0 -28 -21 -49 -48 -49s-49 22 -49 48c0 28 22 49 49 49z" />
    <glyph glyph-name="Upsilon1" unicode="&#x3d2;" 
d="M109 293c27 0 48 -21 48 -48c0 -28 -21 -49 -48 -49s-49 22 -49 48c0 28 22 49 49 49z" />
    <glyph glyph-name="alpha" unicode="&#x3b1;" 
d="M109 293c27 0 48 -21 48 -48c0 -28 -21 -49 -48 -49s-49 22 -49 48c0 28 22 49 49 49z" />
    <glyph glyph-name="beta" unicode="&#x3b2;" 
d="M109 293c27 0 48 -21 48 -48c0 -28 -21 -49 -48 -49s-49 22 -49 48c0 28 22 49 49 49z" />
    <glyph glyph-name="gamma" unicode="&#x3b3;" 
d="M109 293c27 0 48 -21 48 -48c0 -28 -21 -49 -48 -49s-49 22 -49 48c0 28 22 49 49 49z" />
    <glyph glyph-name="delta" unicode="&#x3b4;" 
d="M109 293c27 0 48 -21 48 -48c0 -28 -21 -49 -48 -49s-49 22 -49 48c0 28 22 49 49 49z" />
    <glyph glyph-name="epsilon" unicode="&#x3b5;" 
d="M109 293c27 0 48 -21 48 -48c0 -28 -21 -49 -48 -49s-49 22 -49 48c0 28 22 49 49 49z" />
    <glyph glyph-name="zeta" unicode="&#x3b6;" 
d="M109 293c27 0 48 -21 48 -48c0 -28 -21 -49 -48 -49s-49 22 -49 48c0 28 22 49 49 49z" />
    <glyph glyph-name="eta" unicode="&#x3b7;" 
d="M109 293c27 0 48 -21 48 -48c0 -28 -21 -49 -48 -49s-49 22 -49 48c0 28 22 49 49 49z" />
    <glyph glyph-name="theta" unicode="&#x3b8;" 
d="M109 293c27 0 48 -21 48 -48c0 -28 -21 -49 -48 -49s-49 22 -49 48c0 28 22 49 49 49z" />
    <glyph glyph-name="iota" unicode="&#x3b9;" 
d="M109 293c27 0 48 -21 48 -48c0 -28 -21 -49 -48 -49s-49 22 -49 48c0 28 22 49 49 49z" />
    <glyph glyph-name="kappa" unicode="&#x3ba;" 
d="M109 293c27 0 48 -21 48 -48c0 -28 -21 -49 -48 -49s-49 22 -49 48c0 28 22 49 49 49z" />
    <glyph glyph-name="lambda" unicode="&#x3bb;" 
d="M109 293c27 0 48 -21 48 -48c0 -28 -21 -49 -48 -49s-49 22 -49 48c0 28 22 49 49 49z" />
    <glyph glyph-name="uni03BC" unicode="&#x3bc;" 
d="M109 293c27 0 48 -21 48 -48c0 -28 -21 -49 -48 -49s-49 22 -49 48c0 28 22 49 49 49z" />
    <glyph glyph-name="nu" unicode="&#x3bd;" 
d="M109 293c27 0 48 -21 48 -48c0 -28 -21 -49 -48 -49s-49 22 -49 48c0 28 22 49 49 49z" />
    <glyph glyph-name="xi" unicode="&#x3be;" 
d="M109 293c27 0 48 -21 48 -48c0 -28 -21 -49 -48 -49s-49 22 -49 48c0 28 22 49 49 49z" />
    <glyph glyph-name="omicron" unicode="&#x3bf;" 
d="M109 293c27 0 48 -21 48 -48c0 -28 -21 -49 -48 -49s-49 22 -49 48c0 28 22 49 49 49z" />
    <glyph glyph-name="pi" unicode="&#x3c0;" 
d="M109 293c27 0 48 -21 48 -48c0 -28 -21 -49 -48 -49s-49 22 -49 48c0 28 22 49 49 49z" />
    <glyph glyph-name="rho" unicode="&#x3c1;" 
d="M109 293c27 0 48 -21 48 -48c0 -28 -21 -49 -48 -49s-49 22 -49 48c0 28 22 49 49 49z" />
    <glyph glyph-name="sigma" unicode="&#x3c3;" 
d="M109 293c27 0 48 -21 48 -48c0 -28 -21 -49 -48 -49s-49 22 -49 48c0 28 22 49 49 49z" />
    <glyph glyph-name="tau" unicode="&#x3c4;" 
d="M109 293c27 0 48 -21 48 -48c0 -28 -21 -49 -48 -49s-49 22 -49 48c0 28 22 49 49 49z" />
    <glyph glyph-name="upsilon" unicode="&#x3c5;" 
d="M109 293c27 0 48 -21 48 -48c0 -28 -21 -49 -48 -49s-49 22 -49 48c0 28 22 49 49 49z" />
    <glyph glyph-name="phi1" unicode="&#x3d5;" 
d="M109 293c27 0 48 -21 48 -48c0 -28 -21 -49 -48 -49s-49 22 -49 48c0 28 22 49 49 49z" />
    <glyph glyph-name="chi" unicode="&#x3c7;" 
d="M109 293c27 0 48 -21 48 -48c0 -28 -21 -49 -48 -49s-49 22 -49 48c0 28 22 49 49 49z" />
    <glyph glyph-name="psi" unicode="&#x3c8;" 
d="M109 293c27 0 48 -21 48 -48c0 -28 -21 -49 -48 -49s-49 22 -49 48c0 28 22 49 49 49z" />
    <glyph glyph-name="omega" unicode="&#x3c9;" 
d="M109 293c27 0 48 -21 48 -48c0 -28 -21 -49 -48 -49s-49 22 -49 48c0 28 22 49 49 49z" />
    <glyph glyph-name="uni03C2" unicode="&#x3c2;" 
d="M109 293c27 0 48 -21 48 -48c0 -28 -21 -49 -48 -49s-49 22 -49 48c0 28 22 49 49 49z" />
    <glyph glyph-name="uniEA3E" unicode="&#xea3e;" 
d="M109 293c27 0 48 -21 48 -48c0 -28 -21 -49 -48 -49s-49 22 -49 48c0 28 22 49 49 49z" />
    <glyph glyph-name="theta1" unicode="&#x3d1;" 
d="M109 293c27 0 48 -21 48 -48c0 -28 -21 -49 -48 -49s-49 22 -49 48c0 28 22 49 49 49z" />
    <glyph glyph-name="phi" unicode="&#x3c6;" 
d="M109 293c27 0 48 -21 48 -48c0 -28 -21 -49 -48 -49s-49 22 -49 48c0 28 22 49 49 49z" />
    <glyph glyph-name="omega1" unicode="&#x3d6;" 
d="M109 293c27 0 48 -21 48 -48c0 -28 -21 -49 -48 -49s-49 22 -49 48c0 28 22 49 49 49z" />
    <glyph glyph-name="iotadieresis" unicode="&#x3ca;" 
d="M109 293c27 0 48 -21 48 -48c0 -28 -21 -49 -48 -49s-49 22 -49 48c0 28 22 49 49 49z" />
    <glyph glyph-name="upsilondieresis" unicode="&#x3cb;" 
d="M109 293c27 0 48 -21 48 -48c0 -28 -21 -49 -48 -49s-49 22 -49 48c0 28 22 49 49 49z" />
    <glyph glyph-name="tonos" unicode="&#x384;" 
d="M109 293c27 0 48 -21 48 -48c0 -28 -21 -49 -48 -49s-49 22 -49 48c0 28 22 49 49 49z" />
    <glyph glyph-name="dieresistonos" unicode="&#x385;" 
d="M109 293c27 0 48 -21 48 -48c0 -28 -21 -49 -48 -49s-49 22 -49 48c0 28 22 49 49 49z" />
    <glyph glyph-name="Alphatonos" unicode="&#x386;" 
d="M109 293c27 0 48 -21 48 -48c0 -28 -21 -49 -48 -49s-49 22 -49 48c0 28 22 49 49 49z" />
    <glyph glyph-name="Epsilontonos" unicode="&#x388;" 
d="M109 293c27 0 48 -21 48 -48c0 -28 -21 -49 -48 -49s-49 22 -49 48c0 28 22 49 49 49z" />
    <glyph glyph-name="Etatonos" unicode="&#x389;" 
d="M109 293c27 0 48 -21 48 -48c0 -28 -21 -49 -48 -49s-49 22 -49 48c0 28 22 49 49 49z" />
    <glyph glyph-name="Iotatonos" unicode="&#x38a;" 
d="M109 293c27 0 48 -21 48 -48c0 -28 -21 -49 -48 -49s-49 22 -49 48c0 28 22 49 49 49z" />
    <glyph glyph-name="Omicrontonos" unicode="&#x38c;" 
d="M109 293c27 0 48 -21 48 -48c0 -28 -21 -49 -48 -49s-49 22 -49 48c0 28 22 49 49 49z" />
    <glyph glyph-name="Omegatonos" unicode="&#x38f;" 
d="M109 293c27 0 48 -21 48 -48c0 -28 -21 -49 -48 -49s-49 22 -49 48c0 28 22 49 49 49z" />
    <glyph glyph-name="Upsilontonos" unicode="&#x38e;" 
d="M109 293c27 0 48 -21 48 -48c0 -28 -21 -49 -48 -49s-49 22 -49 48c0 28 22 49 49 49z" />
    <glyph glyph-name="Iotadieresis" unicode="&#x3aa;" 
d="M109 293c27 0 48 -21 48 -48c0 -28 -21 -49 -48 -49s-49 22 -49 48c0 28 22 49 49 49z" />
    <glyph glyph-name="Upsilondieresis" unicode="&#x3ab;" 
d="M109 293c27 0 48 -21 48 -48c0 -28 -21 -49 -48 -49s-49 22 -49 48c0 28 22 49 49 49z" />
    <glyph glyph-name="alphatonos" unicode="&#x3ac;" 
d="M109 293c27 0 48 -21 48 -48c0 -28 -21 -49 -48 -49s-49 22 -49 48c0 28 22 49 49 49z" />
    <glyph glyph-name="epsilontonos" unicode="&#x3ad;" 
d="M109 293c27 0 48 -21 48 -48c0 -28 -21 -49 -48 -49s-49 22 -49 48c0 28 22 49 49 49z" />
    <glyph glyph-name="etatonos" unicode="&#x3ae;" 
d="M109 293c27 0 48 -21 48 -48c0 -28 -21 -49 -48 -49s-49 22 -49 48c0 28 22 49 49 49z" />
    <glyph glyph-name="iotatonos" unicode="&#x3af;" 
d="M109 293c27 0 48 -21 48 -48c0 -28 -21 -49 -48 -49s-49 22 -49 48c0 28 22 49 49 49z" />
    <glyph glyph-name="omicrontonos" unicode="&#x3cc;" 
d="M109 293c27 0 48 -21 48 -48c0 -28 -21 -49 -48 -49s-49 22 -49 48c0 28 22 49 49 49z" />
    <glyph glyph-name="omegatonos" unicode="&#x3ce;" 
d="M109 293c27 0 48 -21 48 -48c0 -28 -21 -49 -48 -49s-49 22 -49 48c0 28 22 49 49 49z" />
    <glyph glyph-name="upsilontonos" unicode="&#x3cd;" 
d="M109 293c27 0 48 -21 48 -48c0 -28 -21 -49 -48 -49s-49 22 -49 48c0 28 22 49 49 49z" />
    <glyph glyph-name="iotadieresistonos" unicode="&#x390;" 
d="M109 293c27 0 48 -21 48 -48c0 -28 -21 -49 -48 -49s-49 22 -49 48c0 28 22 49 49 49z" />
    <glyph glyph-name="upsilondieresistonos" unicode="&#x3b0;" 
d="M109 293c27 0 48 -21 48 -48c0 -28 -21 -49 -48 -49s-49 22 -49 48c0 28 22 49 49 49z" />
    <glyph glyph-name="afii10017" unicode="&#x410;" 
d="M109 293c27 0 48 -21 48 -48c0 -28 -21 -49 -48 -49s-49 22 -49 48c0 28 22 49 49 49z" />
    <glyph glyph-name="afii10018" unicode="&#x411;" 
d="M109 293c27 0 48 -21 48 -48c0 -28 -21 -49 -48 -49s-49 22 -49 48c0 28 22 49 49 49z" />
    <glyph glyph-name="afii10019" unicode="&#x412;" 
d="M109 293c27 0 48 -21 48 -48c0 -28 -21 -49 -48 -49s-49 22 -49 48c0 28 22 49 49 49z" />
    <glyph glyph-name="afii10020" unicode="&#x413;" 
d="M109 293c27 0 48 -21 48 -48c0 -28 -21 -49 -48 -49s-49 22 -49 48c0 28 22 49 49 49z" />
    <glyph glyph-name="afii10021" unicode="&#x414;" 
d="M109 293c27 0 48 -21 48 -48c0 -28 -21 -49 -48 -49s-49 22 -49 48c0 28 22 49 49 49z" />
    <glyph glyph-name="afii10022" unicode="&#x415;" 
d="M109 293c27 0 48 -21 48 -48c0 -28 -21 -49 -48 -49s-49 22 -49 48c0 28 22 49 49 49z" />
    <glyph glyph-name="afii10024" unicode="&#x416;" 
d="M109 293c27 0 48 -21 48 -48c0 -28 -21 -49 -48 -49s-49 22 -49 48c0 28 22 49 49 49z" />
    <glyph glyph-name="afii10025" unicode="&#x417;" 
d="M109 293c27 0 48 -21 48 -48c0 -28 -21 -49 -48 -49s-49 22 -49 48c0 28 22 49 49 49z" />
    <glyph glyph-name="afii10026" unicode="&#x418;" 
d="M109 293c27 0 48 -21 48 -48c0 -28 -21 -49 -48 -49s-49 22 -49 48c0 28 22 49 49 49z" />
    <glyph glyph-name="afii10028" unicode="&#x41a;" 
d="M109 293c27 0 48 -21 48 -48c0 -28 -21 -49 -48 -49s-49 22 -49 48c0 28 22 49 49 49z" />
    <glyph glyph-name="afii10029" unicode="&#x41b;" 
d="M109 293c27 0 48 -21 48 -48c0 -28 -21 -49 -48 -49s-49 22 -49 48c0 28 22 49 49 49z" />
    <glyph glyph-name="afii10030" unicode="&#x41c;" 
d="M109 293c27 0 48 -21 48 -48c0 -28 -21 -49 -48 -49s-49 22 -49 48c0 28 22 49 49 49z" />
    <glyph glyph-name="afii10031" unicode="&#x41d;" 
d="M109 293c27 0 48 -21 48 -48c0 -28 -21 -49 -48 -49s-49 22 -49 48c0 28 22 49 49 49z" />
    <glyph glyph-name="afii10032" unicode="&#x41e;" 
d="M109 293c27 0 48 -21 48 -48c0 -28 -21 -49 -48 -49s-49 22 -49 48c0 28 22 49 49 49z" />
    <glyph glyph-name="afii10033" unicode="&#x41f;" 
d="M109 293c27 0 48 -21 48 -48c0 -28 -21 -49 -48 -49s-49 22 -49 48c0 28 22 49 49 49z" />
    <glyph glyph-name="afii10034" unicode="&#x420;" 
d="M109 293c27 0 48 -21 48 -48c0 -28 -21 -49 -48 -49s-49 22 -49 48c0 28 22 49 49 49z" />
    <glyph glyph-name="afii10035" unicode="&#x421;" 
d="M109 293c27 0 48 -21 48 -48c0 -28 -21 -49 -48 -49s-49 22 -49 48c0 28 22 49 49 49z" />
    <glyph glyph-name="afii10036" unicode="&#x422;" 
d="M109 293c27 0 48 -21 48 -48c0 -28 -21 -49 -48 -49s-49 22 -49 48c0 28 22 49 49 49z" />
    <glyph glyph-name="afii10037" unicode="&#x423;" 
d="M109 293c27 0 48 -21 48 -48c0 -28 -21 -49 -48 -49s-49 22 -49 48c0 28 22 49 49 49z" />
    <glyph glyph-name="afii10038" unicode="&#x424;" 
d="M109 293c27 0 48 -21 48 -48c0 -28 -21 -49 -48 -49s-49 22 -49 48c0 28 22 49 49 49z" />
    <glyph glyph-name="afii10039" unicode="&#x425;" 
d="M109 293c27 0 48 -21 48 -48c0 -28 -21 -49 -48 -49s-49 22 -49 48c0 28 22 49 49 49z" />
    <glyph glyph-name="afii10040" unicode="&#x426;" 
d="M109 293c27 0 48 -21 48 -48c0 -28 -21 -49 -48 -49s-49 22 -49 48c0 28 22 49 49 49z" />
    <glyph glyph-name="afii10041" unicode="&#x427;" 
d="M109 293c27 0 48 -21 48 -48c0 -28 -21 -49 -48 -49s-49 22 -49 48c0 28 22 49 49 49z" />
    <glyph glyph-name="afii10042" unicode="&#x428;" 
d="M109 293c27 0 48 -21 48 -48c0 -28 -21 -49 -48 -49s-49 22 -49 48c0 28 22 49 49 49z" />
    <glyph glyph-name="afii10043" unicode="&#x429;" 
d="M109 293c27 0 48 -21 48 -48c0 -28 -21 -49 -48 -49s-49 22 -49 48c0 28 22 49 49 49z" />
    <glyph glyph-name="afii10046" unicode="&#x42c;" 
d="M109 293c27 0 48 -21 48 -48c0 -28 -21 -49 -48 -49s-49 22 -49 48c0 28 22 49 49 49z" />
    <glyph glyph-name="afii10045" unicode="&#x42b;" 
d="M109 293c27 0 48 -21 48 -48c0 -28 -21 -49 -48 -49s-49 22 -49 48c0 28 22 49 49 49z" />
    <glyph glyph-name="afii10044" unicode="&#x42a;" 
d="M109 293c27 0 48 -21 48 -48c0 -28 -21 -49 -48 -49s-49 22 -49 48c0 28 22 49 49 49z" />
    <glyph glyph-name="afii10047" unicode="&#x42d;" 
d="M109 293c27 0 48 -21 48 -48c0 -28 -21 -49 -48 -49s-49 22 -49 48c0 28 22 49 49 49z" />
    <glyph glyph-name="afii10048" unicode="&#x42e;" 
d="M109 293c27 0 48 -21 48 -48c0 -28 -21 -49 -48 -49s-49 22 -49 48c0 28 22 49 49 49z" />
    <glyph glyph-name="afii10049" unicode="&#x42f;" 
d="M109 293c27 0 48 -21 48 -48c0 -28 -21 -49 -48 -49s-49 22 -49 48c0 28 22 49 49 49z" />
    <glyph glyph-name="afii10050" unicode="&#x490;" 
d="M109 293c27 0 48 -21 48 -48c0 -28 -21 -49 -48 -49s-49 22 -49 48c0 28 22 49 49 49z" />
    <glyph glyph-name="afii10051" unicode="&#x402;" 
d="M109 293c27 0 48 -21 48 -48c0 -28 -21 -49 -48 -49s-49 22 -49 48c0 28 22 49 49 49z" />
    <glyph glyph-name="afii10053" unicode="&#x404;" 
d="M109 293c27 0 48 -21 48 -48c0 -28 -21 -49 -48 -49s-49 22 -49 48c0 28 22 49 49 49z" />
    <glyph glyph-name="afii10054" unicode="&#x405;" 
d="M109 293c27 0 48 -21 48 -48c0 -28 -21 -49 -48 -49s-49 22 -49 48c0 28 22 49 49 49z" />
    <glyph glyph-name="afii10055" unicode="&#x406;" 
d="M109 293c27 0 48 -21 48 -48c0 -28 -21 -49 -48 -49s-49 22 -49 48c0 28 22 49 49 49z" />
    <glyph glyph-name="uni04C0" unicode="&#x4c0;" 
d="M109 293c27 0 48 -21 48 -48c0 -28 -21 -49 -48 -49s-49 22 -49 48c0 28 22 49 49 49z" />
    <glyph glyph-name="afii10057" unicode="&#x408;" 
d="M109 293c27 0 48 -21 48 -48c0 -28 -21 -49 -48 -49s-49 22 -49 48c0 28 22 49 49 49z" />
    <glyph glyph-name="afii10058" unicode="&#x409;" 
d="M109 293c27 0 48 -21 48 -48c0 -28 -21 -49 -48 -49s-49 22 -49 48c0 28 22 49 49 49z" />
    <glyph glyph-name="afii10059" unicode="&#x40a;" 
d="M109 293c27 0 48 -21 48 -48c0 -28 -21 -49 -48 -49s-49 22 -49 48c0 28 22 49 49 49z" />
    <glyph glyph-name="afii10060" unicode="&#x40b;" 
d="M109 293c27 0 48 -21 48 -48c0 -28 -21 -49 -48 -49s-49 22 -49 48c0 28 22 49 49 49z" />
    <glyph glyph-name="afii10145" unicode="&#x40f;" 
d="M109 293c27 0 48 -21 48 -48c0 -28 -21 -49 -48 -49s-49 22 -49 48c0 28 22 49 49 49z" />
    <glyph glyph-name="uni04E8" unicode="&#x4e8;" 
d="M109 293c27 0 48 -21 48 -48c0 -28 -21 -49 -48 -49s-49 22 -49 48c0 28 22 49 49 49z" />
    <glyph glyph-name="uni0496" unicode="&#x496;" 
d="M109 293c27 0 48 -21 48 -48c0 -28 -21 -49 -48 -49s-49 22 -49 48c0 28 22 49 49 49z" />
    <glyph glyph-name="uni04AE" unicode="&#x4ae;" 
d="M109 293c27 0 48 -21 48 -48c0 -28 -21 -49 -48 -49s-49 22 -49 48c0 28 22 49 49 49z" />
    <glyph glyph-name="uni04D8" unicode="&#x4d8;" 
d="M109 293c27 0 48 -21 48 -48c0 -28 -21 -49 -48 -49s-49 22 -49 48c0 28 22 49 49 49z" />
    <glyph glyph-name="uni04BA" unicode="&#x4ba;" 
d="M109 293c27 0 48 -21 48 -48c0 -28 -21 -49 -48 -49s-49 22 -49 48c0 28 22 49 49 49z" />
    <glyph glyph-name="afii61352" unicode="&#x2116;" 
d="M109 293c27 0 48 -21 48 -48c0 -28 -21 -49 -48 -49s-49 22 -49 48c0 28 22 49 49 49z" />
    <glyph glyph-name="uni0492" unicode="&#x492;" 
d="M109 293c27 0 48 -21 48 -48c0 -28 -21 -49 -48 -49s-49 22 -49 48c0 28 22 49 49 49z" />
    <glyph glyph-name="uni04B0" unicode="&#x4b0;" 
d="M109 293c27 0 48 -21 48 -48c0 -28 -21 -49 -48 -49s-49 22 -49 48c0 28 22 49 49 49z" />
    <glyph glyph-name="afii10023" unicode="&#x401;" 
d="M109 293c27 0 48 -21 48 -48c0 -28 -21 -49 -48 -49s-49 22 -49 48c0 28 22 49 49 49z" />
    <glyph glyph-name="afii10027" unicode="&#x419;" 
d="M109 293c27 0 48 -21 48 -48c0 -28 -21 -49 -48 -49s-49 22 -49 48c0 28 22 49 49 49z" />
    <glyph glyph-name="afii10052" unicode="&#x403;" 
d="M109 293c27 0 48 -21 48 -48c0 -28 -21 -49 -48 -49s-49 22 -49 48c0 28 22 49 49 49z" />
    <glyph glyph-name="afii10056" unicode="&#x407;" 
d="M109 293c27 0 48 -21 48 -48c0 -28 -21 -49 -48 -49s-49 22 -49 48c0 28 22 49 49 49z" />
    <glyph glyph-name="afii10061" unicode="&#x40c;" 
d="M109 293c27 0 48 -21 48 -48c0 -28 -21 -49 -48 -49s-49 22 -49 48c0 28 22 49 49 49z" />
    <glyph glyph-name="afii10062" unicode="&#x40e;" 
d="M109 293c27 0 48 -21 48 -48c0 -28 -21 -49 -48 -49s-49 22 -49 48c0 28 22 49 49 49z" />
    <glyph glyph-name="uni049C" unicode="&#x49c;" 
d="M109 293c27 0 48 -21 48 -48c0 -28 -21 -49 -48 -49s-49 22 -49 48c0 28 22 49 49 49z" />
    <glyph glyph-name="uni049A" unicode="&#x49a;" 
d="M109 293c27 0 48 -21 48 -48c0 -28 -21 -49 -48 -49s-49 22 -49 48c0 28 22 49 49 49z" />
    <glyph glyph-name="uni04A2" unicode="&#x4a2;" 
d="M109 293c27 0 48 -21 48 -48c0 -28 -21 -49 -48 -49s-49 22 -49 48c0 28 22 49 49 49z" />
    <glyph glyph-name="uni04B2" unicode="&#x4b2;" 
d="M109 293c27 0 48 -21 48 -48c0 -28 -21 -49 -48 -49s-49 22 -49 48c0 28 22 49 49 49z" />
    <glyph glyph-name="uni04B8" unicode="&#x4b8;" 
d="M109 293c27 0 48 -21 48 -48c0 -28 -21 -49 -48 -49s-49 22 -49 48c0 28 22 49 49 49z" />
    <glyph glyph-name="afii10065" unicode="&#x430;" 
d="M109 293c27 0 48 -21 48 -48c0 -28 -21 -49 -48 -49s-49 22 -49 48c0 28 22 49 49 49z" />
    <glyph glyph-name="afii10066" unicode="&#x431;" 
d="M109 293c27 0 48 -21 48 -48c0 -28 -21 -49 -48 -49s-49 22 -49 48c0 28 22 49 49 49z" />
    <glyph glyph-name="afii10067" unicode="&#x432;" 
d="M109 293c27 0 48 -21 48 -48c0 -28 -21 -49 -48 -49s-49 22 -49 48c0 28 22 49 49 49z" />
    <glyph glyph-name="afii10068" unicode="&#x433;" 
d="M109 293c27 0 48 -21 48 -48c0 -28 -21 -49 -48 -49s-49 22 -49 48c0 28 22 49 49 49z" />
    <glyph glyph-name="afii10069" unicode="&#x434;" 
d="M109 293c27 0 48 -21 48 -48c0 -28 -21 -49 -48 -49s-49 22 -49 48c0 28 22 49 49 49z" />
    <glyph glyph-name="afii10070" unicode="&#x435;" 
d="M109 293c27 0 48 -21 48 -48c0 -28 -21 -49 -48 -49s-49 22 -49 48c0 28 22 49 49 49z" />
    <glyph glyph-name="afii10072" unicode="&#x436;" 
d="M109 293c27 0 48 -21 48 -48c0 -28 -21 -49 -48 -49s-49 22 -49 48c0 28 22 49 49 49z" />
    <glyph glyph-name="afii10073" unicode="&#x437;" 
d="M109 293c27 0 48 -21 48 -48c0 -28 -21 -49 -48 -49s-49 22 -49 48c0 28 22 49 49 49z" />
    <glyph glyph-name="afii10074" unicode="&#x438;" 
d="M109 293c27 0 48 -21 48 -48c0 -28 -21 -49 -48 -49s-49 22 -49 48c0 28 22 49 49 49z" />
    <glyph glyph-name="afii10076" unicode="&#x43a;" 
d="M109 293c27 0 48 -21 48 -48c0 -28 -21 -49 -48 -49s-49 22 -49 48c0 28 22 49 49 49z" />
    <glyph glyph-name="afii10077" unicode="&#x43b;" 
d="M109 293c27 0 48 -21 48 -48c0 -28 -21 -49 -48 -49s-49 22 -49 48c0 28 22 49 49 49z" />
    <glyph glyph-name="afii10078" unicode="&#x43c;" 
d="M109 293c27 0 48 -21 48 -48c0 -28 -21 -49 -48 -49s-49 22 -49 48c0 28 22 49 49 49z" />
    <glyph glyph-name="afii10079" unicode="&#x43d;" 
d="M109 293c27 0 48 -21 48 -48c0 -28 -21 -49 -48 -49s-49 22 -49 48c0 28 22 49 49 49z" />
    <glyph glyph-name="afii10080" unicode="&#x43e;" 
d="M109 293c27 0 48 -21 48 -48c0 -28 -21 -49 -48 -49s-49 22 -49 48c0 28 22 49 49 49z" />
    <glyph glyph-name="afii10081" unicode="&#x43f;" 
d="M109 293c27 0 48 -21 48 -48c0 -28 -21 -49 -48 -49s-49 22 -49 48c0 28 22 49 49 49z" />
    <glyph glyph-name="afii10082" unicode="&#x440;" 
d="M109 293c27 0 48 -21 48 -48c0 -28 -21 -49 -48 -49s-49 22 -49 48c0 28 22 49 49 49z" />
    <glyph glyph-name="afii10083" unicode="&#x441;" 
d="M109 293c27 0 48 -21 48 -48c0 -28 -21 -49 -48 -49s-49 22 -49 48c0 28 22 49 49 49z" />
    <glyph glyph-name="afii10084" unicode="&#x442;" 
d="M109 293c27 0 48 -21 48 -48c0 -28 -21 -49 -48 -49s-49 22 -49 48c0 28 22 49 49 49z" />
    <glyph glyph-name="afii10085" unicode="&#x443;" 
d="M109 293c27 0 48 -21 48 -48c0 -28 -21 -49 -48 -49s-49 22 -49 48c0 28 22 49 49 49z" />
    <glyph glyph-name="afii10086" unicode="&#x444;" 
d="M109 293c27 0 48 -21 48 -48c0 -28 -21 -49 -48 -49s-49 22 -49 48c0 28 22 49 49 49z" />
    <glyph glyph-name="afii10087" unicode="&#x445;" 
d="M109 293c27 0 48 -21 48 -48c0 -28 -21 -49 -48 -49s-49 22 -49 48c0 28 22 49 49 49z" />
    <glyph glyph-name="afii10088" unicode="&#x446;" 
d="M109 293c27 0 48 -21 48 -48c0 -28 -21 -49 -48 -49s-49 22 -49 48c0 28 22 49 49 49z" />
    <glyph glyph-name="afii10091" unicode="&#x449;" 
d="M109 293c27 0 48 -21 48 -48c0 -28 -21 -49 -48 -49s-49 22 -49 48c0 28 22 49 49 49z" />
    <glyph glyph-name="afii10092" unicode="&#x44a;" 
d="M109 293c27 0 48 -21 48 -48c0 -28 -21 -49 -48 -49s-49 22 -49 48c0 28 22 49 49 49z" />
    <glyph glyph-name="afii10093" unicode="&#x44b;" 
d="M109 293c27 0 48 -21 48 -48c0 -28 -21 -49 -48 -49s-49 22 -49 48c0 28 22 49 49 49z" />
    <glyph glyph-name="afii10094" unicode="&#x44c;" 
d="M109 293c27 0 48 -21 48 -48c0 -28 -21 -49 -48 -49s-49 22 -49 48c0 28 22 49 49 49z" />
    <glyph glyph-name="afii10095" unicode="&#x44d;" 
d="M109 293c27 0 48 -21 48 -48c0 -28 -21 -49 -48 -49s-49 22 -49 48c0 28 22 49 49 49z" />
    <glyph glyph-name="afii10096" unicode="&#x44e;" 
d="M109 293c27 0 48 -21 48 -48c0 -28 -21 -49 -48 -49s-49 22 -49 48c0 28 22 49 49 49z" />
    <glyph glyph-name="afii10097" unicode="&#x44f;" 
d="M109 293c27 0 48 -21 48 -48c0 -28 -21 -49 -48 -49s-49 22 -49 48c0 28 22 49 49 49z" />
    <glyph glyph-name="afii10098" unicode="&#x491;" 
d="M109 293c27 0 48 -21 48 -48c0 -28 -21 -49 -48 -49s-49 22 -49 48c0 28 22 49 49 49z" />
    <glyph glyph-name="afii10099" unicode="&#x452;" 
d="M109 293c27 0 48 -21 48 -48c0 -28 -21 -49 -48 -49s-49 22 -49 48c0 28 22 49 49 49z" />
    <glyph glyph-name="afii10101" unicode="&#x454;" 
d="M109 293c27 0 48 -21 48 -48c0 -28 -21 -49 -48 -49s-49 22 -49 48c0 28 22 49 49 49z" />
    <glyph glyph-name="afii10102" unicode="&#x455;" 
d="M109 293c27 0 48 -21 48 -48c0 -28 -21 -49 -48 -49s-49 22 -49 48c0 28 22 49 49 49z" />
    <glyph glyph-name="afii10103" unicode="&#x456;" 
d="M109 293c27 0 48 -21 48 -48c0 -28 -21 -49 -48 -49s-49 22 -49 48c0 28 22 49 49 49z" />
    <glyph glyph-name="afii10105" unicode="&#x458;" 
d="M109 293c27 0 48 -21 48 -48c0 -28 -21 -49 -48 -49s-49 22 -49 48c0 28 22 49 49 49z" />
    <glyph glyph-name="afii10106" unicode="&#x459;" 
d="M109 293c27 0 48 -21 48 -48c0 -28 -21 -49 -48 -49s-49 22 -49 48c0 28 22 49 49 49z" />
    <glyph glyph-name="afii10107" unicode="&#x45a;" 
d="M109 293c27 0 48 -21 48 -48c0 -28 -21 -49 -48 -49s-49 22 -49 48c0 28 22 49 49 49z" />
    <glyph glyph-name="afii10108" unicode="&#x45b;" 
d="M109 293c27 0 48 -21 48 -48c0 -28 -21 -49 -48 -49s-49 22 -49 48c0 28 22 49 49 49z" />
    <glyph glyph-name="afii10193" unicode="&#x45f;" 
d="M109 293c27 0 48 -21 48 -48c0 -28 -21 -49 -48 -49s-49 22 -49 48c0 28 22 49 49 49z" />
    <glyph glyph-name="uni04E9" unicode="&#x4e9;" 
d="M109 293c27 0 48 -21 48 -48c0 -28 -21 -49 -48 -49s-49 22 -49 48c0 28 22 49 49 49z" />
    <glyph glyph-name="afii10089" unicode="&#x447;" 
d="M109 293c27 0 48 -21 48 -48c0 -28 -21 -49 -48 -49s-49 22 -49 48c0 28 22 49 49 49z" />
    <glyph glyph-name="afii10090" unicode="&#x448;" 
d="M109 293c27 0 48 -21 48 -48c0 -28 -21 -49 -48 -49s-49 22 -49 48c0 28 22 49 49 49z" />
    <glyph glyph-name="uni0497" unicode="&#x497;" 
d="M109 293c27 0 48 -21 48 -48c0 -28 -21 -49 -48 -49s-49 22 -49 48c0 28 22 49 49 49z" />
    <glyph glyph-name="uni04AF" unicode="&#x4af;" 
d="M109 293c27 0 48 -21 48 -48c0 -28 -21 -49 -48 -49s-49 22 -49 48c0 28 22 49 49 49z" />
    <glyph glyph-name="afii10846" unicode="&#x4d9;" 
d="M109 293c27 0 48 -21 48 -48c0 -28 -21 -49 -48 -49s-49 22 -49 48c0 28 22 49 49 49z" />
    <glyph glyph-name="uni04BB" unicode="&#x4bb;" 
d="M109 293c27 0 48 -21 48 -48c0 -28 -21 -49 -48 -49s-49 22 -49 48c0 28 22 49 49 49z" />
    <glyph glyph-name="uni0493" unicode="&#x493;" 
d="M109 293c27 0 48 -21 48 -48c0 -28 -21 -49 -48 -49s-49 22 -49 48c0 28 22 49 49 49z" />
    <glyph glyph-name="uni04B1" unicode="&#x4b1;" 
d="M109 293c27 0 48 -21 48 -48c0 -28 -21 -49 -48 -49s-49 22 -49 48c0 28 22 49 49 49z" />
    <glyph glyph-name="afii10071" unicode="&#x451;" 
d="M109 293c27 0 48 -21 48 -48c0 -28 -21 -49 -48 -49s-49 22 -49 48c0 28 22 49 49 49z" />
    </font>
</defs>
</svg>
